<svg xmlns="http://www.w3.org/2000/svg" xmlns:xlink="http://www.w3.org/1999/xlink" viewBox="0 0 2781.99 2772.29"><defs><linearGradient id="linear-gradient" x1="3026.76" y1="3179.02" x2="1086.24" y2="1113.29" gradientUnits="userSpaceOnUse"><stop offset="0" stop-color="#dae3fe"/><stop offset="1" stop-color="#e9effd"/></linearGradient><linearGradient id="linear-gradient-2" x1="955.43" y1="148.04" x2="668.53" y2="2443.3" gradientUnits="userSpaceOnUse"><stop offset="0" stop-color="#ff928e"/><stop offset="1" stop-color="#fe7062"/></linearGradient><linearGradient id="linear-gradient-3" x1="2975.14" y1="2751.93" x2="1113.58" y2="1751.09" gradientUnits="userSpaceOnUse"><stop offset="0" stop-color="#4f52ff"/><stop offset="1" stop-color="#4042e2"/></linearGradient><linearGradient id="linear-gradient-4" x1="1671.19" y1="1717.36" x2="2805.48" y2="523.02" xlink:href="#linear-gradient-3"/><linearGradient id="linear-gradient-5" x1="2465.18" y1="490.21" x2="1616.28" y2="1320.66" gradientUnits="userSpaceOnUse"><stop offset="0" stop-color="#2b3582"/><stop offset="1" stop-color="#150e42"/></linearGradient><linearGradient id="linear-gradient-6" x1="1501.61" y1="1090.18" x2="1418.76" y2="1171.22" gradientTransform="translate(393.73 -369.9) rotate(16.84)" gradientUnits="userSpaceOnUse"><stop offset="0" stop-color="#09005d"/><stop offset="1" stop-color="#1a0f91"/></linearGradient><linearGradient id="linear-gradient-7" x1="1823.94" y1="914.06" x2="1741.09" y2="995.11" gradientTransform="translate(2182.81 -1004.57) rotate(73.15)" xlink:href="#linear-gradient-6"/><linearGradient id="linear-gradient-8" x1="2126.33" y1="1040.33" x2="2043.48" y2="1121.38" gradientTransform="translate(1913.32 -1242.21) rotate(58.28)" xlink:href="#linear-gradient-6"/><linearGradient id="linear-gradient-9" x1="2378.88" y1="791.11" x2="2296.03" y2="872.16" gradientTransform="matrix(1, 0, 0, 1, 0, 0)" xlink:href="#linear-gradient-6"/><linearGradient id="linear-gradient-10" x1="2691.24" y1="611.67" x2="2608.39" y2="692.72" gradientTransform="translate(968.13 -1480.89) rotate(37.98)" xlink:href="#linear-gradient-6"/><linearGradient id="linear-gradient-11" x1="1517.52" y1="2760.4" x2="1706.52" y2="2760.4" gradientTransform="translate(-1140.73)" xlink:href="#linear-gradient-3"/><linearGradient id="linear-gradient-12" x1="1517.51" y1="2723.36" x2="1701.18" y2="2723.36" gradientTransform="translate(-1140.73)" xlink:href="#linear-gradient-6"/><linearGradient id="linear-gradient-13" x1="1534.97" y1="2671.64" x2="1588.2" y2="2671.64" gradientTransform="translate(-1140.73)" gradientUnits="userSpaceOnUse"><stop offset="0" stop-color="#febbba"/><stop offset="1" stop-color="#ff928e"/></linearGradient><linearGradient id="linear-gradient-14" x1="1140.73" y1="2756.33" x2="1213.16" y2="2756.33" gradientTransform="translate(-1140.73)" xlink:href="#linear-gradient-3"/><linearGradient id="linear-gradient-15" x1="1141.26" y1="2700.56" x2="1247.57" y2="2700.56" gradientTransform="translate(-1140.73)" xlink:href="#linear-gradient-6"/><linearGradient id="linear-gradient-16" x1="1196.52" y1="2627.26" x2="1260.14" y2="2627.26" xlink:href="#linear-gradient-13"/><linearGradient id="linear-gradient-17" x1="-600.03" y1="3339.76" x2="694.39" y2="1938.58" xlink:href="#linear-gradient-3"/><linearGradient id="linear-gradient-18" x1="-1183.11" y1="3800.23" x2="-545.91" y2="3306.48" gradientTransform="translate(-1140.73)" xlink:href="#linear-gradient-2"/><linearGradient id="linear-gradient-19" x1="407.44" y1="1512.23" x2="427.45" y2="1835.84" xlink:href="#linear-gradient-3"/><linearGradient id="linear-gradient-20" x1="1488.01" y1="1699.87" x2="1261.52" y2="1900.43" xlink:href="#linear-gradient-13"/><linearGradient id="linear-gradient-21" x1="-1293.45" y1="3657.84" x2="-656.24" y2="3164.09" gradientTransform="translate(-1140.73)" xlink:href="#linear-gradient-2"/><linearGradient id="linear-gradient-22" x1="-1089.41" y1="3921.17" x2="-452.2" y2="3427.42" gradientTransform="translate(-1140.73)" xlink:href="#linear-gradient-2"/><linearGradient id="linear-gradient-23" x1="1912.59" y1="1718.84" x2="2090.96" y2="1718.84" xlink:href="#linear-gradient-13"/><linearGradient id="linear-gradient-24" x1="1739.21" y1="1242.17" x2="1737.26" y2="1575.26" xlink:href="#linear-gradient-13"/><linearGradient id="linear-gradient-25" x1="1085.62" y1="1665.66" x2="94.78" y2="2032.63" gradientTransform="matrix(1, 0, 0, 1, 0, 0)" xlink:href="#linear-gradient-6"/><linearGradient id="linear-gradient-26" x1="2126.07" y1="1435.33" x2="2983.44" y2="1435.33" gradientTransform="translate(-1140.73)" gradientUnits="userSpaceOnUse"><stop offset="0" stop-color="#b37cff"/><stop offset="1" stop-color="#f895e7"/></linearGradient><linearGradient id="linear-gradient-27" x1="2077.75" y1="1435.33" x2="3031.77" y2="1435.33" gradientTransform="translate(-1140.73)" xlink:href="#linear-gradient-6"/><linearGradient id="linear-gradient-28" x1="1515.3" y1="2986.43" x2="1351.34" y2="3203.34" gradientTransform="translate(-1219.59 -1551.89) rotate(-8.21)" xlink:href="#linear-gradient-13"/><linearGradient id="linear-gradient-29" x1="557.07" y1="1223.1" x2="1125.95" y2="1295.02" gradientTransform="matrix(1, 0, 0, 1, 0, 0)" xlink:href="#linear-gradient-6"/><linearGradient id="linear-gradient-30" x1="1275.16" y1="3158.21" x2="1406.67" y2="3023.28" gradientTransform="translate(-1219.59 -1551.89) rotate(-8.21)" xlink:href="#linear-gradient-13"/><linearGradient id="linear-gradient-31" x1="1577.45" y1="1800.87" x2="1350.96" y2="2001.43" xlink:href="#linear-gradient-13"/><linearGradient id="linear-gradient-32" x1="2072.01" y1="1697.89" x2="2135.88" y2="1697.89" xlink:href="#linear-gradient-13"/><linearGradient id="linear-gradient-33" x1="-4200" y1="2616.78" x2="-4775.67" y2="3242.95" gradientTransform="matrix(-1, 0, 0, 1, -1966.08, 0)" xlink:href="#linear-gradient-3"/><linearGradient id="linear-gradient-34" x1="-4386.85" y1="2663.29" x2="-4335.72" y2="2663.29" gradientTransform="matrix(-1, 0, 0, 1, -1966.08, 0)" xlink:href="#linear-gradient-13"/><linearGradient id="linear-gradient-35" x1="-4508.1" y1="2272.3" x2="-4339.03" y2="2272.3" gradientTransform="matrix(-1, 0, 0, 1, -1966.08, 0)" xlink:href="#linear-gradient-6"/><linearGradient id="linear-gradient-36" x1="-4329.14" y1="2498.06" x2="-4904.81" y2="3124.22" gradientTransform="matrix(-1, 0, 0, 1, -1966.08, 0)" xlink:href="#linear-gradient-3"/><linearGradient id="linear-gradient-37" x1="-4571.14" y1="2660.67" x2="-4526.99" y2="2660.67" gradientTransform="matrix(-1, 0, 0, 1, -1966.08, 0)" xlink:href="#linear-gradient-13"/><linearGradient id="linear-gradient-38" x1="-4618.72" y1="2266.77" x2="-4378.69" y2="2266.77" gradientTransform="matrix(-1, 0, 0, 1, -1966.08, 0)" xlink:href="#linear-gradient-6"/><linearGradient id="linear-gradient-39" x1="2097.53" y1="2139.07" x2="2567.9" y2="1428.51" xlink:href="#linear-gradient-2"/><linearGradient id="linear-gradient-40" x1="-4176.44" y1="1329.27" x2="-3915.2" y2="1329.27" gradientTransform="matrix(-1, 0, 0, 1, -1966.08, 0)" xlink:href="#linear-gradient-13"/><linearGradient id="linear-gradient-41" x1="13493.16" y1="1285.48" x2="13668.46" y2="1684.32" gradientTransform="translate(-11485.85)" xlink:href="#linear-gradient-13"/><linearGradient id="linear-gradient-42" x1="-3916.46" y1="1152.66" x2="-3843.31" y2="1040.2" gradientTransform="matrix(-1, 0, 0, 1, -1966.08, 0)" xlink:href="#linear-gradient-13"/><linearGradient id="linear-gradient-43" x1="2234.37" y1="2229.66" x2="2704.74" y2="1519.09" xlink:href="#linear-gradient-2"/><linearGradient id="linear-gradient-44" x1="-4748.07" y1="1699.3" x2="-4417.48" y2="1699.3" gradientTransform="matrix(-1, 0, 0, 1, -1966.08, 0)" xlink:href="#linear-gradient-13"/><linearGradient id="linear-gradient-45" x1="-4317.46" y1="1464.26" x2="-4135.68" y2="2221.68" gradientTransform="matrix(-1, 0, 0, 1, -1966.08, 0)" xlink:href="#linear-gradient-6"/><linearGradient id="linear-gradient-46" x1="-4203.65" y1="1344.87" x2="-4242.36" y2="1514.88" gradientTransform="matrix(-1, 0, 0, 1, -1966.08, 0)" xlink:href="#linear-gradient-3"/><linearGradient id="linear-gradient-47" x1="-4223.91" y1="1416.18" x2="-4242.42" y2="1527.28" gradientTransform="matrix(-1, 0, 0, 1, -1966.08, 0)" xlink:href="#linear-gradient-3"/><linearGradient id="linear-gradient-48" x1="-4442.02" y1="1664.64" x2="-4339.03" y2="1664.64" gradientTransform="matrix(-1, 0, 0, 1, -1966.08, 0)" xlink:href="#linear-gradient-13"/><linearGradient id="linear-gradient-49" x1="2511.64" y1="1542.94" x2="2428.23" y2="1242.69" gradientTransform="matrix(1, 0, 0, 1, 0, 0)" xlink:href="#linear-gradient-13"/><linearGradient id="linear-gradient-50" x1="-8853.27" y1="-4564.27" x2="-8902.12" y2="-4725.37" gradientTransform="matrix(-0.75, -0.67, -0.67, 0.75, -7277.54, -1227.72)" xlink:href="#linear-gradient-13"/><linearGradient id="linear-gradient-51" x1="-8897.34" y1="-4844.96" x2="-8856.48" y2="-4611.92" gradientTransform="matrix(-0.75, -0.67, -0.67, 0.75, -7277.54, -1227.72)" xlink:href="#linear-gradient-6"/><linearGradient id="linear-gradient-52" x1="-8903.2" y1="-4565.02" x2="-8947.15" y2="-4709.96" gradientTransform="matrix(-0.75, -0.67, -0.67, 0.75, -7277.54, -1227.72)" xlink:href="#linear-gradient-13"/></defs><g id="Layer_2" data-name="Layer 2"><g id="Illustration"><path d="M2442.46,2351.82c-71.63,73.84-135.73,117.24-184.8,150C1779,2821.41,1230.24,2783.48,1061.08,2752c-272.91-50.8-501.61-140.81-699.54-319.64C-88.22,2026-66.35,1178.36,277.33,653.26,318.08,591,661.23,82.34,1209.53,10.67,1222.94,8.92,1233,7.92,1241.71,7c84.82-9,610.44-56.38,1039,302.69,61.36,51.4,170.54,137.87,251.64,285.51C2822.65,1123.61,2868.21,1913,2442.46,2351.82Z" fill="url(#linear-gradient)"/><path d="M2418.25,1124.84q-1.23-5.29-2.51-10.59c-129.59-533.5-671.86-859.78-1211.2-728.77L1441.75,1362Z" fill="#91b3fa"/><path d="M1438.85,1358.25l950.62,326.38c59.06-171.49,72.44-361.07,28.94-550.88-1.37-6-2.81-11.92-4.28-17.85Z" fill="#91b3fa"/><path d="M1441.74,1362l193.19,986.2q9.28-1.81,18.56-3.8c356.78-76.9,628.12-334.41,738.88-656Z" fill="#7d97f4"/><path d="M1318.21,1280.63,1117.59,308.44c-453.63,93.61-772.18,479.34-800,920.35L1312.67,1287A5.33,5.33,0,0,0,1318.21,1280.63Z" fill="url(#linear-gradient-2)"/><path d="M1442.36,1357.84,439.6,1324.51c-4.29,87.85,3.61,161.48,23.62,251.48C556.55,1995.89,900,2295.46,1302,2353Z" fill="url(#linear-gradient-3)"/><path d="M1293.6,2356a1001.65,1001.65,0,0,0,342.66-7.5h0L1444.1,1362.11Z" fill="url(#linear-gradient-4)"/><g opacity="0.61"><path d="M1083.45,2263.77a6.55,6.55,0,0,1-2.54-.51,981.15,981.15,0,0,1-362.77-260.07c-101.82-116.59-175.09-258.27-211.87-409.72-3.3-13.58-6.34-27.36-9-41a6.67,6.67,0,0,1,13.09-2.6c2.66,13.41,5.66,27,8.91,40.4,36.29,149.37,108.54,289.11,209,404.09A968,968,0,0,0,1086,2250.93a6.67,6.67,0,0,1-2.55,12.84Z" fill="#fff"/></g><g opacity="0.61"><path d="M1808.94,2268.07a6.67,6.67,0,0,1-2.46-12.88c248.23-98.52,445.57-298.83,541.41-549.57a6.67,6.67,0,0,1,12.46,4.76c-97.17,254.22-297.26,457.32-548.95,557.21A6.49,6.49,0,0,1,1808.94,2268.07Z" fill="#fff"/></g><g opacity="0.61"><path d="M2222.84,788.75a6.68,6.68,0,0,1-5.33-2.65c-119.93-158.85-283.74-275-473.74-336a6.67,6.67,0,0,1,4.07-12.71c192.64,61.83,358.73,179.64,480.32,340.7a6.67,6.67,0,0,1-5.32,10.69Z" fill="#fff"/></g><g opacity="0.74"><path d="M863.83,1224.14l-.44,0L352.84,1191.2,354,1184c13.44-86.56,35.54-170.38,69.56-263.77a6.67,6.67,0,1,1,12.54,4.57c-32.77,90-54.37,170.9-67.77,254l496,32a6.67,6.67,0,0,1-.42,13.33Z" fill="#fff"/></g><g opacity="0.74"><path d="M1264.29,1249.94l-.72,0-104.15-6.73a6.67,6.67,0,1,1,.86-13.32l100.72,6.52L1152.68,729.21a6.67,6.67,0,0,1,13-2.79l109,510.54a10.75,10.75,0,0,1-10.48,13Zm-2.57-10.19h0Z" fill="#fff"/></g><polygon points="1448.36 1149.01 1443.56 1140.23 1768.05 962.93 2069.59 1095.47 2328.46 841.55 2328.99 841.24 2633.04 661.8 2638.13 670.42 2334.6 849.55 2071.77 1107.36 1768.53 974.07 1448.36 1149.01" fill="url(#linear-gradient-5)"/><circle cx="1445.96" cy="1144.62" r="34.89" transform="translate(-269.65 468.13) rotate(-16.84)" fill="url(#linear-gradient-6)"/><circle cx="1768.29" cy="968.5" r="34.89" transform="translate(328.92 2380.26) rotate(-73.15)" fill="url(#linear-gradient-7)"/><circle cx="2070.68" cy="1094.77" r="34.89" transform="translate(50.79 2280.64) rotate(-58.28)" fill="url(#linear-gradient-8)"/><circle cx="2323.23" cy="845.55" r="34.89" fill="url(#linear-gradient-9)"/><circle cx="2635.59" cy="666.11" r="34.89" transform="translate(148.27 1763.05) rotate(-37.98)" fill="url(#linear-gradient-10)"/><path d="M560.45,2751.26c-32.38,2.8-88.57,7.34-132.87,9.29-26.63,1.18-42-1.43-50.79-5,0,1,0,1.94.08,2.81a9.17,9.17,0,0,0,8.7,8.66,1557,1557,0,0,0,174,.17,6.53,6.53,0,0,0,5.32-9.8A53.62,53.62,0,0,0,560.45,2751.26Z" fill="url(#linear-gradient-11)"/><path d="M427.58,2760.55c44.3-2,100.49-6.49,132.87-9.29-31.84-39.06-132.87-65.38-132.87-65.38H399c-19.63,28.29-22.47,55.23-22.25,69.7C385.61,2759.12,401,2761.73,427.58,2760.55Z" fill="url(#linear-gradient-12)"/><path d="M394.23,2639.29l2.67,52.85a12.08,12.08,0,0,0,10.31,11.35,46.93,46.93,0,0,0,21.43-1.78,14.25,14.25,0,0,0,9.6-11l9.23-51.45Z" fill="url(#linear-gradient-13)"/><path d="M23.58,2760.16c-14-2-20.39-9.25-23-17l-.06.21c-2.06,8.22,2.73,16.75,12.3,20.8,11.57,4.9,24.23,5.74,34.05,5.33,10.54-.43,20.21-4.79,25.53-11.77l.08-.11C61.85,2762.81,47,2763.42,23.58,2760.16Z" fill="url(#linear-gradient-14)"/><path d="M89.78,2639H66.25c-35.84-.73-58.35,74.88-65.72,104.16,2.66,7.8,9,15.09,23,17,23.42,3.26,38.27,2.65,48.85-2.59,19.36-25.48,29-62.81,33.58-84.59C111.26,2648.21,89.78,2639,89.78,2639Z" fill="url(#linear-gradient-15)"/><path d="M69.28,2589.91l-13.07,52a14.11,14.11,0,0,0,7.34,16c7.31,3.75,17.6,7.69,27.06,6.55a11.77,11.77,0,0,0,9.61-7.86l19.19-54.68Z" fill="url(#linear-gradient-16)"/><path d="M53.69,2604.93c16.26,14.42,69.14,16.33,69.14,16.33,190.49-457.2,268.42-522.15,268.42-522.15-27.51,172.56-4.44,554.61-4.44,554.61,31.44,13.87,72,0,72,0a2944.54,2944.54,0,0,1,97.28-723.14c-128.75-2.9-197.22-46.95-219.58-64.64C229.15,2039,53.69,2604.93,53.69,2604.93Z" fill="url(#linear-gradient-17)"/><path d="M369.17,1340.16c-24.37,121.56-15.63,339.12-9.9,438.36,1.62,27.89-17.86,66.55-33.59,92.93a8.27,8.27,0,0,0,3.34,11.64c26.35,13.54,115.61,55.51,219.06,60.74a14.76,14.76,0,0,0,14.85-11c76.74-286.53,165.87-469.63,165.87-469.63C630.4,1306,369.17,1340.16,369.17,1340.16Z" fill="url(#linear-gradient-18)"/><path d="M404.24,2088.28A6.09,6.09,0,0,1,399,2079c1-1.68,25.66-41.51,75.53-65.57a6.1,6.1,0,0,1,5.3,11c-46.49,22.43-70.18,60.55-70.41,60.93A6.11,6.11,0,0,1,404.24,2088.28Z" fill="url(#linear-gradient-19)"/><path d="M216.32,1689c7.82,56.62,31,118.39,77.22,184l17.58-14.34s-20.3-82.37-8.76-175.86C273.82,1677.27,240.12,1683,216.32,1689Z" fill="url(#linear-gradient-20)"/><path d="M396.39,1490.15l-27.22-150s-181.86,139-152.85,348.87c23.8-6,57.5-11.76,86-6.2C310.68,1615.49,335.51,1542.39,396.39,1490.15Z" fill="url(#linear-gradient-21)"/><path d="M728.8,1463.17l-70.2,151.18C670,1705.62,719,1745.09,771.85,1760.23a321,321,0,0,1,23.58-98.46C727.88,1592,728.8,1463.17,728.8,1463.17Z" fill="url(#linear-gradient-22)"/><path d="M795.43,1661.77a321,321,0,0,0-23.58,98.46c141.06,54.72,178.37-51.41,178.37-51.41l-26.06-4.6C865.29,1710.42,824.17,1691.44,795.43,1661.77Z" fill="url(#linear-gradient-23)"/><path d="M664.13,1276.52,630.24,1401.1a24.24,24.24,0,0,1-32.42,16.13c-14.53-5.81-33-13.74-48.84-22.31A32.66,32.66,0,0,1,537.46,1348l70.46-105.06Z" fill="url(#linear-gradient-24)"/><path d="M1014.87,1625.45l-868.4,316.06a66.49,66.49,0,0,0-37.78,90l2.63,5.8a61.81,61.81,0,0,0,82.22,30.5l843.2-390.07Z" fill="url(#linear-gradient-25)"/><ellipse cx="1414.02" cy="1435.33" rx="428.68" ry="420.95" opacity="0.23" fill="url(#linear-gradient-26)"/><path d="M1414,966.92c-263.44,0-477,209.72-477,468.41s213.56,468.4,477,468.4,477-209.71,477-468.4S1677.47,966.92,1414,966.92Zm0,868c-224.74,0-406.93-178.91-406.93-399.6s182.19-399.6,406.93-399.6S1821,1214.64,1821,1435.33,1638.77,1834.93,1414,1834.93Z" fill="url(#linear-gradient-27)"/><path d="M973.28,1493.35a3.21,3.21,0,0,1-3.18-2.8c-1.42-11.16-2.41-22.46-3-33.58a3.21,3.21,0,0,1,3-3.36,3,3,0,0,1,3.37,3.05c.53,10.95,1.51,22.09,2.91,33.09a3.21,3.21,0,0,1-2.77,3.58A2.88,2.88,0,0,1,973.28,1493.35Zm3.27-131a3.64,3.64,0,0,1-.56-.05,3.21,3.21,0,0,1-2.59-3.72,431.57,431.57,0,0,1,25.73-88.08h0c68.76-166.81,231.62-274.6,414.89-274.6a451.88,451.88,0,0,1,240.24,68.66,3.2,3.2,0,0,1-3.4,5.43A445.53,445.53,0,0,0,1414,1002.33c-180.67,0-341.19,106.24-409,270.64v0a424.2,424.2,0,0,0-25.35,86.75A3.21,3.21,0,0,1,976.55,1362.38Z" fill="#91b3fa"/><path d="M738.27,1181.86C738.58,1184,710,1324,710,1324l-79.6-18,7.36-136.74S733.1,1146.05,738.27,1181.86Z" fill="url(#linear-gradient-28)"/><path d="M655.67,1199.75l-9.52,71.68a10.06,10.06,0,0,0,0,2.74c.8,5.62,5,24.75,24.29,19.28,17.53-5,33.59-9.23,44.69-5.84a10.1,10.1,0,0,1,6.94,11.68c-2.6,12.72-9,41.28-18.32,65.24a10.07,10.07,0,0,1-12.23,6c-15.1-4.4-46.68-14.58-70.18-28.71a10.13,10.13,0,0,1-4.92-9.09c.77-18.1,2.88-73.1,1.1-88.52-1.67-14.48-19.43-23.15-27.15-26.26a10,10,0,0,1-5.53-5.54c-3.57-9-8.5-29.68,17.62-38.17a10.11,10.11,0,0,0,6.4-13.08c-3.86-10.77-5.5-27.2,14.71-36.26,20.53-9.2,35.87,1.75,44.15,10.64A10.09,10.09,0,0,0,680.6,1137c2.37-1.49,5.42-2,9.1.31a10,10,0,0,0,14.09-4.27c4.91-10.09,14.94-20.9,35-17.46,35.67,6.11,39.71,45.64,30.3,68.8s-47.71,14.35-66.92,2.67c-14.61-8.88-33.56.43-41.8,5.4A10,10,0,0,0,655.67,1199.75Z" fill="url(#linear-gradient-29)"/><path d="M614.33,1270.3s14.66-41.07-.41-51.13-37.38-4.83-32.47,24.92C587.57,1281.09,614.33,1270.3,614.33,1270.3Z" fill="url(#linear-gradient-30)"/><path d="M303.87,1856.19,386,1849.5l35.56,32.77s-8.41,11.63-34.71,5-62.32-8.32-62.32-8.32-36.3,16.36-36.74-14.26Z" fill="url(#linear-gradient-31)"/><path d="M939.77,1728.24c7.1,5.54,31.42-6,46.31-14a17.13,17.13,0,0,0,8.27-20.24c-3.58-11.29-9.55-25.87-16.9-27.71C965.25,1663.2,910.51,1705.38,939.77,1728.24Z" fill="url(#linear-gradient-32)"/><path d="M163.61,2055.68a3.18,3.18,0,0,1-1.05-.18c-33.92-11.73-41.81-31.77-42.46-46.52-.93-21.55,12.61-41.55,33.69-49.77l104.28-40.66a3.2,3.2,0,0,1,2.32,6l-104.27,40.66c-18.52,7.22-30.42,24.71-29.61,43.52.81,18.57,13.64,32.27,38.15,40.74a3.21,3.21,0,0,1-1,6.24Z" fill="#91b3fa"/><path d="M291.35,1912.21a3.2,3.2,0,0,1-1.16-6.19l13.52-5.27a3.2,3.2,0,0,1,2.32,6L292.51,1912A3.14,3.14,0,0,1,291.35,1912.21Z" fill="#91b3fa"/><path d="M2415.89,2663.43s6,33.75,8.88,67.16a23,23,0,0,1-22,24.94c-44.49,1.85-139.66,5.46-173.81,3.93a7.49,7.49,0,0,1-6.59-10.26,16.74,16.74,0,0,1,8.58-9l157.2-72.25Z" fill="url(#linear-gradient-33)"/><path d="M2420.77,2643.6,2416,2684s-27.54,12.82-46.34-1.62l11.4-45Z" fill="url(#linear-gradient-34)"/><path d="M2417.17,1884.63c2.07,10.54,11.11,526.09-44,757.12a7.85,7.85,0,0,0,4.6,9.13,136.68,136.68,0,0,0,44.88,9.12,13.52,13.52,0,0,0,13.4-9.7c15.75-53.6,91.23-322.17,101.08-578.73,11-286.68,0-9.76,0-9.76l-6.45-177.21Z" fill="url(#linear-gradient-35)"/><path d="M2596.72,2681s9.49,17,18.68,62.31a14,14,0,0,1-12.36,16.82c-14.69,1.44-37.31,3.3-55.42,3.18a14,14,0,0,1-13.86-15.62c2-16.53,8.25-43.64,27.57-64.78Z" fill="url(#linear-gradient-36)"/><path d="M2605.06,2629.11l-11.2,61s-11.06,8.23-33,2.27l5.34-65.69Z" fill="url(#linear-gradient-37)"/><path d="M2635.29,1900.45c45.07,272-9.77,672.29-28.27,750.63a12.24,12.24,0,0,1-9.87,9.28c-8.26,1.37-21.85,2.49-35.25-1.41a11.19,11.19,0,0,1-8.05-10.31c-2.48-63.34,2-452.18-40-605.85a34.93,34.93,0,0,0-13.47-19.26l-81.51-58-6.25-93.67Z" fill="url(#linear-gradient-38)"/><path d="M2348.1,1385c135.07-2.23,284.1,35.47,284.1,35.47,40.26,234.92,7,505.89,7,505.89-104.57,27.42-222.53-16.76-222.53-16.76-17.38-98.2-98.47-374.55-98.47-374.55-66-8.19-120.36-27.23-165.13-52.4,34.15-39.58,50.25-90,57.25-119.73C2258.11,1377.8,2306.44,1385.73,2348.1,1385Z" fill="url(#linear-gradient-39)"/><path d="M1949.12,1186.09c13.27-16,30.06-8.44,30.06-8.44,19.88,84,124.1,152,231.18,185.31-7,29.78-23.1,80.15-57.25,119.73C1975.42,1382.78,1949.12,1186.09,1949.12,1186.09Z" fill="url(#linear-gradient-40)"/><path d="M1952.34,1190.17c-1.39,4.41,14.69,11.13,24.16-6.92.33-8.65,5.59-45.72.42-52.77-27.53-37.53-80.91-84.59-80.91-84.59-9,8.9-1.59,17.65-1.59,17.65l25.89,27c-5.41,9.78-12,18-15.12,29.89a36.29,36.29,0,0,0,3.62,26.7c4.55,8.19,10.75,18.84,16.61,27.17C1936.52,1190.05,1952.34,1190.17,1952.34,1190.17Z" fill="url(#linear-gradient-41)"/><path d="M1931.64,1108l23.6,20,7.41,19.92-21,23.34s-7.08-39.52-12.34-48.07S1926.74,1110.52,1931.64,1108Z" fill="url(#linear-gradient-42)"/><path d="M2580.39,1551.29l51.81-130.78s126.16,85.72,146.91,194.41c-23.84,1.75-67.21,7.95-109.67,29.39C2660.11,1593,2580.39,1551.29,2580.39,1551.29Z" fill="url(#linear-gradient-43)"/><path d="M2470.14,1674.36s141.65,80.06,189.45,11.7c9.92-14.19,12.29-28.3,9.85-41.75,42.46-21.44,85.83-27.64,109.67-29.39,6.26,32.76,2.95,67.61-16.3,102.83-83.72,153.15-311.41-8.46-311.41-8.46Z" fill="url(#linear-gradient-44)"/><path d="M2487.16,1775.64l-77.31-270a7.84,7.84,0,0,0-6.65-5.66c-14-1.64-54.6-6.23-101.46-10.19-56.44-4.78-122-8.64-161.16-5.35a7.89,7.89,0,0,0-6.46,11.36c22.27,45.07,113.9,228.38,159.78,288.43a7.93,7.93,0,0,0,6.37,3.13l179.37-1.67A7.89,7.89,0,0,0,2487.16,1775.64Z" fill="url(#linear-gradient-45)"/><path d="M2293.72,1466.4l-56-9.33a4,4,0,0,0-4.48,5.22l5.55,16.82a4,4,0,0,0,3.29,2.72L2296,1489a4,4,0,0,0,4.45-4.91l-3.43-14.67A4,4,0,0,0,2293.72,1466.4Z" fill="url(#linear-gradient-46)"/><path d="M2335.69,1513.85l-4.62-24a5.55,5.55,0,0,0-4.89-4.48L2213,1473.83a5.57,5.57,0,0,0-6,6.83l7.2,30a5.57,5.57,0,0,0,5.13,4.26l110.62,5.56A5.56,5.56,0,0,0,2335.69,1513.85Z" fill="url(#linear-gradient-47)"/><path d="M2468.48,1710.41s10.77-44.28,6.43-60-12.76-35.91-40.82-31.42-61.14,16.31-61.14,16.31,1.67,20.46,23,13.86l-13.22,10.23s1.89,16.38,19.9,7.63l-12.3,13.57s7.74,13.45,21,4.82S2430.91,1715.74,2468.48,1710.41Z" fill="url(#linear-gradient-48)"/><path d="M2484.91,1275.39l43,124.28a4.5,4.5,0,0,1-2,5.4c-11.72,6.47-53.93,25.2-104.79-7a21.1,21.1,0,0,1-9.71-15.06l-13.92-107.57Z" fill="url(#linear-gradient-49)"/><path d="M2391.4,1160.29s-47.2,88.84-41.15,124.72,64.54,33.31,115.62,4.17l35.69-95.93Z" fill="url(#linear-gradient-50)"/><path d="M2463.61,1242.07a3.66,3.66,0,0,1-1.6-5.36c3.78-5.78,10.87-17.56,13.13-27.88,0,0,8.49-5.43-21.59-12.63s-74.93-18.37-84.36-44c-9.19-25,15-87.74,53.49-37.72a3.66,3.66,0,0,0,5.8,0c6.32-8.22,22.92-25.29,46-14.94,21.58,9.68,24,25.49,23.71,33.46a3.64,3.64,0,0,0,4.31,3.73c10.91-2.08,37.09-3.87,49.31,23,10.06,22.12,3.52,34.64-2.44,40.77a3.65,3.65,0,0,0,1.56,6.06c7.17,2.19,16.43,8.27,15.5,25.07-1.28,23.22-27.24,21.17-34.63,20.11a3.67,3.67,0,0,0-3.25,1.15c-6.34,7-34.89,36.8-65.8,40.39a3.69,3.69,0,0,1-3.87-4.88l13.37-38.88a3.67,3.67,0,0,0-2-4.56Z" fill="url(#linear-gradient-51)"/><path d="M2458.23,1247.59s33.61-23.06,36.06-3.64-30.26,28.12-46.46,20.88Z" fill="url(#linear-gradient-52)"/><path d="M837.81,673.32,967,682.11a6.49,6.49,0,0,0,5-11.2l-123.84-91.7Z" fill="#91b3fa"/><path d="M100.09,260l727.27-4.45c16.65-.1,30.17,12.24,30,27.41l-3.06,366.17c-.13,15.27-14,27.45-30.74,27L104.2,656.45c-16-.43-28.74-12.27-28.95-26.84l-4.81-342C70.23,272.51,83.53,260.14,100.09,260Z" fill="#91b3fa"/><path d="M122.61,282.44l681-3.89c15.59-.09,28.25,10.69,28.13,23.95L828.9,622.43c-.12,13.34,11.29,32.1-4.39,31.7l-698-25.34c-15-.38-26.92-10.72-27.11-23.46L94.85,306.51C94.65,293.33,107.11,282.53,122.61,282.44Z" fill="#fff" opacity="0.14"/><path d="M824.51,654.13,104.93,634.42a5.4,5.4,0,0,1-5.49-5.09l-4.82-342a4.84,4.84,0,0,1,1.62-3.67,5.82,5.82,0,0,1,4-1.56l727.27-4.45a5.9,5.9,0,0,1,4.05,1.52,4.85,4.85,0,0,1,1.65,3.7L830.16,649A5.44,5.44,0,0,1,824.51,654.13Zm-719.29-25,719.38,19.7,2.83-366-727.14,4.56Z" fill="#fff" opacity="0.77"/><path d="M142,365.19c0,13,7.54,23.46,16.85,23.46H777.46c9.31,0,16.85-10.5,16.85-23.46s-7.54-23.45-16.85-23.45H158.89C149.58,341.74,142,352.24,142,365.19Z" fill="#fff" opacity="0.77"/><path d="M175.92,428.65H755.86c12.61,0,22.84,6.3,22.84,14.07s-10.23,14.07-22.84,14.07H175.92c-12.62,0-22.85-6.3-22.85-14.07S163.3,428.65,175.92,428.65Z" fill="#fff" opacity="0.77"/><path d="M153.07,506.8c0,7.76,10.21,14,22.8,14h580c12.59,0,22.8-6.28,22.8-14v-8.68c0-7.89-10.55-14.23-23.36-14l-580,8.68C163,493,153.07,499.18,153.07,506.8Z" fill="#fff" opacity="0.77"/><path d="M178.2,551.08H758.14c12.62,0,22.85,6.3,22.85,14.07s-10.23,14.06-22.85,14.06H178.2c-12.61,0-22.84-6.29-22.84-14.06S165.59,551.08,178.2,551.08Z" fill="#fff" opacity="0.77"/></g></g></svg>