<svg xmlns="http://www.w3.org/2000/svg" viewBox="0 0 973.72 684.35"><g style="isolation:isolate"><g id="Layer_2" data-name="Layer 2"><g id="Shadow"><path d="M452.68,578.57c-28.19.08-56.38.76-84.53,3.89-10.61,1.18-21,3.78-31.63,4.82-21.25,2.1-42.11,6-63.43,7.8-17.17,1.45-34.41,2.3-51.52,4.14a181.1,181.1,0,0,1-49.75-1.52c-11.78-2.11-23.63-3.3-35.22-6.68-13-3.79-27.06-6.5-40.57-6.4-19.26.14-38,.15-56.46,6.84-6.47,2.35-14.4,6.21-19.31,11.14C9,613.88,7.48,642,18.72,653.73c18.92,19.7,59.3,27.42,85.83,27.79,29.06.4,57.29-1.76,86.4-3,27-1.18,54-2.86,81.11-2.8,55.33.12,110.66,0,165.89-3.69,51.89-3.47,103.91-2.28,155.91-2.28,53.33,0,106.29.42,159.23,7.5,23.07,3.09,46.57,4.17,69.75,6.34,20.77,1.93,40.72,0,61.4-1.83a146.71,146.71,0,0,0,50.39-13.51c12.49-6,34.75-24.5,38.58-38.75,10.73-39.93-151.3-39-176.18-38.88-27.83.1-55.89,1-83.69-.05-11.7-.44-23.23-2.73-34.65-5.24s-22.83-1.86-34.36-2.9C596.24,578,548,578.66,499.8,578.66,484.1,578.66,468.39,578.52,452.68,578.57Z" fill="#f1f2f2"/></g><g id="Object"><polygon points="907.98 208.86 910.43 189.86 887.77 181.04 883.56 189.82 894.23 204.11 896.82 212.8 907.98 208.86" fill="#a57767"/><polygon points="802.88 299.15 775.46 337.51 757.6 368.58 764.13 380.63 787.88 374.57 802.88 299.15" fill="#474ebb"/><polygon points="835.75 434.62 835.75 454.05 807.32 538.22 814.43 625.63 796.66 628.87 768.24 522.03 769.32 490.6 782.45 426.49 835.75 434.62" fill="#ebb044"/><polygon points="799 627.21 785.43 640.28 789.35 646.91 817.34 634.67 812.18 624.99 799 627.21" fill="#12243a"/><polygon points="842 633.18 825.28 642.75 827.26 650.06 857.71 644.58 855.38 634.03 842 633.18" fill="#12243a"/><path d="M802.79,299.05l42.29-15.28s15,34,32.12,88.49-7.93,123.84-7.93,123.84-96.89-21-116.24-24.44l24.27-99.59Z" fill="#ebb044"/><polygon points="813.2 457.62 841.76 635.68 854.75 635.68 862.95 538.56 880.71 441.43 813.2 457.62" fill="#ebb044"/><path d="M801.39,245.6c11.52.77,22.28-7.84,33.62-5.71,7.37,1.4,13.18,7.35,15.43,14.06a15.43,15.43,0,0,1,.4,9.65,15.8,15.8,0,0,1-3.34,5.45,24.66,24.66,0,0,1-6.92,5.34,41.61,41.61,0,0,0,4.93,6l-15.93,5.56-3.53-8.34a26.26,26.26,0,0,1-4.74-.66c-9.43-2.23-17.25-9.75-19.35-18.62C801,254.13,801.16,249.84,801.39,245.6Z" fill="#a57767"/><polygon points="804.3 248.76 839.9 244.91 846.82 269.69 856.87 262.42 851.69 221.87 801.44 220.89 779.68 232.52 780.6 244.17 800.06 256.1 804.3 248.76" fill="#3b455a"/><path d="M818.12,289.74l42.29-15.28s15,34,32.12,88.49-7.94,123.84-7.94,123.84-86.66-39-106-42.47l14-81.56Z" fill="#fff"/><path d="M893.17,364.12c-17.09-54.49-31.89-88.55-31.89-88.55l-42.52,15.34-.07.19c.94,2.23,1.92,4.44,2.76,6.7a143.62,143.62,0,0,1,7.35,27.39c2.67,16.37,3,33.2,2.38,49.72a295.31,295.31,0,0,1-5.44,47.29,298.49,298.49,0,0,1-19,60.2c39.33,7.28,85.62,15.89,85.62,15.89S910.25,418.6,893.17,364.12Z" fill="#ebb044"/><polygon points="855.25 280.21 892.54 263.93 892.5 209.13 908.63 205.2 926.74 269.62 920.55 279.14 867.65 316.5 855.25 280.21" fill="#ebb044"/><polygon points="780.01 349.07 784.22 303.54 763.75 303.54 748.1 366.07 758.93 385.27 776.36 377.51 780.01 349.07" fill="#474ebb"/><polygon points="331.15 314.96 343.64 320.36 362.22 375.07 402.81 401.14 393.29 410.51 345.8 391.11 334.19 367.97 331.15 314.96" fill="#474ebb"/><path d="M344.36,637.28l-13.18-11.1c-3.82-1.76-7.87-3-11.14-2.95-2.38,0-4.36.72-5.55,2.37a5.39,5.39,0,0,0-.6,5.35,7.26,7.26,0,0,0,1.15,1.68h0c.4.45.83.87,1.25,1.29l.89.85c2.73,2.7,7.3,7.08,9.12,8.07,2.66,1.46,8.51,5.34,15.43,1l-.08-.06A5.83,5.83,0,0,0,344.36,637.28Z" fill="#3b455a"/><path d="M334,540.69,333,554.61l-5.22,67.75,5.22,7.89s1.07,6.3-6.92,5.81c-2.37-.14-10.78-9.88-10.78-9.88l1.21-4.47-5.91-50.87.05-14.78-2.83-16.41Z" fill="#eacab0"/><path d="M250.47,620.07c-2.45-.7-4.74-.6-6.57.73a6.06,6.06,0,0,0-2.59,5.3,10.89,10.89,0,0,0,1.36,3.81c3.18,6.28,12.11,20.49,22.35,17.89a6.93,6.93,0,0,0,5.06-8.64C268.76,633.83,258.68,622.42,250.47,620.07Z" fill="#3b455a"/><path d="M302.09,532.56l-1.78,20-43.18,70.83s6.21,9.88,2.27,10.74-15.48-2.14-15.5-13.29c4.54-13.51,22.38-59.38,22.38-59.38l8.36-11.84-.13-22.25Z" fill="#eacab0"/><path d="M253.31,465.48c-.34-5.91,1.73-21.32,3.86-26.85,7.77-20.14,9.27-30.06,9.27-46.45s-8-68.37-8-68.37l27.73-15.17,33.24.85L337.89,315s3.91,65.39,5,86.47c.79,15,1.94,28.06,3.45,45.49,0,0,4.23,39.75-2.31,82.36,0,0-1.46,14.15-2.11,15.39l-.14.64H267.61V521.11q-3.69-11.68-7-23.47C257.73,487.66,253.94,476.44,253.31,465.48Z" fill="#dfe2e5"/><path d="M269,313.22l-12.62,8.65s9.6,59.86,10.11,70.31-14.26,52.18-14.26,52.18l61.2,7.28s9-44.58,11.59-66.73-34.44-76.13-34.44-76.13Z" fill="#8ec3cb"/><path d="M330.3,312.17l12.49,5.4S341,384.12,344.24,401c1.95,10.3,9.55,43.66,9.55,43.66L334,450.84S321.86,409.11,319.44,387s.22-77.22.22-77.22Z" fill="#8ec3cb"/><path d="M327.88,287.8c1.62,5.71-2.1,11.36-5.36,16.18-1.33,2-3.39,4.71-1.68,7,1.93,2.52,6.7,2,8.8.13a11.51,11.51,0,0,0,2.85-4.89c2.83-7.87,6.79-18.9,6-27.18-.62-6.63-9.56-18.42-18.76-14.2a9.09,9.09,0,0,0-3.66,3.61,6.5,6.5,0,0,0-1.18,2.7c-.44,3.84,3.63,4.83,6.3,6.89A19.25,19.25,0,0,1,327.88,287.8Z" fill="#3b455a"/><path d="M312.52,308.33a19.13,19.13,0,0,0,14-9.33c2.74-4.72,3.4-10.14,3.29-15.43-.36-17.59-26-18.57-35.92-5.93C285.25,288.66,294.65,310.4,312.52,308.33Z" fill="#eacab0"/><path d="M295,286c-.21,2.13-1.4,4.39-1.73,6.58-.6,4,.39,9.26-1.23,12.94a28.37,28.37,0,0,1-13.28-5.93c-3.4-2.86-2.79-7.13-3.55-11.35-.7-3.91-1.6-7.83-1.35-11.79,1.34-21.64,25-33.47,45.93-23.71,7.9,3.69,11.35,13.08,5.54,19.25-6.25,6.63-18.95,3.75-26.44,8.68A11.65,11.65,0,0,0,295,286Z" fill="#3b455a"/><path d="M313,306.52c-.32,1.31-.63,2.62-.94,3.93-.14.6-.09,2.32-.66,2.73a1.68,1.68,0,0,1-1.12.14c-1.11-.13-11.05-1.28-10.94-1.85a30.46,30.46,0,0,1,1.14-4.54c.43-1.19.59-3.43,1.38-4.33a18.85,18.85,0,0,0,5.42,2.21q2.88.75,5.79,1.4C313.08,306.31,313.06,306.42,313,306.52Z" fill="#eacab0"/><path d="M78.49,626.46a5.8,5.8,0,0,0-5-2,5.63,5.63,0,0,0-4.22,2.9,8.85,8.85,0,0,0-.73,3.29c-.53,5.81-.48,19.6,8,21.59a6.36,6.36,0,0,0,7.48-4.4C85.43,643.48,83.31,631.3,78.49,626.46Z" fill="#3b455a"/><path d="M81.51,538.83l-.45,35.43c.52,15.74-2.18,31.57-1.66,47.3.12,3.62,1.15,7.44.15,11s-4.11,4.12-7.32,2.35c-4.3-2.38-3.61-7.94-4.32-12-2-11.14-4.28-22.23-6.34-33.36-1-5.46,1.07-13.11.62-18.63l-6.28-29.69Z" fill="#eacab0"/><polygon points="37.08 481.59 54 550.08 57.59 614.77 84.43 614.22 91.73 433.29 39.7 434.15 37.08 481.59" fill="#3b455a"/><path d="M116.87,625.17a5.61,5.61,0,0,0-9.17,1.44,9,9,0,0,0-.57,3.34c-.25,5.84.44,19.64,9,21.17a6.38,6.38,0,0,0,7.24-4.8C124.6,641.84,121.91,629.76,116.87,625.17Z" fill="#3b455a"/><path d="M102.73,543.81,105,579.18c.19,9.83,1.63,19.58,2.74,29.35,1,9.07-.57,18.51,4.63,26.76,1.63,2.59,4.93,4.31,7.23,1.17,1.78-2.43.72-6.46,1.06-9.21,1.39-11.22,3.13-22.4,4.61-33.6.72-5.5-1.75-13-1.59-18.58l4.74-29.93Z" fill="#eacab0"/><polygon points="136.69 477.4 138.87 543.89 127.42 611.13 100.12 611.87 101.33 539.1 86.88 478.76 82.03 439.25 125.35 434.6 136.69 477.4" fill="#3b455a"/><polygon points="102.42 298.52 55.76 297.51 30.06 309.75 28.7 343.35 38.31 386.3 40.03 437.68 106.59 438.51 128.5 435.27 122.68 380.36 126.02 307.02 102.42 298.52" fill="#d34e4e"/><polygon points="104.11 326.3 128.41 370.57 154.62 375.32 207.1 368.01 200.66 353.06 152.54 353.06 125.37 307.02 104.11 326.3" fill="#d34e4e"/><path d="M99.5,262.9c-7-18.63-34-11.65-39.6,4.94-3.64,10.83,5.54,24.87,17.85,28,0,.43.09.82.1,1.16a32.6,32.6,0,0,0,.52,5.19c.11.64,10.88-1.24,12.08-1.46a1.69,1.69,0,0,0,1.12-.5c.43-.61-.28-2.43-.35-3.11s-.19-1.62-.28-2.43a19.5,19.5,0,0,0,11-14.3C103,274.48,101.61,268.5,99.5,262.9Z" fill="#eacab0"/><path d="M81.88,246.06a9.46,9.46,0,0,0-2.43,5,7,7,0,0,0-.21,3.24c1,4.23,5.6,4,9.17,5.38A23.16,23.16,0,0,1,99,268c3.86,5.58,2.12,12.77.56,18.92-.55,2.17-1.66,5.4.19,7.34s6.22,1.66,8.46.65c2.06-.93,3.75-2.64,6-3s5.62.59,6.73-1.41c.31-.55.33-1.23.72-1.74,1.32-1.72,4.6.3,6.46-.92,1.15-.74,1.14-2.33.75-3.59s-1-2.53-.77-3.8c.24-1.1,1.11-2,1.64-3a5.43,5.43,0,0,0-.88-6.21c-2.94-3.1-8.63-2.51-11.78-5.43-1.64-1.52-2.28-3.71-2.89-5.78s-1.35-4.26-3.1-5.67c-2.17-1.73-5.3-1.44-7.43-3.5-1.26-1.21-2.1-2.78-3.51-3.83-1.86-1.39-5.49-2.46-7.8-3.16A10.87,10.87,0,0,0,81.88,246.06Z" fill="#3b455a"/><path d="M64.8,275.8c-.12,6.13,3.22,12.76.12,18.16S54,300.39,47.34,300.68c-1.09,0-15.13,1.15-15.19.91-1-4.28-2.13-8.63-4.58-12.38s-6.55-6.86-11.24-7.13a2.62,2.62,0,0,0,1.88-3,19.08,19.08,0,0,0-1.3-3.64,8.07,8.07,0,0,1,2.46-8.63c5-4.21,14-2.46,18.22-7.3,2.64-3,2.32-7.36,3.7-11,2.68-7.08,11.19-8.57,17.56-11.77,6.72-3.37,13.05-5.23,20.8-4.05,9.61,1.46,16.76,10.38,13,18.77-4.75,10.76-23.76,9.83-27.32,20.76A12.33,12.33,0,0,0,64.8,275.8Z" fill="#3b455a"/><polygon points="69.56 298.28 84.04 316.92 90.84 316.42 102.19 297.51 69.56 298.28" fill="#eff0f0"/><polygon points="583.84 303.43 522.69 344.08 469.37 323.09 461.55 336.2 501.93 361.26 524.57 368.97 583.84 342.97 583.84 303.43" fill="#3b455a"/><polygon points="546.37 412.79 545.14 509.27 556.43 633.46 571.77 633.46 590.13 518.88 611.13 404.1 546.37 412.79" fill="#474ebb"/><polygon points="571.68 639.35 555.09 646.91 546.79 639.35 555.09 631.8 571.68 631.8 571.68 639.35" fill="#3b3631"/><polygon points="651.56 412.79 651.87 468.61 641.52 633.46 626.17 633.46 600.51 524.06 586.8 404.1 651.56 412.79" fill="#474ebb"/><polygon points="626.26 639.35 642.86 646.91 651.15 639.35 642.86 631.8 626.26 631.8 626.26 639.35" fill="#12243a"/><path d="M667.52,446.4c.33,8.85.12,20.7-4,21.14a4.34,4.34,0,0,1-2.18-.52c-7.12-3.15-12.19-7.6-19.21-10.65-7.35-3.19-15.7-4.86-23.87-6a270.84,270.84,0,0,0-36.82-2.93c-10.53-.09-21.49,4.29-31.45,6.7-3.83.92-6.95,3.47-10.14,5.47-4.7,2.94-6.76,4.11-6.12-1.91,1-9.83,2.13-19.66,3.46-29.46,2.65-19.56,6.25-39.06,12.35-58,2.33-7.23,5-14.36,7.7-21.49q4.9-13,9.82-26c4.06-10.79,10.93-18.39,22.94-22.16,10.38-3.26,23.28-4.16,33.38.41,11.23,5.07,16.57,22.36,22,31.6,4.78,8.09,10.81,30.17,12.6,38.9,2.15,10.5,4.14,21,5.7,31.39a293.76,293.76,0,0,1,3.32,34.51C667.08,438.63,667.36,442.17,667.52,446.4Z" fill="#474ebb"/><path d="M612.06,302.49l-20.73.18s-22.25,70.84-23.07,83.05c-.8,12-6.43,60.59-6.43,60.59s23,.49,49.42,3.43c25.87,5,28,2.06,28,2.06s-14-51.08-14.42-65.76c-.47-15-2.58-64.58-2.58-64.58Z" fill="#fff"/><path d="M599.49,302.86a2.37,2.37,0,0,0,.85.44,4.85,4.85,0,0,0,2,.05l8.23-.88c-.9-7.66,4-9.39,8.79-14.31s3.36-11.72,3.08-17.82a11.85,11.85,0,0,0-1-5c-1.39-2.71-4.61-4.2-7.74-5.09-8-2.26-17.13-1.7-24.16,2.42A12.25,12.25,0,0,0,585,267c-1.56,2.78-1.16,6.1-.73,9.21a29.3,29.3,0,0,0,5.18,13.47c2.76,3.74,8,5.53,8.62,10A4.81,4.81,0,0,0,599.49,302.86Z" fill="#eacab0"/><path d="M584.46,270.62c.47,1.93,1.45,3.87.94,5.79-3.35-1-5.54-4.16-6.73-7.34a10.24,10.24,0,0,1-.79-4.49,5.16,5.16,0,0,1,2.18-3.91c1.84-1.2,5.14-.73,5.67,1.45S583.76,267.73,584.46,270.62Z" fill="#3b3631"/><path d="M566.66,253.73A6.69,6.69,0,0,1,570,248c1.95-1.2,4.19-2.19,5.38-4.1.91-1.48,1-3.31,2-4.79,1.65-2.69,5.23-3.48,8.34-4.39,7.78-2.28,12-4.91,20.22-2,5.87,2.07,13.44,2.35,18.88,5.37a18.23,18.23,0,0,1,5.8,5.55c5.5,7.84,6.81,18.85,3.23,27a33.31,33.31,0,0,1-2.9,5.12c-2.18,3.21-4.51,7.17-8.37,8.75-.24-1.52-1.48-2.35-1.87-3.84a10.79,10.79,0,0,1-.12-3.31c.23-4.29,1.68-11.08-3-13.21-6-2.69-17.12-.26-22.85,2-5.07,2-13.63,4.64-19,2.48C570.58,266.65,566.49,258.66,566.66,253.73Z" fill="#3b455a"/><polygon points="618.71 299.99 671.35 285.85 651.87 225.9 667.92 215.41 706.68 284.81 695.96 308.85 645.67 332.5 618.71 299.99" fill="#474ebb"/><polygon points="401.64 400.16 409.92 403.01 402.62 413.72 391.89 413.93 387.05 406.86 401.64 400.16" fill="#eacab0"/><path d="M417.39,39.52c-1.47.23-2.92.51-4.35.83-9.78-24.89-38.23-40.5-68-35.79a63.24,63.24,0,0,0-34.18,16.71C296.64,5.6,273.74-2.87,250.05.88,215,6.43,191.47,36.64,197.52,68.34a54.68,54.68,0,0,0,1.47,5.9c-1.45.14-2.92.32-4.38.55-35.06,5.55-58.58,35.75-52.53,67.46s39.37,52.91,74.43,47.36l222.78-35.27c35-5.55,58.57-35.76,52.52-67.46S452.44,34,417.39,39.52Z" fill="#474ebb"/><path d="M278.23,9.53a68.77,68.77,0,0,0-19.14.33c-33.83,5.36-56.53,34.5-50.69,65.1a53.15,53.15,0,0,0,1.42,5.69c-1.4.14-2.81.31-4.23.53-33.83,5.36-56.52,34.5-50.69,65.1a53.59,53.59,0,0,0,13.4,26.3c-7.1-24.62-12-73,54.45-82.32C219,74,212.4,22.38,278.23,9.53Z" fill="#fff" opacity="0.6"/><path d="M247.2,184.75l192.08-30.41c35.06-5.55,58.58-35.76,52.53-67.46a54.48,54.48,0,0,0-7.36-18.71C456.89,149.12,314.47,164.89,247.2,184.75Z" fill="#3b455a" opacity="0.2"/><polygon points="294.24 203.29 284.21 150.72 231.9 159 237.96 190.76 237.96 190.76 238.51 193.65 241.93 211.57 219.48 215.13 276.47 251.39 316.69 199.74 294.24 203.29" fill="#75cc9e"/><polygon points="276.47 251.39 267.62 245.76 316.69 199.74 276.47 251.39" fill="#3b455a" opacity="0.2"/><polygon points="356.84 185.28 366.86 237.84 419.17 229.56 409.15 177 431.59 173.44 374.32 135.69 334.39 188.83 356.84 185.28" fill="#ebb044"/><path d="M409.15,177s6.94,36.41-20.11,57.33l30.13-4.77Z" fill="#3b455a" opacity="0.2"/><rect x="345.66" y="303.03" width="236.44" height="318.49" fill="#b7b8bd"/><polygon points="582.1 303.03 351.36 651 582.1 651 582.1 303.03" fill="#272525" opacity="0.1"/><rect x="337.38" y="303.03" width="253.95" height="62.72" fill="#efefef"/><rect x="362.53" y="332.08" width="123.45" height="4.63" fill="#474ebb"/><rect x="523.88" y="328.95" width="11.93" height="10.87" fill="#d34e4e"/><rect x="549.39" y="328.95" width="11.93" height="10.87" fill="#75cc9e"/><rect x="337.38" y="374.34" width="253.95" height="62.72" fill="#efefef"/><rect x="362.53" y="403.39" width="123.45" height="4.63" fill="#474ebb"/><rect x="523.88" y="400.27" width="11.93" height="10.87" fill="#d34e4e"/><rect x="549.39" y="400.27" width="11.93" height="10.87" fill="#75cc9e"/><rect x="337.38" y="445.65" width="253.95" height="62.72" fill="#efefef"/><rect x="362.53" y="474.7" width="123.45" height="4.63" fill="#474ebb"/><rect x="523.88" y="471.58" width="11.93" height="10.87" fill="#d34e4e"/><rect x="549.39" y="471.58" width="11.93" height="10.87" fill="#75cc9e"/><rect x="337.38" y="516.97" width="253.95" height="62.72" fill="#efefef"/><rect x="362.53" y="546.01" width="123.45" height="4.63" fill="#474ebb"/><rect x="523.88" y="542.89" width="11.93" height="10.87" fill="#d34e4e"/><rect x="549.39" y="542.89" width="11.93" height="10.87" fill="#75cc9e"/><rect x="337.38" y="588.28" width="253.95" height="62.72" fill="#efefef"/><rect x="362.53" y="617.33" width="123.45" height="4.63" fill="#474ebb"/><rect x="523.88" y="614.2" width="11.93" height="10.87" fill="#d34e4e"/><rect x="549.39" y="614.2" width="11.93" height="10.87" fill="#75cc9e"/><path d="M644.16,202,575.7,171.4c-5.64-2.51-8-8.71-5.21-13.84L604,95.18c2.76-5.13,9.57-7.25,15.2-4.74L687.69,121c5.63,2.52,8,8.72,5.2,13.85l-33.54,62.37C656.59,202.35,649.79,204.48,644.16,202Z" fill="#d34e4e"/><polygon points="649.08 192.48 580.9 162.05 614.3 99.93 682.49 130.36 649.08 192.48" fill="#fff"/><polygon points="647.24 187.58 586.28 160.37 616.14 104.82 677.11 132.04 647.24 187.58" fill="#d34e4e"/><polygon points="645.23 70.21 640.12 67.93 623.89 98.1 629 100.38 645.23 70.21" fill="#d34e4e"/><polygon points="657.8 84.65 652.68 82.37 640.07 105.83 645.18 108.11 657.8 84.65" fill="#d34e4e"/><polygon points="677.8 85.26 672.69 82.98 656.46 113.15 661.58 115.43 677.8 85.26" fill="#d34e4e"/><polygon points="690.59 99.29 685.48 97.01 672.86 120.47 677.97 122.75 690.59 99.29" fill="#d34e4e"/><path d="M638.72,62.83a6.87,6.87,0,0,1,8.78-2.73,5.74,5.74,0,0,1,3,8,6.86,6.86,0,0,1-8.77,2.74A5.76,5.76,0,0,1,638.72,62.83Z" fill="#d34e4e"/><path d="M671.52,77.47a6.86,6.86,0,0,1,8.77-2.74,5.75,5.75,0,0,1,3,8,6.85,6.85,0,0,1-8.77,2.73A5.74,5.74,0,0,1,671.52,77.47Z" fill="#d34e4e"/><ellipse cx="655.24" cy="83.51" rx="6.56" ry="5.97" fill="#d34e4e"/><ellipse cx="688.03" cy="98.15" rx="6.56" ry="5.97" fill="#d34e4e"/><polygon points="574.08 202.52 568.97 200.24 585.19 170.07 590.3 172.35 574.08 202.52" fill="#d34e4e"/><polygon points="594.31 202.72 589.2 200.44 601.81 176.97 606.92 179.25 594.31 202.72" fill="#d34e4e"/><polygon points="607.1 216.74 601.99 214.46 618.21 184.29 623.32 186.57 607.1 216.74" fill="#d34e4e"/><polygon points="627.1 217.36 621.99 215.07 634.61 191.61 639.72 193.89 627.1 217.36" fill="#d34e4e"/><path d="M563.7,202.36a5.74,5.74,0,0,0,3,8,6.86,6.86,0,0,0,8.77-2.73,5.74,5.74,0,0,0-3-8A6.86,6.86,0,0,0,563.7,202.36Z" fill="#d34e4e"/><ellipse cx="602.38" cy="219.63" rx="6.56" ry="5.97" fill="#d34e4e"/><path d="M585.86,199a5.74,5.74,0,0,0,3,8,6.86,6.86,0,0,0,8.77-2.73,5.75,5.75,0,0,0-3-8A6.87,6.87,0,0,0,585.86,199Z" fill="#d34e4e"/><ellipse cx="624.55" cy="216.21" rx="6.56" ry="5.97" fill="#d34e4e"/><polygon points="715.55 158.73 718.05 154.07 684.94 139.29 682.43 143.95 715.55 158.73" fill="#d34e4e"/><polygon points="699.7 170.18 702.2 165.52 676.45 154.03 673.95 158.69 699.7 170.18" fill="#d34e4e"/><polygon points="699.03 188.41 701.53 183.75 668.42 168.97 665.91 173.63 699.03 188.41" fill="#d34e4e"/><polygon points="683.63 200.06 686.14 195.4 660.38 183.91 657.88 188.57 683.63 200.06" fill="#d34e4e"/><path d="M723.65,152.81a5.74,5.74,0,0,1,3,8,6.86,6.86,0,0,1-8.77,2.74,5.75,5.75,0,0,1-3-8A6.86,6.86,0,0,1,723.65,152.81Z" fill="#d34e4e"/><path d="M707.58,182.68a5.75,5.75,0,0,1,3,8,6.86,6.86,0,0,1-8.77,2.73,5.74,5.74,0,0,1-3-8A6.86,6.86,0,0,1,707.58,182.68Z" fill="#d34e4e"/><path d="M703.84,162.49a5.74,5.74,0,0,1,3,8,6.86,6.86,0,0,1-8.77,2.74,5.74,5.74,0,0,1-3-8A6.86,6.86,0,0,1,703.84,162.49Z" fill="#d34e4e"/><path d="M687.77,192.37a5.74,5.74,0,0,1,3,8A6.86,6.86,0,0,1,682,203.1a5.75,5.75,0,0,1-3-8A6.86,6.86,0,0,1,687.77,192.37Z" fill="#d34e4e"/><polygon points="569.43 93.52 571.94 88.86 605.05 103.64 602.55 108.3 569.43 93.52" fill="#d34e4e"/><polygon points="569.22 111.94 571.72 107.28 597.48 118.78 594.97 123.44 569.22 111.94" fill="#d34e4e"/><polygon points="553.82 123.6 556.33 118.94 589.44 133.72 586.94 138.38 553.82 123.6" fill="#d34e4e"/><polygon points="553.15 141.82 555.66 137.16 581.41 148.66 578.9 153.31 553.15 141.82" fill="#d34e4e"/><path d="M569.61,84.05a6.86,6.86,0,0,0-8.77,2.74,5.74,5.74,0,0,0,3,8,6.87,6.87,0,0,0,8.78-2.73A5.76,5.76,0,0,0,569.61,84.05Z" fill="#d34e4e"/><path d="M553.55,113.93a6.86,6.86,0,0,0-8.78,2.74,5.74,5.74,0,0,0,3,8,6.85,6.85,0,0,0,8.77-2.74A5.74,5.74,0,0,0,553.55,113.93Z" fill="#d34e4e"/><ellipse cx="570.47" cy="109.61" rx="6.56" ry="5.97" fill="#d34e4e"/><path d="M557.29,134.13a6.85,6.85,0,0,0-8.77,2.73,5.75,5.75,0,0,0,3,8,6.86,6.86,0,0,0,8.77-2.74A5.74,5.74,0,0,0,557.29,134.13Z" fill="#d34e4e"/><polygon points="666.31 219.15 667.63 202.09 652.49 191.42 646.14 198.98 652.98 210.1 650.54 215.89 657.25 225.07 666.31 219.15" fill="#eacab0"/><polygon points="236.69 248.65 238.21 230.6 248.22 225.34 251.11 231.62 246.33 238.76 246.33 251.01 236.69 248.65" fill="#eacab0"/><polygon points="287.81 310.74 239.05 313.97 249.97 245.06 232.17 245.15 206.06 317.19 215.13 338.58 271.96 343.37 287.81 310.74" fill="#8ec3cb"/><path d="M936.63,465,671.35,451.07,681.12,296c.22-3.46,3.48-6.11,7.28-5.91l251.52,13.16c3.8.2,6.71,3.16,6.49,6.63Z" fill="#3b455a"/><polygon points="926.69 455.49 682.49 442.71 691.39 301.44 935.6 314.22 926.69 455.49" fill="#8ec3cb"/><path d="M935.3,485.8,670.05,471.19a18.74,18.74,0,0,1-15.27-8.95h0l296.86,16.34h0A19.25,19.25,0,0,1,935.3,485.8Z" fill="#c1c3c3"/><path d="M949.44,479.82,656.76,464.51a2.38,2.38,0,0,1-2.36-2.41l.63-10a2.44,2.44,0,0,1,2.65-2.15l292.68,15.32a2.36,2.36,0,0,1,2.35,2.4l-.63,10A2.43,2.43,0,0,1,949.44,479.82Z" fill="#cdd1d1"/><path d="M825.15,468.17l-43.46-2.27a2.67,2.67,0,0,1-2.66-2.72h0a2.76,2.76,0,0,1,3-2.43L825.48,463a2.68,2.68,0,0,1,2.66,2.73h0A2.75,2.75,0,0,1,825.15,468.17Z" opacity="0.14"/><path d="M130.32,332.53l-.31-2.15c-.5-3.5-4.09-6-8-5.49l-74.4,8.78c-3.94.47-6.73,3.68-6.23,7.18L57.59,455.07l177.34-20.94-15-105.73c-.5-3.5-4.09-6-8-5.5Z" fill="#2b2775"/><polygon points="228.88 436.02 65.62 455.3 50.82 351.2 214.07 331.92 228.88 436.02" fill="#fff"/><path d="M128,352.51l-1.71,6.79L52.46,368c-3.94.46-6.73,3.67-6.24,7.17L57.7,455.84c.49,3.5,4.09,6,8,5.49l163.08-19.25c3.94-.47,6.73-3.68,6.23-7.18l-13-91.31c-.5-3.5-4.09-6-8-5.49l-79.93,9.43A7,7,0,0,0,128,352.51Z" fill="#272525" opacity="0.04" style="mix-blend-mode:multiply"/><path d="M130.94,355l-1.71,6.79-76.38,9c-3.94.47-6.73,3.68-6.23,7.18l11.47,80.65c.5,3.49,4.1,5.95,8,5.49L229.2,444.84c3.94-.46,6.73-3.68,6.23-7.17l-13-91.32c-.5-3.49-4.1-6-8-5.49L137.05,350A7,7,0,0,0,130.94,355Z" fill="#474ebb"/><polygon points="51.26 407.77 51 414.94 64.9 419.55 72.9 414.02 72.91 405.68 65.18 405.28 64.94 403.45 62.4 401.96 51.26 407.77" fill="#e4d2b8"/><polygon points="30.06 309.75 2.52 354.84 0 378.57 50.98 415.23 60.12 403.17 27.16 371.1 35.51 362.73 30.06 309.75" fill="#d34e4e"/><polygon points="766.16 303.54 766.16 288.18 778.8 283.79 790.24 292.02 790.24 299.15 781.81 303.54 766.16 303.54" fill="#a57767"/></g></g></g></svg>