<svg width="32" height="32" viewBox="0 0 32 32" fill="none" xmlns="http://www.w3.org/2000/svg">
<path opacity="0.2" d="M11.7574 23.071C10.3431 27.3137 4.68629 27.3137 4.68629 27.3137C4.68629 27.3137 4.68629 21.6568 8.92894 20.2426L11.7574 23.071Z" fill="#4084DD"/>
<path opacity="0.2" d="M23.0711 14.5858V22.6569C23.0711 22.7882 23.0452 22.9182 22.9949 23.0396C22.9447 23.1609 22.871 23.2711 22.7782 23.364L18.7355 27.4067C18.6075 27.5347 18.4471 27.6255 18.2716 27.6696C18.096 27.7136 17.9118 27.7091 17.7386 27.6567C17.5653 27.6042 17.4096 27.5058 17.2879 27.3717C17.1663 27.2377 17.0833 27.0732 17.0478 26.8957L16 21.6569L23.0711 14.5858Z" fill="#4084DD"/>
<path opacity="0.2" d="M17.4142 8.92896H9.34315C9.21183 8.92895 9.08179 8.95482 8.96047 9.00508C8.83914 9.05533 8.7289 9.12899 8.63604 9.22185L4.59332 13.2646C4.46534 13.3926 4.37449 13.5529 4.33046 13.7284C4.28644 13.904 4.29089 14.0882 4.34334 14.2615C4.39579 14.4347 4.49427 14.5904 4.62829 14.7121C4.76231 14.8338 4.92683 14.9168 5.10431 14.9523L10.3432 16L17.4142 8.92896Z" fill="#4084DD"/>
<path d="M11.7574 23.071C10.3431 27.3137 4.68629 27.3137 4.68629 27.3137C4.68629 27.3137 4.68629 21.6568 8.92894 20.2426" stroke="#4084DD" stroke-width="2" stroke-linecap="round" stroke-linejoin="round"/>
<path d="M24.4853 13.1716L16 21.6569L10.3431 16L18.8284 7.51472C22.0414 4.3017 25.2545 4.33305 26.6247 4.53749C26.8357 4.56894 27.031 4.66733 27.1818 4.81817C27.3327 4.969 27.4311 5.1643 27.4625 5.37527C27.667 6.74554 27.6983 9.95856 24.4853 13.1716Z" stroke="#4084DD" stroke-width="2" stroke-linecap="round" stroke-linejoin="round"/>
<path d="M23.0711 14.5858V22.6569C23.0711 22.7882 23.0452 22.9182 22.9949 23.0396C22.9447 23.1609 22.871 23.2711 22.7782 23.364L18.7355 27.4067C18.6075 27.5347 18.4471 27.6255 18.2716 27.6696C18.096 27.7136 17.9118 27.7091 17.7386 27.6567C17.5653 27.6042 17.4096 27.5058 17.2879 27.3717C17.1663 27.2377 17.0833 27.0732 17.0478 26.8957L16 21.6569" stroke="#4084DD" stroke-width="2" stroke-linecap="round" stroke-linejoin="round"/>
<path d="M17.4142 8.92896H9.34315C9.21183 8.92895 9.08179 8.95482 8.96047 9.00508C8.83914 9.05533 8.7289 9.12899 8.63604 9.22185L4.59332 13.2646C4.46534 13.3926 4.37449 13.5529 4.33046 13.7284C4.28644 13.904 4.29089 14.0882 4.34334 14.2615C4.39579 14.4347 4.49427 14.5904 4.62829 14.7121C4.76231 14.8338 4.92683 14.9168 5.10431 14.9523L10.3432 16" stroke="#4084DD" stroke-width="2" stroke-linecap="round" stroke-linejoin="round"/>
</svg>
