<svg width="32" height="32" viewBox="0 0 32 32" fill="none" xmlns="http://www.w3.org/2000/svg">
<path opacity="0.2" d="M4.58381 21.631L7.60722 4.48444C7.65327 4.22325 7.8012 3.99106 8.01845 3.83893C8.2357 3.68681 8.50449 3.62722 8.76567 3.67328L15.6593 4.88881C15.9205 4.93487 16.1527 5.08279 16.3048 5.30005C16.457 5.5173 16.5165 5.78608 16.4705 6.04727L13.4316 23.2814C13.227 24.4418 12.5755 25.4756 11.6169 26.1608C10.6584 26.846 9.4693 27.128 8.30515 26.946C5.81231 26.5555 4.14565 24.116 4.58381 21.631Z" fill="#4084DD"/>
<path d="M4.58381 21.631L7.60722 4.48444C7.65327 4.22325 7.8012 3.99106 8.01845 3.83893C8.2357 3.68681 8.50449 3.62722 8.76567 3.67328L15.6593 4.88881C15.9205 4.93487 16.1527 5.08279 16.3048 5.30005C16.457 5.5173 16.5165 5.78608 16.4705 6.04727L13.4316 23.2814C13.227 24.4418 12.5755 25.4756 11.6169 26.1608C10.6584 26.846 9.4693 27.128 8.30515 26.946C5.81231 26.5555 4.14565 24.116 4.58381 21.631Z" stroke="#4084DD" stroke-width="2" stroke-linecap="round" stroke-linejoin="round"/>
<path d="M14.7851 15.6056L23.9055 12.286C24.1547 12.1953 24.4298 12.2073 24.6701 12.3194C24.9105 12.4315 25.0965 12.6345 25.1872 12.8837L27.5814 19.4615C27.6263 19.5849 27.6464 19.716 27.6407 19.8472C27.635 19.9784 27.6035 20.1072 27.548 20.2262C27.4925 20.3452 27.4141 20.4521 27.3173 20.5408C27.2204 20.6296 27.1071 20.6983 26.9837 20.7432L10.5391 26.7286" stroke="#4084DD" stroke-width="2" stroke-linecap="round" stroke-linejoin="round"/>
<path d="M27.5 20.3166V26C27.5 26.2652 27.3946 26.5195 27.2071 26.7071C27.0195 26.8946 26.7652 27 26.5 27H8.99997" stroke="#4084DD" stroke-width="2" stroke-linecap="round" stroke-linejoin="round"/>
<path d="M9 24C9.82843 24 10.5 23.3284 10.5 22.5C10.5 21.6716 9.82843 21 9 21C8.17157 21 7.5 21.6716 7.5 22.5C7.5 23.3284 8.17157 24 9 24Z" fill="#4084DD"/>
</svg>
