<svg width="358" height="237" viewBox="0 0 358 237" fill="none" xmlns="http://www.w3.org/2000/svg">
<path d="M304.545 129.195L307.59 58.013C307.59 58.013 294.974 62.7734 287.037 55.374L291.33 135.447L304.545 129.195Z" fill="white"/>
<path d="M291.361 135.935C291.271 135.938 291.182 135.913 291.107 135.864C291.033 135.824 290.971 135.765 290.927 135.694C290.882 135.623 290.857 135.541 290.853 135.458L286.59 55.3843C286.585 55.2829 286.61 55.1824 286.662 55.0955C286.715 55.0087 286.792 54.9395 286.884 54.8971C286.976 54.8538 287.078 54.8393 287.178 54.8556C287.277 54.872 287.37 54.9183 287.443 54.9884C295.055 62.0934 307.347 57.5564 307.469 57.5158C307.547 57.4848 307.632 57.4741 307.715 57.4847C307.798 57.4954 307.878 57.527 307.946 57.5767C308.014 57.627 308.068 57.693 308.105 57.7689C308.142 57.8449 308.161 57.9286 308.159 58.0131L305.114 129.195C305.109 129.288 305.08 129.377 305.028 129.454C304.976 129.531 304.904 129.593 304.819 129.632L291.624 135.884C291.544 135.929 291.452 135.947 291.361 135.935ZM287.605 56.5211L291.797 134.676L303.977 128.88L307.022 58.7439C304.363 59.5762 294.71 62.0833 287.605 56.5211Z" fill="#D1D3D4"/>
<path d="M308.397 58.715C308.832 55.4019 304.591 52.1129 298.925 51.3688C293.259 50.6248 288.313 52.7074 287.878 56.0206C287.443 59.3337 291.684 62.6227 297.35 63.3667C303.016 64.1108 307.962 62.0281 308.397 58.715Z" fill="white"/>
<path d="M298.851 63.149C298.173 63.1529 297.495 63.1156 296.821 63.0373C290.731 62.3776 286.255 58.9773 286.529 55.3233C286.593 54.6863 286.787 54.0692 287.1 53.5105C287.413 52.9517 287.837 52.4632 288.346 52.0753C290.467 50.3092 294.01 49.5175 297.846 49.9438C303.936 50.6036 308.413 54.0038 308.139 57.6578C308.075 58.2948 307.88 58.9119 307.568 59.4707C307.255 60.0294 306.831 60.5179 306.322 60.9058C304.156 62.4747 301.523 63.2653 298.851 63.149V63.149ZM295.928 50.8472C293.465 50.7337 291.035 51.4483 289.026 52.8772C288.622 53.1774 288.285 53.5578 288.036 53.9944C287.786 54.4311 287.629 54.9146 287.575 55.4147C287.341 58.4597 291.553 61.4539 296.963 62.0528C300.475 62.4385 303.825 61.7077 305.702 60.1547C306.105 59.8508 306.441 59.4681 306.69 59.0301C306.94 58.5922 307.098 58.108 307.154 57.6071C307.387 54.5621 303.175 51.5171 297.765 50.969C297.156 50.8935 296.542 50.8528 295.928 50.8472Z" fill="#D1D3D4"/>
<path d="M299.369 62.9155C299.234 62.9344 299.098 62.899 298.989 62.8171C298.881 62.7353 298.809 62.6137 298.79 62.4791C298.771 62.3445 298.807 62.2079 298.889 62.0994C298.97 61.9909 299.092 61.9194 299.227 61.9005C300.354 61.5832 301.416 61.0677 302.363 60.378C302.851 60.0781 303.267 59.6759 303.585 59.1993C303.902 58.7227 304.112 58.1829 304.2 57.6172C304.197 56.655 303.835 55.7285 303.185 55.0188C302.621 54.3514 301.927 53.8056 301.145 53.4147C300.364 53.0239 299.51 52.7961 298.638 52.7452C296.905 52.7171 295.197 53.1591 293.695 54.0241C293.248 54.193 292.847 54.4647 292.524 54.8174C292.201 55.17 291.966 55.5937 291.838 56.0541C291.796 56.4067 291.828 56.7641 291.933 57.1033C292.038 57.4425 292.213 57.7559 292.446 58.0232C292.918 58.5257 293.503 58.9084 294.152 59.1397L294.395 59.2311L294.497 55.2421C294.498 55.1576 294.521 55.0748 294.563 55.0018C294.606 54.9288 294.667 54.8683 294.74 54.826C295.558 54.3264 296.481 54.0241 297.436 53.943C298.391 53.862 299.351 54.0044 300.242 54.3591C300.713 54.532 301.138 54.8137 301.48 55.1812C301.813 55.6256 302.03 56.1465 302.11 56.6962C302.189 57.246 302.13 57.8069 301.937 58.3277C301.76 58.802 301.49 59.2355 301.141 59.6019C300.792 59.9683 300.372 60.26 299.907 60.4592C299.104 60.8012 298.229 60.9406 297.359 60.8652C296.116 60.8127 294.89 60.5484 293.736 60.0837C292.947 59.8007 292.238 59.3345 291.665 58.7236C291.34 58.3432 291.098 57.8998 290.953 57.4212C290.808 56.9425 290.763 56.4391 290.823 55.9425C290.962 55.3143 291.252 54.7294 291.668 54.238C292.083 53.7465 292.612 53.3632 293.208 53.1208C294.9 52.1611 296.825 51.6869 298.77 51.7505C299.78 51.8087 300.767 52.0729 301.672 52.5267C302.576 52.9805 303.377 53.6145 304.028 54.3895C304.499 54.8658 304.853 55.4453 305.062 56.0823C305.271 56.7192 305.328 57.396 305.23 58.059C305.131 58.722 304.879 59.3529 304.495 59.9016C304.11 60.4504 303.602 60.902 303.013 61.2205C301.972 61.9808 300.803 62.548 299.562 62.8952L299.369 62.9155ZM295.37 59.5965C296.033 59.7696 296.714 59.8683 297.4 59.8908C298.112 59.9552 298.829 59.8473 299.491 59.5762C299.824 59.4275 300.124 59.2135 300.374 58.9468C300.623 58.68 300.816 58.366 300.942 58.0232C301.075 57.671 301.119 57.2917 301.071 56.9183C301.024 56.545 300.885 56.189 300.668 55.8816C300.436 55.6348 300.147 55.4499 299.826 55.3436C299.124 55.065 298.369 54.9433 297.615 54.9871C296.861 55.031 296.126 55.2393 295.461 55.5974L295.37 59.5965Z" fill="#D1D3D4"/>
<path d="M322.237 127.023L332.844 56.9068C332.844 56.9068 319.831 59.6778 312.736 51.1213L308.504 131.225L322.237 127.023Z" fill="white"/>
<path d="M308.504 131.702C308.39 131.701 308.279 131.661 308.189 131.59C308.124 131.541 308.072 131.476 308.038 131.402C308.005 131.327 307.99 131.246 307.996 131.164L312.229 51.0907C312.235 50.9891 312.271 50.8915 312.333 50.8103C312.394 50.729 312.478 50.6677 312.574 50.634C312.673 50.6034 312.778 50.6025 312.877 50.6314C312.977 50.6602 313.065 50.7176 313.132 50.7964C319.943 59.0179 332.61 56.4398 332.732 56.4093C332.812 56.3901 332.896 56.3912 332.976 56.4125C333.055 56.4337 333.129 56.4745 333.189 56.5311C333.248 56.5882 333.292 56.6584 333.319 56.7361C333.345 56.8137 333.353 56.8965 333.341 56.9777L322.744 127.104C322.729 127.198 322.688 127.286 322.625 127.358C322.562 127.43 322.48 127.483 322.389 127.51L308.646 131.682L308.504 131.702ZM313.183 52.3696L309.042 130.525L321.79 126.657L332.265 57.5258C329.494 57.9318 319.506 58.8859 313.183 52.3696Z" fill="#D1D3D4"/>
<path d="M332.829 56.9622C333.815 53.7994 330.142 49.8407 324.624 48.1201C319.107 46.3995 313.835 47.5686 312.848 50.7314C311.862 53.8941 315.535 57.8528 321.053 59.5734C326.57 61.294 331.842 60.1249 332.829 56.9622Z" fill="white"/>
<path d="M326.053 60.8653C324.551 60.8551 323.056 60.6469 321.607 60.2461C315.69 58.6627 311.579 54.6027 312.239 51.0299C312.363 50.4182 312.617 49.84 312.983 49.3341C313.349 48.8283 313.818 48.4063 314.36 48.0966C316.644 46.6553 320.268 46.4015 324.054 47.4165C329.971 49.0101 334.082 53.0599 333.422 56.6429C333.293 57.2528 333.037 57.8289 332.672 58.3341C332.307 58.8394 331.839 59.2625 331.301 59.5762C329.704 60.4829 327.888 60.9291 326.053 60.8653V60.8653ZM319.618 47.8225C317.972 47.7611 316.34 48.1507 314.898 48.9492C314.476 49.1866 314.109 49.5113 313.822 49.9015C313.535 50.2918 313.334 50.7388 313.234 51.2126C312.675 54.2576 316.553 57.8406 321.871 59.2717C325.333 60.2055 328.743 59.9924 330.763 58.7135C331.184 58.4772 331.55 58.1541 331.837 57.7657C332.124 57.3772 332.325 56.9322 332.427 56.4602V56.4602C332.986 53.4152 329.108 49.8221 323.79 48.4011C322.43 48.0273 321.028 47.8328 319.618 47.8225Z" fill="#D1D3D4"/>
<path d="M324.145 60.5202C324.021 60.5189 323.901 60.4731 323.808 60.3911C323.715 60.3092 323.655 60.1965 323.638 60.0736C323.623 59.9393 323.662 59.8047 323.745 59.6985C323.829 59.5923 323.95 59.5229 324.084 59.5052C325.224 59.3719 326.329 59.0277 327.342 58.4902C327.853 58.2704 328.307 57.9381 328.671 57.518C329.035 57.0979 329.299 56.6009 329.443 56.0643C329.543 55.0905 329.287 54.1137 328.723 53.3137C327.745 51.801 326.209 50.7358 324.449 50.3499C322.747 50.033 320.99 50.1946 319.374 50.8168C318.207 51.2228 317.537 51.8318 317.344 52.5727C317.271 52.9203 317.268 53.2792 317.336 53.6279C317.404 53.9767 317.542 54.3082 317.74 54.6027C318.161 55.1734 318.701 55.6447 319.324 55.9831L319.547 56.1049L320.065 52.1972C320.075 52.1087 320.109 52.0246 320.163 51.9534C320.216 51.8821 320.287 51.8262 320.369 51.7912C321.254 51.426 322.211 51.2708 323.165 51.3377C324.12 51.4046 325.046 51.6919 325.871 52.1769C326.322 52.4196 326.709 52.7678 326.997 53.1919C327.28 53.6698 327.439 54.2111 327.458 54.7661C327.478 55.3211 327.357 55.8722 327.109 56.3688C326.887 56.8101 326.575 57.2004 326.195 57.5149C325.814 57.8295 325.371 58.0613 324.896 58.1958C324.05 58.406 323.165 58.406 322.318 58.1958C321.084 57.9481 319.9 57.4952 318.816 56.856C318.053 56.4488 317.396 55.8682 316.898 55.161C316.615 54.7431 316.421 54.2716 316.329 53.7756C316.236 53.2797 316.247 52.77 316.36 52.2784C316.569 51.6776 316.928 51.1398 317.402 50.7155C317.876 50.2912 318.45 49.9942 319.07 49.8525C320.867 49.1597 322.822 48.9839 324.713 49.345C326.738 49.7934 328.505 51.0179 329.636 52.7554C330.335 53.7695 330.642 55.0033 330.499 56.2267C330.335 56.922 330.011 57.5694 329.553 58.1175C329.095 58.6655 328.515 59.099 327.86 59.3834C326.737 59.9769 325.517 60.3621 324.257 60.5202H324.145ZM320.481 56.5921C321.134 56.8702 321.815 57.0811 322.511 57.2214C323.205 57.3897 323.928 57.3897 324.622 57.2214C324.955 57.1231 325.264 56.9581 325.531 56.7365C325.798 56.5149 326.017 56.2413 326.175 55.9324C326.354 55.5982 326.447 55.2252 326.447 54.8463C326.447 54.4674 326.354 54.0944 326.175 53.7603C325.975 53.4685 325.702 53.234 325.383 53.0802C324.736 52.6975 324.013 52.4603 323.264 52.3849C322.516 52.3096 321.76 52.3979 321.049 52.6438L320.481 56.5921Z" fill="#D1D3D4"/>
<path d="M294.852 142.847L294.497 71.5736C294.497 71.5736 306.91 77.0241 315.132 70.0815L307.783 149.83L294.852 142.847Z" fill="white"/>
<path d="M307.783 150.338C307.698 150.339 307.614 150.318 307.54 150.277L294.609 143.293C294.528 143.252 294.461 143.19 294.415 143.113C294.368 143.036 294.344 142.947 294.345 142.857L293.989 71.5736C293.99 71.4887 294.011 71.4052 294.052 71.3307C294.093 71.2562 294.151 71.1932 294.223 71.1473C294.298 71.1073 294.381 71.0864 294.466 71.0864C294.551 71.0864 294.635 71.1073 294.71 71.1473C294.822 71.1473 306.89 76.3948 314.797 69.7364C314.876 69.6728 314.971 69.6332 315.072 69.6224C315.173 69.6116 315.275 69.63 315.365 69.6756C315.453 69.7246 315.525 69.7972 315.573 69.8851C315.622 69.973 315.645 70.0727 315.639 70.1729L308.281 149.921C308.275 150.006 308.248 150.088 308.201 150.159C308.155 150.23 308.092 150.288 308.017 150.327C307.941 150.351 307.861 150.354 307.783 150.338V150.338ZM295.36 142.553L307.347 149.028L314.513 71.2082C307.286 76.4152 297.755 73.3701 295.015 72.3551L295.36 142.553Z" fill="#D1D3D4"/>
<path d="M305.19 76.6916C310.891 76.332 315.341 73.3283 315.13 69.9827C314.919 66.6372 310.127 64.2166 304.426 64.5763C298.725 64.936 294.275 67.9396 294.486 71.2852C294.697 74.6308 299.489 77.0513 305.19 76.6916Z" fill="white"/>
<path d="M304.048 77.2473C300.607 77.2473 297.522 76.2323 295.654 74.5677C295.16 74.153 294.754 73.6424 294.463 73.0667C294.172 72.4909 294 71.8621 293.959 71.2182C293.827 67.5439 298.476 64.3974 304.545 64.1132C308.382 63.9 311.894 64.8947 313.944 66.7623C314.437 67.1781 314.842 67.689 315.133 68.2645C315.424 68.84 315.596 69.4683 315.639 70.1118C315.771 73.7252 311.021 76.9326 305.053 77.2168C304.721 77.2371 304.386 77.2473 304.048 77.2473ZM305.52 65.0673H304.596C299.176 65.3616 294.862 68.1123 294.974 71.1573C295.015 71.6638 295.156 72.1572 295.389 72.6085C295.623 73.0599 295.944 73.4602 296.334 73.7861C298.161 75.4507 301.48 76.3642 304.992 76.1714C310.422 75.877 314.736 73.1264 314.624 70.0814C314.583 69.5738 314.441 69.0796 314.206 68.6281C313.97 68.1765 313.647 67.7768 313.254 67.4525C311.6 65.9503 308.687 65.0571 305.52 65.0571V65.0673Z" fill="#D1D3D4"/>
<path d="M302.576 76.9529C302.523 76.9626 302.468 76.9626 302.414 76.9529C301.188 76.5345 300.044 75.906 299.034 75.0955C298.435 74.6827 297.935 74.1431 297.568 73.5151C297.202 72.8871 296.978 72.1861 296.913 71.4618C296.929 70.244 297.416 69.0799 298.273 68.2138C298.956 67.475 299.785 66.8853 300.707 66.4819C301.63 66.0784 302.625 65.8698 303.632 65.8691C305.573 65.9279 307.462 66.5062 309.103 67.5439C309.688 67.8169 310.199 68.2254 310.594 68.7356C310.99 69.2457 311.258 69.8428 311.376 70.4772C311.421 70.9772 311.359 71.4809 311.195 71.9551C311.03 72.4293 310.767 72.8632 310.422 73.2279C309.821 73.8245 309.082 74.2637 308.27 74.5068C307.098 74.9092 305.866 75.105 304.627 75.0853C303.749 75.1129 302.877 74.9247 302.089 74.5372C301.187 74.0716 300.505 73.2693 300.191 72.3042C300.016 71.7783 299.978 71.2166 300.079 70.6717C300.18 70.1267 300.418 69.6163 300.77 69.1882C301.126 68.8326 301.566 68.571 302.048 68.4269C302.958 68.1263 303.925 68.0395 304.874 68.1733C305.823 68.307 306.728 68.6578 307.519 69.1983C307.589 69.2454 307.646 69.3089 307.685 69.3833C307.724 69.4577 307.744 69.5407 307.743 69.6246V73.6237L307.996 73.5425C308.651 73.3551 309.248 73.006 309.732 72.5275C309.976 72.273 310.163 71.9693 310.28 71.6368C310.398 71.3042 310.443 70.9504 310.412 70.599C310.309 70.1212 310.094 69.6744 309.785 69.2952C309.477 68.916 309.083 68.6151 308.636 68.4168C307.163 67.4723 305.462 66.9428 303.713 66.8841V66.8841C302.845 66.8856 301.986 67.0668 301.192 67.4161C300.397 67.7655 299.683 68.2755 299.095 68.9141C298.422 69.591 298.03 70.4977 297.999 71.4516C298.066 72.0265 298.256 72.5802 298.556 73.0756C298.855 73.571 299.257 73.9967 299.734 74.3241C300.647 75.0561 301.676 75.6292 302.779 76.0191C302.914 76.0407 303.034 76.1148 303.114 76.2252C303.194 76.3356 303.227 76.4732 303.206 76.6078C303.184 76.7424 303.11 76.863 303 76.9429C302.889 77.0229 302.751 77.0557 302.617 77.0341L302.576 76.9529ZM303.987 69.0968C303.438 69.0944 302.893 69.1836 302.373 69.3607C302.046 69.4459 301.748 69.6177 301.511 69.8581C301.282 70.1534 301.13 70.5012 301.07 70.8699C301.01 71.2386 301.043 71.6165 301.165 71.9693C301.278 72.3213 301.458 72.6477 301.697 72.9298C301.936 73.212 302.228 73.4443 302.556 73.6136C303.191 73.9109 303.885 74.0568 304.586 74.0399C305.267 74.0549 305.948 73.9936 306.616 73.8572L306.667 69.8682C305.86 69.3718 304.934 69.1051 303.987 69.0968V69.0968Z" fill="#D1D3D4"/>
<path d="M316.786 202.569H26.3846C26.25 202.569 26.1209 202.516 26.0257 202.421C25.9306 202.326 25.8771 202.197 25.8771 202.062C25.8771 201.927 25.9306 201.798 26.0257 201.703C26.1209 201.608 26.25 201.554 26.3846 201.554H316.786C316.921 201.554 317.05 201.608 317.145 201.703C317.24 201.798 317.294 201.927 317.294 202.062C317.294 202.197 317.24 202.326 317.145 202.421C317.05 202.516 316.921 202.569 316.786 202.569Z" fill="#D1D3D4"/>
<path d="M281.982 112.884H331.646V197.809C331.64 200.336 330.635 202.758 328.849 204.546C327.063 206.334 324.642 207.342 322.115 207.35H291.553C289.018 207.35 286.586 206.343 284.792 204.55C282.999 202.757 281.992 200.325 281.992 197.789V112.884H281.982Z" fill="white"/>
<path d="M322.115 207.878H291.553C288.881 207.875 286.319 206.812 284.429 204.923C282.54 203.033 281.477 200.471 281.474 197.799V112.884C281.474 112.749 281.528 112.62 281.623 112.525C281.718 112.43 281.847 112.376 281.982 112.376H331.646C331.78 112.376 331.91 112.43 332.005 112.525C332.1 112.62 332.153 112.749 332.153 112.884V197.799C332.151 200.464 331.094 203.02 329.213 204.909C327.332 206.797 324.78 207.864 322.115 207.878ZM282.53 113.391V197.799C282.533 200.202 283.488 202.506 285.188 204.205C286.887 205.904 289.191 206.86 291.594 206.863H322.115C324.516 206.857 326.818 205.9 328.515 204.202C330.212 202.503 331.166 200.2 331.169 197.799V113.391H282.53Z" fill="#D1D3D4"/>
<path d="M48.0142 102.409H34.9106V179.874H48.0142V102.409Z" fill="white"/>
<path d="M48.065 180.381H34.87C34.7354 180.381 34.6063 180.328 34.5111 180.233C34.416 180.138 34.3625 180.008 34.3625 179.874V102.409C34.3625 102.275 34.416 102.145 34.5111 102.05C34.6063 101.955 34.7354 101.902 34.87 101.902H48.065C48.1996 101.902 48.3287 101.955 48.4238 102.05C48.519 102.145 48.5725 102.275 48.5725 102.409V179.874C48.5725 180.008 48.519 180.138 48.4238 180.233C48.3287 180.328 48.1996 180.381 48.065 180.381ZM35.4688 179.366H47.5067V102.917H35.4181L35.4688 179.366Z" fill="#D1D3D4"/>
<path d="M65.4215 87.103H48.0143V164.568H65.4215V87.103Z" fill="white"/>
<path d="M65.4215 165.085H48.065C47.9304 165.085 47.8013 165.032 47.7061 164.937C47.611 164.842 47.5575 164.713 47.5575 164.578V87.103C47.5575 86.9684 47.611 86.8393 47.7061 86.7441C47.8013 86.6489 47.9304 86.5955 48.065 86.5955H65.4215C65.5561 86.5955 65.6852 86.6489 65.7804 86.7441C65.8755 86.8393 65.929 86.9684 65.929 87.103V164.578C65.929 164.713 65.8755 164.842 65.7804 164.937C65.6852 165.032 65.5561 165.085 65.4215 165.085ZM48.5217 164.07H64.914V87.58H48.5217V164.07Z" fill="#D1D3D4"/>
<path d="M95.4858 93.3147H65.4215V170.779H95.4858V93.3147Z" fill="white"/>
<path d="M95.4858 171.287H65.4215C65.2869 171.287 65.1578 171.234 65.0626 171.139C64.9675 171.043 64.914 170.914 64.914 170.78V93.3149C64.914 93.1803 64.9675 93.0512 65.0626 92.956C65.1578 92.8608 65.2869 92.8074 65.4215 92.8074H95.4858C95.6204 92.8074 95.7495 92.8608 95.8447 92.956C95.9398 93.0512 95.9933 93.1803 95.9933 93.3149V170.81C95.9855 170.939 95.9287 171.061 95.8343 171.149C95.74 171.238 95.6153 171.287 95.4858 171.287V171.287ZM65.929 170.272H94.9783V93.8224H65.929V170.272Z" fill="#D1D3D4"/>
<path d="M108.691 144.258H25.5726V208.487H108.691V144.258Z" fill="white"/>
<path d="M108.691 208.994H25.5726C25.438 208.994 25.3089 208.941 25.2137 208.846C25.1186 208.751 25.0651 208.622 25.0651 208.487V144.258C25.0651 144.123 25.1186 143.994 25.2137 143.899C25.3089 143.804 25.438 143.75 25.5726 143.75H108.691C108.825 143.753 108.952 143.807 109.047 143.902C109.142 143.996 109.196 144.124 109.198 144.258V208.487C109.196 208.621 109.142 208.748 109.047 208.843C108.952 208.938 108.825 208.992 108.691 208.994V208.994ZM26.0801 207.979H108.183V144.765H26.0801V207.979Z" fill="#D1D3D4"/>
<path d="M57.8496 166.385H34.87C34.7354 166.385 34.6063 166.331 34.5111 166.236C34.416 166.141 34.3625 166.012 34.3625 165.877V152.976C34.3625 152.842 34.416 152.713 34.5111 152.618C34.6063 152.522 34.7354 152.469 34.87 152.469H57.809C57.9436 152.469 58.0727 152.522 58.1678 152.618C58.263 152.713 58.3165 152.842 58.3165 152.976V165.877C58.3169 166.005 58.269 166.128 58.1825 166.222C58.0959 166.316 57.977 166.374 57.8496 166.385V166.385ZM35.4181 165.37H57.3421V153.484H35.4181V165.37Z" fill="#D1D3D4"/>
<path d="M40.8078 112.854C40.1799 112.85 39.5672 112.66 39.0473 112.308C38.5273 111.956 38.1232 111.457 37.8862 110.876C37.6492 110.295 37.5897 109.656 37.7154 109.041C37.8411 108.426 38.1463 107.861 38.5924 107.42C39.0385 106.978 39.6056 106.678 40.2219 106.558C40.8383 106.438 41.4764 106.504 42.0555 106.746C42.6347 106.989 43.1289 107.398 43.4759 107.921C43.8229 108.444 44.007 109.059 44.005 109.687C44.0037 110.105 43.9198 110.519 43.7583 110.904C43.5968 111.29 43.3608 111.64 43.0637 111.934C42.7667 112.228 42.4145 112.461 42.0274 112.619C41.6403 112.776 41.2258 112.856 40.8078 112.854V112.854ZM40.8078 107.525C40.381 107.529 39.9651 107.659 39.6122 107.899C39.2594 108.139 38.9854 108.478 38.8249 108.873C38.6644 109.269 38.6245 109.703 38.7102 110.121C38.7959 110.539 39.0033 110.922 39.3065 111.223C39.6096 111.523 39.9949 111.727 40.4137 111.809C40.8325 111.89 41.2662 111.846 41.66 111.682C42.0539 111.518 42.3903 111.241 42.627 110.886C42.8637 110.531 42.99 110.114 42.99 109.687C42.9887 109.402 42.9312 109.119 42.8208 108.856C42.7104 108.593 42.5493 108.355 42.3466 108.154C42.144 107.953 41.9038 107.794 41.6398 107.686C41.3757 107.578 41.093 107.524 40.8078 107.525V107.525Z" fill="#D1D3D4"/>
<path d="M56.7128 99.3947C56.084 99.3947 55.4694 99.2081 54.9467 98.8586C54.4241 98.509 54.0169 98.0122 53.7767 97.4311C53.5366 96.85 53.4742 96.2107 53.5977 95.5942C53.7211 94.9776 54.0246 94.4116 54.47 93.9677C54.9153 93.5238 55.4823 93.222 56.0992 93.1006C56.7162 92.9791 57.3553 93.0435 57.9356 93.2855C58.5159 93.5275 59.0114 93.9363 59.3593 94.4601C59.7071 94.9839 59.8918 95.5991 59.8897 96.2279C59.8897 96.6446 59.8075 97.0572 59.6477 97.4421C59.4879 97.827 59.2538 98.1765 58.9586 98.4707C58.6635 98.7649 58.3132 98.998 57.9278 99.1565C57.5424 99.3151 57.1295 99.396 56.7128 99.3947V99.3947ZM56.7128 94.0659C56.2852 94.0659 55.8672 94.1927 55.5117 94.4303C55.1561 94.6678 54.879 95.0055 54.7154 95.4005C54.5518 95.7956 54.509 96.2303 54.5924 96.6497C54.6758 97.069 54.8817 97.4542 55.1841 97.7566C55.4864 98.059 55.8716 98.2649 56.291 98.3483C56.7104 98.4317 57.1451 98.3889 57.5401 98.2253C57.9352 98.0616 58.2728 97.7845 58.5104 97.429C58.7479 97.0735 58.8747 96.6555 58.8747 96.2279C58.8761 95.9436 58.8211 95.6619 58.7129 95.3989C58.6047 95.136 58.4455 94.8972 58.2445 94.6961C58.0435 94.4951 57.8046 94.3359 57.5417 94.2278C57.2788 94.1196 56.9971 94.0646 56.7128 94.0659V94.0659Z" fill="#D1D3D4"/>
<path d="M88.1474 107.525H65.4215C65.2869 107.525 65.1578 107.471 65.0626 107.376C64.9675 107.281 64.914 107.152 64.914 107.017C64.914 106.883 64.9675 106.754 65.0626 106.658C65.1578 106.563 65.2869 106.51 65.4215 106.51H88.1474C88.2819 106.51 88.411 106.563 88.5062 106.658C88.6014 106.754 88.6549 106.883 88.6549 107.017C88.6549 107.152 88.6014 107.281 88.5062 107.376C88.411 107.471 88.2819 107.525 88.1474 107.525Z" fill="#D1D3D4"/>
<path d="M65.4215 118.893H48.065C47.9304 118.893 47.8013 118.839 47.7061 118.744C47.611 118.649 47.5575 118.52 47.5575 118.385C47.5575 118.251 47.611 118.122 47.7061 118.027C47.8013 117.931 47.9304 117.878 48.065 117.878H65.4215C65.5561 117.878 65.6852 117.931 65.7804 118.027C65.8755 118.122 65.929 118.251 65.929 118.385C65.929 118.52 65.8755 118.649 65.7804 118.744C65.6852 118.839 65.5561 118.893 65.4215 118.893Z" fill="#D1D3D4"/>
<path d="M262.179 39.0225H95.8512C88.39 39.0225 82.3416 45.0709 82.3416 52.5321V173.236C82.3416 180.697 88.39 186.746 95.8512 186.746H262.179C269.64 186.746 275.689 180.697 275.689 173.236V52.5321C275.689 45.0709 269.64 39.0225 262.179 39.0225Z" fill="white"/>
<path d="M262.23 187.253H95.8512C92.1353 187.248 88.5731 185.769 85.9455 183.142C83.3179 180.514 81.8394 176.952 81.834 173.236V52.532C81.8394 48.8161 83.3179 45.2539 85.9455 42.6264C88.5731 39.9988 92.1353 38.5203 95.8512 38.5149H262.23C265.947 38.5176 269.511 39.9952 272.139 42.6234C274.767 45.2515 276.244 48.8153 276.247 52.532V173.236C276.242 176.952 274.763 180.514 272.136 183.142C269.508 185.769 265.946 187.248 262.23 187.253ZM95.8512 39.5299C92.4036 39.5326 89.0981 40.9033 86.6603 43.3411C84.2225 45.7789 82.8517 49.0845 82.849 52.532V173.236C82.8544 176.683 84.226 179.987 86.6632 182.424C89.1004 184.861 92.4045 186.233 95.8512 186.238H262.23C265.678 186.235 268.983 184.865 271.421 182.427C273.859 179.989 275.229 176.683 275.232 173.236V52.532C275.229 49.0845 273.859 45.7789 271.421 43.3411C268.983 40.9033 265.678 39.5326 262.23 39.5299H95.8512Z" fill="#231F20"/>
<path d="M252.557 21.8284H105.473V161.959H252.557V21.8284Z" fill="#CFDEE5"/>
<path d="M276.014 162.457H82.0167C81.8821 162.457 81.7531 162.403 81.6579 162.308C81.5627 162.213 81.5092 162.084 81.5092 161.949C81.5118 161.815 81.5662 161.688 81.6608 161.593C81.7554 161.499 81.883 161.444 82.0167 161.442H276.014C276.148 161.442 276.277 161.495 276.373 161.59C276.468 161.685 276.521 161.815 276.521 161.949C276.521 162.084 276.468 162.213 276.373 162.308C276.277 162.403 276.148 162.457 276.014 162.457Z" fill="#231F20"/>
<path d="M179.02 177.834C181.582 177.834 183.659 175.757 183.659 173.195C183.659 170.633 181.582 168.557 179.02 168.557C176.458 168.557 174.382 170.633 174.382 173.195C174.382 175.757 176.458 177.834 179.02 177.834Z" fill="white"/>
<path d="M179 178.331C177.981 178.333 176.985 178.033 176.137 177.468C175.289 176.903 174.628 176.1 174.237 175.159C173.847 174.218 173.744 173.183 173.942 172.184C174.14 171.184 174.631 170.267 175.351 169.546C176.071 168.826 176.989 168.336 177.988 168.137C178.988 167.939 180.023 168.042 180.964 168.433C181.905 168.823 182.708 169.485 183.273 170.332C183.838 171.18 184.138 172.177 184.136 173.195C184.133 174.557 183.591 175.861 182.629 176.824C181.666 177.787 180.361 178.328 179 178.331V178.331ZM179 169.064C178.183 169.062 177.383 169.303 176.702 169.755C176.021 170.208 175.49 170.853 175.176 171.607C174.862 172.362 174.779 173.193 174.937 173.995C175.095 174.797 175.488 175.534 176.065 176.113C176.643 176.691 177.379 177.086 178.18 177.246C178.982 177.406 179.813 177.325 180.568 177.013C181.324 176.7 181.97 176.171 182.424 175.491C182.878 174.812 183.121 174.013 183.121 173.195C183.121 172.101 182.687 171.052 181.915 170.278C181.142 169.503 180.094 169.067 179 169.064V169.064Z" fill="#D1D3D4"/>
<path d="M214.028 208.355H144.013C141.883 208.355 140.156 210.082 140.156 212.212V212.791C140.156 214.921 141.883 216.648 144.013 216.648H214.028C216.158 216.648 217.885 214.921 217.885 212.791V212.212C217.885 210.082 216.158 208.355 214.028 208.355Z" fill="white"/>
<path d="M214.028 217.145H143.993C142.838 217.145 141.73 216.686 140.914 215.869C140.097 215.053 139.638 213.945 139.638 212.79V212.202C139.638 211.047 140.097 209.939 140.914 209.123C141.73 208.306 142.838 207.847 143.993 207.847H214.028C215.183 207.847 216.292 208.306 217.11 209.122C217.928 209.938 218.389 211.046 218.392 212.202V212.79C218.389 213.946 217.928 215.054 217.11 215.87C216.292 216.686 215.183 217.145 214.028 217.145V217.145ZM143.993 208.862C143.107 208.862 142.258 209.214 141.631 209.84C141.005 210.467 140.653 211.316 140.653 212.202V212.79C140.656 213.675 141.009 214.523 141.634 215.149C142.26 215.774 143.108 216.127 143.993 216.13H214.028C214.914 216.13 215.765 215.778 216.393 215.152C217.02 214.526 217.374 213.677 217.377 212.79V212.202C217.377 211.762 217.29 211.327 217.122 210.921C216.954 210.516 216.707 210.147 216.395 209.837C216.084 209.527 215.715 209.281 215.309 209.114C214.902 208.946 214.467 208.861 214.028 208.862H143.993Z" fill="#231F20"/>
<path d="M205.522 208.487H152.508L156.152 186.735H201.878L205.522 208.487Z" fill="white"/>
<path d="M205.522 208.994H152.508C152.435 208.994 152.362 208.978 152.295 208.947C152.228 208.915 152.17 208.869 152.123 208.812C152.074 208.758 152.038 208.693 152.019 208.622C151.999 208.551 151.997 208.477 152.011 208.406L155.655 186.654C155.674 186.537 155.735 186.43 155.827 186.354C155.918 186.278 156.033 186.237 156.152 186.238H201.827C201.948 186.236 202.064 186.277 202.157 186.353C202.25 186.429 202.313 186.536 202.335 186.654L206.029 208.365C206.04 208.437 206.035 208.51 206.016 208.58C205.997 208.65 205.963 208.715 205.918 208.771C205.872 208.835 205.813 208.888 205.745 208.927C205.676 208.965 205.6 208.988 205.522 208.994V208.994ZM153.107 207.979H204.872L201.401 187.253H156.579L153.107 207.979Z" fill="#231F20"/>
<path d="M154.336 197.616L202.609 191.059L201.878 186.735H156.152L154.336 197.616Z" fill="#231F20"/>
<path d="M154.335 198.124C154.267 198.124 154.198 198.11 154.135 198.082C154.072 198.054 154.016 198.013 153.97 197.961C153.915 197.904 153.874 197.835 153.849 197.759C153.825 197.684 153.817 197.604 153.828 197.525L155.655 186.654C155.674 186.537 155.735 186.43 155.827 186.354C155.918 186.278 156.033 186.237 156.152 186.238H201.827C201.948 186.236 202.064 186.277 202.157 186.353C202.25 186.429 202.313 186.536 202.335 186.654L203.055 190.968C203.066 191.035 203.064 191.104 203.048 191.17C203.033 191.236 203.004 191.299 202.964 191.354C202.923 191.409 202.872 191.456 202.812 191.491C202.753 191.526 202.687 191.548 202.619 191.557L154.346 198.114L154.335 198.124ZM156.579 187.253L154.944 197.017L202.02 190.623L201.452 187.253H156.579Z" fill="#231F20"/>
<path d="M133.315 98.8567H119.196V110.042H133.315V98.8567Z" fill="white"/>
<path d="M191.373 101.648H146.825C146.555 101.648 146.297 101.541 146.107 101.351C145.916 101.16 145.81 100.902 145.81 100.633C145.81 100.364 145.916 100.106 146.107 99.9152C146.297 99.7249 146.555 99.6179 146.825 99.6179H191.373C191.642 99.6179 191.9 99.7249 192.091 99.9152C192.281 100.106 192.388 100.364 192.388 100.633C192.388 100.902 192.281 101.16 192.091 101.351C191.9 101.541 191.642 101.648 191.373 101.648Z" fill="#FDFFFF"/>
<path d="M182.045 108.032H146.825C146.555 108.032 146.297 107.925 146.107 107.735C145.916 107.545 145.81 107.286 145.81 107.017C145.81 106.748 145.916 106.49 146.107 106.299C146.297 106.109 146.555 106.002 146.825 106.002H182.045C182.314 106.002 182.572 106.109 182.763 106.299C182.953 106.49 183.06 106.748 183.06 107.017C183.06 107.286 182.953 107.545 182.763 107.735C182.572 107.925 182.314 108.032 182.045 108.032Z" fill="#FDFFFF"/>
<path d="M124.921 107.88C124.826 107.89 124.731 107.89 124.637 107.88C124.41 107.835 124.196 107.74 124.012 107.601C123.827 107.462 123.677 107.283 123.571 107.078L122.241 104.51C122.138 104.332 122.072 104.135 122.047 103.93C122.022 103.726 122.039 103.518 122.096 103.321C122.154 103.123 122.251 102.939 122.382 102.78C122.512 102.62 122.674 102.489 122.857 102.395C123.04 102.3 123.24 102.243 123.445 102.228C123.651 102.213 123.857 102.239 124.052 102.306C124.247 102.373 124.426 102.478 124.579 102.617C124.732 102.755 124.855 102.922 124.941 103.109L125.388 103.972L128.433 101.323C128.584 101.19 128.76 101.088 128.951 101.022C129.142 100.957 129.343 100.93 129.545 100.943C129.746 100.955 129.943 101.008 130.124 101.096C130.305 101.185 130.466 101.309 130.6 101.46C130.733 101.611 130.835 101.787 130.9 101.978C130.966 102.169 130.993 102.371 130.98 102.572C130.967 102.773 130.915 102.97 130.826 103.151C130.738 103.332 130.614 103.494 130.463 103.627L125.936 107.535C125.652 107.772 125.29 107.895 124.921 107.88V107.88Z" fill="#CFDEE5"/>
<path d="M133.315 118.385H119.196V129.571H133.315V118.385Z" fill="white"/>
<path d="M191.373 121.176H146.825C146.555 121.176 146.297 121.07 146.107 120.879C145.916 120.689 145.81 120.431 145.81 120.161C145.81 119.892 145.916 119.634 146.107 119.444C146.297 119.253 146.555 119.146 146.825 119.146H191.373C191.642 119.146 191.9 119.253 192.091 119.444C192.281 119.634 192.388 119.892 192.388 120.161C192.388 120.431 192.281 120.689 192.091 120.879C191.9 121.07 191.642 121.176 191.373 121.176Z" fill="#FDFFFF"/>
<path d="M182.045 127.571H146.825C146.555 127.571 146.297 127.464 146.107 127.274C145.916 127.083 145.81 126.825 145.81 126.556C145.81 126.287 145.916 126.029 146.107 125.838C146.297 125.648 146.555 125.541 146.825 125.541H182.045C182.314 125.541 182.572 125.648 182.763 125.838C182.953 126.029 183.06 126.287 183.06 126.556C183.06 126.825 182.953 127.083 182.763 127.274C182.572 127.464 182.314 127.571 182.045 127.571Z" fill="#FDFFFF"/>
<path d="M124.921 127.368C124.826 127.378 124.731 127.378 124.637 127.368C124.411 127.323 124.199 127.229 124.015 127.092C123.831 126.955 123.679 126.779 123.571 126.576L122.241 123.998C122.138 123.82 122.072 123.623 122.047 123.418C122.022 123.214 122.039 123.006 122.096 122.809C122.154 122.611 122.251 122.427 122.382 122.268C122.512 122.109 122.674 121.978 122.857 121.883C123.04 121.788 123.24 121.731 123.445 121.716C123.651 121.701 123.857 121.727 124.052 121.794C124.247 121.861 124.426 121.966 124.579 122.105C124.732 122.243 124.855 122.41 124.941 122.597L125.388 123.46L128.433 120.811C128.584 120.678 128.76 120.576 128.951 120.51C129.142 120.445 129.343 120.418 129.545 120.431C129.746 120.444 129.943 120.496 130.124 120.585C130.305 120.673 130.466 120.797 130.6 120.948C130.733 121.099 130.835 121.275 130.9 121.466C130.966 121.657 130.993 121.859 130.98 122.06C130.967 122.261 130.915 122.458 130.826 122.639C130.738 122.82 130.614 122.982 130.463 123.115L125.936 127.023C125.651 127.259 125.29 127.382 124.921 127.368Z" fill="#CFDEE5"/>
<path d="M206.882 98.3086C206.25 98.8594 205.657 99.4528 205.106 100.085C202.279 103.258 200.593 107.284 200.315 111.524H208.709C208.945 109.512 209.739 107.606 211.003 106.023C211.522 105.362 212.118 104.765 212.779 104.246C214.362 102.984 216.269 102.193 218.28 101.963V93.5583C214.061 93.8414 210.054 95.5115 206.882 98.3086V98.3086Z" fill="white"/>
<path d="M238.794 111.524C238.526 107.291 236.859 103.267 234.054 100.085L228.116 106.023C229.372 107.609 230.163 109.514 230.4 111.524C230.4 111.94 230.471 112.356 230.471 112.783C230.471 113.209 230.471 113.625 230.4 114.041C230.164 116.053 229.369 117.959 228.106 119.543C227.587 120.204 226.99 120.8 226.329 121.319C224.747 122.583 222.84 123.374 220.828 123.603C219.995 123.697 219.154 123.697 218.321 123.603C216.31 123.37 214.404 122.579 212.82 121.319C212.159 120.8 211.562 120.204 211.044 119.543C209.782 117.958 208.988 116.053 208.75 114.041H200.315C200.582 118.277 202.253 122.302 205.065 125.48C205.616 126.112 206.209 126.706 206.841 127.256C210.025 130.061 214.047 131.731 218.28 132.007C218.697 132.007 219.113 132.007 219.529 132.007C219.945 132.007 220.371 132.007 220.788 132.007C225.021 131.732 229.044 130.062 232.227 127.256C232.861 126.708 233.455 126.115 234.003 125.48C236.815 122.302 238.486 118.277 238.753 114.041C238.753 113.625 238.753 113.209 238.753 112.783C238.753 112.356 238.824 111.94 238.794 111.524Z" fill="white"/>
<path d="M232.277 98.3086C229.091 95.5031 225.065 93.8327 220.828 93.5583V101.963C222.843 102.193 224.752 102.984 226.34 104.246L232.277 98.3086Z" fill="#231F20"/>
<path d="M226.34 104.754C226.224 104.758 226.112 104.718 226.025 104.642C224.51 103.439 222.689 102.683 220.767 102.46C220.645 102.445 220.533 102.387 220.451 102.295C220.368 102.204 220.322 102.085 220.321 101.963V93.5583C220.32 93.4894 220.335 93.4212 220.363 93.3582C220.391 93.2952 220.432 93.2389 220.483 93.1929C220.533 93.1449 220.592 93.1076 220.656 93.0831C220.721 93.0587 220.79 93.0477 220.859 93.0508C225.212 93.3208 229.349 95.0394 232.612 97.933C232.715 98.0277 232.777 98.1588 232.785 98.2984C232.786 98.3664 232.773 98.434 232.747 98.4969C232.72 98.5597 232.682 98.6165 232.633 98.6638L226.705 104.612C226.606 104.704 226.475 104.755 226.34 104.754V104.754ZM221.336 101.516C223.125 101.787 224.824 102.483 226.289 103.546L231.526 98.3085C228.649 95.9038 225.11 94.4281 221.376 94.076L221.336 101.516Z" fill="#231F20"/>
<path d="M234.825 145.273H119.196C118.927 145.273 118.669 145.166 118.478 144.975C118.288 144.785 118.181 144.527 118.181 144.258C118.181 143.988 118.288 143.73 118.478 143.54C118.669 143.35 118.927 143.243 119.196 143.243H234.825C235.094 143.243 235.352 143.35 235.543 143.54C235.733 143.73 235.84 143.988 235.84 144.258C235.84 144.527 235.733 144.785 235.543 144.975C235.352 145.166 235.094 145.273 234.825 145.273Z" fill="#231F20"/>
<path d="M194.134 84.535H119.196C118.927 84.535 118.669 84.428 118.478 84.2377C118.288 84.0473 118.181 83.7892 118.181 83.52V43.2245C118.181 42.9553 118.288 42.6971 118.478 42.5068C118.669 42.3164 118.927 42.2095 119.196 42.2095C119.465 42.2095 119.724 42.3164 119.914 42.5068C120.104 42.6971 120.211 42.9553 120.211 43.2245V82.505H194.134C194.403 82.505 194.661 82.6119 194.851 82.8023C195.042 82.9926 195.149 83.2508 195.149 83.52C195.149 83.7892 195.042 84.0473 194.851 84.2377C194.661 84.428 194.403 84.535 194.134 84.535V84.535Z" fill="#231F20"/>
<path d="M123.591 79.5311C123.449 79.5399 123.306 79.5155 123.175 79.46C122.936 79.3384 122.755 79.127 122.671 78.8721C122.587 78.6173 122.608 78.3397 122.728 78.0999C123.073 77.43 131.193 61.6366 141.821 58.3379C147.911 56.4297 150.052 59.9314 151.899 63.017C153.564 65.8083 155.005 68.2138 159.167 67.9195C163.704 67.5947 166.343 63.0678 168.891 58.683C171.438 54.2982 174.209 49.548 179.101 49.7307C183.158 49.9795 187.225 49.9795 191.281 49.7307C191.415 49.718 191.549 49.7317 191.677 49.7711C191.805 49.8104 191.924 49.8745 192.027 49.9598C192.131 50.0451 192.216 50.1499 192.279 50.2682C192.341 50.3865 192.38 50.516 192.393 50.6493C192.406 50.7826 192.392 50.917 192.353 51.045C192.313 51.173 192.249 51.292 192.164 51.3952C192.079 51.4984 191.974 51.5838 191.855 51.6465C191.737 51.7092 191.608 51.748 191.474 51.7607C187.317 52.0196 183.147 52.0196 178.99 51.7607C175.336 51.6389 173.042 55.5466 170.616 59.7081C167.936 64.3162 164.891 69.5435 159.279 69.9495C153.858 70.325 151.788 66.9045 150.144 64.0625C148.337 61.0175 147.027 58.8454 142.409 60.2765C132.594 63.3215 124.606 78.8612 124.525 79.0236C124.431 79.1862 124.295 79.3197 124.13 79.4093C123.965 79.4989 123.778 79.5411 123.591 79.5311Z" fill="#FDFFFF"/>
<path d="M241.93 84.535H209.348C209.079 84.535 208.821 84.428 208.631 84.2377C208.44 84.0473 208.333 83.7892 208.333 83.52V48.2081C208.333 47.9389 208.44 47.6808 208.631 47.4904C208.821 47.3001 209.079 47.1931 209.348 47.1931H241.93C242.199 47.1931 242.457 47.3001 242.648 47.4904C242.838 47.6808 242.945 47.9389 242.945 48.2081V83.52C242.945 83.7892 242.838 84.0473 242.648 84.2377C242.457 84.428 242.199 84.535 241.93 84.535ZM210.363 82.505H240.915V49.2231H210.363V82.505Z" fill="#FDFFFF"/>
<path d="M223.376 84.535C223.107 84.535 222.848 84.428 222.658 84.2377C222.468 84.0473 222.361 83.7892 222.361 83.52V48.2081C222.361 47.9389 222.468 47.6808 222.658 47.4904C222.848 47.3001 223.107 47.1931 223.376 47.1931C223.645 47.1931 223.903 47.3001 224.093 47.4904C224.284 47.6808 224.391 47.9389 224.391 48.2081V83.52C224.391 83.7892 224.284 84.0473 224.093 84.2377C223.903 84.428 223.645 84.535 223.376 84.535Z" fill="#FDFFFF"/>
<path d="M241.93 58.145H209.348C209.079 58.145 208.821 58.0381 208.631 57.8477C208.44 57.6574 208.333 57.3992 208.333 57.13C208.333 56.8608 208.44 56.6026 208.631 56.4123C208.821 56.2219 209.079 56.115 209.348 56.115H241.93C242.199 56.115 242.457 56.2219 242.648 56.4123C242.838 56.6026 242.945 56.8608 242.945 57.13C242.945 57.3992 242.838 57.6574 242.648 57.8477C242.457 58.0381 242.199 58.145 241.93 58.145Z" fill="#FDFFFF"/>
<path d="M326.084 119.928H315.03V127.855H326.084V119.928Z" fill="white"/>
<path d="M326.084 128.363H315.01C314.875 128.363 314.746 128.309 314.651 128.214C314.556 128.119 314.503 127.99 314.503 127.855V119.928C314.503 119.794 314.556 119.664 314.651 119.569C314.746 119.474 314.875 119.421 315.01 119.421H326.063C326.198 119.421 326.327 119.474 326.422 119.569C326.517 119.664 326.571 119.794 326.571 119.928V127.855C326.571 127.986 326.52 128.113 326.429 128.207C326.339 128.302 326.215 128.358 326.084 128.363V128.363ZM315.538 127.348H325.576V120.436H315.538V127.348Z" fill="#D1D3D4"/>
<path d="M67.1267 39.0225H38.1383V68.0109H67.1267V39.0225Z" fill="white"/>
<path d="M67.1267 68.5183H38.1383C38.0045 68.5157 37.8769 68.4614 37.7823 68.3668C37.6877 68.2721 37.6334 68.1446 37.6308 68.0108V39.0224C37.6308 38.8878 37.6843 38.7587 37.7794 38.6635C37.8746 38.5684 38.0037 38.5149 38.1383 38.5149H67.1267C67.2613 38.5149 67.3904 38.5684 67.4856 38.6635C67.5807 38.7587 67.6342 38.8878 67.6342 39.0224V68.0108C67.6342 68.1454 67.5807 68.2745 67.4856 68.3696C67.3904 68.4648 67.2613 68.5183 67.1267 68.5183ZM38.6458 67.5033H66.6192V39.5299H38.6458V67.5033Z" fill="#D1D3D4"/>
<path d="M62.2141 45.965H43.467C43.3324 45.965 43.2034 45.9115 43.1082 45.8163C43.013 45.7211 42.9595 45.592 42.9595 45.4575C42.9595 45.3229 43.013 45.1938 43.1082 45.0986C43.2034 45.0034 43.3324 44.95 43.467 44.95H62.2141C62.3479 44.9525 62.4754 45.0068 62.5701 45.1015C62.6647 45.1961 62.719 45.3237 62.7216 45.4575C62.7216 45.592 62.6681 45.7211 62.5729 45.8163C62.4778 45.9115 62.3487 45.965 62.2141 45.965Z" fill="#D1D3D4"/>
<path d="M62.2141 51.2125H43.467C43.3324 51.2125 43.2034 51.159 43.1082 51.0639C43.013 50.9687 42.9595 50.8396 42.9595 50.705C42.9595 50.5704 43.013 50.4413 43.1082 50.3462C43.2034 50.251 43.3324 50.1975 43.467 50.1975H62.2141C62.3487 50.1975 62.4778 50.251 62.5729 50.3462C62.6681 50.4413 62.7216 50.5704 62.7216 50.705C62.719 50.8388 62.6647 50.9664 62.5701 51.061C62.4754 51.1556 62.3479 51.2099 62.2141 51.2125V51.2125Z" fill="#D1D3D4"/>
<path d="M62.2141 56.4398H43.467C43.3324 56.4398 43.2034 56.3863 43.1082 56.2912C43.013 56.196 42.9595 56.0669 42.9595 55.9323C42.9595 55.7977 43.013 55.6686 43.1082 55.5734C43.2034 55.4783 43.3324 55.4248 43.467 55.4248H62.2141C62.3479 55.4274 62.4754 55.4817 62.5701 55.5763C62.6647 55.6709 62.719 55.7985 62.7216 55.9323C62.7216 56.0669 62.6681 56.196 62.5729 56.2912C62.4778 56.3863 62.3487 56.4398 62.2141 56.4398Z" fill="#D1D3D4"/>
<path d="M56.7128 61.6773H43.5178C43.4511 61.68 43.3846 61.6696 43.322 61.6466C43.2594 61.6235 43.2019 61.5884 43.1529 61.5432C43.1039 61.4979 43.0642 61.4434 43.0363 61.3829C43.0083 61.3223 42.9926 61.2568 42.99 61.1901C42.99 61.0555 43.0435 60.9264 43.1386 60.8313C43.2338 60.7361 43.3629 60.6826 43.4975 60.6826H56.6925C56.8271 60.6826 56.9562 60.7361 57.0513 60.8313C57.1465 60.9264 57.2 61.0555 57.2 61.1901C57.195 61.3177 57.142 61.4388 57.0517 61.5291C56.9614 61.6194 56.8404 61.6723 56.7128 61.6773V61.6773Z" fill="#D1D3D4"/>
</svg>
