<svg width="27" height="23" viewBox="0 0 27 23" fill="none" xmlns="http://www.w3.org/2000/svg">
<path fill-rule="evenodd" clip-rule="evenodd" d="M0 1.5C0 0.671573 0.671574 0 1.5 0H25.5C26.3284 0 27 0.671573 27 1.5C27 2.32843 26.3284 3 25.5 3H1.5C0.671573 3 0 2.32843 0 1.5ZM0 11.5C0 10.6716 0.671574 10 1.5 10H25.5C26.3284 10 27 10.6716 27 11.5C27 12.3284 26.3284 13 25.5 13H1.5C0.671573 13 0 12.3284 0 11.5ZM27 21.5C27 20.6716 26.3284 20 25.5 20H1.5C0.671573 20 0 20.6716 0 21.5C0 22.3284 0.671574 23 1.5 23H25.5C26.3284 23 27 22.3284 27 21.5Z" fill="#AAB5BB"/>
</svg>
