<svg xmlns="http://www.w3.org/2000/svg" xmlns:xlink="http://www.w3.org/1999/xlink" viewBox="0 0 2912.26 2912.26"><defs><linearGradient id="linear-gradient" x1="1252.16" y1="2535.41" x2="1050.32" y2="2620.18" gradientUnits="userSpaceOnUse"><stop offset="0" stop-color="#40447e"/><stop offset="1" stop-color="#3c3b6b"/></linearGradient><linearGradient id="linear-gradient-2" x1="924.91" y1="1689.49" x2="718.72" y2="1776.09" xlink:href="#linear-gradient"/><linearGradient id="linear-gradient-3" x1="37.54" y1="1736.61" x2="1945.8" y2="1736.61" xlink:href="#linear-gradient"/><linearGradient id="linear-gradient-4" x1="1243.74" y1="1272.56" x2="-223.35" y2="3670.94" gradientUnits="userSpaceOnUse"><stop offset="0" stop-color="#ffc444"/><stop offset="1" stop-color="#f36f56"/></linearGradient><linearGradient id="linear-gradient-5" x1="37.54" y1="2446.41" x2="2912.26" y2="2446.41" xlink:href="#linear-gradient"/><linearGradient id="linear-gradient-6" x1="319.45" y1="2424.15" x2="2425.75" y2="2424.15" xlink:href="#linear-gradient"/><linearGradient id="linear-gradient-7" x1="1997.72" y1="-55.78" x2="674.33" y2="2590.99" gradientUnits="userSpaceOnUse"><stop offset="0" stop-color="#ff9085"/><stop offset="1" stop-color="#fb6fbb"/></linearGradient><linearGradient id="linear-gradient-8" x1="1401.01" y1="-156.87" x2="1674.42" y2="936.75" gradientUnits="userSpaceOnUse"><stop offset="0" stop-color="#ab316d"/><stop offset="1" stop-color="#792d3d"/></linearGradient><linearGradient id="linear-gradient-9" x1="836.59" y1="887.47" x2="2256.58" y2="887.47" xlink:href="#linear-gradient-7"/><linearGradient id="linear-gradient-10" x1="1643.76" y1="1366.68" x2="2724.68" y2="1366.68" gradientUnits="userSpaceOnUse"><stop offset="0" stop-color="#e38ddd"/><stop offset="1" stop-color="#9571f6"/></linearGradient><linearGradient id="linear-gradient-11" x1="2190.85" y1="605.2" x2="2083.45" y2="1575.98" xlink:href="#linear-gradient"/><linearGradient id="linear-gradient-12" x1="1736.66" y1="1373.1" x2="2640.54" y2="1373.1" xlink:href="#linear-gradient-10"/><linearGradient id="linear-gradient-13" x1="735.6" y1="594.4" x2="-161.12" y2="2387.85" gradientUnits="userSpaceOnUse"><stop offset="0" stop-color="#fb6fbb"/><stop offset="1" stop-color="#ff9085"/></linearGradient><linearGradient id="linear-gradient-14" x1="849.67" y1="1706.84" x2="411.65" y2="2542.66" gradientUnits="userSpaceOnUse"><stop offset="0" stop-color="#aa80f9"/><stop offset="1" stop-color="#6165d7"/></linearGradient><linearGradient id="linear-gradient-15" x1="543.56" y1="2335.71" x2="40.8" y2="2938.41" xlink:href="#linear-gradient-10"/></defs><g style="isolation:isolate"><g id="Layer_2" data-name="Layer 2"><g id="Illustration"><circle cx="1456.13" cy="1456.13" r="1456.13" fill="#f4f7fa"/><path d="M2912.26,2426.23,37.54,2402.56v70c0,19,12.54,35.16,29.52,38l812.88,137.87a118.29,118.29,0,0,0,29.17,1.29L2881,2492.58c17.61-1.4,31.24-17.61,31.24-37.13Z" fill="url(#linear-gradient)"/><path d="M1869,2312.73,67.26,2440.81c-32.24,2.29-58.45-22.06-58.45-54.4V1090.81a58.53,58.53,0,0,1,58.45-58.56H1869c26.56,0,48,23.7,48,52.94v1171.2C1917.07,2285.62,1895.6,2310.85,1869,2312.73Z" fill="url(#linear-gradient-2)"/><path d="M1897.77,2312.73,96,2440.81c-32.24,2.29-58.45-22.06-58.45-54.4V1090.81A58.53,58.53,0,0,1,96,1032.25H1897.77c26.56,0,48,23.7,48,52.94v1171.2C1945.8,2285.62,1924.33,2310.85,1897.77,2312.73Z" fill="url(#linear-gradient-3)"/><path d="M1841.63,2230.16,163.47,2341.41c-26.24,1.74-47.56-18.24-47.56-44.64V1162.46a47.94,47.94,0,0,1,47.56-48l1678.16-7c21.92-.09,39.64,19.33,39.64,43.37V2184C1881.27,2208,1863.55,2228.71,1841.63,2230.16Z" fill="url(#linear-gradient-4)"/><path d="M1060.51,1067.69c0,12-9.27,21.83-20.72,21.86s-20.77-9.71-20.77-21.78,9.3-21.85,20.77-21.86S1060.51,1055.65,1060.51,1067.69Z" fill="#fff"/><path d="M1463.66,1957.4c-138.9-75.18-248.12,20.08-353.52-73.91-63.9-57-32.53-99.46-111.16-184.61-87.09-94.31-143.79-62.61-231.31-147.48C657,1444.07,712.35,1360.57,617,1283.52c-115.65-93.48-240.36-7-350.44-96.6-47.48-38.67-73.54-94.88-87.14-154.67H71.74a34.29,34.29,0,0,0-34.2,34.37v1343c0,19,15.32,33.27,34.2,31.93L1908,2310.45c9-.65,17-5.94,22.13-13.61-134.42-4.93-217-50.26-269.79-97.11C1557.11,2108.06,1575,2017.66,1463.66,1957.4Z" fill="#fff" opacity="0.48" style="mix-blend-mode:soft-light"/><path d="M1969.58,2306.93l-1932,134.81,842.4,142.87a118.29,118.29,0,0,0,29.17,1.29l2003.15-159.67-912-118.39A154.78,154.78,0,0,0,1969.58,2306.93Z" fill="url(#linear-gradient-5)"/><polygon points="319.45 2445.13 1927.93 2331.22 2425.75 2395.32 831.12 2517.09 319.45 2445.13" opacity="0.3" fill="url(#linear-gradient-6)" style="mix-blend-mode:multiply"/><path d="M2269.26,311.43,822,262.17c-48.43-1.65-87.85,36.5-87.85,85.21V1403.6A85.68,85.68,0,0,0,822,1489.78l1447.22-33.28c41.95-1,75.83-38.29,75.83-83.37V395.64C2345.09,350.56,2311.21,312.86,2269.26,311.43Z" fill="url(#linear-gradient-7)"/><path d="M762.32,1381.4V369.89c0-45.08,36.44-80.43,81.21-79l1407,46.06c38.95,1.28,70.42,36.21,70.42,78v938.46c0,41.83-31.47,76.41-70.42,77.26l-1407,30.53A79.38,79.38,0,0,1,762.32,1381.4Z" fill="#fff" opacity="0.74" style="mix-blend-mode:soft-light"/><path d="M2269.26,311.43,822,262.17c-48.43-1.65-87.85,36.5-87.85,85.21v63.27l1610.9,43.54V395.64C2345.09,350.56,2311.21,312.86,2269.26,311.43Z" fill="url(#linear-gradient-8)"/><path d="M890.39,343.58a27.59,27.59,0,0,1-28.48,27.83,29.69,29.69,0,0,1-28.57-29.56A27.59,27.59,0,0,1,861.91,314,29.67,29.67,0,0,1,890.39,343.58Z" fill="#fff"/><path d="M989.86,346.6a27.4,27.4,0,0,1-28.23,27.7,29.47,29.47,0,0,1-28.3-29.42,27.39,27.39,0,0,1,28.3-27.7A29.48,29.48,0,0,1,989.86,346.6Z" fill="#fff"/><path d="M1088.4,349.59a27.21,27.21,0,0,1-28,27.58c-15.48-.45-28-13.56-28-29.28a27.2,27.2,0,0,1,28-27.58C1075.89,320.8,1088.4,333.91,1088.4,349.59Z" fill="#fff"/><polygon points="2256.58 1089.59 836.59 1096.29 836.59 678.65 2256.58 699.52 2256.58 1089.59" fill="url(#linear-gradient-9)"/><polygon points="2256.58 1188.09 836.59 1201.75 836.59 1156.9 2256.58 1146.2 2256.58 1188.09" fill="#fff"/><polygon points="2256.58 1290.84 836.59 1311.77 836.59 1266.92 2256.58 1248.95 2256.58 1290.84" fill="#fff"/><polygon points="1600.28 588.16 836.59 573.19 836.59 618.03 1600.28 631.41 1600.28 588.16" fill="#fff"/><polygon points="2175.55 599.43 2175.55 641.49 2256.58 642.91 2256.58 601.02 2175.55 599.43" fill="#fff"/><g opacity="0.5" style="mix-blend-mode:soft-light"><path d="M1706,852.47c-169.07-246-461.52-168.37-646.39-440a594.06,594.06,0,0,1-71.46-144.69L822,262.17c-48.43-1.65-87.85,36.5-87.85,85.21V1403.6A85.68,85.68,0,0,0,822,1489.78l1100.68-25.31a925.18,925.18,0,0,1-89.08-159.38C1735,1078.43,1808,1001,1706,852.47Z" fill="#fff"/></g><path d="M2652.59,562.17l-929.13-9.8c-43.94-.46-79.7,36.77-79.7,83.17V2102.29c0,46.39,35.76,81.54,79.7,78.51l929.13-64c39.88-2.75,72.09-40.6,72.09-84.56V642.52C2724.68,598.56,2692.47,562.59,2652.59,562.17Z" fill="url(#linear-gradient-10)"/><path d="M1669.28,2080V656.34c0-42.94,33-77.44,73.69-77.07l891.81,8.24c37,.34,66.94,33.68,66.94,74.46V2014.13c0,40.78-29.91,75.86-66.94,78.37L1743,2152.77C1702.33,2155.51,1669.28,2122.94,1669.28,2080Z" fill="#fff" opacity="0.74" style="mix-blend-mode:soft-light"/><path d="M2652.59,562.17l-929.13-9.8c-43.94-.46-79.7,36.77-79.7,83.17V695.8l1080.92,3.82v-57.1C2724.68,598.56,2692.47,562.59,2652.59,562.17Z" fill="url(#linear-gradient-11)"/><path d="M1785.5,628.37c0,15.08-11.57,27.24-25.86,27.16s-25.92-12.4-25.92-27.51,11.61-27.28,25.92-27.17S1785.5,613.29,1785.5,628.37Z" fill="#fff"/><path d="M1875.8,629c0,15-11.47,27.12-25.63,27s-25.69-12.34-25.69-27.39,11.51-27.16,25.69-27S1875.8,614,1875.8,629Z" fill="#fff"/><path d="M1965.31,629.6c0,14.95-11.37,27-25.4,26.93s-25.47-12.29-25.47-27.28,11.41-27,25.47-26.92S1965.31,614.66,1965.31,629.6Z" fill="#fff"/><polygon points="2640.54 1759.62 1736.66 1805.37 1736.66 948.79 2640.54 940.84 2640.54 1759.62" fill="url(#linear-gradient-12)"/><polygon points="2640.54 1855.66 1736.66 1905.83 1736.66 1863.11 2640.54 1814.82 2640.54 1855.66" fill="#fff"/><polygon points="2640.54 1955.84 1736.66 2010.63 1736.66 1967.91 2640.54 1915 2640.54 1955.84" fill="#fff"/><polygon points="2430.88 845.62 1736.66 848.32 1736.66 891.05 2430.88 886.89 2430.88 845.62" fill="#fff"/><polygon points="2563.53 845.1 2563.53 886.1 2640.54 885.64 2640.54 844.8 2563.53 845.1" fill="#fff"/><g opacity="0.15"><path d="M2408.45,1438.84c-149.4-196.69-336.83-202.32-441.21-412.79-75.55-152.36-64.84-325.84-31.3-471.44l-212.48-2.24c-43.94-.46-79.7,36.77-79.7,83.17V2102.29c0,46.39,35.76,81.54,79.7,78.51l835.38-57.54C2584.55,1751.81,2495.17,1553,2408.45,1438.84Z" fill="#fff"/></g><path d="M361,1860.32S31.21,1229.12,480.33,815.09l-98.25-30.41,322.81-53.8-124,238.6L550.5,886.1S220.8,1136.4,361,1860.32Z" fill="url(#linear-gradient-13)"/><path d="M501.48,2044.6s641.27,309.8,1041-152.12l33.49,97.24,43.61-324.34L1385,1796.8l84.29,27.77S1229.46,2162,501.48,2044.6Z" fill="#fff" opacity="0.69"/><path d="M364.71,2786.53c-51.08-4.05-116.43-18.25-179.15-59.25-67.86-44.37-156.25-135.55-133.18-193,8.62-21.45,33.41-39.82,55.21-38.07,32.21,2.59,36,47.32,91.88,96,10.33,9,63.76,55.48,90.33,39.81,13.2-7.78,17.11-29.36,15-45.77-6.3-48-64.88-55.34-121.19-107.28-57.09-52.65-104.68-144.5-77.47-206.6,15.63-35.69,57-63.87,84.16-55.95,11.62,3.38,19,12.88,54.25,89.07,28.95,62.54,35.39,80.77,54.05,86.7,19.21,6.1,49.08-1.56,60.43-20.48,29.56-49.29-98.21-122.07-109.82-260-5.2-61.82,11.53-153.44,67.51-173.08,37.84-13.28,91.75,7,111.24,41.72,17.58,31.3-3.77,54.84,9.63,125.15,4.07,21.34,12.44,65.24,30.11,67.55,20.73,2.7,43.94-53.28,49.3-66.91,40.37-102.65-5.92-155.43,32.15-205.26,29.68-38.85,94.27-54.45,145.44-34.83,44.78,17.17,80.6,61.83,83,108.11,2.43,47.09-37.17,94-116.38,187.72-37.56,44.46-67.45,74.5-65.75,118.69.83,21.54,9.37,51.84,24.8,54.61,34.06,6.11,50.82-131,131.53-152.2,41.31-10.84,92.65,10.47,115.21,47.7,27.64,45.63,9.12,110.3-25.61,144.3-45.3,44.37-91.76,10.65-177,58.31-37.82,21.14-97.25,66.11-88.55,103.3,3.79,16.2,20.76,32.05,39.39,34.17,41.75,4.74,55.54-63.69,122.66-93.76,48.36-21.67,115.23-19.33,131.12,7.94,22.42,38.5-57.22,125.92-99.57,164.54C718.19,2696.15,597.47,2784.69,364.71,2786.53Z" fill="url(#linear-gradient-14)"/><path d="M387.65,2764.6c-6.75-114.44,69.05-347.55,124.2-457.75,54-107.82,105.59-278.42,106.1-280.13l3.36,1c-.52,1.72-52.22,172.59-106.32,280.69-55,109.86-130.56,342.1-123.84,456Z" fill="#fff" opacity="0.5"/><path d="M244.32,2801.45c-38.47-53.4-94.89-149.75-105-278.65-4.17-53.12-12.32-156.86,51.15-246.34,31.63-44.61,98.71-110.57,144-91.54,29.16,12.24,47.27,58.81,39,94.23-8.29,35.71-38.47,39-71.34,99.61-12.16,22.43-26.06,48.75-15.38,63.62,8.91,12.42,33.4,14.68,51.76,7.23,37.93-15.39,26.08-62.61,67.09-96.48,29.15-24.08,77.76-35.41,98.73-15.68,18.21,17.13,15,57.14-1,83.82-25.77,42.71-72,30.18-102.1,76.87-13.36,20.71-22.86,52-11.17,64.37,13.33,14.1,52.55,1.91,77.69-13.67,33.19-20.58,34.41-42.47,56.27-45.21,24.38-3.06,54.86,20.16,59.63,45.84,6.67,36-37.46,74.78-72.41,91.64-44.75,21.58-78,8.91-99.85,38.39-8,10.83-15.36,28.49-8.79,39.21,9.39,15.29,43.3,10.24,65.82,6.89,54.8-8.16,69.89-28,89.53-18.38,19.88,9.78,30.13,42.8,21.53,66-4.77,12.88-19.13,32.82-90.26,45.3C439.45,2827.22,355.81,2833.37,244.32,2801.45Z" fill="url(#linear-gradient-15)"/></g></g></g></svg>