<svg id="Layer_1" data-name="Layer 1" xmlns="http://www.w3.org/2000/svg" viewBox="0 0 841.89 595.28"><path d="M402.2,312s-8.64,7.05-7.33,16.73-4,23.64-3.95,35.42-4.78,29.23-9.58,42.75-.87,34.47-12.21,44.06-12.22,15.27-20.51,21.38-20.07,6.11-29.66,20.5S301.51,512,295.84,515s-8.29,15.27-6.55,20.51S295,538.6,325.06,543s30.54,10.91,41.89,5.67,13.52-12.65,16.57-15.26,7-8.29,10.47-5.24,12.22,6.54,12.22,6.54,26.41,0,44.39-.87,3.07,5.59,26.67,5,31.6,7.68,36.11,2.88,1.46-18.32,15-10S562,545.14,569.8,543.84s9.5-9.6,13.48-13.53,11.39-10.9,2.23-16.14-14.4-6.79-17.89-13.87.88-8.81-6.54-23.65S536.65,457,534,435.21s-15.27-58.5-16.14-66.33,3.15-26.09-4.51-34.55-18.11-23.65-18.11-23.65Z" fill="#b9cbdb"/><path d="M585.51,514.17c-6.87-3.93-11.53-5.78-14.91-9.45a19,19,0,0,1-3-4.42,14.63,14.63,0,0,1-1.45-4.59c-.15-1-.19-2.06-.26-3.17,0-.74-.11-1.53-.22-2.39a27.84,27.84,0,0,0-1-4.54,54.59,54.59,0,0,0-3.66-9C553.66,461.82,536.65,457,534,435.21s-15.27-58.5-16.14-66.33,3.15-26.09-4.51-34.55c-3.38-3.73-10.2-28.65-13.53-33.12-.13,7.7-1.67-2.89-.14,19.29,0,.48,11,11.46,13.17,24.39s1.33,36.28,5,43.51,11.35,38.25,13.2,50.37,8.31,14.78,16.39,23.67c.61.67,1.17,1.36,1.7,2.06A16.28,16.28,0,0,0,550,466c7,10.53.87,5.23,3.2,13.08s1.74,2.91,6.7,16.71-5,8,0,17.32-2.92,9.6-4.67,14.25-14.25,4.66-21.81-2-15.71-6.11-19.16-2c-1.3,1.54-2.08,3.11-3.42,4.28-6.48,1.52-14.5,1.9-17.65-4.2-5.64-10.94-11.8-27-11.49-29.43s-6-22.88-6-22.88l-9.94,11.54-9.33,41.22L463,537.09H483.8c.06.61.14,1.21.24,1.76h0c11.89.58,19,3.35,23.6,4.11l.26,0c.36,0,.69.08,1,.11l.41,0a6.49,6.49,0,0,0,.77,0,3.15,3.15,0,0,0,.44,0,4.83,4.83,0,0,0,.66-.14c.13,0,.27-.06.39-.11a4.55,4.55,0,0,0,.63-.3c.1-.06.22-.1.32-.17a4.82,4.82,0,0,0,.83-.7v0c2.26-2.39,2.62-7,4.11-9.92a5.67,5.67,0,0,1,1.38-1.84c1.68-1.42,4.42-1.38,9.49,1.73a82.55,82.55,0,0,0,11.08,5.59c2.93,1.23,5.92,2.32,8.86,3.24,8.8,2.79,17.09,4.12,21.5,3.39a11.1,11.1,0,0,0,6.64-3.79c.28-.32.56-.65.82-1a61,61,0,0,0,3.34-5.16,18.76,18.76,0,0,1,2.68-3.59l1.19-1.19c.42-.41.85-.85,1.27-1.31a25.22,25.22,0,0,0,2.41-2.95,12.75,12.75,0,0,0,1.17-2.13,7.22,7.22,0,0,0,.56-2.19C590.05,518.34,588.94,516.13,585.51,514.17Z" fill="#dfeaf6"/><path d="M598.11,33s-23.92,57.68-60.63,81.92c0,0,8.22-28,8.75-45.06,0,0-86.17,146-145.55,184.4l8.31-55.1c-20.05,92.42-147.77,274.26-162.46,287.46,0,0,101.69-114.67,136.29-180,0,0-15.87,54.8-26.93,75.42,0,0,122.63-204.8,172.93-249.14,0,0-14.77,51-26.27,76C502.55,208.89,597.4,74.52,598.11,33Z" fill="#415779"/><path d="M386.29,519.55c-12.22-4.36-13.67,5-16.29,10.18s-19.78,7.56-24.43-7.85-1.75-7,2.33-27.9,13.66-15.73,18.32-21.54,11.63-11.35,14-20.94,1.16-14.55,1.74-27.88,2.33-10.22,4.66-19c1.18-4.46,1.16-11.69.86-17.75-1.73,6.88-3.91,13.85-6.1,20-4.8,13.53-.87,34.47-12.21,44.06s-12.22,15.27-20.51,21.38-20.07,6.11-29.66,20.5S301.51,512,295.84,515s-8.29,15.27-6.55,20.51S295,538.6,325.06,543s30.54,10.91,41.89,5.67,13.52-12.65,16.57-15.26,7-8.29,10.47-5.24c2.39,2.09,7.2,4.37,10,5.61a18.78,18.78,0,0,0-.84-4.88C402,526.53,398.5,523.91,386.29,519.55Z" fill="#dfeaf6"/><path d="M458.23,94.49a6.7,6.7,0,0,0-8.61-.65c-5,3.2-6.55-2.84-9.75,3s-3.78,9.31-9,11.35-12.58,8.58-12.87,14.11-2.62,5.23-6.11,7.85-4.94,4.07-5.53,7.27-7,7-7.56,8.14a43.71,43.71,0,0,0-1.45,6.11s-24.14,34-19.78,42.17,2.91,10.76,3.78,16.58,2,7.85,1.46,11.05,2.57.29,3.9,7.56,6.57,7,8.6,6.42,3.49,9.29,4.66,9.29a10.12,10.12,0,0,1,5.81,2.47c2.33,1.89,4.66,1.89,7,2.18s20.65,1.17,20.65,1.17l77.36-29.09,2.62-52.06s-12.21-9.3-12.5-15.12-6.69-8.14-6.69-11.92.58-6.4,0-7.86a20.4,20.4,0,0,1-1.46-8.14,22.26,22.26,0,0,0-2-9.6,69.46,69.46,0,0,1-4.95-10.47c-1.46-4.07-5.94-6-7.1-8.07s-9.57-3.27-9.57-3.27Z" fill="#dfeaf6"/><path d="M500.88,154.26c-.29-5.82-6.69-8.14-6.69-11.92s.58-6.4,0-7.86a20.4,20.4,0,0,1-1.46-8.14,22.26,22.26,0,0,0-2-9.6,70.7,70.7,0,0,1-3.93-7.88c.9,3.38,2,8.08,1.81,10.35-.29,3.78,3.12,6.26,1.56,9.89s-3.66,5.87-2,8.1,4.45,8.75,3.34,10.72-2.95,2.73-1.31,5.26S494.7,168,494.7,168l18.5,5,.18-3.59S501.17,160.08,500.88,154.26Z" fill="#b9cbdb"/><path d="M418,122.27c-.29,5.52-2.62,5.23-6.11,7.85s-4.94,4.07-5.53,7.27-7,7-7.56,8.14a43.71,43.71,0,0,0-1.45,6.11s-.65.92-1.71,2.47L408,157.22l17-4s-1.08-3.91-2.67-9.1-1.72-2.76-4.33-4,1.74-4,2.51-6.32-.62-4.26.17-6.31,1.24-5.37,1.65-9.66,3.81-3.42,6.14-6.91c.6-.9,1.18-1.73,1.71-2.47C425,110.76,418.27,117,418,122.27Z" fill="#b9cbdb"/><path d="M413.1,233.09c.48-1.94.82-3.41.82-3.62,0-.69-2.07-26.55-2.77-34.4s-3.46-11.55-3.46-11.55l-13.28-8.59c.28-4.78-2.46-9.39-4.48-12.09-6.69,10.69-15.1,25.88-12.37,31,4.36,8.15,2.91,10.76,3.78,16.58.07.46.14.86.21,1.27v0h0c.83,4.8,1.77,6.8,1.24,9.73-.59,3.2,2.57.29,3.9,7.56s6.57,7,8.6,6.42,3.49,9.29,4.66,9.29a10.12,10.12,0,0,1,5.81,2.47c2.33,1.89,4.66,1.89,7,2.18,1.54.2,10.07.64,15.67.92a9.58,9.58,0,0,0,1.56-2.23C430.18,246.88,421.26,236.44,413.1,233.09Z" fill="#b9cbdb"/><path d="M371,69.26A67.57,67.57,0,0,0,392,42.36s-1.32,13.09-3.72,18.54c0,0,14.4-17.89,23.34-30.76,0,0-16.29,32.38-32.25,49.89a34.9,34.9,0,0,0,5-13.81s.51.1-4.88,5.46Z" fill="#fbc56f"/><path d="M451.8,117.83l-12.44,7.64s-5,9.59-5,10.25-4.37,9.16-5,9.81-4.14,5.24-7.42,3.28-6.54-4.8-12.43-4.37-9.6,4.58-13.09.88-5-7.2-14-7.2-7.63-.22-7.63-.22l-41,14.18s6.54,6.54,5.45,11.12,2.18,10.91,4.37,11.35,16.57-.44,20.72,6.54,15.92,12.87,25.74,11.78,11.12-6.07,13.08.13-5.23,13.39-.87,29.32,11.56,24.21,15.93,33.37,16.57,8.94,16.57,8.94l29.67-26L491.93,216l10.25-26V165.6l-9.37-6.54-8.95-14.18-6.76-18.54-13.52-8.51Z" fill="#f19967"/><path d="M547.56,198.76s14.83,7.27,14,14.25,2.76,14.25,5.81,17.89,5.24,9.59,10.47,14,4.8,4.79,4.07,9.3,2.48,13.53,1,17.31-27.48-10.91-27.48-10.91l-13.53,6.54s-.29-12.07,2.62-15c0,0-5.82.29-7.85-2.33l-11.2-14.38-1-17.47,10.18-17.74Z" fill="#f19967"/><path d="M537.38,309.86a46.9,46.9,0,0,0-6.55,1.45c-1.89.73-5.81-2.18-7.71,1.46s0,7.56,1.31,8,3.49,9.31,1.89,12.22-8.28,11.92-1.89,13.38,11.06,1.6,13.67,0a42,42,0,0,1,11.06-4.07c3.05-.59,2.27-4.37,4.69-6.69s4-2.62,4-5.24a68.79,68.79,0,0,1,1-8.29Z" fill="#f19967"/><path d="M385.15,86.12a4.69,4.69,0,0,0-1.27-2.86,6,6,0,0,0-2.7-1.3c-.1,0-.17-.09-.26-.13-1.3,0-1.65-.77-1.51-1.8a5.81,5.81,0,0,1,.13-2.89c.27-1,1.15-2,1.28-3a3.46,3.46,0,0,0-1.3-2.5c-1.4-1.31-3.67-1.28-5.45-1.58A29.84,29.84,0,0,1,369,68.53c-1-.29-2-.61-2.91-.92a10,10,0,0,0-5.65-.15,7.21,7.21,0,0,0-3.9,3.61c-1.39,2.49-2.36,5.17-3.76,7.59-2.33,4.49-5,8.85-5,8.85v8.58l4.36,6s6.55,4.22,7.27,4.22,4.37-1,7-1.45-.14-2.47,3.35-4.07,6.69-1.17,9.45-3.49c2.22-1.87,2.77-3.76,4.63-6.53C384.51,89.23,385.3,87.75,385.15,86.12Z" fill="#f19967"/><path d="M508.29,544.27c-4.21-2.91-6-11.49-10.93-15-3.25-2.28-2-8.72-.89-13.72.14-1.87.34-3.75.6-5.6.17-1.18.38-2.36.64-3.52,1.62-9,8.38-33,13.05-40.41,5.53-8.73-4.65-29.67-9.59-39s5.81-25.59,10.47-35.19-4.08-44.37-4.08-44.37l-6.25,8.09S481,428.88,478.41,438.7s-3.71,39-2.84,45.66,4.51,16.72,4.8,18.9-1.45,7-5.81,12.66-1.6,8-.88,13.37.44,11.35,1.17,16.29,1,5.53.14,10.62,2.33,3.63,6.69,5,15.12-1.56,21.52-.4,9.45-.29,10.76-3.34S512.51,547.18,508.29,544.27Z" fill="#f19967"/><path d="M404,320.5s-11.78,60.18-5.67,72.39,12.21,19.63,5.67,27.49-13.53,18.75-13.09,36.21,17,44.06,15.9,59.76-4.12,14.4-4.56,22.69-7.41,7-5.67,16.14,35.77,7.42,38.83,0,2.62-14.4,0-17.89-10.91-46.24-10.91-46.24L421,435.21l-.44-56.28Z" fill="#f19967"/><path d="M378.51,165.24c-2.14-1.26-5-3.07-5.5-5.75a8.31,8.31,0,0,1,.85-4.43,24.88,24.88,0,0,0,1.53-4.45,19.94,19.94,0,0,0-.3-11.3,1.63,1.63,0,0,1,.13-1.31c-.42,0-.51-.06-.48-.08l-1.77.61a23,23,0,0,1,.95,13.48,19.58,19.58,0,0,1-2.6,5.83c-1.33,2-3.05,3.75-4.35,5.81-.29.44-.59,2.4.48,2.12a9.29,9.29,0,0,0,4.8-3.86,7.69,7.69,0,0,0,2.61,2.17,13.19,13.19,0,0,0,3.18,1.23,9.32,9.32,0,0,0,.92.17Z" fill="#d57940"/><path d="M392.24,142.33c5.48,6.56,9,14.6,12.93,22.14,3.5,6.75,7.35,13.43,12.76,18.87a1.5,1.5,0,0,0,.08,1.14,41.49,41.49,0,0,1,5,12.14c.58,2.11,1.09,4.24,1.65,6.36a35.73,35.73,0,0,0,1.89,6.33c2,4.17,6.8,5.31,10.87,6.62a62.35,62.35,0,0,0,7.13,1.89c2.18.43,5.2,1.22,7.36.48.58-.21.92-1.26.39-1.69-1.73-1.39-4.56-1.74-6.65-2.35s-4.4-1.28-6.58-2-4.57-1.58-6.78-2.55a7.46,7.46,0,0,1-4.28-4.11c-1.57-3.83-2.31-8-3.48-11.94a42.88,42.88,0,0,0-2.62-6.82,18.6,18.6,0,0,0,6.79,3.24c.48.11.74-.91.37-1.14a55.67,55.67,0,0,1-9-6.54,46.34,46.34,0,0,1-7.2-9c-4.39-6.94-7.32-14.65-11.27-21.82-.94-1.72-2-3.35-3.05-4.94a4.6,4.6,0,0,1-2.19-1.37,47.26,47.26,0,0,0-4.19-4.43A1.51,1.51,0,0,0,392.24,142.33Z" fill="#d57940"/><path d="M339.24,163.2c-1.09,4.58,2.18,10.91,4.37,11.35s16.57-.44,20.72,6.54,15.92,12.87,25.74,11.78,11.12-6.07,13.08.13c0,.09,0,.18.07.27a1,1,0,0,0,.08.14.25.25,0,0,1,0,.07c1.47,6.09-5.23,13.32-1,28.84,4.36,15.92,11.56,24.21,15.93,33.37a13.2,13.2,0,0,0,1.6,2.54c0-.12,0-.24,0-.35a17.67,17.67,0,0,0-.66-3.82c-.39-1.2-.84-2.38-1.32-3.54-1-2.34-2-4.64-3.05-7a129.09,129.09,0,0,1-5.53-14.72c-2.89-9.62-4.14-20-1.55-29.84.68-2.59,2.18-5.11,2.5-7.77a6.34,6.34,0,0,0-.68-3.8,10.43,10.43,0,0,0-2.58-2.76.72.72,0,0,0-1,0h-.12c-.79.29-1.59.53-2.39.78a.58.58,0,0,0-.21.07c-7.69,2.3-16,2.65-23.46-.63a24.9,24.9,0,0,1-5.32-3.18c-1.59-1.24-2.88-2.76-4.37-4.12a14.88,14.88,0,0,0-7.71-3.42,24.32,24.32,0,0,0-2.5-1c-3.23-1-6.43-1-9.77-1.2-2.77-.17-6.17-.75-7.62-3.45a11,11,0,0,1-.89-4.61,27.13,27.13,0,0,0-.62-5,14,14,0,0,0-4.87-7.68l-1.94.67a3.31,3.31,0,0,0-.12.42C335.27,153.64,340.2,159.18,339.24,163.2Z" fill="#d57940"/><path d="M494.7,160.38a3.73,3.73,0,0,0-.38,2c.22,1.69-.65,3.27-1.32,4.77a18.54,18.54,0,0,0-1.78,5.94,15.82,15.82,0,0,0,1.2,6.21,8.07,8.07,0,0,1-.17,6.25c-1.85,4.44-3.89,8.66-4.8,13.43a50,50,0,0,0-.43,7.92,13.27,13.27,0,0,1-.74,3.83c-.12.21-.26.41-.38.63a49.11,49.11,0,0,0-3.52,8,55.2,55.2,0,0,0,5.59-6.91,19.44,19.44,0,0,0,2.51-5.43,16,16,0,0,1,1-3.6,1.48,1.48,0,0,0,.08-.13,32.94,32.94,0,0,0,.33-4.65c0-6.26,1.46-12.34,2-18.55a39.89,39.89,0,0,1,4.85-16,2.2,2.2,0,0,1,.44-.54Z" fill="#d57940"/><path d="M553.78,259.67a21,21,0,0,0-4.34.34c-3.31.39-3.46-3.58-3.43-5.92a35.1,35.1,0,0,1,1.88-10.54,32,32,0,0,1,1.5-4c-3.08,1.51-4.61,4.87-5.59,8.17-.28-.11-.56-.21-.83-.33h0c-3.49-4.9-7.66-9.41-10.25-14.88a20.45,20.45,0,0,1-2.05-9.12,27.18,27.18,0,0,1,.74-8.66,15.68,15.68,0,0,0-3.45,7.83c-.3,0-.66.2-1.05.71a8.92,8.92,0,0,0-1.68,5.4c-.06.1-.1.2-.15.3l.38,6.47,11.2,14.38c2,2.62,7.85,2.33,7.85,2.33-2.26,2.25-2.58,10-2.62,13.38,0,.11,0,.22,0,.33a1.87,1.87,0,0,0,.31,1.1l13.18-6.38.28.16.76-.59A15.68,15.68,0,0,0,553.78,259.67Z" fill="#d57940"/><path d="M568,233.39c1,4.16,4.3,6.86,7.17,9.79,2.69,2.76,5.47,6.46,3.36,10.32-1.51,2.77-6.69,7.6-3.93,10.89a16,16,0,0,0,2.28,1.8,15.29,15.29,0,0,1,3.52,3.95,15.17,15.17,0,0,0,.87,1.94c.88.05,1.48-.13,1.66-.61,1.46-3.78-1.74-12.8-1-17.31s1.17-4.94-4.07-9.3c-4.83-4-7.07-9.4-9.78-13.07A2.9,2.9,0,0,0,568,233.39Z" fill="#d57940"/><path d="M374.74,137.92l.06,0Z" fill="#d57940"/><path d="M415.53,147.19a37.36,37.36,0,0,1,4,4.81c1.12,1.54,2.39,3,3.51,4.5a29.77,29.77,0,0,1,5.05,10.27c1.05,4.24.3,8.51.23,12.81a30.59,30.59,0,0,0,2.11,12.67,19.22,19.22,0,0,0,5.21,7.15,42,42,0,0,0,2.87,3.63,45.82,45.82,0,0,0,9.59,8.2c1.71,1.08,3.83,1.91,5.21,3.43a6.42,6.42,0,0,1,1.29,4.71c-.1,3.8-.8,7.86,1.51,11.2a12.08,12.08,0,0,1,1.83,2.73c.41,1.23.3,2.6.67,3.86a10.88,10.88,0,0,0,2.72,4.28l3.13-2.74a49.32,49.32,0,0,1-4.72-12.26c-.56-2.22-1-4.48-1.41-6.73-.36-2-.32-4.7-1.53-6.35a.76.76,0,0,0-.09-.09,6.92,6.92,0,0,0-.39-.88,10.59,10.59,0,0,0-4.42-3.91,46.3,46.3,0,0,1-9.9-7.54c-.44-.45-.84-.93-1.25-1.39a2.76,2.76,0,0,0-.48-2.18c-5.83-6.06-7.4-14.89-6.88-23,.15-2.38.66-4.76.63-7.15a12.56,12.56,0,0,0-2-6.57,97.4,97.4,0,0,0-8-11.37,3.29,3.29,0,0,1-2-.46l-1.06-.67,0,0-.32-.26a25.54,25.54,0,0,0-5-2.68A1.94,1.94,0,0,0,415.53,147.19Z" fill="#d57940"/><path d="M467.92,124.22c-2.06-1.88-2-5.78-5.13-6.6a2.91,2.91,0,0,0-1.79.11s0-.06,0-.09a1.07,1.07,0,0,0-1.75-.58,3.09,3.09,0,0,0-1,2.7,4.15,4.15,0,0,1,0,.71c-1.41-.18-2.76-1-4.23-.85-2.11.13-3.91,1.85-5.54,3l-5.64,4c-1.67,1.2-3.37,2.35-3.89,4.47a4.82,4.82,0,0,0,0,2.74,3,3,0,0,0,.59,1,2.24,2.24,0,0,0,.44.43l.21.14c-.26.8-.73,1.55-.92,2.38a7.63,7.63,0,0,0-.09,3,7.4,7.4,0,0,0,2.67,4.33,10,10,0,0,1,1.69,1.63,4.68,4.68,0,0,1,.65,2c.29,1.65.74,3.6,2.54,4.19a4.2,4.2,0,0,0,2.68-.23,5.66,5.66,0,0,1,3.15-.33,1.4,1.4,0,0,0,1.37-.77l.3,0c.48-.1.56-.81.38-1.17-.06-.12-.12-.24-.17-.36,0-.5-.07-1.38-.58-1.67a3.94,3.94,0,0,0-2.81-.43c-.88.18-1.85.83-2.77.8-1.51-.07-1.32-2.44-1.62-3.51-.53-1.88-1.89-3-3.28-4.24a3.49,3.49,0,0,1-1.42-2.25,6.16,6.16,0,0,1,.76-2.11,6.24,6.24,0,0,0,.44-3,8.17,8.17,0,0,0-1-2.16l.28-.21c.59-.45,1.21-.87,1.81-1.3l2.94-2.1,2.93-2.11a9.86,9.86,0,0,1,3-1.84,5.84,5.84,0,0,1,3,.47,6.85,6.85,0,0,0,2.88.32,1.59,1.59,0,0,0,1-.77,1.21,1.21,0,0,0,.18,0,2.73,2.73,0,0,0,1.15-2.1c.06,0,.12-.06.18-.06a1.62,1.62,0,0,1,1.06.32,4.42,4.42,0,0,1,1.34,1.82,11.17,11.17,0,0,0,2.48,3.86C467.76,129,469.1,125.31,467.92,124.22Z" fill="#d57940"/><path d="M477.86,135.84a2.14,2.14,0,0,0-1.52-.67,8,8,0,0,0-3.43.24,2.47,2.47,0,0,0-1.53,2.15c-.1.77,0,1.94.91,2.19s.8.94.76,1.59c0,.22-.1,1.37-.13,2.31l-.19.29-.58.78-.31.41-.15.08a4.85,4.85,0,0,0-2,2.72l0,0a8.61,8.61,0,0,1-.67.68l-.09.09-.1.05-.38.22c-1,.52-2.47.28-3.67.09a1.42,1.42,0,0,0-1.38.77l-.37-.14c-.94-.4-1.71,1.19-1.87,1.85a2,2,0,0,0,.87,2.48,45.37,45.37,0,0,0,4.7,1.7c1.42.43,3,1.09,4.23-.11a5.85,5.85,0,0,0,1.49-4.09c0-.62-.05-1.23-.1-1.84v-.06c.2-.27.41-.54.62-.8l.05,0a5.73,5.73,0,0,0,1.47-1,5.25,5.25,0,0,0,1.39-3.83,8.84,8.84,0,0,0,.3-1.63,10.5,10.5,0,0,0,0-2.8,1.51,1.51,0,0,0,1.34-.39,2.91,2.91,0,0,0,.58-.89c0-.07.12-.43.17-.66A2.35,2.35,0,0,0,477.86,135.84Z" fill="#d57940"/><path d="M478.26,137.68l0,.23C478.34,137.34,478.32,137.43,478.26,137.68Z" fill="#d57940"/><path d="M469.52,159.76a7.68,7.68,0,0,0-5-1.87,7.32,7.32,0,0,0-2.66.48c-.81.31-1.88,1.14-2.78.92a13.18,13.18,0,0,1-1.21-.55,4.4,4.4,0,0,0-1.57-.19,7.19,7.19,0,0,1-3-.23,9.27,9.27,0,0,0-2.9-.79,7.47,7.47,0,0,0-3.09.6c-1.61.66-1.68,5,.52,4.06a4.55,4.55,0,0,1,2.58-.22c1,.2,1.81.78,2.78.95a24.27,24.27,0,0,0,2.83,0l.1,0a2.65,2.65,0,0,0,.1,1.34c.67,1.92,2.11,1.18,3.63,1s3,.29,4.53.13a14.11,14.11,0,0,0,4.57-1.58A2.77,2.77,0,0,0,469.52,159.76Z" fill="#d57940"/><path d="M553.73,321.05c-1.94-1.41-3.69-3.13-5.49-4.71s-2.85,2.79-2.07,3.92a25.37,25.37,0,0,1,3.63,10.84c.18,1.58.33,3.95-.89,5.19a14.06,14.06,0,0,1-2.24,1.57l-1.35.91-.22.06a1.79,1.79,0,0,0-1.11.84l-.23.16a58.49,58.49,0,0,1-5.27,3.41,18.45,18.45,0,0,1-5.72,1.76,16,16,0,0,1-5.65,0c-1.16-.24-3.2-.83-3.83-2.06.12-.29.25-.58.36-.86a20.28,20.28,0,0,1,1.94-3.46,23,23,0,0,0,3.64-7.41,10.44,10.44,0,0,0-1.06-7.45,8.06,8.06,0,0,0-2.39-2.7c-.29-.19-1.42-.55-2.12-.93a2.05,2.05,0,0,0,.77.62c1.31.44,3.49,9.31,1.89,12.22s-8.28,11.92-1.89,13.38,11.06,1.6,13.67,0a42,42,0,0,1,11-4.07,3.13,3.13,0,0,0,1-.35l.07,0c1.88-1.17,1.58-4.28,3.68-6.3,2.43-2.33,4-2.62,4-5.24a55.48,55.48,0,0,1,.82-7.1,15.6,15.6,0,0,0-2.05-.74A9.23,9.23,0,0,1,553.73,321.05Z" fill="#d57940"/><path d="M487.79,140.88c-3.06-3.63-4.36-7.42-7-11.2s1.19-3.49-3.62-7.27-15.58-9-15.58-9l-3.3-1.17s-5.28,3.06-8.77,5.6a57.26,57.26,0,0,1-11.63,5.75c-.44,0-6.25,3.63-6,4.94a14.55,14.55,0,0,1-2.91,9.74c-2.76,3.35-9.74,7.71-7.13,10.55s6.55,3.41,7.13,8.94,7.85,1.89,4.8,11.2-.58,8.43-1.31,15.27-1.89,11.77,2.18,11.63,3.2-5.09,6,3.78,6,2.91,9,8.72,7.27,6.55,8,10.48-2.1,3,.62,6-.91,4.8,1.41,7.56,1.31,8.29,6.55,5.53,6.83-.59,6.83-5.24,1-1.86,4.09-4.48,2.45-5.41,4.78-7.15,3.49-3.06,3.2-6.55.29-3.92,3.2-8.43,2.76-6.11,2.47-11.49,3.06-9.89,2.91-12.94-.14-.5-.87-7.08,1.6-9.21,2.32-12.55S490.84,144.52,487.79,140.88Zm-12.22-2.76a10.1,10.1,0,0,1-1.31,6.83c-1.45,2.77-3.2,2.62-3.49,4.51s-2.32,3.2-3.63,4.36-2,3.49-1,6.84-1.74,2.32-4.65,3.78-4.36-1.46-6.26-2-2.9.15-4.61,0-4.4-.87-4.26-3.05,1-7.13,1-7.13-2.62-1-2.15-4.65-2.5-2.47-4-4.36-2.61-2.62-1.13-5.09,2.3-3.35.84-5-1.16-3.49,1.89-5.81a47.5,47.5,0,0,1,6.55-4.2c1.74-1,3.2-3.66,4.07-2.2s2,1.74,4.65,2.18,1.31-8.14,1.31-8.14l2.76,4.8a5,5,0,0,0,2,2.47c1.6,1,.87.87,2,4.07s5.23,1.45,5.23,2.62,2.76.72,4.95,2.47S475.28,135.79,475.57,138.12Z" fill="#dfeaf6"/><path d="M550.44,200.34s.39-6.16-3.1-9.11-2.84-10.14-9-13.41-10-5.24-15-10-8.53-2.61-13.21-1.09-10.34-5.21-11.22-1.84-.51,29.33-3.64,33.91-2.16,5.89-4.86,13.3-30.32,25.52-38.4,33.38-22,20.94-22,20.94,52.57,18.1,63.48,8.72,6.76-7.85,12.87-12.87,12.45-12.65,15.39-20.72,5.33-8.94,6.86-17,5.67-18.76,8.94-21.16S550.44,200.34,550.44,200.34Z" fill="#dfeaf6"/><path d="M540.31,270.74s-1.63-2.47,5.5-7.13,17.16-5.67,27.78,0,10.76,11.93,6.83,13.38c0,0,3.2,5.67-1.16,7.27,0,0,1.89,6.26-3.35,8,0,0,1.46,4.07-3.63,5.53,0,0,1.31,4.8-3.2,6,0,0,.14,6.54-4.07,6.11,0,0-1.85,4.8-3.55,4.51,0,0,.93,3.34-1.54,4.07,0,0,2.78,4.94-1.3,5.3,0,0-19.94-4.87-21.53-15.34,0,0,0-3.49,3.22-3.49,0,0-2.93-2.16,1.14-4.86,0,0-2.62-2.26.73-4.88a6.41,6.41,0,0,1-.59-6.54s-2.18-4.66-.29-6.4c0,0-1.16-1.74.73-4.43C542,277.8,536.75,276.48,540.31,270.74Z" fill="#dfeaf6"/><path d="M374.8,137.9S358.66,162.33,333,152.08c0,0-3.28-4.91,0-5.83,0,0-2.51-5.3.32-6.71,0,0-2.07-4.8,1.75-5.57,0,0-3.38-2.72.87-5,0,0-2.62-5.13.55-6.87,0,0-2-4.8,1.09-5.89,0,0-.88-4.37,2.18-6.22,0,0-1.2-3.6,2-4.69,0,0-2.4-2.51,1.64-4.58,0,0-2.95-11.78,4.36-13.2,0,0,1,13.2,10.25,15.71a29.42,29.42,0,0,0,11-.66s4.69,4.15.54,6.11c0,0,3.27,7.09-.11,7.31,0,0,2.62,5.23-.54,5.67,0,0,4.47,5.23,1.74,6.65,0,0,5.89,5,2.29,6.55C372.94,134.85,377.52,135.72,374.8,137.9Z" fill="#dfeaf6"/><path d="M444.24,154s3.34-4.38,4.65-3.6,2.69-.63,4.36-.1,2,1.71,3.35,1.73.94-1.81,4-.85,4.59.18,5.68,1.74,3.78,2.87,4.29,4.26-1.09,7-3.49,5.3-1.6-2.34-3.49-4.34-2.33-2.61-3.49-2.53-1.51,1-2.87.44-2.66.84-4,.32-3.06-.76-3.85.64,0,5.41-1.57,5.93-2.87,2.11-5.27,1S444.24,154,444.24,154Z" fill="#b9cbdb"/><path d="M465.81,131a1.73,1.73,0,0,0-.94.19,6.57,6.57,0,0,0-.93.44,13.25,13.25,0,0,0-1.72,1.25c-.55.47-1.06,1-1.57,1.46s-1.24,1.39-1.89.75c-.26-.25-.57.52-.32.76.57.53,1.33.15,1.82-.29s1.11-1.1,1.66-1.65a11,11,0,0,1,1.76-1.5,7.64,7.64,0,0,1,1-.56,6.86,6.86,0,0,0,1.09-.43C465.89,131.31,466,131,465.81,131Z" fill="#824c24"/><path d="M455.78,134.18l-.22,0h-.12a.79.79,0,0,1-.22-.06l-.09,0s0,0,0,0a2.16,2.16,0,0,1-.35-.24l-.08-.08,0,0-.06-.06,0,0-.05-.06a2.26,2.26,0,0,1-.25-.38h0l0,0a.61.61,0,0,0-.05-.12,1.8,1.8,0,0,0-.08-.21c-.06-.14-.11-.28-.16-.42s-.07-.32-.18-.37-.12,0-.15.08a1.23,1.23,0,0,0-.07.57c0,.21,0,.42,0,.63a3.09,3.09,0,0,0,.38,1.18,1.67,1.67,0,0,0,1.76.85.68.68,0,0,0,.43-.67C456.15,134.5,456.07,134.11,455.78,134.18Z" fill="#824c24"/><path d="M462.33,147.69c-.1,0-.19.07-.24.13s-.11.35-.19.54a2.05,2.05,0,0,1-.29.47,1.49,1.49,0,0,1-1,.49c-.49.05-1-.09-1.49,0a5.74,5.74,0,0,0-1.35.43,1.79,1.79,0,0,1-1.3-.18c-.57-.24-1.13-.49-1.7-.71a6.44,6.44,0,0,1-1.32-.64,2.05,2.05,0,0,1-.44-.39.49.49,0,0,1-.06-.14h0l0,0a.9.9,0,0,0-.07-.95c-.22-.23-.52-.07-.66.17a3.08,3.08,0,0,0,.86,4.11,11.47,11.47,0,0,0,2.07,1,3.8,3.8,0,0,0,2.3.45,4.23,4.23,0,0,0,1-.42,5.5,5.5,0,0,1,.81-.47c.35-.11.73-.08,1.09-.18a2.7,2.7,0,0,0,.87-.46,3.25,3.25,0,0,0,1.2-1.6C462.6,148.86,462.77,147.89,462.33,147.69Z" fill="#824c24"/><path d="M461.05,157.37c-.84.39-1.72,1-2.67.6-.36-.15-.66-.4-1-.55a2.68,2.68,0,0,0-1-.25c-.68,0-1.33.47-2,.39s-1-.88-1.68-1.09c-.42-.13-.68.9-.24,1a2.54,2.54,0,0,1,.86.67,1.45,1.45,0,0,0,.87.41,5.32,5.32,0,0,0,2.16-.59,1.6,1.6,0,0,1,.6-.18,1.8,1.8,0,0,1,.56.16,6.5,6.5,0,0,0,1.17.47,3.29,3.29,0,0,0,2.41-.78C461.17,157.6,461.22,157.29,461.05,157.37Z" fill="#824c24"/><path d="M458,159.68a1.19,1.19,0,0,0-.45-.11l-.9-.06c-.63,0-1.25-.06-1.88-.06-.09,0-.2.13-.24.19a.74.74,0,0,0-.12.38c0,.22.06.44.3.44.62,0,1.23,0,1.84.07l.89.07c.35,0,.77-.08.79-.5A.44.44,0,0,0,458,159.68Z" fill="#824c24"/><path d="M461.43,140.29s.16.64,1.38.78,1.64-.48,3.46-.39,3,.24,3.87-.39a3.58,3.58,0,0,0,1.54-1.67,4.2,4.2,0,0,0,.15-1.42l-9.32,1.15Z" fill="#fff"/><path d="M450.7,139.92l1.52-.52-5.69-5.4-2.42-.51a6,6,0,0,0-.8,1.68,10.57,10.57,0,0,0,.19,1.76l1.95,1,1.9.74,2.24.57,1,.58Z" fill="#fff"/><path d="M478.19,133.05c-.82,0-1.65,0-2.47,0-.28,0-.65,0-1,0,.23-.47.31-1.22-.2-1.26a7.2,7.2,0,0,0-5.47,1.84,1.89,1.89,0,0,1,0-.47c.06-.34-.16-1.1-.61-.63-.8.84-1.62,1.68-2.43,2.51a9.18,9.18,0,0,0-2.26,1.6c-.88.88-2.07,2.18-3.27,1-.29-.27-.66.15-.79.37a1.24,1.24,0,0,0,0,1.17c.83,1.58,2.57,1.12,3.87.55.69-.3,1.39-.55,2.09-.8l0,.19a1.51,1.51,0,0,0,0,.52s0,0,0,0a.32.32,0,0,0,0,.09,1.45,1.45,0,0,0,.09.22c0,.09.07.19.12.28a5,5,0,0,0-3,.42c-.32.17-.31,1.08.11.84a4.91,4.91,0,0,1,2.83-.43,11.34,11.34,0,0,0,2.73-.07,4.73,4.73,0,0,0,2.16-1,3.36,3.36,0,0,0,1.26-2c0-.28-.25-.48-.41-.2s-.29.71-.51,1a3.74,3.74,0,0,1-.82.91,3.1,3.1,0,0,1-1.37.59,3.1,3.1,0,0,0,.8-1.34,2.6,2.6,0,0,0,0-1.3c2.93-.6,6.53-.66,8.58-3.12C478.72,134.25,479,133.07,478.19,133.05Z" fill="#824c24"/><path d="M455.28,137.39c-.31-.42-.76-.18-1,.17-.1.14-.76-.27-.86-.35a4.18,4.18,0,0,1-.81-1,17.51,17.51,0,0,1-1.21-2.41,13.78,13.78,0,0,0-2.75-4.54c-.27-.27-.69,0-.87.24a1.68,1.68,0,0,0-.25.5,6.45,6.45,0,0,1-2-1.24c-.81-.76-1.67-1.48-2.86-1.26-.47.09-.8.71-.88,1.3a7.86,7.86,0,0,0-2,0c-.79.1-1.35,2-.55,2.39,1.46.68,2.88,1.4,4.31,2.15.74.38,1.49.73,2.22,1.12a2.09,2.09,0,0,0-.7.91,2.47,2.47,0,0,0,.09,2.06,5,5,0,0,1-1-.65,1.46,1.46,0,0,1-.55-1.17c0-.47.23-.88.28-1.34,0-.11-.09-.23-.19-.13a3,3,0,0,0-.64,1.27,2.13,2.13,0,0,0,.07,1.47,3.67,3.67,0,0,0,2.1,1.61,9.67,9.67,0,0,0,1.29.41c.46.1.91.15,1.37.22a7.61,7.61,0,0,1,2.74,1c.22.13.39-.38.2-.49a8.62,8.62,0,0,0-2.19-.92l-.49-.17.21-.08a2.15,2.15,0,0,0,1.06-.91,10.32,10.32,0,0,0,1,.91,6,6,0,0,0,2.05,1.2,1,1,0,0,0,.16.12,1.91,1.91,0,0,0,2.62-.87A1.45,1.45,0,0,0,455.28,137.39Z" fill="#824c24"/><path d="M485.17,162.26c-2.76,4.65-3.05,3.49-2.79,5.69s-.55,4.05-2.67,7.48-2.1,3.26-1,8.06,1.5,3.63,0,7.12-3,1.46-3.45,4.8.87,3.06,0,6.55-5.09,3.78-6.91,2.79,1.1-8-10.06-9.92-2.37.58-5.71,2.33-1.31.87-7.39-3.68.26-5.34-2.48-8.39-3.8-1.31-7.29-6.83-.29-2.91,2.62-5.68,2.9-4.65,2.9-8.69-6.1-2.51-6.4-5.48-1.74-1.82-4.58-3.82-2.69-4-3.12-5.11-4.95-.67-4.95-.67c2.62,2.83,6.55,3.41,7.13,8.94s7.85,1.89,4.8,11.2-.58,8.43-1.31,15.27-1.89,11.77,2.18,11.63,3.2-5.09,6,3.78,6,2.91,9,8.72,7.27,6.55,8,10.48-2.1,3,.62,6-.91,4.8,1.41,7.56,1.31,8.29,6.55,5.53,6.83-.59,6.83-5.24,1-1.86,4.09-4.48,2.45-5.41,4.78-7.15,3.49-3.06,3.2-6.55.29-3.92,3.2-8.43,2.76-6.11,2.47-11.49,3.06-9.89,2.91-12.94-.14-.5-.87-7.08,1.6-9.21,2.32-12.55c.41-1.87-1-7.1-2.86-12a40.86,40.86,0,0,1-1.56,5.86C488.86,160.74,487.93,157.6,485.17,162.26Z" fill="#b9cbdb"/><path d="M443.8,153.24s3.78-3.56,5.09-2.91,2.69-.52,4.36-.08,2,1.43,3.35,1.45.94-1.51,4-.71,4.59.14,5.68,1.45,3.78,2.4,4.29,3.56-1.09,5.89-3.49,4.44-1.6-2-3.49-3.64-2.33-2.18-3.49-2.1-1.51.87-2.87.36-2.81-.07-4.19-.51a3.33,3.33,0,0,0-3.7,1.31c-.8,1.16-.44,3.56-2,4s-1.16,4.14-3.56,3.2S443.8,153.24,443.8,153.24Z" fill="#dfeaf6"/><path d="M495.42,412.52s0,13.53-5,18.11Z" fill="#d57940"/><path d="M391,447.9c-.09,0-.12.21,0,.21S391.05,447.9,391,447.9Z" fill="#d57940"/><path d="M476.56,560.16c1.24.39,3,.41,5.12,1.09,4.36,1.42,15.12-1.56,21.52-.4s9.45-.29,10.76-3.34-1.45-10.33-5.67-13.24-6-11.49-10.93-15c-3.25-2.28-2-8.72-.89-13.72.14-1.87.34-3.75.6-5.6.18-1.25.4-2.49.68-3.71.4-2.18,1.08-5.16,2-8.59.29-1.24.62-2.46,1-3.69,2.83-10.4,6.93-23,10.08-27.94,5.53-8.73-4.65-29.67-9.59-39s5.81-25.59,10.47-35.19-4.08-44.37-4.08-44.37l-.95,1.24c2.6,11.15,4.49,22.69,3.45,34.15a51,51,0,0,1-4.26,16.59c-2.45,5.36-6.28,10.11-7.53,16a20.75,20.75,0,0,0-.3,6.32,48.44,48.44,0,0,0,.34,6.38c0,1.11,0,2.23,0,3.37.33,5.88,1.27,11.69,1.4,17.59a114.27,114.27,0,0,1-1,17.73c-2.15,15.77-7.66,32.26-6.5,48.29a27.74,27.74,0,0,0,2.16,11.53c.15.47.32,1,.49,1.43a24,24,0,0,0,1.9,5.83,36.36,36.36,0,0,0,5,7.48l.1.14a15,15,0,0,1,3.45,6.92,2.81,2.81,0,0,1,0,.29c0,.15.09.3.12.45.23,1.13.17,1.74-.76,2.34a8,8,0,0,1-5.05,3.14,30.79,30.79,0,0,1-10.36,0,24.2,24.2,0,0,1-8.23-2.23,10.93,10.93,0,0,1-5.2-5.34,13.44,13.44,0,0,1-1-5,11.12,11.12,0,0,1,.52-4.49.74.74,0,0,0-.4-.08,1.17,1.17,0,0,0-.68.38,74.17,74.17,0,0,0,.57,7.6c.73,4.95,1,5.53.14,10.62a5.88,5.88,0,0,0,0,2.36,2,2,0,0,0,1.61,1.6Z" fill="#d57940"/><path d="M509.66,356.89s-31.08,79.58-29.11,105.73l-8.4-13.26s3.55-22.78,4.41-24,30.05-76.6,30.05-76.6Z" fill="#d57940"/><path d="M427.79,548.34c-5.7,3-14.9,6-20.8,1.78-3.36-2.43-2.58-6.19-1.38-9.63a81.6,81.6,0,0,0,3.62-13.4,75.79,75.79,0,0,0-.51-27.36c-3.51-17.79-12-35.1-10.6-53.6a41.21,41.21,0,0,1,3.1-12.74c1.63-3.91,3.61-7.68,4.92-11.72a28.32,28.32,0,0,0,1.16-12.92A73.4,73.4,0,0,0,403.8,396a77.93,77.93,0,0,1-4.08-27.14,164.45,164.45,0,0,1,3.56-27.59c.46-2.33.94-4.65,1.35-7,.13-.72.15-2-.78-2.25s-1.51,1-1.69,1.68c-.44,1.69-.82,3.41-1.21,5.12-.07.21-.14.42-.22.63-2.94,18.74-6.24,45.69-2.37,53.42,6.1,12.22,12.21,19.63,5.67,27.49-.71.84-1.42,1.74-2.13,2.66a1.57,1.57,0,0,1-.09.23l-.31.35,0,0a50.31,50.31,0,0,0-10.54,33c.44,17.46,17,44.07,15.9,59.77s-4.12,14.4-4.56,22.69-7.41,7-5.67,16.14c.44,2.31,2.93,3.92,6.45,4.93,0-.14.05-.28.07-.43l.15.48c6.44,1.78,16.18,1.58,23.31-.11a16.42,16.42,0,0,0,4.26-1.33,12.43,12.43,0,0,0,2.08-1,3,3,0,0,0,.89-.6,4.85,4.85,0,0,0,1.62-1.92A26.84,26.84,0,0,0,437.56,545C434.21,543.92,430.58,546.88,427.79,548.34Z" fill="#d57940"/><path d="M428.93,553.48s-5.83-.07-6.61-16.23-1.24-21.24-4.93-33.94-5.31-35.56,0-47.1,16.43,95.36,16.43,95.36Z" fill="#d57940"/><path d="M417.13,253.57s-7.29,2.77-4.09,7.14-1,6.69-.81,10.47-3.55,3.2-3.55,11.05-2.62,11.8-4.36,17.82-2.91,18.24-2.91,22,1.76,67.77,7.86,82.31,6.76,44.21,5,61.66,9.85,43.62,9.85,55.84-1.69,27.34,18.64,28.5a128.92,128.92,0,0,1,21.5,2.86,9.48,9.48,0,0,0,11.23-6.51c1.68-5.6,3.1-12.91,1.73-19-2.63-11.77-8.86-18.37-5-29.66s4.38-52.53,7.18-62.72,28.53-73.72,28.23-87.81-2.9-30.95-5.38-39.68-6.83-13.67-3.63-20.65,2.33-6.24,2-9.37a19.81,19.81,0,0,0-2.54-6.82S427,267.37,417.13,253.57Z" fill="#dfeaf6"/><path d="M504.58,190.66c-.61,2.89-1.57,5.66-2.21,8.52-.22.95.49,1.92,1.27.94,1.73-2.17,2.67-5.27,3.38-7.91a65,65,0,0,0,1.6-9.11c.68-5.49,1-11.15,2.07-16.6l-.56.19a4.76,4.76,0,0,1-1.76.22,128.11,128.11,0,0,0-2.45,15.29C505.58,185,505.16,187.87,504.58,190.66Z" fill="#b9cbdb"/><path d="M483.18,247.28c-.24.34-.1,1.38.44.88A138,138,0,0,0,496,234.47a174.11,174.11,0,0,0,10.94-14.57,120.07,120.07,0,0,0,15.5-33,85.39,85.39,0,0,0,3-17.28c-.6-.52-1.22-1.08-1.85-1.68-2.26,23.43-14.12,44.44-27.72,63.14C491.76,236.61,487.22,241.75,483.18,247.28Z" fill="#b9cbdb"/><path d="M542.6,182.77c-2.17,2.12-2.55,5.89-2.71,8.79a6.86,6.86,0,0,1-.5,2.73,15.35,15.35,0,0,1-1.66,2.35c-.7.89-1.49,1.7-2.21,2.58a17,17,0,0,0-2.06,2.79c-2.43,3.85-3.76,8.25-5.23,12.52-1.69,4.89-3.45,9.75-5.52,14.49-3.84,8.76-8.84,17.09-16.05,23.5a42.56,42.56,0,0,1-10.94,7.12,38.75,38.75,0,0,1-14.29,3c-6.11.26-12.21.21-18.31.62a118,118,0,0,0-18.53,2.57c-1.69.39-2.4,4.41-.24,4.34,9.27-.28,18.57-.58,27.81.35,7.86.79,16.12,3.57,24,2.13,7.41-6.68,4.61-5.91,10.12-10.44,6.11-5,12.45-12.65,15.39-20.72s5.33-8.94,6.86-17,5.67-18.76,8.94-21.16,12.92-3,12.92-3,.39-6.16-3.1-9.11c-2.33-2-2.82-5.81-4.7-9.13a4.61,4.61,0,0,1,0,.51A.88.88,0,0,1,542.6,182.77Z" fill="#b9cbdb"/><path d="M529.71,173.88c.54.89.3,2.11.23,3.1a28.08,28.08,0,0,1-.4,3.19,35.59,35.59,0,0,1-1.84,6.49c-.8,2.1-1.68,4.18-2.61,6.23a43.35,43.35,0,0,0-2.7,6.32c-.16.58.28,1.7,1,1,1.72-1.76,2.93-4.3,4.1-6.44a44.55,44.55,0,0,0,3.26-7.43,35.75,35.75,0,0,0,1.76-7.76,21.53,21.53,0,0,0,.1-4c-1-.6-2-1.22-3-1.87A1.67,1.67,0,0,0,529.71,173.88Z" fill="#b9cbdb"/><path d="M498.55,287.17c3.2-7,2.33-6.24,2-9.37a19.81,19.81,0,0,0-2.54-6.82s-71-3.61-80.92-17.41c0,0-7.29,2.77-4.09,7.14s-1,6.69-.81,10.47c.13,2.12-1,2.87-2,4.51,13.09,5.85,51.48,21.67,89.08,24.05C497.58,295.36,496.48,291.69,498.55,287.17Z" fill="#5681a4"/><polygon points="415.24 259.72 423.95 263.67 424.02 263.7 424 263.78 421.55 275.37 421.39 275.12 430.07 277.51 429.7 277.72 431.31 271.53 431.54 271.92 426.74 270.74 426.41 270.66 426.5 270.32 427.9 265.08 427.99 264.75 428.33 264.83 441.87 268.37 442.26 268.48 442.15 268.87 439.03 280.13 438.73 279.59 448.77 282.5 448.16 282.88 449.02 277.72 449.36 278.27 444.12 276.69 443.64 276.54 443.77 276.06 445.5 269.73 445.63 269.23 446.13 269.34 458.43 272.03 458.99 272.15 458.88 272.71 456.1 286.55 455.66 285.9 467.05 288.12 466.45 288.54 467.68 281.67 468.1 282.24 463.09 281.68 462.59 281.62 462.68 281.13 463.98 274.1 464.06 273.66 464.5 273.74 478.8 276.27 479.18 276.33 479.13 276.7 477.33 290.85 477.01 290.46 489.22 291.27 488.9 291.57 488.95 284.7 489.18 284.95 484.17 284.35 483.97 284.33 483.99 284.14 484.6 277.17 484.62 277.03 484.75 277.05 497.71 278.81 484.72 277.3 484.87 277.19 484.39 284.17 484.21 283.95 489.23 284.45 489.45 284.47 489.46 284.7 489.51 291.57 489.51 291.89 489.19 291.87 476.97 291.15 476.6 291.13 476.65 290.76 478.34 276.61 478.67 277.04 464.35 274.61 464.86 274.25 463.6 281.29 463.19 280.74 468.21 281.27 468.72 281.33 468.64 281.84 467.46 288.71 467.37 289.22 466.86 289.13 455.46 286.99 454.91 286.88 455.02 286.34 457.74 272.48 458.18 273.16 445.9 270.39 446.54 270.01 444.77 276.33 444.42 275.7 449.65 277.32 450.07 277.45 450 277.88 449.11 283.04 449.01 283.57 448.5 283.41 438.48 280.44 438.05 280.31 438.17 279.89 441.38 268.65 441.66 269.15 428.15 265.52 428.58 265.27 427.15 270.5 426.9 270.09 431.7 271.3 432.01 271.38 431.93 271.69 430.27 277.88 430.19 278.17 429.9 278.08 421.28 275.52 421.08 275.47 421.13 275.27 423.82 263.74 423.87 263.85 415.24 259.72" fill="#fbc56f"/><path d="M575,267.58c5.45,13.85-5.34,16.68-4.91,23.23S563,298.33,561.62,304s-.86,7.42-5.17,8.4-3.11-.65-9,0c-3.45.39-7.34-1.17-10-2.53,3.13,9.45,21.15,13.87,21.15,13.87,4.08-.36,1.3-5.3,1.3-5.3,2.47-.73,1.54-4.07,1.54-4.07,1.7.29,3.55-4.51,3.55-4.51,4.21.43,4.07-6.11,4.07-6.11,4.51-1.16,3.2-6,3.2-6,5.09-1.46,3.63-5.53,3.63-5.53,5.24-1.74,3.35-8,3.35-8,4.36-1.6,1.16-7.27,1.16-7.27,3.93-1.45,3.78-7.7-6.83-13.38-.75-.4-1.5-.75-2.24-1.09A12.06,12.06,0,0,1,575,267.58Z" fill="#b9cbdb"/><path d="M345.86,150.15c-8.87.25-3.35-3.89-5.82-5.78s-.14-8.87,1.64-11.53-2.32-8.53,0-14.46,5.08-9.51,10.43-12.11,15-.43,16.35-2.18a2.25,2.25,0,0,0,.6-1.49l0,0a29.42,29.42,0,0,1-11,.66c-9.27-2.51-10.25-15.71-10.25-15.71-7.31,1.42-4.36,13.2-4.36,13.2-4,2.07-1.64,4.58-1.64,4.58-3.16,1.09-2,4.69-2,4.69-3.06,1.85-2.18,6.22-2.18,6.22-3.06,1.09-1.09,5.89-1.09,5.89-3.17,1.74-.55,6.87-.55,6.87-4.25,2.29-.87,5-.87,5-3.82.77-1.75,5.57-1.75,5.57-2.83,1.41-.32,6.71-.32,6.71-3.28.92,0,5.83,0,5.83,22.15,8.86,37.21-8.18,40.88-13-3.56,2.25-9.14,5.79-10.31,6.58C361.86,146.87,354.73,149.9,345.86,150.15Z" fill="#b9cbdb"/><path d="M363.43,80.93s-9.81,11.6-20,19.78c0,0-.88-11.67-3.49-26.5,0,0-31.56,98.86-96.12,143,0,0,42.46-24,71.69-69,0,0,1.74,9.28,4.21,18.59a89.7,89.7,0,0,1,15.85-47.41s-1.74,16.58.22,21.53c0,0,1.63-32.85,30.26-51.51l1-3.83L370,83.84l.38-1.78V80Z" fill="#fbc56f"/><path d="M313.39,146.15c-13.29,20.44-29.31,36.55-42.84,48a171.3,171.3,0,0,1-26.77,23s41.23-23.36,70.4-67.08C313.68,147.68,313.39,146.15,313.39,146.15Z" fill="#dfb065"/><path d="M341.31,98.68c.59-.47,1.18-1,1.76-1.45-.44-4.53-1.41-13-3.17-23,0,0-.39,1.21-1.17,3.43C340.64,89.78,341.31,98.68,341.31,98.68Z" fill="#dfb065"/><path d="M333,123.23c.21-3.37.48-5.9.48-5.9a90.94,90.94,0,0,0-15.55,42.29c.53,2.27,1.13,4.71,1.77,7.15A89.78,89.78,0,0,1,333,123.23Z" fill="#dfb065"/><path d="M368.19,80.31l-.32,1.5-2.95,1.71-1,3.83c-20,13-26.79,32.9-29.1,43.76-.05,3.92.13,7.79.92,9.78,0,0,1.63-32.85,30.26-51.51l1-3.83L370,83.84l.38-1.78V80Z" fill="#dfb065"/><path d="M385.14,86.72a4,4,0,0,0,0-.6,4.69,4.69,0,0,0-1.27-2.86,6,6,0,0,0-2.7-1.3c-2.08-.73-2.14-3-1.64-4.82.27-1,1.15-2,1.28-3a3.46,3.46,0,0,0-1.3-2.5c-1.4-1.31-3.67-1.28-5.45-1.58a45,45,0,0,1-6.29-2c-2.32-.74-5-1.46-7.38-.66a7.21,7.21,0,0,0-3.9,3.61c-.65,1.16-1.2,2.36-1.75,3.56.59-.62,1.18-1.25,1.8-1.84.82-.78,1.5-1.68,2.32-2.46a3.27,3.27,0,0,1,1.07-.7,1.72,1.72,0,0,0,.43,0c.18,0,.37-.12.56-.19a6.16,6.16,0,0,1,1.39.07c.85.14,1.69.33,2.53.5a16.83,16.83,0,0,0,1.78.82c2.76,1,5.64,1.79,8.48,2.58,2.08,1.29,3.27,3,1.75,5.24a1.66,1.66,0,0,0-.16,1.29,21,21,0,0,0-1.14,4.3,10.1,10.1,0,0,1-.31,1.72l-.07.11a6,6,0,0,1-2.24,1.78,7.47,7.47,0,0,1-2.91.57,3.73,3.73,0,0,1-1.41-.19c-.41-.15-.93-.56-.95-1a.64.64,0,0,0-.19-.52c.11-.1.22-.18.31-.25a5.47,5.47,0,0,1,3-.89c.93,0,1.31-1.8,1-2.44a2.88,2.88,0,0,1,.39-3.45c.41-.39.81-2.56-.28-2.22a29.08,29.08,0,0,1-5.31,1.08c-.85.1-1.7.17-2.56.25a6.74,6.74,0,0,0-2.72.45,1.05,1.05,0,0,0-.45.87,4.08,4.08,0,0,1-1,2.06,8.53,8.53,0,0,1-1.55,1.57c-.27.23-.17,1,.24.69a10.89,10.89,0,0,0,1.81-1.78c.4-.5.68-1.25,1.11-1.75a6.83,6.83,0,0,0,2,.11c.95,0,1.91-.05,2.86-.13a29.91,29.91,0,0,0,3.27-.46,5.72,5.72,0,0,0-.32,2.59,6.43,6.43,0,0,0-2.55,2c-.93,1.16-1.66,3.12-.68,4.48.85,1.17,2.63,1.07,3.9,1a8.22,8.22,0,0,0,2.77-.54,19.29,19.29,0,0,0-1,2.61c-.77,1.94-1.6,3.9-3.39,5.11A16.25,16.25,0,0,1,362,99.84c-.3,0-.39.78,0,.73a17.18,17.18,0,0,0,8.78-3.6,9.43,9.43,0,0,0,2.48-3.55c.23-.56.44-1.87,1.11-2,.36,0,.62.31.9.46l.21.13a7.2,7.2,0,0,0,.55,1.42c.27.54.7-.14.8-.65h.06a14.18,14.18,0,0,1-.13-2.15,4.57,4.57,0,0,1,1-2.06,7.74,7.74,0,0,0,1.41-3.82h.06c.27.17,1.05,0,1.43,0a9.52,9.52,0,0,1,2.46.6A4.56,4.56,0,0,1,385.14,86.72Z" fill="#d57940"/><path d="M476.56,513.1s4.17,4.95,19.91,2.47c0,0,3.43-20.7,7-31l-27.94-1.92a.39.39,0,0,0-.42.48c.73,3.22,4.69,20.79,4.25,24C479,509.61,476.56,513.1,476.56,513.1Z" fill="#fbc56f"/><path d="M495.42,360.17c-7.63,7-6.47,9.31-11.7,26.47s-9.46,23.06-15,37,6.62,31.54,3.42,42.3,4.5,59.76-2.82,68.77-41.32-.21-45.8-18.42c-.17-.7.37,9.92.61,15,.47,9.49,3.3,18.25,18.59,19.13a123,123,0,0,1,23.37,3.31,7.27,7.27,0,0,0,8.68-4.79c1.93-5.77,10-15.32,8.49-22.27-2.64-11.78-5.51-19.52-1.7-30.8s-5-50.33-2.24-60.52,28.53-73.72,28.23-87.81-2.9-30.95-5.38-39.68a65.27,65.27,0,0,0-2.33-6.61c.15,3.69.46,9.51,1.07,17.39C502,333.12,503.06,353.19,495.42,360.17Z" fill="#b9cbdb"/><rect width="841.89" height="595.28" fill="none" stroke="#fff" stroke-miterlimit="10"/></svg>