<svg id="Layer_1" data-name="Layer 1" xmlns="http://www.w3.org/2000/svg" viewBox="0 0 841.89 595.28"><path d="M547.26,313.42a46.43,46.43,0,0,0-5.18.7,30.67,30.67,0,0,0-39.23-7.89A45.78,45.78,0,0,0,474.63,299a43.91,43.91,0,0,0-5.18.69,30.77,30.77,0,0,0-54.93,21.2c.05.74.16,1.46.27,2.19a17.15,17.15,0,0,0-8.31,8.09,29.68,29.68,0,0,0-32.23-4.31,30.1,30.1,0,0,0-22.06,3.05,45.55,45.55,0,0,0-33.4-6.53,30.77,30.77,0,0,0-54.93,21.2c.05.74.16,1.46.27,2.19a17.15,17.15,0,0,0-8.31,8.09,29.8,29.8,0,1,0-17.27,52.31,29.1,29.1,0,0,0,6.91-1.37A35.7,35.7,0,0,0,299.08,420a29.37,29.37,0,0,0,19,.26,35.78,35.78,0,0,0,62.67,4.65,46,46,0,0,0,61.82-24.56,36.21,36.21,0,0,0,7.16-4.05,29.58,29.58,0,0,0,12.1,1.64,30.13,30.13,0,0,0,6.91-1.37,35.78,35.78,0,0,0,62.67,4.64,46,46,0,1,0,15.84-87.76Z" fill="#f2f4f9"/><path d="M580.12,324a46.54,46.54,0,0,1,1.14,7.15,46,46,0,0,1-65.11,45.2,35.78,35.78,0,0,1-62.67-4.65,29.37,29.37,0,0,1-19-.26,36.46,36.46,0,0,1-7.16,4,46,46,0,0,1-61.82,24.56,35.78,35.78,0,0,1-62.67-4.65,29.2,29.2,0,0,1-6.91,1.37,29.72,29.72,0,0,1-12.1-1.63A35.7,35.7,0,0,1,230.19,381a29.57,29.57,0,0,1-23.56-2.32c0,.31,0,.62,0,.94a29.8,29.8,0,0,0,31.9,27.55,29.1,29.1,0,0,0,6.91-1.37A35.7,35.7,0,0,0,299.08,420a29.37,29.37,0,0,0,19,.26,35.78,35.78,0,0,0,62.67,4.65,46,46,0,0,0,61.82-24.56,36.21,36.21,0,0,0,7.16-4.05,29.58,29.58,0,0,0,12.1,1.64,30.13,30.13,0,0,0,6.91-1.37,35.78,35.78,0,0,0,62.67,4.64A46,46,0,0,0,580.12,324Z" fill="#dbdbdf"/><path d="M307.42,372.57a29.76,29.76,0,0,1,54.44,3,29.79,29.79,0,1,0-57.52,7.84A29.77,29.77,0,0,1,307.42,372.57Z" fill="#dbdbdf"/><path d="M280.66,358.26A17,17,0,0,1,311.78,360a17,17,0,1,0-32.87,4.49A16.94,16.94,0,0,1,280.66,358.26Z" fill="#dbdbdf"/><path d="M506.19,333.29a23.67,23.67,0,0,1,36.73,23.06,23.69,23.69,0,1,0-43-16.73A23.55,23.55,0,0,1,506.19,333.29Z" fill="#dbdbdf"/><path d="M513,296.09s11.81,8,11.81,28.77-15.23,49.87-1.79,71.05,7,82.14-15,88.58-19.87,26.31-9.13,33.29-18.17,34.61-18.17,34.61L466.07,485l8.28-95,10-73.55Z" fill="#b9cbdb"/><path d="M374.62,281.9l-6.94-1L327.15,324.5l-4.3,17.18,5.1,10.6L353.32,366l4.47,24.93-2.68,31,.71,19.15,9.67,31.31,20.4,14.32,22.73,12.71,27.74,17.81,12.44,11.63,3.13,9s.8,11.27.8,11.54,6.72,7.79,6.72,7.79l13.24,4.11,11.63,1.7-16-45.63V491.47l-5.49-70.42,1.07-34.17-3.61-46.81-48.47-27.53Z" fill="#dfeaf6"/><path d="M477.33,561.86l7,1-16-45.63V491.47l-5.49-70.42,1.07-34.17L460.61,344a56.57,56.57,0,0,0-14.23,4.8c-5.57,2.62-10.8,4.87-15.81,6.88a49.79,49.79,0,0,1,5.51,8.41l2.19,3.83c.23.5.47,1,.68,1.49a96.56,96.56,0,0,1,4.25,11.65,74.13,74.13,0,0,1,1.88,8.16,61.71,61.71,0,0,0-4.4-8.84,41.19,41.19,0,0,0-6.39-8.29,20.43,20.43,0,0,0-1.59-1.4,21.44,21.44,0,0,0-7.72-5.46l-.08,0a18.27,18.27,0,0,0-5.62-2c-.63-.09-1.22-.1-1.83-.15-1-.17-1.95-.3-2.93-.39a18,18,0,0,0-4.07.05l-2,.59a4.56,4.56,0,0,0-.85.51c5.79,3,10.59,7.76,14.69,12.84.47.8.93,1.6,1.37,2.42a116.68,116.68,0,0,1,5.47,12c1.42,3.54,2.85,7.1,4,10.73-1.05-1.44-2-3-2.91-4.42q-2.4-3.61-5.06-7a98,98,0,0,0-11.31-11.92c-3.44-3.16-7.38-6.95-12-8.09l-1.06-.25a38.68,38.68,0,0,1,9.55,11,113.76,113.76,0,0,1,8.42,17.3c5.87,14.76,8.49,31.06,9.53,46.86,0,.33-.55.64-.63.22-1.56-8.67-2.89-17.33-5.13-25.87a144.09,144.09,0,0,0-7.78-22.4,108.31,108.31,0,0,0-8.5-16.35c-3.22-4.77-7.34-9.08-12.73-11.32a31.53,31.53,0,0,0-6.44-1.64,105.63,105.63,0,0,1-12,.93,30,30,0,0,1,2.58,6.36c.36,1.22.64,2.46.94,3.7.21,1.44.42,2.87.53,4.31.09,1.17.12,2.34.14,3.52a1,1,0,0,1-.24.08c-.68-1.57-1.4-3.13-2.22-4.64a43.66,43.66,0,0,0-4.15-6.3c-.09-.13-.16-.26-.25-.39a28.37,28.37,0,0,0-4-4.5c-.88-.81-1.76-1.61-2.6-2.43a59.66,59.66,0,0,1-6-.88c-1.69-4.76-5-8.7-10.81-11.33-17.33-7.82-23.71-11.16-24.12-16.94a10.16,10.16,0,0,1,.35-1.47c.19-2.88,1.61-6,2.64-8.33,1.52-3.43,3.48-6.95,6.47-9.25,11.23-15.1,29.67-35.94,33.72-38.63l6.54.08-.56-.4,27,3.63c12.74-67.65-43.63-61.75-43.63-61.75s-16.11,14.14,5.18,16.07,2.19,40.8,2.19,40.8h0c-5.35,4.2-19.3,16.52-26.84,24-8.81,8.76-28.68,15.7-20.09,28.43s-10.73,25.61,2.69,27.76,25-7,31,20.4-6.69,92.35,23,107.92,49.69,17.65,66.86,33.82a39.06,39.06,0,0,1,4.89,5.42c.69,2.19,1.28,4.41,2,6.61,1.68,5.22-4.29,9.84,2.69,17.75,10.2,11.57,36,11.08,36,11.08A70.05,70.05,0,0,1,477.33,561.86Z" fill="#b9cbdb"/><path d="M341,362s17,1.15,15.91,53.4,17.54,70.52,34,74.81,56.94,20.9,60.87,30.85-4.32,29.28,23.6,33.94l8.91,7.87s-15.33,1.79-26.88-5.55-12.1-9.52-10.59-16.1,3.87-13.25-10.27-22.73S395.44,498.92,388,496.27s-26.4-6.41-31.23-31.46-3.6-55.92-4.48-70.34S349.65,367.84,341,362Z" fill="#fbc56f"/><path d="M481.72,555.46s.85-3.05,8-11.77,11.63-13.79,11.43-21.46-8-4.56-9.05-16.45,5.63-16.72,14.09-19.81,16.24-7.92,22.15-32.88,4.29-30.53,4.29-30.53l-6.17,4.49s-2.7,30.06-9.18,39.91-10.24,10.91-16.5,12.88-17.9,9.49-15.57,27,9.66,10.73,8.94,17-15.39,20-15.39,20Z" fill="#fbc56f"/><path d="M339.45,229.74l-8.05,3.31s-5.55,5.63-3.14,10.38,13.07,5.72,13.07,5.72Z" fill="#b9cbdb"/><path d="M455.59,41.55s-4,3-5.09-1.61-20.4-12.08-22.28-4.83-4.69,4.83-12.14,8.59-14.17,9.13-10.41,14,1.88,2.86-1.61,9.84,6.71,19.15,5.1,26.67-10.74,9.13-9.94,18.52,4.3,20.54,7.79,21.95,37.58,13.22,38.92,27.18,6.45,66.84,17.72,70.87,25.5,11.54,24.7,22.55-6.18,20.94,14,19.06,25.23,15.3,18,17.72c0,0,11.09-2.15,3.13-13.16s-20.31-6.44-23-18.52,3.76-13.42-5.37-29.8a21.9,21.9,0,0,1,15,15.3c3.49,12.62,20.14,7,19.06-3.22,0,0-1.34,6.54-5.1,5.69s-10.2-1.39-7.25-11.59,5-21.21-.62-22.82c0,0,8.14,3.22,20-4.3s23.89,9.67,9.94,20.94-6.72,54.23,12.08,41.07,14.49-41.87,33.82-18,28.72-7.79,28.72-7.79-7.24,13.69-16.91,4.3-4.29-26.85-21.47-33.56c0,0,14.76.81,23.89,10.74s30.33-17.18,30.33-17.18-12.61,14-18.25,3.49-17.18-13.42-13.42-44.56-36.78-35.3-57.18-34.43-24-7.64-17.54-16.27-14.32-16.07-21.48,0-31.5,16.5-34.72,0c-2.38-12.22,8.23-32.79,4.15-45.11-1.31-4-3-4.41-1-6.2,4.43-4.09.09-17.81-4.92-21.75S455.59,41.55,455.59,41.55Z" fill="#fde0be"/><path d="M500.54,260.72c-11.41-.79-7.55-8.94-6.89-17.86.74-10.24-12.48-17.22-23-21S455.46,169,454.21,156s-32.94-24-36.18-25.27-6.49-11.67-7.24-20.4,7.74-10.23,9.24-17.22-8-18.3-4.75-24.79,5-4.66,1.5-9.15,2.75-9.49,9.68-13,9.54-1.25,11.28-8C438.47,35.4,442,35,446,35.77c-6.13-3.46-16.43-5.86-17.77-.66-1.88,7.25-4.69,4.83-12.14,8.59s-14.17,9.13-10.41,14,1.88,2.86-1.61,9.84,6.71,19.15,5.1,26.67-10.74,9.13-9.94,18.52,4.3,20.54,7.79,21.95,37.58,13.22,38.92,27.18,6.45,66.84,17.72,70.87,25.5,11.54,24.7,22.55-6.18,20.94,14,19.06,25.23,15.3,18,17.72c0,0,11.09-2.15,3.13-13.16S503.41,272.29,500.54,260.72Z" fill="#e9cfb1"/><path d="M551.59,214.8c5.2-9.74-4.22-20.29-13.52-14.37-11,7-18.55,4-18.55,4,3.14.9,3.7,5,3.06,10.09a29.5,29.5,0,0,0,13.55-4.91C542.73,205.4,549.41,208.92,551.59,214.8Z" fill="#e9cfb1"/><path d="M618.52,214c-5.51,4.29-11.53,7-15.32,2.91-8.48-9.23-22.21-10-22.21-10,6.72,2.62,9.72,7,11.62,11.88a33.1,33.1,0,0,1,13.59,8.52c9.13,9.93,30.33-17.18,30.33-17.18S624.26,223.68,618.52,214Z" fill="#e9cfb1"/><path d="M524.05,248.31c-3.52-.8-9.38-1.33-7.7-9.76a9.81,9.81,0,0,1-2.49-4.43,20.33,20.33,0,0,0-14-14.22c4.62,8.3,4.94,12.44,4.68,16.32a21.47,21.47,0,0,1,5.52,9.62c3.49,12.62,20.14,7,19.06-3.22C529.15,242.62,527.81,249.16,524.05,248.31Z" fill="#e9cfb1"/><path d="M603.78,250.14c-.17-.17-.31-.36-.47-.53-3.67.28-8.11-1.79-13.33-8.25-18-22.21-14,4.49-31.45,16.72-11.08,7.76-17.84-5.49-18-18.88-5.45,16.26,2.18,43.2,17.6,32.41,18.79-13.15,14.49-41.87,33.82-18s28.72-7.79,28.72-7.79S613.45,259.53,603.78,250.14Z" fill="#e9cfb1"/><path d="M378.73,299.8l16.47-9.66s14.36-7.92,28.63-6.8c25.4,2,50.83,41.16,68.37,56.91s14.31,25.05,5.37,46.89S478.42,458.46,478.15,481s6.17,26.85,4.56,42.15,8.06,31.41,7,37.85-17.18-.8-22.55-3.76S458,540.87,458,531.47s-2.95-9.66-9.39-22.55,6.44-15,10.62-16.91,4.32-32.21-3.55-58.7-2.15-49.39,2.5-56.55-6.44-20.76-28.94-31.6S385.17,324.5,378.73,299.8Z" fill="#f19967"/><path d="M460.63,501.89c1,1.79,2.93,4.43,5.32,3.79a1.83,1.83,0,0,0,1.44-1.52c.06-1-.79-1.94-1.35-2.72a16.13,16.13,0,0,1-1.69-2.58,20.3,20.3,0,0,1-1.84-6.51c-.37-3.31-.33-6.61-.63-9.87-.38,5.39-1.3,8.93-2.64,9.53-.26.12-.55.23-.87.35a25.26,25.26,0,0,0,.24,3A18.37,18.37,0,0,0,460.63,501.89Z" fill="#d57940"/><path d="M451.81,406.72a41.69,41.69,0,0,1,19.58,14,46.63,46.63,0,0,1,6.48,11.08,56,56,0,0,1,2.18,6.56l.09.38c0,.23.11.45.15.67-.26,5-.72,10-1.45,14.92-1,7-2.48,13.9-3.1,20.93a86.77,86.77,0,0,0,.54,19.79,77.25,77.25,0,0,0,5.4,19.34.92.92,0,0,0,1.13.55c-.84-9.59-4.88-16-4.66-34,.23-19.1,7.58-57.53,15.27-82.1-14.33-.45-30.37-6.28-39.44-11.26A80.88,80.88,0,0,0,451.81,406.72Z" fill="#d57940"/><path d="M488.29,552.69c-5.51.34-11.3-1.94-15.59-5.25a23.93,23.93,0,0,1-7-8.49,34.62,34.62,0,0,1-2.92-8.49v0c-.6-1.9-1.24-3.78-1.82-5.68-.25-.82-.65-1.59-.88-2.37-.15-.3-.25-.6-.41-.9-1.45-2.59-3.29-4.93-4.88-7.44a36.72,36.72,0,0,1-4.49-9.65,18.06,18.06,0,0,1-.27-8.13c-3,2.38-4.68,6.14-1.42,12.65,6.44,12.89,9.39,13.16,9.39,22.55s3.76,22.82,9.13,25.77,21.48,10.2,22.55,3.76C490,559,489.34,556.16,488.29,552.69Z" fill="#d57940"/><path d="M557.7,449.42C552,421.14,541.14,398.22,523,380s-21.12-40.81-26.13-63.71-32.94-58.62-41.26-66.13-9.92-8.32-9.92-8.32,5.63-14.23,12.34-23.36,16.65-11.54,15-20.13-5.1-10.2-.81-15.57,22.28-18.53,12.62-32.48-21.21-6.72-26.31-20.94,2.95-22,1.61-36.24-31.67,14.67-31.67,14.67,3.4,12.71-4.12,14.86-12.35,2.86-21.12,6.44-19.15-1.79-27.56,10.56-7.87,19.24-10.56,26.75-7.25,12.89-15,30.07-13.42,20.13-11.55,28.19-3.49,19.32,1.88,40,11.55,30,10.12,36.51-.54,11.9-.81,12.08-6.44,6.63-7.34,11.37-1.88,4-1.07,5.55,5.64-3.67,7.34-6.27,5.63-6.53,7.6-3.13,7.7,19.33,12,19.87c0,0,4.3,2.23,5.1.62,0,0,3.76,2.33,4.48-2.15a56.31,56.31,0,0,0,.53-9.39s3.23.09,3.32-4.12,2.23-13.33-1.26-17.72-14.85-11.9-15.57-17.27-.53-32.12-1.34-50.91-4.83-18.52,1.88-26.31,15.57-21.74,19.33-32.21a132.69,132.69,0,0,1,6.17,27.38c1.61,14.76,4.83,23.89,1.34,30.33S371.61,272,378.05,296.73a39.45,39.45,0,0,1,26.27-15.45,51.16,51.16,0,0,1,31.58,5.58l51.29,98.49s12.17,6.08,14,16.1,24,32.93,37.58,54.77,16.46,34.72,11.45,44.38-.36,19.33-4.29,25.77-8.59,23.63-4.3,25.42,26.13,0,28.28-10.74-1.79-19.69,2.5-34.72S563.42,477.69,557.7,449.42Z" fill="#f19967"/><path d="M420.62,242.48l-2.41.68a22.6,22.6,0,0,1-4.87,1.1,12.2,12.2,0,0,1-8.27-2.87c-.68-.56-2.2.76-1.56,1.41a11.58,11.58,0,0,0,8.61,3.41,21.72,21.72,0,0,0,5.22-1.07c1.84-.52,4-.83,5.59-1.91.31-.21.84-1,.17-1.12A5.71,5.71,0,0,0,420.62,242.48Z" fill="#d57940"/><path d="M434.88,260.37c-.05,0-.05,0,0,0l-.06-.06a1.05,1.05,0,0,0-.27-.2l-.36-.18a1.37,1.37,0,0,0-.23-.17l-.3-.15.21.15c-.16-.13-.34-.24-.51-.36a4.53,4.53,0,0,1-1-1.1,3,3,0,0,1-.23-.65,1.61,1.61,0,0,1,0-.31,1.94,1.94,0,0,1,.05-.2.78.78,0,0,0-.05.14s0,0,0,0a1.17,1.17,0,0,0,.08-.8.79.79,0,0,0-.68-.5,1.91,1.91,0,0,0-1.08.31,2.35,2.35,0,0,0-.89,1,3.26,3.26,0,0,0-.33,1.71,3.76,3.76,0,0,0,.52,1.53,3.59,3.59,0,0,0,2.46,1.56l-.26-.07.5.13a1.7,1.7,0,0,0,.45,0s0,0,0,0l.15,0a2.18,2.18,0,0,0,.51,0,.45.45,0,0,0,.16,0c.11,0-.12,0,0,0h.34a2.2,2.2,0,0,0,1-.3.71.71,0,0,0,.24-1.18A1.22,1.22,0,0,0,434.88,260.37Z" fill="#d57940"/><path d="M399.29,228.17a88.64,88.64,0,0,0,8.64,2.3,85.13,85.13,0,0,0,17.36,1.88,86.19,86.19,0,0,0,17.33-1.66c2-.4,4.15-.83,6.25-1.41-.48,1-1,1.92-1.51,2.86q-1.19,2.1-2.45,4.15c-.89,1.46-2.13,2.92-2.63,4.48a1.79,1.79,0,0,0,0,.69,20,20,0,0,0-4.09.9,2,2,0,0,0-1.24,1.44.7.7,0,0,0,.89.82c3.85-1,7.37.54,10.65,2.42a22,22,0,0,1,4.32,3.3c1.29,1.24,2.82,3.36,4.79,3.16a1.94,1.94,0,0,0,.95-.45c-1.12-1.2-2.11-2.19-2.91-2.91-8.31-7.52-9.92-8.32-9.92-8.32l.18-.45h-.07c.05-.05.09-.12.14-.17a140.34,140.34,0,0,1,9.26-18.49l-.3.14,0-.26c.09-1-1-1.19-1.7-1A3.21,3.21,0,0,0,451,223.7c-.06.28-.17.56-.25.83l-.83.29a74.12,74.12,0,0,1-8.47,1.92,80.77,80.77,0,0,1-16.87,1.09,83.18,83.18,0,0,1-16.7-2.35,77,77,0,0,1-8.17-2.5c-1.33-.48-2.65-1-4-1.52a4,4,0,0,0-3.12-.41c.26,1.7.5,3.28.69,4.78.68.34,1.34.7,1.95.94C396.62,227.28,398,227.74,399.29,228.17Z" fill="#d57940"/><path d="M379.74,281.63c.12,1.17.39,2.37,1.6,2.72a2.23,2.23,0,0,0,2.38-1.24c.94-1.49.73-2.89.57-4.56,0-.17,0-.34,0-.52l.21,0a2.59,2.59,0,0,0,1.54-2c-.07.35.13-.82.08-.44,0-.12,0-.21,0-.32a3.13,3.13,0,0,0,.92.49,2.18,2.18,0,0,0,2.47-1.58c.6-3-1.2-6-1.58-8.89a35,35,0,0,1,.21-9.53c1-6.73,3.85-12.8,6.32-19.06.25-.62-.22-1-.79-1.07a.86.86,0,0,0-.27.05,11.84,11.84,0,0,1-1.16,3.21c-2.78,5.14-14.21,23.19-15.47,42.82C377.25,282.65,378.84,282.25,379.74,281.63Z" fill="#d57940"/><path d="M567.05,521c-.07.5-.1,1-.13,1.5-.47,2-1,3.91-1.41,5.88-.89,4-1.29,8-4.85,10.5-5.81,4.06-13.47,4.53-20.08,2.3-1,5.16-1.08,9.7,1,10.58,4.3,1.79,26.13,0,28.28-10.74s-1.79-19.69,2.5-34.72a25,25,0,0,0-.12-13.18,72.76,72.76,0,0,1-1,10.69C570.2,509.66,567.86,515.18,567.05,521Z" fill="#d57940"/><path d="M554.57,493.84c0-.64,0-1.27,0-1.91a79.58,79.58,0,0,0-.91-9.25,34.1,34.1,0,0,0-1.23-4.95c-.18-.57-.38-1.14-.54-1.72-1.41-3.47-3.18-6.79-4.74-10.2a38.16,38.16,0,0,1-3.89-13.89,32.22,32.22,0,0,1,.23-6,14.73,14.73,0,0,1,6.65-4,18.3,18.3,0,0,1,4.4-.72l1.26-.06a174.53,174.53,0,0,0-8.51-25.23c-.65-.13-.72,1.1-1.34,1-5-.81-10.16-.54-15.24-.51a67.32,67.32,0,0,1-8-.34A1,1,0,0,0,522,416a27.82,27.82,0,0,1-6-1.38,20.65,20.65,0,0,1-6.1-3.51,7.58,7.58,0,0,1-.18-.95c-.11-1-.87-1.06-1.64-.72a23.69,23.69,0,0,1-2-2.41c-.56-.8-1.69-.48-2.63.24,6.36,11.58,23.81,30.65,35.24,49,13.6,21.83,16.46,34.72,11.45,44.38l0,0c-.28.4-1.31,3.19-1.38,3.38a20.4,20.4,0,0,0-1,5.19c-.39,4.25.07,8.31-.3,11.86a1.77,1.77,0,0,0,1.33-1.13c1-3.41,1.13-7,2.08-10.47s2.11-6.86,2.81-10.38Q554.25,496.5,554.57,493.84Z" fill="#d57940"/><path d="M445.54,140.35a27.94,27.94,0,0,0,4.29-9.51c.47-1.66.87-3.34,1.18-5a32.58,32.58,0,0,0,.3-5c0-.67-1-.09-1.1.32-.3,1.75-.82,3.47-1.18,5.21-.33,1.59-.73,3.17-1.2,4.72-.93,3.11-2.41,6.09-3.19,9.24C444.48,140.93,445.32,140.65,445.54,140.35Z" fill="#d57940"/><path d="M438.51,120.07a27.58,27.58,0,0,0,7.55-3.79,36.6,36.6,0,0,0,7-5.64,44.88,44.88,0,0,0,4.72-6.33l.12,0c-1.16,7-3.75,13.72-3.4,21a30,30,0,0,0,2.65,11.26,27.14,27.14,0,0,0,2.76,4.68,24.38,24.38,0,0,0,1.59,1.91,3.33,3.33,0,0,0,.34.32,60.22,60.22,0,0,0-6.58.26c-2.58.12-5.16.25-7.73.44-.7.05-1.83,1.72-.72,1.76,3,.13,6.06.07,9.09,0,1.49-.06,3,0,4.5-.21.85-.08,2.68-.29,2.92-1.32l.7.33c1.45.74,3.75-1.65,2.84-3a16.15,16.15,0,0,0-1.52-2.34,22.32,22.32,0,0,1-1.55-1.94c-.24-.33-.44-.68-.65-1a15.5,15.5,0,0,1-4.59-7c-5.1-14.23,2.95-22,1.61-36.24-.23-2.47-1.35-3.62-3-3.87,0,.07,0,.15-.09.21-.52.68-1.41,1.12-2,1.82A6,6,0,0,0,454,93.63c-.88,3.92,3.18,6.16,3.38,9.78,0,0,0,0,0,0a.69.69,0,0,0-.2.13,54,54,0,0,1-12,10.07c-2.08,1.31-4.65,3-7.16,3.21s-4.92-1.58-6.93-3c-.68-.5-1.29-1.06-1.92-1.61a16.62,16.62,0,0,1-.44,5.67c.44.28.88.55,1.34.79C432.73,120.05,435.56,120.84,438.51,120.07Z" fill="#d57940"/><path d="M349.1,314.34a6,6,0,0,0,1.68-2.24,8.09,8.09,0,0,0,.53-2.3,18.16,18.16,0,0,1-.24-4.3c.06-1.12.19-2.23.36-3.33.12-.8.72-2.54-.06-3.15a.64.64,0,0,0-.63,0,10.69,10.69,0,0,1-.19,2.15c-1.44,6.54-.54,11.9-.81,12.08l-.23.23s0,0,0,0l-.13.07c-.46.48-1.33,1.45-2.3,2.65.16-.16.35-.29.52-.45C348.08,315.26,348.62,314.8,349.1,314.34Z" fill="#d57940"/><path d="M360.59,251.85a19.39,19.39,0,0,1-5.27,3.75,22.5,22.5,0,0,1-7.24,2,23,23,0,0,1-8.44-.42,1.87,1.87,0,0,0-.78,0c.24,1.48.54,3,.9,4.64.77.41,1.51.87,2.3,1.25,1,.48,2.1.84,3.15,1.23a40.53,40.53,0,0,0,6.39,1.83,15.48,15.48,0,0,0,6.14.06,11.1,11.1,0,0,0,4-1.65c.27,4,.55,7.93.69,11.91.13,3.8.2,7.61.06,11.41-.07,1.86-.11,3.7-.1,5.57a22.58,22.58,0,0,0,.24,5.2c.25,1,1.74-.11,2-.57a20.7,20.7,0,0,0,1.46-4.55l.07.09a7.55,7.55,0,0,1-1.25-3c-.6-4.54-.57-24.4-1-41.79-.3.24-.61.47-.9.73C362.11,250.25,361.37,251.07,360.59,251.85Z" fill="#d57940"/><path d="M373.31,315.19c1,1.51,2.07,4.2,3,5.75a17,17,0,0,1,1.61,4.84,24.07,24.07,0,0,0,.86,3.87c.86-.14,2.83-.8,2.9-4.08,0-1.14.19-2.65.37-4.32a14.18,14.18,0,0,0-.83-2.41,21.14,21.14,0,0,0-3.2-4.44,13,13,0,0,1-2.54-4.91,67.09,67.09,0,0,1-1.44-7.71,66.53,66.53,0,0,1-6.5-6.33c2.81,4.83,1.11,6.95,2.59,12.12A48,48,0,0,0,373.31,315.19Z" fill="#d57940"/><path d="M473.73,152.82a71.22,71.22,0,0,1-2.83,12c-1.13,3.59-2.81,7.14-3.35,10.89a19.85,19.85,0,0,0,2,11.59,1.36,1.36,0,0,0,.65.57c-.08-1.54.42-3,2.05-5.07,1.09-1.36,3.06-3.22,5.23-5.47a.42.42,0,0,0,0-.1,26,26,0,0,1-1-4.62,31.36,31.36,0,0,1,.88-9.93,67.27,67.27,0,0,0,1.38-14.42,37.35,37.35,0,0,0,.18-4.11,25.74,25.74,0,0,0-5-2.72C473.91,145.24,474.24,149,473.73,152.82Z" fill="#d57940"/><path d="M376.87,339.69a9.94,9.94,0,0,1-1.19-2.66,37.21,37.21,0,0,1-1-6.9c-.44-4.63-.78-9.37-3-13.56-.38-.72-1.67.25-1.42.9,1.87,5,1.67,10.24,2.05,15.46a28.64,28.64,0,0,0,1.14,7.52c-2.1,0-3.36-2.08-4-3.82a24.64,24.64,0,0,1-1.11-6.26,36.84,36.84,0,0,0-1.13-6.36,14.81,14.81,0,0,0-3.19-5.85c-.35-.41-1.3.37-1.08.81a28.51,28.51,0,0,1,2.5,7.69,71,71,0,0,1,.71,8,19.74,19.74,0,0,0,.51,3.42l-.33-.41a60.39,60.39,0,0,1-2.24-6.28c-.65-2-1.29-4.05-2.09-6-.21-.34-.37-.73-.53-1-.49-.88-1.19-1.85-1.69-2.6a13.48,13.48,0,0,0-2-2.46,4.32,4.32,0,0,0-2.27-1.07,2.5,2.5,0,0,0-.72,0h-.06l-.09.08a4,4,0,0,0-.42.4,4.32,4.32,0,0,1-.51.46c-.74.52-1.7.78-2.47,1.27a14.23,14.23,0,0,0-3.72,3.74,25.21,25.21,0,0,1-2.83,3.63,4.19,4.19,0,0,1-3.61,1.2c-.09.33,0,.59.26,1.15.8,1.52,5.64-3.67,7.34-6.27s5.63-6.53,7.6-3.13,7.7,19.33,12,19.87c0,0,4.3,2.23,5.1.62,0,0,2.92,1.8,4.1-.83A5.7,5.7,0,0,1,376.87,339.69Z" fill="#d57940"/><path d="M390.1,198.62c.08-.15.1-.3.17-.45.57.15,1.2-.38,1.48-.84a8.29,8.29,0,0,0,.94-2.68c0,.28.06.55.1.82.12.82.21,1.85,1.07,2.17.55.21,1.1-.21,1.45-.6a6.21,6.21,0,0,0,1.25-2.84,2.51,2.51,0,0,0,.46-.37c1.67-1.83,2.35-4.74,2.75-7.13a44.33,44.33,0,0,0,.6-7.28,23.28,23.28,0,0,0-.63-6.28,14.93,14.93,0,0,0-1.06-3,16,16,0,0,0-1.92-2.44c-.48-.58-1.29-.33-1.92.21-4.76,2.16-8,6.51-9.69,11.36a99,99,0,0,0-5.8,8.85c-2.24,3.86-3.87,8-5.81,12a39.15,39.15,0,0,1-7.17,9.83,55,55,0,0,1-4.68,4.35c-1.64,1.36-3.22,2.76-4.84,4.13-1.07.91-1.07,3.36.82,2.42.69-.35,1.39-.64,2.07-1-.63,4.42,1,8.68,2,13,.57,2.41,1,4.85,1.46,7.28l.39,2.05c0-.85-.06-1.7-.1-2.52-.81-18.79-4.83-18.52,1.88-26.31s15.57-21.74,19.33-32.21a132.58,132.58,0,0,1,4.77,18.12A2.27,2.27,0,0,0,390.1,198.62Z" fill="#d57940"/><path d="M421.06,142.55a27.13,27.13,0,0,0,8.08,2.32,12.28,12.28,0,0,1,3.92,1c1.36.67,1.94,1.83,2.71,3.06,1.52,2.4,4.78,2.89,6.53.43.33-.47.36-1.13-.38-1.07a3.71,3.71,0,0,1-3.21-1,33.62,33.62,0,0,0-2.22-2.66c-1.83-1.57-4.35-1.74-6.65-1.9a26.76,26.76,0,0,1-3.9-.32,26.87,26.87,0,0,1-11.17-5.85c-.18-.18-.6.2-.43.38A22,22,0,0,0,421.06,142.55Z" fill="#d57940"/><path d="M543.11,403.42c-8.32-5.1-18.81-30.87-25.26-35.43s-14-27.15-15.27-44.57c0-.27-.06-.5-.09-.77C527.68,312.8,513,296.09,513,296.09c-5.35.51-14.62-3.74-23.89-9.08-4.09-9.49-14.33-19.31-18.71-22.35-5.37-3.74-2.95-10.23-11.81-15.33s-2.95,10.47-23.09,9.94-49.66.53-51.54,9.93S371.57,281,371.57,281c1.88,42.41,22.55,47.52,22.55,47.52a6.21,6.21,0,0,0,1.88,7c6.45-3.23,25.24,6.71,25.24,6.71s1.07,6.71,13.15,8.32,18,9.93,21.2,17.45-4.55,7.78-2.68,20.67,41.61,9.39,50.2,20.67,45.91,7,45.91,7S551.43,408.52,543.11,403.42Z" fill="#dfeaf6"/><path d="M545.13,404.91c-12.28.28-29.7-.74-35.34-8.14-1.56-2-4.12-3.63-7.26-4.92,2.25-5,2-10.46.52-15.62a.43.43,0,0,1,0-.05c.82-5.9,1.24-11.92-.48-17.71a23.56,23.56,0,0,0-1.33-3.48,24.05,24.05,0,0,0-1.6-3.41,28.41,28.41,0,0,0-4.63-5.76l-.07-.09c-3.31-3.8-7-7.24-10.27-11.09a166.46,166.46,0,0,1-10.2-14.12c-6.14-9-13.13-17.15-22-23.63-8.62-6.3-18.54-11.92-29.15-13.85a26.21,26.21,0,0,0-18,2.87,100.46,100.46,0,0,0-15.64,11.56c-.3.26,0,.55.27.3,4.46-3.66,9.29-7.49,14.52-10s10.34-3.66,16.13-2.73c5.44.88,10.71,3.14,15.65,5.53a81.09,81.09,0,0,1,12.95,7.8,91.66,91.66,0,0,1,17.6,17.54,20.47,20.47,0,0,0-5.3-1.59,32.1,32.1,0,0,0-15,1.65c-4.89,1.65-9.5,3.92-13.08,7.69-1,1.08-.11,2.2,1.05,1.16,3.25-2.88,8.21-4.58,12.35-5.67a26,26,0,0,1,13.36-.37,22.66,22.66,0,0,1,10.5,6.61c1.36,1.44,2.57,3,3.85,4.54a31.15,31.15,0,0,0,2.19,2.4c.79.75,1.8,1.29,2.57,2a.65.65,0,0,0,.63.14c2.16,2.67,4.34,5.33,6.59,7.94s4.8,4.79,7,7.32l.71.87c.25.31.49.64.73.95.53.73,1,1.48,1.49,2.24a24.23,24.23,0,0,1,3.19,10.76,27.54,27.54,0,0,1-.1,3.52c-3.68-6.34-10-10.83-17.52-9.9-.65.08-1.75,1.71-.69,1.7,7.23-.06,12.14,6.4,14.8,12.33.61,1.35,1.18,2.76,1.69,4.18a.63.63,0,0,0,.12.33,35.15,35.15,0,0,1,1.52,5.57,29.8,29.8,0,0,1,.4,5.74c0,.88-.11,1.83-.14,2.78-15.54-5.13-41.17-5.24-42.71-15.78-2-13.54,6.19-13.82,2.82-21.72s-9.59-16.64-22.28-18.33-13.82-8.75-13.82-8.75S404,315.82,397.24,319.2a6.52,6.52,0,0,1-2-7.33s-13.43-3.34-20.13-26.43a17.16,17.16,0,0,0,3.87-3.26,19,19,0,0,0,3.61-6.4c.88-2.45,1.48-5,3.17-7,.12-.16.27-.28.4-.43.3-.23.59-.47.92-.68,4.34-2.82,9.76-4.38,14.78-5.42,5.93-1.22,11.95-1.12,18-.92,6.69.23,13.42.49,20.05-.68a3.86,3.86,0,0,0,2.63-2,26.81,26.81,0,0,1-7.08.67c-20.13-.54-49.66.53-51.54,9.93-1.32,6.63-6.91,9.77-10.09,11.05-1.34.54-6.15.63-6.15.63,1.88,42.41,26.44,47.65,26.44,47.65a6.21,6.21,0,0,0,1.88,7c6.45-3.23,25.24,6.71,25.24,6.71s1.07,6.71,13.15,8.32,18,10.2,21.2,17.72-4.55,7.51-2.68,20.4,41.61,9.39,50.2,20.67,45.91,7,45.91,7A11.25,11.25,0,0,0,545.13,404.91Z" fill="#b9cbdb"/><path d="M468.93,171.66c4.3-6.26,9.49-27.56,6.62-31.68s-8.23-1.07-8.77-3.57-4.65-1.62-4.65-1.62,2.51,20.77-1.43,34S430.63,182,416.85,179.36s-17.54,2.32-22.55,7.87-10.38,5.91-10.38,5.91l1.79,3s-10.91.18-8.77,13.78S347.59,252.91,334.35,245,338,230.36,338,230.36s-12.21-.71-12.21,11.81S333.63,259,333.63,259s21.12,12.26,34.72-10.69,14.43-27.75,12.89-38.71c-1.17-8.29,2.71-10.59,4.66-11.22.12,1.44.26,3.46.35,5.68.18,4.29-.54,5.54-.54,5.54-1.25,4.83,3.94,7.88,3.94,7.88,0,3.76,1.79,9.12,27.92,11.09s38.12-4.65,41-9.12,14.85-10.21,15.75-18.26S464.64,177.93,468.93,171.66Z" fill="#dfeaf6"/><path d="M465.24,208.84c-3.11,2.16-6.34,2.72-10.07,3-2,.16-3.95.21-5.93.26a22.11,22.11,0,0,0-6.24.57c-.62.21-2.11,1.67-1.27,2.38a4.89,4.89,0,0,0,.6.33.68.68,0,0,0,.4.57c1.31.67,2.64,1.28,4,1.91a5.44,5.44,0,0,1,2.85,2.4s0,.06,0,.09c-.1.33-.18.67-.28,1-.24.76-.53,1.52-.8,2.28a12.35,12.35,0,0,1-2.25,1.69c-1.37.82-2.8,1.54-4.25,2.23,9.65-1.89,14.82-5.41,16.56-8.13,2.86-4.48,14.85-10.21,15.75-18.26a11.76,11.76,0,0,0-.11-2.93,12.87,12.87,0,0,1-1.56,3.82C470.86,204.89,467.93,207,465.24,208.84Z" fill="#b9cbdb"/><path d="M466.42,143.73c.2,1.87.37,3.75.63,5.62.15,1.06.37,2.11.5,3.17s.08,1.88.29,2.8c.11.5.9-.11,1-.38a31.29,31.29,0,0,0,.24-3.21c.09-1.25.25-2.49.3-3.75a42.92,42.92,0,0,0-.24-6.8,12.42,12.42,0,0,0-.23-1.31,7.09,7.09,0,0,1,3.9.74c1.49.89,2,2.76,2.19,4.36.16,1.17.29,2.36.4,3.54a47.23,47.23,0,0,1-3.43,12.88,57.92,57.92,0,0,1-5.13,9.77c-2,3-4.45,5.57-6.35,8.55-.45.7.36,1,.88.65a22,22,0,0,0,6-5.71,17.73,17.73,0,0,0,.12,4.82c.39,2.43,1.36,5.42,3.25,7.27-2.15-5.94-4-11.76-1.77-15.08,4.3-6.26,9.49-27.56,6.62-31.68s-8.23-1.07-8.77-3.57-4.65-1.62-4.65-1.62.06.53.14,1.38C465.28,137.05,466.13,141,466.42,143.73Z" fill="#b9cbdb"/><path d="M409.88,224.62a39.84,39.84,0,0,0,14.21-3.11c.23-.1.92-1,.28-1-4,.13-7,.26-11,.33a82.36,82.36,0,0,1-13-1.26c-3.61-.57-8.44-2.2-10.94-5-1.35-1.53-1.14-2-1.88-4.15a24.35,24.35,0,0,1,.44-4,17.82,17.82,0,0,0,3.51,2.46,20.49,20.49,0,0,0,5.72,2,16.13,16.13,0,0,0,3.25.32,9,9,0,0,0,3.11-.4c.31-.13,1-.82.44-1.09a10.74,10.74,0,0,0-2.43-.42c-.88-.18-1.77-.32-2.65-.55a22.74,22.74,0,0,1-5.11-2,14.33,14.33,0,0,1-5.62-4.75c0-.52-.08-1-.16-1.54,4.34,1.37,9.06,1.22,13.55,1.07,9.14-.29,19.27-.29,27.67-4.39.36-.18,1-1.11.16-1-4,.4-8,1.08-12,1.43-4.25.36-8.52.51-12.79.65a59,59,0,0,1-12-.37c-1.92-.33-4.16-.68-5.64-2a4.11,4.11,0,0,1-.75-1c3.58-.85,6.61-5,8.62-7.6.91-1.19,1.84-2.38,2.77-3.56-1.11,1.1-2.17,2.31-3.29,3.54-5,5.55-10.38,5.91-10.38,5.91l1.79,3a9.84,9.84,0,0,0-2.48.46c.21.6.45,1.2.63,1.82a6.61,6.61,0,0,0-2.26,1.81A8.26,8.26,0,0,0,380,206c.22,5.18,1.6,10.37.68,15.55-.84,4.67-3.16,9.06-5.42,13.17-1.13,2.06-2.37,4.06-3.64,6-.36.57-.75,1.14-1.14,1.72a80,80,0,0,1-8.44,9.8,25,25,0,0,1-6.83,4.8,23.32,23.32,0,0,1-9.47,1.5,19.71,19.71,0,0,1-14.86-7A21.05,21.05,0,0,1,327,243.9a26.41,26.41,0,0,1-.82-4c0-.24-.05-.48-.08-.71a15.13,15.13,0,0,0-.3,3c0,12.53,7.87,16.83,7.87,16.83s21.12,12.26,34.72-10.69,14.43-27.75,12.89-38.71c-1.17-8.29,2.71-10.59,4.66-11.22.12,1.44.26,3.46.35,5.68.18,4.29-.54,5.54-.54,5.54-1.25,4.83,3.94,7.88,3.94,7.88a6,6,0,0,0,2.38,5,19.28,19.28,0,0,0,4.19,1.53C400.6,225.07,405.41,224.85,409.88,224.62Z" fill="#b9cbdb"/><path d="M417,64.28s-2.15,10.92,0,16.65-.71,12.88,2.69,19.5,10.91,17.18,15.21,17.9,21.12-8.77,27-22,7.7-25.59,6.09-27.21-28.82-19.32-28.82-19.32Z" fill="#f19967"/><path d="M419.77,81c.27-.26.1-.15,0,0Z" fill="#d57940"/><path d="M436.42,95.16a6.07,6.07,0,0,0-3.11,0l-.4,0s0,0-.06,0h-.14a2.71,2.71,0,0,1-.4,0h-.06l-.19-.06a6.93,6.93,0,0,0-1.68-.5,2,2,0,0,0-1.75,1.12c-.27.55-.24,1.2.46,1.32h.07l.07,0,.33.13.61.29a3.67,3.67,0,0,0,1.56.32,13.77,13.77,0,0,0,1.7-.16l.29,0h.11a3.81,3.81,0,0,1,.59.07l.26.07a2.63,2.63,0,0,0,.39.06,1.9,1.9,0,0,0,1.41-.51,1.5,1.5,0,0,0,.55-1.46A1.15,1.15,0,0,0,436.42,95.16Z" fill="#d57940"/><path d="M455.66,91.28c1.11-1,2.5-1.61,3.51-2.8a6.34,6.34,0,0,0,1.54-3.59c-1.44-1.63,1.49-4.33.93-4.44-.81-.16-4.3-6.82-4.3-6.82l-14.12-2.41-7.81-.08-4.58-.59-12.65-3.63-1.59,12.25a12.57,12.57,0,0,0,.44,1.76c2.15,5.72-.71,12.88,2.69,19.5a69.55,69.55,0,0,0,5.45,8.76c-.3-.89-.61-1.78-1-2.63-1.25-2.76-2.73-5.32-3.35-8.32a68.05,68.05,0,0,1-.8-9.14,45.92,45.92,0,0,0-1-6.85c.23-.43.44-.87.7-1.29h0v0a2.33,2.33,0,0,0,.17-.26l0,0a6.2,6.2,0,0,1,.69-.07,13.68,13.68,0,0,1,3.25.31A6,6,0,0,1,427.14,85a12,12,0,0,1,.4,3.72c0,.64,0,1.29,0,1.93a2.12,2.12,0,0,0,.05.5c0,.14.15.25.2.38.13.31.11.51.44.69s.74-.08.95-.28a5,5,0,0,0,1.2-2.22,11.83,11.83,0,0,0-.27-6.79,7.37,7.37,0,0,0-.51-1,16.46,16.46,0,0,0,3.05-.06c1.25-.15,3.34-2,2.71-3.41a6.14,6.14,0,0,1-.52-3.58c0-.19.1-.38.16-.57.22.82.46,1.65.73,2.47.38,1.13.66,2.92,1.49,3.83s2.39.54,3.48.49c1.46-.06,2.89-.28,4.34-.46a27.32,27.32,0,0,1,7.61,0c.5.68,1.08,1.31,1.55,1.93.68.89,2.4,2.94,1.84,4.19a16.1,16.1,0,0,1-2.43,1.73,7.78,7.78,0,0,0-2.83,3.92c-.94,3.48,1.56,6,3.67,8.34a18.46,18.46,0,0,1,2.52,3.51,38.62,38.62,0,0,0,3.45-4.83c-.33-.47-.77-1-1.09-1.38C458.34,96.79,453.76,93,455.66,91.28Z" fill="#d57940"/><path d="M454.66,75.21a5.62,5.62,0,0,0-3.49-.7,22.46,22.46,0,0,0-3.74.62,17.39,17.39,0,0,1-3.8.52,17.78,17.78,0,0,1-4-.5c-.7-.15-2,1.36-1.12,1.72a13.83,13.83,0,0,0,7.62.55c1.3-.25,2.57-.61,3.88-.79a29,29,0,0,0,4.25-.7C454.53,75.86,455,75.45,454.66,75.21Z" fill="#824c24"/><path d="M430.67,84.31a19.82,19.82,0,0,0-2.33-8.16.43.43,0,0,0-.37-.23.88.88,0,0,0-.46-.45,4.48,4.48,0,0,0-1.31-.2c-.88-.07-1.75-.08-2.63-.09-1.91,0-3.84,0-5.76,0a1.37,1.37,0,0,0-1.16.71c-.16.3-.18.84.29.86,1.83.08,3.67.21,5.5.24.85,0,1.71,0,2.56,0,.44,0,.87.12,1.31.15a2.13,2.13,0,0,0,.8-.11,24.81,24.81,0,0,1,2.23,7.55,17.64,17.64,0,0,1,.08,4.17c-.12,1.3-.43,2.59-.56,3.89,0,.4.57.08.65-.1C430.73,90.09,430.78,87.07,430.67,84.31Z" fill="#824c24"/><path d="M435.87,94.09a3.13,3.13,0,0,0-1-.17,9.46,9.46,0,0,0-1.91.2,7.39,7.39,0,0,1-1.69.16,5.51,5.51,0,0,1-1.78-.56,1.2,1.2,0,0,0-1.24.51c-.22.28-.45.88,0,1.08a12.81,12.81,0,0,0,1.79.66,5.16,5.16,0,0,0,.95.19,7.69,7.69,0,0,0,1,0c.65,0,1.14-.09,1.73-.11-.07,0-.05,0,.08,0H434a3.28,3.28,0,0,1,.43,0,2.2,2.2,0,0,0,1.16-.15c.36-.15.83-.58.8-1A.82.82,0,0,0,435.87,94.09Z" fill="#824c24"/><path d="M423.47,67.65s-3.81-7-3.45,0-5.49,15.24-5.49,15.24l-1-3.42c-2-7.08-1.1-18.16,2.53-24.58l17.42-7.07s16.1-2.69,17.71-2S468.6,64.31,468.6,64.31l5.34,7-4.47,24s-7-4.56-6.27,1.52-1.87,5.64-1.87,5.64-1.88,2.87-8.15-5.19,4.57-6.44,5.82-10.74,2.77-6.8-5.64-10.38-9.15-9.78-9.15-9.78-8.25,7.28,0,10.5c0,0-10.71-1.25-8.92-9.48,0,0-5.37,6.8-2.33,12.34C433,79.67,422.07,77.12,423.47,67.65Z" fill="#fde0be"/><path d="M405,67.68s30.49,10.08,73,5.58c0,0,1.5-3.43.8-10.14,0,0-37.3,6.35-71.19-2.23C407.7,60.89,401.89,66.23,405,67.68Z" fill="#fbc56f"/><path d="M434.71,109.85a7.64,7.64,0,0,0,1.9-.17,4.54,4.54,0,0,0,1.44-.6l.25-.19.07,0a3.11,3.11,0,0,0,.91-1,.83.83,0,0,0-.19-1.2,1.59,1.59,0,0,0-.94-.06l.64.06a3.79,3.79,0,0,0-1.8.11l-.29,0a1,1,0,0,1-.39,0q.33,0,.09,0h-.49c-.22,0-.45,0-.67-.08l-.38-.07h0l0,0a6.8,6.8,0,0,1-1.33-.56,1.44,1.44,0,0,0-1.08,0,2.8,2.8,0,0,0-1.13.85c-.41.57-.75,1.46,0,1.91A7.17,7.17,0,0,0,434.71,109.85Z" fill="#d57940"/><path d="M442.28,102.46a1.6,1.6,0,0,0-.23,0,3.51,3.51,0,0,0-1.14-.36,10.84,10.84,0,0,1-2.14-.74c-1.28-.59-2.56-1.33-4-1.2-.35,0-.67.15-1,.21a4.45,4.45,0,0,1-1.21,0,4,4,0,0,0-1.86.18,2.58,2.58,0,0,0-1.38,1.2c-.17.38-.15,1.13-.54,1.35s-.56,1.16.12.85l.16-.1s0,0,.05,0c1,.08,1.54-.68,2.33-1.12a2.76,2.76,0,0,1,1.88-.06,5.19,5.19,0,0,0,1.8.09,4,4,0,0,1,2,.45,7.55,7.55,0,0,0,1.7.35,10.76,10.76,0,0,0,1.27,0,2.73,2.73,0,0,0,2.15-.44.37.37,0,0,0,.14-.35s0,0,0,0C442.43,102.68,442.52,102.46,442.28,102.46Z" fill="#824c24"/><path d="M442.09,104.42a17.28,17.28,0,0,0-2.78,1.33,8.84,8.84,0,0,1-3.4.32c-2,0-4.48.13-5.48-2-.32-.69-1.52.23-1.31.82a4,4,0,0,0,2.05,2.37,9.27,9.27,0,0,0,3.85.51,9,9,0,0,0,4-1,9.44,9.44,0,0,0,3.24-2C442.36,104.68,442.36,104.37,442.09,104.42Z" fill="#824c24"/><path d="M451.26,79.52c-.35.15-.72.28-1.08.4-.05,0-.09,0-.13,0a2.65,2.65,0,0,0-.93.12c-.3.08-.6.18-.9.27l-.13,0-.17,0a15.21,15.21,0,0,1-2.71.57c-1.87.12-3.7-.5-5.54,0a2.49,2.49,0,0,0-1.26,1.07s0,.09,0,.14a3.16,3.16,0,0,0,.22.5,2.23,2.23,0,0,0,.26.27,2.77,2.77,0,0,0,.6.29l.32.08a1.67,1.67,0,0,1,.54.2,1.52,1.52,0,0,1,.3.26c.48.08,1,.2,1.44.25,1,.1,2,0,3,.09a9.75,9.75,0,0,0,3.47-.52,4.56,4.56,0,0,0,.9-.4c.2-.12,1-.71.46-.4.54-.33,1.14-.57,1.69-.89a2.08,2.08,0,0,0,1.11-1.86C452.59,79.37,451.85,79.27,451.26,79.52Z" fill="#fff"/><path d="M426.86,81.73a5.34,5.34,0,0,1-1.37.2,9.6,9.6,0,0,1-1.93-.15,11.13,11.13,0,0,0-2.08-.23,3.56,3.56,0,0,0-1.93.4,1.2,1.2,0,0,0-.27.08,1.06,1.06,0,0,0-.7.87c0,.31.25.36.49.33a.52.52,0,0,0,.36.21c.64.07,1.24.31,1.87.44s1.24.25,1.86.32a7.47,7.47,0,0,0,1.89,0,5.65,5.65,0,0,0,2.06-.77,1.51,1.51,0,0,0,.79-1.34C427.8,81.6,427.28,81.57,426.86,81.73Z" fill="#fff"/><path d="M427.88,81.39a20.24,20.24,0,0,1-2.68-.34c-.45-.07-.9-.12-1.34-.23a10.4,10.4,0,0,0-1.09-.31,6.63,6.63,0,0,0-2.39.12,3.2,3.2,0,0,0-2.15,1.21c-.06.11-.11.37.06.42a1.5,1.5,0,0,0,.91-.07,5.58,5.58,0,0,1,1.05-.21l.21,0s0,.06,0,.09a1.11,1.11,0,0,0-.17.9,1.21,1.21,0,0,0,.44.62,7.3,7.3,0,0,0-1.68-.22.71.71,0,0,0-.61.37c-.08.15-.11.46.15.46,1.72,0,3.31.86,5,.83a4.71,4.71,0,0,0,3.79-1.89c.18-.27-.19-.27-.34-.16a5.39,5.39,0,0,1-3,1.17,2.9,2.9,0,0,0,1.79-1.81.43.43,0,0,0,0-.16,11.71,11.71,0,0,0,1.45.17.8.8,0,0,0,.7-.42C428.15,81.73,428.17,81.4,427.88,81.39Z" fill="#824c24"/><path d="M454.25,78.47a27.49,27.49,0,0,1-7.52.43,12.82,12.82,0,0,0-3.7.36c-1.26.34-2.42,1.11-3.71,1.27-.59.07-1.22,1.47-.34,1.39a12,12,0,0,0,2.94-.94,1.22,1.22,0,0,0-.14.56,2.56,2.56,0,0,0,.76,1.82,9.1,9.1,0,0,0-2.9-.09c-.35.06-.76.92-.2.86,2.7-.27,5.28,1.36,8,.79a7.29,7.29,0,0,0,5.21-4.28c.23-.62-.39-.51-.63-.19a7.33,7.33,0,0,1-4.6,3.3,3.71,3.71,0,0,0,1.17-1.5,2.5,2.5,0,0,0,.15-1.68.64.64,0,0,0-.08-.14,9.13,9.13,0,0,0,5.58-1.33C454.42,79,454.64,78.37,454.25,78.47Z" fill="#824c24"/><path d="M456.34,372s-8.25,12.74-2,19.83,16.42,6.28,32.64,10,11.71,5.69,18.09,10.06,16,5.84,29,5.5S549,416.31,549,416.31s3.5-4.92-2.31-9.79c0,0-16.53,4.06-33.18-1.13s-1.69-7-29.21-13.24S452.82,390.71,456.34,372Z" fill="#fbc56f"/><path d="M393.27,223.92s-4.12-2.46-3.62-6.44c0,0,42.71,18.12,70,.61l-4.06,5.42C452.58,229.18,409.91,232.73,393.27,223.92Z" fill="#fbc56f"/><rect width="841.89" height="595.28" fill="none" stroke="#fff" stroke-miterlimit="10"/></svg>