<svg id="Layer_1" data-name="Layer 1" xmlns="http://www.w3.org/2000/svg" viewBox="0 0 841.89 595.28"><path d="M476.74,225.13s10.72,22.61,18.94,36.79,11.53,27.36,10.26,28.89-5.91,9.93-4.1,17.8.55,13.34.93,15.37a28.39,28.39,0,0,1,.51,6.35,2.58,2.58,0,0,0,1.27,3.18s-2.29,4.06.25,5.08l4.57-2.16s-4.06,4.19,0,5.84l3.69-3.3s-1.15,4,1.14,5,3,0,3,0-.26-2.45,2.16-6,3.17-5.71,3.17-8.76.76-11.82,2.16-13.72-1.78-9.91-2.41-12.83-3.18-4.57-3.43-9.4,1.4-7.37-1.91-18.67-5-17.78-6.86-39-17.4-40.67-17.4-40.67l-19.68,20.16Z" fill="#f19967"/><path d="M522.12,327.66a23.8,23.8,0,0,1-1.7,6.86c-.59,1.53-1.61,3.64-2.49,5.42a3.94,3.94,0,0,0-.4,2,12.75,12.75,0,0,1,1.88-4c2.41-3.56,3.17-5.71,3.17-8.76s.76-11.82,2.16-13.72a2.12,2.12,0,0,0,.3-.89C521.73,316.52,522.2,325.31,522.12,327.66Z" fill="#d57940"/><path d="M517,320.51c-1.1-1.95-1.69-2.33-2.12-4.66s-.42-4.87-.84-5.17a14.5,14.5,0,0,0-2.63-.71,31,31,0,0,0-.59,6.6c.25,2.2-.49,6.68-.51,9.15,0,3.12-.94,4.44-2.09,5.35a3.07,3.07,0,0,1-1.72-.1c-2-.68,1.19-3.56-.34-5.09s.34-5.41-1-9-.43-16.17,1.86-19.73-.51-5.34,2.29-10.17,0-7.61-2.29-11.93-12.7-34.55-16-47.46c-2.36-9.23-10-14.28-14.14-16.41l-2.44,2.49-1.33,1.37,2,5.45,1.69,4.61s10.72,22.61,18.94,36.79,11.53,27.36,10.26,28.89-5.91,9.93-4.1,17.8.55,13.34.93,15.37a28.39,28.39,0,0,1,.51,6.35c-.16.48-.54,2.6,1.27,3.18a9.7,9.7,0,0,0-.7,1.69l0,0v0c-.36,1.23-.47,2.76,1,3.33l4.57-2.16a7.06,7.06,0,0,0,3.11-4.95c.21-.59.47-1.25.74-1.87.68-1.52,2.3-2.15,2.7-2.87a17,17,0,0,1-.58,3c-.42,1-.34,4.4-.93,5.84s-2,2.2-3.39,3.9a11.71,11.71,0,0,1-2.43,2.33,4.34,4.34,0,0,0,.78.42l3.69-3.3s-1.15,4,1.14,5a4.36,4.36,0,0,0,1.81.42c-2.36-.47-2.11-4.19-2.11-5.37s1.7-3.64,1.53-4.83c-.12-.79.78-7.35.63-7.72C516.61,325.38,518,322.29,517,320.51Zm-6.53,14.35a12,12,0,0,1-4.9,2.15c1.53-2.35,5.3-8.08,5.84-8.59s.59,2.43.6,3.84A7,7,0,0,1,510.42,334.86Z" fill="#d57940"/><path d="M360.15,345.34l-2.69-.14c-1.85-4-3.58-7.73-5.21-11.27l6.52,7.44.63-.38c-.15-.59-.25-1.19-.45-1.75q-35-100.5-70-201c-.35-1-.46-2.29-2.18-1.77-.23.07-.9-.72-1.1-1.22-.92-2.23-2.57-2.72-4.89-2.94-5.25-.49-10.47-1.39-15.68-2.25-4.63-.77-7.2-3.71-8.49-8.14-2.48-8.53-3-17.29-3.41-26.08-.05-1-.11-2-.18-3.42-1.47,1.42-2.67,2.58-4.28,4.11l2.84-27.87.32,0a10.37,10.37,0,0,1,.34,1.21C254,83,256,96.12,260.74,108.62a51.05,51.05,0,0,0,4.49,9c2.92,4.73,7.65,5.89,12.82,5.56,2.95-.2,4.41-1.69,4.32-4.65a31.69,31.69,0,0,0-1.22-8.35c-3.23-10.4-6.68-20.72-10.09-31.07-2.35-7.15-4.76-14.29-7.15-21.43-.28-.84-.58-1.68-.93-2.67l-4.31,2.87c1-9.88-.75-19.18-3-28.47,4.15,8.52,8.34,17,15.39,24.09l-4.95.48c1.84,5.28,3.6,10.5,5.47,15.67,4.28,11.86,8.54,23.72,13,35.51a52,52,0,0,0,4.89,9.75c2.34,3.63,4.84,3.7,8.24,1,5.87-4.68,6.27-10.71,4.5-17.38-2.55-9.67-6.94-18.55-11.65-27.29-2.49-4.64-5.17-9.16-7.55-13.93l19.89,20.43-5.85-.57c2.51,3.61,5.08,6.89,7.19,10.44q4.49,7.57,8.41,15.48a9.07,9.07,0,0,1-1.45,10.63c-3.86,4.32-7.87,8.52-11.92,12.66-1.08,1.1-1.75,2-1.41,3.65.22,1.05,1,2.52-.79,3.27-.15.06,0,1.09.17,1.61.85,2.55,1.75,5.08,2.63,7.62q33.68,96.69,67.34,193.37l.71,2,.8,0c.18-3.24.36-6.48.52-9.51.93,3.65,1.9,7.51,3,11.69l-2.06,1.81c2.72,1.74,1.81,4.22,1.84,6.71.07,5.34.67,10.68,1.07,16,.05.72.14,1.43.21,2.2-2.91-4.38-5.74-8.65-8.6-12.9a11.73,11.73,0,0,0-1.85-2.24C361,350,359.06,348.44,360.15,345.34Z" fill="#2f6c8c"/><path d="M412.17,62.49s-4.29-5.56-6.86-3.85-1.71,2.78-3.21,3.85a13.23,13.23,0,0,0-3.64,3.22c-1.07,1.49-4.49,3.21-6,4.06s-1.71,7.71-3.43,10.92-1.07,5.78-3,8.78-4.29,4.5-2.36,6.64,3.43,1.5,1.71,6.21-1.28,5.14-.21,10.06.28,9.85-2.22,11.13-5.92,1.93-6.13,6a23.83,23.83,0,0,0,1.07,8.14c.21.64-2.19,1.65-1.1,3a3.26,3.26,0,0,1,.67,2.79h16.87l15.46.64L461,133.58s-5.78-7.92-6.63-10.92-1.08-3.64-.22-6.64-1.93-4.5-2.35-6,.42-4.93-1.07-6.43-3.64,0-3.86-3.64.43-7.49-.21-9.42a45.83,45.83,0,0,1-1.86-6.21c-.07-1.07-1.57-7.81-5.85-11.24s-3.75-4.28-5.78-7.38-2.46-4.18-4.07-4.29-5.89-.1-6.85-1-4.71-1.61-5.89-1S414.2,62.82,412.17,62.49Z" fill="#415779"/><path d="M407.4,138.23a22.93,22.93,0,0,1-4.33-4.12c-1-1-1.93-2.19-3.75-2.3s-1.66-.95-3.48.62-3,1.79-4.55.24-.32-1.66-2.57-1.82-4,.21-4-2,1.23-1.77.26-3.54-1.29-2.32-1.29-2.32l-.08,0a3.08,3.08,0,0,1-.63.46c-2.49,1.29-5.92,1.93-6.13,6a23.83,23.83,0,0,0,1.07,8.14c.21.64-2.19,1.65-1.1,3a3.26,3.26,0,0,1,.67,2.79h16.87l9.36.38,4.92-2.2A2.92,2.92,0,0,0,407.4,138.23Z" fill="#454d62"/><path d="M443.64,125.23s-6.36-3.43-8.69-9A40.26,40.26,0,0,0,439.14,98c0-17.86-10.83-32.33-24.19-32.33S390.76,80.18,390.76,98c0,13.29,6,24.69,14.58,29.66L404,132.94s-10.92,7.38-15.09,8.56-14.78-1.18-19.92,3.32-12.84,18.52-12.52,29.44,0,8.88-2.36,12.09-7.92,14.35-7.06,25.05-.64,10.6-.64,10.6-3.75-4.39-15.42-9.63-24.51-24.3-24.51-24.3,5.78-10.92,9-14.45a5.3,5.3,0,0,0,.43-7s1.07-3.11-2.47-5.36a4.42,4.42,0,0,0-2.07-4.74s1.65-8.28.5-9.28-3.42-3-4.71-2.5-2.57,3.86-2.57,3.86-.71-.93-3.21-.86-9.13.07-9.49,1.21-1.5,8.14-2.35,11.28-4.43,5.14-2.93,8.42,6.6,15.74,6.39,23.23,3.32,3.32,11.67,22.7,16.8,31.47,27.29,40,11.67,8,15.1,5.14,16.91-15,20-21.3,17.87-31.15,18.3-40.9A117.72,117.72,0,0,0,393,214.3c4.07,6.85-8.24,17.87-3.74,29.65l-2.86,14.81,8.85,10.56s38.83-6.28,49.53-18C444.78,251.34,444.71,147.71,443.64,125.23Z" fill="#f19967"/><path d="M388.44,248.21s-9.89,4.2-9.89,6.12,4.28,3.43,1.5,4.93-7.92,3.64-7.06,6.42-.43,4.5-1.72,6,.75,11.14,4.18,11.14-.75,13.26-.11,15.83a87.64,87.64,0,0,1,2.78,18c.22,7.71,5,25.9,1.63,42.6s-11.48,17.13-11.48,28.7,0,47.63-10.27,67.7-12.85,32.71-22.27,48.23-9.42,36.08-23.12,39.51-47.11,1-60,7.7-59.95,6.66-59.95,6.66H313.46c56.53,0,101.14-8.17,129.79-4.09s17.52,4.09,73.19,4.09,57.38-7,89.06,0,43.68,0,43.68,0-30.83-6.66-52.24-10.94-43.81,4.28-61.73-1.71-21.34-34.47-25.63-41.22-7.7-25.48-5.13-48.23-6.05-58.71-7.74-81S494.64,331,489.26,319s-22.5-52.66-22.5-52.66l-10.27-24s-20.13,14.56-35.54,18-23.13,1.28-28.27-2.57A10.53,10.53,0,0,1,388.44,248.21Z" fill="#dfeaf6"/><path d="M517.35,543.38c-3.67,11-17.22-3.63-29,6.35s-63.91-2.27-87-9.59-42.16,7.32-64.82,2.79c-7.6-1.52-9.68-9.42-9.11-19.22-3.32,9.5-6.62,17.63-14.78,19.67-13.71,3.42-47.11,1-60,7.7s-59.95,6.66-59.95,6.66H313.46c56.53,0,101.14-8.17,129.79-4.09s17.52,4.09,73.19,4.09,57.38-7,89.06,0,43.68,0,43.68,0-30.83-6.66-52.24-10.94-43.81,4.28-61.73-1.71-21.34-34.47-25.63-41.22a19.07,19.07,0,0,1-1.1-2.09C509.81,515.7,520.48,534,517.35,543.38Z" fill="#b9cbdb"/><path d="M378.55,254.33a1.49,1.49,0,0,0,.05.36,3.49,3.49,0,0,1,.13-.83A.93.93,0,0,0,378.55,254.33Z" fill="#b9cbdb"/><path d="M354.66,536.58a20.35,20.35,0,0,0-6.15,5c-1.92,2.23-3.05,4.94-4.67,7.36a21.05,21.05,0,0,1-5.3,5.59,13.4,13.4,0,0,1-3.26,1.67,4.76,4.76,0,0,1-1.74.37,1.37,1.37,0,0,1-.79-.19.94.94,0,0,1-.34-.45c-.09-.24-.12-.24-.1,0-.91-.43-.22-2.23.38-2.6.15-.1.37-.47.59-.6a5,5,0,0,1,1-.39c.5-.16,1-.29,1.48-.49a11.73,11.73,0,0,0,2.86-1.73,25.75,25.75,0,0,0,4.72-5.53,35.06,35.06,0,0,1,5.07-6.19,22.15,22.15,0,0,1,6-3.75C355.47,534.15,355.4,536.21,354.66,536.58Z" fill="#b9cbdb"/><path d="M354.41,534.62a22.15,22.15,0,0,0-6,3.75,35.06,35.06,0,0,0-5.07,6.19,25.75,25.75,0,0,1-4.72,5.53,11.73,11.73,0,0,1-2.86,1.73c-.48.2-1,.33-1.48.49a5,5,0,0,0-1,.39c-.22.13-.44.5-.59.6-.6.37-1.29,2.17-.38,2.6,0-.25,0-.25.1,0a.94.94,0,0,0,.34.45,1.37,1.37,0,0,0,.79.19,4.76,4.76,0,0,0,1.74-.37,13.4,13.4,0,0,0,3.26-1.67,21.05,21.05,0,0,0,5.3-5.59c1.62-2.42,2.75-5.13,4.67-7.36a20.35,20.35,0,0,1,6.15-5C355.4,536.21,355.47,534.15,354.41,534.62Z" fill="#b9cbdb"/><path d="M479.13,553.61c-2.21-.43-4.51.13-6.73.16a38.52,38.52,0,0,1-11.6-1.5c-3.81-1.15-7.14-3.34-10.8-4.83a33.59,33.59,0,0,0-3.9-1.29c-.87-.16-1.74-.32-2.62-.44a73,73,0,0,1-7.53-.93c-2.66-.67-3.33-2.53-4-4.95-.74-2.65-1.44-5.31-2.12-8a50.66,50.66,0,0,1-1.58-16.67c.44-5.66,1.55-11.22,2.5-16.81a302.39,302.39,0,0,0,3.5-34.51c.69-12.93.49-25.84-.09-38.77,0-.39-.44-.12-.43.16.34,12.06,0,24.15-.75,36.19a276.26,276.26,0,0,1-4,35.72c-1.1,5.71-2.47,11.39-3.09,17.19a59,59,0,0,0,.81,17c.52,2.88,1.22,5.72,2,8.56.62,2.28,1,5.06,2.58,6.93s3.73,2.33,6,2.57c2.76.28,5.33,1.5,8.06,2a43.22,43.22,0,0,1,8.92,2.26,43.17,43.17,0,0,0,8.42,2.74c6.09,1.19,12-1.47,18.06-1.17a1.18,1.18,0,0,0,1-.65A10,10,0,0,0,479.13,553.61Z" fill="#b9cbdb"/><path d="M386.3,267.65c.24.22.5.4.75.61a29,29,0,0,1-2.44-3.17,36.75,36.75,0,0,1-3.2-6.32,20.27,20.27,0,0,1-1.14-3.51,14.84,14.84,0,0,1-.21-2.66,4.94,4.94,0,0,0-1.33,1.26,3.49,3.49,0,0,0-.13.83c.46,1.73,3.94,3.12,1.55,4.5a35,35,0,0,0,2.56,4.23A30.77,30.77,0,0,0,386.3,267.65Z" fill="#b9cbdb"/><path d="M374.64,277.45a19.55,19.55,0,0,1-2.7-3.77,1.38,1.38,0,0,0,0,.9,14.84,14.84,0,0,0,1.21,2.18,10.73,10.73,0,0,0,4.4,3.71A34.81,34.81,0,0,1,374.64,277.45Z" fill="#b9cbdb"/><path d="M377.58,276a21.38,21.38,0,0,0,6.42,3.26c.8.27,1.62.5,2.43.73l-.37-.17a27.91,27.91,0,0,1-6.38-4.43,19.72,19.72,0,0,1-4.35-6.19,11.5,11.5,0,0,1-1-3.82,15.7,15.7,0,0,1,.19-2.91c-1.19,1-1.93,2-1.56,3.24a5.12,5.12,0,0,1,0,3.39A12.81,12.81,0,0,0,377.58,276Z" fill="#b9cbdb"/><path d="M322.78,554.59a20.25,20.25,0,0,0,11.08-6.71c3.27-3.89,6.1-8.2,9.08-12.32s6.12-8.45,9.06-12.76a61.54,61.54,0,0,0,6.79-12.86c1.78-4.71,3.3-9.52,4.84-14.3,1.78-5.52,3.51-11.05,5.12-16.62s2.93-11.29,4.43-16.94c.16-.63-.48-.76-.66-.15-1.37,4.77-3,9.46-4.53,14.2s-3,9.54-4.61,14.3-3.14,9.34-4.8,14a57.87,57.87,0,0,1-6.08,12.87c-2.7,4.07-5.75,7.93-8.64,11.87-3,4.1-6,8.24-9,12.36-2.61,3.6-5.34,6.77-9.69,8.22s-9.13,2-13.68,2.72c-11.27,1.74-22.62,2.33-33.93,3.62-.59.06-1,.89-1.14,1.68h27.36l4.29-.59A145.6,145.6,0,0,0,322.78,554.59Z" fill="#b9cbdb"/><path d="M404.69,262.2a51.06,51.06,0,0,0,6.31.24,10.6,10.6,0,0,0,1.53,1.74c.4.36.73-.64.6-.91s-.3-.57-.45-.85a54.33,54.33,0,0,0,24-6.89l.4-.25.15-.06a.58.58,0,0,0,.28-.05,22.43,22.43,0,0,0,3.26-1.7,31.86,31.86,0,0,0,3.1-2.46c.31-.27.6-.56.89-.85,0-5.13,0-26.36-.15-50.18-.15.82-.28,1.64-.4,2.45-.05.36-.08.72-.13,1.08a10.32,10.32,0,0,0-1.3-.73,6.51,6.51,0,0,0-5.6-.16c-.51.25-.53,1.66.17,1.33a5.9,5.9,0,0,1,5.19.38,11.73,11.73,0,0,1,1.34.86c-.16,1.32-.34,2.63-.47,3.95-.4,4.29-.65,8.58-1,12.86a87.4,87.4,0,0,1-2,12.88c-1,3.94-2.08,8.19-4.14,11.72-1.91,3.29-4.92,5.59-7.44,8.34a56.92,56.92,0,0,1-5.49,1.69,53.2,53.2,0,0,1-12.94,1.53c-.27-.51-.53-1-.77-1.54-1-2.23-1.65-4.65-3-6.74a11,11,0,0,0-4.67-4,19.54,19.54,0,0,0-6.22-1.5c-.61-.08-.91,1.28-.32,1.38,4,.64,8.56,2.36,10.58,6.11,1.07,2,1.64,4.21,2.57,6.26h-.39c-4.8-.24-9.81-1.18-13.48-4.51-1.92-1.75-2.79-4-3.59-6.39s-1.72-4.84-2.74-7.19a15.06,15.06,0,0,0,.9,3.9l-1,5a18.36,18.36,0,0,0,3.06,6.85C394.6,259.84,399.66,261.65,404.69,262.2Z" fill="#d57940"/><path d="M428.49,173.05a46.82,46.82,0,0,1,6.35.28l-.52-.25a22.56,22.56,0,0,0-3.67-1.22,26.38,26.38,0,0,0-8.11-.68,30.4,30.4,0,0,0-13.28,4.47c-4.07,2.38-8.14,5.28-12.73,6.56-5.07,1.42-9.79-.52-14-3.23-2.1-1.35-4.11-2.86-6.14-4.31-.53-.37-1.09-.77-1.62-1.21,4.51,5.46,10.28,11.77,17.75,12l.1,0,1.41-.05,1.15-.06v0h0c4.33-.75,8.14-3.74,12-5.74a65.34,65.34,0,0,1,12.82-5.26,33.84,33.84,0,0,1,6.76-1.12c.61,2.48,1.21,5,1.82,7.43.3,1.23.6,2.46.93,3.69a12.77,12.77,0,0,0,1.26,3.35c.28.47.71-.27.71-.54a34.1,34.1,0,0,0-1.41-7.8Q429.25,176.15,428.49,173.05Z" fill="#d57940"/><path d="M371.74,175c-1.79-.14-3.52.77-5.08,1.52a46.93,46.93,0,0,0-5.09,3c-.43.28-.46,1.6.16,1.23,1.4-.83,2.9-1.51,4.36-2.23a13.76,13.76,0,0,1,4.71-1.74,4.35,4.35,0,0,1,3.75,1.72,20.45,20.45,0,0,1,2.13,4.23c.22.45.58-.13.54-.42C376.82,179.34,375.27,175.32,371.74,175Z" fill="#d57940"/><path d="M374.71,196.84c.17,5.26-1.44,10.39-3.29,15.26a19.22,19.22,0,0,1-3.65,6.36,14.54,14.54,0,0,1-5.58,3.53c-.19.08-.26.59,0,.58,2.23-.11,4.22-1.65,5.69-3.22a19.67,19.67,0,0,0,3.83-6.48c2-5.15,3.64-10.59,3.32-16.16C375,196.4,374.7,196.62,374.71,196.84Z" fill="#d57940"/><path d="M309.13,153.28a7,7,0,0,1,1,1.2,2.5,2.5,0,0,1,.36,1.19c-2.3-1.62-5.56-2.37-8.07-2.84l-2.17-.4a3.25,3.25,0,0,0-1.85-.08,1.65,1.65,0,0,0-.73.87,16.69,16.69,0,0,1-.93,1.9,23.39,23.39,0,0,1-5.65,6.17c-.32.24-.19,1.14.26.77a28.44,28.44,0,0,0,4.52-4.59,25.89,25.89,0,0,1,2-2.72c.31-.29.39-.39.87-.33.25,0,.53.16.77.22l1.94.52c2.25.6,4.63.94,6.7,2.07a8.16,8.16,0,0,1,2.34,1.92,27.78,27.78,0,0,0-5.16-1.5,3.19,3.19,0,0,0-2.92.54,16.48,16.48,0,0,0-2.16,2.33,16.85,16.85,0,0,1-7.37,4.42c-.14,0-.17.38,0,.33a19.32,19.32,0,0,0,5.69-2.88c.78-.57,1.56-1.16,2.28-1.8.37-.33.68-.73,1.06-1.06a1.8,1.8,0,0,1,2-.31c1.09.27,2.16.71,3.23,1.08a26.7,26.7,0,0,1,3.45,1.33,9,9,0,0,1,2.88,2.15,6,6,0,0,1,.91,1.56,7.53,7.53,0,0,0-1.34-.91,25.65,25.65,0,0,0-4.13-1.62,5.56,5.56,0,0,0-2.13-.33,3.23,3.23,0,0,0-1.88.88,26.18,26.18,0,0,1-9.24,4.16c-.22.06-.3.64,0,.58a26.21,26.21,0,0,0,7.28-2.62c.62-.32,1.21-.69,1.81-1,.75-.45,1.32-1,2.22-.51,1.13.56,2.26,1.11,3.43,1.64,2.16,1,5.32,2.77,5.11,5.58-.1,1.39-1.32,2.42-2.22,3.37-.41.43-.79.88-1.18,1.33.1-.33.2-.66.27-1,.21-1,.38-1.91.58-2.86.09-.47.12-1.27-.36-1.58a17.49,17.49,0,0,0-3.61-2.07,3.62,3.62,0,0,0-3.55.69,9.87,9.87,0,0,0-2.3,3.09c-.63,1.11-1.22,2.31-2.59,2.6-.71.15-.95,1.92-.1,1.79a3.4,3.4,0,0,0,.89-.27.81.81,0,0,0,.06.33,31.81,31.81,0,0,1,1.69,7.1,30.71,30.71,0,0,0,2.06,7.14,73.44,73.44,0,0,0,7.57,13.05c.92,1.26,2-1.2,1.65-2.05-1.07-2.38-2.2-4.66-3.5-6.93-.64-1.14-1.3-2.28-1.93-3.43-1.53-2.05-2.44-3.39-2.44-3.39s.16-.32.43-.82c-1.54-4-2-8.34-4-12.15.1-.1.21-.2.3-.3.82-.92,1.29-2.09,2.1-3a2.5,2.5,0,0,1,2.78-.9,4.41,4.41,0,0,1,1.23.75,2,2,0,0,0,.06.92,7.93,7.93,0,0,1,.25.83h0a2.07,2.07,0,0,1,0,.22c0,.14,0,.28.07.42s.08.55.12.82.05.25.09.37l-.05-.18s0,.16,0,.21l.06.26s0,.15,0,.18a1,1,0,0,0,.24.54,9.32,9.32,0,0,0,.05,1.17.64.64,0,0,0,.26.45l-.13.17c-.35.52-.18,2.14.68,1.37.33-.31.62-.65.94-1a37.49,37.49,0,0,1,3.43-4.79,5.74,5.74,0,0,0,1.36-2.4,5.89,5.89,0,0,0-1.18-4.57A1.56,1.56,0,0,0,316,166a4.49,4.49,0,0,0-.25-2.18,5.59,5.59,0,0,0-2.26-2.53,2.82,2.82,0,0,0,.08-.45l-.19-.16A5.63,5.63,0,0,0,312,157a5.79,5.79,0,0,0-.59-.47l0-.13s-.07-.08-.11-.11a1,1,0,0,0,.12-.71,4.57,4.57,0,0,1,0-1.73c.06-.58.11-1.16.15-1.73.1-1.1.2-2.21.2-3.31a2.77,2.77,0,0,0-1-2.23c-.22-.2-.46-.38-.7-.57l-.32-.45a4.8,4.8,0,0,0-2-.87c0,.19,0,.39.1.46.76.72,1.66,1.4,1.74,2.55a2,2,0,0,1-.88,1.81,2.11,2.11,0,0,0-.73,1.52c-.22-.22-.43-.45-.65-.66a24.58,24.58,0,0,0-2.59-2.19c-.11.25-.18.43-.18.43s-.61-.77-2.63-.85A13.79,13.79,0,0,1,306.6,151C307.44,151.74,308.31,152.49,309.13,153.28Z" fill="#d57940"/><path d="M393.43,210.49c-2.13-4.43-4.35-8.84-6.2-13.4a81.25,81.25,0,0,1-4.11-13.59c0-.18,0-.35,0-.53,0-.57-.44-1.05-1-.88s-.91,1.08-.95,1.63a96.86,96.86,0,0,1-2.52,17.19,113.29,113.29,0,0,1-6.17,16.4c-4.4,10.2-9.59,19.87-16.59,28.55a108.14,108.14,0,0,1-12.45,13,3.54,3.54,0,0,0-.67,2.81c1.71.29,2.81-.52,4.37-1.84,3.42-2.89,16.91-15,20-21.3s17.87-31.15,18.3-40.9c0,0,.81,2.24,2.09,5.32a39.47,39.47,0,0,0,5.42,8.23C393.23,211.51,393.57,210.77,393.43,210.49Z" fill="#d57940"/><path d="M390,143.51c2.86-1.17,6.1-3.38,9.31-2.18a3.45,3.45,0,0,1,1.16.74,40.54,40.54,0,0,0-6.41,2.06,33.3,33.3,0,0,0-15,12.07c-.35.52.06,1.62.58.87a30.77,30.77,0,0,1,15.09-11.26,38.65,38.65,0,0,1,7.22-1.69c.09.16.18.31.26.47a10.87,10.87,0,0,0,2.83,3.42,10.32,10.32,0,0,0,4,1.78c.59.13,1.43.19,1.8.77a11.67,11.67,0,0,1,.56,2.09,7.35,7.35,0,0,0,5.63,4.52c6.57,1.3,11.15-4.52,16.32-7.39a10.37,10.37,0,0,1,5.8-1.54c.95.09,1.41.29,1.71,1.2s.6,2,.87,3a83.64,83.64,0,0,1,2.4,12.74,1.93,1.93,0,0,0,.25.72c-.17-17.84-.41-33.43-.75-40.65a23.14,23.14,0,0,1-2.07-1.33c0,.2,0,.4,0,.58.12,3.13.12,6.26,0,9.39-.08.68-.18,1.37-.21,2.06a2.16,2.16,0,0,0,.1.72v.08a1.23,1.23,0,0,0-1.81.54l-1.82,3.32a2.94,2.94,0,0,0-.2,3,1,1,0,0,0,.66.39c-3,.26-5.78,1.85-8.19,3.59-2.69,1.95-5.36,4.43-8.67,5.25-2.34.58-5.55.15-7-2-.77-1.09-.63-2.53-1.37-3.65-1-1.48-2.67-1.45-4.19-2a7.48,7.48,0,0,1-2.58-1.54c1.46-.08,2.92-.12,4.39-.1a26.49,26.49,0,0,0,5.27-.09c.63-.13.8-1.32.22-1.59a14.31,14.31,0,0,0-5.63-.88c-1.38,0-2.76,0-4.13.14a2.66,2.66,0,0,0,.11-.28,2.27,2.27,0,0,0,.05-1.13,2.05,2.05,0,0,0-.83-1.65,11.3,11.3,0,0,0-1.08-.59c-.68-.37-1.36-.72-2-1.07s-1.53-.73-2.3-1.09c-3.57,2.27-8.77,5.4-11.36,6.13-4.18,1.18-14.78-1.18-19.92,3.32l-.22.22c3.59,0,7.19.08,10.79.07S386.64,144.9,390,143.51Z" fill="#d57940"/><path d="M341.64,219.08a31.63,31.63,0,0,1,8.83,8.19,32.13,32.13,0,0,1,3.11,5.08c.41.85.79,1.73,1.16,2.61a11.89,11.89,0,0,0,1.2,2.55c.29.4.65-.23.65-.5a13.83,13.83,0,0,0-1.65-6,30.69,30.69,0,0,0-3.22-5.4,28.38,28.38,0,0,0-4.65-4.83c-.27,1.25-.63,1.23-.63,1.23a26.73,26.73,0,0,0-5-4C341.33,218.42,341.35,218.9,341.64,219.08Z" fill="#d57940"/><path d="M427.09,222.11a2.4,2.4,0,0,0-2.35.74,3.4,3.4,0,0,0-.76,1.61,11.62,11.62,0,0,0-6.38,0c-.64.17-.85,1.81-.09,1.63A10.31,10.31,0,0,1,425,227.3v0a1,1,0,0,0,.17.11c.82.34,1.42-1.78.69-2.15l-.18-.08h0a.62.62,0,0,1-.26-.27s0-.23,0-.14v0a.51.51,0,0,1,.28-.22,2.49,2.49,0,0,1,1.38,0,2.86,2.86,0,0,1,.72.13c.26.12.34.25.64.25s.44-.57.41-.8a2.29,2.29,0,0,0-.66-1.13A2.17,2.17,0,0,0,427.09,222.11Z" fill="#d57940"/><path d="M413.64,88.19a5.12,5.12,0,0,0-1.4.89c-.43.42-.65.93-1.28.66a20.09,20.09,0,0,0-1.83-1,6.73,6.73,0,0,0-2.44-.32c-1.37,0-2.76.9-4.12.72a3.71,3.71,0,0,1-1.56-.78,11.28,11.28,0,0,1-1-.74c0-.17.06-.33.08-.5.05-.51.2-1.6-.48-1.81l-.07,0a.77.77,0,0,0-.71.26c-1.21,1.28-2.47,3.29-2.2,5.15.24,1.58,2.23,2.25,2,4a5.62,5.62,0,0,1-.91,1.77,4.93,4.93,0,0,0-.57,3,3.4,3.4,0,0,0,1.11,2,7.47,7.47,0,0,0,.63.57,4.84,4.84,0,0,0,.13,4.92,4,4,0,0,1,.77,2.29,8.83,8.83,0,0,0,.54,3.22,7.46,7.46,0,0,0,3.88,3.86c1.9.58,3.84-.91,5.25-2a2,2,0,0,0,.55-1,2.54,2.54,0,0,0,1.71-2.17,1.8,1.8,0,0,0-.86-2,3.44,3.44,0,0,0-1.28,0,7.14,7.14,0,0,1-6.29-3.91A12.47,12.47,0,0,1,402.1,101c0-.17-.05-.34-.08-.51a.27.27,0,0,0,0-.09s0-.09,0-.13c-.2-1.25-.38-2.5-.57-3.75.06-.08.12-.15.17-.23s0,0,0-.06l.09-.1a2,2,0,0,1,.16-.2,14.38,14.38,0,0,1,1-1.06l.55-.49.14-.11.29-.22a24.27,24.27,0,0,1,2.5-1.37,6.24,6.24,0,0,1,2.05.33,4,4,0,0,0,2.41.27,4.46,4.46,0,0,0,2-1.45c.58-.71.73-1.6,1.25-2.33C414.37,89.13,414.41,87.83,413.64,88.19Z" fill="#d57940"/><path d="M429.7,113.78a12.57,12.57,0,0,0-1.81-2.35,13.88,13.88,0,0,0-2.55-1.43c-1-.6-1.62-1.25-2.87-1.25-1.05,0-2.07.31-3.14.27a7.8,7.8,0,0,0-3.22.34,7.24,7.24,0,0,0-2.52,1.68,5.25,5.25,0,0,1-.86.9c-.33.21-.41,0-.87.11a2.12,2.12,0,0,0-1.18,2.28,1.78,1.78,0,0,0,1.94,1.71c.94-.08,1.64-1.07,2.27-1.66a3.93,3.93,0,0,1,2.32-1.11c1.1-.12,2.2.08,3.31-.09A8.11,8.11,0,0,1,422,113a2.1,2.1,0,0,1,1.23.59c.76.57,1.69.82,2.48,1.33a6.46,6.46,0,0,1,1.74,2.07c.6.9,1.14,2,2.37,1.61a1.52,1.52,0,0,0,.9-1.4A4.5,4.5,0,0,0,429.7,113.78Z" fill="#d57940"/><path d="M438.18,101.11c-.66-.15-1.17.37-1.49,1l-.05,0a30.46,30.46,0,0,0-.62-9c-.5-2.31-.82-4.65-1.47-6.92a10.49,10.49,0,0,0-1.24-3.94c-.32-.57-.69-1.11-1.05-1.65-.19-.35-.39-.69-.58-1,.42-.79.51-1.87-.19-2.29C430,76.34,428.25,76,426.8,75a23,23,0,0,1-3.37-3.66c-2.33-2.59-5.86-2.76-8.86-1.23a11.3,11.3,0,0,1-2,1,8.4,8.4,0,0,1-2.74,0,2.52,2.52,0,0,0-2,.67c-.52.49-.65,1.25-1.15,1.73a4.55,4.55,0,0,1-2,.79,13.21,13.21,0,0,0-2,.78,5.6,5.6,0,0,0-2.79,2.84c-.35.73.31,2.09,1,1s2.47-1.15,3.67-1.24a6.35,6.35,0,0,0,3.5-1.06,3.47,3.47,0,0,0,.69-.79s.45-.63.2-.49c.42-.23,1.71.18,2.21.18a9.54,9.54,0,0,0,4.2-1.47,5.87,5.87,0,0,1,4.52-.31c1.33.5,2.11,1.81,3,2.87a11,11,0,0,0,5.51,3.91,2.65,2.65,0,0,0,.06.3,12,12,0,0,0,1.06,2,29.69,29.69,0,0,1,2.1,4.41.06.06,0,0,1,0,0,5.39,5.39,0,0,1-1.69-.5,7.07,7.07,0,0,0-3.66-.59,7.82,7.82,0,0,0-4.87,2.57c-.17-.25-.31-.52-.49-.76s-.45-.54-.68-.8-.6-.55-.81-.84c-.36-.49-.92-.21-1.21.21a1.81,1.81,0,0,0-.11,1.81c.15.29.22.7.35,1s.34.81.53,1.2a16.55,16.55,0,0,0,1.3,2.28.91.91,0,0,0,1.46,0,7.06,7.06,0,0,1,2.12-1.86,5.77,5.77,0,0,1,2.79-.64c1.24,0,2.19.7,3.34,1a4.38,4.38,0,0,0,2.16.07,28.55,28.55,0,0,0,.93,3.61,14.27,14.27,0,0,1-.14,7.67c-.31,1.16-.59,1.89-1.92,2a8.84,8.84,0,0,1-3.92-.94c-.46-.18-.88.09-1.21.53a7.07,7.07,0,0,0-4.11.42c-1.27.63-1.76,3.91.13,3.91.86,0,1.69-.22,2.56-.14a8.7,8.7,0,0,1,2.41.55,7.64,7.64,0,0,1,2.2,1.34,6.39,6.39,0,0,0,2.25,1.41c1.84.51,4.41-.8,5.57-2.2a8.48,8.48,0,0,0,1.32-2.74,32.31,32.31,0,0,0,.94-3.29C439.2,102.77,439.16,101.34,438.18,101.11Z" fill="#d57940"/><path d="M443.25,553.65,309.5,170.08s-4.17-1-5.56,2-2,2.67-2,2.67l132,378.86Z" fill="#2f6c8c"/><path d="M419.31,69.46a9.18,9.18,0,0,0-6.5,2.65c-1,.94-2.14,1.57-2.68.34-1.07-2.46-2,0-2.25,2.25s-2.78.53-4.6,1.82-2,6.42-3.1,9.53-3.11,2.24-3.21,3.64S401,91.51,400.28,94s-3,4.6-1.6,5.56,1.18,3.64.11,5.14,1.92.32,2.35,5.89.76,7.57-1.39,8.78,1.93.78,2.67,3.85,4.88,3.31,2.55,6-8.65-1.17-8.65-1.17l-5.56-12.95-2.68-18.52,1.5-14.35L396.75,71l11.67-5.24,6.8-1.29,12.58,4.5,9.42,11.34,3.42,14.67.64,9.74-3.1,11.78s-2.74-1-2-2.84.14-3.51.14-5.65-1.43-3.07-.93-5.57-.36-3.45-1.21-5.11-.72-2.38-.64-5.1a15.39,15.39,0,0,0-1.79-7.56c-1.21-2.36-3.14-2.36-4.07-4.78s.43-1.93-1.92-3.86-2.36-3.92-3.64-5.64A3.73,3.73,0,0,0,419.31,69.46Z" fill="#415779"/><path d="M388.44,248.21s1.46,16.72,23.69,13.42,32.65-12.7,32.65-12.7l3.14,2.35,12.52,51.87,6.95,16.7,21.5-1.57a75.23,75.23,0,0,1,4.3,15.43c1,7.22-11.87.7-17.43,4s-16.07,3.57-18.67,0-8.45-7.85-7.17-12-4.71-6.3-7.42-13.64,4.57-14.34,3.71-18.47-3.6-9.57-5.37-11,3.66-8.42-1.91-9.56-8.13-4.57-16-6-20.7,3.71-27.13-.72S388.44,248.21,388.44,248.21Z" fill="#b9cbdb"/><path d="M399.43,115.16s2.89-2.24,4.17,0,3-1.57,4.82-1,4.92.78,5.67,3.35.86,1.39,4.07,1.28,4.93.33,6.21-.42,1.18-2.47,2.36-3.54,1.17-.43,2.14-2.24,1-4.39,3.53-2.68,3.64-2.68,5.46.32,4.5,4.92,3.42,7.49,5.69.87,2.45,9.72-1.52,12-4.37,16-3.75,1.17-5.46,2-1.61,2.46-2.14,3.43-2.14-1.82-2.79,0a4.13,4.13,0,0,1-3.64,2.89c-1.39,0-.84,2.57-3.31,2.24s-4.18,2.57-5.68,1.4-4-2.79-4.07-3.86,1.29-3.32-.1-3.74-4.18-.54-5.25-1.29-1-1.39-1.07-3.1-1.61-2-2.57-2.36-.32-2.89-.86-3.42.27-1.17-1.28-1.5a2.67,2.67,0,0,1-2.25-3.11,13.61,13.61,0,0,0-1.28-6.1c-.86-2-1.07-9.85-1.07-9.85Z" fill="#415779"/><path d="M407.43,117s-1.05-4.59,1.36-6.62,2-2.95,3.19-3,2.81-1.24,3.87-.81,4.26,1.13,5.36.06.58-1.86,4.41-.72,4.83,0,4.46,1.87,6,1.42,1.66,5.22c-2.47,2.16-2,4.68-3.68,2.85s-1.66-3.39-3-3.55-1.42-3.19-3.16-2.19-2.23-.2-3-.08a8.56,8.56,0,0,0-4.12,1.73c-1.59,1.26.2.47-1.28,2.75s.93,4.38-1.84,4A8.27,8.27,0,0,1,407.43,117Z" fill="#454d62"/><path d="M407.56,115.16s-1.17-3.74,1.18-5.46,1.93-2.46,3.11-2.56,2.78-1.08,3.85-.75,4.28.83,5.35-.07.54-1.54,4.39-.68,5.14,0,4.82,1.5,4.39,2.89,1.5,4.17-1.86,3.88-3.61,2.42S426.4,111,425,110.88s-1.5-2.58-3.21-1.72-2.24-.11-3,0a9.77,9.77,0,0,0-4.08,1.51c-1.55,1.07-.67.45-2.09,2.35s1.08,4.07-1.71,3.86S407.56,115.16,407.56,115.16Z" fill="#415779"/><path d="M454.35,122.66c-.86-3-1.08-3.64-.22-6.64s-1.93-4.5-2.35-6,.42-4.92-1.07-6.42l-.13-.1a2.31,2.31,0,0,0-.38-.28,7.89,7.89,0,0,0-.54,2.3,11.75,11.75,0,0,1-.83,3.63c-.64,1.71,2.14,2.58,2.3,2.77s-.32,2.59-1,3-.86,1-1.18.91-2.62-1.07-3.21.27-2.63-1.23-3.53-1.88-1.34,1.62-1.34,1.62h0c-1.28,1.33-3.59,4.12-2.43,5.86,1.57,2.36,4.25,5.5,1.45,6.78s-3.39-4.14-3.85,1-3.59,5.28-5.09,4.71-1.79.64-2.86,1.28a5.52,5.52,0,0,1-4.42,0c-.86-.57-2.64.36-3.68,1.29s-3.82-3.28-5-1-.86,4.46-1.5,5.19-1.93,2.16-3.28.88-.14-1.79-1.36-1.29c-.88.37-2.6,1.15-3.48,1.55a2.12,2.12,0,0,1,.52,1.31c.11,1.71,0,2.35,1.07,3.1s3.85.86,5.25,1.29,0,2.67.1,3.74,2.57,2.68,4.07,3.86,3.21-1.72,5.68-1.4,1.92-2.24,3.31-2.24a4.13,4.13,0,0,0,3.64-2.89c.65-1.82,2.25,1,2.79,0s.43-2.57,2.14-3.43,2.6,2,5.46-2,1.14-7.14,4.37-16a12.36,12.36,0,0,0,.87-3.83l1.23.59c.17.11,4.45-.31,4.45-.31l4.2-.86C454.43,122.91,454.38,122.77,454.35,122.66Z" fill="#454d62"/><path d="M443.25,120.18l2.67-.73,3.57,3,5.85-1.5,3.57,2.22.57,2.57,5,1v-2.14l7.42,2.85v2.69H479L488.6,136l-1.78,4.71s7.06,11,7.35,18.42,2.54,20.27,2.54,20.27l2,4.28s-1.57,7.56-3.29,8.85.15,6.71-3.71,10-3.14,5.71-8,8.71-4.85,2.57-4.57,13.41,3.43,6.57-.57,13-2.43,10.42-2.14,16-1.57,20.27,3.14,30.26,10.56,13,10.56,28.12-7.42,7.85-9.42,11.56-3.14,4-8.85,3.71-12,3.43-12.56-4.57-3.71-9.13-6.85-12.84,4.57-13.71-.29-22-8.27-6.86-7.42-9.42.23-54.53,0-73.09S443.25,120.18,443.25,120.18Z" fill="#dfeaf6"/><path d="M495.06,168.51c0-.19-.05-.39-.07-.58l.06.54Z" fill="#b9cbdb"/><path d="M498.17,185.21c-.23,2.61-1.35,4.75-2.39,7,1.58-1.91,3-8.52,3-8.52l-.61-1.28A14.64,14.64,0,0,1,498.17,185.21Z" fill="#b9cbdb"/><path d="M494.3,161.5l.06.6c-.09-1-.16-2-.19-3a26,26,0,0,0-2-8c.11.51.22,1,.31,1.54C493.75,155.44,494,159.19,494.3,161.5Z" fill="#b9cbdb"/><path d="M493.66,199.86a15.25,15.25,0,0,0,.88-4.44c-.33,1.27-.47,2.59-.73,3.86C493.77,199.48,493.7,199.67,493.66,199.86Z" fill="#b9cbdb"/><path d="M457.39,211.15c0-.3-.31,0-.3.18,1.46,21,1,42.1,3.52,63a155,155,0,0,0,2.91,17.15c.06.24.3-.06.27-.21-3.56-20.67-4.39-41.51-5.33-62.42C458.2,222.93,457.86,217,457.39,211.15Z" fill="#b9cbdb"/><path d="M470.63,199.81c-.56,6.84-1.32,13.66-2,20.49,0,.39.38.35.44,0a276.07,276.07,0,0,0,4.16-36.61c.67-12.26.87-24.58.42-36.85-.2-5.58-.55-11.15-1-16.72h-.79v-2.69l-.65-.25A469.49,469.49,0,0,1,470.63,199.81Z" fill="#b9cbdb"/><path d="M466.38,241c.05-.63-.54-.35-.61.11a109.7,109.7,0,0,0-.89,18,76.66,76.66,0,0,0,2.24,17.2c.07.24.28-.08.26-.21-.54-5.83-1.23-11.63-1.44-17.49A146.09,146.09,0,0,1,466.38,241Z" fill="#b9cbdb"/><path d="M444,123.36l.56-.31a11.33,11.33,0,0,1,1-.56l.17-.08h0l0,0h0a1.28,1.28,0,0,0,.24.11l.17,0a3.6,3.6,0,0,1,.58.45l1.14.93c.29.24.6,0,.83-.2,2.45,18.39,4,36.87,5,55.39.3,5.44.42,10.93,1.09,16.34.09.77.76.16.81-.31.85-9.69.13-19.62-.51-29.31s-1.46-19.52-2.74-29.21c-.63-4.81-1.36-9.61-2.12-14.4l-.81.2-3.57-3-2.67.73s.4,20.3.79,41.6c.17-6.81.28-13.62.27-20.44C444.3,135.34,444.18,129.35,444,123.36Z" fill="#b9cbdb"/><path d="M456.21,142.91c.35,3.2,1.5,6.15,2.34,9.23.9,3.29,1.17,6.67,1.91,10,0,5.45,0,10.91-.18,16.36s-.35,10.78-.23,16.18c0,.73.62.4.69-.13,1.38-9.64,1.44-19.42,1.47-29.14q.06-14.28-.74-28.55c-.21-3.62-.41-7.26-.81-10.87l-1.18-.23-.57-2.57-3.57-2.22-1,.25c.37,3.2.72,6.41,1,9.61C455.57,134.85,455.78,138.9,456.21,142.91Z" fill="#b9cbdb"/><path d="M477.85,180.45c-.65,5.29-1.52,10.78-1.51,16.12,0,.59.56.54.67,0,1.11-5.2,1.58-10.59,2.4-15.85.8-5.11,1.69-10.2,2.63-15.29.27-1.46.55-2.91.82-4.37.7-1.2,1.59-2.56,3.18-2.32s1.65,2.16,1.95,3.43a67.16,67.16,0,0,0,3,9.51c1.16,2.93,2.63,5.74,3.61,8.74a10.83,10.83,0,0,1-.24,8.47c-.64,1.35-1.38,2.65-1.9,4.06a25.87,25.87,0,0,0-1.08,4.52,14.28,14.28,0,0,1-3.24,7.22,23.43,23.43,0,0,1-6.23,5,7.81,7.81,0,0,0-4.42,6.71,39.07,39.07,0,0,0,.84,10.23,31.17,31.17,0,0,0,2.28,7.29c.29-1.49-1.21-1.91-1.4-9.25-.28-10.84-.28-10.42,4.57-13.41s4.14-5.43,8-8.71a6.94,6.94,0,0,0,1.92-2.66c0-.19.11-.38.15-.58.26-1.27.4-2.59.73-3.86.13-1.33.27-2.41.91-2.89a2.57,2.57,0,0,0,.33-.33c1-2.24,2.16-4.38,2.39-7a14.64,14.64,0,0,0,0-2.81l-1.42-3s-.91-5.2-1.65-10.89v0l-.06-.54c-.25-2-.48-4-.63-5.83l-.06-.6c-.26-2.31-.55-6.06-1.83-8.84-.09-.51-.2-1-.31-1.54a69.89,69.89,0,0,0-5.34-10.41L488.6,136l-.73-.45c-4.56,9.1-6.24,19.2-7.82,29.15Q478.81,172.56,477.85,180.45Z" fill="#b9cbdb"/><path d="M402.92,95.67c1.11-.08,2.22.22,3.34.2a7,7,0,0,0,3.27-.8,11.87,11.87,0,0,0,1.39-.91c.2-.16.39-.34.59-.51a.38.38,0,0,0-.26-.23,8.2,8.2,0,0,0-1.89-.62,1.79,1.79,0,0,0-1.74.79,1.67,1.67,0,0,0-.16.53,9.47,9.47,0,0,1-1.07.13c-.85.06-1.69-.08-2.53,0a4.14,4.14,0,0,0-1.66.56,7.28,7.28,0,0,0-.47.82C402,95.86,402.62,95.69,402.92,95.67Z" fill="#fff"/><path d="M422.26,93.32c.58,0,1.15,0,1.73.06a9.17,9.17,0,0,0,3.3.11,8.05,8.05,0,0,0,2.61-1.44,9.82,9.82,0,0,0,1-1,.56.56,0,0,0-.55-.47,4.09,4.09,0,0,0-1-.41A5.45,5.45,0,0,0,428.2,90a21.6,21.6,0,0,0-2.41.11,13.21,13.21,0,0,0-2.65.3,2.9,2.9,0,0,0-1,.6,3.35,3.35,0,0,0-.49,1.33c0,.27-.08.54-.12.82,0,0,.08,0,.11.07C421.82,93.29,422,93.32,422.26,93.32Z" fill="#fff"/><path d="M421.76,93.28a1.3,1.3,0,0,0,.22-.46c.09-.47-.15-1,.25-1.34a3.32,3.32,0,0,1,.37-.23,2.45,2.45,0,0,0,2.67,2,6,6,0,0,0,1.82-.43,3.66,3.66,0,0,0,.88-.45,2.24,2.24,0,0,0,.65-.84.59.59,0,0,0,0-.14.31.31,0,0,0,.18-.14l0-.08a.8.8,0,0,0,.05-.21v-.18a.31.31,0,0,1,0-.1h0v0a4.36,4.36,0,0,1,1.09.41,3.14,3.14,0,0,1,.51.39l.6-.65a6.46,6.46,0,0,0-1.69-1,8.7,8.7,0,0,0-4.22-.57,4.39,4.39,0,0,0-2.87,1.43,3.34,3.34,0,0,0-.71,1.7c0,.28-.07.55-.11.82l.1.07Z" fill="#824c24"/><path d="M402.08,95.77c.18-.18.32-.39.51-.56a9.41,9.41,0,0,1,.92-.75c.15-.1.31-.18.46-.27a.75.75,0,0,0,.11.28,2,2,0,0,0,.48.43,3.87,3.87,0,0,0,1.16.51,3.42,3.42,0,0,0,1.27.13,4,4,0,0,0,1.21-.42,4.79,4.79,0,0,0,1.09-.8,3.23,3.23,0,0,0,.46-.52,1.19,1.19,0,0,0,.17-.44,12.82,12.82,0,0,1,1.09.72l.7-.57a11,11,0,0,0-2.39-1.57,7,7,0,0,0-3.42.15,6.38,6.38,0,0,0-3.27,2.13,9.37,9.37,0,0,0-.9,1.44A.56.56,0,0,0,402.08,95.77Z" fill="#824c24"/><path d="M430.12,85.55a3.82,3.82,0,0,0-2.73-1.62,5.07,5.07,0,0,0-3,1.18,16.72,16.72,0,0,1-3.24,1.5c-.38.15-.89.4-1.29.23a3.44,3.44,0,0,1-1.06-1c-.3-.37-.72-.19-1,.16a1.47,1.47,0,0,0-.09,1.45A3.69,3.69,0,0,0,420,89.51a3.34,3.34,0,0,0,1.7-.3c.63-.22,1.26-.45,1.88-.73,1.06-.49,1.91-1.26,2.91-1.84s2.11-.13,3.15.18C430.13,87,430.4,85.86,430.12,85.55Z" fill="#824c24"/><path d="M414.27,86.31c-.39-.55-1-.21-1.28.22a2.88,2.88,0,0,1-2.06,1.41,8.76,8.76,0,0,1-3.38-.28c-1.11-.3-2-.94-3.12-.39a5.75,5.75,0,0,0-2.72,2.23c-.11.19-.2.6.08.69,1.15.37,1.89-.79,3-.87.54,0,1.12.38,1.6.59a10.1,10.1,0,0,0,1.82.64,6.68,6.68,0,0,0,3.41,0,5.36,5.36,0,0,0,2.55-2.32A1.87,1.87,0,0,0,414.27,86.31Z" fill="#824c24"/><path d="M423.51,103.41c-.08-.21-.22-.24-.35-.39s-.16-.34-.26-.48c-.24-.32-.44.31-.39.49l.1.4a1.36,1.36,0,0,1-.4.5,4.94,4.94,0,0,1-1,.53,4.6,4.6,0,0,1-2.65.42,10.18,10.18,0,0,0-2.72-.54,3.78,3.78,0,0,1-1.3,0c-.19-.06-.65-.39-.51-.62a.64.64,0,0,0,.06-.61.22.22,0,0,0-.38,0,2,2,0,0,0,.48,2.84,4.8,4.8,0,0,0,1.85.81c.72.19,1.38.51,2.12.63a6,6,0,0,0,4-1.24,2.85,2.85,0,0,0,1.34-1.52A2,2,0,0,0,423.51,103.41Z" fill="#824c24"/><path d="M422.24,112.42a2.1,2.1,0,0,0-1.42,0c-.41.13-.82.44-1.28.33a2.34,2.34,0,0,0-.83-.15,2.8,2.8,0,0,0-.84.34c-.6.31-1.2.62-1.82.89-.26.12-.31.94,0,.81a8.73,8.73,0,0,1,1.58-.48c.25,0,.51-.1.76-.12a1.28,1.28,0,0,1,.7.24,2.08,2.08,0,0,0,1.35.05c.2,0,.4-.12.6-.16a1.78,1.78,0,0,1,.69,0,1.05,1.05,0,0,0,1.31-.67C423.27,113,422.73,112.6,422.24,112.42Z" fill="#824c24"/><path d="M425.58,114.67a2.47,2.47,0,0,0-1.06.5c-.35.21-.7.41-1.06.59a7.12,7.12,0,0,1-2.7.82,7.82,7.82,0,0,1-2.72-.38,4.66,4.66,0,0,0-2.55-.32c-.47.12-.62,1.33-.06,1.2a5.55,5.55,0,0,1,2.73.52,5.73,5.73,0,0,0,2.82,0,10.45,10.45,0,0,0,2.59-1,5.46,5.46,0,0,0,2.07-1.6C425.69,114.89,425.73,114.65,425.58,114.67Z" fill="#824c24"/><path d="M396.64,54.84A12.45,12.45,0,0,1,398,61a14.66,14.66,0,0,1-1.81,6.42c1.14.28,2.22.6,3.37.81a34.82,34.82,0,0,0,7.9.46l8.11-1.49.31-.11a30.37,30.37,0,0,0,9.27-4.74c.3-.24.47-.4.17-.67a13.32,13.32,0,0,1-4.48-8.08,26.25,26.25,0,0,1-.15-3.08l.21,0,2.77,1.86c1.56-3-.32-7.52-3.4-8.25-.18.45-.38.89-.53,1.33a19.26,19.26,0,0,0-.32,12.06c.86,2.95-1.1,5.53-5.43,7.1l-1.17.37-2-10.86,2.63.82C413.21,52.45,410,48,407.63,47a13.57,13.57,0,0,0-2.56,9.42l2.17-1.66,2,10.8c-3.88.41-6.67-.61-7.87-2.19a6.42,6.42,0,0,1-1-3.42,19,19,0,0,0-4.52-10.23c-.29-.35-.64-.67-1-1-3,3.07-2.36,6.88-.16,8.93Z" fill="#af8c51"/><path d="M397.14,54.81a11.92,11.92,0,0,1,1.37,6.1,14.31,14.31,0,0,1-1.87,6.35c1.15.26,2.25.57,3.41.78a35.94,35.94,0,0,0,8,.4l8.25-1.51.31-.1a32.14,32.14,0,0,0,9.44-4.73c.31-.24.48-.4.18-.67a12.85,12.85,0,0,1-4.51-8,25.58,25.58,0,0,1-.14-3l.22,0,2.8,1.82c1.6-3-.29-7.42-3.41-8.13-.19.45-.38.88-.55,1.32a18.61,18.61,0,0,0-.38,11.91c.85,2.9-1.15,5.46-5.56,7-.38.14-.78.25-1.18.37-.65-3.56-1.29-7-2-10.7l2.66.79c-.25-2.44-3.5-6.77-5.89-7.76a13.22,13.22,0,0,0-2.65,9.32l2.21-1.65,2,10.65c-3.93.42-6.77-.56-8-2.12a6.2,6.2,0,0,1-1-3.37,18.41,18.41,0,0,0-4.54-10.08c-.29-.34-.64-.66-1-1-3.06,3-2.44,6.8-.21,8.82Z" fill="#fbc56f"/><rect width="841.89" height="595.28" fill="none" stroke="#fff" stroke-miterlimit="10"/></svg>