<svg id="Layer_1" data-name="Layer 1" xmlns="http://www.w3.org/2000/svg" viewBox="0 0 841.89 595.28"><path d="M435.78,192.66s15.41-4.68,28.49,0,32.7-2.06,37.1-2.08,5.47,0,5.47,0a5.1,5.1,0,0,1,3.57-4.53c3.56-1.31,9-3.09,12.72-2.26s3.8-3.33,7.73-3.92,5.94-1.55,6.42,0-1.79,4.87-4.88,5.7-5.59,2.14-5.7,3.57,2.14,2.38,2.14,4.52,6.31,1.55,8.5,3l11.95,1.67a26.65,26.65,0,0,1-14.15,4.94c-8.44.41-7.37,1.72-8.92-1s-2.85-5.48-6.78-6.78-11.41-2.94-15.1-2.78-30,5.4-39.95,1.24S435.78,192.66,435.78,192.66Z" fill="#d57940"/><path d="M435.78,192.66s.19,27.4,10.9,28.82,16.76-.24,20.45-1.9,29.6-13.79,34.48-13.08,5.47-.12,9.15-1.43,11.18,5.35,15.22,5.24,1.19-1.79,7.14-1.67,5.82-2.61,5.82-2.61,4,.23,4.64-.24,2-1.88,2-1.88,4.16.83,4.52-.67,4.76-5.54,6.9-5.89,3.56-2.26,2.61-3-6.78-1.08-8.08,1.07a6.35,6.35,0,0,1-3.86,2.63s3.26-3.93,1.6-4.77-5.18,1.36-6.19,5c0,0,0-2.39-1.78-2.86s-2.61,1.24-4.4,4.52-6.54,3.28-6.54,3.28-.71-9.31-8.92-10.58-12-.78-12-.78l-5.59.22-17.24,2.15-10.35.62a16.61,16.61,0,0,1-3.23-.13l-6.39-.93a18.62,18.62,0,0,1-2.67-.56l-1.82-.51a40.31,40.31,0,0,0-9.13-1.5l-3.58-.18a33.35,33.35,0,0,0-7.79.52Z" fill="#f19967"/><path d="M499.94,205.43c-5.47-.71-26.39,9.39-37.09,3.45s3.81-15.07,3.81-15.07a20.09,20.09,0,0,1-2.67-.56l-1.82-.51a40.31,40.31,0,0,0-9.13-1.5l-3.58-.18a33.35,33.35,0,0,0-7.79.52l-5.89,1.08s.19,27.4,10.9,28.82,16.76-.24,20.45-1.9,29.6-13.79,34.48-13.08,5.47-.12,9.15-1.43c1.88-.66,4.73.73,7.61,2.25,0,0-2.14-2.37-8.44-3.41S505.41,206.14,499.94,205.43Z" fill="#d57940"/><path d="M466.33,71.42s10.94,6.19,12.84-1.9-4.6-10.46-4.6-10.46,2.1-3.65-1.65-10.78S464,38.92,457.45,37s-12.68-3.65-16-5.86-17.76-.32-16.65,4.43-5.86,6.35-8.87,8.41-3.18,4.5-4.76,8-9.51,8.37-6.82,16.13-1.58,6.19-6.18,11.89-13.48,3.33-12.05,8.56-2.69,4.28.63,10.47,11.58,4.75,16.17,5.55,22.2-13.32,22.2-13.32Z" fill="#415779"/><path d="M281.16,210.1s40.56,100.24,55.48,145l7.78-3.61s-37.58-107.47-54.7-144.17C289.72,207.37,285.12,205.46,281.16,210.1Z" fill="#a25341"/><path d="M463.12,262.37s18.53,45,10.64,78.25-20.6,51.48-20.6,60.06-8.23,13.05-8.92,22.31,1,36.73-6.52,49.43-17.16,39.12-3.78,47.7,34,15.45,36.38,18.54,2.37,4.11-3.27,5.14-18,1.38-24.87-1.37-17.5-2.4-23-.34-16,4.12-15.89-4.46,8.34-16.82,5.59-35.7-5.59-38.78-5.59-38.78-1.47-42.56,0-43.93,20.35-70,20.35-70S425.71,282.62,463.12,262.37Z" fill="#f19967"/><path d="M448.66,279.91C440.49,296.22,415.6,396.1,415.6,396.1l.51,44c0-1.07.23-17.2,21.13-56.16,6.75-12.58,21.27-18.67,30-21.31a217.61,217.61,0,0,0,6.49-22c7.25-30.58-7.79-71-10.29-77.36C463.47,263.26,456.83,263.59,448.66,279.91Z" fill="#d57940"/><path d="M416.11,440.19v0Z" fill="#d57940"/><path d="M464.54,535.2a33,33,0,0,1-9.15-1.89c-6.86-2.74-17.5-2.4-23-.34s-16,4.12-15.88-4.46,8.33-16.82,5.59-35.69S416.51,454,416.51,454s-1.47-42.56,0-43.93,20.35-70,20.35-70,1.57-50.39,26.61-76.83l-.35-.89c-37.41,20.25-39.47,86.83-39.47,86.83s-18.88,68.65-20.35,70,0,43.93,0,43.93,2.84,19.91,5.59,38.78-5.49,27.12-5.59,35.7,10.39,6.52,15.89,4.46,16.13-2.4,23,.34,19.22,2.4,24.87,1.37,5.68-2.06,3.27-5.14C469.65,537.79,467.52,536.62,464.54,535.2Z" fill="#d57940"/><path d="M467.76,60.33c-6.82-15.22-25.53-17.28-40.11-11.42S418.93,69,411.48,83.47s-17.76,13.79-24.74,17-5.38,5.08-11.09,7.14-9.51-1.11-12.84,2.22-8.56,4.75-12.84,11.73S341.72,131,341.88,136s-3.17,6.18-5.07,7.76-7.45,5.08-9.2,12.37-5.55,15.22-9,17.91-2.07,3.49-2.38,8.25-4.12,4.28-4.12,8.88-3.49,16.17-2.54,24.57,8.88,24.25,10.62,30.91-1.27,6.66-1.27,12.84.95,5.87-.79,9.36-3.81,2.06-4.44,4.75a42.72,42.72,0,0,1-1.66,4.67,13.26,13.26,0,0,0-3.65,4.29,6.78,6.78,0,0,0-.52,4.2c-.8,1.7-.34,2.43.08,2.73.24.54,1.1.58,2.42,1.39,2.06,1.27,5.07.32,5.07.32s-5.39,4.6-4.28,7.93S316,300.5,316,300.5s-1.27,1.59-3,3.33-1.91,3,1.74,5.87,9.67-4.6,12.68-8.13,6.19-.75,9.67-5.66-.95-19.82,1.91-27.59-.8-12.84-3-22,.8-19,3.49-30.44-4.12-16.49,0-20.77-.63-4.28,5.87-8.56,16-11.73,16-11.73c2.85,9.35,15.54,14.26,20.77,19.81s1,11.89,6.81,18.08,4.44,10.94,4.44,10.94c-3,7.92,0,13.53,0,13.53,26.64,17.49,67.54,4.5,67.54,4.5a65.37,65.37,0,0,1-3.57-25.09c.95-13.32-8.8-14.27-7.61-24.73s-3.09-14.27.48-26.63-6.9-23.9-6.9-23.9c-2.26-13-5.23-8.45-6.89-12.73s-7.85-6.3-7.85-6.3c-1.31-7.73,6.06-11.53,6.06-11.53,4.64,4.16,15.22,7.61,15.82,5.35s.59-5,2.73-4.76.83-1.78,2.73-2.49,1.43-3.33,1.43-3.33h5.46c1.89,0,.25-5.47,0-9.75s2.62-3.33,3.33-5-1.58-2.22,1.59-9.82S467.76,60.33,467.76,60.33Z" fill="#f19967"/><path d="M387.17,287.66s-2.23,5.08,1.58,40.59,6.34,45.34,4.75,52.63-1.58,17.76-10.46,28.54-16.81,29.48-12.68,43.12,12.36,44.39,9.51,56.12,3.8,14.27,1.74,20,7.14,21.88,8.4,29.49,34.56,1.59,35.83-3.49-5.91-9.19-13.1-20.92-13.55-8.88-15.13-21.88-1.57-25.68,4.77-37.1,8.88-45.65,8.56-54.85,13.32-15.54,17.44-30.44,9.51-33.29,13.32-46.92,10.14-49.47,5.07-59.61S411,241.37,387.17,287.66Z" fill="#f19967"/><path d="M396.71,549.19c-1.27-7.61-10.47-23.78-8.41-29.49s-4.59-8.24-1.74-20-5.39-42.49-9.51-56.13,3.8-32.34,12.68-43.12a41.85,41.85,0,0,0,8.92-19.78s8.37-21.91,36-13.57h0c2.5-8.72,5-17.35,7-24.61a234.78,234.78,0,0,0,6.38-36l-2.42-8.9,1.93-12.54a11.92,11.92,0,0,0-.82-2.2c-4.88-9.76-33.49-39.13-56.83-.19q-.45.75-.9,1.53c-.63,1.1-1.25,2.21-1.87,3.41,0,0-2.23,5.08,1.58,40.59s6.34,45.34,4.75,52.63-1.58,17.76-10.46,28.54-16.81,29.48-12.68,43.12,12.36,44.39,9.51,56.12,3.8,14.27,1.74,20,7.14,21.88,8.4,29.49,34.56,1.59,35.83-3.49a4.9,4.9,0,0,0,.14-1.06c0-.1,0-.21,0-.31a5,5,0,0,0-.08-.77c0-.11-.05-.22-.08-.32a7.13,7.13,0,0,0-.27-.82c0-.08-.06-.17-.1-.26-.16-.35-.34-.71-.55-1.08h0C414.61,553.12,397.61,554.59,396.71,549.19Z" fill="#d57940"/><path d="M497.09,202.84l.12,5.34c-.9-.76,3.92,2.44,3.92,2.44L526,199.68,509.6,212.33l.14,5.29,6.69,1.64,21.23-20.66,7.16.36,5.89-.36h0c6.3-5.11,4.33-11.67,4.33-11.67s-6.34,11.79-13.33,5c-5.75-5.61,8.52-9.38,8.52-9.38s-15.81-1.94-15.16,6.86l.4,2.08Z" fill="#dfeaf6"/><polygon points="497.09 202.84 501.44 205.23 528.63 197.62 525.98 199.68 501.13 210.62 497.21 208.18 497.09 202.84" fill="#b9cbdb"/><polygon points="509.6 212.33 516.43 213.79 539.42 195.97 537.89 198.19 516.43 219.26 509.74 217.62 509.6 212.33" fill="#b9cbdb"/><path d="M550.23,182.53s-11.09,4.41-8.34,9.55a4,4,0,0,1-1.29-5.88C542.9,182.28,550.23,182.53,550.23,182.53Z" fill="#b9cbdb"/><path d="M555,186.93a10.22,10.22,0,0,1-.33,8.82c-2.42,4.68-8.6,4.84-8.6,4.84S554.85,193.6,555,186.93Z" fill="#b9cbdb"/><path d="M550.12,203.24c.36-1.49,4.76-5.54,6.9-5.89s3.56-2.26,2.61-3-6.78-1.08-8.08,1.07a6.35,6.35,0,0,1-3.86,2.63s3.26-3.93,1.6-4.77-5.18,1.36-6.19,5c0,0,0-2.39-1.78-2.86s-2.61,1.24-4.4,4.52Z" fill="#f19967"/><path d="M536.77,193.54a1.16,1.16,0,1,0-.4,1.49A1.09,1.09,0,0,0,536.77,193.54Z" fill="#b9cbdb"/><path d="M456.81,106.84a4.06,4.06,0,0,0-.93-.82,3.64,3.64,0,0,0-1-.52,9.21,9.21,0,0,0-1.56-.33l-1.51-.27a.94.94,0,0,0-.78.35c-.33-.13-.63-.31-1-.42.29-.48.31-1-.29-1-.9,0-2.2,1.91-1,1.91a1,1,0,0,0,.49-.17s0,0,0,0a21.11,21.11,0,0,1,2.92,1.49,13,13,0,0,0,1.39.82c.26.11.51.24.76.37l.31.15.09.1a2.59,2.59,0,0,0,.4.41,1.11,1.11,0,0,0,1.3-.17,1.49,1.49,0,0,0,.67-1.2A1.45,1.45,0,0,0,456.81,106.84Z" fill="#824c24"/><path d="M452.28,109.38l-.18-.16-.12-.11-.07,0q-.2-.14-.39-.3c-.25-.21-.51-.4-.75-.62a6.14,6.14,0,0,1-.69-.75c-.21-.25-.66,0-.85.15s-.42.54-.23.82a6.11,6.11,0,0,0,1.47,1.53,3.58,3.58,0,0,0,.89.46,2,2,0,0,0,1.19.15c.17,0,.4-.22.34-.43S452.5,109.57,452.28,109.38Z" fill="#824c24"/><path d="M409.47,172.29a12.65,12.65,0,0,1-12.18-4.93c-2.74-3.14-4.81-6.82-8-9.58-2.95-2.58-6.69-4.44-10.69-4.23a12.83,12.83,0,0,0-3.53.73,10.43,10.43,0,0,1,.94-1.07,17.62,17.62,0,0,1,12-4.85c.64,0,1.78-1.39.78-1.49a18.2,18.2,0,0,0-11.89,3,21.52,21.52,0,0,0-7.37,8.46,10.3,10.3,0,0,0-.78,1.33.77.77,0,0,0-.1.54c-.12.28-.25.55-.37.84a65,65,0,0,1-3.08,7.06,44.47,44.47,0,0,1-4.12,6.11c-.61.77-1.26,1.51-1.9,2.25l2.17-1.68c2.85,9.35,15.54,14.26,20.77,19.81s1,11.89,6.81,18.08,4.44,10.94,4.44,10.94c-3,7.92,0,13.53,0,13.53a55,55,0,0,0,20.29,7.8,6.82,6.82,0,0,0-2.65-1.78c-1.33-.64-2.64-1.34-3.91-2.09a25,25,0,0,1-6.55-5.47,18.54,18.54,0,0,1-3.73-7c-.05-.19-.08-.38-.12-.56.09-2.56.71-5-.31-7.47-.93-2.31-2.62-4.24-4.1-6.2a15.34,15.34,0,0,1-3.18-7.65c-.37-2.73-.67-5.43-2-7.88-2.09-3.75-5.66-6.21-9.09-8.64a63.71,63.71,0,0,1-5.35-4l-.24-.58a37.83,37.83,0,0,1-3.05-12.37,32.31,32.31,0,0,1,.6-7.67l.09-.19c1.17-2.89,2-6,3.47-8.74a11.4,11.4,0,0,1,9.75,0c4.82,2.19,7.66,6.49,10.81,10.52s6.78,6.72,12,6.84a73.42,73.42,0,0,0,8.5-.59,89.68,89.68,0,0,0,9.53-1.25c.28-.05.89-.81.34-.83C419.48,171.19,414.49,172,409.47,172.29Z" fill="#d57940"/><path d="M457.37,216.56a18.61,18.61,0,0,0-3.53-12.89c.33,1.21.72,2.4,1.07,3.56a33.68,33.68,0,0,1,1.55,10.88,45.7,45.7,0,0,1-1.71,10.64c-.5,1.79-1.12,3.53-1.66,5.31-.39,1.28-1.13,3.11-.39,4.35.3.5,1.16,0,1.42-.24a7.86,7.86,0,0,0,2-2.76c.11,1,.26,2.08.47,3.12a22.71,22.71,0,0,1,.54,4.16c2.39-.6,3.77-1,3.77-1A65.37,65.37,0,0,1,457.37,216.56Z" fill="#d57940"/><path d="M338.39,196.87c-.32-1.56-.6-3.14-.77-4.73-.36-3.35-.41-7.35,1.19-10.39.44-.83-.73-.62-1-.1a19.45,19.45,0,0,0-2.91,9.79,54.9,54.9,0,0,0,1.18,10.77c.75,4.17,1.5,8.34,2,12.55.2,1.69.35,3.4.5,5.1.33-1.32.65-2.65,1-4C341.83,206,337.06,200.85,338.39,196.87Z" fill="#d57940"/><path d="M443.34,141.3c-.3-1.74-.62-3.14-.94-4.31-2.09-7.58-4.51-4.71-5.95-8.42-1.37-3.5-5.75-5.48-7.3-6.09-.34-.14-.55-.21-.55-.21a9.88,9.88,0,0,1,1.12-6.64c.31-1,.67-1.95,1-2.92.11-.34.17-.69.26-1a16.27,16.27,0,0,0,.4-12.34,1.18,1.18,0,0,0-.45-.58c.42-3.05,1.17-6.12.9-9.18a11.11,11.11,0,0,0-3.05-6.88,13.46,13.46,0,0,0-3-2.25,7.77,7.77,0,0,0-4.27-.79c-.59,0-2.25,1.06-2,1.87-1.14,1.31-1.24,3.49,1.12,2.76s4.46,2.13,5.17,3.91c1.13,2.8.4,6,0,8.88a27.67,27.67,0,0,0,.28,8.66c.49,2.74,1.29,5.86-.19,8.43a1.6,1.6,0,0,0,0,1.71.32.32,0,0,1,0,.09,18.75,18.75,0,0,0-.53,10c-.19-.19-.37-.4-.56-.58a26.2,26.2,0,0,0-5.33-3.85,23.71,23.71,0,0,0-2.53-1.21A17.22,17.22,0,0,0,420,116.7c1-1.52-.5-2.56-1.73-1.26s-2.64,2.86-4.55,3.24-3.21-.82-4.29-2.18a37.9,37.9,0,0,0-3.37-4.21,18.62,18.62,0,0,0-4.82-3.38c-3.33-1.62-6.92-2.24-9.17-5.45-.92-1.32-1.77-2.78-2.77-4-.88.3-1.73.61-2.54,1s-1.48.72-2.08,1c2.38,2,3.55,5.67,5.94,7.5,3.25,2.48,7.52,3,10.72,5.56a23.13,23.13,0,0,1,4,4.48,8.23,8.23,0,0,0,4.14,3.38,7,7,0,0,0,5.48-.74l.83.49c.9.51,1.76,1,2.61,1.62a32.76,32.76,0,0,1,8.6,8.49c.59.84,1.17,1.69,1.7,2.57l.16.27c.63,1.66,1.29,3.31,1.92,5,.82,2.14,1.57,4.29,2.25,6.47s1.16,4.3,2,6.33c.18.45.79-.14.81-.41.36-4.56-1.54-9.15-3.17-13.3-.33-.86-.68-1.71-1-2.57l0-.1c0-.14,0-.29,0-.43a27,27,0,0,0,12.29,5.85C443.54,141.52,443.34,141.3,443.34,141.3Z" fill="#d57940"/><path d="M464.61,86.59c-1.94-1.58-4.27-2.53-6.35-3.89a1.85,1.85,0,0,0-1.44.06,3.64,3.64,0,0,0-1.49,1.14c-.58.79-1,1.89,0,2.52s2.26,1.31,3.39,1.94c.57.32,1.13.65,1.68,1l.27.19.29.22a8.27,8.27,0,0,1,.63.55,9.29,9.29,0,0,1,1.1,1.24l.27.4a.56.56,0,0,1,.05.08s0,0,0,0c.11.26.27.52.4.77l.05.07c.83-1.07,2.22-1.06,2.69-2.16.36-.83,0-1.39-.13-2.7A9,9,0,0,0,464.61,86.59Z" fill="#d57940"/><path d="M457.9,101.93l-.26-.08c-.12,0-.23-.08-.35-.12l-.39-.18c-.06,0-.26-.17-.11,0a1.82,1.82,0,0,1-.51-.59l0-.07s0,0,0,0a1.62,1.62,0,0,1,0-.23c0,.18.08-.25,0,0l.16-.28a8.35,8.35,0,0,1,.67-.8c.4-.44.71-1.38.12-1.79s-1.53,0-2,.45c-1.28,1.33-2.85,3.22-2.11,5.21.49,1.32,2,1.92,3.22,2.25l1.08.28c0-.2,0-.33,0-.33h5.46c.73,0,.92-.83.89-2.08a16.37,16.37,0,0,0-4.2-1.25C459,102.1,458.43,102.05,457.9,101.93Z" fill="#d57940"/><path d="M335.37,242c-2.23-5.5-4.5-11-6.42-16.61-.05-.16-.34.05-.3.19,2.18,7.28,3.87,14.76,5.8,22.12.95,3.6,2.13,7.14,3.28,10.67.55,1.71,1.1,3.42,1.75,5.1.15.38.3.8.45,1.21.76-5.89-2.07-10.69-3.92-18.35A28.62,28.62,0,0,1,335.37,242Z" fill="#d57940"/><path d="M394,120c.57.38,1.81-.84,1.29-1.38a42.47,42.47,0,0,0-10.52-7.7,29.54,29.54,0,0,0-8.94-3.37l-.18.07c-3.86,1.39-6.85.4-9.41.63a5.35,5.35,0,0,0-2.56.88,5.11,5.11,0,0,0-.87.71c-2.34,2.33-5.6,3.77-8.82,6.79,5.19-3.14,10.85-5.71,16.93-5.71C379.37,110.87,387.19,115.4,394,120Z" fill="#d57940"/><path d="M341.88,136a6.8,6.8,0,0,1-1.27,4.5,9.61,9.61,0,0,1-.73,3.17c-1.29,3-3.41,5.59-4.74,8.55-.36.8.54,1,1,.48a49.43,49.43,0,0,0,5.56-7.39,13.21,13.21,0,0,0,2-8.08,26.38,26.38,0,0,1,.35-7.43A9.81,9.81,0,0,0,341.88,136Z" fill="#d57940"/><path d="M466.64,70.9c-1.56-1.82-1.6-4.36-2.74-6.4A5.08,5.08,0,0,0,459,61.58a6.57,6.57,0,0,0-4.73,3.35,8,8,0,0,0-.9,5.59c.2,1.17.59,2.3.88,3.45a11.5,11.5,0,0,1,.23,1.14,17.72,17.72,0,0,0-3.16-1,6,6,0,0,0-5.72.64c-.3,0-.59,0-.89.1a3.38,3.38,0,0,0-2.54,2.29,1.6,1.6,0,0,0,0,.71c-.26.33-.5.67-.71,1-1.23,1.92-2.15,4-3.39,5.93a39.64,39.64,0,0,1-4.44,5.64c-.62.65-1.55,1.87-.78,2.75s2.18.06,2.82-.48c.28-.24.52-.5.79-.74a3.62,3.62,0,0,0,1.63-.8,48.56,48.56,0,0,0,7.83-8.06q.81-1.07,1.56-2.16c.3-.42.67-1.23,1.12-1.5.63-.37,1.76-.08,2.44,0a12.73,12.73,0,0,0,2.69,0h0a4.86,4.86,0,0,0,4.42-2.59c1.05-1.89.47-4.15-.08-6.09s-1-3.38-.34-5.17a2,2,0,0,1,.86.24A4.41,4.41,0,0,1,460.37,68c.91,2.25,1.22,4.61,3,6.44a16.93,16.93,0,0,0,5.33,3.37,28.52,28.52,0,0,0,.49-4.94A9.43,9.43,0,0,1,466.64,70.9Z" fill="#d57940"/><path d="M316,300.5s-.68.85-1.71,2a10.08,10.08,0,0,0,3-1.77c1.23-1,4-3.85,4.46-5.39.3-1-.82-1.12-1.43-.68-.28.2-2.06,1.8-2.31,2s-.41.43-.27.29.05-.05-.08.08l-.24.25c-.19.19-.38.39-.56.6l-.07.07v0c-.2.2-.4.4-.61.59s-.2.2-.31.29l-.18.15-.23.18-.36.22-.18.09-.39.17-.32.11c.24-.07-.24,0-.24,0a3,3,0,0,1-2.46-.48,3.74,3.74,0,0,1-.47-.43.9.9,0,0,1,0,.16C312.23,302.41,316,300.5,316,300.5Z" fill="#d57940"/><path d="M338.26,271.6c-1,1.87-2.3,3.56-2.84,5.7-.68,2.68-.51,5.52-.51,8.27s.36,5.87-.13,8.64c-.39,2.19-2.39,2.65-4.19,3.47a18.51,18.51,0,0,0-5.86,4.17c-1.58,1.66-3,3.83-5.12,4.89-2.54,1.28-5.44-.21-7.4-1.9-.81,1.31-.35,2.58,2.56,4.86,3.36,2.63,8.73-3.49,11.91-7.23.45,7.82,5.7,7.24,6.32,6.95s.3-4.64-.41-7.31a3.94,3.94,0,0,1,1.1-3.33,7.51,7.51,0,0,0,3.43-2.87C340.17,291.62,337.18,279.72,338.26,271.6Z" fill="#d57940"/><path d="M320.16,246.6c1,3.7.47,5.34-.16,7.13a47.63,47.63,0,0,0-.16,7.92,17,17,0,0,0,1.09,4.71,8.49,8.49,0,0,0,3,3.57c1.26,1,3.92-1.24,2.84-2.56a13,13,0,0,1-1.85-3.52,14.14,14.14,0,0,1-1-3.84c-.34-3.17.14-6.35.24-9.51.18-5.73-1.54-11-3.93-16.1-2.3-5-5-9.79-6.3-15.14a38.9,38.9,0,0,1-.71-9.93c.05-2.91.14-5.81.33-8.71a55.41,55.41,0,0,1,1.3-9.44A38.84,38.84,0,0,1,316.8,185a26.3,26.3,0,0,0,1.49,3.18,18.4,18.4,0,0,0,1.84,2.84,5.83,5.83,0,0,0,2.48,2.15,1.52,1.52,0,0,0,1.76-1.34,6.54,6.54,0,0,0-1.1-2.61c-.51-.92-1-1.82-1.56-2.73a24.29,24.29,0,0,1-2.28-5.45,17.44,17.44,0,0,1-.49-7.36c-.12.11-.24.25-.36.34-3.49,2.7-2.07,3.49-2.38,8.25s-4.12,4.28-4.12,8.88-3.49,16.17-2.54,24.57S318.42,239.94,320.16,246.6Z" fill="#d57940"/><path d="M315.4,291.15a21,21,0,0,0-2.06,2.11h.05a.47.47,0,0,0,.39.15,1.41,1.41,0,0,0,.88-.46,9.81,9.81,0,0,0,1.9-.92,6.46,6.46,0,0,0,1.73-1.52c.32-.42,3.39-2.59,3.22-3.15a.33.33,0,0,0-.41-.19c-1,.19-4.37,2.45-5.18,2.94a6.72,6.72,0,0,1-2.67.86,7.4,7.4,0,0,1-5.37-1.66c.16.67,1,.66,2.45,1.53C312.39,292.1,315.4,291.15,315.4,291.15Z" fill="#d57940"/><path d="M311.85,278.35a12.73,12.73,0,0,0-3.5,4.16,6.74,6.74,0,0,0-.52,4.18c.31-.78.72-1.7,1.27-2.83C310.46,281.08,311.29,279.5,311.85,278.35Z" fill="#d57940"/><path d="M469.16,50.81S458.8,43,457.61,42.49s-22.59-4-22.59-4l-14.51,6.42-9,14.5-3.81,18.31L390.31,93.86s-2.14,6.65,0,10.73,10.7,4.48,15.93,11.14,4.28,7.85,14,1.91-5-8.57-5-15,5.71-10,6.66-17.59c.64-5.14,3.24-3.56,6.83-1.48a4.15,4.15,0,0,0,0,1c.47,5.39.31,14.33,2.06,19.14s-3.06,4.32-2.09,8.76-3.62,5.87-2.19,9.67,2.3,4.44,3.6,8.72,5.75,3.65,10.35,7,4.6,4,6.66,0-.16-8.25,1.74-10.15a8.06,8.06,0,0,1,1.52-1.17,11,11,0,0,0,2.27-3.74,10.26,10.26,0,0,0,.27-4.4c-.46-1.33-.88-2.67-1.38-4-.82-1.14-2-2.14-2.36-3.42-1.22-1.28-2.61-2.91-1.93-4.77.6-1.63,1.68-1.14,3.31-.86,1.11.19,1.76-.13,3.13.15a6.53,6.53,0,0,1,1.82.49c.16.11.32.22.47.34l.05,0a3.07,3.07,0,0,1,.64.5,2.51,2.51,0,0,1,.48.76l.16-.1a1.37,1.37,0,0,1,.18-.15l.06,0,.22-.22.09-.1h0l.05-.07,0-.07a1.8,1.8,0,0,0,.11-.2l.08-.21h0a1.12,1.12,0,0,1,.05-.31,3.21,3.21,0,0,0-.15-1.65,3.43,3.43,0,0,0-1.39-1.6c-1.05-.62-3.16-1.33-3.67-.72-.79.95-6.34,3-9.19-.23s-5.55-6.43-4.44-8.81c1-2.09,1.58-3.71-.25-7.1,3.75-1.41,6.13-5.75,6.83-9.07,1-4.52,8.8,1.67,10.7,0s-4-10.22,1.19-14,6.66,8.09,9.51,10.23,3.57-5.76,3.57-5.76Z" fill="#415779"/><path d="M457.85,62.94a3.47,3.47,0,0,1,1.51-.67c-2.27-.68-4.29-.83-4.77,1.42-.77,3.67-3.4,8.47-7.55,10a15.2,15.2,0,0,1,.73,1.58c2.69-.24,7.46,2.92,8.89,1.67C458.56,75.31,452.62,66.75,457.85,62.94Z" fill="#344661"/><path d="M410.66,106.57c-5.79-7.36-15.26-7.82-17.63-12.33a8.31,8.31,0,0,1-.76-2.2l-2,1.82s-2.14,6.65,0,10.73,10.7,4.48,15.93,11.14,4.28,7.85,14,1.91c4.35-2.66,3.83-4.64,1.91-6.6C415.58,114.72,415.6,112.87,410.66,106.57Z" fill="#344661"/><path d="M437.1,123.32c-1.45-4.73-2.41-5.43-4-9.64s3.5-5.79,2.43-10.7,4.23-4.39,2.3-9.7-1.75-15.21-2.28-21.17a6.79,6.79,0,0,1,0-1.11c-4-2.3-6.84-4-7.55,1.63a23.18,23.18,0,0,1-3.38,9,14.82,14.82,0,0,1,4.13,1.93,4.15,4.15,0,0,0,0,1c.47,5.39.31,14.33,2.06,19.14s-3.06,4.32-2.09,8.76-3.62,5.87-2.19,9.67,2.3,4.44,3.6,8.72,5.75,3.65,10.35,7,4.6,4,6.66,0c1.28-2.47.9-5.06.9-7.12C443.14,127.43,438.5,127.9,437.1,123.32Z" fill="#344661"/><path d="M466.79,49c-4,4.52,1.61,12.93-.36,14.66-.85.74-2.78.07-4.84-.67,2.44,2.27,3.75,8.63,5.77,10.15,2.85,2.14,3.57-5.76,3.57-5.76l-1.77-16.6Z" fill="#344661"/><path d="M466.29,86c-.36-.46-.75-.85-1.16-1.28-.76-.81-1.47-1.67-2.29-2.43a14.93,14.93,0,0,0-2.43-1.84,7.79,7.79,0,0,0-1.32-.67c-.51-.17-1.07-.29-1.59-.41s-1.15.81-.64,1a11.57,11.57,0,0,1,2.61,1.3,14.23,14.23,0,0,1,2.28,1.82,15.08,15.08,0,0,1,2.09,2.42c.31.46.57.94.9,1.4s.6,1,1.22,1a1,1,0,0,0,.93-.71C467,86.94,466.68,86.54,466.29,86Z" fill="#824c24"/><path d="M460.69,102a4.18,4.18,0,0,0-1.08-.63c-.7-.29-1.45-.45-2.15-.76a3.41,3.41,0,0,1-.89-.52,2.23,2.23,0,0,1-.35-.4,2.68,2.68,0,0,1-.18-.31,1,1,0,0,1-.14-.38s0-.21,0-.12.06-.21,0-.09c0,0,0-.09.07-.13l0,0s.06,0,0,0a1.14,1.14,0,0,1,.43-.19,1.13,1.13,0,0,0,.71-.82.4.4,0,0,0-.51-.46,2.79,2.79,0,0,0-2.2,2.26,2.9,2.9,0,0,0,.1,1.24,2.54,2.54,0,0,0,.76,1.07,7.16,7.16,0,0,0,2.49,1.15,7.41,7.41,0,0,1,1.2.5c.23.12.37.25.57.36a1.25,1.25,0,0,0,.83.12,1,1,0,0,0,.72-.66A1,1,0,0,0,460.69,102Z" fill="#824c24"/><path d="M443,139.71s12.43,79.5-49.64,97.44c0,0,5,11.2,31.34,9,0,0,23.56,7.65,24.53-94.94C449.27,151.26,449.4,143.65,443,139.71Z" fill="#a25341"/><path d="M446,142.25a14.26,14.26,0,0,1,.43,3.22c-1,102.59-24.52,94.94-24.52,94.94-13.74,1.12-21.65-1.4-26.09-4.06-.8.26-1.57.56-2.4.8,0,0,5,11.2,31.34,9,0,0,23.56,7.65,24.53-94.94A15,15,0,0,0,446,142.25Z" fill="#713b2b"/><path d="M393.4,237.15s-13.47,12.27-12.2,30.44S372.64,346,372.64,346s11.41,20.61,34.24,7.61c0,0,14.27,7.61,22.51-.31,0,0,20.61,12,31.55-1.76,0,0,10.68,1.44,14.77-8.39,0,0,10.08-59-14.77-101.5C460.94,241.65,422.73,251.94,393.4,237.15Z" fill="#a25341"/><path d="M472.07,339.73a103.32,103.32,0,0,0-2.91-26.86s1.85,20.85-1.39,30.35c-8.44,5.84-19.76,2-25-.36,2.22-16.44-1.37-34.16-1.37-34.16,1.48,16.42-1.11,28.19-2.84,33.87-6,4.3-14.29,2-18.48.37,1.66-19.25,1.22-52.67,1.22-52.67.09,29.28-3,44.83-5.26,52.23-21.9,11.4-32.85-8.35-32.85-8.35s9.83-60.24,8.56-78.41A36.32,36.32,0,0,1,395.16,238c-.59-.27-1.18-.54-1.76-.83,0,0-13.47,12.27-12.2,30.44S372.64,346,372.64,346s11.41,20.61,34.24,7.61c0,0,14.27,7.61,22.51-.31,0,0,20.61,12,31.55-1.76,0,0,10.68,1.44,14.77-8.39,0,0,.23-1.34.53-3.71A16.79,16.79,0,0,1,472.07,339.73Z" fill="#713b2b"/><path d="M298.79,353s39.33-5.67,67.24-31c0,0,17.06,15.55,15.36,36.62,0,0-30.3,21.49-68.08,29.66C313.31,388.29,303,379.21,298.79,353Z" fill="#415779"/><path d="M315.5,379.44s-8.1-7.19-12.88-27.14c-2.44.49-3.83.69-3.83.69,4.23,26.22,14.52,35.3,14.52,35.3,37.78-8.17,68.08-29.66,68.08-29.66a36.66,36.66,0,0,0-.14-7.28C373.48,356.45,347.11,372.6,315.5,379.44Z" fill="#344661"/><path d="M392.83,235.7s-8.69,7.83-9.13,16.18c0,0,42.31,24.69,84.62,5.31,0,0,.23-10.5-7.38-15.54C460.94,241.65,416.35,249.05,392.83,235.7Z" fill="#713b2b"/><path d="M399.26,259.11a9.06,9.06,0,0,0,4.4.44c1.74-.45,2.57-2.15,3.28-3.65s1.47-3.09,2.1-4.68c1.13-2.87,2.17-6.37.51-9.26a9.24,9.24,0,0,0-2.41-2.54,18.5,18.5,0,0,0-2.88-1.37c-2.05-.71-4.64-.43-6,1.46a24.23,24.23,0,0,0-2,4.3c-1.57,3.55-4.46,10.76-1.33,13.86A39,39,0,0,0,399.26,259.11Z" fill="#fbc56f"/><path d="M405.38,258.72c.17-.2.05-.37-.18-.42a6.94,6.94,0,0,0-1.93.05,8.67,8.67,0,0,1-2.22-.09c-1.31-.19-3.19-.43-4.15-1.45s-.45-3.37-.21-4.75c.28-1.6.59-3.19,1-4.77a41,41,0,0,1,1.41-4.62c.28-.75.62-1.48,1-2.21s.5-1.56,1.25-1.66c2.74-.4,6.11,1.73,7.64,3.86.3.42,1.51.06,1.18-.46a10.24,10.24,0,0,0-2.7-3,10.69,10.69,0,0,0-3.61-1.66,7.39,7.39,0,0,0-4.44,0c-1.6.63-2.46,2.25-3.17,3.72a37.43,37.43,0,0,0-3,9.6,14.6,14.6,0,0,0-.55,4.86c.26,1.68,1.63,2.66,3.11,3.26a11.91,11.91,0,0,0,5.09,1C402.24,259.82,404.37,259.83,405.38,258.72Z" fill="#af8c51"/><path d="M427.61,264a9.17,9.17,0,0,0,4.42-.19c1.65-.7,2.23-2.51,2.71-4.09s1-3.28,1.4-4.94c.7-3,1.22-6.62-.84-9.23a9.25,9.25,0,0,0-2.76-2.17,18.47,18.47,0,0,0-3.05-.93c-2.13-.41-4.65.25-5.7,2.31a25.52,25.52,0,0,0-1.41,4.55c-1,3.74-2.84,11.3.71,13.91A38.83,38.83,0,0,0,427.61,264Z" fill="#fbc56f"/><path d="M433.61,262.72c.14-.22,0-.38-.24-.39a6.83,6.83,0,0,0-1.9.33,9.18,9.18,0,0,1-2.21.24c-1.32,0-3.22,0-4.32-.84s-.93-3.27-.9-4.66c0-1.62.12-3.25.28-4.87a42.9,42.9,0,0,1,.72-4.77c.17-.79.4-1.56.64-2.33s.26-1.61,1-1.83c2.66-.78,6.3.83,8.13,2.71.35.37,1.5-.16,1.1-.63a10.37,10.37,0,0,0-3.12-2.62A10.8,10.8,0,0,0,429,242a7.28,7.28,0,0,0-4.39.64c-1.5.86-2.11,2.59-2.61,4.14a38,38,0,0,0-1.56,9.94,15.06,15.06,0,0,0,.17,4.88c.51,1.63,2,2.4,3.56,2.78a11.88,11.88,0,0,0,5.17.22C430.66,264.27,432.78,264,433.61,262.72Z" fill="#af8c51"/><path d="M457.37,261.13a8.59,8.59,0,0,0,4-1.35c1.32-1.08,1.36-2.88,1.38-4.44s0-3.25,0-4.88c-.16-2.92-.64-6.35-3.22-8.18a8.69,8.69,0,0,0-3.09-1.24,17.93,17.93,0,0,0-3,0c-2.05.19-4.17,1.46-4.58,3.62a23.52,23.52,0,0,0-.07,4.52c.05,3.68.41,11,4.34,12.48A34.82,34.82,0,0,0,457.37,261.13Z" fill="#fbc56f"/><path d="M462.5,258.38c.07-.24-.1-.34-.32-.29a6.27,6.27,0,0,0-1.64.81,8.78,8.78,0,0,1-2,.8c-1.2.35-2.91.89-4.15.39-1.4-.57-1.72-2.74-2.06-4-.39-1.49-.75-3-1-4.51a38.67,38.67,0,0,1-.61-4.54c-.05-.76-.05-1.53,0-2.29s-.18-1.54.42-1.93c2.22-1.42,6-.92,8.12.31.43.24,1.33-.55.84-.86a9.81,9.81,0,0,0-3.54-1.57,10.39,10.39,0,0,0-3.77,0,7,7,0,0,0-3.82,1.76c-1.14,1.17-1.24,2.91-1.27,4.46a36,36,0,0,0,1.21,9.46,14.38,14.38,0,0,0,1.45,4.41,4.23,4.23,0,0,0,4,1.58,11.3,11.3,0,0,0,4.78-1.17C460.23,260.57,462.07,259.74,462.5,258.38Z" fill="#af8c51"/><path d="M461.67,90.35c-.09-.16-.33-.19-.5-.2s-.12,0,0,0a.8.8,0,0,1-.16-.08s-.14-.11-.05,0l-.11-.1a3.44,3.44,0,0,1-.27-.27,13.33,13.33,0,0,1-1-1.32c-.3-.44-.55-.92-.88-1.34-.15-.18-.29-.43-.51-.53s-.21,0-.15,0,0,0,0,0l-.14-.07c-.05,0-.09,0-.13,0a1.76,1.76,0,0,0-.74-.55c-.2,0-.56.22-.4.43a2,2,0,0,1,.37.71c0,.06-.05.11-.06.17s-.05.24-.07.37a2.93,2.93,0,0,0,.16,1,5.14,5.14,0,0,0,1,1.64c.39.45.79.89,1.16,1.36A1.18,1.18,0,0,0,460,92a1.83,1.83,0,0,0,1.64-.92A.65.65,0,0,0,461.67,90.35Z" fill="#fff"/><path d="M461.47,89.24a13.81,13.81,0,0,0-1.39-1.57,21.94,21.94,0,0,0-3.47-2.57c-.44-.28-1.31.66-.79,1,1,.68,2,1.41,2.94,2.17-.09.1-.31.31-.07.08l-.22.24a2.21,2.21,0,0,0-.45.75,1.29,1.29,0,0,0,0,.28c-.09-.14-.18-.27-.26-.41a7.82,7.82,0,0,1-.6-1.1c-.09-.23-.47.07-.42.26.11.43.24.86.39,1.27a7.13,7.13,0,0,0,.63,1.15,6.91,6.91,0,0,0,.77,1,1.7,1.7,0,0,0,1.11.72.3.3,0,0,0,.3-.32,1.93,1.93,0,0,0-.64-.93,4.08,4.08,0,0,0,1.35,0,1.33,1.33,0,0,0,.56-.27c.05,0,.09-.11.14-.15a1.27,1.27,0,0,0,.61.5c.13,0,.3-.13.33-.24C462.43,90.49,461.83,89.73,461.47,89.24Z" fill="#824c24"/><path d="M409,394.8s-3.74,9.83-2.31,20.13Z" fill="#d57940"/><path d="M441.51,398.61a33.63,33.63,0,0,0,0,17.59Z" fill="#d57940"/><rect width="841.89" height="595.28" fill="none" stroke="#fff" stroke-miterlimit="10"/></svg>