<svg id="Layer_1" data-name="Layer 1" xmlns="http://www.w3.org/2000/svg" viewBox="0 0 841.89 595.28"><path d="M298,118.14S259.11,131.59,250.25,205s16.77,94.06,28.8,95Z" fill="#fbc56f"/><path d="M323.67,145.51s-7.91-31.64-25.63-27.37-49.69,70.8-45.26,122.67,25.32,73.41,40.2,49.51,24.68-67.58,24.68-67.58Z" fill="#a57333"/><path d="M322,140.08l-5.32,68.31S306.83,252.06,292,276c-14.27,22.92-34,4-39.56-43.28,0,2.74.15,5.45.38,8.12,4.43,51.87,25.32,73.41,40.2,49.51s24.68-67.58,24.68-67.58l6-77.23S323.11,143.28,322,140.08Z" fill="#8b622a"/><path d="M278.11,172.78a22.19,22.19,0,0,0-3,13.56c.76,8.07,2.73,21.53,11.87,31.73s11.36,7,15.94,4.51,14.4-6.33,14.4-6.33L315.89,198,305,203.71l-19.15-11.36-6.17-14.21Z" fill="#8b622a"/><path d="M327,59.9s4.91-5.22,3.37-14.35S309.39,30,309.39,30s11.55-6.69,39,6.88C372.81,49,381.77,67.32,386.11,79.52S405.7,92.66,410,86c0,0-2.41,17.72-22.66,9.17S327,59.9,327,59.9Z" fill="#c24230"/><path d="M339.66,66.55s-9.34,2.22-11.4,7.6-7.91,7.75-6.33,12,3.64,7.92,2.22,11.87-4,6-3.64,10-.53,5.38,0,10.76,5.73,7.6,6.52,12.34,12.66,12.19,12.66,12.19,48.89,18,54,27.22,26.9,16.77,42.72,9.49,24.05-16.14,29.75-22.15,7-8.55,13-16.14S490.14,131,494.26,131s20.57,2.84,24.37,10.76c0,0,2.21-18-6-21.52s-13.29-7.6-17.09-12-7.91-9.81-15.5-8.23-26.51,4.12-40.51,9.34-27.3,4.51-34.9.71-18.27-6.17-19-9.73-6.88-11.63-6.88-11.63L357.14,73Z" fill="#fde0be"/><path d="M513.09,132.44c-6.06-8.33-22-11.21-25.86-11.21s-8.63,3-14.29,10.33-6.84,9.72-12.2,15.49-13.09,14.27-28,21.25-35.41-.3-40.17-9.11-50.74-26.11-50.74-26.11-11.16-7.14-11.91-11.7-5.65-6.68-6.12-11.84.32-6.53,0-10.33c0-.16,0-.3,0-.46-1.45,3.5-3.64,5.56-3.34,9.26.32,4-.53,5.38,0,10.76s5.73,7.6,6.52,12.34,12.66,12.19,12.66,12.19,48.89,18,54,27.22,26.9,16.77,42.72,9.49,24.05-16.14,29.75-22.15,7-8.55,13-16.14S490.14,131,494.26,131s20.57,2.84,24.37,10.76Z" fill="#dec7aa"/><path d="M326.52,70.41a84.23,84.23,0,0,0,.39-9.79,4.11,4.11,0,0,1,3.35-4.2c4.48-.83,9.71-2.05,16.36-.52l36.39,27,.95,5L344.09,69.4Z" fill="#a57333"/><polygon points="417 259.3 448.05 147.1 453.11 147.1 420.67 264.55 417 259.3" fill="#a57333"/><path d="M325.81,77.47S332,73.2,335.3,73.2c0,0,29.58,2.61,49.63,25.1,0,0-1.44-7.66,2.36-9.67,0,0-34.3-23-53.29-29.2,0,0-7.24,8.43-8.19,12.82Z" fill="#fbc56f"/><path d="M559.61,353.52c-32.28,15-57.92,14.72-108,2.14s-52.22-56.73-54.35-81.18-37.51-47.63-37.51-47.63l-9,2.53-1.9,8.55,4.58,27.53-29.74,60.76,9,97.08,2.69,18.44,3.8,35.92-2.33,47.12s-2.61,8.07-2.85,12.34-4.15,11.19-4.15,11.19S355.8,523.87,374,538.9s90.2,11.87,106.94,12,34.53-9.65,46.4-33.38,3.32,1,38.93-25.64S602.1,342.6,602.1,342.6,591.89,338.57,559.61,353.52ZM334.42,382c-.15,0-.09-.21,0-.21S334.54,382,334.42,382Z" fill="#b9cbdb"/><path d="M392.17,271.9c2.33,26.69,4.66,74.89,59.34,88.62s82.65,14,117.89-2.33c14.83-6.87,25.38-10.06,32.64-11.46.05-2.66.06-4.13.06-4.13s-10.21-4-42.49,10.92-57.92,14.72-108,2.14-52.22-56.73-54.35-81.18c-1.59-18.17-21.53-35.64-31.67-43.41C376.83,240.94,390.8,256.18,392.17,271.9Z" fill="#dfeaf6"/><path d="M329.85,548.31S355.8,523.87,374,538.9s90.2,11.87,106.94,12,34.53-9.65,46.4-33.38,3.32,1,38.93-25.64S602.1,342.6,602.1,342.6s-2.7-1-9.64-.07c-.56,8.41-1.93,30.39-1.68,37.5.32,8.86-2.53,41.14-12,73.1s-33.15,43.28-43.36,44S521.16,504,518.07,514s-17.33,24.44-29.19,29.19S407.87,547,365,532.73c-13-4.33-22.66-4.15-29.86-1.81a36.46,36.46,0,0,0-1.11,6.2C333.76,541.39,329.85,548.31,329.85,548.31Z" fill="#a57333"/><path d="M409.91,118.14s.95,25.63-7.59,32.68l-11.16-15.38,5.7-8.12,7.28-5.86Z" fill="#b9cbdb"/><path d="M329.37,79.61s-2.37,8.78,0,15.19-.71,10.2,3.56,15.66,12.46,14.42,17.84,12c6.11-2.73,3.52,9.35,3.52,9.35s-25.55,5.61-30.62,13.68-3.48,12.66-5.38,15.51-13.45,31.33-14.87,34.34-15.51-8.55-16.14-12.82,3,1.43,6-1.42,12.66-12,10.76-12.66-2.69-1-3-3.48-6.81-4-10-1.27-4.12.48-6.65,3.48-6.49,4.12-6.8,7-.8,16.17,2.05,21.69,12,21.19,16.93,21,18-13.29,18-13.29L314,189.35s19.15,13.45,53.8,7.43c0,0,16.93-17.56,17.88-20.09,0,0,11.4,17.56,15.67,24.84s.16,11.39,4.27,18.36,14.4,21,11.24,25.79-6.17,7-5.54,18,1.71,9.85,1.71,9.85l3.19-9.69s3.8,2.85,2.06,7.12a30.11,30.11,0,0,0-2.06,7.75s8.07.95,8.87-5.22,4.9-13.77,4.27-19.3-4.12-11.4-6.33-27.54-2.69-21.68-8.86-41-9.18-24.53-11.87-35.29S397.89,135.7,388.24,134s-12.51-4.9-15.51-10.6c0,0-5.86-10.76-5.86-15.67s.95-10.76-.63-16.61-4.75-9.34-11.55-11.47a41,41,0,0,0-11.08-2.14Z" fill="#f19967"/><path d="M358.64,424.86l1.11-11.24-6.34-82.17L341.49,312l-15,29.44v40.82l8.07,36.55,17.09,68.35,20.87-8.38C372.52,446.15,358.64,424.86,358.64,424.86ZM334.42,382c-.15,0-.09-.21,0-.21S334.54,382,334.42,382Z" fill="#d57940"/><path d="M353.41,230.81s3.73,31.33,2.78,41.3-16.38,61.71-17.33,83.55-1.42,40.82,3.8,47,50.8,72.61,60.29,84.49,14.72,14.26,12.34,24.7-1.89,20.41-5.22,27.53-4.45,10-2.46,10.92,22.88,1,24.77-.95,1.9-11.39.95-21.2-1.1-13.93-3.16-20.41-4.59-9.18-8.23-13.77-16-26.74-20.1-52.38-29.43-36.71-30.38-42.72.64-18.52,11.71-58.39,13.61-56.65-.95-80.39-27.53-30.7-27.53-30.7Z" fill="#f19967"/><path d="M372.64,165.22a42.42,42.42,0,0,0-5.93,10.67c-1.34,3.66-2.71,7.6-2.9,11.52,0,.4.36.35.44,0,.89-3.82,1.58-7.59,3.23-11.18a52.73,52.73,0,0,1,5.85-10C373.78,165.63,373.28,164.35,372.64,165.22Z" fill="#d57940"/><path d="M366.87,107.69c0-1.13.06-2.35.12-3.58,0-.17,0-.34,0-.51.07-1.56.14-3.17.13-4.82-.24-.41-.49-.82-.75-1.22a28,28,0,0,1-3.21-5.73,13.57,13.57,0,0,1-.28-1.44c-.11-.8-.09-1.63-.13-2.45,0-.08,0-.16,0-.24a2,2,0,0,0-.5-2c-.88-1.92-2.87-2.53-4.86-3-6.58-1.48-9.34-4.13-15.92-5.57L335,78.77a3.48,3.48,0,0,0-.3.5,2.5,2.5,0,0,0-1,1.23c-.35.82-.7,1.64-1.1,2.44,0,.07-.07.15-.11.22h0c-.1.17-.18.33-.28.49-.24.39-.49.78-.77,1.15l-.07.1-.06.06a5.89,5.89,0,0,1-.42.45,5.77,5.77,0,0,1-.44.42l-.21.17-.11.08a16.19,16.19,0,0,1-1.74.94,27,27,0,0,0,.24,4.54c.35-.15.7-.33,1-.48a9.13,9.13,0,0,0,1.17-.68,11.19,11.19,0,0,0,2.4-2.31A21.85,21.85,0,0,0,336,82.85l14.86,3.35a69.34,69.34,0,0,1,7.29,1.67c.77.26,1.39.54,1.51,1.36a19.08,19.08,0,0,1,.16,2.13c-.2,0-.4-.09-.59-.11a20.67,20.67,0,0,0-3.43,0,15.55,15.55,0,0,0-3.32.41c-1.24.31-2.92.91-3.58,2.09a4.48,4.48,0,0,0-.2.44.31.31,0,0,0-.13,0,2,2,0,0,0-.8,1.94,3,3,0,0,0,2.47,2.51,21.59,21.59,0,0,0,4,.52,5.4,5.4,0,0,0,3.65-.69.69.69,0,0,0,.13-.11,3,3,0,0,0,.31,0,11.76,11.76,0,0,1,1.77.24,3.09,3.09,0,0,1,.86.36,12.43,12.43,0,0,1,1.1,3.85,13,13,0,0,1-.58,4.67,29.58,29.58,0,0,0-.85,5.62c0,.68,0,1.36,0,2a17.46,17.46,0,0,1-.75,1.62c-.1.18-.17.36-.26.54l-.09.07a40.31,40.31,0,0,1-8.68,5.09c5.68,1.29,3.52,9.35,3.52,9.35l-1,.22c-.08.71,0,1.6.69,1.9s1.42-.5,1.73-1.12c1.93-3.84,5.25-6.36,8-9.51,2.52-2.87,3.44-6.67,4.28-10.37A17.79,17.79,0,0,1,366.87,107.69Z" fill="#d57940"/><path d="M299.18,196.19a19.39,19.39,0,0,1,5.37,9c.2.68.9.08,1-.36a14.19,14.19,0,0,0-2.07-9.53.11.11,0,0,1,0,.06c-.95,2-7.45-2.42-11.92-6.87a25.29,25.29,0,0,0,2.86,3.67C295.83,193.68,297.62,194.78,299.18,196.19Z" fill="#d57940"/><path d="M318.73,161.75c.85.18,1.82-.52,2.47-1,.87-.61,1.65-1.32,2.55-1.89a20.15,20.15,0,0,1,2.95-1.54c.89-.37,1.87-.56,2.74-1a4.3,4.3,0,0,0,2.18-3,5.14,5.14,0,0,0-1.14-4.11c-.66-1-1.35-1.95-2-3a6.11,6.11,0,0,1-1-2.65,3.28,3.28,0,0,0-.36-1.5,14.43,14.43,0,0,0-2.71,2.43,12.39,12.39,0,0,0,2.3,6.37l.92,1.38,0,.07h0a20.84,20.84,0,0,0-5.47,2.81,12.24,12.24,0,0,0-2.88,2.82,7.75,7.75,0,0,1-1,3l0,.06A.71.71,0,0,0,318.73,161.75Z" fill="#d57940"/><path d="M373.07,140.31a1.48,1.48,0,0,0,.33-1.41c-.64-1.71-2.94-1.85-4.51-2a19.37,19.37,0,0,0-5.26.29,17.09,17.09,0,0,0-4.43,1.63,3.33,3.33,0,0,1-2.06.51c-.69-.23-1.1-1.05-1.45-1.63-.67-1.1-1.88,1.11-1.29,2,.82,1.2,1.86,1.92,3.32,1.37a17.75,17.75,0,0,0,1.85-1.2,3.89,3.89,0,0,1,2.69,0c1.79.35,3.58.7,5.4.88C369.31,140.92,371.76,141.65,373.07,140.31Z" fill="#d57940"/><path d="M314,187.06a3.28,3.28,0,0,0-1.27,3.1,23.17,23.17,0,0,1-1.59,10.74,30.75,30.75,0,0,1-2.71,5c-.48.74-1,1.47-1.45,2.23l-2.16,1.3a49.34,49.34,0,0,1-6.19,3.63c-2.21.92-3.72-1-5-2.51-5.87-7.14-11.49-14.42-13.84-23.52a63.43,63.43,0,0,1-1.4-7.62c-.18-1.37-.31-2.74-.52-4.11-.06-.39-.12-.79-.19-1.18v0c-.32,2.84-.8,16.17,2.05,21.69s12,21.19,16.93,21,18-13.29,18-13.29L314,189.35s.65.44,1.87,1.12c0-.69,0-1.39-.1-2.09C315.71,187.45,314.92,186.53,314,187.06Z" fill="#d57940"/><path d="M339.57,160.4a13.71,13.71,0,0,0-.33,2.63,21.86,21.86,0,0,1-.42,2.55.75.75,0,0,0,0,.15.07.07,0,0,0,0,.09c0,.18,0,.37.23.42s.45-.29.49-.49a22.14,22.14,0,0,0,.42-2.81,5.66,5.66,0,0,0-.16-2.62C339.73,160.16,339.6,160.3,339.57,160.4Z" fill="#d57940"/><path d="M411.38,261.69a18.93,18.93,0,0,1,3.35-11.17c1.13-1.49,2.57-2.74,3.57-4.34a8.84,8.84,0,0,0,1.24-6.53,31.6,31.6,0,0,0-2.26-6.16c-.92-2.13-1.95-4.23-3-6.27s-2.14-3.76-3.33-5.57a41,41,0,0,1-3.55-5.66c-1.79-4-.47-8.68-1.8-12.86s-4.45-7.13-7.05-10.37c-2.77-3.46-5.34-7.09-7.86-10.73a92.5,92.5,0,0,1-7.34-12.63c-1.63-3.39-3.47-6.73-7.12-8.2-.63-.26-1,1.3-.37,1.58,3.56,1.62,5.12,5.65,6.51,9,.84,2,1.71,4.08,2.62,6.1a6.43,6.43,0,0,0,.76-1.21s11.4,17.56,15.67,24.84.16,11.39,4.27,18.36,14.4,21,11.24,25.79-6.17,7-5.54,18c.41,7.23,1,9,1.29,9.35-.15-1.26-.34-2.5-.55-3.79A42.11,42.11,0,0,1,411.38,261.69Z" fill="#d57940"/><path d="M329.46,193a5.37,5.37,0,0,0,2-1.86l-.3.46a6.48,6.48,0,0,0,1.42-1.95c.06-.16.14-.72-.17-.74a1.81,1.81,0,0,0-1,.24c-.17.09-.33.22-.5.31a2.67,2.67,0,0,0-.51.25,23.94,23.94,0,0,1-2.18,1.42,6.8,6.8,0,0,1-4.69.75c-.71-.17-1.19.84-1.14,1.64.92.36,1.93.71,3,1.06a8,8,0,0,0,2.08-.53A11,11,0,0,0,329.46,193Z" fill="#d57940"/><path d="M343.23,105.09a15.83,15.83,0,0,0-.82-5.16,6.34,6.34,0,0,0-2.9-3.64,2.07,2.07,0,0,0-.4-.47,2.8,2.8,0,0,0-1.09-.43,12.14,12.14,0,0,0-2.62-.2,17.21,17.21,0,0,0-2.68.23,4.6,4.6,0,0,0-2.56,1.07c.06.34.12.68.17,1,.12.85.22,1.71.26,2.57a15,15,0,0,1,0,1.64c.08.06.13.16.23.2a3.44,3.44,0,0,0,1.28.08,4.88,4.88,0,0,1,1,.06,8.64,8.64,0,0,0,1.15.21,8.31,8.31,0,0,0,2.43-.3,4.86,4.86,0,0,0,2.27-1.06l0,0a7.71,7.71,0,0,1,1.09,2.06c.25.64.62,1.12.84,1.67a9.51,9.51,0,0,1,.53,1.64,11.13,11.13,0,0,1,.19,1.82,2.73,2.73,0,0,0,.42,1.82.31.31,0,0,0,.5,0,3.36,3.36,0,0,0,.76-2.25C343.29,106.8,343.27,106,343.23,105.09Z" fill="#d57940"/><path d="M354.47,131a10.82,10.82,0,0,1-7.22.72c-3.64-1.11-8.86,3.16-15.35-.79s-12-4.43-12.82-9.5c0,0-.15,13,5.86,19.94,4.2,4.86,5.39,9.33,7.34,11.21A25,25,0,0,1,323,158c-7,2.37-15.51,8.75-13.29,20.12s3.8,12.16,15.19,16.43c0,0-7-9.18-3.66-19.46s7.73-15.36,16.47-23.42v0C342.29,148,352.87,139.78,354.47,131Z" fill="#dfeaf6"/><path d="M333.33,196.47s-5.23-12,1.42-23.9S354.37,153,359,147.1s17.23-18.57,17.23-18.57,10.78,2.74,19.17-2.64a89.39,89.39,0,0,1,14.55-7.75S399,124.47,395.51,130s-23.41,25.79-31.64,29.9c0,0,2.37,26-8.86,38.31A52.48,52.48,0,0,1,333.33,196.47Z" fill="#dfeaf6"/><path d="M328.1,99.39a8.42,8.42,0,0,0,2.3-6c-.08-3.79-2.29-2.53,0-5.46s2.37-2.69,3.64-5,2,.33,2.76-2.52,1.27-1.48,2.54-.92,3.4-1.62,8.47,1.22,14.95,1.35,14.4,5.86-.4,5.62,1.26,7.6,2.54,4.83,3.65,7,3.79.24,3.79,0-2.22-15.59-2.22-15.59l-8.54-6.33-15.27-5.46-11,.56-5.78,5.46-2.29,11.15Z" fill="#fde0be"/><path d="M352.52,391.83c-.24-.75-.95.27-.79.78a53.94,53.94,0,0,1,2.08,9.22,80,80,0,0,1,.51,9.41c0,.46.4.26.44-.08C355.54,404.74,354.43,398,352.52,391.83Z" fill="#d57940"/><path d="M355.18,230.91a7.7,7.7,0,0,0,.43,1.43,9.49,9.49,0,0,0,1.3,1.85l3.06,4,6,7.78c3.8,4.93,7.72,9.79,11.12,15,6.58,10.12,9.63,21.68,9.82,33.7.19,12.68-2.43,25.16-5.43,37.41q-3,12.28-6.14,24.54-1.62,5.78-2.94,11.63c-.19.77-.39,1.53-.58,2.3-1.76,7-3.72,13.93-5.14,21s-2,14.09.06,21c.63,2.12,2.66.18,2.91-1.08l1-4.85c.69.3,1.37.6,2,.95a30.51,30.51,0,0,1,3.6,2.25,36.37,36.37,0,0,1,6.11,5.58,58.2,58.2,0,0,1,9.09,14.78c5,11.36,7.28,23.7,12,35.16a58.34,58.34,0,0,0,10.8,17.46.75.75,0,0,1,.07.12l0,0c.1.11.18.23.28.34a.79.79,0,0,0,1,.1,148,148,0,0,1-13.83-41.74c-4.11-25.63-29.43-36.71-30.38-42.72a24.5,24.5,0,0,1-.19-4.95l0-.48a228,228,0,0,1,4.36-24.2c1-3.93,1.89-7.64,2.89-11.57.31-1.12.63-2.56,1-3.68a3.65,3.65,0,0,0,.25-.92c.62-2.48,1.11-4,1.73-6.45a6.71,6.71,0,0,1,.42-1.54c.41-1.5.83-3,1.27-4.6,11.08-39.88,13.61-56.65-.95-80.39-13.59-22.16-25.8-29.7-27.36-30.6a1.55,1.55,0,0,0,0,.22A2.14,2.14,0,0,0,355.18,230.91Zm46.1,216.83-.92-3c-.95-3.16-1.94-6.33-3-9.47A130.72,130.72,0,0,1,401.28,447.74Z" fill="#d57940"/><path d="M424.92,501.59a81.44,81.44,0,0,1,4.93,32.58c-.13,2.46-.37,5-1.77,7.09a12.59,12.59,0,0,1-4.64,4c-3.72,2-8,2.33-12.15,2.06-1.14-.08-2.29-.17-3.42-.33a1.39,1.39,0,0,0-1.06.37c-.36,1.56-.14,2.46.8,2.91,2,1,22.88,1,24.77-.95s1.9-11.39.95-21.2-1.1-13.93-3.16-20.41a29.52,29.52,0,0,0-4.66-9.23A3.42,3.42,0,0,0,424.92,501.59Z" fill="#d57940"/><path d="M360.4,233.53s15.72,66.35-22.13,115.24l-14.6-41.06Z" fill="#d57940"/><path d="M374,489.53c-.8-30.51-32.14-64.4-42.38-92.51a195.26,195.26,0,0,1-.34-23.32c1.9-32.28,26.24-60.52,29-99.22s-5.54-45.1-5.54-45.1l-41.93-2.06s-7.21,28.17-3.37,90.83,23.3,99,25.68,125.93,3.32,88-5.22,104.23c0,0,42.53,22.35,69.78,4.83C417.91,541.39,374.94,525.61,374,489.53Z" fill="#dfeaf6"/><path d="M415.05,502.89s4,2.17,10.79-3.93a140.91,140.91,0,0,1-17.1-31.6s-7.59-.89-15,7.31C393.74,474.67,404.15,490.64,415.05,502.89Z" fill="#fbc56f"/><path d="M345.83,249.72c-.82-6.05-2.82-12.34-1.1-18.39.54-1.92-1.43-2.34-2-.46-1.52,5.19-.76,10.71-.12,16s1.15,10.66,1.36,16a131.75,131.75,0,0,1-2.45,31.71c-1.21,5.92-2.9,11.69-4.68,17.46-.45,1.46,1,2.34,1.74.81,4.66-9.6,6.79-20.43,7.84-31A138.86,138.86,0,0,0,345.83,249.72Z" fill="#b9cbdb"/><path d="M338,252c-1.28-6.93-2.71-13.9-2.16-21,0-.61-.24-1.53-1-1.43s-1.12,1.2-1.18,1.84c-.6,7,.6,14,1.81,20.83.6,3.42,1.24,6.84,1.61,10.3s.37,6.86.53,10.3c.06,1.18,1.17.45,1.36-.24C340.79,266,339.26,258.59,338,252Z" fill="#b9cbdb"/><path d="M384.33,549.82c-2.8-4.74-6.3-9.07-9.1-13.84a78.79,78.79,0,0,1-6.74-14.81A76.55,76.55,0,0,1,365,505.35a179.31,179.31,0,0,1-.69-18.4c-.08-6.83-.42-13.65-2.13-20.3-.14-.55-.67-.53-1-.24a1.7,1.7,0,0,0-.38,1.64c3,12.47.61,25.35,1.7,38a79.4,79.4,0,0,0,9.68,31.51,64.86,64.86,0,0,0,5,7.73,28.26,28.26,0,0,0,6.28,6.4C384.26,552.27,384.65,550.36,384.33,549.82Z" fill="#b9cbdb"/><path d="M355.85,522.33c.07-1.8-1.73-1.1-1.78.34-.24,6.72,3,12.56,6.59,18,3.72,5.66,7.57,11.19,9.5,17.75.15.53.65-.06.64-.37C370.42,544.5,355.32,536.06,355.85,522.33Z" fill="#b9cbdb"/><path d="M314,189.35s-.16,30.7-1.26,38c0,0,7.12,16.62,26.9,9.34s20.09-9.81,20.09-9.81,4.43-10.13,1.74-11.55,2.69-7.28,5.54-12.5,4.53-6.2,1.87-7.14C368.9,195.66,346.94,204.54,314,189.35Z" fill="#5681a4"/><path d="M369.83,198c-.9.79-1.86,1.5-2.7,2.15a22.81,22.81,0,0,1-7.51,3.78,44.1,44.1,0,0,1-9.22,1.32l-2.47.21a11.56,11.56,0,0,0,2.48.27c1.23,0,2.46.08,3.69.08a22.23,22.23,0,0,0,6.7-.87l0,.06c1.19-.28,2.29.83,1.33,2.05a21.05,21.05,0,0,1-7.2,6.13,25.2,25.2,0,0,1-8.37,2.14c-3.22.35-6.44.65-9.68.79a41.44,41.44,0,0,1-4.17,0l-.63-.07c1.1.42,2.17.9,3.29,1.28a28.26,28.26,0,0,0,20.27-1.08,1.37,1.37,0,0,1,1.8,1.87c-1.95,4.32-4.57,8-8.72,10.48a29.7,29.7,0,0,1-13.88,3.73,40.84,40.84,0,0,1-4.29-.09c-.51,0-1,0-1.52,0a28.59,28.59,0,0,1-5.29-1,40.57,40.57,0,0,1-4.17-1.22c-2.27-.81-4.43-1.91-6.61-2.94l-.12-.06c0,.1,0,.22,0,.31s7.12,16.62,26.9,9.34,20.09-9.81,20.09-9.81,4.43-10.13,1.74-11.55,2.69-7.28,5.54-12.5C368.3,200.47,369.31,199,369.83,198Z" fill="#415779"/><path d="M315.77,205a26,26,0,0,1,3.07,1.19,7.57,7.57,0,0,0,1.69.37,13.61,13.61,0,0,1-5.45-6.11,4.48,4.48,0,0,1,1.07-5.41c1.51-1.21,3.21-.77,4.83-.1a58.25,58.25,0,0,0,15,4.23,53.9,53.9,0,0,0,14.9-.3c1.28-.19,2.55-.43,3.81-.71-9.64.46-23.69-1-40.69-8.8,0,0-.07,12.8-.41,23.83a10.92,10.92,0,0,0,3.67,4.89l0,0c-.58-.95-1.08-1.95-1.65-2.91a12.18,12.18,0,0,1-1.64-4.06,23.62,23.62,0,0,1-.05-4.29C313.92,205.88,314.75,204.76,315.77,205Z" fill="#415779"/><path d="M399.63,553.14c6.67-4.29,5.17-9.13.53-15.28-4.75,6.39-19.28,13-36.85,11.25a76.62,76.62,0,0,1-30.4-10.17,39.21,39.21,0,0,1-3.06,9.37S372.38,570.66,399.63,553.14Z" fill="#fbc56f"/><path d="M416.24,278.75,340.29,555.4H335l78.39-283.18,2.82-8.34a5.92,5.92,0,0,1,2.47,5.62C418.2,273.23,416.3,276.44,416.24,278.75Z" fill="#a57333"/><circle cx="451.06" cy="145.45" r="5.37" fill="#a57333"/><path d="M449.65,145.81s-7.84-2.31-13.54,2.4l25.38-39.05Z" fill="#a57333"/><path d="M452.47,146.6s7.89,2.13,10.29,9.12l-1.26-46.56Z" fill="#a57333"/><path d="M449.65,145.81l11.85-36.65-9,37.44s8.16,2.23,10.29,9.12c0,0-11.84-14.54-26.65-7.51C436.11,148.21,441.09,143.14,449.65,145.81Z" fill="#fbc56f"/><path d="M341.86,553.75a4.07,4.07,0,1,0-4.07,4.07A4.08,4.08,0,0,0,341.86,553.75Z" fill="#a57333"/><path d="M336.68,196.78A55,55,0,0,1,338.2,177a26.42,26.42,0,0,1,4.45-9.16,14.2,14.2,0,0,1,9-5.51,5.84,5.84,0,0,1,3,.55,5.41,5.41,0,0,1,2.22,2.12,12,12,0,0,1,1.5,5.2,36.74,36.74,0,0,1-.83,10.08c-1.46,6.45-3.46,13-7.61,18.21a35.29,35.29,0,0,0,3.68-9,65,65,0,0,0,2.09-9.5,40.3,40.3,0,0,0,.38-9.53,10.13,10.13,0,0,0-1.22-4.18,3,3,0,0,0-3-1.5l-1,.17-1,.34-2,1a15.11,15.11,0,0,0-3.38,3,27.29,27.29,0,0,0-4.45,8.26,51.64,51.64,0,0,0-2.26,9.43A81.1,81.1,0,0,0,336.68,196.78Z" fill="#b9cbdb"/><path d="M315.29,189.92a27.28,27.28,0,0,1-4.59-14.75,14.9,14.9,0,0,1,2.28-7.64,17.24,17.24,0,0,1,2.34-3.3c1-.94,2.14-2.09,4.07-2a2.72,2.72,0,0,1,2.13,1.66,3.63,3.63,0,0,1,.13,2.47c-.48,1.44-1.13,2.44-1.58,3.61a22.44,22.44,0,0,0-1.52,7.23,36.93,36.93,0,0,0,.4,7.56c.12,1.27.39,2.52.59,3.79l.78,3.77a44,44,0,0,1-3.17-15.15,20.58,20.58,0,0,1,1.39-7.81c.45-1.23,1.14-2.46,1.44-3.46s-.21-1.89-.84-1.87c-.71-.13-1.78.56-2.57,1.38a15.56,15.56,0,0,0-2.16,2.92,14.72,14.72,0,0,0-2.31,6.88,23,23,0,0,0,.7,7.45A37,37,0,0,0,315.29,189.92Z" fill="#b9cbdb"/><path d="M376.19,128.53c-2.53,2.58-5.06,5.14-7.44,7.83a107.31,107.31,0,0,0-6.95,8.18c-2.07,2.84-4.23,5.81-5.14,9a5.68,5.68,0,0,0-.18,2.16,2.51,2.51,0,0,0,.33.86,6.34,6.34,0,0,0,.66.92,3.84,3.84,0,0,0,3.82,1.17c3.1-.57,6.15-2.66,8.95-4.73s5.51-4.5,8.2-6.86,5.26-4.89,7.82-7.42l7.76-7.54a185.59,185.59,0,0,1-14.28,16.31,87,87,0,0,1-8.1,7.34c-2.93,2.19-5.94,4.48-10,5.29a7.08,7.08,0,0,1-3.22-.17,6,6,0,0,1-2.76-1.83,8.62,8.62,0,0,1-.91-1.29,5,5,0,0,1-.6-1.66,7.19,7.19,0,0,1,.29-3.17c1.26-3.78,3.55-6.7,5.89-9.49A106.38,106.38,0,0,1,376.19,128.53Z" fill="#b9cbdb"/><path d="M354.47,131a25,25,0,0,1-2.7,7.05,39.52,39.52,0,0,1-4.38,6.21,47.13,47.13,0,0,1-5.41,5.35c-1,.83-2,1.58-3,2.38l-3.1,2.19-.05,0-.06,0a9,9,0,0,1-2.2.57,2.72,2.72,0,0,1-1.34-.15,1.32,1.32,0,0,1-.68-.66,1.58,1.58,0,0,1-.08-.84,3.78,3.78,0,0,1,1.23-2.1c.53-.52,1.08-1,1.63-1.43,2.22-1.77,4.46-3.44,6.62-5.22,4.29-3.55,8.3-7.57,10.95-12.57-2.22,5.22-6.1,9.58-10.32,13.3-2.11,1.89-4.39,3.58-6.54,5.36-1,.88-2.28,1.83-2.4,2.82,0,.27,0,.18.07.25a1.87,1.87,0,0,0,.74,0,8.14,8.14,0,0,0,1.89-.46l-.11.05,3.08-2.11c1-.76,2-1.49,3-2.29a61,61,0,0,0,5.43-5.11,42.08,42.08,0,0,0,4.57-5.9A24.82,24.82,0,0,0,354.47,131Z" fill="#b9cbdb"/><path d="M365.46,153.89a6,6,0,0,0,1-3,2.81,2.81,0,0,0-1.18-2.6,2.67,2.67,0,0,0-2.65.26,6.57,6.57,0,0,0-2.09,2,6.67,6.67,0,0,0-1.09,2.68,2.68,2.68,0,0,0,.75,2.56,2.82,2.82,0,0,0,2.85.13A6,6,0,0,0,365.46,153.89Zm0,0a7.11,7.11,0,0,1-2.32,2.21,3.25,3.25,0,0,1-3.27.22,3.45,3.45,0,0,1-1.44-3.15,6.55,6.55,0,0,1,1.13-3.27,6.46,6.46,0,0,1,2.62-2.26,3.43,3.43,0,0,1,3.46.17,3.25,3.25,0,0,1,1,3.11A7.29,7.29,0,0,1,365.46,153.89Z" fill="#a57333"/><path d="M336.08,152.14a7.46,7.46,0,0,0,.95-1c.25-.33.54-.89.38-1.11s-.72.12-1.07.33a6.65,6.65,0,0,0-1.08.77,6.39,6.39,0,0,0-1,.9c-.28.29-.63.75-.54,1s.78,0,1.16-.14A6.46,6.46,0,0,0,336.08,152.14Zm0,0a7.44,7.44,0,0,1-1.13.8c-.41.17-.81.61-1.44.25-.3-.68.15-1.08.37-1.49a7.58,7.58,0,0,1,1-1,7,7,0,0,1,1.23-.76c.44-.13.93-.49,1.53-.06.22.69-.29,1-.54,1.35A6.12,6.12,0,0,1,336.08,152.14Z" fill="#a57333"/><path d="M347.59,95a4.26,4.26,0,0,1,.15.47.55.55,0,0,1,0,.18c.82-.36,1.67-.69,2.47-1.11,1.15-.59,2.24-1.28,3.4-1.86a10.89,10.89,0,0,1,4.19-1.09c.36,0,.73,0,1.1,0l.3,0c-1-.31-2.08-.63-3.14-.92a4.3,4.3,0,0,0-3.28.46c-1.12.52-2.2,1.11-3.36,1.54l-2.1.74a1.45,1.45,0,0,0-.09.25,6.1,6.1,0,0,0,.14.72Z" fill="#824c24"/><path d="M339.54,95.5c0-.31,0-.62,0-.92-.77,0-1.54,0-2.31,0s-1.75-.06-2.63-.07l-1.36,0h-.42a4.87,4.87,0,0,0-1.23.57,9.33,9.33,0,0,0-1.76,1.18v.14c0,.14,0,.28,0,.42v.08a4.61,4.61,0,0,0,.22.51l.57-.37.13-.07a6.8,6.8,0,0,1,1.1-.57,6.34,6.34,0,0,1,3.32-.13,18.42,18.42,0,0,0,3.4.26l.93,0C339.56,96.12,339.54,95.8,339.54,95.5Z" fill="#824c24"/><path d="M339.8,100.73c0-.06,0-.22-.19-.2a5.33,5.33,0,0,0-.81.2,7.52,7.52,0,0,0-1,.37,7.94,7.94,0,0,1-1.84.57c-1.22.21-2.86.06-3.4-.58a.86.86,0,0,0-1.06-.13c-.4.2-.58.61-.38.89a3.09,3.09,0,0,0,1.74,1.11,6.77,6.77,0,0,0,2.84.1,8,8,0,0,0,2.6-.9,4,4,0,0,0,.93-.7c.06-.07.13-.14.18-.21s.06-.09.06-.09l0,0A2,2,0,0,0,339.8,100.73Z" fill="#824c24"/><path d="M359.18,97.23c-.06-.13-.27-.2-.51-.19a1.82,1.82,0,0,0-1,.49c-.23.15-.49.35-.68.46a4.39,4.39,0,0,1-2,.65c-.47,0-1,0-1.44,0a7.32,7.32,0,0,1-1.48-.1,14.57,14.57,0,0,1-2.73-.86c-.39-.16-.71.34-.41.48.46.22.89.46,1.36.67a15.37,15.37,0,0,0,1.49.57,10.09,10.09,0,0,0,1.58.46,6.37,6.37,0,0,0,1.8,0A6.51,6.51,0,0,0,358,99C358.63,98.51,359.47,97.8,359.18,97.23Z" fill="#824c24"/><path d="M348.73,108.47c0-.43,0-1.09-.37-1.29-.16-.09-.28.27-.29.39a2.09,2.09,0,0,0,0,.5,2.89,2.89,0,0,1,.07.44.36.36,0,0,1-.09,0,.55.55,0,0,1-.22,0,6.09,6.09,0,0,0-1.28,0,7.19,7.19,0,0,0-.8.2,1.67,1.67,0,0,1-.63,0,5.1,5.1,0,0,1-1.49-.28,3.93,3.93,0,0,1-.62-.3c-.06,0-.19-.17-.22-.16a.74.74,0,0,0-.07-.21c0-.12,0-.3,0-.32l0-.15c-.06-.15-.06-.17,0-.07,0-.37.08-.75.09-1.12a22.38,22.38,0,0,0-.23-4c0-.16-.18,0-.17.14a15.93,15.93,0,0,1,0,3.52c0,.28-.09.57-.14.85s-.07.3-.08.44,0,.18,0,.08l-.09.12a3.26,3.26,0,0,0-.18.38s-.12.28-.06.13a2.72,2.72,0,0,0-.32,1.33,2.59,2.59,0,0,0,2.06,2.08,2.07,2.07,0,0,0,1.41,0,2.9,2.9,0,0,0,.64-.41,4.09,4.09,0,0,0,.44-.37c.66-.49,1.49-.21,2.11-.79A1.92,1.92,0,0,0,348.73,108.47Z" fill="#824c24"/><path d="M353.26,113.93a8.44,8.44,0,0,0-1.12.08,2.1,2.1,0,0,1-.79,0c-.21-.06-.41-.16-.61-.23a20.77,20.77,0,0,0-2.72-.67,4.53,4.53,0,0,0-2.53.05,2.84,2.84,0,0,0-1,.84,1.5,1.5,0,0,1-.93.63c-.57.08-.75,1.47-.08,1.4s1.19-.76,1.89-1a5.07,5.07,0,0,1,2.65.09,9.77,9.77,0,0,0,1.68.26,6.07,6.07,0,0,1-1.39.71,7,7,0,0,1-4-.37c-.34-.1-.52.69-.19.81a6.34,6.34,0,0,0,4,.52,5.41,5.41,0,0,0,1.57-1l.67-.51a4.53,4.53,0,0,1,.46-.3c.21-.05.41-.14.62-.17s.44-.06.65-.11a2.43,2.43,0,0,0,1.2-.62C353.36,114.31,353.46,114,353.26,113.93Z" fill="#824c24"/><path d="M301.79,169c-.56.07-.83.62-1.33.75s-.69-.47-.85-.84a9.69,9.69,0,0,1-.61-1.71,5.3,5.3,0,0,1,0-1.54c0-.56-.23-1.37-.92-1.35a8.62,8.62,0,0,0-1.56.37,9.4,9.4,0,0,1-2.6.09c-.9,0-1.75-.25-2.65-.3l-.33,0h-.17l-.25,0-.14,0h0l-.41.12-.07.05a3.13,3.13,0,0,1,1.89.6,4.71,4.71,0,0,1,.42.36,3.48,3.48,0,0,1,1,1l.11,0,1,1.06,1.3,1.37c.24.25.46.51.69.77s.52.46.46.71a2,2,0,0,1-.51.68,6.28,6.28,0,0,1-.54.49,4.5,4.5,0,0,1-1.52.75s-.05,0-.07.07l-.32-.48c-.34-.47-.63-1-1-1.43s-.72-1-1.1-1.41-.78-.88-1.21-1.3a2.15,2.15,0,0,0-1.41-.7c-.17,0-.23.23-.19.36a3.46,3.46,0,0,0,.74,1.34c.33.35.65.72,1,1.08.67.68,1.29,1.41,1.9,2.15.29.36.58.7.84,1.08l.06.11a3.33,3.33,0,0,1-.52.21,7.9,7.9,0,0,1-2.61.22.46.46,0,0,0-.35.14c-.28-.57-.54-1.16-.82-1.74a16.12,16.12,0,0,0-.9-1.69c-.17-.27-.35-.53-.5-.8a2.32,2.32,0,0,0-.62-.7c-.14-.12-.25.18-.23.28a4.49,4.49,0,0,0,.21.8c.11.26.26.5.37.76.22.51.45,1,.69,1.49s.47.94.7,1.42c.13.25.26.51.38.77s.17.34.24.53a2.27,2.27,0,0,1-.83.45,3.06,3.06,0,0,1-.6.13,1.48,1.48,0,0,1-.62-.11c-.74-.21-1.14-1-1.48-1.64-.23-.43-.74-.13-.93.16a1.41,1.41,0,0,0-.09,1.4c.46.84,1.15,2,2.22,2a2.5,2.5,0,0,0,1.67-.61,7.23,7.23,0,0,0,1.28-1.19,1.17,1.17,0,0,0,.19-.41,6.61,6.61,0,0,0,2.82-.45c-.86.66-1.7,1.33-2.5,2.05a16.76,16.76,0,0,1-1.94,1.74,3.5,3.5,0,0,1-2.43.19,10.07,10.07,0,0,1-2.25-.44,3,3,0,0,1-1.63-1.75,6.69,6.69,0,0,1-.47-2.34,8.26,8.26,0,0,1,.27-2.67c.13-.43-.32-.72-.52-.25a10.24,10.24,0,0,0-.59,1.41,7.6,7.6,0,0,0-.21,1.57,8.29,8.29,0,0,0,.41,2.84A7,7,0,0,0,288,181a5.28,5.28,0,0,0,2.35-1.54,33.69,33.69,0,0,0,4.52-5.24c.1-.13.1-.75-.19-.54l-.52.39a1.31,1.31,0,0,0,.23-.49c0-.06,0-.11,0-.17a5,5,0,0,0,3-2.46c.38-.81,0-1.33-.57-1.93s-1.13-1.32-1.7-2l-.12-.14.49,0a8.52,8.52,0,0,0,1.33-.11,4.26,4.26,0,0,0,.69-.15l.11,0a3.51,3.51,0,0,0,0,.56,6.85,6.85,0,0,0,.21,1.17,12.89,12.89,0,0,0,.87,2.28c.32.69.88,1.31,1.69.85a4.4,4.4,0,0,0,1.66-1.79C302.14,169.52,302.15,169,301.79,169Z" fill="#d57940"/><path d="M277.74,187.69a12.3,12.3,0,0,0,10-3.8s4,5.73,8.14,8.46a57.94,57.94,0,0,0,5.12,3.16s3.86,12-9.54,18.11C291.5,213.62,277.73,201.81,277.74,187.69Z" fill="#fbc56f"/><path d="M279.91,187.69s6.33,19.27,13.86,16.93,7.27-9.11,7.27-9.11,4.73,12.24-9.54,18.11c0,0-14.29-10.8-13.76-25.93Z" fill="#c7883e"/><path d="M278.36,211s14-13.51,13.12-22.71c0,0,4.12,1.51,5.84,4.08,0,0,1.24,9.71-14.61,23.09C282.71,215.44,280.07,215.47,278.36,211Z" fill="#fbcd90"/><path d="M282.5,213.1s-1.9,0-3.56-2.7l-.58.58c1.71,4.49,4.35,4.46,4.35,4.46,14.46-12.21,14.7-21.33,14.63-22.84C296.38,196.71,293.16,204.09,282.5,213.1Z" fill="#e2ba83"/><rect width="841.89" height="595.28" fill="none" stroke="#fff" stroke-miterlimit="10"/></svg>