<svg id="Layer_1" data-name="Layer 1" xmlns="http://www.w3.org/2000/svg" viewBox="0 0 841.89 595.28"><path d="M329.16,192.84c.77-14.87,2.14-34.58,2.14-34.58l-2.57-34.43s-10.3,5.79-10,26.39c.18,11.07.9,24.73.89,36.36Z" fill="#f19967"/><path d="M355.57,32S339.7,38,337,48.26s-6.34,14.45-8.25,17.13-3.64,10.32-3.45,14.44-1.73,8.26,1,10.11,4,4.13,1.72,8.67-1.15,5.78-2.68,10.52-5.56,6.6-3.64,12,4.4,5.78,4.6,9.28,8.62,2.48,8.62,2.48l16.47-2.48s19-.41,22.23,3.72,7.47,1.85,10.73,1.85,5.17-5.77,11.88-5.57,7.28-1,8-5.36-4-15.68-5.94-19.4-1-6.39-1.72-18.15.76-17.33-2.11-25.59-1.72-8.25-4.79-14-5.75-7-8.24-8.66C364.92,28.23,355.57,32,355.57,32Z" fill="#a25341"/><path d="M395.05,74a15.35,15.35,0,0,1-.51,1.72l-.14-.08c-.36-.17-.74-.33-1.1-.51l-.12-.06s0,0,0,0h0l0,0h0a.12.12,0,0,0,0,0c-.05-.06,0,0,0,0l0,0-.07-.11a3.25,3.25,0,0,1-.18-.43s-.08-.24-.1-.28a12.2,12.2,0,0,1-.15-4,13.79,13.79,0,0,0,0-2.8,9,9,0,0,0-1.18-2.76,2.5,2.5,0,0,0-1.77-1.39c-.54-.08-1.34.14-1.18.87a2,2,0,0,1-.12,1,6.08,6.08,0,0,0-.09,1.28c0,.87-.1,1.73-.16,2.6a12.85,12.85,0,0,0,.41,4.9,7.73,7.73,0,0,0,3.61,4.33,13.34,13.34,0,0,0,1.2.59c.21.09.41.18.61.29l.05,0,.16.12.18.13,0,0c0,.56,0,1.13,0,1.69a74.73,74.73,0,0,1-1,7.59,29.75,29.75,0,0,0,0,9.37h0a36.31,36.31,0,0,0,.71,5.08c.59,3.14,1.29,6.73-.15,9.75-1.23,2.58-3.83,3.94-6.2,5.29-.59.34-1.16.69-1.72,1-1.67-.56-3.52-.8-5.14-1.35s-3.47-1.24-4.24-3a20.77,20.77,0,0,1-1.44-6.8c-.1-1.27-.12-2.54-.12-3.82a10.54,10.54,0,0,0-.09-1.13s0-.09,0-.14a14.67,14.67,0,0,1,1.2-2.24c.51-.77,1.07-1.54,1.65-2.26a9.69,9.69,0,0,0,1.45-2.34,3.11,3.11,0,0,0,.47-1.49,1.66,1.66,0,0,0-1-1.44c-1.07-.47-2.14.21-3,.75a7.46,7.46,0,0,0-2,2.15,13.69,13.69,0,0,0-1.31,2.29.74.74,0,0,0-.67.56c-.22.71-.59,1.37-.82,2.07a8,8,0,0,0-.24,2.18,39,39,0,0,0,.15,4.59,19.36,19.36,0,0,0,2.43,8.36c1.67,2.65,4.5,4.08,7.34,5.14.66.24,1.32.46,2,.65a14.35,14.35,0,0,0-1.75,2.16c-1.18,1.81,2.2,4,3.76,3.26,3.56-1.76,6.5-5.09,10.52-5.8,1.08-.19,2.19-.3,3.24-.58a1.21,1.21,0,0,0,.85-.25h0a5.71,5.71,0,0,0,1-.58,15.77,15.77,0,0,0,.57,4c.3.82,2.4,2.49,3.37,1.73.05-.28.11-.53.16-.84.77-4.33-4-15.68-5.94-19.4s-1-6.39-1.72-18.15c-.37-5.73-.2-10-.26-13.81C395.73,73.38,395.14,73.33,395.05,74Z" fill="#713b2b"/><path d="M330,128.71c2.12-.6,4.21-1.32,6.34-1.87s4.19-.68,6.3-1.07a9.76,9.76,0,0,0,7.12-6,8.77,8.77,0,0,0,.72-.63,11.23,11.23,0,0,0,3.59-9.37c-.45-3.43-2.49-6.34-4.25-9.21a18.09,18.09,0,0,1-2.22-4.73,19.17,19.17,0,0,1-.72-6.47c.14-1.35-2.66-3.3-3.2-1.57a12.21,12.21,0,0,0-.85,5.1A16.21,16.21,0,0,0,344.25,98c1.39,2.93,3.58,5.48,4.75,8.51s.31,6.25-1.82,8.75c-.17.19-.38.33-.55.51a7,7,0,0,0-3.45-1.83c-3.76-.77-9.33,2.17-12.24-1.26-3.21-3.78-1-8.48-.67-12.75a9.82,9.82,0,0,0-1.14-5.65A8.54,8.54,0,0,1,328,98.61c-2.3,4.54-1.15,5.78-2.68,10.52s-5.56,6.6-3.64,12c1.54,4.32,3.43,5.44,4.22,7.54a4.66,4.66,0,0,0,.61.26A5.93,5.93,0,0,0,330,128.71Z" fill="#713b2b"/><path d="M328,74.13a9.65,9.65,0,0,0,2.53,1.36,6.51,6.51,0,0,0,2.71.23h.28A3.63,3.63,0,0,0,334.55,77a3.39,3.39,0,0,0,1.73.67,1.38,1.38,0,0,0,1.26-.47,1.47,1.47,0,0,0,.07-1.35,6.73,6.73,0,0,0-3.8-3.64,5.59,5.59,0,0,0-2.25-.42l-.89,0h-.32l-.15,0,0,0L330,71.7c-.17-.11-.33-.26-.46-.36h0c-.06-.07-.14-.14-.2-.2a1.37,1.37,0,0,0-.13-.2l0,0h0c0-.26-.1-.51-.13-.77s0-.23,0-.35,0-.36,0-.1a.89.89,0,0,1,.08-.32c0,.09,0,.1,0,.08l.07-.05c.65-.46.27-1.35-.2-1.8a2.6,2.6,0,0,0-1-.66,29.45,29.45,0,0,0-1.76,5.52A10.67,10.67,0,0,0,328,74.13Z" fill="#713b2b"/><path d="M335.44,56.79a14.57,14.57,0,0,0,2.46-2A13.68,13.68,0,0,0,339.66,52a6.16,6.16,0,0,1,2.07-2.34c1.24-.69,2.75-.64,4.11-.91,2.51-.49,4.37-2,6.53-3.25a5.35,5.35,0,0,1,3-.94c1.53.07,2.95.76,4.52.6a5.76,5.76,0,0,0,1.9-.55l.37-.18A7.7,7.7,0,0,0,365,46a5,5,0,0,0,3.41-.22,3.83,3.83,0,0,1,1.41-.46,9.32,9.32,0,0,1,1.91.77,5,5,0,0,0,3.14,0c0,.07.05.15.08.23a50.58,50.58,0,0,1-1,5.14c-.45,1.84,2.91,4.08,4.28,2.59a5.67,5.67,0,0,0,1.4-2.74,3.61,3.61,0,0,0,1.79.91c.84.13,1.92-.19,1.74-1.28-.06-.4-.11-.79-.17-1.19a2.8,2.8,0,0,0,1.14.34,1.62,1.62,0,0,0,.88-.21,3.56,3.56,0,0,0,2.3,1.52c.93.14,1.78-.21,1.73-1.29l0-.5a10.82,10.82,0,0,0,1.32.88,2.51,2.51,0,0,0,.73.26c-.34-.8-.77-1.71-1.38-2.85-3.06-5.77-5.75-7-8.24-8.66-15.17-10.07-24.28-7.74-25.66-7.29a4,4,0,0,0,2.41,1.6,26,26,0,0,1,7.73,1.74,17.05,17.05,0,0,1,5.1,2.59l.36.75c.45.92.89,1.84,1.34,2.75-.24.7-.75,1.19-1.49,1a14.86,14.86,0,0,0-3-.95,6.47,6.47,0,0,0-3.31.83.29.29,0,0,0-.1.08,13,13,0,0,0-1.26-1.31,4.17,4.17,0,0,0-3.48-.72c-1.22.32-2,1.13-3.3.93a21.23,21.23,0,0,0-3.7-.57c-2.15.06-3.94,1.15-5.69,2.29a18.68,18.68,0,0,1-2.52,1.48,12.66,12.66,0,0,1-3.45.75,8.11,8.11,0,0,0-3.88,1.61,12.37,12.37,0,0,0-.54,1.55,53.21,53.21,0,0,1-2.92,8.44A1.54,1.54,0,0,0,335.44,56.79Z" fill="#713b2b"/><path d="M393.13,75l0,0h0a.3.3,0,0,1-.08-.08l0,0Z" fill="#713b2b"/><path d="M351.33,97.53s3.38,11.34,0,17.13-6,3.62-9.41,4.59,3.62,20,15.12,25.5c10.9,5.24,28-17.38,29.6-25.1,0,0-11.74,1.25-13.35-3.9s-1.17-9.53-1.49-18.3S351.33,97.53,351.33,97.53Z" fill="#f19967"/><path d="M349.7,56.24a2.84,2.84,0,1,0-2.84,2.83A2.84,2.84,0,0,0,349.7,56.24Z" fill="#758135"/><path d="M372,104.11c0-1.17,0-4.47-.09-6.86-.32-8.77-20.53.28-20.53.28a40,40,0,0,1,1.48,10.91,12.47,12.47,0,0,0,4.71,2.93C360.46,112.19,366.33,109.27,372,104.11Z" fill="#d57940"/><path d="M385.23,78.61c2.94-16.34-5.39-29.92-17.57-32.12S344,54.33,341.1,70.67s8.46,34.66,16.25,36.85C363.46,109.22,382.29,94.94,385.23,78.61Z" fill="#f19967"/><path d="M361.64,109s5.61-3.26,5.69,2.47.16,11.77,3.06,13.3,8.07-2.29,6.19,2.81-10.93,13.19-10.93,13.19l13.67-8.36,5.33-12.67c-3.41.1-10.17-.2-11.36-4s-1.26-7.33-1.35-12.55l-8.71,4.39Z" fill="#d57940"/><path d="M523.86,541.28c-21.72-17.37-38.6-57.67-38.6-57.67l-13.52-40.78c-73.09-49-119.8-101.15-141.35-158.74L320.2,295.64s-6.76,17.37-2.41,57.43,9.65,97.48-.39,140-14.57,55.5-1.78,60.33,8.92-5.79,33.05,0,27-4.83,27-4.83,25.09,18.34,39.57,13.51,25-2.89,31.34-12.54c0,0,30.44,13.51,52.64,0C499.25,549.49,537.45,552.15,523.86,541.28Z" fill="#849038"/><path d="M403.56,444.07c-.06-.42-.12-.82-.17-1.24C403.39,442.83,403.44,443.28,403.56,444.07Z" fill="#646f30"/><path d="M338.61,309.77S385,410.5,462.58,457.15L451.21,421Z" fill="#646f30"/><path d="M321.61,306.33s1.44,21.08-10.54,18.74c0,0,7,5.93,10.59-3.44,0,0-2.19,10.06-3.22,16.39s2.41,13.09,2.41,13.09-3.17-8.4-.14-14.05a42.4,42.4,0,0,0,4-12s-5.41,34,15.21,44.47c0,0-9.84-5.75-7.63-26.42,0,0,3.85,11.3,3.85,16s3.72.56,2.48-3.17c0,0,2.18.28,1.3-2.48,0,0,3.11.42.91-5.51a17.28,17.28,0,0,1,3.31,9.79c.27,6.2,2.48,5.37,2.48,5.37s1.51,5.79,3.44,5.37v-2.61s1,4.82,2.69,4.75l.41-1.1s1,4.47,2.41,4.41-.27-6-.27-6,.68,1.31,1.1-.2-1.24-4.14-1.24-4.14.75,1.45,1.3-.2-2-5.72-2-5.72.48.34.55-.55a28.17,28.17,0,0,0-.62-4.14s2.76,2.62,3.31,5.44A38,38,0,0,0,355,348.36s2,1.1,1.93,2.55a2.24,2.24,0,0,0,1.86,2.54c1.31.42.27,2.07,1.93,1.73s0-2.76,0-2.76a7.38,7.38,0,0,0-1.24-4,53.33,53.33,0,0,0-1.31-5.79l3.28,2.34s2.92,6.06,5.61,6.2.77-3.37-.95-5.13c0,0,.58,0,0-1.64s-3.77-7.66-3.77-7.66,6.23,7.67,7.89,11.74l.17.45c1.34,3.93-2.48-9.81-10.65-19,0,0,4.56,5.89,10.91,4.86,0,0-7.19-.73-10.18-6.93S375.69,336,375.69,336s-10.13-13-17.78-17.68l-2.27-4.85s2.55,1.38,3.31.34c0,0,4.2,1.24,6.13.14s-.62-1.45-.62-1.45,1.93.35,2.07-.89-3.79-1.31-3.79-1.31,1-.83-.49-1.65-4.75.34-4.75.34-.32-1.79-3.81.27a11,11,0,0,0-5.7-7.45s5.06-1.91,5.7-9.22c0,0-18.86,7.38-26.57,1s-7.79-8.41-7.79-8.41l-3.1,9.44,4.07,9.78Z" fill="#646f30"/><path d="M523.86,541.28c-21.72-17.37-38.6-57.67-38.6-57.67l-13.52-40.78q-10.71-7.17-20.66-14.44L464,467.33s16.88,40.3,38.59,57.67c13.59,10.87-24.61,8.21-24.61,8.21-9.73,5.92-21,6.65-30.68,5.6-31.94-22.37-42.34-85.26-43.74-94.74,6.71,48.35,15.53,76.16,21.11,90.06-6.37,8.57-16.69,7-30.66,11.62-7.55,2.52-18-1.26-26.22-5.45-15.14-21.76-13.8-64.17-13.8-64.17-4.14,27.7-2.18,46.73,0,57.06-1.42,2.47-7,8.57-26.59,3.88-10.57-2.54-15.77-1.93-19.35-.85-1,9.89.92,14.62,7.56,17.13,12.78,4.82,8.92-5.79,33.05,0s27-4.83,27-4.83,25.09,18.34,39.57,13.51,25-2.89,31.34-12.54c0,0,30.44,13.51,52.64,0C499.25,549.49,537.45,552.15,523.86,541.28Z" fill="#646f30"/><path d="M341.92,119.25s-2.58-2.17-3.54-1.37-1.29.22-2.74.6-3.21,3-4.34,3.06-3.91-.29-3.48,2.93-8.13,28.34-5.45,42.12c.69,3.55,4,8.64,4.49,10.91,2.74,12.36,2.32,9.43-1.67,49.61-.77,7.7-4,23.86-5,33.18-1.45,13.15-1.87,18.54-3.32,27.39-1.54,9.41,2,12.78,10.94,9.57s10.4-9.15,19.57-3.86,27,9.79,34.74,3.86,18.66,5.61,26.39,6.43l.23,0c7.57.76,19.89-6.72,18.43-14.18-6.1-31.09-28.5-108.86-28.07-128,.48-21.16.82-39.53-.41-41.94s-3.21-.37-5.14-.69-1.61-1.81-2.9-1.15a27.2,27.2,0,0,1-3.38,1.84c-.64.11-3.29-2-3.89.65s-12.84,22.38-26,21.74S341.92,119.25,341.92,119.25Z" fill="#849038"/><path d="M331,203.94a19.91,19.91,0,0,0,7,2.71,79.37,79.37,0,0,0-3.57,14.26,63.58,63.58,0,0,0-.6,17.42c0,.28.81.77.85.33.44-5.76.63-11.47,1.52-17.19A119.32,119.32,0,0,1,339.47,207l1,.2-.07.22a38.22,38.22,0,0,0-1.51,6.14,39.93,39.93,0,0,0-.61,6.17,20.05,20.05,0,0,0,.52,6.42c.16.47,1.24,1.13,1.49.42.6-1.68.52-3.79.75-5.56.27-2,.6-4,1-5.92a55.73,55.73,0,0,1,1.34-5.57c.16-.56.37-1.09.57-1.64,3.9.75,7.8,1.47,11.66,2.38,4.65,1.09,9.44,2.73,11.86,7.17a26.67,26.67,0,0,1,2.43,7.55c.62,3.11,1.16,6.25,1.7,9.38.5,2.88,1,5.77,1.44,8.65,0,1.64,0,3.27,0,4.9.1,3.48.31,7,.56,10.45,0,.28.07.56.09.84-.08,2,0,4,.05,5.89a49.77,49.77,0,0,1-1.17,12.82,21.78,21.78,0,0,1-5.07,9.95,10.89,10.89,0,0,1-3.2,1.93,40.09,40.09,0,0,0,1.77-8A35.85,35.85,0,0,0,366,270c-.05-.26-.8-.82-.86-.34-.25,1.81-.31,3.67-.48,5.5s-.39,3.58-.72,5.36A38.32,38.32,0,0,1,361,290.61a7,7,0,0,1-4.87,3.88,14.84,14.84,0,0,0-6.3.19c9.61,4.67,25.19,8,32.26,2.57a7.87,7.87,0,0,1,3.57-1.54l-.91-.09-1.86-.06c-.3,0-.59,0-.88,0a2.7,2.7,0,0,0-1.85-.76,15.22,15.22,0,0,1-.31-2c-.43-3.89-.86-7.83-1.07-11.73a2.44,2.44,0,0,0,0-.27l.08,0c.68.26,2.07.41,2.22-.64.71-5.28,1.22-10.59,1.5-15.92q.21-3.84.27-7.68c0-1.31.05-2.62,0-3.93,0-.48-.09-.94-.14-1.4.1-2.77-.41-5.67-.58-8.33-.28-4.2-.45-8.42-.55-12.63s-.14-8.24-.16-12.36c0-2.08,0-4.16-.09-6.24a11,11,0,0,0-.72-4.25c.94-1-1.33-3.18-2.55-3.19-4.49,0-9,.68-13.48.68a111.18,111.18,0,0,1-13.15-.81,103.85,103.85,0,0,1-13-2.4c-2.16-.54-7.3-1.1-7.66-4a3.24,3.24,0,0,0-2.36-2.39.88.88,0,0,0-.16,0c-.12,1.53-.28,3.28-.47,5.3A10,10,0,0,0,331,203.94Z" fill="#646f30"/><path d="M336.74,131.5a1.2,1.2,0,0,0,.72.62c.19,0,.6,0,.61-.24.08-1.15,0-2.28-.05-3.44a24.13,24.13,0,0,1,.18-3.4,22.68,22.68,0,0,1,1.9-6.91s0,0,0-.07c-.65-.33-1.33-.51-1.73-.18a1.85,1.85,0,0,1-1.51.46,19.06,19.06,0,0,0-1.28,5.41A14.58,14.58,0,0,0,336.74,131.5Z" fill="#646f30"/><path d="M332.14,181.63a32.81,32.81,0,0,0,6.46,3.76,20,20,0,0,0,4.48,1.31,5.15,5.15,0,0,0,1.08,1,3.57,3.57,0,0,0,.27.28,3.12,3.12,0,0,0,2.53,1.7c1.63-.21,3.18-.15,4.81-.5s3-.71,4.48-1.13c.69-.19,1.37-.43,2.05-.64.62,1.2,2.54,2.38,3.68,1.8a27.92,27.92,0,0,1,10.44-2.82,21.56,21.56,0,0,0,4.14-.68l0,.09c.19.64,1.77,1.61,2.08.59.2-.69.38-1.32.52-2a7.44,7.44,0,0,0,1.05-.92c.7-.75.09-1.67-.76-2.35,0-.93,0-1.86,0-2.8,0-2.95,0-5.9.14-8.85a62.73,62.73,0,0,1,3-16.69c1.86-5.47,4-10.68,5.07-16.38.53-2.86.91-5.75,1.29-8.63.4-3.09.4-6.18.69-9.26a1.11,1.11,0,0,0-.05-.25,11.28,11.28,0,0,1-2.4,1.29c-.64.11-3.29-2-3.89.65-.53,2.29-9.58,17-20.45,20.84-1.87,1.49-3.7,3-5.46,4.66a56,56,0,0,0-5,5.07c-1.54,1.82-2.92,3.75-4.45,5.57-.83,1,1.57,2.76,2.46,1.79a144.45,144.45,0,0,1,10.76-9.92c3.51-3.11,7.19-6,11-8.73a30.41,30.41,0,0,0,4.93-4.28,36,36,0,0,0,3.84-5.7c1.57-2.64,3.17-5.24,4.62-7.92-.31,1.35-.6,2.71-.8,4.1-.42,2.87-.82,5.75-1.35,8.6-1.1,5.91-3.37,11.27-5.23,16.94a59.29,59.29,0,0,0-2.59,13,34.89,34.89,0,0,1-4,6.9,30.75,30.75,0,0,1-6.76,7,24.13,24.13,0,0,1-2,1.29c-.55,0-1.11,0-1.66,0a28.17,28.17,0,0,1-4.77-.29,12,12,0,0,1-3.5-1.15,8,8,0,0,1-3-2.33c-.58-.88-2.52-1-1.74.34a12.21,12.21,0,0,0,2.68,3.46c-.78-.07-1.55-.14-2.32-.27-2.36-.4-4.84-1.21-6.4-3.12a2.06,2.06,0,0,0-1-.6,5.13,5.13,0,0,0-1-.88,6.07,6.07,0,0,0-2.16-.76c-1.36-.72-2.93-.91-4.32-1.58-5.43-2.61-8.27-8.62-9.09-14.5a109.51,109.51,0,0,1,2.12-17.21c1.13-5.88,2.46-11.74,3.68-17.6a1.66,1.66,0,0,0-.45-1.33c-1.17.12-2.45.63-2.15,2.88.42,3.22-8.13,28.34-5.45,42.12.58,3,2.95,7,4,9.56A34.73,34.73,0,0,0,332.14,181.63Z" fill="#646f30"/><path d="M330.75,131.26a50.69,50.69,0,0,0,2.55,15.21c.11.31,1,.75.95.17-.35-4.66-1.06-9.28-1.28-14-.1-2.36-.14-4.73-.06-7.09a19.76,19.76,0,0,1,.77-5.76c-.88.82-1.74,1.69-2.38,1.71h0a13.66,13.66,0,0,0-.47,2.66A69.25,69.25,0,0,0,330.75,131.26Z" fill="#646f30"/><path d="M468.84,412c-7.24-5.8-17.37-12.55-17.37-12.55s3.38-18.82,0-24.13-13-9.17-13-9.17,3.38-22.68,1.45-25.58-9.83-8.69-9.83-8.69-2.76-19.16-6.9-32.53c-36.59-17.45-102-64.35-96.3-121.8l-4.49-10.91s-14.44,53.12,6.26,112.64,68,113.25,143.11,163.6C471.74,442.83,476.08,417.74,468.84,412Z" fill="#dfeaf6"/><path d="M332.12,269.75c-14.74-42.38-11.66-81.5-8.66-100.52l-1.09-2.64s-14.44,53.12,6.26,112.64,68,113.25,143.11,163.6a105.89,105.89,0,0,0,1.18-11.05C399.13,381.88,352.61,328.65,332.12,269.75Z" fill="#b9cbdb"/><path d="M387.28,119.54a6.17,6.17,0,0,1,6.26-2c4.09.93,3.66-.66,6.82,0s3.6,4.09,3.6,4.09-4.83,27.75-3.6,44.26,20.56,81.59,23.36,90.43c4.58,14.47,11.39,32.57,8.07,35.79s-9.06,7.08-10.86,15.44-19.5,17.38-23.36,11.91-3.8-25.42-3.8-25.42-10.63,5.79-17.25,0,2.14-124.92,4.75-145.1A189.07,189.07,0,0,1,387.28,119.54Z" fill="#dfeaf6"/><path d="M398.75,119.8c.05,3.37.48,27.5-.79,29.61s-4,3.09-2.65,5.77,2.47,3.52,1.68,6.48-13.51,3.86-13.51,3.86l-4.42,6.63-.12,1.49,23.54,5.93.17-.4a109,109,0,0,1-2.29-13.29c-1.23-16.51,3.6-44.26,3.6-44.26a5.92,5.92,0,0,0-.71-1.94C401.69,118.75,398.71,117.32,398.75,119.8Z" fill="#b9cbdb"/><path d="M413.81,263c-1.5-10.1-2.83-18-2.83-18S412.12,253.14,413.81,263Z" fill="#b9cbdb"/><path d="M376.43,209.27c9.82,3.86,31.3-.51,31.3-.51s19.85,69.75,22.33,76.26-1.81,10.33-6.82,11.1c-3,.47-6.86-18.25-9.43-33.17,2.45,16.42,5.38,38.73,3.9,42.66-2.39,6.36-20.14,13.84-21.69,0-1.34-11.93-2.85-71.25-3.24-87.31.29,14.5.82,63.51-5.36,70.84-4.34,5.15-11.23,1.51-13.32-21.75,0,22.94,1.65,26,2.42,26.64,6.62,5.79,17.25,0,17.25,0s0,20,3.8,25.42,21.56-3.54,23.36-11.91,7.53-12.22,10.86-15.44-3.49-21.32-8.07-35.79c-1.75-5.52-9.94-33-16.15-56.85-9,1.15-24.66,3.4-30.9,5.92Z" fill="#b9cbdb"/><path d="M392.78,218.3c0-2.55-.1-4.06-.1-4.06S392.72,215.74,392.78,218.3Z" fill="#b9cbdb"/><path d="M389.45,182.45a4.35,4.35,0,0,0-.06-.52,4.24,4.24,0,0,0,2.46-1.2,4.29,4.29,0,0,0,1.21-2.55,1.92,1.92,0,0,0,.86.21,2,2,0,0,0,2-2c0-1.13.37-.84-.76-.84-.29,0,.29-.82,0-.71,0-.51.46-.29.17-.66.09,0-.35-.68-.25-.68,1.11,0-.28-1.13-.28-2.23a2,2,0,0,0-1-1.71,2.05,2.05,0,0,0,.07-.34,2.57,2.57,0,0,0-2.58-2.57,2.51,2.51,0,0,0-2,1,1.92,1.92,0,0,0,.11-.54,2.08,2.08,0,0,0-4-.89,2.94,2.94,0,0,0-.55-.3,2.56,2.56,0,0,0-5.12,0,2.17,2.17,0,0,0,.07.35,2.21,2.21,0,1,0-1.13,4.1c.58,0,.9,2.58,1.29,2.22.34,1.52,1.91-.15,3.54-.15a3.37,3.37,0,0,0,2.52-1.15,2,2,0,0,0,3.11-.75,2.47,2.47,0,0,0,1.78,1.15,2,2,0,0,0,.35.75,1.61,1.61,0,0,0-.38-.08,2.09,2.09,0,0,0-1.83,1.11,4.22,4.22,0,0,0-4.55,4l-.17,0a5,5,0,1,0,5,5Zm-.55-13.94s0,0,0,0l0,0S388.91,168.49,388.9,168.51Z" fill="#9b71ae"/><path d="M389.64,169.66s0,0,0-.06l0,0A0,0,0,0,0,389.64,169.66Z" fill="#775783"/><path d="M377.26,169.29a2.23,2.23,0,0,1,2.23-2.23,2.13,2.13,0,0,1,1.13.36,2.29,2.29,0,0,1-.07-.36,2.56,2.56,0,0,1,2.56-2.56,2.53,2.53,0,0,1,1.66.65,2.52,2.52,0,0,0-2.4-1.8,2.56,2.56,0,0,0-2.56,2.56,2.17,2.17,0,0,0,.07.35,2.18,2.18,0,0,0-3.36,1.88,2.18,2.18,0,0,0,.85,1.7A2.44,2.44,0,0,1,377.26,169.29Z" fill="#775783"/><path d="M390.19,168.24a2,2,0,0,1-.11.55,2.52,2.52,0,0,1,2-1,2.57,2.57,0,0,1,1.69.66,2.55,2.55,0,0,0-2.43-1.81,2.42,2.42,0,0,0-1.51.54A2,2,0,0,1,390.19,168.24Z" fill="#775783"/><path d="M385.49,166.19a2.69,2.69,0,0,1,.18.86,2.94,2.94,0,0,1,.55.3,2.09,2.09,0,0,1,1.88-1.2,2,2,0,0,1,1.25.47,2,2,0,0,0-3.86-.43Z" fill="#775783"/><path d="M326.86,177.5s20.32,17.71,58.63,2.93l.22,22s-36.83,10.22-57.76-3.79C328,198.66,323.38,194.64,326.86,177.5Z" fill="#5681a4"/><path d="M328,193.32s-1.85-1.65-2.29-7.25C325,196,328,198.66,328,198.66c20.93,14,57.76,3.79,57.76,3.79l0-5.33C384.53,197.43,348.56,207.12,328,193.32Z" fill="#415779"/><path d="M367.43,176.68s-1.43-4.77,2.36-7.24,5.55.29,5.55.29,7.38-1.56,6.52,7S367.43,176.68,367.43,176.68Z" fill="#9d5224"/><path d="M375.34,169.73a3.34,3.34,0,0,0-4.22-1,3.24,3.24,0,0,1,2.27,1.29s7.38-1.56,6.53,6.95a3.68,3.68,0,0,1-2.32,3.45c2.2,0,4-.86,4.26-3.75C382.72,168.17,375.34,169.73,375.34,169.73Z" fill="#81441d"/><path d="M383.55,178s-3.15-6.88-12.77-3.63-5,14.05-5,14.05l9,1.93,10-7-1.26-4.95Z" fill="#ac782b"/><path d="M382.7,179s-1.68-1.69-1.51-6.09c.11-2.88-1.13-4.52.22-5.59,3-2.35,4.3,1.45,6.56,1.85s5.18.22,5.63,5.17S382.7,179,382.7,179Z" fill="#68853f"/><path d="M388,169.2c-2.08-.37-3.38-3.63-5.91-2.27,1.2.64,2.2,2,3.52,2.27,2.25.4,5.18.22,5.63,5.17.33,3.51-5.27,4.38-8.57,4.6a.28.28,0,0,1,.06.06s11.35.29,10.9-4.66S390.22,169.6,388,169.2Z" fill="#516931"/><path d="M383.55,178.36V178a8.65,8.65,0,0,0-7.73-4.49,8.25,8.25,0,0,1,2.91,9.76c-1.19,3.72-3,5.77-4.81,6.89l.88.19,10-7Z" fill="#a06f29"/><path d="M383.4,183.89s-3.19-5.1,1.47-8.44,8.65-2.71,10.86,1.89-1.85,11.78-1.85,11.78l-3.26,1.18-6.23-5.2Z" fill="#b89830"/><path d="M395.73,177.34c-1.52-3.17-3.9-4.41-6.75-3.81a6.82,6.82,0,0,1,3.52,3.61c2.21,4.6-1.85,11.79-1.85,11.79l-1.17.42,1.14,1,3.26-1.18S397.94,181.94,395.73,177.34Z" fill="#957f2f"/><path d="M375.54,188.84s-2.41-6.8,4.22-6.25,10.05-1.57,11.54,2.17-1.76,8.44-1.76,8.44l-9.9,4.17s-2.95-4.17-3.44-6S375.54,188.84,375.54,188.84Z" fill="#c24230"/><path d="M391.3,184.76c-1.22-3-3.75-2.22-8.23-2.1,4.35,1.57,7.05,2,7,5.5,0,2.48-1.64,4.64-3.12,6.12l2.57-1.08S392.79,188.5,391.3,184.76Z" fill="#a03826"/><path d="M379,196.36l.69,1,2.46-1Z" fill="#a03826"/><path d="M383.07,183.89s-.83-4.26,0-5.22,1.32.68,1.32.68S383.37,179.79,383.07,183.89Z" fill="#5f4c29"/><path d="M383,183.58s-.4-3.23-4.82-4.59A4.8,4.8,0,0,0,383,183.58Z" fill="#758135"/><path d="M376.83,191.82a4.75,4.75,0,0,0-.53.05,4.24,4.24,0,0,0-1.2-2.46,4.2,4.2,0,0,0-2.54-1.2,2.09,2.09,0,0,0,.2-.86,2,2,0,1,0-4.08,0,1.85,1.85,0,0,0,.18.81,2.19,2.19,0,0,0-1.32.5,2.47,2.47,0,0,0,.06-.29,2,2,0,0,0-3.71-1,3.23,3.23,0,0,0-.33-.06,2.57,2.57,0,0,0-2.58,2.57,2.54,2.54,0,0,0,1,2,2,2,0,0,0-.54-.11,2.08,2.08,0,0,0-.9,4,3.76,3.76,0,0,0-.3.56,2.56,2.56,0,0,0,0,5.12,2.09,2.09,0,0,0,.36-.08,2.13,2.13,0,0,0-.36,1.13,2.23,2.23,0,0,0,4.46,0,2.21,2.21,0,0,0-.61-1.5,3.4,3.4,0,0,0,2.67-3.32,3.36,3.36,0,0,0-1.14-2.53,2,2,0,0,0,.47-1.25,2,2,0,0,0-1.22-1.85,2.54,2.54,0,0,0,1.15-1.78,2,2,0,0,0,.74-.35,2.2,2.2,0,0,0-.07.37,2.12,2.12,0,0,0,1.11,1.84,4.22,4.22,0,0,0,1.22,3.32,4.31,4.31,0,0,0,2.75,1.23c0,.05,0,.1,0,.16a5,5,0,1,0,5-5Zm-13.95.54h0l0,0Z" fill="#9b71ae"/><path d="M365.29,200.27s0,.1.09.14a3,3,0,0,0,.38-.33A3.85,3.85,0,0,1,365.29,200.27Z" fill="#775783"/><path d="M364.73,186.61c.11,0,.21,0,.32.06a1.77,1.77,0,0,1,.17-.24A2.05,2.05,0,0,0,364.73,186.61Z" fill="#775783"/><path d="M368.75,187.63v0a1.55,1.55,0,0,0,0,.21,2,2,0,0,1,1.22-.44,2.08,2.08,0,0,1-.18-.82,2,2,0,0,1,.45-1.22,2,2,0,0,0-1.59,1.92A1.8,1.8,0,0,1,368.75,187.63Z" fill="#775783"/><path d="M364,191.62H364l0,0Z" fill="#775783"/><path d="M378,201.15a5,5,0,0,1-5-5,.78.78,0,0,1,0-.16,4.23,4.23,0,0,1-4-4.55,2.12,2.12,0,0,1-1.11-1.84,2.21,2.21,0,0,1,.08-.37,2,2,0,0,1-.75.35,2.45,2.45,0,0,1-.44,1.08,2.17,2.17,0,0,0,1.07,1.52,4.22,4.22,0,0,0,1.22,3.32,4.31,4.31,0,0,0,2.75,1.23c0,.05,0,.1,0,.16a5,5,0,0,0,5,5A5,5,0,0,0,380,200.7,5,5,0,0,1,378,201.15Z" fill="#775783"/><path d="M363.67,204a2.23,2.23,0,0,1-2.23-2.23,2.15,2.15,0,0,1,.35-1.12c-.12,0-.23.07-.35.07a2.53,2.53,0,0,1-1.91-4.23,2.54,2.54,0,0,0-1.81,2.41,2.56,2.56,0,0,0,2.56,2.56,2.09,2.09,0,0,0,.36-.08,2.13,2.13,0,0,0-.36,1.13,2.23,2.23,0,0,0,2.23,2.23,2.18,2.18,0,0,0,1.71-.85A2.07,2.07,0,0,1,363.67,204Z" fill="#775783"/><path d="M362.62,191.08a1.92,1.92,0,0,1,.54.11,2.48,2.48,0,0,1-.36-3.69,2.54,2.54,0,0,0-1.82,2.42,2.42,2.42,0,0,0,.54,1.51A2.11,2.11,0,0,1,362.62,191.08Z" fill="#775783"/><path d="M360.56,195.78a2.55,2.55,0,0,1,.87-.18,3,3,0,0,1,.3-.56,2.06,2.06,0,0,1-1.2-1.87,2.09,2.09,0,0,1,.46-1.26,2.07,2.07,0,0,0-1.62,2A2.1,2.1,0,0,0,360.56,195.78Z" fill="#775783"/><path d="M442.62,187.71c-3.62-2.41-7.24-12.78-10.61-21S413.06,136,409,127.25a13,13,0,0,0-10.21-7.45c.25,1.57,2.29,10.88,1.32,38.78,2.9,4.25,5.93,9.62,8.09,12.14,3.74,4.34,11.66,14.82,11.66,14.82-1.33.73-2.21,4.27-5.43,8.29s-14.88,9.33-20.19,5.07-7.64-3.14-9.25-5.31-2.57-3.78-5.31-4.35-6.19-3.62-7-3.46-.41,2.66.16,4.11,4.9,2.65,6.59,4.18-.4,2.65-2.49,3.62-5.63-1.53-6.92-2.66-2.57-5-1.61-6.19-.32-5-1.16-5.59-1.21,3.86-2.54,5.31.36,8,.36,8c-1.44.85-2.41,4.47-.84,5.79s2.05,2.78,4.28,4.83,11.4,1.93,18.88.89,20.27-.77,33.91-.05,18.7-7.6,21.35-10S446.24,190.13,442.62,187.71Z" fill="#f19967"/><path d="M367.69,192.52c.38,2.75,3.1,5,5.55,6a8.51,8.51,0,0,0,4.5.43,18.1,18.1,0,0,0,2.07-.43,1.71,1.71,0,0,0,1.43-1.25c.23-1.26-.88-2.68-1.75-3.46a17.88,17.88,0,0,0-3.46-2.22,5.31,5.31,0,0,1-.76-.48v0l-.16-.13c-.18-.16-.38-.31-.56-.48l0,0a4.64,4.64,0,0,1-.36-.44,3.53,3.53,0,0,1-.4-.74,13.89,13.89,0,0,1-.82-3.48.93.93,0,0,0-.29-.06c-.81.17-.41,2.66.16,4.11s4.9,2.65,6.59,4.18-.4,2.65-2.49,3.62-5.63-1.53-6.92-2.66-2.57-5-1.61-6.19a2.27,2.27,0,0,0,.33-1.52c-.08.35-.18.69-.28,1A9.67,9.67,0,0,0,367.69,192.52Z" fill="#d57940"/><path d="M404.64,163.83a7.53,7.53,0,0,0,.16-1.06,9.82,9.82,0,0,0,.09-1.53c0-.47-.13-.93-.18-1.39a12.37,12.37,0,0,1,0-1.36s0,0,0,0c.18.19.33.4.51.59.65.72,2.1,1.49,3,.9s.31-1.9-.27-2.53a32.54,32.54,0,0,1-6.06-9.73c-1.07-2.6-1.09-4.69-1.58-7.4,0,3.17-.27,6-.37,10.14,0,0,0,1.71-.16,1.62,0,2,.38,4.26.3,6.52,1.29,1.89,1.92,3.86,3.36,5.89A1,1,0,0,0,404.64,163.83Z" fill="#d57940"/><path d="M432.9,204.24c-3.84,1.13-7.84,1.2-11.81,1.3l-12.58.3-25.17.59-6.55.15c-2.1,0-4.36.28-6.39-.39a13.33,13.33,0,0,1-4.36-2.34,32.57,32.57,0,0,1-2.38-2.32,2,2,0,0,0,.54.78c1.57,1.33,2.05,2.78,4.28,4.83s11.4,1.93,18.88.89,20.27-.77,33.91-.05,18.7-7.6,21.35-10c2.39-2.17,3.38-6.76.93-9.42,0,.13.08.25.11.38C445.42,196.25,439.46,202.29,432.9,204.24Z" fill="#d57940"/><path d="M392.08,200.09a16.48,16.48,0,0,0,13.27,1.64c4.6-1.41,8.47-4.32,12.16-7.31s8.64-5.68,13.6-4.55c1,.24.75-1,.05-1.25-4.17-1.65-9.25-2.28-13.35-.16a33.61,33.61,0,0,1-3.42,5.37c-3.22,4-14.88,9.33-20.19,5.07-4-3.2-6.29-3.37-7.87-4.17.17.24.33.49.51.72A18.32,18.32,0,0,0,392.08,200.09Z" fill="#d57940"/><path d="M366.6,199a11.6,11.6,0,0,1-1-2.83c-.27-1-.59-2-.78-3a12.45,12.45,0,0,1-.12-4.59c-1.28,1.5.38,7.93.38,7.93a2.64,2.64,0,0,0-.37.32c.51.75,1.08,1.49,1.63,2.19C366.41,199.17,366.73,199.22,366.6,199Z" fill="#d57940"/><path d="M421.8,176.24h0a55.22,55.22,0,0,0-.45-5.71,11.24,11.24,0,0,0-.66-2.79v0a24.11,24.11,0,0,0-3-7.08h0c-8.94-16-19.65-10.1-20.94-8.66s-.38,2.34-.38,2.34c5.36-.68,6.74,2.87,7.09,4.8a8.61,8.61,0,0,0-.21,5.48,5.21,5.21,0,0,0-2.23,3A8,8,0,0,0,396,167c-1.85-2.17-4.83-.88-3.54.49s3.38,4.9,2.09,14.31c-1,7.15-6.3,11-8.81,12.5a25.17,25.17,0,0,0,2.09,1.78h0l.18.12c.4.31.82.62,1.29.93h0a23.31,23.31,0,0,0,4.43,2.35s5.83,1.64,9.16.87l.45-.11c.29-.08.59-.15.88-.25a14.24,14.24,0,0,0,1.44-.56c1.14-.52,2.19-1,3.19-1.59.32-.17.6-.36.91-.53.66-.38,1.3-.77,1.9-1.16l.92-.65c.54-.39,1.06-.79,1.54-1.19.27-.22.54-.45.79-.68s.35-.28.5-.43l.06-.12a20.6,20.6,0,0,0,5.57-9.42l.06-.13A17.44,17.44,0,0,0,421.8,176.24Z" fill="#d1a660"/><path d="M391,192.86a14.91,14.91,0,0,1-1.2,1A9.77,9.77,0,0,0,391,192.86Z" fill="#af8c51"/><path d="M397.38,166.88A7.09,7.09,0,0,0,396,167l0,0c.94,1.58,1.68,4.31,1.65,9-.06,9.6-4.4,14.82-6.56,16.83C394.14,190.07,401.86,181.32,397.38,166.88Z" fill="#af8c51"/><path d="M421.8,176.24h0a55.22,55.22,0,0,0-.45-5.71,11.24,11.24,0,0,0-.66-2.79v0a24.11,24.11,0,0,0-3-7.08h0a29.56,29.56,0,0,0-4.31-6,.83.83,0,0,0-.15-.24c-2.68-2.68-5.95-5.4-11.71-4.55s-5.45,3.62-5.45,3.62a1.29,1.29,0,0,0,.3.83c5.36-.68,6.74,2.87,7.09,4.8a8.61,8.61,0,0,0-.21,5.48,5.21,5.21,0,0,0-2.23,3C416,170,415.4,181.22,415.36,182.47c-.08,2.47-1.44,8-7.48,14-4.38,4.4-12.39,3-16.46,2a23.73,23.73,0,0,0,2.27,1.06s5.83,1.64,9.16.87l.45-.11c.29-.08.59-.15.88-.25a14.24,14.24,0,0,0,1.44-.56c1.14-.52,2.21-1,3.21-1.52.32-.17.64-.37.94-.55.66-.38,1.3-.78,1.9-1.17l.95-.65c.53-.39,1-.83,1.46-1.23.27-.22.54-.45.79-.68s.35-.28.5-.43l.06-.12a20.6,20.6,0,0,0,5.57-9.42l.06-.13A17.44,17.44,0,0,0,421.8,176.24Z" fill="#af8c51"/><path d="M451.47,399.4s-34.26-17.21-69-64.83c0,0,58,65.79,66.76,55.66,4.49-5.22,3-13,3-13S454.27,385.08,451.47,399.4Z" fill="#b9cbdb"/><path d="M438.44,366.1s-21.05-8.85-35.05-23.49c0,0,27.89,22.29,32.4,14.56a34.11,34.11,0,0,0,4.37-16S441.62,346.37,438.44,366.1Z" fill="#b9cbdb"/><path d="M430.06,331.83l-17.67-10.71s17.61,11.23,15.87,0C428.26,321.12,429.75,329.72,430.06,331.83Z" fill="#b9cbdb"/><path d="M363.73,93.72a1.3,1.3,0,0,0-.87-.1,2.28,2.28,0,0,1-.52,0s0,0,0,0-.16-.14-.28-.17a3,3,0,0,0-1.15.11,2.32,2.32,0,0,1-.78-.07,6.26,6.26,0,0,1-1.59-.9,3.3,3.3,0,0,0-.45-.26c-.14-.08-.31-.11-.44-.18a4.32,4.32,0,0,0-1-.35c-.42-.1-.94.35-1.15.67s-.36.86.07,1a2.15,2.15,0,0,1,.82.39c.08.08.17.21.27.3l.38.34a4.58,4.58,0,0,0,1.86,1.07,4.26,4.26,0,0,0,2.39-.31,3.11,3.11,0,0,0,.88-.64c.09-.09-.08,0,0,0a1.18,1.18,0,0,1,.19-.11c.38-.16.78-.2,1.16-.35C363.7,94.11,363.93,93.84,363.73,93.72Z" fill="#d57940"/><path d="M379.31,90.71a22.73,22.73,0,0,0,.6-2.33s0-.08,0-.12c.38-.65.85-1.28,1.2-1.9a22.23,22.23,0,0,0,2.53-6.44,8.87,8.87,0,0,0,.07-3.63,1.36,1.36,0,0,0-.28-1.42,5.65,5.65,0,0,0-1.12-1l-.3-.2-.21-.12a3.68,3.68,0,0,0-.57-.26,6.85,6.85,0,0,0-5,.05A3.74,3.74,0,0,0,374.41,75c-2.82-1.29-3.15-5-4-7.55a4.92,4.92,0,0,0-2.11-2.94c-1.36-.73-3.11.15-4.31-.71s-1.94-2.54-2.69-3.7l-1.42-2.2c-.52-.83-1.24-1.46-1.76-2.26-.65-1-2.34,0-3.08,1.13a13.37,13.37,0,0,0-3,3.63,3.8,3.8,0,0,1-.55.78s0,0,0,0h-.06c-.63.12-1.39-.14-2.05-.07a5,5,0,0,0-4.09,3.27c-.43,1.3,0,2.72-.49,4a21.44,21.44,0,0,1-2.28,3.26,12.4,12.4,0,0,0-1.79,3.74,38.33,38.33,0,0,0,1.48,11.14c.89.41,2.22-.92,2.21-1.74s.32-1.45.3-2.21-.17-1.64-.18-2.46a32.09,32.09,0,0,1,.1-3.79l.08-.09s0,0,0,0l.06,0c.4-.17-.12,0,.15-.08a4.43,4.43,0,0,1,1.68-.26,7.43,7.43,0,0,1,2.15.4c.69.24,1.37.56,2,.84s1.31.69,2,1c1.29.61,2.33,2.41,3.93,2.17a1.35,1.35,0,0,0,1-.9,3.08,3.08,0,0,0-.82-2.78,28.2,28.2,0,0,0-1.9-2.16,9,9,0,0,0-5.34-2.62,8.67,8.67,0,0,0-3.33.17,20.5,20.5,0,0,0,2.34-3.52,8,8,0,0,0,.73-3.16,5.74,5.74,0,0,0,1.54-.18,7.55,7.55,0,0,0,3.74-2.7,21.4,21.4,0,0,0,1.18-1.84c0,.06,0,.12.07.17.44.76.89,1.52,1.35,2.26a21,21,0,0,0,2.85,4.06c1.32,1.24,2.52,1.13,4.21,1.17s1.89,1.56,2.23,2.87a25.19,25.19,0,0,0,1,3.3,8.22,8.22,0,0,0-3.37,5.18c-.48,2,2,1.83,3,.79.18-.19,0-.21.4-.19a7.44,7.44,0,0,1,1.24.12,24.22,24.22,0,0,1,2.94,1.1c1,.39,2.09.52,3.13.81a1.66,1.66,0,0,1,.72.4,7.69,7.69,0,0,1,.16,3.63c-.63,2.75-2.3,5.21-3.13,7.92a14.33,14.33,0,0,1-3.28,6.25,27.7,27.7,0,0,1-2.28,2.64c-1.07.86-2,1.55-3,2.47-.2.19-.8.61-.9.88,5-2.34,11.5-7.75,16.21-14.55C379.38,91.48,379.34,91.09,379.31,90.71Z" fill="#d57940"/><path d="M376.28,73.81a1.62,1.62,0,0,0-.91-.41,7.63,7.63,0,0,0-1.07-.13,9,9,0,0,1-1-.1,4.36,4.36,0,0,0-1.14,0c-1.49.16-3,.48-4.46.58a1.93,1.93,0,0,0-1.49,1.33c-.17.64.24,1,.84.94,1.47-.14,2.87-.54,4.31-.81a10.92,10.92,0,0,0,1.14-.22,3.77,3.77,0,0,1,.94-.21c.74,0,1.46.14,2.19,0C375.92,74.81,376.67,74.16,376.28,73.81Z" fill="#824c24"/><path d="M359.44,73.56a25.38,25.38,0,0,0-5.31-3.64C352.49,69,350.5,68,348.6,68.5c-.18,0-.74.53-.36.67.82.31,1.66.52,2.46.89A16.12,16.12,0,0,1,353,71.47a30.14,30.14,0,0,0,5.29,3.29C358.82,75,360,74,359.44,73.56Z" fill="#824c24"/><path d="M363,93.32a.79.79,0,0,0-.65-.16,2.12,2.12,0,0,0-.69.21l.28-.05a8,8,0,0,0-1,.24,3.21,3.21,0,0,1-1.33-.25,6.57,6.57,0,0,0-.77-.16,6.74,6.74,0,0,1-.74-.3l-1.42-.63c-.39-.17-1.08.57-.64.81.59.32,1.21.62,1.79,1,.29.18.45.45.75.62a4.17,4.17,0,0,0,.84.36,2.21,2.21,0,0,0,2-.34l.41-.32.13-.15h0c.27-.11.55-.19.82-.31S363.25,93.48,363,93.32Z" fill="#824c24"/><path d="M366.07,97.56a5.88,5.88,0,0,1-2.54.94l-.11,0c-.21-.09-.15-.11-.26-.24a3.27,3.27,0,0,0-1-.6,2.52,2.52,0,0,0-1.07-.29c-.45,0-.87.31-1.29.29a4.88,4.88,0,0,1-1.17-.45,1.69,1.69,0,0,0-1.13-.08,9.79,9.79,0,0,1-1.39.45,2.9,2.9,0,0,1-.51,0c-.43-.2-.83-.46-1.24-.7a8.34,8.34,0,0,0-.92-.52c-.33-.15-.68-.21-1-.39-.13-.07-.41.2-.28.3a9.63,9.63,0,0,1,.72.71,8.79,8.79,0,0,0,.79.57l.25.17a.22.22,0,0,0,.11.22,2.39,2.39,0,0,0,.58.22c.37.33.72.69,1,1a11.25,11.25,0,0,0,1.77,1.68,3.14,3.14,0,0,0,2.31.56c.47-.09.92-.3,1.39-.41a6.06,6.06,0,0,0,1.38-.4c.19-.09.5-.57.08-.53a4.05,4.05,0,0,0-1.14.28,5.25,5.25,0,0,1-.74.23,4,4,0,0,1-.69,0,3.45,3.45,0,0,1-2.34-.72,15.51,15.51,0,0,1-1.41-1.28,6.06,6.06,0,0,1,1,.18c.59.19,1.14.5,1.74.66a3,3,0,0,0,1.54,0,6.94,6.94,0,0,1,2.36-.15c1.39.11,2.19-.59,3.27-1.37C366.42,97.75,366.38,97.35,366.07,97.56Z" fill="#824c24"/><path d="M319.21,299s1.44,21.08-10.54,18.74c0,0,7,5.92,10.59-3.45,0,0-2.19,10.06-3.22,16.4s2.41,13.09,2.41,13.09-3.17-8.41-.14-14.06a42.39,42.39,0,0,0,4-12s-5.41,33.95,15.21,44.46c0,0-9.84-5.75-7.63-26.41,0,0,3.85,11.29,3.85,16s3.72.55,2.48-3.17c0,0,2.18.28,1.3-2.48,0,0,3.11.41.91-5.51a17.23,17.23,0,0,1,3.31,9.78c.27,6.2,2.48,5.37,2.48,5.37s1.51,5.79,3.44,5.38v-2.62s1,4.82,2.69,4.75l.41-1.1s1,4.48,2.41,4.41-.27-6-.27-6,.68,1.31,1.1-.21-1.24-4.13-1.24-4.13.75,1.44,1.3-.21-2-5.72-2-5.72.48.35.55-.55a28.21,28.21,0,0,0-.62-4.13s2.76,2.62,3.31,5.44A38,38,0,0,0,352.62,341s2,1.1,1.93,2.55a2.25,2.25,0,0,0,1.86,2.55c1.31.41.27,2.07,1.93,1.72s0-2.75,0-2.75a7.4,7.4,0,0,0-1.24-4,53.33,53.33,0,0,0-1.31-5.79l3.28,2.35s2.92,6.06,5.61,6.2.77-3.38-.95-5.14c0,0,.58,0,0-1.63S360,329.4,360,329.4s6.23,7.68,7.89,11.75c.06.15.12.3.17.45,1.34,3.92-2.48-9.82-10.65-19,0,0,4.56,5.89,10.91,4.86,0,0-7.19-.72-10.18-6.92s15.19,8.16,15.19,8.16-10.13-13-17.78-17.67l-2.27-4.86s2.55,1.38,3.31.35c0,0,4.2,1.24,6.13.13s-.62-1.44-.62-1.44,1.93.34,2.06-.9-3.78-1.31-3.78-1.31,1-.82-.49-1.65-4.75.34-4.75.34-.32-1.79-3.81.28a11,11,0,0,0-5.7-7.46s5.05-1.91,5.7-9.21c0,0-18.86,7.37-26.57,1s-7.79-8.4-7.79-8.4l-3.1,9.43,4.07,9.79Z" fill="#fbc56f"/><path d="M353.91,358.83a1.55,1.55,0,0,1-.35-.42s.23.82.45,1.86A3.28,3.28,0,0,0,353.91,358.83Z" fill="#c89f5b"/><path d="M346.26,292.32a10.42,10.42,0,0,1,1.39.83,10.94,10.94,0,0,0,3.35-6A9.43,9.43,0,0,1,346.26,292.32Z" fill="#c89f5b"/><path d="M363.35,304.46c-1.93,1.11-6.14-.13-6.14-.13-.75,1-3.3-.35-3.3-.35l1.34,2.87a1.31,1.31,0,0,0,1.3-.35s4.2,1.24,6.13.13-.62-1.44-.62-1.44,1.93.34,2.06-.9a.56.56,0,0,0-.12-.41A1.45,1.45,0,0,1,363.35,304.46Z" fill="#c89f5b"/><path d="M354,354.63a1,1,0,0,1-.53-.45,13.14,13.14,0,0,1,.64,1.23A4.71,4.71,0,0,0,354,354.63Z" fill="#c89f5b"/><path d="M362.6,326.61a9.81,9.81,0,0,0,5.68.83,14.83,14.83,0,0,1-7.18-3.11C361.62,325.08,362.12,325.85,362.6,326.61Z" fill="#c89f5b"/><path d="M317,335.38a18.68,18.68,0,0,1-.3-6.87c1-6.34,3.22-16.4,3.22-16.4-1.82,4.73-4.5,5.56-6.71,5.22a7.42,7.42,0,0,1-4.55.4s7,5.92,10.59-3.45c0,0-2.19,10.06-3.22,16.4s2.41,13.09,2.41,13.09A25.58,25.58,0,0,1,317,335.38Z" fill="#c89f5b"/><path d="M336.89,346.42a5.13,5.13,0,0,1,.23,2c.44-.24.79-.81.45-2.08A1.7,1.7,0,0,1,336.89,346.42Z" fill="#c89f5b"/><path d="M319,327.54a10.61,10.61,0,0,0-1,2.93c.1-.25.21-.51.34-.76a38.22,38.22,0,0,0,3-7.71A35.15,35.15,0,0,1,319,327.54Z" fill="#c89f5b"/><path d="M334.41,349.59c0-4.69-3.86-16-3.86-16-.12,1.19-.2,2.32-.25,3.41,1,3.05,3.44,11,3.44,14.74s2.46,1.79,2.72-1.1C335.65,352.05,334.41,352.29,334.41,349.59Z" fill="#c89f5b"/><path d="M319.21,299a39.91,39.91,0,0,1-.91,10.78c2.08-5.55,1.57-12.95,1.57-12.95l-1.3-1.86-4-9.72-.7,2.1,4.07,9.79Z" fill="#c89f5b"/><path d="M360.62,327.23s3.21,6,3.78,7.67a5.3,5.3,0,0,1,.2.7,33.54,33.54,0,0,1,3.25,5.55c.06.15.12.3.17.45,1,3-1-4.47-5.76-12.28C361.3,328.06,360.62,327.23,360.62,327.23Z" fill="#c89f5b"/><path d="M365.34,341.67c-2.68-.14-5.6-6.21-5.6-6.21l-3.28-2.34c.34,1.18.61,2.3.81,3.23l1.8,1.29s2.92,6.06,5.61,6.2c1.48.07,1.54-1,1-2.22A3.13,3.13,0,0,1,365.34,341.67Z" fill="#c89f5b"/><path d="M357.08,343.94a2.25,2.25,0,0,1-1.86-2.55c.06-1.45-1.93-2.55-1.93-2.55a46.78,46.78,0,0,1,2.11,6.77,3.53,3.53,0,0,0,1,.5c1.31.41.27,2.07,1.93,1.72,1.12-.23.72-1.4.35-2.14C357.53,345.73,358.28,344.32,357.08,343.94Z" fill="#c89f5b"/><path d="M332.49,356c-13.82-13.26-9.52-40.39-9.52-40.39a40,40,0,0,1-.89,4c-.77,7.16-2.31,33.58,15.44,42.63C337.52,362.19,334.76,360.55,332.49,356Z" fill="#c89f5b"/><path d="M358.76,318.35c.15.29.31.56.47.83,2.16.81,6.3,3.69,9.53,6.06l.19,0h-.14c2.52,1.86,4.48,3.4,4.48,3.4s-2.64-3.38-6.23-7.31C362.28,318,357.05,314.79,358.76,318.35Z" fill="#c89f5b"/><path d="M338.18,343.94c.39,1.2.18,1.8-.16,2.13.55-.14,1.31-.64,1.17-2.41A1.59,1.59,0,0,1,338.18,343.94Z" fill="#c89f5b"/><path d="M344.88,353.58s-2.2.83-2.48-5.37a17.14,17.14,0,0,0-3.31-9.78c.83,2.22.91,3.55.69,4.35a18.75,18.75,0,0,1,2,7.6c.27,6.2,2.48,5.37,2.48,5.37s1.51,5.79,3.44,5.38v-2.27C346.06,358.07,344.88,353.58,344.88,353.58Z" fill="#c89f5b"/><path d="M352.67,343.46s.5,2.36.6,3.61a10,10,0,0,1,2,4A31.47,31.47,0,0,0,354,345,13.93,13.93,0,0,0,352.67,343.46Z" fill="#c89f5b"/><path d="M351.43,360l-.42,1.1c-1.65.07-2.68-4.75-2.68-4.75V359a1.05,1.05,0,0,1-.58-.07c.28,1.11,1.22,4.43,2.6,4.37l.41-1.1s1,4.48,2.41,4.41c.57,0,.62-1.05.49-2.23C352.37,364,351.43,360,351.43,360Z" fill="#c89f5b"/><path d="M315.27,286.14a10.66,10.66,0,0,1,4.28,5.19c.37,1.08.47,2.26.81,3.31a19.36,19.36,0,0,0,1.35,3.07,15.87,15.87,0,0,1,1.87,6.54,13,13,0,0,1-1.48,6.67l-.24,0c-.5-2.29-.58-4.35-.91-6.44l-.53-6.35a8.34,8.34,0,0,0-.81-3.15,20.87,20.87,0,0,0-1.89-2.68,22.84,22.84,0,0,1-2.64-6Z" fill="#c89f5b"/><path d="M315.25,283.19a16.72,16.72,0,0,1,4.66,4.16,24.19,24.19,0,0,1,3.28,5.27l1.06,2.92c.29,1,.58,2,.94,2.94.63,1.94,1.53,3.78,2.29,5.69a36.57,36.57,0,0,1,2.08,5.81,56.22,56.22,0,0,1,1.38,6c.27,2,.45,4.08.54,6.13a60.53,60.53,0,0,1-.29,6.17H331c-.6-2-1-4-1.4-5.95s-.83-4-1.2-5.92l-2.16-11.86a25.28,25.28,0,0,0-1.74-5.79,43.62,43.62,0,0,0-3.08-5.2c-2.06-3.42-3.92-6.86-6.27-10.2Z" fill="#c89f5b"/><path d="M319.74,283.23a85.12,85.12,0,0,1,7.72,11.8c1.06,2.09,2,4.28,3.17,6.3a45.21,45.21,0,0,0,4.08,5.74c3,3.62,5.87,7.32,8.73,11s5.57,7.48,8.23,11.43l-.18.17a60.49,60.49,0,0,1-10.12-10q-2.19-2.81-4.12-5.78a64.45,64.45,0,0,1-3.66-6.08,67.57,67.57,0,0,0-3.63-6.07c-1.35-1.93-2.88-3.75-4.26-5.68a51.73,51.73,0,0,1-6.18-12.73Z" fill="#c89f5b"/><path d="M317,277.84a44.87,44.87,0,0,1,6.17,7.05,39,39,0,0,0,2.57,3.93,17.83,17.83,0,0,0,3.44,3.16l7.54,5.34c2.48,1.77,5,3.44,7.63,5.27l-.08.23a22,22,0,0,1-9-3.32,29.58,29.58,0,0,1-3.75-3,24.74,24.74,0,0,1-3.26-3.52,36.71,36.71,0,0,0-3.09-3.59c-1.15-1.08-2.43-2.06-3.57-3.18a21.26,21.26,0,0,1-4.79-8.21Z" fill="#c89f5b"/><path d="M344.91,101.21c-.12-.75-1.2-1.39-1.7-6.12s3.27-7,1.9-11.82-2.5-10.38-.63-12.2c6.21-6,.91-8.33,1.87-10.21,1.28-2.5,4.86.37,5.73-4s1.37,1.5,3.86.87,1.25.53,2.12,1.3c2.55,2.23,1.81,1.57,3.92,5.05s5.29-3.61,7,2.62,3.73,10.59,6.85,8.72,7-3.13,6.72,1.11-1,5.37-3.11,11.47-6,4.73-3.49,11.2,1.62,7.85,2.87,7.6,11.61-27.39,11.74-28.14,2.67-11.09,2.59-13.08-8.85-10.34-8.85-10.34-3.49-3-4.24-5.6-1.11-.46-4-1.83-2-.16-9-.16-6.86-4.61-10.35-3.12-3.48,2-6.85,5.36S328.23,65.54,327,68.16c-1.93,4.13-1.8,14.3-1.92,15.29s17.15,20.75,17.15,20.75Z" fill="#a25341"/><path d="M363.28,60.35c.78-.22,1.21-.51,1.82-.41a13,13,0,0,0,2.79.47,14.49,14.49,0,0,1,2.87,0,13.67,13.67,0,0,1,2.24.53c-.12.06.24.47.45.79a7.24,7.24,0,0,0,.82,1,8,8,0,0,0,9.63,1.2c.27-.14.52-.3.78-.45,1.09,3.09,2.16,6.2,3.31,9.28a10.1,10.1,0,0,0,2.94,4.39c.28-1.19.68-2.91,1.07-4.69-.07-.19-.14-.37-.2-.56a1.53,1.53,0,0,0,.3-.27c.06-.09.08-.18.13-.27.21-1,.4-1.91.56-2.77a14.86,14.86,0,0,0-1.6-4.22,2.35,2.35,0,0,0-.73-2l-.59-.55a4,4,0,0,0-2.21-1.1,4.76,4.76,0,0,0-5.23-1.37c-1.24.49-3.77,2.66-5.21,1.73-.38-.25-.68-1.14-1-1.52A6,6,0,0,0,374,57.72a15.63,15.63,0,0,0-6.53-1.34,6.28,6.28,0,0,1-2.63-.15A4.57,4.57,0,0,0,362.2,56a3.16,3.16,0,0,0-.61.21,4.63,4.63,0,0,0-.39-.59,6.71,6.71,0,0,0-1-.88,9,9,0,0,0-1.14-.71,6.64,6.64,0,0,0-1.88-.69,7,7,0,0,0-2.33-.13,5.06,5.06,0,0,0-1.72.61,1,1,0,0,0-.26.31c-1.06.36-1.64,1.36-2.08,2.73a10.71,10.71,0,0,1-1.31,2.73c1.11-.15,2.15-.58,2.57-2.67.87-4.36,1.37,1.5,3.86.87s1.25.53,2.12,1.3l.32.28a8.31,8.31,0,0,0,2.52,1.09A4.68,4.68,0,0,0,363.28,60.35Z" fill="#713b2b"/><path d="M343.62,64.12c-.88,1.63-2.4,2.1-4,2.83a14.32,14.32,0,0,0-4.4,3.53c-1.23,1.3-2.93,2.53-4.83,2s-1.76-2.72-2.32-4.25a2.72,2.72,0,0,0-.54-.77,3.44,3.44,0,0,0-.52.7,18,18,0,0,0-1.2,4.68h0a9.44,9.44,0,0,0,6.27,3.61,7.72,7.72,0,0,0,6.15-1.93c1.71-1.54,2.88-3.15,5-4.11a11.75,11.75,0,0,0,3.33-1.94c2-3.24.23-5.1-.26-6.51a9.27,9.27,0,0,0-1,.35A3.57,3.57,0,0,0,343.62,64.12Z" fill="#713b2b"/><path d="M399.77,68.08a2.41,2.41,0,0,0-.89-4.29,4.07,4.07,0,0,0-2.92-6.9,3.89,3.89,0,0,0-1.37.28,5,5,0,0,0-2.28-2.81,5.07,5.07,0,0,0-8.07-5.73,3.08,3.08,0,0,0-5.54-.39,6.51,6.51,0,0,0-4-2.44,4.56,4.56,0,0,0-9.07-.35,2.7,2.7,0,0,0-2.57-.34,4,4,0,0,0-7.9-.55,3,3,0,0,0-2.82-1.92,3,3,0,0,0-1.66.56,4,4,0,0,0-1.25-.25,4.12,4.12,0,0,0-3.47,2,1.67,1.67,0,0,0-1.16,2.84,4.76,4.76,0,0,0-1.06.76,3.73,3.73,0,0,0-2.9-1.42,3.8,3.8,0,0,0-3.8,3.8,3.62,3.62,0,0,0,.17.87,3.16,3.16,0,0,0-1.58,2.58,3.91,3.91,0,0,0-.48,0,4.35,4.35,0,0,0-4.35,4.35,4.27,4.27,0,0,0,1.5,3.26,5.8,5.8,0,1,0,6.28,6.48,3.5,3.5,0,0,0,.92.19,3.77,3.77,0,0,0,3.68-3.13,6.42,6.42,0,0,0,3-3.14,4.33,4.33,0,0,0,6.63-3,3.26,3.26,0,0,0,1.59-.83,3.33,3.33,0,0,0,.8-3.33l.16,0a4.13,4.13,0,0,0,2.17-.62,4.67,4.67,0,0,0,4,2.35,4.56,4.56,0,0,0,1.84-.38,3,3,0,0,0,5.55.29,6.47,6.47,0,0,0,4.62,1.92,6.58,6.58,0,0,0,1.55-.2,5.23,5.23,0,0,0,9.78.44,5,5,0,0,0,5,4.7h.1a3.55,3.55,0,0,0-.23,1.13,3.79,3.79,0,0,0,2,3.31,5.12,5.12,0,0,0-1.18,3.26,5.2,5.2,0,1,0,9.21-3.27Z" fill="#849038"/><path d="M374,43.69a.75.75,0,0,0-.07-.12.43.43,0,0,1,0,.11Z" fill="#646f30"/><path d="M400.16,68.64a5.63,5.63,0,0,1,0,.59A5.19,5.19,0,0,1,390.62,72,5.19,5.19,0,0,0,401,71.35,5.12,5.12,0,0,0,400.16,68.64Z" fill="#646f30"/><path d="M389,62.65a3.78,3.78,0,0,1,.23-1.12h-.09a4.91,4.91,0,0,1-4.17-2.31,5,5,0,0,0,4.17,4.37A3.62,3.62,0,0,1,389,62.65Z" fill="#646f30"/><path d="M384.15,56.84a5.22,5.22,0,0,1-9.77-.45,6.74,6.74,0,0,1-1.56.21,6.53,6.53,0,0,1-4.62-1.92,3,3,0,0,1-5.55-.29,4.73,4.73,0,0,1-1.84.38,4.67,4.67,0,0,1-4-2.35,4.2,4.2,0,0,1-2.17.62l-.16,0a3.34,3.34,0,0,1-.8,3.33,3.26,3.26,0,0,1-1.59.83,4.34,4.34,0,0,1-4.29,3.72,4.29,4.29,0,0,1-2.34-.7,6.38,6.38,0,0,1-3,3.14,3.77,3.77,0,0,1-3.68,3.13,3.59,3.59,0,0,1-.92-.19,5.78,5.78,0,0,1-10.72,2.24,5.78,5.78,0,0,0,11.47-.11,3.5,3.5,0,0,0,.92.19,3.77,3.77,0,0,0,3.68-3.13,6.42,6.42,0,0,0,3-3.14,4.33,4.33,0,0,0,6.63-3,3.26,3.26,0,0,0,1.59-.83,3.33,3.33,0,0,0,.8-3.33l.16,0a4.13,4.13,0,0,0,2.17-.62,4.67,4.67,0,0,0,4,2.35,4.56,4.56,0,0,0,1.84-.38,3,3,0,0,0,5.55.29,6.47,6.47,0,0,0,4.62,1.92,6.58,6.58,0,0,0,1.55-.2,5.22,5.22,0,0,0,9.72.54A5,5,0,0,1,384.15,56.84Z" fill="#646f30"/><path d="M376.72,80.69c-.81.06-1.57.45-2.38.56a7.55,7.55,0,0,1-2.51-.07,7.75,7.75,0,0,1-1.17-.31,6.59,6.59,0,0,0-1.27-.44,2,2,0,0,0-1.55.54c-.37.31-.78.55-1.16.85-.21.16-.44.56-.28.82s.55.16.77,0a1.53,1.53,0,0,1,1.07-.3,7.34,7.34,0,0,1,.94.5,7.74,7.74,0,0,0,2.45.61,7.17,7.17,0,0,0,5.31-1.31C377.47,81.69,377.73,80.61,376.72,80.69Z" fill="#fff"/><path d="M357.58,81.05c-.23-.3-.74-.46-1-.75a1.22,1.22,0,0,0,0-.27.75.75,0,0,0-.06-.73,4.16,4.16,0,0,0-2.74-1c-.51-.08-1-.13-1.52-.25a7.67,7.67,0,0,0-.81-.15,1,1,0,0,1-.43-.2c-.19-.18-.38-.37-.58-.54a8.36,8.36,0,0,0-.92-.75,1.92,1.92,0,0,0-1.18-.23c-.39,0-1.1.54-.77,1,.12.16.14.38.26.54s.27.3.39.46c.28.34.5.73.77,1.07a3.73,3.73,0,0,0,2.39,1.44c.13,0,.26,0,.4,0a3.81,3.81,0,0,0,1.4.29h.72a2.33,2.33,0,0,1,.36.08,2.19,2.19,0,0,0,.77.2.73.73,0,0,0,.33,0c.08-.06.13-.06.17,0a1.75,1.75,0,0,1,.29.18,1.82,1.82,0,0,0,1.34.37C357.37,81.7,357.8,81.34,357.58,81.05Z" fill="#fff"/><path d="M378.87,79.85c-.28-.43-.86-.28-1.3-.34a10.41,10.41,0,0,1-1.83-.45c-.3-.11-.6-.22-.89-.31a3.46,3.46,0,0,0-.84-.11c-.58-.07-1.18-.14-1.77-.16a8,8,0,0,0-5.59,2.71c-.16.16-.4.49-.2.72s.58,0,.74-.13a7.74,7.74,0,0,1,2.09-1.51,2.84,2.84,0,0,0-.09.42,2.57,2.57,0,0,0,.15.87,4.06,4.06,0,0,0,.37.83,6.67,6.67,0,0,0-2.44-.22c-.44,0-.89,1-.25.86a7.08,7.08,0,0,1,2.74.34l1.31.37a3.69,3.69,0,0,0,1.23.13c.43,0,.84,0,1.27,0a5.22,5.22,0,0,0,1.23-.34A4.43,4.43,0,0,0,377,82.15c.17-.24,0-.42-.26-.29-.83.44-1.42,1.17-2.37,1.38a4.39,4.39,0,0,1-.89.06,2,2,0,0,0,.43-.34l-.27.24.31-.22c.11-.09,0,0,.07-.06a5.2,5.2,0,0,0,.43-.37,3.5,3.5,0,0,0,.66-1c.09-.18.15-.36.22-.54l.18.08c1.09.37,2.6.42,3.3-.66C378.91,80.28,379,80.06,378.87,79.85Z" fill="#824c24"/><path d="M357.71,81.28a6.87,6.87,0,0,1-.91-1.63,16.38,16.38,0,0,0-.65-1.69A4.79,4.79,0,0,0,353.77,76a10.25,10.25,0,0,0-3.41-.43,11.94,11.94,0,0,1-1.79-.19c-.32-.07-.61-.19-.92-.29a2,2,0,0,0-1,0A.79.79,0,0,0,346,76a1.08,1.08,0,0,0,.37.72,2.86,2.86,0,0,0,.82.29,9.63,9.63,0,0,0,1.77.3l1.06.06a2.57,2.57,0,0,0-.52,2c-.05-.06-.11-.1-.16-.17a6.4,6.4,0,0,0-1.45-1.73c-.2-.14-.66.31-.46.48a7,7,0,0,1,1.25,1.92,3.52,3.52,0,0,0,1.78,1.47,6.7,6.7,0,0,0,1.08.32,3,3,0,0,0,1.3,0,5.64,5.64,0,0,1,1.48,0,5.09,5.09,0,0,1,1.53.36c.3.12.78-.49.46-.59a12.19,12.19,0,0,0-2.69-.37h-.07a2.09,2.09,0,0,0,.73-.4,2.9,2.9,0,0,0,.85-1.32,3.53,3.53,0,0,0,.11-.65,2.5,2.5,0,0,1,.24.22,5.15,5.15,0,0,1,.85,1.56,7.44,7.44,0,0,0,.74,1.53C357.24,82.19,358,81.6,357.71,81.28Z" fill="#824c24"/><path d="M317.47,212.78a162.81,162.81,0,0,1-5.91,16.35c-4.24,10.33-6.68,29.49-5.65,35.07s-1.83,20.6,3.42,24.87,6.09,8.68,9.88,9.92c0,0-2-2.53-1.59-8.48s.64-6.47,0-9.68,6.17,6.37,8.13,6.34-1.13-5.82-1.24-8.2-2.06-.41-4.75-6.92-4.44-6.3-4.44-6.3,1.31-11.37,5.34-17.47A211.45,211.45,0,0,1,317.47,212.78Z" fill="#f19967"/><path d="M326.23,285.12a12.89,12.89,0,0,1-5.33-2.83,11.5,11.5,0,0,1-1.32-1.38l-.13-.12a26.12,26.12,0,0,1-3.23-3.74.57.57,0,0,0-.51-.23,17.4,17.4,0,0,0,.32,1.87,14.41,14.41,0,0,1,.25,2.18,7.47,7.47,0,0,1,0,1.25.55.55,0,0,1-.06.18h0a8.35,8.35,0,0,0-.16,1.32c.05.94,0,1.85.05,2.79.1,1.93.17,3.85.17,5.79,0,.93,0,1.87.05,2.81l-.06-.14c-.61-1.29-1.28-2.6-1.81-3.93-.34-.85-1.06-2.8-.23-3.59s1.44-2.93-.38-2.54-3.62,1-5-.64-1.31-3.47-1.52-5.29a39.25,39.25,0,0,0-1.24-6.32c-.15,6.33-.18,13.71,3.25,16.5,5.26,4.27,6.09,8.68,9.88,9.92,0,0-2-2.53-1.59-8.48s.64-6.47,0-9.68,6.17,6.37,8.13,6.34C326.5,287.16,326.51,286.3,326.23,285.12Z" fill="#d57940"/><path d="M316.93,237a89.5,89.5,0,0,1-4.42,27.79c-.16.51-.08,1.35.54,1.54a14.86,14.86,0,0,1,5.68,3.45c-2.1-4.18-3.41-4-3.41-4s1.17-10.17,4.71-16.43c.14-.88.22-1.77.33-2.65a223.77,223.77,0,0,1-2.89-33.89s-.44,1.58-1.43,4.5C315.56,223.79,316.92,230.54,316.93,237Z" fill="#d57940"/><rect width="841.89" height="595.28" fill="none" stroke="#fff" stroke-miterlimit="10"/></svg>