<svg id="Layer_1" data-name="Layer 1" xmlns="http://www.w3.org/2000/svg" viewBox="0 0 841.89 595.28"><path d="M477.83,164.41s2.18,30.33,1.68,42.9-2.16,17.26,1.63,25.4,1.12,10.69,3.44,15.7,4,29.67-3.37,36.57l-6.63-37.84-4.68-36.37Z" fill="#d57940"/><path d="M430.15,33.26s-.33-2.33-4.83-2.33a39.29,39.29,0,0,0-8.88,1.17s-1.65-1.34-7,3-8-2.17-14.14,5.49-5.33,15-5.33,15-7.83,6.83-4,11.83-4.64,3.5-3.3,9.46-2.37,9.31.73,8.9c5.74-.74,4.9-.25,2.57,2s0,8.78,3.66,7,.67,7.82,4.83,8-4.49,7.54,2.67,8.37,3.12,5.47,10.55,5.9,34.26.6,37.26-3.07,2.66-8.66,2.66-8.66,7.66-.83,7.66-3.83-4.83-9.45-4.83-9.45,8.16,2.4,7.83-4.32-.83-6.39.83-9.89,5-6.33-.66-7.82-4.17-2.5-2.83-6.33,7.66-6.5.16-10.33-2.33-6.5-8.16-12-9-6.82-13.42-6.16S430.15,33.26,430.15,33.26Z" fill="#fde0be"/><path d="M458.47,70.08c-5.67-1.5-4.17-2.5-2.83-6.33s7.66-6.5.16-10.33l-.7-.4c-.43,1.14,3.13,2.91,2.72,4.22-1.4,4.41-5.08,3.44-4.8,11.91s-6.57,5.44-6.57,5.44,4.05,8.14,4.05,11.92-6.43,4.83-6.43,4.83a46.55,46.55,0,0,1-3.82,10.88c-2.52,4.61-23.47,4.44-29.72,3.9s-2.84-6.39-8.86-7.44,1.26-10.28-2.24-10.55-1-12.33-4.06-10.12-5-6-3.08-8.86,4.06-12,.84-6.58c-2.51,4.27-4.94,1.73-6.41-3.17-1.56,2.37-2.69,5.43-.71,8,3.83,5-4.64,3.5-3.3,9.46s-4.44,8.93,1.32,9.46c1,.09,4.31-.81,2,1.46s0,8.78,3.66,7,.67,7.82,4.83,8-4.49,7.54,2.67,8.37,3.12,5.47,10.55,5.9,34.26.6,37.26-3.07,2.66-8.66,2.66-8.66,7.66-.83,7.66-3.83-4.83-9.45-4.83-9.45,8.16,2.4,7.83-4.32-.83-6.39.83-9.89S464.13,71.57,458.47,70.08Z" fill="#dec7aa"/><path d="M449.81,44.08a2.15,2.15,0,0,0,.52,1A7.66,7.66,0,0,0,449.81,44.08Z" fill="#dec7aa"/><path d="M505.65,527.85c-5.67-1-40.19-11.59-42.9-26.87s2.71-29.1,6.41-53.26a385.64,385.64,0,0,0,4.19-43.65,44,44,0,0,0,3-25.64s9.7-20.22,6.08-83c0,0-9.86-69.7-6.9-78.9s-1-38.14,2.3-50.63,4.6-23.67,2-31.23-26-25.54-36.19-28.83l-.3-9.59c3.51-6.22,5.08-15,3.77-24.41-2.36-16.9-13.09-29.38-24-27.86s-17.79,16.45-15.43,33.35a45,45,0,0,0,4.05,13.5h0s1.94,11.7,0,13.92-19.19,9.86-19.19,9.86-14-1.33-20.94,10a34.84,34.84,0,0,0-3.47,29.69c2.46,7.4-3.95,11.84-3,28.6s-3,30.33,10.35,34.77,24.91-14.3,24.91-14.3a24.49,24.49,0,0,1,4.78,21.94c-3.55,12.82-10.21,23.18-14.15,42.91,0,0-12.33,28.84-10.36,74.71s1,50.79-5.92,63.61-14,35-9.72,61.64,9.39,37,8.08,46-1.48,25.48-5.1,31.07-5.59,10.35,4.61,14.3,37.31,4.6,37.31-3.29-2.63-11.34-7.07-19.23-6.57-4.77-6.41-13.15,1.81-12.83-2.46-18.74-1.48-26,1.31-35.18,12.94-37.56,9.88-52.35,12-17.76,14.7-38.22S434.39,321,434.39,321s.74,52.77,10.6,65.34c0,0-18.49,36.25-10.6,52.77s10.11,46.6,4.19,66.82S430,535.5,445,536.23s15.54-8.38,30.09-2.71,30.57,4.93,32.3,2.47S511.32,528.84,505.65,527.85Z" fill="#f19967"/><path d="M472.45,127.93a36.43,36.43,0,0,1,5.09,13.54,34.86,34.86,0,0,1,.41,7.14c-.05,1.21-.19,2.41-.2,3.62a5.24,5.24,0,0,0,.41,2.92c.46.74,1.72-.23,2-.59a.53.53,0,0,0,.06-.1c1.25-7.79,1.32-14.65-.47-19.8-.77-2.21-3.32-5.54-6.78-9.23A2.18,2.18,0,0,0,472.45,127.93Z" fill="#d57940"/><path d="M455.52,115.82a39.27,39.27,0,0,0-.8-4.69,3.55,3.55,0,0,0,1.08,0,2.84,2.84,0,0,0,.79-.3c-4.94-3.72-9.69-3.92-13-5l-.27-9a14,14,0,0,0-2.83,3.23,12.35,12.35,0,0,1-3.15,3c-2.74,1.73-6.14,1.13-9.12.29-1.75-.74-3.5-1.45-5.26-2.16l-1.87-1.7a18.64,18.64,0,0,1-3.71-4A13.58,13.58,0,0,1,416,92.28c.81,0,1.9-1.29,1.69-2-.39-1.27-.57-2.57-1-3.82-.06-.19-.14-.37-.2-.56a4.31,4.31,0,0,0,2.65-2.47c1.11-2.59-1.1-4.81-2.17-7v0a4.68,4.68,0,0,0,1.77-1A3.47,3.47,0,0,0,420,71.8c-.48-1.3-1.71-2.31-2.52-3.4h0a6.83,6.83,0,0,0,3.34-2.63,15.54,15.54,0,0,0,1.79-4.14c.18-.57.34-1.16.49-1.74a5,5,0,0,0,.2-1.27,2.32,2.32,0,0,0-.07-.71l-.2-.34c-.1-.1-.1-.09,0,0,0-.08-.1-.11-.15-.17,0-.36,0-.71.06-1.06a6.56,6.56,0,0,1,.23-1c0-.2.12-.4.19-.6l.07-.19.09-.22c.17-.38.36-.76.51-1.15a2.25,2.25,0,0,0,.94-.53c1.47-1.52,1.32-1.35,3.47-.83s4,1.69,4.08,3.32c.26,3.85,2.86,6.16,5.24,8.91,1.18,1.35,1.8,3,2.85,4.36.55.74,1.76,1.17,2.15,2s.18,1.8.65,2.66,1.13,1.29,1.5,2,.19,2,.29,2.91a8.91,8.91,0,0,0,2.05,5,46.11,46.11,0,0,0-.2-11.1A48.05,48.05,0,0,0,446,66.54a7.42,7.42,0,0,0-.65-.53,7.1,7.1,0,0,1-1.86-2.51,25.45,25.45,0,0,0-3.74-4.73,9.89,9.89,0,0,1-2.92-4.91c-.31-1.87.06-3.84-1.64-5.14-3.45-2.65-9-.43-11.63,2.35l0,0a2.19,2.19,0,0,0-.71.23,5.45,5.45,0,0,0-2,2.61,10.63,10.63,0,0,0-.86,2.9,8.06,8.06,0,0,0,0,1.63,4.3,4.3,0,0,0-.58,1,14.79,14.79,0,0,0-.6,2c-.15.53-.32,1.05-.49,1.57s-.37.93-.51,1.4v0l-.18.35-.05.06-.12.1-.13.09-.17.1h0c-.2.09-.41.15-.61.22l-.08,0c-.21,0-.43,0-.65-.06a1.23,1.23,0,0,0-.5,0c-.19-.27-.37-.54-.58-.79-.85-1-2.89.74-2.77,1.75A13.86,13.86,0,0,0,414.79,73c.14.18.27.39.42.59A5.37,5.37,0,0,0,414,74.75a4.83,4.83,0,0,0-.55,5.06c.43.91,1.13,1.66,1.63,2.53l-.11,0a2.24,2.24,0,0,0-2.14.7.81.81,0,0,0-.14-.12c-1-.54-2.24.78-2.52,1.61-.45,1.33,0,2.52.32,3.83l.94,3.67a21.42,21.42,0,0,0,2.12,6.16,2.71,2.71,0,0,0-1,1c0,.34,0,.68,0,1-1.95,5.82.77,4.82,1.39,4.66a3,3,0,0,0-1.61,1.24l-.12-.06a3.56,3.56,0,0,0-2.45.11l-.86.51c-.84.64-1.82,1.66-1.48,2.82a16.21,16.21,0,0,1,.62,3.16c0,.31,0,.64.05,1a1,1,0,0,1,0,.15l-.16.07a5.18,5.18,0,0,1-4.17-.15,8.35,8.35,0,0,1-1.9-1.23c-.65-.53-1.12-1.11-2-1.22-4,1.88-7.41,3.4-7.41,3.4s-11.27-1.69-17.71,6c.82-.61,4.19-1.87,5.09-2.33,1.71-.87,5.29-.88,7.19-1.06,4.25-.38,8.13,1.15,12.14,2.24a1.29,1.29,0,0,0,.79-.17c.27.08.54.19.82.25a8,8,0,0,0,3.61-.23,25.89,25.89,0,0,0,3.35-1,8.29,8.29,0,0,0,5.05-4.74,6.4,6.4,0,0,0,.34-1.72,11,11,0,0,0,.94-.62,5,5,0,0,0,1.46-1.59,1.3,1.3,0,0,0,.2-.7,1.92,1.92,0,0,0,.13-.17c.27.43.53.86.82,1.28a59,59,0,0,0,3.58,4.75,18.87,18.87,0,0,0,4.55,4.32c.29.17.87-.35.73-.66a24.84,24.84,0,0,0-3.2-4.81c-1.18-1.55-2.36-3.09-3.49-4.68a25.58,25.58,0,0,1-3.81-7.26c3,1.63,6.06,3.19,9.23,4.58,3.66,1.6,7.36,3.17,11.4,2.12a9,9,0,0,0,4.77-2.58c.54-.3,1.06-.63,1.56-1V106c0,2-.1,4-.29,5.93a21.87,21.87,0,0,1-1,4.87c-.5,1.51-1.3,3-1.75,4.47-.15.51.44.6.76.36,3-2.21,4.36-6.4,5.08-9.9.37-1.81.53-.93.54-2.78a26.67,26.67,0,0,0,2.42,1.67c.46.28.95.51,1.43.77.13.54.95.47,1.16,1.27a33.86,33.86,0,0,1,.95,5.38c.18,1.81.26,3.62.29,5.44,0,1.35-.25,4.13,1.23,4.85.63.31,1.48-.29,1.84-.76,1.29-1.66,1.24-4,1.2-6S455.73,117.75,455.52,115.82Z" fill="#d57940"/><path d="M428.63,71.48a6.24,6.24,0,0,0-1.4-.94,11,11,0,0,0-3.74-.76,6.32,6.32,0,0,1-3.06-.86,2.71,2.71,0,0,1-1.22-2.25.65.65,0,0,0-.13-.39c0-.21,0-.42-.26-.49a1.09,1.09,0,0,0-1,.47c.05,0,0,0-.05,0l-.29.22a2.06,2.06,0,0,0-.54.82,4.2,4.2,0,0,0-.23.86,3.22,3.22,0,0,0,.3,2c.59,1.21,1.59,2.74,2.85,3.07,1.46.38,3.24-.54,4.72-.32a7.89,7.89,0,0,1,1.8.37c.27.11.52.26.79.37a4.39,4.39,0,0,0,1,.25c.46.08.94-.46,1-.88A1.73,1.73,0,0,0,428.63,71.48Z" fill="#d57940"/><path d="M445.18,70a.83.83,0,0,0-.12-.21,1.52,1.52,0,0,0-.87-.37,4.35,4.35,0,0,0-1.35,0,4.6,4.6,0,0,0-1.35.42c-.33.14-.68.25-1,.4a29.61,29.61,0,0,0-3.69,2.36c-.41.27-1.21,1.26-.46,1.63a2.75,2.75,0,0,0,2.39-.43l.83-.47.07,0,.08,0,.51-.2.06,0,.12,0,.33-.07.06,0,.21,0,.23,0h.25a.65.65,0,0,0,.24,0c.19,0,.38,0,.58,0l.32,0h.11a3.29,3.29,0,0,0,1.69-.67C445,71.8,446,70.64,445.18,70Z" fill="#d57940"/><path d="M436.91,87.56c.26-.28.51-.67.22-.93l0,.08s-.07-.1-.1-.16a.49.49,0,0,0-.21-.16,1.08,1.08,0,0,0-.71,0,3.7,3.7,0,0,0-1,.52l-.44.33,0,0-.15,0h-.08a3.39,3.39,0,0,1-.55,0,10.89,10.89,0,0,1-2.2-.3,10.34,10.34,0,0,1-1.1-.26,3.58,3.58,0,0,0-1.25-.26,1,1,0,0,0-.82.53.52.52,0,0,0,0,.4h0a1.68,1.68,0,0,0,.76.86,9.1,9.1,0,0,0,1,.65,9.68,9.68,0,0,0,2.34.75,3.64,3.64,0,0,0,2.69-.51,5.28,5.28,0,0,0,1.16-1.05s.18-.14,0,0c0,0,.08,0,.09-.07a2.91,2.91,0,0,0,.3-.31c.05-.07.36-.5.12-.17Z" fill="#d57940"/><path d="M436.09,95.89l.14.16V96a.58.58,0,0,0-.32-.35,4.81,4.81,0,0,0-2-.08c-.45,0-.91,0-1.37,0a1.87,1.87,0,0,0-1,.3,2.37,2.37,0,0,0-.85.9,1.25,1.25,0,0,0-.15.94.74.74,0,0,0,.65.47c.68,0,1.37,0,2,0a6.84,6.84,0,0,0,.91-.08,2.9,2.9,0,0,0,1.82-1l-.5.45.06,0C436,97.23,436.55,96.37,436.09,95.89Z" fill="#d57940"/><path d="M443.13,69a1.06,1.06,0,0,0-.84-.5,5.92,5.92,0,0,0-3.35,1c-.46.26-.91.55-1.36.83l-.31.19-.19.11h0l-.32.14c-.06,0-.44.14-.19.08a2,2,0,0,0-1.5,1.35h0a6.86,6.86,0,0,0-1.37,5.75c.22,1.23.43,2.49.69,3.72a10.89,10.89,0,0,0,1.23,3.57c.12.2.49-.14.48-.3-.24-2.29-1.1-4.59-.95-6.92.11-1.6.18-3.53,1.05-5a9.6,9.6,0,0,0,2.73-1.19l.59-.35.27-.15.15-.08h0a2.64,2.64,0,0,1,.57-.24s0,0,0,0l.15,0,.41-.06h0l.36,0a1.94,1.94,0,0,0,.33-.07,2.2,2.2,0,0,0,1.24-.75A1.06,1.06,0,0,0,443.13,69Z" fill="#824c24"/><path d="M439.9,71.26c-.21.1,0,.08,0,0Z" fill="#824c24"/><path d="M429.42,70.93a9.92,9.92,0,0,0-5.7-2.37,19,19,0,0,0-3.77,0c-.54,0-1.09.13-1.63.16s-1.29-.08-1.94,0c-.85.12-2.41,1.25-1.62,2s2.41.44,3.47.27a23,23,0,0,1,3.52-.36,9.47,9.47,0,0,1,5.92,1.55C428.41,72.78,430.09,71.56,429.42,70.93Z" fill="#824c24"/><path d="M436,87.11h-.06l-.09-.06a.78.78,0,0,0-.54,0c-.3.08-.58.22-.88.32a.83.83,0,0,1-.62,0c-.28-.09-.53-.29-.81-.41a4.06,4.06,0,0,0-3.64.42c-.33.21-.74.69-.6,1.11s.72.28,1,.11c0,0,.13-.08.05,0l.18-.08a1.15,1.15,0,0,1,.26-.09,2.32,2.32,0,0,1,.69-.07,4.14,4.14,0,0,1,1.52.51,2.21,2.21,0,0,0,2-.22,8.37,8.37,0,0,0,.82-.48,3.32,3.32,0,0,0,.46-.38,1.31,1.31,0,0,0,.17-.24l0-.09c0-.08,0-.08,0,0C436.07,87.42,436.25,87.1,436,87.11Z" fill="#824c24"/><path d="M439.33,93.15l0-.1a.09.09,0,0,0,0,0v0s0,0,0,0,0,0,0,0v-.09a.34.34,0,0,1,0-.1.31.31,0,0,1,0-.1V92.6s0-.07,0,0,0-.08,0-.11h0c0-.15-.18-.23-.4-.11a3.58,3.58,0,0,1-.48.24,5.68,5.68,0,0,1-1.62-.32,5.2,5.2,0,0,0-1.31-.3,18.23,18.23,0,0,0-1.8-.29,13.19,13.19,0,0,0-1.54,0c-1.12.06-2.2.45-3.3.62-.55.09-1.1.22-1.66.26l-.49,0h0a.22.22,0,0,0-.12-.2.39.39,0,0,0-.28,0,.68.68,0,0,0-.39.48.24.24,0,0,0-.08.06c-.19.18-.36.44-.2.69a.3.3,0,0,0,.2.13v.13a.88.88,0,0,0,0,.16.26.26,0,0,0,.07.18.37.37,0,0,0,.19.08.3.3,0,0,0,.2,0,.7.7,0,0,0,.1-.08l-.05,0,.07-.07.07-.05h0a.82.82,0,0,0,.18-.29v0c.5,0,1,.08,1.5.08a3.44,3.44,0,0,0,.45,0,2.35,2.35,0,0,0,.27,0c.41-.05.82-.14,1.24-.22a4.81,4.81,0,0,1,1.77.07,4.29,4.29,0,0,0,1.38.22c.61,0,1.16-.26,1.78-.26s1.22.1,1.84.08a3.31,3.31,0,0,0,2.12-.75.86.86,0,0,0,0,.16,1.74,1.74,0,0,0,.05.22.32.32,0,0,0,0,.09.16.16,0,0,0,0,.07l.05,0s.13,0,.16,0a.21.21,0,0,0,.09-.15v0A.25.25,0,0,0,439.33,93.15Z" fill="#824c24"/><path d="M439.31,93.43s0-.05,0-.07,0,0,0,0C439.26,93.46,439.25,93.5,439.31,93.43Z" fill="#824c24"/><polygon points="439.35 93.33 439.35 93.33 439.35 93.32 439.35 93.33" fill="#824c24"/><path d="M436.64,95c-.44-.14-1,.27-1.38.42a3.9,3.9,0,0,1-1.59.2,7.86,7.86,0,0,1-1.66-.32c-.59-.15-1.18-.28-1.77-.46a.75.75,0,0,0-.77.32c-.13.16-.29.56,0,.67a10.28,10.28,0,0,0,3.81.87,7,7,0,0,0,1.86-.4c.54-.18,1.29-.43,1.55-1C436.73,95.19,436.77,95,436.64,95Z" fill="#824c24"/><path d="M444.46,73.93c0-.08.08-.16.13-.24l.13-.23c-.22.38-.05.08,0,0a1.6,1.6,0,0,0,.1-.23l.18-.47s0,0,0-.06h0a.73.73,0,0,0-.8-.13l-.29.14a3.75,3.75,0,0,0-.7.14l-.16.06H443c-.16,0-.31.08-.47.1-.7.12-1.41.07-2.11.23s-1.26.33-1.88.5a3.75,3.75,0,0,0-1.49.75.61.61,0,0,1-.1.14.13.13,0,0,1,0,.06l.05.12a2.47,2.47,0,0,0,.28.28,3.28,3.28,0,0,0,.31.2h.08l.18,0a5,5,0,0,0,.86.06,6.85,6.85,0,0,1,1.68-.11,4.78,4.78,0,0,0,.93.18,4,4,0,0,0,1-.07,3.57,3.57,0,0,0,2-1.11A2.28,2.28,0,0,0,444.46,73.93Z" fill="#fff"/><path d="M425.9,76.23h0l.22-.06.43-.13.47-.12.37-.11.2-.08h0l.11-.08h0a1.14,1.14,0,0,0,.11-.11h0l.1-.16h0s0,0,0,0a1.8,1.8,0,0,1,.08-.21.24.24,0,0,1,0-.08,1.52,1.52,0,0,0,0-.21.06.06,0,0,1,0,0v0a.88.88,0,0,0,0-.14h0l-.09-.35c.05.18,0,.11,0,0s-.18-.32-.06-.14a1,1,0,0,1-.1-.21,3.94,3.94,0,0,0-.7-.14c-.38-.05-.75-.13-1.13-.19a15.76,15.76,0,0,0-2.28-.11c-.77,0-1.55,0-2.33.08-.58,0-1.2,0-1.8.13a1.26,1.26,0,0,1-.29.32,1,1,0,0,1-.28.17h0l.06,0-.08.06a3.66,3.66,0,0,0-.53.62l-.08.13a1,1,0,0,0,.18.17,7.09,7.09,0,0,0,.95.58l.13.09c.4,0,.79,0,1.18-.06a17.36,17.36,0,0,1,2,0C423.86,75.77,424.89,76.17,425.9,76.23Z" fill="#fff"/><path d="M427.79,73.63a6.31,6.31,0,0,0-1-.83,5.18,5.18,0,0,0-2.48-.87c-2-.13-3.82.91-5.52,1.93-.21.12-.49.49-.39.77s.45.18.65.07c.46-.25.94-.5,1.43-.74a1.42,1.42,0,0,0,.15,1.42c-.27,0-.54-.09-.81-.11a3.75,3.75,0,0,0-.48,0c-.21,0-.4.09-.61.1s-.52.47-.2.55.34.17.55.21l.61.13,1.08.22c.74.15,1.48.3,2.23.39a5.66,5.66,0,0,0,2.09-.18,5.89,5.89,0,0,0,2-.69c.08-.07.22-.36,0-.31a5.69,5.69,0,0,1-2,.36l-.72-.09a2.53,2.53,0,0,0,.49-.49,2.49,2.49,0,0,0,.44-1.15,2.33,2.33,0,0,0,0-.59,6.54,6.54,0,0,1,.59.3c.35.21.65.5,1,.74a7.75,7.75,0,0,0,1.11.48c.17.07.44-.18.38-.37A3,3,0,0,0,427.79,73.63Z" fill="#824c24"/><path d="M445.21,72.39c-.49-.5-1.44-.44-2.1-.49a12.94,12.94,0,0,0-2.41,0A6.49,6.49,0,0,0,436.9,74c-.14.13-.32.4-.16.57s.44,0,.57-.1.54-.42.81-.6a1.58,1.58,0,0,0,.28,1.08,6.41,6.41,0,0,0-.88,0c-.44,0-.91.92-.25.88,1.4-.07,2.75.42,4.15.26a4.6,4.6,0,0,0,3.17-1.68c.07-.12.18-.31.06-.44s-.33-.06-.45,0a8.4,8.4,0,0,1-1.33.86,4.26,4.26,0,0,1-1,.22c.06-.07.13-.12.19-.19a2.15,2.15,0,0,0,.47-1.19,1.41,1.41,0,0,0,0-.29,1.61,1.61,0,0,0-.07-.37h.23a5.93,5.93,0,0,0,2.1,0C445,73,445.46,72.63,445.21,72.39Z" fill="#824c24"/><path d="M446,470.62a80.54,80.54,0,0,0-1.62-18.46c-1.33-6.39-3.95-12.26-6.37-18.27a51.8,51.8,0,0,1-3.29-11.29c-.23-1.49-.44-3-.6-4.54.06-1.17.17-2.33.31-3.49-2.2,9-3.05,18.19,0,24.52,6.94,14.53,9.49,39.55,6,59.13.11-.34.25-.68.35-1A79.73,79.73,0,0,0,446,470.62Z" fill="#d57940"/><path d="M465,406.17c.2.38.77-.09.77-.4a60.87,60.87,0,0,0-1-8.71c-.39-2.85-.63-5.71-.75-8.58,0-1-1.53-.08-1.53.61a79.3,79.3,0,0,0,.52,8.85C463.33,400.7,463.69,403.69,465,406.17Z" fill="#d57940"/><path d="M445.82,385.22a50.35,50.35,0,0,1-3.49-17.67c-.23-5.8.58-11.47,3.65-16.49a28.63,28.63,0,0,1,7.57-8.1,14.55,14.55,0,0,0,2.1-.74,36,36,0,0,0,6.12-4c.1-.07.2-.11.31-.18,1.21-.54,2.45-1.06,3.7-1.53a15.92,15.92,0,0,1,3-.3,20.34,20.34,0,0,0,7.43-1.13,17.25,17.25,0,0,0,5.89-3.93,10.49,10.49,0,0,0,1.06-1.27q.08-3.68.09-7.68c-5.62,6.17-15.44,6.43-22.75,9.4-4.16,1.7-7.87,3.74-12.47,3.91a35.48,35.48,0,0,1-13.13-2.2c.87,16.4,3.33,44.29,10.14,53l-.38.77C445.37,386.75,446.1,385.88,445.82,385.22Z" fill="#d57940"/><path d="M470.39,531.46a26.57,26.57,0,0,1,5.34,2.3c14.37,5.4,29.95,4.66,31.65,2.23.22-.32.45-.68.67-1.06l-1.48.42a29.41,29.41,0,0,1-7,1.13,29.75,29.75,0,0,1-13.9-2.79c-4.27-2-8.13-5-12.74-6.22-5-1.35-9.4.14-13.84,2.38-.62.31-1.23.64-1.84,1s-1.39.41-2.1.59a27.13,27.13,0,0,1-4.85.49,53.88,53.88,0,0,1-6-.09,11.29,11.29,0,0,1-6.12-4.84c-.19-.31-.36-.66-.54-1a19.32,19.32,0,0,1-.92-3.78c-.71-5.05.76-9.85,1.37-14.79-5.6,19.16-7.81,28.1,6.84,28.82,7.09.35,10.94-1.48,14.56-2.93a30.59,30.59,0,0,1,3.89-1.71A11.61,11.61,0,0,1,470.39,531.46Z" fill="#d57940"/><path d="M471.7,383.21c-.43.82.4,1.27,1.08.79a16.3,16.3,0,0,0,3.76-4.08c-.07-.49-.14-1-.23-1.49a35.06,35.06,0,0,0,1.71-5,44.89,44.89,0,0,1-2.56,4.47C474.28,379.66,472.69,381.31,471.7,383.21Z" fill="#d57940"/><path d="M380.64,323.43c-.26,6.09-.3,12.6,0,19.5.29,6.68.51,12.46.66,17.56l.19-.12c-.06.17-.11.36-.17.54.86,29.51-.73,34.73-6.6,45.63-6.9,12.82-14,35-9.72,61.64s9.39,37,8.08,46-1.48,25.48-5.1,31.07-5.59,10.35,4.61,14.3,37.31,4.6,37.31-3.29c0-5.74-1.41-9.15-3.88-13.61-.09,1.74,0,3.51,0,5.27,0,3-.7,5.59-3.17,7.53a13.83,13.83,0,0,1-1.54,1,33.28,33.28,0,0,1-13.23,1.81c-4.61-.33-9.56-1.52-13.31-4.34a13.44,13.44,0,0,1-5.19-8.37c.35-.55.7-1.1,1-1.68.25-.28.5-.55.72-.84a34.2,34.2,0,0,0,3.92-6.48,72.81,72.81,0,0,0,2.72-6.82c.28-.82.59-1.66.85-2.5v0c0-1,0-2.08,0-3.12,0-2,0-4-.23-6-.11-1.19-.28-2.38-.43-3.57-1.36-5.15-3-10.23-4.42-15.37a242,242,0,0,1-5.38-23.64c-2.69-15.78-2.9-32,1.15-47.58a95,95,0,0,1,5.91-16.13c.28-.34.53-.69.81-1,2.47-3,5.12-5.82,6.64-9.41,1.67-4,1.87-8.29,2.31-12.52a180.81,180.81,0,0,1,4.72-26.34,37.82,37.82,0,0,1,3.61-9.67,14,14,0,0,1,8.28-6.38c4.65-1.56,9.49-2.63,14.21-4a62.5,62.5,0,0,1,7.32-2c1.54-.24,4,.21,4.89,1.65.95-3.46,1.87-6.71,2.7-9.57Z" fill="#d57940"/><path d="M406.81,401.9q-2.22,2.3-4.64,4.38l-2.57,2.27a13.78,13.78,0,0,0-2.43,2.27c-.38.55-.56,1.83.55,1.55,2.09-.53,4.2-2.46,5.82-3.84,1.44-1.23,2.79-2.56,4.1-3.92,3.2-5.21,8.21-10.18,10.85-18.95a59.58,59.58,0,0,1-3.48,6.07A71,71,0,0,1,406.81,401.9Z" fill="#d57940"/><path d="M390,399.44c0-.26-.27-.28-.45-.21a.75.75,0,0,0-.46.57,35.89,35.89,0,0,0-.32,5.77,14.45,14.45,0,0,0,.92,5.42c.13.29.54-.08.54-.28,0-1.89-.28-3.8-.36-5.69A43.33,43.33,0,0,1,390,399.44Z" fill="#d57940"/><path d="M469.66,411.74c-1.18,3.91-1.29,8-1.44,12a244.61,244.61,0,0,1-2.07,24.48c-1.13,8.22-2.9,16.33-4.14,24.54-1.29,8.55-1.73,16.91.32,25.3-1.62-14.19,3.36-27.74,6.83-50.37,1.62-10.62,2.63-20.34,3.25-27.89a50.22,50.22,0,0,1,.43-5.76c.41-6.25.51-10,.51-10a31,31,0,0,0,1.52-3.95c-.21.54-.42,1.08-.66,1.61C472.68,405.07,470.72,408.2,469.66,411.74Z" fill="#d57940"/><path d="M387.94,519.23a60.21,60.21,0,0,0,5.84-12.18c.08.5.17,1,.24,1.52a42,42,0,0,1,.29,9,42.78,42.78,0,0,1-1.61,8.76c-.41,1.4-.91,2.77-1.42,4.13-.19.52-.45,1.08-.68,1.64.27-.3.56-.58.82-.9a44.36,44.36,0,0,0,4-6.53c.33-.6.69-1.19,1-1.78.26-7.74,1.59-12.09-2.5-17.76a12.33,12.33,0,0,1-1.78-5.13,2.44,2.44,0,0,1,0,.27c-.65,6.63-3.25,12.63-5.05,19C387,519.88,387.78,519.48,387.94,519.23Z" fill="#d57940"/><path d="M481.73,156c-2.63-13.81-7.89-28.93-7.23-32.88s-7.23-2.63-10.35-9.37-4.44-1.64-7.4-4.11-3.95-1.31-3.95-1.31,2.47,39.53-19.7,40c-9.35.18-18.12,3.86-20.41,14.05-2.71,12.08-13.06,42-13.06,42s4.19,4.44,5.52,12.94-4.95,17.18-4.95,17.18,79.56,8.55,75.94-2.63,1.32-13.81,1.32-43.07S484.36,169.84,481.73,156Z" fill="#dfeaf6"/><path d="M476.05,192.1c-.55,5.34-.84,10.7-1.39,16-.28,2.67-.59,5.35-1.05,8s-1.1,5-1.49,7.55,0,5.43-.95,7.93a32.7,32.7,0,0,1-2.61,5.1c5.29-.86,8.36-2.35,7.58-4.75-3.61-11.18,1.32-13.81,1.32-43.07,0-2.54.05-4.77.15-6.76-.16.65-.35,1.29-.47,2C476.66,186.75,476.33,189.42,476.05,192.1Z" fill="#b9cbdb"/><path d="M457.31,119.22a58.53,58.53,0,0,1,1.11,12,97.87,97.87,0,0,1-.87,12.09c-.27,2.14-.58,4.27-.89,6.41a32,32,0,0,0-.63,6.23c.05.9,1.18,0,1.33-.39a38.94,38.94,0,0,0,1.7-7.4c.4-2.34.76-4.68,1-7a87.64,87.64,0,0,0,.68-14,56.12,56.12,0,0,0-2-12.94c-.18-.61-.39-1.33-.64-2.08l.84.22a6.14,6.14,0,0,1,4.06,2.88,18.05,18.05,0,0,1,1.84,5.7,49.62,49.62,0,0,1,.94,7.39,65.5,65.5,0,0,1-1,14.73c-.4,2.22-.9,4.41-1.32,6.63s-1.13,4.75-1.4,7.14c-.07.65.91.1,1-.18a64.91,64.91,0,0,0,4.56-15.21,69.87,69.87,0,0,0,1.5-15c0-1.14-.08-2.33-.17-3.52l.64.4c2,1.17,2.55,2.6,2.73,4.86a78.67,78.67,0,0,0,2.66,15.07c1.36,5,3,9.85,4.3,14.83.64,2.42,1.31,4.83,2,7.24h0c1-1.92,1.45-3.59.39-9.15-2.63-13.81-7.89-28.93-7.23-32.88s-7.23-2.63-10.35-9.37-4.44-1.64-7.4-4.11-3.95-1.31-3.95-1.31,0,.36.05,1C455.55,109.56,457,117.51,457.31,119.22Z" fill="#b9cbdb"/><path d="M415.54,226.12c-3.19-3.81-4.71-8.37-6.07-13.07-.25-.85-.5-1.67-.77-2.49l4.91,3.66c4.25,3.16,8.42,6.54,12.85,9.46,1.81,1.2,4.12,2.49,6.37,2.36a5.06,5.06,0,0,0,4.61-4c.42-2.06-.68-4.46-1.33-6.37-.93-2.68-1.72-5.43-2.6-8.13-.45-1.36-2.59.47-2.42,1.52.37,2.32.68,4.65,1.13,7,.22,1.16.35,2.33.56,3.49.13.72.31,1.46.42,2.2a13.5,13.5,0,0,1-2.59-1.19,52.47,52.47,0,0,1-5.2-3.68l-11.11-8.26c-1.77-1.32-3.55-2.62-5.33-3.92-1.28-.92-2.6-1.77-3.93-2.62-.14-.25-.26-.51-.42-.76a85.44,85.44,0,0,0,5.81-14.89c.83-3,1.54-6,2.1-9,.52-2.8.81-5.65,1.41-8.43a19.57,19.57,0,0,1,8.61-12.63c.69-.44,1.41-.82,2.12-1.22-.06.35-.14.7-.18,1.06-.15,1.4-.36,2.81-.44,4.23-.15,2.5-.07,5-.07,7.53q0,7.83.28,15.65t.65,15.64c.14,2.49.27,5,.52,7.47.23,2.27.27,5,1.46,7,.57,1,2.12-.6,2.28-1.18.7-2.47,1.69-4.73,1.61-7.28s-.77-6.17-.91-8.78c-.26-5.11-1.2-9.8-1.34-14.91s-.22-10.23-.26-15.34c0-2.49.07-5,0-7.49-.06-1.21-.23-2.41-.34-3.61,0-.43-.09-.86-.13-1.29a34.05,34.05,0,0,0,10.61-4.17,25.72,25.72,0,0,0,8-8.95c-2.93,4.43-7.17,7.55-13.28,7.68-9.35.18-18.12,3.86-20.41,14.05-2.71,12.08-13.06,42-13.06,42s4.19,4.44,5.52,12.94-4.95,17.18-4.95,17.18,16.22,1.74,33.67,2.62a56.54,56.54,0,0,1-6.75-2.53A33,33,0,0,1,415.54,226.12Z" fill="#b9cbdb"/><path d="M458.7,201.6c-.87,3.08-1.17,6.37-1.86,9.51s-1.48,6.22-2.4,9.27a89.94,89.94,0,0,1-3.31,9.15c-1.27,3-2.86,8-7,7.63a.44.44,0,0,0-.15.05,7.45,7.45,0,0,0,2.22-3.06c.44-1.07.76-2.19,1.12-3.29a14.6,14.6,0,0,0,1-3.58c0-.27-.36,0-.42.07a14.73,14.73,0,0,0-1.11,3c-.31,1-.61,2-.93,3-.6,1.8-1.57,3.83-3.63,4.2-.32.05-.66.72-.19.64a4.32,4.32,0,0,0,1.8-.79c-.13.15-.18.33,0,.36,2.68.39,4.74-1.51,6-3.69a67.64,67.64,0,0,0,4.4-10.24,93,93,0,0,0,3.42-11.18c.82-3.52,1.92-7.57,1.71-11.21C459.35,201,458.76,201.37,458.7,201.6Z" fill="#b9cbdb"/><path d="M460.16,221.65a19,19,0,0,0-2.76,4.46c-.86,1.67-1.56,3.41-2.49,5-1.63,2.85-4.2,5.56-7.6,6-.41.05-.86.88-.24.82,3.51-.31,6.27-2.74,8.18-5.55a38.19,38.19,0,0,0,2.77-5.11c.42-.9.78-1.83,1.2-2.73s1-1.81,1.36-2.75C460.72,221.52,460.37,221.44,460.16,221.65Z" fill="#b9cbdb"/><path d="M393.3,259.26s-16.22,33.52-12.68,62c3.47,27.86,46.54,12.66,46.54,12.66s19.23,16.1,39.45-.83c0,0,13.48,2.47,16.77-8.05,0,0,3-19.69-.54-38.79s-5.71-37.81-5.71-37.81Z" fill="#dfeaf6"/><path d="M368.93,189.89c.76-1.5,2-3,2.44-4.59,0-.06,0-.12,0-.18.44-.67.86-1.35,1.32-2,.75-1.05,1.53-2.07,2.37-3.05s1.59-2.11,2.43-3.14c.23-.29,0-.59-.34-.37A19.28,19.28,0,0,0,374,179c-1,1-2,2.07-2.87,3.16a1.13,1.13,0,0,0-.1.13c-.23-.55-.48-1.1-.69-1.65a23,23,0,0,1-1.35-5.48,26,26,0,0,1,.6-9.41,16.13,16.13,0,0,1,3-4.71,3.22,3.22,0,0,0,.28-.33,3.58,3.58,0,0,0,.45-.09,2.14,2.14,0,0,0,1.38-1.73c0-1.52-1.6-2.2-2.55-3.2a10.77,10.77,0,0,1-2.32-4c-1.23-3.64-2.87-7.23-2.44-10.95.57-4.89.87-6.82,2.27-10.42a63.11,63.11,0,0,1,3.81-8.28c-.47.64-1.1,1.36-1.58,2.09-7.63,11.42-6.27,22.81-3.8,30.2a11.1,11.1,0,0,1,.48,4.79l.08.09-.11.15c-.65,5.21-4.16,10.83-3.41,23.57.38,6.47,0,12.45.22,17.62a55.9,55.9,0,0,1,1.53-5.57A38.37,38.37,0,0,1,368.93,189.89Z" fill="#d57940"/><path d="M397.84,103.79a4.22,4.22,0,0,1,3.69-4.18,5.62,5.62,0,0,1,2.79-9.69l-1-26.8,16.83-22.07,21.73.5,9.67,26.9s-.09,15.49-3.5,14.24-4.08-6.49-3.17-8.18-.16-1.06-1.83-3.39.42-3-1.5-4.25-1.41-3.17-2.75-6.83-5-5.58-4-9.41-6.1-2-6.1-2-7.06,4.66-6.06,7.91-3.17,7.83-5.5,9.25-1.75,2.08.41,4.91-.91,2.58-2.08,4.83,1.92,2.42,2.67,5.63-4.33,2.7-4.33,2.7c2.25.83,2.58,6.16,2.58,6.16,0-2.58-5.25-3.75-5.25-3.75s1.42.63,2.17,3.63a15.48,15.48,0,0,1,.25,8.12c0,.12-1.46,2-1.54,3.2a3.51,3.51,0,0,0,3.29,4c-2.42,4.08-6.58-.75-6.58-.75s4.91,9.83-2.43,11.08c-6.73,1.14-6.92-7.06-6.91-8.45A4.2,4.2,0,0,1,397.84,103.79Z" fill="#fde0be"/><path d="M373.57,179.37l6.66-5.67s-20.55-20.14-27.82-18.9-7.89,8.75-3.45,9.61,2.71-2.59,2.71-2.59S357.87,163.14,373.57,179.37Z" fill="#fbc56f"/><path d="M350.64,159.26s2,3.8-3.07,2.85a3.74,3.74,0,0,1-1.33-.52,3.32,3.32,0,0,0,2.72,2.82c4.44.86,2.71-2.59,2.71-2.59s6.2,1.32,21.9,17.55l1.43-1.22C357.57,160.71,350.64,159.26,350.64,159.26Z" fill="#dfb065"/><path d="M342.18,140.43s4.31-5.24,10.85-1.05,4.78,13.94-4.64,17.14-18.17-6.16-17.8-18,6.9-13.09,6.9-13.09S331.7,122.74,335,119a19.43,19.43,0,0,0,15.65,4.32c9.87-1.36,17.67,4.44,29.55,1s16.07-9.49,16.07-9.49-.5-4.08-2.84-4.44,2.37-4.63,6.43,1.51c0,0,0-4.84,5.62-6.81,0,0,3.3,3.89,0,7.56,0,0,6.32-.78,9,2.06l-5.07.89s13.33,2.81,15.92,8.85l-5.53,3-5.32.74-4.8,3s-1.73-5.93,3.08-6.3c0,0-8.48-5.43-12.93-.87s-7.36,9.17-28.35,9.27S342.92,133,342.18,140.43Z" fill="#fbc56f"/><path d="M342.18,140.43s4.31-5.24,10.85-1.05,4.78,13.94-4.64,17.14-18.17-6.16-17.8-18,6.9-13.09,6.9-13.09S331.7,122.74,335,119a19.43,19.43,0,0,0,15.65,4.32c9.87-1.36,17.67,4.44,29.55,1s16.07-9.49,16.07-9.49-.5-4.08-2.84-4.44,2.37-4.63,6.43,1.51c0,0,0-4.84,5.62-6.81,0,0,3.3,3.89,0,7.56,0,0,6.32-.78,9,2.06l-5.07.89s13.33,2.81,15.92,8.85l-5.53,3-5.32.74-4.8,3s-1.73-5.93,3.08-6.3c0,0-8.48-5.43-12.93-.87s-7.36,9.17-28.35,9.27S342.92,133,342.18,140.43Z" fill="#fbc56f"/><path d="M358.23,133.34c2.58,2.49,5,5.09,7.44,7.76s4.7,5.42,7.21,8q7.55,7.66,14.44,15.93l-.05,0q-7.65-7.58-14.65-15.74c-2.33-2.72-4.8-5.32-7.33-7.86s-4.84-5.29-7.11-8.07Z" fill="#fbc56f"/><path d="M363.22,133.26c2.32,2.29,4.54,4.69,6.67,7.15s4.19,5,6.44,7.37q6.78,7.07,12.9,14.7l0,0q-6.9-7-13.12-14.51c-2.08-2.52-4.29-4.91-6.57-7.25s-4.32-4.88-6.33-7.46Z" fill="#fbc56f"/><path d="M368.55,133.23c2.05,2.09,4,4.28,5.85,6.53s3.61,4.61,5.61,6.74A172,172,0,0,1,391.27,160l0,0a168.34,168.34,0,0,1-11.47-13.27C378,144.4,376,142.24,374,140.1s-3.77-4.46-5.5-6.83Z" fill="#fbc56f"/><path d="M371.57,133.22c1.93,1.85,3.75,3.8,5.49,5.83a77.49,77.49,0,0,0,5.26,6,145.67,145.67,0,0,1,10.55,12.06l-.05,0a142.1,142.1,0,0,1-10.75-11.87,79.4,79.4,0,0,0-5.4-5.92c-1.81-2-3.53-4-5.15-6.13Z" fill="#fbc56f"/><path d="M376.73,133.09a62.07,62.07,0,0,1,4.64,5.09,57.12,57.12,0,0,0,4.4,5.29A106.31,106.31,0,0,1,394.6,154l-.05,0a105,105,0,0,1-9-10.39,60.09,60.09,0,0,0-4.54-5.18,62.05,62.05,0,0,1-4.29-5.38Z" fill="#fbc56f"/><path d="M379.91,132.21a56.36,56.36,0,0,1,4.46,4.69,50.45,50.45,0,0,0,4.22,4.9,92.68,92.68,0,0,1,8.47,9.77l-.05,0a93.79,93.79,0,0,1-8.68-9.58,50.54,50.54,0,0,0-4.35-4.78,54.55,54.55,0,0,1-4.12-5Z" fill="#fbc56f"/><path d="M386.15,132a34.52,34.52,0,0,1,3.55,3.81,32,32,0,0,0,3.31,4,61.47,61.47,0,0,1,6.64,8l0,0a60.77,60.77,0,0,1-6.86-7.83,31.88,31.88,0,0,0-3.44-3.91,34.54,34.54,0,0,1-3.2-4.11Z" fill="#fbc56f"/><path d="M390.62,130.79A25.07,25.07,0,0,1,393.7,134a23.79,23.79,0,0,0,2.84,3.41,44,44,0,0,1,5.7,6.78l-.05,0a43.57,43.57,0,0,1-5.91-6.6,24.39,24.39,0,0,0-3-3.29,24.28,24.28,0,0,1-2.73-3.49Z" fill="#fbc56f"/><path d="M394,128.43a20.94,20.94,0,0,1,2.78,2.95,19.87,19.87,0,0,0,2.54,3.16,37.76,37.76,0,0,1,5.11,6.3l-.05,0a36.79,36.79,0,0,1-5.32-6.11,19.92,19.92,0,0,0-2.68-3.05,22.18,22.18,0,0,1-2.43-3.25Z" fill="#fbc56f"/><path d="M397.86,126.79a12,12,0,0,1,2,2.27,11.42,11.42,0,0,0,1.76,2.47,20.79,20.79,0,0,1,3.55,4.91l-.05,0a20.24,20.24,0,0,1-3.77-4.74,11.38,11.38,0,0,0-1.9-2.36,12,12,0,0,1-1.65-2.55Z" fill="#fbc56f"/><path d="M403.08,193.26,423,209.57a4.22,4.22,0,0,0,6.89-3.52l-3.45-56.86,5.94-.78,4,71.2a4.24,4.24,0,0,1-2.6,4.14h0a4.22,4.22,0,0,1-4.24-.6L401,200.52Z" fill="#fbc56f"/><path d="M436.23,217.93a4.26,4.26,0,0,1-2.64,3.29h0a4.54,4.54,0,0,1-4.45-.6l-27.82-21.29-.34,1.19,28.51,22.63a4.22,4.22,0,0,0,6.84-3.54Z" fill="#dfb065"/><rect x="425.29" y="149.46" width="0.83" height="61.42" transform="translate(-13.38 35.64) rotate(-4.72)" fill="#fbc56f"/><path d="M405.54,184.24c2,2,4,4.11,5.85,6.29S415,195,417,197a163.47,163.47,0,0,1,11.25,13l-.05,0a167.31,167.31,0,0,1-11.46-12.79C415,195,413,192.94,411,190.87s-3.78-4.3-5.51-6.59Z" fill="#fbc56f"/><path d="M406.18,180.91c2,1.88,3.81,3.87,5.58,5.92s3.43,4.2,5.33,6.13a146.22,146.22,0,0,1,10.7,12.24l0,.05a146.54,146.54,0,0,1-10.91-12.06c-1.7-2.12-3.57-4.07-5.47-6s-3.59-4.06-5.23-6.23Z" fill="#fbc56f"/><path d="M407.05,177.34a71.18,71.18,0,0,1,5.07,5.49,69.09,69.09,0,0,0,4.83,5.69,125.28,125.28,0,0,1,9.7,11.38l0,0a126.78,126.78,0,0,1-9.91-11.19,67.24,67.24,0,0,0-5-5.58,71,71,0,0,1-4.73-5.79Z" fill="#fbc56f"/><path d="M407.79,173.51a70.89,70.89,0,0,1,4.89,5.37,61.92,61.92,0,0,0,4.65,5.58,118,118,0,0,1,9.32,11.12l0,0a118.05,118.05,0,0,1-9.54-10.94,65.07,65.07,0,0,0-4.78-5.46,67.08,67.08,0,0,1-4.54-5.67Z" fill="#fbc56f"/><path d="M408.9,170.06a62.58,62.58,0,0,1,4.61,5.17,58,58,0,0,0,4.37,5.38,106,106,0,0,1,8.77,10.73l0,0a106.2,106.2,0,0,1-9-10.55,59.3,59.3,0,0,0-4.51-5.26,63,63,0,0,1-4.26-5.47Z" fill="#fbc56f"/><path d="M409.76,166.12a47,47,0,0,1,4.25,4.45,47.1,47.1,0,0,0,4,4.67,85.14,85.14,0,0,1,8.06,9.31l0,0a85,85,0,0,1-8.27-9.12,45.78,45.78,0,0,0-4.15-4.55,49.7,49.7,0,0,1-3.91-4.76Z" fill="#fbc56f"/><path d="M411.86,161a35.43,35.43,0,0,1,3.39,4,33.32,33.32,0,0,0,3.15,4.15,60.58,60.58,0,0,1,6.32,8.28l-.05,0a61.24,61.24,0,0,1-6.54-8.11,32.61,32.61,0,0,0-3.29-4,34.36,34.36,0,0,1-3-4.24Z" fill="#fbc56f"/><path d="M413.09,156.63a29.18,29.18,0,0,1,3.16,3.61,28.58,28.58,0,0,0,2.92,3.82,51,51,0,0,1,5.86,7.61l0,0a51.57,51.57,0,0,1-6.08-7.44,27.71,27.71,0,0,0-3.06-3.7,30.19,30.19,0,0,1-2.8-3.91Z" fill="#fbc56f"/><path d="M415.8,154.72a14.46,14.46,0,0,1,2.34,2.42,13.46,13.46,0,0,0,2.11,2.63,25.78,25.78,0,0,1,4.23,5.24l-.05,0A25.44,25.44,0,0,1,420,160a13.7,13.7,0,0,0-2.23-2.52,14.56,14.56,0,0,1-2-2.72Z" fill="#fbc56f"/><path d="M417.78,151.57a9,9,0,0,1,1.75,1.94,8.15,8.15,0,0,0,1.5,2.12,15.38,15.38,0,0,1,3,4.24l-.05,0a15.34,15.34,0,0,1-3.25-4.06,8.17,8.17,0,0,0-1.64-2,8.66,8.66,0,0,1-1.38-2.21Z" fill="#fbc56f"/><path d="M437.82,141.3c0-.37,0-.75-.07-1.12s.09-.65.12-1a1.62,1.62,0,0,0-.21-1.35c-.29-.31-.76.13-.91.37a3.32,3.32,0,0,0-.42,1.4,1.72,1.72,0,0,0-.53-.94c-.18-.4-.37-.8-.55-1.19q-.44-.93-.81-1.89a8,8,0,0,0-.65-1.19,4.32,4.32,0,0,0-1.54-2.6c-.15-.1-.39.14-.42.27a17.09,17.09,0,0,0-.12,4.74,26.46,26.46,0,0,1-.24,4.62,9.75,9.75,0,0,1-1,4.09,2.56,2.56,0,0,1-1.14.91,22.84,22.84,0,0,0-4.76,1,39.91,39.91,0,0,0-4.58,1.58c-1,.44-2,1.11-3.06,1.45a7.66,7.66,0,0,1-2.9.25,11.34,11.34,0,0,1-5.88-2.47c-.81-.65-2.58.87-1.83,1.65,2.24,2.33,5.05,4.07,8.12,4l.37.08a20.38,20.38,0,0,0-2.88,3.72,45,45,0,0,0-4.38,9.18c-1.19,3.33-2.09,6.76-2.95,10.2a38.51,38.51,0,0,0-1.26,6c-.69,1.8-1.41,3.58-2.25,5.32a64.62,64.62,0,0,1-11.45,16.76c-3.36,3.54-7.7,7.8-12.68,9.09a18.09,18.09,0,0,1-9.55-3.28c1.47,3,3.94,5.25,8.09,6.63a14.84,14.84,0,0,0,2.46.57,8.62,8.62,0,0,0,2.63.06c9.19-.64,16.78-10.52,19.08-13.83.07-.21,10.36-30,13.06-42a16.24,16.24,0,0,1,6.48-10c1-.57,2-1.18,3.05-1.68a24,24,0,0,1,7.74-1.58,9.74,9.74,0,0,0,4.29-.53l.14-.07a3.91,3.91,0,0,0,2.52-1.47,4.93,4.93,0,0,0,1.09-2.82A26.75,26.75,0,0,0,437.82,141.3Z" fill="#d57940"/><path d="M414.74,125.69c.48.44,1.53-.5,1.13-1a3.66,3.66,0,0,0-4.43-.87c-.09,0-.16.11-.24.15,1,.49,1.62.89,1.62.89-.18,0-.33,0-.48.07A3.08,3.08,0,0,1,414.74,125.69Z" fill="#dfb065"/><path d="M411.35,125.22a2.44,2.44,0,0,1,.74-.27c-3.89.9-2.35,6.19-2.35,6.19l.77-.48a7.33,7.33,0,0,1-.46-2.2A3.42,3.42,0,0,1,411.35,125.22Z" fill="#dfb065"/><path d="M420.46,121.25a11.12,11.12,0,0,1,1.67,4.11c.05.26.08.53.11.79l3.15-1.68c-1.16-2.71-4.48-4.76-7.79-6.21A12.49,12.49,0,0,1,420.46,121.25Z" fill="#dfb065"/><path d="M393.08,110s.24-.14,0,0l.24-.1.1,0a3,3,0,0,1,2,.28,8.12,8.12,0,0,1,2.19,1.36c.36.33.71.68,1.09,1a4.76,4.76,0,0,0,1.22.93.42.42,0,0,0,.49-.37,3.48,3.48,0,0,0-.49-1.53c0,.26,0,.45,0,.45-3.55-5.38-7.61-2.77-7-1.8L393,110S393,110,393.08,110Z" fill="#dfb065"/><path d="M400.31,122.33c-2.41,1.38-4.09,3.68-6.47,5.09-5,2.93-11.25,3-16.84,3.17-6.44.16-12.88.47-19.29,1-4.64.43-10.14.4-13.77,3.79a7.87,7.87,0,0,0,1,12.51c.44.28,1.3-.64.79-1a6.62,6.62,0,0,1-2.87-6.1,5.41,5.41,0,0,1,.39-1.42,7.25,7.25,0,0,0-1.1,1c.74-7.47,8.38-7.09,29.36-7.19s23.89-4.7,28.35-9.27c1.83-1.87,4.34-2,6.66-1.62C404.82,120.78,402.26,121.22,400.31,122.33Z" fill="#dfb065"/><path d="M348.17,139.13a8.31,8.31,0,0,1,2.92,1.4,8.63,8.63,0,0,1,3.21,6,8.37,8.37,0,0,1,0,1.66s0,.08,0,.11a.29.29,0,0,0,0,.09,5.79,5.79,0,0,1-1.41,2.65c-1.69,1.78-4.17,1.83-6.47,1.7-2.49-.14-5.05-.33-7.26-1.63-4.34-2.55-5.64-8-5.56-12.68.08-4.15.74-9.14,4.24-11.86a1.78,1.78,0,0,0,.63-.87.64.64,0,0,0,.05-.69c-.09-.15-.13-.31-.23-.46l-.35-.39c-.24-.28-.5-.54-.74-.81s-.57-.54-.82-.84a2.1,2.1,0,0,1-.46-.84,3.92,3.92,0,0,1-.13-.49.13.13,0,0,1,0-.06,2.28,2.28,0,0,1,0-.26,4.34,4.34,0,0,1,0-.51c0-.08,0-.15,0-.23,0,.18,0,0,0-.08s.05-.19.07-.28A8.45,8.45,0,0,1,335,119c-3.33,3.7,2.46,6.39,2.46,6.39s-6.53,1.26-6.9,13.09,8.38,21.21,17.8,18,11.17-12.94,4.64-17.14c-3-1.94-5.58-1.85-7.45-1.2C346,139,347.39,138.93,348.17,139.13Z" fill="#dfb065"/><path d="M410.94,114a3.42,3.42,0,0,0-1.12.76l.33-.29a5,5,0,0,0-.69.43c-.23.18-.44.72,0,.78a1,1,0,0,0,.24,0l-.23,0,5.07-.89a5.67,5.67,0,0,0-1.92-1.28c-.25.06-.51.08-.76.16A8.18,8.18,0,0,0,410.94,114Z" fill="#dfb065"/><path d="M405.62,111.1a9.79,9.79,0,0,0-.17,1.21,1.45,1.45,0,0,0,.09.92c.12.19.47,0,.57-.1a2.79,2.79,0,0,0,.49-.54c-.67,0-1.09.08-1.09.08,3.3-3.67,0-7.56,0-7.56-.32.11-.56.27-.84.39a5.77,5.77,0,0,1,1.14,3.3A11.11,11.11,0,0,1,405.62,111.1Z" fill="#dfb065"/><path d="M435.53,130.08c-1.55-2.82-4.5-4.26-7-6.1l-1-.2c-2.63.4-5.22,1.81-7.65,2.69-2.79,1-5.8,1.33-8.35,3a27,27,0,0,0-5.87,5.72c-.3.36.18.45.41.19a23.4,23.4,0,0,1,5.71-5.17c2.24-1.24,4.93-1.29,7.35-2s5-2.07,7.63-2.35c2.21-.23,3.38,1.26,4.92,2.31a24.48,24.48,0,0,1,3,3.41,17.69,17.69,0,0,1,2.24,4.27A11.78,11.78,0,0,0,435.53,130.08Z" fill="#d57940"/><path d="M475.28,252.58a65.11,65.11,0,0,0,1.07,7.22c1,5,2.27,9.95,3.29,14.95,1.61,8,2.93,16,4.69,24a102,102,0,0,0-1.49-12.49c-3.57-19.11-5.71-37.81-5.71-37.81l-1.84.24A28.63,28.63,0,0,0,475.28,252.58Z" fill="#b9cbdb"/><path d="M483.38,325s0-.28.1-.73l-.09.17c-.53,1-1,2-1.65,3a9.48,9.48,0,0,1-4.66,3.81,8.13,8.13,0,0,1-6.82,0,5.77,5.77,0,0,1-2-2,4.55,4.55,0,0,1-.43-1.05,65.42,65.42,0,0,0,.77-8.62c.12-5.87.08-12.09-1.48-17.8-.09-.32-.59.1-.59.31,0,2.88.19,5.75.15,8.64s-.08,5.51-.28,8.26c-.05.68-.13,1.36-.2,2-.34,1-.51,2.16-.78,3.17a39.2,39.2,0,0,1-1.94,5.68,20.37,20.37,0,0,1-3,4.87c-.21.27-.46.49-.69.74a13.48,13.48,0,0,1-3,1.7,25.18,25.18,0,0,1-9.26,2.09,17.63,17.63,0,0,1-7.67-2.09,24.08,24.08,0,0,1-7.1-5.08.73.73,0,0,0-.31-.19c-.15-.33-.32-.66-.45-1-1.19-3.14-1.18-6.32-1-9.63,0-.56.05-1.12.08-1.68.12-1.25.25-2.49.34-3.74a150.38,150.38,0,0,0,0-22.86c0-.23-.37,0-.37.15,0,7.24-.1,14.47-.78,21.68-.33,3.49-.74,7-1.21,10.44a28.21,28.21,0,0,1-2.34,8.68l.34-.11s19.23,16.1,39.45-.83C466.61,333.06,480.09,335.53,483.38,325Z" fill="#b9cbdb"/><path d="M461.65,273.63c.13.41.76-.12.76-.39,0-4.5-.88-9.08-1.68-13.49-.54-3-1.14-6-1.91-9l-1.95.25c.61,3.22,1.29,6.43,1.95,9.63C459.71,265,460.26,269.46,461.65,273.63Z" fill="#b9cbdb"/><path d="M454.13,271.21c.16.48.87-.16.88-.45a30.05,30.05,0,0,0-1.17-9.38,28.07,28.07,0,0,0-3.57-8.41c-.36-.54-1.34.43-1.21.91.84,2.95,1.92,5.81,2.77,8.76S453.25,268.39,454.13,271.21Z" fill="#b9cbdb"/><path d="M401.91,336.42a33.14,33.14,0,0,1-4.43-4.59,39.18,39.18,0,0,1-7.15-15.37c-2.59-11.24-1.05-23.17,1.62-34.44a56,56,0,0,1,4.36-8.47,55.26,55.26,0,0,1,7-8.9c.89-.91,1.85-1.73,2.8-2.57a54.86,54.86,0,0,0-3.91,12c-1.46,6.56-2.65,13.87-1.85,20.6.09.72,1.11.11,1.19-.35.58-3.28.88-6.61,1.46-9.9s1.26-6.7,2.09-10c1.27-5.07,2.54-10.86,5.23-15.53.4-.25.8-.51,1.21-.75a2.43,2.43,0,0,0,1-1.2,3,3,0,0,0,.36-.26l-19.62,2.54s-16.23,33.52-12.68,62c1.73,13.86,13.25,17.06,24.4,16.78-.26-.1-.53-.18-.78-.28A25.29,25.29,0,0,1,401.91,336.42Z" fill="#b9cbdb"/><path d="M402.57,230.52s-7.63,5.07-9.27,28.74c0,0,65.75,15.45,83.83-10.85,0,0,2.3-9.84-1.42-17.89C475.71,230.52,454.32,245.47,402.57,230.52Z" fill="#5681a4"/><polygon points="476.19 238.46 468.81 242 468.74 242.02 468.74 242.08 469.7 251.19 469.88 251.01 461.76 253.31 462.05 253.55 461.64 248.16 461.37 248.44 465.77 248.28 466.07 248.28 466.05 247.99 465.33 243.14 465.31 242.84 464.99 242.85 453.24 244.15 452.88 244.17 452.91 244.51 454.32 255.53 454.67 255.13 444.61 255.88 445.08 256.3 444.99 251.18 444.6 251.59 449.44 251.17 449.88 251.13 449.84 250.71 449.56 244.82 449.53 244.39 449.07 244.39 437.87 244.5 437.37 244.51 437.38 244.99 436.94 256.81 437.43 256.35 426.51 256.43 426.97 256.87 427.01 250.99 426.54 251.38 431.02 251.78 431.47 251.82 431.47 251.39 431.67 244.26 431.67 243.89 431.28 243.88 418.35 243.52 418.01 243.51 418 243.82 416.94 255.26 417.29 255 404.01 254.27 404.24 254.58 406.38 247.2 406.14 247.37 411.89 248.21 412.07 248.23 412.08 248.06 412.67 242.2 412.68 242.08 412.56 242.07 400.93 239.37 412.55 242.29 412.44 242.17 411.73 248.02 411.92 247.88 406.18 246.94 405.98 246.92 405.94 247.11 403.71 254.47 403.65 254.74 403.94 254.78 417.21 255.58 417.54 255.62 417.56 255.31 418.7 243.88 418.34 244.18 431.27 244.63 430.88 244.24 430.64 251.37 431.08 250.99 426.61 250.57 426.15 250.52 426.14 250.96 426.06 256.84 426.05 257.28 426.52 257.29 437.43 257.28 437.93 257.29 437.92 256.82 438.41 245 437.91 245.48 449.11 245.3 448.61 244.88 448.93 250.77 449.33 250.31 444.5 250.75 444.11 250.79 444.11 251.15 444.23 256.27 444.22 256.73 444.69 256.69 454.75 255.88 455.14 255.84 455.1 255.48 453.62 244.46 453.3 244.83 465.04 243.45 464.7 243.17 465.45 248.02 465.73 247.72 461.34 247.9 461.05 247.91 461.07 248.19 461.52 253.58 461.55 253.83 461.81 253.81 469.91 251.37 470.09 251.35 470.08 251.19 468.91 242.08 468.85 242.16 476.19 238.46" fill="#fbc56f"/><path d="M454,46.86s-.08-.1,0,0c-.1-.13-.2-.26-.32-.39a2.81,2.81,0,0,0-.7-.53,4.89,4.89,0,0,0-1.5-.49,3.62,3.62,0,0,0-.93,0,6.84,6.84,0,0,0,.45-1.78c.05-.38.09-.76.13-1.14l.06-.6,0-.26s.06-.45,0-.17a2.19,2.19,0,0,0-.69-2.43,5.91,5.91,0,0,0-4.75-.51,19.8,19.8,0,0,0,.07-3.18c0-.67-.43-1.83-1.3-1.73A9.69,9.69,0,0,0,440,35.66a11.3,11.3,0,0,0-3.19,4,1.32,1.32,0,0,0-.11.72l-.66-.23a3.76,3.76,0,0,0,.69-1.47,17.09,17.09,0,0,0,.11-4.63c0-.8-.51-2.2-1.55-2.07a10.17,10.17,0,0,0-7.76,5.92.13.13,0,0,1,0-.06,7.84,7.84,0,0,0-.84-2.06c-.15-.26-.37-.48-.55-.73l-.07-.19-.11-.09-.29-.24-.17-.13-.08,0-.1-.06-.27-.17-.31-.19c-.1-.07-.11-.1,0,0a.91.91,0,0,0-.14-.07l-.33-.19a3.58,3.58,0,0,0-.65-.23l-.36-.09a.82.82,0,0,0-.14.26,12.65,12.65,0,0,0-.17,6.35s0,0,0,0l-1,.37a4.23,4.23,0,0,0,.25-.42c.71-1.87,0-4.27-.5-6.11a2,2,0,0,0-.33-.62l-.42.32a15.75,15.75,0,0,0-3.56,3.68,7.49,7.49,0,0,0-1.13,2.1,11.16,11.16,0,0,0-.16,1.14,3.4,3.4,0,0,0-.12.34h0a3,3,0,0,0-.07,1.2c.06.22-.27.47-.36.24l-.22.15a3.59,3.59,0,0,0-.05-.46,4.82,4.82,0,0,0-3.46-3.5c-.52-.12-.75.42-.84.82a9.89,9.89,0,0,0-.33,3.9,5.44,5.44,0,0,0,.81,2.13l-.44.33a2.14,2.14,0,0,0-.1-.22A4.57,4.57,0,0,0,409.55,44a9.3,9.3,0,0,0-3.2-1.23.59.59,0,0,0-.66.45,1.71,1.71,0,0,0,0,1.18,5.67,5.67,0,0,0,2.71,3.16l0,.05a11.31,11.31,0,0,0-1.64,1.53,1.91,1.91,0,0,0-.9-.32,8.84,8.84,0,0,0-1.26,0,9.94,9.94,0,0,0-1.08.13A3,3,0,0,0,403,49a4.63,4.63,0,0,0-.64.29.74.74,0,0,0-.26.49,1.52,1.52,0,0,0,0,.6.88.88,0,0,0,.59.62l0,0c-.1-.11.07.1.08.11a1.77,1.77,0,0,0,.2.17c.12.1.25.19.38.28a6.47,6.47,0,0,0,.85.49,12.82,12.82,0,0,0-.92,1.35,1.19,1.19,0,0,0-.11.45,25.32,25.32,0,0,1,5.09-3.6l2.41-1.48.71-.47c.8-.53,1.59-1.08,2.38-1.61.06,0,.12,0,.18,0,.73-.44,1.48-.84,2.24-1.22l.34-.18.66-.28a38.06,38.06,0,0,1,3.83-1.76,26.25,26.25,0,0,1,26.71,3.54,24.59,24.59,0,0,1,4.15,3.77,9.52,9.52,0,0,0,2.25-2,1.32,1.32,0,0,0,0-1.39C454.09,47,454,46.94,454,46.86Z" fill="#fbc56f"/><rect width="841.89" height="595.28" fill="none" stroke="#fff" stroke-miterlimit="10"/></svg>