<svg id="Layer_1" data-name="Layer 1" xmlns="http://www.w3.org/2000/svg" viewBox="0 0 841.89 595.28"><path d="M479.44,375.1s26.7,9.41,75.34,42.73c23.18,15.89,73.11,48.82,95.34,7.82,0,0-16.63,10.7-48.41,3.7-39.53-8.7-108.92-59.91-108.92-59.91Z" fill="#b9cbdb"/><path d="M565.92,259.27s16.49-33.94,16.81-62.59-7.7-59-7.94-79.06,5.43-26,15.68-21.57,3.83,25.68-7.29,19.13c0,0,0,16.21,7.22,43.22,9.5,35.57,4.57,86.37-9.1,109.75Z" fill="#fbc56f"/><path d="M476.6,118.41c-2-1.07-3.88-2.21-5.79-3.36.34-.78.73-1.54,1-2.34l.81-2.07a7.6,7.6,0,0,0,1.37-3.46c.12-1.69-.7-3.18-1.37-4.67-.42-.93-.82-1.86-1.24-2.79,1.14-.59,2.28-1.18,3.43-1.74a2.45,2.45,0,0,0,1-2.35,47.75,47.75,0,0,1,.33-14c.11-.61.07-2-.94-1.88a72.75,72.75,0,0,0-11,3.17,48.61,48.61,0,0,0-9.68,4,24.39,24.39,0,0,0-10.81,14.31,1.4,1.4,0,0,0-.05.34,1.08,1.08,0,0,0-.24.28,79,79,0,0,1-5.21,7.72c-.51.64-.69,2.16.06,2.71a57.08,57.08,0,0,0,6.54,4c1.06.59,2.12,1.2,3.2,1.77l1.6.85.4.21a5.66,5.66,0,0,0-.24,1.69,5.73,5.73,0,0,0,1.16,3.48c1.28,1.68,4.17,3.52,6.33,3.47a15.53,15.53,0,0,0,4.24-1.2c1.58-.52,3.17-1,4.77-1.48,3.18-1,6.36-2,9.53-3C476.85,121.6,477.88,119.1,476.6,118.41Z" fill="#fbc56f"/><path d="M464.44,93.25a40.48,40.48,0,0,1-10.73,5.48c-1.93.56-3.94.93-5.83,1.58a34.06,34.06,0,0,0-5.44,2.55,89.64,89.64,0,0,1-10.83,5.2A62.19,62.19,0,0,1,420,111.28l-.1-.26a62.75,62.75,0,0,1,10.59-5.79,88.17,88.17,0,0,1,11.4-3.82,33.92,33.92,0,0,0,5.67-2c1.82-.85,3.51-2,5.29-2.92A40.31,40.31,0,0,1,464.33,93Z" fill="#af8c51"/><path d="M453.18,108.23a22.67,22.67,0,0,1-8.43,3.07c-1.48.17-3,.06-4.5.32A18.56,18.56,0,0,0,436,113a47.41,47.41,0,0,1-8.5,2.77,34.71,34.71,0,0,1-9,.71l-.07-.27a34.83,34.83,0,0,1,8.35-3.4,46.6,46.6,0,0,1,8.83-1.33,19.08,19.08,0,0,0,4.41-.72c1.42-.43,2.76-1.22,4.16-1.74a22.67,22.67,0,0,1,8.91-1Z" fill="#af8c51"/><path d="M459.93,120.14a25.32,25.32,0,0,1-9,2.93c-1.57.15-3.21,0-4.77.25a20.94,20.94,0,0,0-4.55,1.26,53.65,53.65,0,0,1-9.1,2.64,39.07,39.07,0,0,1-9.52.56l-.06-.28a39.19,39.19,0,0,1,9-3.27,54.31,54.31,0,0,1,9.39-1.18,21,21,0,0,0,4.69-.64c1.52-.41,3-1.18,4.47-1.67a25.36,25.36,0,0,1,9.46-.88Z" fill="#af8c51"/><path d="M446.52,117.17a11.87,11.87,0,0,1-5.8,2.83c-1.07.14-2.22,0-3.26.22a9.79,9.79,0,0,0-3,1.23,25,25,0,0,1-5.89,2.54,18.61,18.61,0,0,1-6.49.51l-.09-.28a18.39,18.39,0,0,1,5.71-3.15,24.49,24.49,0,0,1,6.31-1.12,9.68,9.68,0,0,0,3.14-.61c1-.39,1.88-1.14,2.84-1.62a11.84,11.84,0,0,1,6.4-.82Z" fill="#af8c51"/><path d="M443.28,101.87a27.35,27.35,0,0,1,4-10,18.66,18.66,0,0,1,3.63-4.18,16.17,16.17,0,0,1,4.9-2.71A86.73,86.73,0,0,1,466,82.07c3.42-.8,6.77-1.79,10.12-2.85l.76-.24-.12.84a54,54,0,0,0-.45,9.41,27,27,0,0,0,1.43,8.89l.58,1.49-1.6.4q-9.39,2.37-19,3.9l-.22,0h-.12C452.37,103.45,447.51,102.51,443.28,101.87Zm.23-.16c5.15,0,9.68-.31,14-.18l-.33,0q9.34-2.57,18.88-4.31l-1,1.89a24.94,24.94,0,0,1-1-10,71.33,71.33,0,0,1,1.61-9.57l.64.6a74.69,74.69,0,0,0-10,3.12l-9.64,4a17,17,0,0,0-4.3,2.25,19.55,19.55,0,0,0-3.48,3.5A58.34,58.34,0,0,0,443.51,101.71Z" fill="#af8c51"/><path d="M443.51,101.87A68.29,68.29,0,0,1,438,112.19l-.44-1.8a54.14,54.14,0,0,1,6.83,4.32,51.28,51.28,0,0,0,6.86,4.27l-.32,0c3.34-.8,6.6-2,9.93-2.81s6.66-1.68,10-2.33l-1.05.78q1.86-3.36,3.91-6.63l-.06,1c-.93-3-1.77-6.06-2.42-9.18l.26-.1c1.63,2.74,3.06,5.56,4.42,8.4l.2.43-.26.58q-1.57,3.53-3.35,6.94l-.32.62-.72.15c-3.36.72-6.76,1.19-10.15,1.76s-6.85.71-10.24,1.28l-.18,0-.13-.08a51.26,51.26,0,0,0-7.22-3.62,54.18,54.18,0,0,1-7.25-3.57l-1.18-.73.74-1.07a68.37,68.37,0,0,1,7.37-9.08Z" fill="#af8c51"/><path d="M450.1,118.77a24,24,0,0,1,.61,3.08l-.27-.65a46,46,0,0,1,3.87,3.06,22.85,22.85,0,0,1,3.44,3.51l-1-.21a38.49,38.49,0,0,0,6-1.51,49.62,49.62,0,0,0,5.6-2.58c1.83-1,3.74-1.69,5.64-2.47a55.91,55.91,0,0,1,5.77-2.09l-.22,2.65c-1.46-.91-2.88-1.86-4.28-2.88a49.51,49.51,0,0,1-4.06-3.26l.14-.25a47.7,47.7,0,0,1,4.92,1.73c1.59.65,3.16,1.35,4.69,2.11l2.8,1.39-3,1.26a56.91,56.91,0,0,1-5.8,2c-2,.59-3.91,1.22-5.93,1.64a50.25,50.25,0,0,0-6,1.54,38.7,38.7,0,0,0-5.58,2.61l-.41.2-.63-.42a22.38,22.38,0,0,1-3.75-3.18,45.93,45.93,0,0,1-3.32-3.64l-.32-.39,0-.26a23.57,23.57,0,0,1,.79-3Z" fill="#af8c51"/><path d="M410.44,109.55l14.18-5s-3.09,13,11.11,30.9l-31.9,14.93L388,127.9Z" fill="#824c24"/><path d="M431.07,64.32a40.58,40.58,0,0,0-2.53-5.44c-2.26-4-4.9-8-8.57-10.86a35.68,35.68,0,0,0-13.17-6,29.1,29.1,0,0,0-15.22,0,1,1,0,0,1-.69.11c-3.88-.87-7.71-1.87-11.73-1.36a33.38,33.38,0,0,0-5.73,1.44c-1.57.49-2.92,1.43-4.41,2a33.06,33.06,0,0,0-7.23,5.57,49,49,0,0,0-7,8.81c0,.06-.1.1-.14.15a1.22,1.22,0,0,1-1.26.64,12.6,12.6,0,0,0-2-.21c-.16.22-.3.45-.45.67a37.58,37.58,0,0,0-5.16.68,44.34,44.34,0,0,0-15,6.27,31.53,31.53,0,0,0-7.33,6.48c-.33.52-.65,1-.93,1.59a1.63,1.63,0,0,1-1.29.94H321a1.4,1.4,0,0,1-.17-.09.65.65,0,0,1-.2-.05c-1.34-.92-3.21-.8-4.76-.79a22.47,22.47,0,0,0-6.22.82A11.22,11.22,0,0,0,304.15,79a9.86,9.86,0,0,0-1.67,2.55c-.3.73-.53,1.48-.8,2.22a2.15,2.15,0,0,0,.1.27,48.11,48.11,0,0,0,17.6,15.7,81.3,81.3,0,0,0,11.55,5.18q1.24.45,2.49.84c5.6,2.94,11.72,5.19,18.11,4,.4.31,1,.27,1.55-.54a31.77,31.77,0,0,0,2.64-4.26,7.9,7.9,0,0,0,2.61-9,41.38,41.38,0,0,1-1.84-5.29,14.22,14.22,0,0,1-.08-4.87,13.2,13.2,0,0,1,4-7.75,8.61,8.61,0,0,1,3.35.63c1.68.93.87,3,.55,4.39-.19.83-.17,2.18.74,2.59s1.42-.29,1.8-.94a1.7,1.7,0,0,0,.61-.61A12.08,12.08,0,0,1,372.38,79a17.82,17.82,0,0,1,6.79-2.22c5.55-.59,10.85,2,15.46,4.76s9.18,6.21,14.34,8.33a23.78,23.78,0,0,0,8.33,1.87c.4,3.24-1.87,6.25-3.82,8.79a33.09,33.09,0,0,0-5.58,10.29,25.69,25.69,0,0,0-.65,2.86,14.68,14.68,0,0,1-2,3.89c-1.88,2.43-5.2,3.74-7.74,5.33a30,30,0,0,1-4.64,2.41c-.59.24-1.18.41-1.75.61-1.56-.6-2.87-.35-3.13,2-.07.65.21,1.53,1,1.59a.87.87,0,0,0,.45-.12,18.34,18.34,0,0,1,2.86,2.6c1.21,1.12,2.39,2.27,3.61,3.38l3.69,3.32a10.25,10.25,0,0,1,1.67,1.62,3.1,3.1,0,0,1,.37,2.22c0,.58.08,1.61.67,1.93l2,1.11a1.32,1.32,0,0,0,.51.16c.32-.44.64-.88.94-1.33a19.72,19.72,0,0,0,1.84-3.3,11,11,0,0,0,1.29-4,1.53,1.53,0,0,1,1.29-1.24,9,9,0,0,0,5.2-2.25,17.6,17.6,0,0,0,1.19-1.38,24.54,24.54,0,0,0,2.49-4,14.47,14.47,0,0,0,.64-7.26c-.1-.44-.2-.87-.33-1.3-.21-.64-.47-1.25-.71-1.86q-.51-1.17-.9-2.37a1.11,1.11,0,0,1,0-.72,1.62,1.62,0,0,1,1-1.23c-.19.09,0,0,.08,0l.2-.11.16-.09a9.55,9.55,0,0,1,1.81-1.18l.28-.13.46-.29c.52-.33,1-.68,1.54-1l.32-.24,0,0,.17-.14.58-.51c3.38-4,5.14-9.63,6.05-14.55A37.59,37.59,0,0,0,431.05,83a10.25,10.25,0,0,1-.41-2.72,18.66,18.66,0,0,1,.78-2.4.85.85,0,0,1,0-.17c.05-.3.12-.6.16-.89A35.75,35.75,0,0,0,431.07,64.32Z" fill="#a25341"/><path d="M303.51,121.51A224.56,224.56,0,0,0,287,105.23c-2.8-2.5-5.64-5.23-9-7a13.19,13.19,0,0,0-4.92-1.62c-.35-.19-.7-.38-1.07-.55l-.94-.08a28,28,0,0,0-13,2.33,35,35,0,0,0-10.6,7,29.45,29.45,0,0,0-4.13,4.91c-.19.29-.36.61-.53.91a30,30,0,0,0-1.35,3.9,30.26,30.26,0,0,0-.08,8.66,25.25,25.25,0,0,0,.63,3.59c0,.1.08.2.14.3a.8.8,0,0,1,.1.52,9.45,9.45,0,0,0,2.47,4.14c.51.47.14,1.29-.4,1.72.28.29.54.6.83.88-.58.15-1.15.31-1.71.5a40.55,40.55,0,0,0-7.61,3.63c-4.63,2.8-8.79,6.65-11,11.71s-2.39,11,.45,15.67c.18.29.4.55.6.83a13.12,13.12,0,0,0-7.84,9.78,13.74,13.74,0,0,0,1.16,7.38,10.88,10.88,0,0,0,6.61,2.21,26.87,26.87,0,0,0,4.83-.22c11.24-3.66,22.48-7.56,32.89-13.22,2-1.06,3.85-2.21,5.72-3.4a1.2,1.2,0,0,0,.85-.45l.14-.19c.44-.28.89-.55,1.33-.85,2.29-1.56,5.69-3.36,6.8-6a14.33,14.33,0,0,0,.61-4.47,22.65,22.65,0,0,1,.8-4.38,24.61,24.61,0,0,1,3.66-7.62c3.69-5.26,9.22-8.26,14.95-10.84,2.54-1.14,5.77-2,7.2-4.61C307.48,126.86,305.77,124,303.51,121.51Z" fill="#a25341"/><path d="M277.13,206.05l-.25,0c-4.06,1.15-8.14,2.37-12.16,3.69-1.77.76-3.52,1.57-5.22,2.39-3,1.41-5.9,2.92-8.83,4.41-2.42,1.22-4.95,2.35-7.28,3.75a21.86,21.86,0,0,0-2.61,2.28l-.18.2a8.91,8.91,0,0,0-.69,2.12,9.79,9.79,0,0,0,.84,5.51,14.43,14.43,0,0,0,6,6.42c4.7,2.76,13.22,4.35,17-.79.3-.41,1.15-.92,1.66-.51l.08,0v0l.1.07a.91.91,0,0,1,.26.13,6.75,6.75,0,0,0,1,.69l.09,0a5.42,5.42,0,0,0,.69.32,9.22,9.22,0,0,0,1.86.54.64.64,0,0,0,.18.06l.32.05a.58.58,0,0,0,.23,0,14.54,14.54,0,0,0,2.95,0,9.26,9.26,0,0,0,2.28-.66,10.47,10.47,0,0,0,3.06-2.11,2.91,2.91,0,0,0,.09-1.16,63.78,63.78,0,0,1-.75-12,73.88,73.88,0,0,1,.85-12,4.15,4.15,0,0,0-.12-1.81C278.5,206.71,278.12,205.91,277.13,206.05Z" fill="#a25341"/><path d="M367.28,78.89a5,5,0,0,0-2.35-2.06,4.49,4.49,0,0,0-6.54-.41c-3.11,2.89-3.62,7.77-3.46,11.75.1,2.21.45,4.39.68,6.58.21,2,.54,4.29-.32,6.13a17.52,17.52,0,0,1-1.5,2.4c-.4.6-1,1.91-1.7,2.24s-2.42-.14-3.28-.27a6.91,6.91,0,0,0-3.08.36c-4.78-.89-9.06-2.9-13.67-4.51-1.61-.56-2,2.8-1.16,3.61,3.83,3.54,9.34,5.18,14.41,5.93,2.26.34,5.37.92,7.56.07,2-.78,3.35-3,4.48-4.81a15.41,15.41,0,0,0,2.6-7c.24-3-.59-5.9-.81-8.83-.18-2.3-.56-5.39.74-7.44C361,80.91,364,80,365.3,81.91,366.53,83.64,368,80.14,367.28,78.89Z" fill="#a25341"/><path d="M401.34,147l.08,0a1.61,1.61,0,0,0,.73.45h.07a4.81,4.81,0,0,0,.82.32,24,24,0,0,0,2.75-3.44,19.72,19.72,0,0,0,1.84-3.3,11,11,0,0,0,1.29-4,1.26,1.26,0,0,1,.53-.88c.24-2.68.4-5.77-.51-8.29-.61-1.67-2.21-.23-2.42.9-.55,3,0,6.09-.45,9.12a12.66,12.66,0,0,1-1.22,4.08c-.1.21-.29.71-.49.83s-.3.13-.7-.12a.1.1,0,0,0-.05,0c-.13-.33-.28-.66-.43-1-.39-.87-.77-1.74-1.19-2.6a18.39,18.39,0,0,0-3-4.54,35.44,35.44,0,0,0-7.64-5.86c.84-.43,1.68-.87,2.54-1.28,2.5-1.2,5.08-2.25,7.5-3.6a18.54,18.54,0,0,0,9-10.66c.51-1.64-1.35-2.86-2-1-1.68,4.8-7,7.34-11.34,9.21-4.06,1.74-11.79,3.81-12.23,9.26-.22,2.8,2.9,3.89,4.8,5.31a57.93,57.93,0,0,1,6.27,5.44C397.64,143.24,399.19,145.57,401.34,147Z" fill="#a25341"/><path d="M303.87,116.34c-3.48-4.49-8.38-7.48-13.12-10.47-3.15-2-6.33-3.91-9.59-5.68-.6-.44-1.19-.89-1.8-1.3a29.62,29.62,0,0,0-4.58-2.62c-1.22-.15-2.45-.26-3.68-.33a28.33,28.33,0,0,0-7.92.69l-.22.17a17.5,17.5,0,0,0-2.78,3.66c-.37.51-.35,2.92.73,2.09.69-.54,1.47-.78,2.2-1.25a10.13,10.13,0,0,1,2.65-1.38c2.2-.64,4.41.49,6.41,1.32a82.24,82.24,0,0,1,8.41,4.18c2.41,2,4.76,4.09,7.09,6.17,3.22,2.87,6.45,5.73,9.63,8.65,1.45,1.34,3.05,2.58,3.64,4.54.24.78.36,1.59.55,2.38a9.15,9.15,0,0,0,.9,2.13c.32.63,1-.06,1.17-.42a12.16,12.16,0,0,0,.7-3c0,.16.09.31.12.47,1,5.21-7.62,5.87-11,5.46-1.6-.19-2.44,3.36-.85,3.68a23.4,23.4,0,0,0,4.07.78,12,12,0,0,0,4.3-.56,10.27,10.27,0,0,0,5.4-4.26C309.31,126.55,307.09,120.49,303.87,116.34Z" fill="#a25341"/><path d="M431.05,83a12.27,12.27,0,0,1-.42-2.59,15.23,15.23,0,0,1-3.67,5.2,18.66,18.66,0,0,1-5.72,3.67,13.85,13.85,0,0,1-2.86.84c-.14.67-.22,1.38-.36,2.11a27.44,27.44,0,0,1-2.3,6.53,19,19,0,0,1-3,4.18l-.2.11a12.89,12.89,0,0,0-2.55,2.28,21,21,0,0,0-3.63,6.8,18.75,18.75,0,0,1-3,6.1c-.71.87-1.52,1.66-2.23,2.53l-.18.22-.62.34c-3.36,1.84-6.62,3.82-9.94,5.73a1.89,1.89,0,0,0-.51,2c0,.76.3,1.38,1.05,1.23a41.83,41.83,0,0,0,12.69-4.51,20.86,20.86,0,0,0,5.39-3.85,12.68,12.68,0,0,0,2.76-6c.39-1.87.41-4,1.24-5.74s2.7-3.08,4.08-4.5c3-3.13,4.37-7.35,7.13-10.65,1.53-1.82,3.64-3,5.17-4.85a10.67,10.67,0,0,0,2-3.49A27.5,27.5,0,0,0,431.05,83Z" fill="#713b2b"/><path d="M424,59c-1.11-.87-2.29-1.69-3.48-2.45a17.24,17.24,0,0,0-3.85-2.12c-.4-.12-.57.68-.39.91a18.82,18.82,0,0,0,3.13,2.78c1.06.82,2.17,1.58,3.25,2.38,1.85,1.39,3.74,3.17,4,5.59,0,.34.27.68.63.55a1.1,1.1,0,0,0,.59-1C427.81,62.77,426.13,60.63,424,59Z" fill="#713b2b"/><path d="M395.15,54.91c-3.44-.94-7.37.29-10.66,1.31a46.46,46.46,0,0,0-4.92,1.87,14.57,14.57,0,0,0-4.7,2.88c-.15.16-.28.76.1.73a8.77,8.77,0,0,0,2.21-.71c.72-.27,1.43-.54,2.13-.82,1.67-.68,3.35-1.27,5.06-1.82,3.18-1,7-2.3,10.32-1.44C395.53,57.12,396,55.14,395.15,54.91Z" fill="#713b2b"/><path d="M423.42,76.07a20.88,20.88,0,0,0-3.23,1.4,35.38,35.38,0,0,1-3.62,1.29,26.81,26.81,0,0,1-7,1.08C404,80,399.33,78,394.44,75.52c-8.55-4.29-19.38-7.06-27.56-.45-.31.25-.24,1.34.23,1A19.6,19.6,0,0,1,381.75,73c5.5.87,10.27,3.43,15.21,5.84a27.31,27.31,0,0,0,13.52,2.88,25.7,25.7,0,0,0,6.95-1.29c2.1-.72,4.6-1.76,6.1-3.44C423.68,76.81,423.89,76,423.42,76.07Z" fill="#713b2b"/><path d="M390.24,42c-3.66-.83-7.29-1.7-11.08-1.21a33.38,33.38,0,0,0-5.73,1.44c-1.57.49-2.92,1.43-4.41,2a33.06,33.06,0,0,0-7.23,5.57,49,49,0,0,0-7,8.81c0,.06-.1.1-.14.15a1.22,1.22,0,0,1-1.26.64c-2.86-.56-6,.06-8.79.49a29,29,0,0,0-8.75,2.83c-5.35,2.71-10.54,6.74-13.33,12.16a1.53,1.53,0,0,1-1.4.94.77.77,0,0,1-.46-.13c-1.34-.92-3.21-.8-4.76-.79a22.47,22.47,0,0,0-6.22.82A11.22,11.22,0,0,0,304.15,79a9.86,9.86,0,0,0-1.67,2.55c-.33.79-.56,1.62-.87,2.42a0,0,0,0,0,0,0,8.83,8.83,0,0,0,2.51,2.55c1.07.91,2.17,1.79,3.28,2.64,2.15,1.66,4.37,3.22,6.63,4.71,4.63,3,9.46,5.79,14.33,8.42,2.68,1.45,5.35,3,8.12,4.25a34.32,34.32,0,0,0,4.19,1.8,6.88,6.88,0,0,0,2.11.24l.94.31c2,1.12,4.1,2,6.26,1.15l.32,0c-1.54-.61-3.06-1.3-4.53-2.06-10.6-5.44-20-15.07-19.55-27.76.25-7.31,5-13,11.47-16a35.12,35.12,0,0,1,11.21-3c2.1-.22,4.21-.28,6.32-.48a24.65,24.65,0,0,1,4.7-.17c.1-.64-.06-1.25-.62-1.32-1.16-.12-2.31-.24-3.47-.33.55-.78.93-1.69,1.5-2.47a20.41,20.41,0,0,1,3.16-3.21,39.38,39.38,0,0,1,8.1-5.36,30.5,30.5,0,0,1,11.93-3.54A37.32,37.32,0,0,0,377,46.39a44.32,44.32,0,0,0-9.24,8.26,45.2,45.2,0,0,0-8.66,16.74,15.24,15.24,0,0,0-.77,6.34c.18,1,1.1.85,1.48,0a34.45,34.45,0,0,0,1.56-5.31,38.2,38.2,0,0,1,8.27-15.13c4.8-5.49,11.74-10.35,19-11.78C389.94,45.28,390.6,43.35,390.24,42Z" fill="#713b2b"/><path d="M419.73,121c-.1-.44-.19-.88-.33-1.31-.21-.64-.47-1.25-.71-1.86q-.51-1.17-.9-2.37a1.11,1.11,0,0,1,0-.72,1.51,1.51,0,0,1,.79-1.11,10.67,10.67,0,0,1-2.76.37,14.17,14.17,0,0,1,2.43,10.57,11.14,11.14,0,0,1-3.42,6.74,11.68,11.68,0,0,1-6.15,2.55,9,9,0,0,1,.06,3.47,16.54,16.54,0,0,1-.73,2.89,8.17,8.17,0,0,0,.91-3.13,1.53,1.53,0,0,1,1.29-1.24c4.26-.33,7.39-3.73,8.86-7.52A14.53,14.53,0,0,0,419.73,121Z" fill="#713b2b"/><path d="M305.69,125.65c-1.85-7.07-10.13-13.43-15.73-17.2-3.25-2.18-6-5-9.24-7.2A44.62,44.62,0,0,0,271.56,96l-.46,0a28,28,0,0,0-13,2.33,35,35,0,0,0-10.6,7,29.45,29.45,0,0,0-4.13,4.91c-.19.29-.36.61-.53.91a30,30,0,0,0-1.35,3.9,30.26,30.26,0,0,0-.08,8.66,25.25,25.25,0,0,0,.63,3.59c0,.1.08.2.14.3a.8.8,0,0,1,.1.52,9.45,9.45,0,0,0,2.47,4.14c.71.66-.28,2-1.08,2-2.72,0-5.3,1.36-7.71,2.49a33.37,33.37,0,0,0-6.49,3.9c-.35.27-.67.57-1,.87s-.84.83-1.22,1.27l-.12,0a49.7,49.7,0,0,0-6.1,9c-.21.87-.39,1.74-.52,2.59a17.94,17.94,0,0,0,.05,5.85c.09.54.2,1.07.31,1.61a12.54,12.54,0,0,0,2.65,3.84,16.1,16.1,0,0,0-2.26,1.62,13.77,13.77,0,0,0-4.36,8.14,14.14,14.14,0,0,0,.37,6.08c.07.17.12.34.19.5a7.79,7.79,0,0,0,5.24,4c-.25-.24-.52-.46-.75-.72a11.79,11.79,0,0,1-3.26-8.26,10.48,10.48,0,0,1,5.13-8.38,18,18,0,0,1,8.76-2.26c.93,0,1.86,0,2.79-.08-3.27-1.93-6.26-4.64-7.09-8.4a9,9,0,0,1,.42-4.9,13.89,13.89,0,0,1,3.11-6.18A22.52,22.52,0,0,1,242.72,140c.29-.13.57-.24.81-.33a27.41,27.41,0,0,1,5.57-1.34,22.7,22.7,0,0,1,5.88-.09c.65.09,1.3.22,1.94.34a16.53,16.53,0,0,1-3.06-3.49c-2.44-3.78-2.92-8.68-.14-12.42.22-.3.48-.58.72-.87a17.29,17.29,0,0,1,8.81-6.3c9-3,19.29-1.21,27.27,3.64a49.73,49.73,0,0,1,6.25,4.53c1.92,1.61,4.55,3.6,5.21,6.11.26,1,.9.57,1.32-.09C304.84,131.36,306.17,127.51,305.69,125.65Z" fill="#713b2b"/><path d="M277,206.06l-4.63,1.35c-.56.27-1.12.53-1.68.77-2.09.87-4.2,1.66-6.33,2.44-4.14,1.52-8.32,3-12.39,4.71h0l-3,1.57a32.39,32.39,0,0,0-5.43,3.33,23.87,23.87,0,0,0-2.73,2.38l-.21.23a8.92,8.92,0,0,0-.66,2.09,9.59,9.59,0,0,0,.66,5c1.38-.52,2.74-1.43,3.91-2,2.18-1,4.4-2,6.64-2.84,4.16-1.61,8.82-3.63,13.34-2.56a11.22,11.22,0,0,1,8.35,8c.19.81.28,1.56-.41,2.13a4.13,4.13,0,0,1-2.71.75,7.63,7.63,0,0,1-3.2-1.06c-.83-.45-2.06-.89-2.53-1.74-.73-1.33-1.88,1-1.75,1.74a7.49,7.49,0,0,0,1.54,3.6c.34-.41,1.12-.85,1.61-.44a.91.91,0,0,1,.42.2c2.51,2.11,6.66,2.29,9.59,1a10.47,10.47,0,0,0,2.75-1.83c.11-.87,1.55-2.43,1.35-3.34-1.66-7.72-.8-15.24-1.28-22.94-.06-.87.48-2.11-.1-2.9Z" fill="#713b2b"/><path d="M277.45,159.58l-69.28,29.68s-4.94,21.22,17.45,38.57l52.88-20.16,5.34-33.5Z" fill="#824c24"/><path d="M239.8,196.41c-18.77,3.5-27.83,1.91-32.08-1.06.18,7.57,2.94,20.89,17.9,32.48l52.88-20.16,4.15-22.84C272.22,189.77,260.57,192.54,239.8,196.41Z" fill="#513015"/><path d="M418.49,89.65a34.83,34.83,0,0,1-6.12-1.6,22.3,22.3,0,0,1-3.23-.57,33,33,0,0,1-8.3-3.75c-4.95-3-9.72-6.43-15.27-8.24a1,1,0,0,0-.95.21,11.3,11.3,0,0,0-1.1-.42,2.65,2.65,0,0,0-2.3-.46,10.3,10.3,0,0,0-7.79,2.42.81.81,0,0,0-.28.14l-.23.2h0L368.72,81c-.48-.64-1.57-.26-1.78.93l-.24,1.36a1.24,1.24,0,0,0-.95.51c0-.19-.05-.39-.08-.59s0-.19,0-.29a21.1,21.1,0,0,0-.54-5,3.43,3.43,0,0,0-1-1.54,3.15,3.15,0,0,0-3,1.41,14.19,14.19,0,0,0-2.21,5.32,28.92,28.92,0,0,0-1,6.32,21.59,21.59,0,0,0,.79,5.32c.17.28.34.56.48.85-.06.3-.1.62-.15.93a11,11,0,0,1-.49,4.85l0,.83a.71.71,0,0,0-.27.19c-.09.1-.16.2-.24.3-.55,1.3-1.25,2.59-2,3.91s-1.17,2.61-2.58,3.18l-.11,0c0,.08-.09.16-.12.24a1.12,1.12,0,0,0-.07.29l-1.83-.48a3,3,0,0,1-.43-.11c-2-.52-4.05-1-6.14-1.36-1.64-.28-3.28-.46-4.93-.6-2.94-1.58-5.95-3-9-4.49-.84-.41-1.69-.85-2.56-1.3l-1.14-.68c-1.5-1.18-3.1-2.27-4.59-3.36-2.76-2-5.59-4-8.41-5.93l-.4-.27c-3.91-3.12-7.94-6.09-12.08-8.87-3.79-3.37-7.81-6.48-11.83-9.53-1.7-1.51-3.37-3-5.11-4.51-1.59-1.32-3.27-2.62-5-3.84l-.77-.62c-3.37-2.49-6.85-4.84-10.38-7.09-3.16-2-6.38-4-9.71-5.74a42.67,42.67,0,0,0-7.16-2.3,36,36,0,0,0-8.6-.71c-1.34,0-2.68.17-4,.21-.13,0-.27,0-.41,0l0,0a4.54,4.54,0,0,0-2.38,4.46,31,31,0,0,0,2.59,9.72,70.76,70.76,0,0,0,6,11.38c.53.81,1.12,1.6,1.68,2.4,1.15,1.46,2.39,2.85,3.63,4.23.56.56,1.09,1.14,1.68,1.66a78,78,0,0,0,7.94,6.48,165.7,165.7,0,0,0,15.35,9c1.71.83,3.41,1.67,5.14,2.47.42.36.83.75,1.25,1.12,3,1.84,6,3.81,8.85,5.94,6.53,4.88,15.64,11.84,16.52,20.67a.71.71,0,0,0,.17,0,30,30,0,0,0,7.39-.68,5.16,5.16,0,0,0,3.07-1.62,8.71,8.71,0,0,0,1-3c1-3.33,5.53-5,8.42-6.15a1.59,1.59,0,0,0,.59-.52c1.72,0,3,.78,4.52,1.41.27.11,1.18-.49,1.46-.38v-.07c.75.16,1.33-.48,1.59-1.32a34.8,34.8,0,0,1,5.71,3l-.16.17a37,37,0,0,0-4.73,5.28.32.32,0,0,0-.14,0,1.89,1.89,0,0,0-.84.47,4.17,4.17,0,0,0-1,1.28c-.52.94-.82,2-1.28,2.93,0,.06-.18.43-.07.14s-.07.12-.11.18-.13.19-.2.29,0,0,0,0l0,0c-.17.18-.35.35-.54.52l-.16.11-.31.19c-.19.11-.4.21-.6.3l-.26.08-.4.1a6.06,6.06,0,0,1-.71.1h-.22l-.44,0c-.79-.09-1.32.77-1.46,1.46a1.6,1.6,0,0,0,0,.23,3.24,3.24,0,0,0-.38,1.37c-.19,5.66-2,11.25-.91,16.92.22,1.15,1,1.74,2,.92,2.82-2.34,6.46-3.63,9.77-5.11.65-.29,1.28-.6,1.92-.91a60.68,60.68,0,0,0,14.71-5.51c.88-.25,1.77-.48,2.66-.7,1.61-.29,3.21-.57,4.79-.93.35-.08.67-.2,1-.29a20.68,20.68,0,0,0,5.37-1.55l.1-.09a11.88,11.88,0,0,0,5.5-2.36,1.8,1.8,0,0,0,.28-.36c.13.66.51,1.39,1.3.92a7.9,7.9,0,0,1,7.5-.47.65.65,0,0,0,.77-.21,2.61,2.61,0,0,0,.4,0c.49,0,1,0,1.48,0a.55.55,0,0,0,.17-.05,14.58,14.58,0,0,1-.31-2.75,6.31,6.31,0,0,1,1.31-4.42s0,0,0-.08l.15-.09a3.78,3.78,0,0,1,1.39-.81,19.3,19.3,0,0,1,3.21-.49,26.22,26.22,0,0,0,4.36-1.17,25.89,25.89,0,0,0,3.63-1.55c.38-.27.77-.54,1.15-.84.78-.62,1.55-1.26,2.34-1.85v0a15.6,15.6,0,0,0,2.44-3c.15-.23.27-.45.39-.68h0c.15-.29.3-.61.46-1a16,16,0,0,0,.76-2.14c0-.06,0-.12,0-.18a24,24,0,0,1,3.22-5.65c2.56-3,5.32-6,5.95-9.56,0,0,0,0,0,0,.09-.26.2-.53.29-.79A32.08,32.08,0,0,0,418.49,89.65Z" fill="#f19967"/><path d="M412.48,151.26a29.25,29.25,0,0,0-7-4.61c-2.5-1.13-5.1-1.41-7.77-1.89a36.06,36.06,0,0,1-8.72-2.53,1.83,1.83,0,0,0-.26.16c-.4-.31-.79-.61-1.2-.9a17.89,17.89,0,0,1-1.7-1.07,10.57,10.57,0,0,0-2.71-1.07,1.5,1.5,0,0,0-1.58.93c-2.32-.36-4.59.89-6.82,1.75-.95.37-1.9.75-2.85,1.15a110.55,110.55,0,0,0-18.34,5.32l-2.58.58c-3.61.8-7.2,1.69-10.78,2.6a.7.7,0,0,0-.61-.15c-1.84.37-3.66.68-5.46,1.19-1.28.36-2.46,3.39-1,4.16,3.66,1.89,7.63,2.92,11.12,5.17a37.61,37.61,0,0,1,8.38,7.54,65.65,65.65,0,0,1,6.33,9.18c2.12,3.63,4,7.6,3.47,11.91-.1.84.3,2.1,1.29,2.13s1.65-1.24,1.88-2.09a.84.84,0,0,0,.06-.14,46.4,46.4,0,0,1,4.4-6.23c3.23-3.83,7.07-7.9,11.38-10.52a10.93,10.93,0,0,1,2.12-1c.34-.27.65-.56,1-.82.43.09.84.22,1.27.32a9.65,9.65,0,0,1,2.07,0,23,23,0,0,1,6.88,2.47c5.15,2.66,9.83,6.29,14.44,9.78,1.73,1.3,3.53,2.51,5.24,3.83q.36.27.72.57a1.2,1.2,0,0,0,0-.46,27,27,0,0,1-.08-12.22c.05-.14.11-.29.17-.43.78-2,1.58-4,2.19-6a23.62,23.62,0,0,1,4.54-6.07,2.06,2.06,0,0,0,.45-.84l.15-.22a3.15,3.15,0,0,0,.29-1C419.43,158.32,416.24,154.51,412.48,151.26Z" fill="#f19967"/><path d="M590.2,271.9a3.81,3.81,0,0,0-.38-.72,19.67,19.67,0,0,0-3.54-2.15l-1.52-.76,0,0a23.27,23.27,0,0,1-2.63-.9,48.84,48.84,0,0,1-6.16-3c-2-1.14-3.94-2.15-6-3.14a26.13,26.13,0,0,0-5-2,5.77,5.77,0,0,0-.72,0c-2.75.21-5.11,2-7.76,2.58A14.61,14.61,0,0,1,555,262a6.54,6.54,0,0,1-3.81.44,8.46,8.46,0,0,1-1.55-.49l-.4,0-.33-.31c-2.74-1.42-5-4.07-7.11-6.11q-5.79-5.55-11.89-10.78a125.25,125.25,0,0,1-10.24-9.44c-1.9-1.62-3.79-3.25-5.63-4.94-1.24-1.14-2.44-2.32-3.63-3.51a.75.75,0,0,1-.28-.17c-2.67-2.92-5.88-5.34-8.78-8a116.68,116.68,0,0,0-8.86-7.77c-1-.72-2-1.4-2.95-2.08a1.55,1.55,0,0,0-.21,0c-.38-.33-.78-.63-1.16-1a61.27,61.27,0,0,0-14.16-7c-1.26-.43-2.56-.83-3.86-1.21-2.2-.35-4.41-.65-6.62-.85s-4.45-.35-6.29-1.5-3.06-3.12-4.19-4.9c-.18-.29-.38-.55-.56-.83-.78-1-1.53-2-2.29-2.9s-1.49-1.84-2.24-2.75c-3-3.29-5.87-6.64-9-9.77-1.23-1.22-2.53-2.36-3.84-3.49-1.92-1.65-3.86-3.27-5.82-4.9a4.31,4.31,0,0,0-.51,1.15,1.85,1.85,0,0,0-1.37,1.24c-.66,1.88-1.24,3.77-1.77,5.67a42.36,42.36,0,0,0-2.49,8.41c-.39,2.15-1.24,4.84-.78,7s2.48,3.26,4.09,4.43C433.7,200.8,442,204.5,449,209.93a.67.67,0,0,0,.64.14c1.73,1.28,3.4,2.62,5.24,3.74q3.09,1.86,6.2,3.69c2.76,1.64,5.52,3.26,8.29,4.89,2.31,1.93,4.66,3.81,7.08,5.61a161.89,161.89,0,0,0,15.25,9.86c5.21,3,10.57,5.75,16,8.38l.82.52c2,1.27,4.12,2.39,6.21,3.52,4.32,2.32,8.59,4.72,12.83,7.16s8.28,4.86,12.38,7.34q3.06,1.86,6.22,3.54c1,.51,2.05,1.25,3.19,1.88a1,1,0,0,0,1,.82,12.47,12.47,0,0,0,.8,5.48c.14.35.48.63.85.39,4.59-2.88,8.09-6.93,11.4-11.13.48-.34.95-.71,1.4-1.09h0l.32-.24a2.12,2.12,0,0,0,.55-1c1.62.66,2.87,2.16,4.24,3.33a11.25,11.25,0,0,0,2.37,1.49,3.3,3.3,0,0,0-.13,2.23c-.3-.27-.58-.55-.87-.83,0,0,0-.05,0-.07a2.66,2.66,0,0,0-2.33-2c-1.92-.28-2.49,2.59-1.82,4.08a3.12,3.12,0,0,0-.15.43.54.54,0,0,0,0-.11s-.27-.55-.1-.2c-.21-.42-.43-.85-.93-1a1.44,1.44,0,0,0-1.26.47,3.53,3.53,0,0,0-.8,3.46h0l-.06-.07c-.71-.9-1.78-.48-2.32.39s-1,2.54-.22,3.48l5.6,7.08c.87,1.1,2,2.85,3.65,2.22a5.34,5.34,0,0,0,1.79-1.42,8.35,8.35,0,0,0,.91-1.09,3.18,3.18,0,0,0,2.4.39,3.27,3.27,0,0,0,1.34-.8,13.65,13.65,0,0,0,1-1.83l.13-.23a4.32,4.32,0,0,0,.13-1.67,2.45,2.45,0,0,0-.08-.29,4.6,4.6,0,0,0,1.29.23,4.41,4.41,0,0,0,3.65-1.9,5.42,5.42,0,0,0,.94-2.74,4.67,4.67,0,0,0,1,.18c.07,0,.95,0,1,0,1-.43,2.37-.54,3.27-1.25A3.22,3.22,0,0,0,590.2,271.9Z" fill="#f19967"/><path d="M368.4,245.78l-.67-.23a1,1,0,0,0-1.46-.51c-2.19-.73-4.38-1.47-6.54-2.28a46,46,0,0,1-10.87-5.46,18.94,18.94,0,0,0-3.25.66,65.4,65.4,0,0,1-8.65,1.68,118.37,118.37,0,0,1-17.86.68c-5.8-.14-11.62-.32-17.4-.81a69.62,69.62,0,0,1-18.94-3.94,1.11,1.11,0,0,0-1.31.46c-.48-.43-1-.85-1.43-1.31a.52.52,0,0,0-.67-.07,70.47,70.47,0,0,0,1.37,7.92c.37,1.24.72,2.5,1.12,3.73A56.68,56.68,0,0,0,288.72,261a61.33,61.33,0,0,0,10.72,11.86c.7.6,1.44,1.14,2.18,1.69a4.15,4.15,0,0,0,2.24,1.63c2.23.68,4.87-.34,7.05-.84,5-1.16,10.16-2,15-3.71,9.21-3.27,18.09-8,26.53-12.88q7.23-4.19,14.11-8.91c.16,0,.31.08.47.1C368.7,250.11,369.76,246.7,368.4,245.78Z" fill="#f19967"/><path d="M276.5,350.8c4.67,1.73,9.4,3.28,14.2,4.59,6.44,1.75,13,3.16,19.41,4.87a4.67,4.67,0,0,0,.8-.26c3.16-1.51,5.3-5.17,6.59-8.45.53-.61,1.06-1.22,1.61-1.82s1-1,1.47-1.44a25.71,25.71,0,0,0,4.5-1.46,22,22,0,0,0,9.55-2.81,1.18,1.18,0,0,0-.34-.43,70.09,70.09,0,0,1-12.12-9.53c-.68-.68-1.34-1.39-2-2.11-1.88-2.51-3.77-5-5.59-7.56-4.07-5.72-7.93-11.58-11.68-17.5-4-10.77-7.48-21.72-10.47-32.82a.8.8,0,0,0-.69-.62,9.08,9.08,0,0,0-2.81-5.45,14.4,14.4,0,0,0-7.61-3.7c-6.25-1.3-12.64-1.9-18.91-3.18a201.26,201.26,0,0,1-36.7-11.31c-5.67-2.35-11.27-5-16.73-7.79-2.11-.54-4.13-.83-6.23.27a22,22,0,0,0-5,4c-.28.27-.54.55-.8.83-.82,1-1.62,2-2.37,3a16.58,16.58,0,0,0-2.57,6.31,17.9,17.9,0,0,0-.23,3.1,33.37,33.37,0,0,0,4,11.39c.12.22.25.43.37.64,5.19,15,14.29,28.59,24.33,40.82,2.6,3.17,5.28,6.26,8.11,9.18a1.24,1.24,0,0,0,.32.53,100.62,100.62,0,0,0,7.68,6.91l.48.35a68.61,68.61,0,0,0,6.8,4.8c1,.64,2.11,1.26,3.19,1.86,5,3,10.16,5.74,15.41,8.29C267.07,346.57,271.77,348.72,276.5,350.8Z" fill="#f19967"/><path d="M420.12,409.79l-.37-.21-5.46-3.05-11.47-6.42c-6.41-3.59-12.9-7.05-19-11.11-5.91-3.91-11.58-8.17-17.21-12.47-1.38-1-2.77-2-4.16-3.08a41.77,41.77,0,0,1-4.67-3.07,2.3,2.3,0,0,0-1.3,0l-.06,0h0c-.06,0-.08.06-.13.08a1.79,1.79,0,0,0-.34.22,1.48,1.48,0,0,0-.24.26,2.07,2.07,0,0,0-.19.32c0,.08-.09.14-.12.21v0a13.11,13.11,0,0,0-.41,1.43l-.15.51a.62.62,0,0,1,0,.1c-.09.26-.19.52-.29.78a3.61,3.61,0,0,0-.9,1.75,4.5,4.5,0,0,1-.31.45c-1.05-.14-1.82,2-1.39,3.26a54.13,54.13,0,0,1,8.6,7.59c3.09,3.43,6.37,7.62,7.79,12.15,1.83,3,3.55,6.08,5.5,9a20.36,20.36,0,0,0,8,7.36c.72.25,1.44.47,2.16.65,5.35,1.37,11.14,1.35,16.62,1.15,2.94-.11,5.87-.32,8.8-.58a26.45,26.45,0,0,0,6.48-1.19,11.63,11.63,0,0,0,4.37-2.72,4.67,4.67,0,0,0,.32-1,7.45,7.45,0,0,0,0-1.49A3.93,3.93,0,0,0,420.12,409.79Z" fill="#f19967"/><path d="M356.35,370.4h0Z" fill="#f19967"/><path d="M355.94,370.61l0,0,.45-.25A.57.57,0,0,0,355.94,370.61Z" fill="#f19967"/><path d="M630.42,563.37c1.91,0,2.87-1.34,3.49-3a.89.89,0,0,0,.08-.17c.06-.19.11-.38.17-.57.16-.53.31-1.07.42-1.61,0-.18.08-.36.11-.55a26,26,0,0,0,.38-4.64c0-3.92-.08-7.84-.2-11.75-.06-1.87-.12-3.75-.19-5.62,0-1.53,0-3.16-1.1-4.36a13.12,13.12,0,0,0-4.32-2.57c-.23-.1-.46-.15-.69-.24a7.74,7.74,0,0,0-.88-.62,16.45,16.45,0,0,0-1.7-.79c-1.08-.47-2.17-.91-3.26-1.37q-3.39-1.42-6.75-2.92c-1.53-.68-3-1.44-4.55-2.14a117.19,117.19,0,0,1-13.62-5.91c-3.35-1.73-6.49-3.75-9.68-5.75s-6.83-3.89-10.15-6c-6.38-4-11.68-9.49-16.66-15.11a149.67,149.67,0,0,1-14.26-18.61c-2.27-3.54-4.68-7-7-10.51-15.33-21.37-30.42-43.51-51.45-59.52-1.91-1.45-3.88-2.83-5.88-4.17-.34-.34-.66-.69-1-1-.7-.64-1.43-1.27-2.16-1.9-3.88-2.72-8.36-5.26-12.88-6.29-3-.7-8-1-9.81-3.93-.65-1.06-.6-2.33-.89-3.51a27.54,27.54,0,0,0-1.48-3.81,42.56,42.56,0,0,0-2.73-5.23,228.12,228.12,0,0,1-24.07,1.7,94.71,94.71,0,0,1-12.59-.8c-2.09-.28-4.18-.64-6.24-1.11s-4.19-.78-6.2-1.43c-.88-.29-1.56.64-1.81,1.71,2.94,3.21,5.84,6.45,9,9.43,7.94,7.49,15.13,15.65,22.87,23.34,2.46,2.44,5,4.76,7.66,7,1.29,1,2.59,2.07,3.9,3.07.88.67,1.78,1.31,2.67,2,3,2.94,6,5.8,9.2,8.51,6,5.15,12.35,10,18.73,14.7,13,9.62,26.16,19,39.13,28.69,2.8,2.09,5.55,4.24,8.33,6.35,2.59,2.32,5.16,4.64,7.78,6.91,4,3.45,8,6.85,12.06,10.16A78.08,78.08,0,0,0,552,496.8l8.39,6.81q15.81,12.82,31.49,25.82c4.75,4.19,9.44,8.44,14.14,12.69a65.49,65.49,0,0,0,7.72,7q7.51,6.9,14.91,13.93A6.27,6.27,0,0,0,630.42,563.37Z" fill="#f19967"/><path d="M418.29,91.24c.09-.53.16-1.06.2-1.59-6.47-1.08-12.2-4.07-18-7.52a110.18,110.18,0,0,0-10-5.51c-4-1.76-8.68-3.39-13-2.54-4.84,1-8.6,4.83-11.93,8.18-.63.63-.4,2.73.62,1.79,3.42-3.14,7.26-6.41,12.09-6.81s9.9,2.17,14,4.33c7.78,4.07,15.78,9.72,24.81,10.25A1.43,1.43,0,0,0,418.29,91.24Z" fill="#d57940"/><path d="M415,101.17a35.84,35.84,0,0,0-6.84-2.5,24.52,24.52,0,0,0-10.59-.83c-2.36.91-3.71,3.49-4.24,5.84a9.6,9.6,0,0,0-.1,3.85,8.6,8.6,0,0,0,1.07,3.75c.31.45.64.11.82-.33a11.52,11.52,0,0,1-.47-1.28,6.77,6.77,0,0,1,.46-5.92,5.51,5.51,0,0,1,1-1.07,2.72,2.72,0,0,1,.49-.13c.45-.06.89,0,1.34,0a23.58,23.58,0,0,1,2.78-.28,15.27,15.27,0,0,1,5.9,1,6.77,6.77,0,0,1,2.1,1.21c.62.54.78,1.39,1.36,1.92,1,.89,2.37-.82,2.88-2a17,17,0,0,0,1.21-1.71A15.16,15.16,0,0,0,415,101.17Z" fill="#d57940"/><path d="M363.36,187.8c.3,1.54.58,3.1.94,4.63a.76.76,0,0,0,.18.29,45.45,45.45,0,0,1,5.6-8.37c3.23-3.83,7.07-7.9,11.38-10.52a9.33,9.33,0,0,1,6.46-1.44,23,23,0,0,1,6.88,2.47c5.15,2.66,9.83,6.29,14.44,9.78,1.73,1.3,3.53,2.51,5.24,3.83h0a1.11,1.11,0,0,0,.06-.44,9.06,9.06,0,0,1-.22-2.59,25.41,25.41,0,0,1,.45-2.61c.18-.86.38-1.72.6-2.57.12-.46.7-2-.16-2.06h0a1.74,1.74,0,0,0-.47-.87,32.45,32.45,0,0,0-4.34-3.18c-1.42-1-2.81-2-4.25-3a27.31,27.31,0,0,0-4.19-2.34,18.67,18.67,0,0,0-2.71-.89l-.21-.11a25.3,25.3,0,0,0-12.09-2.6,25.86,25.86,0,0,0-12,3.56c-3.58,2.1-7.27,5.1-9.18,8.86-.94,1.85-.88,4.11-2,5.84a4.26,4.26,0,0,0-1,3.29A2,2,0,0,0,363.36,187.8Z" fill="#d57940"/><path d="M555.69,271.85a9.73,9.73,0,0,0-4.27-2.94,47.55,47.55,0,0,0-5.92-4.53c-2-1.49-4.12-2.93-6.25-4.3-4.23-2.74-8.46-5.46-12.67-8.23-8.42-5.54-16.79-11.12-25.29-16.54-17-10.82-33.76-21.92-50.76-32.68-9-5.72-18.14-11.42-26.66-17.93a.75.75,0,0,0-1.1.17c-.26,0-.54.18-.77.72a7.54,7.54,0,0,0-.12,5.45,2.8,2.8,0,0,0,.54,2.85,11.73,11.73,0,0,0,4.27,2.48h0c2.85,1.69,5.78,3.25,8.7,4.82,1.89,1.19,3.77,2.41,5.63,3.64q13.26,8.81,26.56,17.53c17.69,11.58,35.43,23,53.51,34,9.49,5.77,19.09,11.32,28.73,16.82a10.22,10.22,0,0,0,.2,1.9c.1.66.2,1.33.28,2a.74.74,0,0,0,.47.69c.32.07.55-.18.72-.4h0l.25-.1c.27-.22.32-.25.15-.1,0,0,.16-.1.18-.11l.33-.23.1-.08a3.48,3.48,0,0,0,.67-.53l.44-.37h0a2.07,2.07,0,0,1,.24-.17A11.9,11.9,0,0,1,555,275a2.25,2.25,0,0,0,.94-1.45A2.13,2.13,0,0,0,555.69,271.85Z" fill="#d57940"/><path d="M573.71,282.69c-2.22-1-3.94-2.75-5.75-4.34L565.29,276a3.89,3.89,0,0,0-3.55-1.25,1.42,1.42,0,0,0-.86,1.33c0,.36.17,1.22.73,1,1.26-.41,2.36.52,3.25,1.3a31.64,31.64,0,0,1,2.46,2.71,17.07,17.07,0,0,0,5.73,4.43c.62.27,1.14-.79,1.24-1.22A1.35,1.35,0,0,0,573.71,282.69Z" fill="#d57940"/><path d="M576.62,282.32a14.83,14.83,0,0,0,1.28,1c.82-.87.22-2.41.29-2.39.46.12.84.55,1.58.23,0-.06-1.35-.93-1.95-1.37l-1.9-1.43c-1.23-.95-2.41-1.95-3.6-2.94s-2.12-1.86-3.21-2.77a8.34,8.34,0,0,0-3.57-1.89c-.94-.19-1.44,1.95-.51,2.17,2.71.66,4.52,3.29,6.47,5.08q1.63,1.49,3.34,2.9C575.43,281.38,576,281.85,576.62,282.32Z" fill="#d57940"/><path d="M590.2,271.9a3.81,3.81,0,0,0-.38-.72,19.67,19.67,0,0,0-3.54-2.15l-.69-.35c-.66-.13-1.33-.25-2-.33s-1.54-.09-2.3-.2c-.36,0-.72,0-1.08,0a7.13,7.13,0,0,0-.9.11,2.48,2.48,0,0,0,.11-.9,1.13,1.13,0,0,0-.42-.84,6.73,6.73,0,0,0-.85-.74c-.08-.05-.14.12-.11.18a2.42,2.42,0,0,1,.38,1.09,1.78,1.78,0,0,1-.15.76,2.16,2.16,0,0,1-1.35.58c-1.48.16-2.9-.7-4.12-1.42a74.3,74.3,0,0,0-7.4-4.13c-.33-.15-.58.73-.28.89a69.55,69.55,0,0,1,6.1,4.14c-.56,0-1.11,0-1.65-.08-1.09-.07-1.65,2.38-.58,2.5a30.3,30.3,0,0,1,4.35.69,8,8,0,0,1,3.33,2.34c1.09,1.08,2.19,2.15,3.33,3.18,1,.88,1.92,2.16,3.2,2.59,0,0,.2-.09.23-.14.41-.55.39-.25.64-1.17,0-.11.35-1.15.31-1.24-.7-1.52-1.76-1.91-3-3s-2.42-2.12-3.65-3.14l-.12-.09a2.55,2.55,0,0,0,.79-.55c0,.08.06.18.13.24,1.64,1.31,4,1.4,5.92,1.88.29.08.57.18.86.27s.72.46,1.06.72a8.28,8.28,0,0,1,1.23,1.07A1.57,1.57,0,0,1,588,275c-.08.35,0,.85.44.85a1.19,1.19,0,0,0,.84-.41s0,0,0,0l.07,0A3.22,3.22,0,0,0,590.2,271.9Z" fill="#d57940"/><path d="M312.16,257.8a0,0,0,0,0,0,0C312.08,257.64,312.12,257.71,312.16,257.8Z" fill="#d57940"/><path d="M312.35,258.62l.06.16c0,.27,0-.18,0-.32a2.08,2.08,0,0,0-.22-.65c-.07-.16-.14-.3-.22-.45l-.21-.39a4.87,4.87,0,0,0-.23-.46l-.12-.22v0c-.1-.19-.19-.39-.3-.58l-.17-.31-.08-.18c-.24-.54-.44-1.08-.64-1.63-.1-.27-.23-.53-.35-.79l-.18-.39s0,0,0,0a1.14,1.14,0,0,0-.44-.87l0,0a.88.88,0,0,0-1.12.19c-1,.9-.73,2.43-.54,3.6a10.23,10.23,0,0,0,.69,2.37,12,12,0,0,0,.59,1.19,4.42,4.42,0,0,0,.78,1,3.06,3.06,0,0,0,1,.61,1.6,1.6,0,0,0,.37.12.92.92,0,0,0,.63-.08c.1-.05.46-.28.24-.15l-.21,0C312.31,260.26,312.56,259.28,312.35,258.62Z" fill="#d57940"/><polygon points="312.16 257.8 312.16 257.81 312.16 257.81 312.16 257.8" fill="#d57940"/><path d="M335.33,343.68a1.42,1.42,0,0,0-1-1.17c-3-.81-5.23-3.21-7.4-5.28a89.88,89.88,0,0,1-6.63-7,95.09,95.09,0,0,1-10.89-15.81c-.49-.89-1.45-.5-2,.07a2.92,2.92,0,0,0-.4-.29,34.15,34.15,0,0,0-4.18-1.24,37.68,37.68,0,0,1-4.75-2,107.22,107.22,0,0,1-16.5-10.48c-11-8.16-21.18-17.28-32.14-25.44-3.14-2.33-6.31-4.63-9.41-7-1.54-1.2-3.1-2.37-4.7-3.51a20.82,20.82,0,0,0-4.79-3c-.29-.1-.5.08-.64.36a1.52,1.52,0,0,0-.36,2c7,6.44,13.94,13,20.89,19.53s14,12.8,21.06,19.12,14.13,12.54,21.21,18.78c6.59,5.8,13.09,11.74,19.92,17.26a122.47,122.47,0,0,0,11.3,8.18C328,347.09,331.74,345.52,335.33,343.68Z" fill="#d57940"/><path d="M409.54,414.36c.55.45,1.11.89,1.67,1.33a1.26,1.26,0,0,0,.45,1c.08.06.19.09.28.15a21,21,0,0,0,3.88-.89,11.67,11.67,0,0,0,4.4-2.74,3.78,3.78,0,0,0,.32-2.14c0,.08-.05.13-.09.22a.28.28,0,0,0-.05.08l-.17.25c-.11.18-.22.36-.34.53l-.42.61h0l0,0a3.83,3.83,0,0,1-.28.29l-.24.23-.11.09c-.18.13-.37.25-.57.37a3.82,3.82,0,0,1-1.2.48,5.38,5.38,0,0,1-1.41.17,5.29,5.29,0,0,1-2.7-.75.78.78,0,0,0-.53-.13c-.61-.54-1.21-1.08-1.84-1.6-1.75-1.44-3.54-2.81-5.37-4.13-.93-.67-1.66,1.58-.92,2.19Q406.9,412.2,409.54,414.36Z" fill="#d57940"/><path d="M357.39,370.1c-.13-.1-.25-.21-.37-.32a1.44,1.44,0,0,0-.31-.19.65.65,0,0,0-.54-.14,1.48,1.48,0,0,0-.73.5,2.62,2.62,0,0,0-.48,2.15c0,.57.09,1.13.15,1.71v.1c0,.11,0,.22,0,.33a.29.29,0,0,0,0,.09l-.09.21-.21.32-.06.06-.33.35-.14.14c-.25.13-.47.3-.73.42a2.29,2.29,0,0,0-.92,1.14,3.27,3.27,0,0,0-.25,1.69,1.67,1.67,0,0,0,.59,1.18,1.09,1.09,0,0,0,1.09,0,6.53,6.53,0,0,0,3.67-3.94,8.26,8.26,0,0,0,.47-3.75,4.44,4.44,0,0,0-.54-1.78C357.56,370.29,357.47,370.2,357.39,370.1Z" fill="#d57940"/><path d="M547.06,469.12c-3.31-5.18-6.95-10.17-10.14-15.43l-1.14-1.52a39.28,39.28,0,0,1-2.9-3.86c-3.3-4.38-6.62-8.74-9.93-13.12A232.16,232.16,0,0,0,505,414.62c-4.63-4.84-9.41-9.6-14.43-14.07-3-2.44-6.05-4.85-9.15-7.18-4.27-3.21-9.49-6.44-14.76-7.65-3-.7-8-1-9.81-3.93-.65-1.06-.6-2.33-.89-3.51a27.54,27.54,0,0,0-1.48-3.81,44.39,44.39,0,0,0-2.79-5.34,5.49,5.49,0,0,0-1.45-.27c-5.32-.16-10.68.1-16,0-5.5-.08-11-.2-16.48-.61a166,166,0,0,1-16.52-1.73c-.77-.13-1.33.67-1.52,1.54l3.81,4.15c8,3.35,16.73,3.28,25.3,4.07a58.91,58.91,0,0,1,13.8,2.73,45.52,45.52,0,0,1,4.23,1.7c3.26,1.19,6.49,2.46,9.7,3.78,1.86.76,3.77,1.52,5.63,2.37a77.46,77.46,0,0,1,18.49,10A189.53,189.53,0,0,1,501.49,415c6.57,6.55,12.61,13.5,18.71,20.48s11.82,14,17.27,21.33c6.11,8.24,11.75,16.91,18.44,24.69a.11.11,0,0,0,.16,0A136.73,136.73,0,0,1,547.06,469.12Z" fill="#d57940"/><path d="M457.49,404.73A3.2,3.2,0,0,0,456,404c-.62-.21-1.24-.37-1.86-.56a28.66,28.66,0,0,1-3.57-1.28,19.69,19.69,0,0,1-6-4.23c-.37-.39-.92.21-1.07.5a1.63,1.63,0,0,0,0,1.6,16.19,16.19,0,0,0,6.16,5.15,13.71,13.71,0,0,0,3.75,1.21c1.24.19,3,.3,4-.52A.94.94,0,0,0,457.49,404.73Z" fill="#d57940"/><path d="M464.08,401.6c0-.15,0-.18,0-.1,0-.16,0-.32,0-.48a14.93,14.93,0,0,0-.45-2.19,29.82,29.82,0,0,0-1.35-3.78.94.94,0,0,0-.59-.62.9.9,0,0,0-.81.3,2.27,2.27,0,0,0-.51,2.21c.5,1.22.91,2.46,1.35,3.7.2.57.4,1.16.65,1.71.13.31.22.47.35.8a1.87,1.87,0,0,0,.58.83c.39.29.73-.32.8-.61a4.08,4.08,0,0,0,.08-1.35Z" fill="#d57940"/><path d="M364.48,242.46c-2.83-1.61-5.54-3.41-8.24-5.22a26.59,26.59,0,0,1-3.62-2.78c-1.24.21-2.49.41-3.74.57-11.05,1.4-22.14,2.78-33.26,3.48-5.35.33-10.85,1-16.22.68-1-.06-2-.22-3-.37l-.13,0-2.22-.22c-.95-.07-1.89-.18-2.84-.31a54.06,54.06,0,0,1-11.76-2.45c.29,2.25.75,4.48,1.24,6.69l.48,1.64a1.86,1.86,0,0,0,.19.11c.2.71.41,1.42.58,2.14a194.57,194.57,0,0,0,36.3,2.93c6.16-.09,12.25-.68,18.39-1.05a40,40,0,0,1,9.28.37c2.89.5,5.69,1.39,8.52,2.16,5.73,1.56,11.94,2.49,17.41-.43a3.29,3.29,0,0,0,1-4.18A53.57,53.57,0,0,1,364.48,242.46Z" fill="#d57940"/><path d="M386.32,127.75a.86.86,0,0,0-.15-.32,19.49,19.49,0,0,1-2.95.47,20.35,20.35,0,0,1-3.74-.13,8,8,0,0,1-.9-.18c-.25-.71-.55-1.42-.85-2.08a26.59,26.59,0,0,0-2.59-4.51,31.75,31.75,0,0,0-5.88-6.25c-.11-.11-.2-.22-.31-.32a10.27,10.27,0,0,0-1.29-1,.63.63,0,0,1-.12-.11s-.05,0-.08,0a14.47,14.47,0,0,0-3.59-1.54H364a14.41,14.41,0,0,1-3.27-4.69,19.55,19.55,0,0,1-1.1-7.12,13.13,13.13,0,0,1,.66-5.26c0-.31.05-.62.09-.92a19,19,0,0,0,4.15-11.42,15.48,15.48,0,0,0-.44-3.77c-.19-.71-.57-1.43-1.37-1.5a2.22,2.22,0,0,0-1.49.6l-.16.15a14.21,14.21,0,0,0-2.21,5.31,28.92,28.92,0,0,0-1,6.32,26.64,26.64,0,0,0,1,6.19,11.58,11.58,0,0,1-.92,7.24h0a.3.3,0,0,1,0,.08c-.53,1.22-1.17,2.42-1.85,3.66s-1.13,2.41-2.35,3c-.9.42-.77.66-.53.7,2.76.56,5.65.91,8.36,1.65a16.9,16.9,0,0,1,6.22,2.9,21.29,21.29,0,0,1,4.86,7,40.21,40.21,0,0,1,1.88,4.37,12.51,12.51,0,0,1,.43,2.16c-.43.47-1.41,1.15-1.88.42a.37.37,0,0,0-.24-.16,10.54,10.54,0,0,1-1.52-2.15,44.85,44.85,0,0,1-2.08-4.89c-.53-1.31-1.5-2.49-2-3.8,0,0,0,0,0,0a1.87,1.87,0,0,0-.43,1.86c1.17,3.06,2.48,6,3.85,9,.2.43.41.87.63,1.31a1.6,1.6,0,0,1-.35.14,2.57,2.57,0,0,1-1.29-.07,6.28,6.28,0,0,1-2.61-1.86c-.29-.29-.53-.64-.8-1-.45-.48-.92-.94-1.35-1.44a21.38,21.38,0,0,1-1.22-1.77,5.09,5.09,0,0,1-.3-.5,6.29,6.29,0,0,0,0,1.3,11.46,11.46,0,0,0,.39,1.83c.07.21.15.43.22.65.18.37.34.76.53,1.13.29.57.63,1.1,1,1.64a1.27,1.27,0,0,1-.34.05A3.58,3.58,0,0,1,364,130c-.18-.09-.36-.18-.53-.28-2-1.55-4.66-2.53-1.89-6.37,4-5.48,3.31-7.87,3.31-7.87s-2.43,7.33-10.05,6.87-1.2-3.66-28.45-10.35S252.22,93.08,241.1,63.56c0,0-5.35-8.93-2.43-14.66,0,0-6,1.12-.49,12.4s5.37,18.4,25.7,30.52,37.52,21.93,42.87,35.3c0,0,3.61-6.73-7.06-19,0,0,21.25,5.41,32.77,8s22,15.74,26.18,18.81,3.16-1.09,3.16-1.09a5.45,5.45,0,0,0,1.62.62,4,4,0,0,0,1,.29,2.18,2.18,0,0,0,1.87-.69,2.71,2.71,0,0,0,.66-1.18,5.09,5.09,0,0,0,2.35,2.16,1.63,1.63,0,0,0,1.4-.15h.15a2.91,2.91,0,0,0,1.84-1.37,3.85,3.85,0,0,0,.37-.86,2.21,2.21,0,0,0,1.83.43,2.25,2.25,0,0,0,1.37-1.23,2.84,2.84,0,0,0,.16.81,2.51,2.51,0,0,0,2.06,1.33,29.09,29.09,0,0,0,5.41.66,1.89,1.89,0,0,0,1.6-.5l.05-.07a14.9,14.9,0,0,1-.22-2.28A6.92,6.92,0,0,1,386.32,127.75Z" fill="#d57940"/><path d="M387.08,113.23a2.08,2.08,0,0,0-.7-.88,4.5,4.5,0,0,0-.67-.39,14.59,14.59,0,0,0-1.69-.57c-.46-.16-1-.3-1.12-.85a1.08,1.08,0,0,1,.06-.73,4.18,4.18,0,0,1,.51-.8.44.44,0,0,0,0-.43c-.06-.11-.18-.15-.27,0a4.22,4.22,0,0,0-1,1.81,2.23,2.23,0,0,0,.63,2,12.05,12.05,0,0,0,1.59,1.26c.26.19.54.35.8.53a9.19,9.19,0,0,0,.81.58C386.85,115.14,387.35,113.78,387.08,113.23Z" fill="#d57940"/><path d="M394.26,94c-2.85-1.59-4-4.68-6-7.12a13.09,13.09,0,0,0-3.22-3.08,11,11,0,0,0-2.5-1.11,10.94,10.94,0,0,1-2.68-.94c-.11-.07-.17.16-.12.23a7.27,7.27,0,0,0,2,1.85c.81.5,1.73.78,2.56,1.23a9.19,9.19,0,0,1,3.3,3.34c1.7,2.6,3.12,5.69,5.91,7.32C394.31,96.18,394.93,94.38,394.26,94Z" fill="#824c24"/><path d="M412.73,102.16a24.61,24.61,0,0,0-3.73-1.4c-.59-.17-1.17-.29-1.75-.4l-.64-.11a16.23,16.23,0,0,0-4.82,0c0,.13,0,.27.09.27a14.72,14.72,0,0,1,1.55.32c.52.08,1.06.1,1.59.16a25.16,25.16,0,0,1,3,.53,24.6,24.6,0,0,1,2.83,1c.5.19,1,.39,1.47.61s.92.56,1.43.39a.65.65,0,0,0,.39-.69C413.65,102.63,413.2,102.38,412.73,102.16Z" fill="#824c24"/><path d="M386.75,122.05h0l-.09,0-.13-.05-.26-.13a3,3,0,0,1-.55-.39,2.76,2.76,0,0,1-.72-1,1.44,1.44,0,0,0-.25-.67c-.35-.47-.94-.14-1.28-.53a4.18,4.18,0,0,0-1-1.11,4.63,4.63,0,0,0-1.61-.53,12.16,12.16,0,0,1-3.42-.79,8.31,8.31,0,0,1-2.48-1.84l.16-.19v0a.78.78,0,0,0,.16-.2.93.93,0,0,0,.06-.44.46.46,0,0,0-.15-.31.28.28,0,0,0-.29,0c-.2.13-.4.25-.59.39l-.5.4a1,1,0,0,0-.25.48.91.91,0,0,0,0,.54c0,.12.13.26.27.28a.4.4,0,0,0,.37-.13l.29-.29a8,8,0,0,0,1.62,1.61.39.39,0,0,0,.06.26c2,2.09,3.33,5.73,6.71,5.79a2.23,2.23,0,0,0,1.87-.65.73.73,0,0,0,.07-.75c-.22-.3-.6,0-.86.06a4.19,4.19,0,0,1-4-1.26,19.29,19.29,0,0,1-1.69-1.93l-.47-.54a7.75,7.75,0,0,0,1.6.46c1.09.17,2.47.16,3.23,1.1.26.33.41.8.86.91.23,0,.54-.09.72.1a1.13,1.13,0,0,1,.16.65c0,.2.15.36.35.31s.07-.07.1-.1a3.87,3.87,0,0,0,.56.72,3.14,3.14,0,0,0,.57.45,1.83,1.83,0,0,0,.24.13l-.06.09L386,123l-.09.12a1.55,1.55,0,0,0-.12.22,1.72,1.72,0,0,1-.07.21c-.14.29-.06.92.35.81l-.12,0c.41.09.69-.39.87-.7a2.17,2.17,0,0,0,.33-1.29C387.16,122.12,387,122,386.75,122.05Z" fill="#824c24"/><path d="M385.75,123.54v0h0C385.73,123.6,385.73,123.61,385.75,123.54Z" fill="#824c24"/><path d="M625.91,528.15s1.56,11.91,0,21.36Z" fill="#d57940"/><path d="M376.29,407.7a54.41,54.41,0,0,0,26.18-3.64Z" fill="#d57940"/><path d="M396.58,411.45l4.27,6.27Z" fill="#d57940"/><path d="M396.58,411.45a9.72,9.72,0,0,1,2.73,2.73,9.59,9.59,0,0,1,1.54,3.54,9.55,9.55,0,0,1-2.72-2.73A9.75,9.75,0,0,1,396.58,411.45Z" fill="#d57940"/><path d="M388.18,413.05l1.86,4.54Z" fill="#d57940"/><path d="M388.18,413.05a4.36,4.36,0,0,1,1.59,2,4.29,4.29,0,0,1,.27,2.54,4.26,4.26,0,0,1-1.59-2A4.45,4.45,0,0,1,388.18,413.05Z" fill="#d57940"/><path d="M388.15,97.61a11.62,11.62,0,0,0-.71-1.16,22.68,22.68,0,0,1-1.29-2.31A15.08,15.08,0,0,0,382.73,90c-.31-.29-.66-.55-1-.83a10.76,10.76,0,0,0-1-.89,1.26,1.26,0,0,0-.8-.21,4.74,4.74,0,0,0-.53-.73c-.42-.47-1.31.27-1.39.73s-.26.74-.32,1.13-.05.62-.06.93a7.4,7.4,0,0,0,0,1.56,4.52,4.52,0,0,0,.58,2.14c0,.07.1.12.14.19a4.84,4.84,0,0,0,3,3.11,1.92,1.92,0,0,0,2.1-1,19.87,19.87,0,0,1,1.76,1.42c.4.4.79.81,1.21,1.19a5.56,5.56,0,0,0,1.39.86c.34.17.8-.32.72-.65A5.73,5.73,0,0,0,388.15,97.61Z" fill="#fff"/><path d="M406,104.79a2.05,2.05,0,0,0-.73-.35,7.2,7.2,0,0,0-1.6-.24,21.71,21.71,0,0,0-3.22.24,1.25,1.25,0,0,0-.63.31s0,0,0,0c-.48-.22-1.37.72-.81,1l.32.18a.38.38,0,0,0,.22.23,2.47,2.47,0,0,0,.77.88c.32.3.64.61,1,.9a9.16,9.16,0,0,0,1.09.86,2.87,2.87,0,0,0,.53.32,1.94,1.94,0,0,0,.83.15c.43,0,1.07-.43,1-.93a1.31,1.31,0,0,0-.47-1,3,3,0,0,1-.34-.25c0,.06,0-.11,0,0s0-.21,0-.13,0-.05,0-.1l.09-.12s.23-.26.07-.09l.12-.12a2.33,2.33,0,0,0,1.14.12c.44-.1,1.11-.59,1.06-1.13A1,1,0,0,0,406,104.79Z" fill="#fff"/><path d="M388.55,97.71c-.28-.73-.59-1.45-.94-2.16A22.08,22.08,0,0,0,385,91.49a13.75,13.75,0,0,0-7-4.92c-.44-.12-.7.94-.24,1.06l.12,0s0,0,0,0c-1.09,2.84-1.05,6.13,1.15,8.45a10.68,10.68,0,0,0,3.8,2.42c.85.35,1.68.7,2.56,1a6.51,6.51,0,0,0,1.31.36c.52.06,1.06,0,1.59.12.16,0,.25-.3.12-.39l-.92-.61a2.12,2.12,0,0,0,.46-.63c0-.06,0-.12.05-.18l.08.17a5.59,5.59,0,0,0,.77,1.82c.17.18.34-.24.35-.35A5.89,5.89,0,0,0,388.55,97.71ZM382,92.88a3.93,3.93,0,0,0-1.54,3.33l-.48-.34a7,7,0,0,1-2-8,.21.21,0,0,0,0-.11,13.34,13.34,0,0,1,6.35,4.5c-.14,0-.29-.05-.43-.05A3.62,3.62,0,0,0,382,92.88Z" fill="#824c24"/><path d="M409.33,105.55a8,8,0,0,0-3.07-1.45,14.79,14.79,0,0,0-3.81-.3,11,11,0,0,0-4,.72c-.16.06-.19.47,0,.5a.29.29,0,0,0,0,.23,11.77,11.77,0,0,0,4.62,4.53,6,6,0,0,0,3.23.84,7.39,7.39,0,0,0,1.75-.25,4.36,4.36,0,0,0,.77-.26,1,1,0,0,0,.15-.1h0c.18-.13.31-.26.5-.42a.3.3,0,0,0,.07-.18l0,0s0,0,0,0l.2-.27-.17.16a1.18,1.18,0,0,0,.48-.69,3,3,0,0,0,.16-.73,1.48,1.48,0,0,0,.55.56c.18.1.26-.19.26-.32A3.91,3.91,0,0,0,409.33,105.55Zm-6.17,3.06a11.67,11.67,0,0,1-4.28-3.67,13.57,13.57,0,0,1,6.21-.2,3.22,3.22,0,0,0-1.07,1.37,4.24,4.24,0,0,0-.45,2.68C403.44,108.73,403.29,108.68,403.16,108.61Z" fill="#824c24"/><path d="M275.87,263.45s9.2-1.07,25.33,6.63S361.43,251.6,369,244c0,0,86.8,38.2,130.93,72.2s72.45,99.21,150.17,109.42c0,0-44.79,27.07-109.34-23.52s-128.37-13.53-189-46.56C290.83,322.41,296.92,268.17,275.87,263.45Z" fill="#e0eaf7"/><path d="M320.39,121.38s-32.3,6.52-40.43,20.8c-5.89,10.35-1.77,25.44,2.74,30.79l-3.4,24.29s10.34,16,60.08,18.79a62.42,62.42,0,0,0,26-24.68s-2.06-34.19-38.42-38.09c0,0-5.16-14.87,13.69-33.71,0,0-5.69-3.41-7.53-3.26C329.72,116.59,320.39,121.38,320.39,121.38Z" fill="#e0eaf7"/><path d="M297.64,166.08a18.21,18.21,0,0,1-2.33-8,26.4,26.4,0,0,1,.08-4.87,22.45,22.45,0,0,1,.42-2.83c-2,1.39-2.3,4.14-2.34,6.4a19.65,19.65,0,0,0,1.18,7.08,19.19,19.19,0,0,0,3.41,5.89c1.22,1.43,3.41,3.79,5.53,3.27a1,1,0,0,0,.62-.63A18.2,18.2,0,0,1,297.64,166.08Z" fill="#b9cbdb"/><path d="M290.81,169.28a24.63,24.63,0,0,1-3.79-8.36,19.6,19.6,0,0,1-.87-5.85,2.54,2.54,0,0,0-.82,2.18,25.62,25.62,0,0,0,1.62,7.63,35,35,0,0,0,3.18,6.79,12.74,12.74,0,0,0,4.89,4.8c1.8.86,4.24,1.29,6.06.25A21.41,21.41,0,0,1,290.81,169.28Z" fill="#b9cbdb"/><path d="M292.91,179.24a25.4,25.4,0,0,1-5.38-2.25,19.93,19.93,0,0,1-4.83-4l-.12.72c-.47,3.49-.86,6.55-1.35,9.79a33.68,33.68,0,0,0,12.27-2.29s0-.05.07-.06.07,0,.12,0a7.71,7.71,0,0,0,1.09-.6,3.42,3.42,0,0,0,.68-.58C294.6,179.75,293.75,179.51,292.91,179.24Z" fill="#b9cbdb"/><path d="M333.9,206.07a28.88,28.88,0,0,1-12-2.16,54.46,54.46,0,0,1-11.2-7.12,57.94,57.94,0,0,1-5.05-4.48c-1-1-2-2-2.89-3.05a1,1,0,0,0,0,1,99.5,99.5,0,0,0,8.49,8.32,45,45,0,0,0,8.65,6.33c6.59,3.49,15.08,3.62,22,.94.16-.06.29-.38.3-.66A35.3,35.3,0,0,1,333.9,206.07Z" fill="#b9cbdb"/><path d="M300.92,194.53a14,14,0,0,0,1.56,2.57A16.24,16.24,0,0,0,306.2,201a18.57,18.57,0,0,0,9.41,3s0-.05,0-.07a6.44,6.44,0,0,0-2-1.08c-.69-.32-1.39-.63-2.08-1a32.56,32.56,0,0,1-7.44-4.86,37.89,37.89,0,0,1-3.33-3l-.05,0C300.78,194.13,300.83,194.34,300.92,194.53Z" fill="#b9cbdb"/><path d="M361.15,187.24c-4.42,1.37-8.76,3.13-13.36,3.86a28.11,28.11,0,0,1-13.32-1c-8.43-2.84-14.89-10.4-14.63-19.58A19.45,19.45,0,0,1,326,156.85c.36-.33.32-1.82-.3-1.34a22.77,22.77,0,0,0-8,11.4,22.37,22.37,0,0,0,1.39,16c4.49,9.25,14.72,13.9,24.69,13.52a29.61,29.61,0,0,0,17.78-6.47C362.06,189.46,362.43,186.84,361.15,187.24Z" fill="#b9cbdb"/><path d="M345.11,212.64c.29-.28.59-.55.89-.79,1.12-.89,2.35-1.62,3.45-2.54a85.49,85.49,0,0,0,6.6-5.86,78.45,78.45,0,0,0,5.83-6.79c-.66.39-1.3.82-1.87,1.2-1.34.87-2.68,1.75-4,2.59q-3.83,2.38-7.7,4.72a36.47,36.47,0,0,1-8.39,4.22,53.57,53.57,0,0,1-8.14,1.63,64.69,64.69,0,0,1-17.36,0,59.92,59.92,0,0,1-8.05-1.78c-2.74-.8-5.7-1.45-8.34-2.52-.05,0-.1,0-.14.06l-.33-.12c-.37-.12-.54.71-.2.87,3.61,1.67,7.23,3.33,11,4.7A56.7,56.7,0,0,0,319.17,215a60.84,60.84,0,0,0,10.52.83c3.6,0,7.58-.13,10.93-1.6a25,25,0,0,0,2.55-.64C343.84,213.29,344.47,213,345.11,212.64Z" fill="#b9cbdb"/><path d="M335.33,334.63A34,34,0,0,0,353,316.23Z" fill="#b9cbdb"/><path d="M377.81,350s8.38-8.54,8.33-31.88Z" fill="#b9cbdb"/><path d="M274.78,263.14a43.56,43.56,0,0,1,30.54,10.73c14.05,12.37,17.52,11.69,30.7,3.78a242.37,242.37,0,0,0,21.41-14.29s-23.37,17-6.86,31.71,74.54,4.86,74.54,4.86-15.27,17.37-66.73,8.38S299.57,267,274.78,263.14Z" fill="#b9cbdb"/><path d="M274.78,263.14s10.29,6.37,27.45,43.06c18.85,40.31,48.61,55,88.71,63.24s51.05-.68,89.58,6.13c0,0-16.87-8.39-79.67-13.72s-88.45-36.48-99.32-63.65S287.06,263.48,274.78,263.14Z" fill="#b9cbdb"/><path d="M416,194.11s-.06-.07,0,0h0Z" fill="#5681a4"/><path d="M418.77,195.54a1.06,1.06,0,0,0-1.35-.37l-.11,0a6,6,0,0,1-.9-.62l-.43-.4,0,0s0,0,0,0h0l-.07-.09c-.07-.07-.13-.15-.2-.23a6.85,6.85,0,0,1-.62-1,.92.92,0,0,0-.24-.34h0a1.05,1.05,0,0,1,.05-.19c.08-.27,0-.76-.25-.88s-.5.09-.62.31c-.06,0-.11,0-.16,0a1.31,1.31,0,0,0-.4.8,2.61,2.61,0,0,0-.24.23c-1.21,1.61-2.92,2.29-4.61,3.28a45.34,45.34,0,0,1-5.35,2.57c-4.3,1.8-8.68,3.44-13.1,4.93a181.91,181.91,0,0,1-26.9,6.85c-17.45,3-36,3.58-53.34-.42a56.88,56.88,0,0,1-12.47-4.33l0,0A47.91,47.91,0,0,1,291.1,203c-4.78-2.42-9.07-5.91-11.12-10.58-.37,1.81-.5,3.71-.79,5.53-.71,4.48-1.19,9-1.51,13.55s-.24,9.25-.12,13.9a45.5,45.5,0,0,0,.32,6.71c.22,1.23.52,2.41.78,3.6a8.49,8.49,0,0,0,2.64,1.16c1.5.48,3,.92,4.55,1.27,11.94,2.75,24.37,3,36.55,2.08a273.87,273.87,0,0,0,36.92-5.66c11.54-2.51,23-6,33.44-11.67s19.67-13.68,25.79-23.9C419.12,198.06,419.5,196.52,418.77,195.54Z" fill="#5681a4"/><path d="M333.07,117.86a9.44,9.44,0,0,0-5.53-1.49,12.55,12.55,0,0,0-6.91,2.58,12.38,12.38,0,0,0-1.7,4.83,8.22,8.22,0,0,0,1.18,5.28,7.3,7.3,0,0,0,3.93,3.09,7.4,7.4,0,0,0,5-.32,8.83,8.83,0,0,0,4.25-3.73,9.72,9.72,0,0,0,1.06-1.68A7.74,7.74,0,0,0,334,119,6.24,6.24,0,0,0,333.07,117.86Z" fill="#5681a4"/><path d="M335.2,121.05A12.39,12.39,0,0,1,335,123a8.92,8.92,0,0,1-6.74,7.41,7.39,7.39,0,0,1-3.53.36,6.19,6.19,0,0,1-4.13-2.56,6.06,6.06,0,0,1-.91-1.7,11,11,0,0,1-.57-3.49,8.93,8.93,0,0,0,.36,6.45,7.1,7.1,0,0,0,5.54,4,9.92,9.92,0,0,0,7.49-2.06,9.69,9.69,0,0,0,3.48-7.35A6.94,6.94,0,0,0,335.2,121.05Z" fill="#3f627c"/><path d="M322.61,122.51a6.82,6.82,0,0,0,.43,2,4.12,4.12,0,0,0,2.27,2.29,4.3,4.3,0,0,0,1.8.47,2,2,0,0,0,.76-.14,5.16,5.16,0,0,0,2.24-3.36,3.78,3.78,0,0,0,0-1.64l0,.09a3.89,3.89,0,0,1-2.65,2.42,3.69,3.69,0,0,1-1.28-.06,2.3,2.3,0,0,1-1.14-.58s-.3-.21-.43-.32l-.38-.34a3.85,3.85,0,0,1-.79-.87,3.89,3.89,0,0,1-.49-1,.15.15,0,0,0,0-.07,1.51,1.51,0,0,0-.32.53C322.6,122.19,322.6,122.35,322.61,122.51Z" fill="#3f627c"/><path d="M308.3,359.8s9.57-7.7,10.11-16.77c0,0,32.94,21.18,43,29.79,0,0,2.58,7.57-3.89,11.55C357.48,384.37,327.2,365.58,308.3,359.8Z" fill="#fbc56f"/><path d="M372.44,262.56a8.69,8.69,0,0,0,2.15-3.66c.3-1.7-.86-3.11-1.87-4.32s-2.11-2.52-3.25-3.71c-2.05-2.13-4.69-4.44-7.88-4.14a8.77,8.77,0,0,0-3.19,1.09,17.52,17.52,0,0,0-2.33,2c-1.45,1.51-2.23,3.88-1.12,5.81a23.82,23.82,0,0,0,2.93,3.51c2.47,2.78,7.61,8.18,11.57,6.69A36.53,36.53,0,0,0,372.44,262.56Z" fill="#fbc56f"/><path d="M431.71,168.54a15.72,15.72,0,0,0-2.57-3.82,20.83,20.83,0,0,0-3.86-3.27,8.44,8.44,0,0,0-1.85-.93,5.75,5.75,0,0,0-.83-.24,18.2,18.2,0,0,0-1.81,2,35.41,35.41,0,0,0-6.3,12.17,47,47,0,0,0-1.8,8.37.8.8,0,0,1,0,.31c-.06.28-.09.56-.13.84a22.9,22.9,0,0,0-.07,2.74c0,.12,0,.24-.07.35,0,.68.08,1.36.15,2,.1.87.24,1.73.37,2.6a17.34,17.34,0,0,0,5.13,4.51,21.46,21.46,0,0,0,5.7,2.11l.12,0H424c.09,0,.25.13.34.09s.12,0,.18,0l.08,0c.08-.05.13,0,.21-.07h0a10.44,10.44,0,0,0,.29-2.15,44.89,44.89,0,0,0-.4-5.55,29.38,29.38,0,0,1,1-10.13C426.86,176.36,428.68,171.76,431.71,168.54Z" fill="#fbc56f"/><path d="M434.44,61.22s0-.14,0,0a5.54,5.54,0,0,0-.14-.55,3.22,3.22,0,0,0-.48-.87,5.25,5.25,0,0,0-1.32-1.21,5,5,0,0,0-1-.46,8.17,8.17,0,0,0,1.3-1.63c.23-.37.45-.75.67-1.12l.34-.59.15-.26s.27-.43.06-.18a2.5,2.5,0,0,0,.42-2.84,6.71,6.71,0,0,0-4.68-2.74,22,22,0,0,0,1.55-3.25c.29-.71.42-2.1-.54-2.4a10.88,10.88,0,0,0-5.58,0A13,13,0,0,0,420,45.77a1.56,1.56,0,0,0-.44.7c-.19-.18-.38-.38-.58-.55a4.37,4.37,0,0,0,1.4-1.2A19.93,19.93,0,0,0,422.7,40c.35-.83.49-2.51-.64-2.86a11.54,11.54,0,0,0-10.79,2.5s0,0,0-.06a8.52,8.52,0,0,0,.09-2.52,8.23,8.23,0,0,0-.22-1,1.93,1.93,0,0,0,0-.24l-.07-.14c-.06-.13-.12-.26-.19-.39a2.12,2.12,0,0,0-.11-.21l-.06-.09-.08-.11-.2-.3c-.08-.11-.15-.23-.22-.34s-.07-.16,0,0l-.11-.15c-.08-.11-.16-.23-.25-.34a3.62,3.62,0,0,0-.57-.54L409,32.9a.73.73,0,0,0-.26.2,14.18,14.18,0,0,0-3.14,6.48.13.13,0,0,0,0,.06l-1.22-.1a4.5,4.5,0,0,0,.45-.31c1.62-1.61,2-4.42,2.33-6.56a2,2,0,0,0-.05-.79l-.57.13a17.86,17.86,0,0,0-5.41,2.15,8.44,8.44,0,0,0-2.14,1.65,9.73,9.73,0,0,0-.7,1.1c-.1.09-.19.2-.28.29h0a3.5,3.5,0,0,0-.63,1.21c-.05.26-.51.37-.48.08l-.3.06a4.74,4.74,0,0,0,.15-.5,5.48,5.48,0,0,0-1.93-5.24c-.49-.36-1,.09-1.26.46a11.38,11.38,0,0,0-2.17,3.89,6,6,0,0,0-.14,2.57l-.61.14c0-.09,0-.19,0-.27a5.5,5.5,0,0,0-.71-2.11,10.57,10.57,0,0,0-2.74-2.76.7.7,0,0,0-.9.15,2,2,0,0,0-.51,1.24,6.41,6.41,0,0,0,1.34,4.53l-.06,0a13.49,13.49,0,0,0-2.42.81,2.22,2.22,0,0,0-.78-.74,10.19,10.19,0,0,0-1.29-.62,9.5,9.5,0,0,0-1.18-.37c-.19,0-.4-.1-.59-.12a4.39,4.39,0,0,0-.81,0c-.18,0-.4.24-.49.38a1.64,1.64,0,0,0-.23.64.94.94,0,0,0,.32.91s0,0,0,0c0-.16,0,.14,0,.15a1.66,1.66,0,0,0,.13.27c.08.16.17.32.26.47a8.11,8.11,0,0,0,.65.89,15.85,15.85,0,0,0-1.57,1,1.3,1.3,0,0,0-.33.41,29.26,29.26,0,0,1,6.94-1.35c1.07-.12,2.13-.26,3.18-.41l1-.15,3.22-.56c.05,0,.13,0,.2,0,1-.12,1.93-.18,2.89-.22l.44,0,.8,0a42.49,42.49,0,0,1,4.79,0,32.31,32.31,0,0,1,15,4.37A32.22,32.22,0,0,1,428.1,58.25a27.82,27.82,0,0,1,2.54,5.83A10.69,10.69,0,0,0,433.92,63a1.47,1.47,0,0,0,.6-1.45C434.5,61.45,434.47,61.34,434.44,61.22Z" fill="#fbc56f"/><path d="M603.94,290.73c4,.83,7.92,1.68,11.86,2.59a101.91,101.91,0,0,1,16.69,4.89,1.59,1.59,0,0,0,.08-.71,2.17,2.17,0,0,0,0-.26,43.23,43.23,0,0,1-3.75-3.16c-2.8-2.74-5.61-5.46-8.21-8.39s-4.17-6-6.38-9.23c-1.42-2.07-3.56-4.19-4.82-6.34a1.09,1.09,0,0,0-1,.3,2.68,2.68,0,0,0-.67,2.12c.07,1.79.08,3.59,0,5.39a29.89,29.89,0,0,1-.34,5.52c-.12.55.12.2-.15.53s-.82.32-1.09.42l-2.51.92a40.85,40.85,0,0,0-4.41,1.75c-1,0-1.81,3.89-1.81,3.89C599.38,291,602.12,290.34,603.94,290.73Z" fill="#fbc56f"/><path d="M374.55,257.07c-.1-.24-.3-.2-.44,0a6.4,6.4,0,0,0-.72,1.7,9,9,0,0,1-1,1.91c-.69,1.05-1.65,2.6-2.93,3-1.44.49-3.12-1-4.22-1.71-1.29-.88-2.56-1.79-3.78-2.77a40.29,40.29,0,0,1-3.47-3.07c-.54-.55-1-1.14-1.54-1.73s-1.16-1.06-1-1.76c.76-2.55,4-4.64,6.43-5.12.48-.1.65-1.3.07-1.22a9.91,9.91,0,0,0-3.75,1.14A10.26,10.26,0,0,0,355.4,250a7.05,7.05,0,0,0-1.78,3.87c-.09,1.66,1,3.05,2,4.26a36.42,36.42,0,0,0,7.18,6.45,14.27,14.27,0,0,0,4,2.42,4.3,4.3,0,0,0,4.1-1.42,11.38,11.38,0,0,0,2.88-4C374.26,260.25,375.12,258.39,374.55,257.07Z" fill="#af8c51"/><path d="M429.12,171.28c-5.18,7.08-5.06,16-4.72,24.45a24.06,24.06,0,0,1-5.33-.83,14.69,14.69,0,0,1-5.8-3.58c-.36-.34-.73.68-.42,1,3,3.12,7.88,6.42,12.43,6.15.71,0,1-1.28.93-1.81-1.47-8.42-1.79-17.74,3.47-25.06C429.82,171.4,429.33,171,429.12,171.28Z" fill="#af8c51"/><path d="M362.08,375.06a9.08,9.08,0,0,0-.94-2.38c-1.23-1.06-2.46-2.12-3.7-3.16a101.73,101.73,0,0,0-8.68-6.51c-.36-.24-.73-.44-1.09-.66.4.46.83.88,1.25,1.31l2.53,2.26a42.53,42.53,0,0,1,6.58,7c.06.09.1.18.16.28a14.62,14.62,0,0,1,1.43,2.4,4.06,4.06,0,0,1,.57,1.66,7.25,7.25,0,0,1,.2,1.32,7.87,7.87,0,0,1-1.43,4.75,9,9,0,0,1-1.2,1.4.62.62,0,0,0,.54-.22C360.9,382.06,362.93,378.75,362.08,375.06Z" fill="#af8c51"/><path d="M219.38,282.76s-22.12-1.33-20-19.62Z" fill="#d57940"/><path d="M218.13,273s3.19-7.41-5.69-17Z" fill="#d57940"/><path d="M411.24,346.1s5.36,11,16.74,3.86,7.2-15.33,7.2-15.33a151.73,151.73,0,0,1,47.31,1.77c25.36,5.11,35.12-4.41,35.12-4.41l-12.23-12.06s-63,4.53-65.22,5.72-27.89,7.55-27.89,7.55Z" fill="#b9cbdb"/><path d="M377.69,133.56s-22.8,4.34-51.29,17.8-16.24,28.9-45.17,32.12c0,0-.37-.4-1.05,9.06,0,0,23.25,4.48,34.69-22.36,1.6-3.76,5.79-11.12,10.79-14.67,2.88-2,5.9-1,8.35-1.75,6.94-2.16,49.11-13,49.11-13Z" fill="#a25341"/><path d="M380.34,138.65s-13.87,5-44.39,12.84c-36.56,9.38-23.22,40.83-55.34,36.37l-.63,4.58s23.45,4.58,34.89-22.26c1.6-3.76,5.79-11.12,10.79-14.67,2.88-2,5.9-1,8.35-1.75,6.94-2.16,49.11-13,49.11-13Z" fill="#713b2b"/><path d="M240.94,221.67s-16-17.44-16.73-39.28Z" fill="#fbc56f"/><path d="M250.94,217.52s-16-17.45-16.73-39.29Z" fill="#fbc56f"/><path d="M261.25,213.58s-16-17.45-16.72-39.29Z" fill="#fbc56f"/><path d="M378.3,129.39c16.39-1.28,32.07-.55,48.47-.81,8.21-.08,17.13-1.3,25.33-1.55s16.39-.66,24.58-1.21c16.37-1.22,32.37-.56,48.73-1.55s33.1-3.36,49.45-4.78l0,.29c-16.14,3.22-32.56,4.67-48.93,5.88-16.4,1-33.81.72-49.23,1.73-8.21.08-16.41.21-24.61.63s-16.38,1-24.58,1.48c-16.4.7-32.82.82-49.24.18Z" fill="#824c24"/><path d="M399.58,136.81c-1.53-1-3-2.16-4.46-3.31a40.73,40.73,0,0,1-7.08-7,1.6,1.6,0,0,0-.55.67,3.57,3.57,0,0,0-.12.4h0v0a3.42,3.42,0,0,0-.11,1.69,19,19,0,0,0,.37,3.66h0l-5.13.19c-1.24.51-2.45,1.11-3.66,1.73.84.78,1.64,1.59,2.44,2.41a38.28,38.28,0,0,0,4.79,4,92.27,92.27,0,0,0,7.87,4.84,17,17,0,0,0,4,.47c1,0,2,0,3.06-.1.13-1.25.26-2.5.36-3.75s.13-2.32.27-3.47l.12-1.11C401,137.73,400.27,137.28,399.58,136.81Z" fill="#fbc56f"/><path d="M400.83,146.42c-.12-3.12-.31-5.78-.24-8.32l.37.91a81.35,81.35,0,0,1-7.08-6c-2.19-2.21-4.24-4.58-6.55-6.65l.72-.18a9.06,9.06,0,0,0,.2,6.58l.36.81-1,.12-5.11.61.42-.1c-1.34.72-2.7,1.39-4.06,2.06l.36-2.22c3.32,2.76,6.74,5.47,10.13,8.07a26.84,26.84,0,0,0,5.22,3.28A43.29,43.29,0,0,0,400.83,146.42Zm.2.21a19.11,19.11,0,0,1-6.85.56,19.63,19.63,0,0,1-6.39-2.81A59.29,59.29,0,0,1,377.4,136l-1.5-1.45,1.86-.76c1.4-.58,2.8-1.15,4.23-1.67l.29-.11h.13l5.14.23-.64.93a13.34,13.34,0,0,1-.34-3.71,14.35,14.35,0,0,1,.64-3.64l.19-.61.52.44c2.38,2,5,3.69,7.51,5.55a81.39,81.39,0,0,1,7,6.17l.44.43-.07.49A77.51,77.51,0,0,1,401,146.63Z" fill="#af8c51"/><path d="M571.8,267.26c-1.47-1.1-3-2.12-4.52-3.11a5,5,0,0,0-2.11-1,1.3,1.3,0,0,0-1.19.69l-.88-.42s-8.75,13.13-44.22,32.57l-.25.14a189.6,189.6,0,0,1-35,14.65c-1.91.52-3.82,1.08-5.75,1.56-6.88,1.74-13.83,3.2-20.82,4.44-7.19,1.28-14.43,2.19-21.63,3.42l-3.88.64c-.35.09-.7.21-1,.31l-.16,0s-21.15,2.13-21.06,16.81a9.91,9.91,0,0,0,.13,2.3,4.58,4.58,0,0,0,.14.53c.1.57.23,1.14.39,1.74a1.77,1.77,0,0,0,0,.2v0c5.26,19,29.17,3.79,18.7-8.78,0,0,8.44-3.86,45.42-2.66s83.09-36.62,90.91-48a7.75,7.75,0,0,1-.58-1.19c-.44-.62-.94-1.21-1.38-1.83a11.4,11.4,0,0,1-1.31-2.31,3.47,3.47,0,0,1-.18-1,2.18,2.18,0,0,1,2.47-1.95,6.25,6.25,0,0,1-.16-.62,2,2,0,0,1,1.21-2.27,3.79,3.79,0,0,1,2.89-.32,8.87,8.87,0,0,1,1.15.77c.13-.07-.05-.36-.08-.63a3,3,0,0,1,.54-2.42,3.77,3.77,0,0,1,1.91-1.35,5.52,5.52,0,0,1,.68-.09A1.09,1.09,0,0,0,571.8,267.26Z" fill="#fbc56f"/><path d="M597.39,291c.29-1.15.58-2.56,1-4l0-.18.26-.13c1.55-.84,3.15-1.54,4.73-2.31s3.16-1.5,4.77-2.2l-.72,1.09c-.17-4.3-.35-8.59-.14-12.89l0-.65.43-.28,1.38-.87,1-.62.49.94c1.46,2.76,3,5.58,4.66,8.23a72,72,0,0,0,12.21,14.34A35.67,35.67,0,0,0,634.8,297l-1.12,2.51c-2.92-.95-5.94-1.77-8.91-2.64s-6-1.69-9-2.48A104.37,104.37,0,0,0,597.39,291Zm.23-.17a36,36,0,0,1,9.37-.36,76.47,76.47,0,0,1,9.41,1.25,93.3,93.3,0,0,1,9.21,2.17c3,.85,6,1.87,9,3l-1.12,2.52a31.84,31.84,0,0,1-7.5-6.38,88.62,88.62,0,0,1-5.9-7.58l-5.57-7.74c-1.86-2.58-3.83-5.07-5.63-7.74l1.49.31-1.26,1,.47-.93c.32,4.29.25,8.59.19,12.89v.82l-.71.26q-2.46.93-5,1.75c-1.67.54-3.3,1.16-5,1.64l.31-.32C598.9,288.48,598.26,289.55,597.62,290.87Z" fill="#af8c51"/><path d="M431,329.78a16.55,16.55,0,0,0-1.38-3.38A10,10,0,0,0,425,322c-.59-.25-1,1.26-.36,1.54a9.16,9.16,0,0,1,4.2,4.1,14.48,14.48,0,0,1,1.22,3.1q.22.79.39,1.59a2.86,2.86,0,0,0,.54,1.49c.24.27.49-.05.55-.31A7.86,7.86,0,0,0,431,329.78Z" fill="#824c24"/><path d="M433.74,330a24.2,24.2,0,0,0-.66-2.67,17.81,17.81,0,0,0-2.35-4.82c-.24-.34-.63-.14-.81.14a1.21,1.21,0,0,0-.08,1.23,24.54,24.54,0,0,1,2,4.64,17,17,0,0,1,.56,2.32c.08.43.13.86.19,1.29s.11.9.55,1c.21.06.38-.13.49-.27C434.23,332.14,433.9,330.91,433.74,330Z" fill="#824c24"/><path d="M438.38,328.21a14.94,14.94,0,0,0-1.3-3.15,15.89,15.89,0,0,0-4.35-5c-.81-.61-1.55,1.45-.84,2a14.69,14.69,0,0,1,4,4.62,14.51,14.51,0,0,1,1.17,2.68c.16.48.29,1,.44,1.44a2.53,2.53,0,0,0,.6,1.16c.19.16.42-.11.48-.26A5.65,5.65,0,0,0,438.38,328.21Z" fill="#824c24"/><path d="M441.64,328.68a13.87,13.87,0,0,0-.64-1.54,8.39,8.39,0,0,0-.84-1.49c-.32-.43-.71-.79-1.06-1.2-.21-.25-.49-.13-.65.11a1,1,0,0,0-.06,1,3.56,3.56,0,0,1,.38.65c.1.26.23.5.34.75.23.49.49.95.71,1.43a15.47,15.47,0,0,1,.58,1.47,6.07,6.07,0,0,0,.29.7,1.39,1.39,0,0,0,.22.37c.06.09.22.17.26.21.27.24.49-.14.59-.43v0A2.93,2.93,0,0,0,441.64,328.68Z" fill="#824c24"/><path d="M444.18,328.82a6.49,6.49,0,0,0-.26-1,15.69,15.69,0,0,0-.61-1.47c-.08-.17-.17-.35-.37-.39a.57.57,0,0,0-.51.18,1.41,1.41,0,0,0-.35.66,1.24,1.24,0,0,0,0,.74c.22.47.42.94.59,1.42.09.23.15.48.25.7s.26.61.56.67l0,0c.3.15.5-.18.56-.43a.27.27,0,0,0,0-.12l-.13.3A1.89,1.89,0,0,0,444.18,328.82Z" fill="#824c24"/><path d="M444.12,329.84v0c0-.09,0-.08,0,0Z" fill="#824c24"/><path d="M584.25,116.15c-.53-.81-1.7-.87-2.58-1a16.5,16.5,0,0,0-2.63,0,15.16,15.16,0,0,0-5.19,1.4c-1,.44-1,3,.31,2.44a13.89,13.89,0,0,1,4.73-1.22,13.17,13.17,0,0,1,2.35,0c.84.09,1.84.44,2.62,0A1.32,1.32,0,0,0,584.25,116.15Z" fill="#824c24"/><path d="M583.36,118.93a5.3,5.3,0,0,0-2-.31,11.78,11.78,0,0,0-6.19,1.48,1.51,1.51,0,0,0-.59,1.43c.06.43.39.85.85.6a10.67,10.67,0,0,1,3.61-1.15,9.84,9.84,0,0,1,1.88-.1c.64,0,1.28.15,1.93.18s1.39,0,1.56-.72S583.93,119.17,583.36,118.93Z" fill="#824c24"/><path d="M582.8,121.63a5.36,5.36,0,0,0-1.55,0,6.59,6.59,0,0,0-2.82,1,1.17,1.17,0,0,0-.47,1.13c0,.34.3.69.67.49a5.6,5.6,0,0,1,2.47-.68,7,7,0,0,1,1.21,0c.45,0,1.08.21,1.48-.06a1,1,0,0,0,.33-1A1.6,1.6,0,0,0,582.8,121.63Z" fill="#824c24"/><path d="M581.81,125a5.61,5.61,0,0,0-.67-.19,5.18,5.18,0,0,0-.88,0,10.33,10.33,0,0,0-1.47.16,11.41,11.41,0,0,0-3.35,1.17,1.26,1.26,0,0,0-.5,1.23c0,.37.33.73.72.52a10.61,10.61,0,0,1,2.79-1,11.45,11.45,0,0,1,1.53-.2l.71,0a8,8,0,0,0,.84-.1c.46-.05,1.05-.07,1.18-.62S582.26,125.11,581.81,125Z" fill="#824c24"/><path d="M561.79,286.15a35.59,35.59,0,0,0-10.54-11.07c-.42-.29-.77.73-.41,1a46,46,0,0,1,10.58,10.66C561.66,287,561.92,286.38,561.79,286.15Z" fill="#a57333"/><path d="M563.65,283.93c-.27-.57-.55-1.12-.85-1.67a18.76,18.76,0,0,0-2.18-3.12,29.69,29.69,0,0,0-5.42-5c-.58-.41-1,.95-.57,1.33a40.92,40.92,0,0,1,5,5.23c.72.9,1.41,1.84,2.13,2.74.37.46.72.94,1.07,1.42s.56,1,1,1.28.45-.32.43-.54A5.36,5.36,0,0,0,563.65,283.93Z" fill="#a57333"/><path d="M559.64,273.67c0-.09-.09-.15-.12-.24,0,.07,0-.05,0-.07a1.34,1.34,0,0,0-.12-.24l0,0c-.08-.13-.13-.25-.22-.37l-.19-.24a3.32,3.32,0,0,0-.53-.53,5.11,5.11,0,0,0-.93-.67c-.21-.11-.42-.21-.64-.3h0l-.12-.07-.38-.17c-.13-.07-.35.07-.43.16a1.12,1.12,0,0,0-.27.46c-.09.3-.14.82.17,1a8.5,8.5,0,0,1,.94.74c.29.27.61.49.9.75a3.35,3.35,0,0,0,1,.69s-.07,0,0,0a.72.72,0,0,0,.2.09s.1,0,0,0l.15.09a1,1,0,0,0,.53.1c.21,0,.27-.34.26-.5A2.69,2.69,0,0,0,559.64,273.67Z" fill="#a57333"/><path d="M560,287.49a10.59,10.59,0,0,0-.63-1,14.86,14.86,0,0,0-1.55-1.72,8.7,8.7,0,0,0-1.72-1.23,20,20,0,0,0-1.94-1c-.4-.17-.7.87-.34,1.06a7.67,7.67,0,0,1,1.81,1.22c.51.5,1,1.05,1.46,1.57s.95,1.07,1.43,1.61a9.69,9.69,0,0,0,.79.78,1.17,1.17,0,0,0,.83.43c.24,0,.31-.41.3-.58A2.65,2.65,0,0,0,560,287.49Z" fill="#a57333"/><path d="M558.13,292a19.68,19.68,0,0,0-2.88-3.7c-1-1.22-2-2.43-3.13-3.59a30.63,30.63,0,0,0-7.21-5.92c-.48-.28-.84.8-.44,1.05a34.73,34.73,0,0,1,7.11,6.09,43.13,43.13,0,0,1,2.9,3.55c.46.64.92,1.28,1.35,1.95a10,10,0,0,0,1.41,1.94C557.83,293.92,558.33,292.42,558.13,292Z" fill="#a57333"/><path d="M628.63,551a9.1,9.1,0,0,1,3.55,1.19A8.91,8.91,0,0,1,635,554.6a8.93,8.93,0,0,1-3.55-1.18A9.07,9.07,0,0,1,628.63,551Z" fill="#d57940"/><path d="M629.68,543a5.71,5.71,0,0,1,2.93.25,5.55,5.55,0,0,1,2.46,1.6,5.61,5.61,0,0,1-2.93-.25A5.7,5.7,0,0,1,629.68,543Z" fill="#d57940"/><path d="M631.1,537.16a2.85,2.85,0,0,1,2-.26,1.08,1.08,0,1,1-2,.26Z" fill="#d57940"/><path d="M280,199.54a22.89,22.89,0,0,0,8.39,6.14l.08,0,0,.07q-.72,2.9-1.25,5.84a27.94,27.94,0,0,0-.57,5.89l-.13-.17,5.33,1.41a44.53,44.53,0,0,0,5.34,1.12l-.29.24.89-6.1.26.38a12.6,12.6,0,0,1-4.17-1.43l-.21-.13.06-.25.89-4.2.09-.42.41.15a82.88,82.88,0,0,0,14.83,4.38l.42.08-.07.41c-.28,1.54-.53,3.1-.73,4.65a29.25,29.25,0,0,0-.31,4.64l-.37-.42c2.47.41,5,.77,7.44,1.05a47.83,47.83,0,0,0,7.44.39l-.46.53-.5-5.35.5.46-3,0h-1.54a12.43,12.43,0,0,1-1.63-.1l-.44-.07.05-.49.48-4.77.05-.54.55.07L334.27,215l.62.07-.1.61c-.26,1.68-.47,3.39-.6,5.09-.06.85-.1,1.7-.1,2.54a8.47,8.47,0,0,0,.29,2.34l-.6-.39,14.5-.7-.62.71-.44-4.85.66.61h-7.56l0-.74.32-5.43,0-.64.64,0,18.69-.71.67,0,0,.66.46,11.7-.76-.6,13.43-2.6-.48.67-.75-5.6.67.49-6.81,1.05-.61.1,0-.61-.4-6,0-.51.51-.06,15.89-2,.47-.06.09.46,1.78,9.89-.61-.36L394,216.53l-.29.49-1-5.68.52.33-5.29,1.41-.47.12,0-.48-.4-5,0-.33.31-.08,13.27-3.68.32-.09.09.32,2.32,8.42-.43-.12,7.13-6.45,0,.22-2.1-4.13.2.05-2.48,1.54-.12.07,0-.12L404,200.18l0-.08.09,0,9.67-4.36-9.6,4.53,0-.12,1.51,3.11-.17-.05,2.46-1.58.13-.08.07.13,2.18,4.1.06.12-.1.1-7,6.56-.31.29-.12-.41L400.33,204l.42.24L387.51,208l.28-.41.43,5-.51-.36,5.28-1.44.44-.12.08.45,1.07,5.68.07.37-.36.12-10.44,3.58-.51.17-.1-.54-1.84-9.87.55.41-15.88,2.13.47-.58.43,6-.65-.52,6.81-1.09.58-.09.08.59.79,5.6.07.55-.55.12-13.41,2.67-.73.14,0-.74-.53-11.69.69.64-18.68.78.67-.66-.34,5.43-.69-.73,6.83,0h.62l.05.61.41,4.86.06.68-.68,0-14.51.62h-.46l-.14-.41a9.16,9.16,0,0,1-.35-2.77q0-1.34.12-2.64c.14-1.75.36-3.47.64-5.19l.52.67-16.56-2,.6-.48-.51,4.76-.39-.56a11.44,11.44,0,0,0,1.41.08l1.51,0h3.51l0,.46.48,5.35,0,.51-.49,0a46.8,46.8,0,0,1-7.61-.44c-2.51-.29-5-.66-7.49-1.09l-.36-.06v-.35a30.39,30.39,0,0,1,.35-4.8c.21-1.57.46-3.13.76-4.69l.34.49a84.15,84.15,0,0,1-15-4.51l.5-.27-.92,4.2-.15-.38a12.24,12.24,0,0,0,3.89,1.37l.32.07-.05.31-1,6.08,0,.27-.25,0a45.14,45.14,0,0,1-5.43-1.23l-5.32-1.5-.13,0v-.13a27.57,27.57,0,0,1,.67-6c.38-2,.84-3.9,1.35-5.83l.05.1A22.94,22.94,0,0,1,280,199.54Z" fill="#fbc56f"/><path d="M375.06,133c5.33,15.59,7.14,24.15,11.26,40.07,2,8,6.52,23.27,8.62,31.22s4.33,15.87,6.68,23.75c4.77,15.75,7.93,32.41,12.05,48.34,3.94,16,8.9,31.22,11.58,47.48l-.28.06q-6.68-23.78-13-47.58c-4.1-15.92-8.1-31.87-11.82-47.9-1.9-8-3.83-16-6.12-23.89s-4.8-15.74-7.13-23.63c-4.54-15.81-8.61-31.74-12.08-47.84Z" fill="#824c24"/><path d="M391.86,138.65c8.56,6.85,17.1,13.69,25.8,20.33q12.55,10.56,25.45,20.7c17.17,13.55,34.61,26.75,52.55,39.25s36.22,24.5,55.15,35.4c4.68,2.83,9.56,5.28,14.33,7.94l7.19,3.92c2.43,1.22,4.93,2.33,7.35,3.58l7.22,3.89c2.39,1.32,4.81,2.6,7.3,3.7l14.86,7-15.46-5.64c-2.6-.9-5.12-2-7.63-3.1l-7.55-3.29c-2.5-1.15-4.93-2.42-7.41-3.61l-7.23-3.94c-4.79-2.67-9.7-5.14-14.4-8-19-10.95-37.33-23.06-55.36-35.53s-35.48-25.78-52.69-39.35q-12.91-10.19-25.51-20.74C407.7,153.81,399.62,146.4,391.86,138.65Z" fill="#af8c51"/><rect width="841.89" height="595.28" fill="none" stroke="#fff" stroke-miterlimit="10"/></svg>