<svg id="Layer_1" data-name="Layer 1" xmlns="http://www.w3.org/2000/svg" viewBox="0 0 841.89 595.28"><path d="M288.9,296.53s2.07-2.56-.39-4.33l-.34.45s-2.8-2.69-5.11-2.13a5.12,5.12,0,0,1,2.56,2.18,4,4,0,0,0-5.63,2.93s-.45,1.63-1.83,1.82l4,1.09s3.56,4.77,6.79,1.27c0,0,1.39.93-.14,2.56C288.79,302.37,292.69,300.53,288.9,296.53Z" fill="#849038"/><path d="M290.19,298.34c-3.91,4-8.15-1.7-8.15-1.7l-2.21-.6a2.29,2.29,0,0,1-1.67,1.41l4,1.09s3.56,4.77,6.79,1.27c0,0,1.39.93-.14,2.56A3,3,0,0,0,290.19,298.34Z" fill="#606b2e"/><path d="M299.16,311.64a3.85,3.85,0,1,0-3.85,3.85A3.84,3.84,0,0,0,299.16,311.64Z" fill="#9b71ae"/><path d="M301.32,300.51a3.85,3.85,0,1,0-3.84,3.84A3.84,3.84,0,0,0,301.32,300.51Z" fill="#9b71ae"/><circle cx="292.29" cy="306.17" r="3.84" fill="#9b71ae"/><path d="M290.38,308.55a3.84,3.84,0,1,0-3.84,3.84A3.84,3.84,0,0,0,290.38,308.55Z" fill="#9b71ae"/><path d="M287.43,304.35a3.85,3.85,0,1,0-3.84,3.85A3.84,3.84,0,0,0,287.43,304.35Z" fill="#9b71ae"/><path d="M375.82,71.93s7-.51,6.33-5.93l-1.22.12s.27-7-3.92-9.31c0,0,1.35,2.27.21,6.06,0,0-3.16-7.72-12.75-3.64,0,0-3.23,1.45-5.51-.1l4,6.54s-2.49,10.6,7.7,10.42c0,0,.53,3-4.25,3C366.39,79.12,374.9,81.87,375.82,71.93Z" fill="#849038"/><path d="M422.48,67.67s-2-2.67,3-5.07l.17.57s1.26-1.46,6-.26,6.11-.77,6.11-.77.61,7.34-7.75,12.18c0,0-.47,2.62,3.26,2.68,0,0-.51,2-3.86,2.47Z" fill="#849038"/><path d="M437.78,62.14a3,3,0,0,1-1.56.92,19.23,19.23,0,0,1-10.11,10.76l3.32,5.65c3.35-.51,3.86-2.47,3.86-2.47-3.73-.06-3.26-2.68-3.26-2.68C438.39,69.48,437.78,62.14,437.78,62.14Z" fill="#606b2e"/><path d="M302.83,303.49s1.4-1.07,2.66,1.56l-.3.09s.76.66.13,3.15.41,3.2.41,3.2-3.84.32-6.37-4.06c0,0-1.37-.24-1.4,1.71,0,0-1-.27-1.29-2Z" fill="#849038"/><path d="M305.73,311.49a1.53,1.53,0,0,1-.48-.82,10,10,0,0,1-5.63-5.29l-2.95,1.74c.26,1.75,1.29,2,1.29,2,0-1.95,1.4-1.71,1.4-1.71C301.89,311.81,305.73,311.49,305.73,311.49Z" fill="#606b2e"/><path d="M389.47,62s-2.9-1.71.87-5.82l.36.46s.62-1.82,5.5-2.49,5.38-3,5.38-3,3.31,6.57-2.62,14.2c0,0,.55,2.6,4,1.26,0,0,.26,2-2.65,3.73Z" fill="#849038"/><path d="M519.2,34.05a4,4,0,0,0-3,4.91c2,7.47,8.17,23,25.82,23,18,0,22.61-16.16,23.77-23.45A4,4,0,0,0,562.91,34C556.25,32.22,540,29.11,519.2,34.05Z" fill="#a25341"/><path d="M562.91,34a88.57,88.57,0,0,0-35.18-1.59,86.15,86.15,0,0,1,28.44,2.35,4,4,0,0,1,2.9,4.52c-1,6.34-4.66,19.38-17.42,22.67l.38,0c18,0,22.61-16.16,23.77-23.45A4,4,0,0,0,562.91,34Z" fill="#713b2b"/><path d="M406.83,60.17s-.33-2.35-4.88-2.35A40,40,0,0,0,393,59s-1.67-1.35-7,3-8.06-2.19-14.3,5.56-5.39,15.16-5.39,15.16-7.92,6.91-4,12-9.27,3.1-7.92,9.14,5.05,10.58,8.93,6.2,1.34,3-1,5.28,0,8.88,3.7,7.11.68,7.91,4.89,8.12-4.55,7.62,2.69,8.47,3.16,5.53,10.68,6,34.65.6,37.68-3.11a13.93,13.93,0,0,0,2.7-8.76s7.75-.84,7.75-3.88-4.89-9.55-4.89-9.55,8.26,2.43,7.92-4.37-.84-6.46.84-10,5.06-6.4-.67-7.92-4.21-2.53-2.87-6.4,7.75-6.57.17-10.45-2.36-6.57-8.25-12.13S415.4,61.52,411,62.2,406.83,60.17,406.83,60.17Z" fill="#a25341"/><path d="M435.48,97.41c-5.73-1.52-4.21-2.53-2.87-6.4s7.75-6.57.17-10.45c-3.43-1.75-4.23-3.26-4.64-4.91a11,11,0,0,0-1.89,2.95c-1.25,3.59-2.66,4.53,2.67,5.93s2.19,4.06.63,7.33-1.1,3-.79,9.26-7.36,4-7.36,4,4.54,6,4.54,8.85-7.21,3.59-7.21,3.59a12.82,12.82,0,0,1-2.51,8.11c-2.82,3.43-28.06,3.28-35.05,2.88s-3.19-4.75-9.93-5.53,1.41-7.64-2.51-7.84-1.1-9.16-4.55-7.52-5.64-4.45-3.45-6.58c2-1.91,4.06-7.59,1.84-5.77,2.29,4.24-9.59,2.74-8.3,8.5,1.34,6,5.05,10.58,8.93,6.2s1.34,3-1,5.28,0,8.88,3.7,7.11.68,7.91,4.89,8.12-4.55,7.62,2.69,8.47,3.16,5.53,10.68,6,34.65.6,37.68-3.11a13.93,13.93,0,0,0,2.7-8.76s7.75-.84,7.75-3.88-4.89-9.56-4.89-9.56,8.26,2.44,7.92-4.36-.84-6.46.84-10S441.21,98.93,435.48,97.41Z" fill="#713b2b"/><path d="M396.14,412.31s12.86,15.37,29,14.76l-7.52-39-18.51-19.54Z" fill="#646f30"/><path d="M451.65,180.81s27.63,56,35.05,88.64,3.37,79.51-15.17,72.1S448.28,318,448.28,318s6.07-36.06-9.77-70.43S451.65,180.81,451.65,180.81Z" fill="#dfeaf6"/><path d="M486.7,269.45c-2.22-9.76-6.25-21.62-10.8-33.43a196.11,196.11,0,0,1,5.56,19c6.42,28.32,4.23,67.28-8.55,72.31a24.73,24.73,0,0,0,3.72-5.57A25.77,25.77,0,0,0,478,318.4a12.73,12.73,0,0,0,.39-1.73,5.43,5.43,0,0,0,.23-1.6c-.08-.64-.85-.12-1,.18a27.58,27.58,0,0,0-1.27,2.95c-.39.92-.79,1.83-1.23,2.72a27.69,27.69,0,0,1-3.21,5.12,4.49,4.49,0,0,1-2.05,1.66,4,4,0,0,1-.84.13,10.11,10.11,0,0,1-2.74-.69,42.82,42.82,0,0,1-5.39-2.61,6,6,0,0,0,.92-.27c4.33-1.74,6.5-6.36,8.08-10.42,3.94-10.09,3.58-21.08,4-31.73,0-.12-.21,0-.21.09a119.69,119.69,0,0,1-4.52,27.09c-1.16,3.8-2.46,8.31-5.22,11.3a6.15,6.15,0,0,1-7,1.37l-.26-.19a4,4,0,0,1-1.5-1.75c-.17-.38-.54-.37-.9-.18a40.59,40.59,0,0,1-5.52-5.85c-.26,2.54-.5,4-.5,4s4.72,16.18,23.25,23.59S494.11,302.12,486.7,269.45Z" fill="#b9cbdb"/><path d="M562.33,42.11a52.51,52.51,0,0,0-1.61-7.52c-.5-1.2-4.81-.5-4.71,2.91s.5,7.12-.6,9.63-1.91,4.61-1.91,4.61-4.51-8.32-8.42-6.52,2.3,7.62,3.31,9.93-1.81.8-4.22-.2-7.82-3.21-8.82-1.8-1.81,3.51.3,4.81c0,0-7.22,8.92-7.62,14.74,0,0-6,7.62-6.82,15.24-.7,6.69-6.08,11.7-11.41,20.64l-.15-.1c-.3.54-.59,1.08-.86,1.61a1.74,1.74,0,0,0-.1.19h0a54.26,54.26,0,0,0-4.38,11.9s-26,.25-34.38,9.1c0,0-19.2-3.29-26.28.75s-8.34,7.59-13.39,6.83-6.32,2.78-10.11-2.53S414.84,109,414.84,109l-4.3-21.74L399.42,72.39l-18.2-.25-4.38,16.17c-.5,1-2.52,15,0,23.93s10,15.5,10.62,19.37-4.38,14.49-8.09,15.67-21.23,2.7-24.43,10.28-14,15.16-12.64,22.75S359,227.65,359,227.65l5.87-6.06s.54,14.49,4.24,17.52c0,0-16.51,25.95-18.87,42.46l23.59,25.61h36.73L450,321.33S443.9,290,437.84,277.86a12.88,12.88,0,0,0,3-11.12c-1.35-6.74-2.7-13.82,5.05-28.64S454,171.71,463.45,166s54.53-6.34,62-16.52c4-5.51,8-21.9,8.45-25.08h0c2.59-14,2.73-38,7-41.26,5.21-4,13.83-13.24,15.44-19.86,0,0,4.81-6.82,5.21-11.33S562.83,45.12,562.33,42.11Z" fill="#f19967"/><path d="M335.93,214.17s2.31,7.17-3.07,10.24S307,239.51,299.59,249s-16.38,14.08-17.91,22.78-3.33,17.91-3.08,22-2.6,10,0,11.26,6.68-10,8.47-15.36,5.63-12.54,8.7-5.12-.51,11.52,4.35,13.31.13-10.23.77-16.89,1.28-8.7.38-12.28c0,0,.52-5.51,13.7-7.81s29.94-11.9,32.88-16.25a109.14,109.14,0,0,0,5.76-9.85Z" fill="#f19967"/><path d="M357.64,328.07c-.68,1.69.33,39.09,6.74,55.94s7.07,21.57,4.38,31.67-8.43,16.52-1.35,42.13,14.15,54.92,12.8,61.33-.67,10.78-6.4,17.86-11.13,16.17-4.89,22.57,15.34,1.35,22.41,2.36,10.79-5.73,9.44-18.53-3.71-19.38-1.69-24.77,1.69-12,0-20.05-2.23-30.41,2-44.06-4.9-42.21-4.9-42.21,5.95-26.78,6-36.39c0,0,8.39,22.24,12.94,26,0,0-3.54,9.61,5.81,20.47S433,433.54,433,433.54s1.52,13.9,11.63,24,20,23.51,21.74,34.12,7.83,23,11.37,28.06,1,23,15.16,25.52,14.41-3,16.18-7.33-.76-17.18-1.77-18.95-19.46-18.2-23.76-29.82-12.64-43.47-13.9-53.33-11.37-20-21.48-28.05,1.77-38.67,1-58.13-31.62-18.45-31.62-18.45Z" fill="#f19967"/><path d="M465,135.66a141.83,141.83,0,0,1,16.15-10.29c-4.56,1.34-8.72,3.23-11.25,5.91l-.57-.1a45.17,45.17,0,0,0-4.59,4C464.51,135.47,464.62,136,465,135.66Z" fill="#d57940"/><path d="M510.83,152.34c-5.89,1.73-12.05,2.55-18.07,3.67s-12.16,2.34-18.17,3.86c-.92.23-1.82.51-2.73.77a25.41,25.41,0,0,1-5.79-.36c-2.72-.54-5.52-2-6.54-4.73a10.46,10.46,0,0,1,.31-7.27,93.71,93.71,0,0,1,8.06-10c.24-.27-.1-.45-.33-.24A74.63,74.63,0,0,0,453,156.72a16.08,16.08,0,0,0-2.55,5.06c-.27.6-.56,1.19-.82,1.79a124.74,124.74,0,0,0-5.31,16.24c-1.25,4.53-2.9,11.59-7.88,13.45-3.14,1.17-7,.69-10.29.72-1.72,0-3.44,0-5.16.08-2,0-4,.36-6,.4-.4,0-1,.85-.46.87,1.55,0,3,.3,4.58.41,1.78.13,3.59.09,5.37.12,3,0,6,.27,9,0,5.34-.42,8.7-4.45,10.76-9.06a65.13,65.13,0,0,0,2.55-6.82,18.67,18.67,0,0,1,2.53-3.71c.74-.84,1.7-1.7,2.84-1s1.46,2.3,1.56,3.57c.44,5.85.25,11.74.63,17.6,2.15-14.62,4.58-27.76,9.08-30.49,9.43-5.73,52.23-6.15,61.36-15.76,3.57-3.76,5.7-11.83,7.38-18.24C525.89,140,520.81,149.4,510.83,152.34Z" fill="#d57940"/><path d="M546.15,76c-2,1.67-3.92,3.5-6,5a7,7,0,0,1-3.25,1.08c-1.38.17-2.73.35-4.1.62-.56.11-2.34,1.76-1.13,2.14a10.62,10.62,0,0,0,8-.56c.15-.07.28-.18.42-.26a3.43,3.43,0,0,1,.77-.89,59.41,59.41,0,0,0,13.28-14.87A79,79,0,0,1,546.15,76Z" fill="#d57940"/><path d="M439,248A30.41,30.41,0,0,0,436.63,263a43.25,43.25,0,0,1,.4,8.56,22.09,22.09,0,0,0-2.14,3.14,11.73,11.73,0,0,1-2.55,3.25,10.52,10.52,0,0,1-2.46,1.24h-.13a13.72,13.72,0,0,0-5.15,2l-.66.24a1.86,1.86,0,0,0-1.05,1.08,17.08,17.08,0,0,0-2.61,3.73,11.39,11.39,0,0,1-1.94,2.68,21,21,0,0,1-2.72,2.07c-.62.43-.52,1.47.31.93a18.27,18.27,0,0,0,4.35-3.57c1.23-1.48,2.11-3.29,3.65-4.48a9.72,9.72,0,0,1,5-1.77,21.77,21.77,0,0,1,3.23-.14,6.44,6.44,0,0,0,3.45-.46l0,0a11.61,11.61,0,0,1,5.36,4.38,71.07,71.07,0,0,0-2.75-7c-.26-.09-.5-.22-.76-.29.15-.15.25-.34.39-.49a.36.36,0,0,1,0-.09,12.88,12.88,0,0,0,3-11.12c-1.35-6.74-2.7-13.82,5.05-28.64a37.47,37.47,0,0,0,2.7-7.54c-.72,1.45-1.47,2.88-2.28,4.31C443.85,239.22,440.92,243.4,439,248Z" fill="#d57940"/><path d="M352.6,281a15.64,15.64,0,0,0,8.82,9.82,2.16,2.16,0,0,0,1.68-.18,34,34,0,0,0,4.92,4.82c1.63,1.29,5.17-1.68,3.71-3.34-6.66-7.58-10.84-18.64-10-28.75.43-5.33,2.55-10.29,4.78-15.07,1.11-2.38,2.29-4.72,3.37-7.11s2.11-4.76,2-7.35c-.06-1.63-2.45-.06-2.54,1a11.77,11.77,0,0,1-.93,3.5,4,4,0,0,0,.67.73S357,258.15,352,274A17.17,17.17,0,0,0,352.6,281Z" fill="#d57940"/><path d="M366.67,225.85c1.32-3.22,1.6-7.17,1.86-10.62a70.92,70.92,0,0,0,0-11.1c-.13-1.48-.32-3-.54-4.43a2.08,2.08,0,0,0,.21.21c2.51,2,5.79,2.42,8.9,2.12,3.84-.37,7.6-1.8,11.33-2.72,4-1,8-1.74,11.92-2.86.24-.07.87-.81.33-.8-6.77.15-13.32,2-20,3-3,.44-6.15.5-8.87-1.14s-3.83-4.71-4.88-7.46a.81.81,0,0,0-.21-.29c-.2-1.13-.44-2.25-.64-3.39l0-.37c-.06-.75-.23-1.47-.31-2.21a19.93,19.93,0,0,1,.49-5.23A77.13,77.13,0,0,1,370,167.08c.09-.23-.3-.13-.37,0-2.67,6-4.94,12-5.43,18.52a5.66,5.66,0,0,0-.16.82,17,17,0,0,0,0,2.47c0,1.18.13,2.35.24,3.52a48.42,48.42,0,0,1,.05,8.85,35.5,35.5,0,0,1-.85,4.58c-1.83-5.65-4.53-11.07-6.58-16.63-.94-2.56-1.84-5.29-2.6-8.08a36.86,36.86,0,0,1-.86-14.86A35,35,0,0,1,358,153.94a9,9,0,0,0-3.07,3.62c-1.43,3.39-4.37,6.77-7.06,10.15a27.58,27.58,0,0,0,2.38,16.67c.61,2.25,1.33,4.48,2.11,6.67,1.56,4.32,3.38,8.54,5.15,12.78a86.3,86.3,0,0,0,5.56,11.29,18.38,18.38,0,0,0,.27,3.16c.19,1,.47,2.28,1.41,2.84.05,0,.12,0,.17,0v.14c0,.31,0,.62-.05.93.05.83.16,2.43.36,4.32C365.64,226.84,366.52,226.2,366.67,225.85Z" fill="#d57940"/><path d="M400.74,254.36l-.33.1a2.43,2.43,0,0,0-.47.13,1.41,1.41,0,0,0-.31.1l-.32.09-.27.1h0l0,0a2,2,0,0,1-.08-.26,9,9,0,0,1,0-1.72c0-.16,0-.33.05-.49s0-.1,0-.15a.2.2,0,0,0,0,.09.85.85,0,0,1,0-.22c.06-.34.14-.68.22-1a.71.71,0,0,0-.87-1,2.12,2.12,0,0,0-1.54,1.39,14.22,14.22,0,0,0-.46,2.51,6,6,0,0,0,.06,2.31,1.41,1.41,0,0,0,.73.89,2.21,2.21,0,0,0,1.52,0,6.3,6.3,0,0,0,1.38-.61,3.91,3.91,0,0,0,.49-.34h0a2.1,2.1,0,0,0,.9-1.09.67.67,0,0,0-.09-.63A.78.78,0,0,0,400.74,254.36Z" fill="#d57940"/><path d="M403.66,241.56a53,53,0,0,0,1.62-7.22q.77-4.38,1.1-8.8a80.72,80.72,0,0,0-.83-18.31c0-.21-.46.05-.44.23a99.59,99.59,0,0,1,.26,18.19,91.27,91.27,0,0,1-1.21,9.46c-.42,2.27-1.07,4.51-1.51,6.78a1.44,1.44,0,0,0-.9,1.16c0,.43.35.54.7.48.09.07.27,0,.42-.08a6.31,6.31,0,0,1,3.61.38,26.06,26.06,0,0,1,3.51,1.53c2.31,1.2,4.45,2.85,6.85,3.82.32.13,1-.35.8-.71-1.33-2.49-4.06-4.13-6.53-5.32C408.81,242.05,406.2,241,403.66,241.56Z" fill="#d57940"/><path d="M394,136.51c2.19.13,4.39.11,6.58.37,1.94.24,3.85,1,5.8,1-.05.19-.09.38-.14.57-.36,1.28-.78,2.55-1.11,3.83-.16.62-.3,1.24-.44,1.86a7.6,7.6,0,0,0-.31,1.7c0,.66.88.22,1.09,0a15.6,15.6,0,0,0,2-3.91,37.8,37.8,0,0,0,1.26-3.86c.05-.2.09-.39.14-.59,2.88-1.09,5.12-4,6.86-6.33q.9-1.21,1.68-2.46A163.08,163.08,0,0,1,414.84,109l-4.3-21.74L399.42,72.39l-8.32-.12a8.72,8.72,0,0,0-3.85,4.67,5.82,5.82,0,0,0-.22,2.42,10.71,10.71,0,0,1,.34,2.44c-.08.76-.48,1-1,1.48a25.4,25.4,0,0,0-2,2,6.69,6.69,0,0,0-1.89,5c.07.65.74,1.6.63,2.19-.07.43-.67.88-.93,1.22a8.46,8.46,0,0,0-1.06,1.78,13.15,13.15,0,0,0-5.1-.31h-.16c-.41,5.06-.47,11.9,1,17.07a29.18,29.18,0,0,0,2.39,5.77,12.55,12.55,0,0,0,1-4.21c.16-2.33-.38-4.75.14-7a25.35,25.35,0,0,1,.92-3c.06-.18.13-.37.21-.55s.15-.25.19-.33a8.38,8.38,0,0,0,.76-.36,7.53,7.53,0,0,0,2.47-1.92c1-.52,1.9-1.68,1.15-2.44a4.15,4.15,0,0,0-.32-.27c.13-.49,0-.9-.75-.79h-.2c-.08-.06-.16-.1-.24-.15-.3-1.33,2-3.37,2.45-4.43a4.9,4.9,0,0,0,0-3.9c-.45-1.39.64-2.09,1.53-3A11.23,11.23,0,0,0,391,82.06a7.27,7.27,0,0,0,0-4.26,2.36,2.36,0,0,1,.92-2.69c.23-.2.44-.42.67-.62a12,12,0,0,1,2.59,4.4c.7,2.32.66,4.81,1.33,7.14a13.29,13.29,0,0,0,3.36,5.3A25.75,25.75,0,0,1,402,93.71c-.7,0-1.4-.08-2.08-.08a11,11,0,0,0-3,.36,6.93,6.93,0,0,0-2.9,1.93c-.53.5-1.2,1.45-.75,2.2s1.41.47,2,.11l.17,0,.26-.07a7.85,7.85,0,0,1,2.36.5,9.73,9.73,0,0,0,3.51.42,8.62,8.62,0,0,0,2.93-1,7.5,7.5,0,0,1,2.71,2.9,18.79,18.79,0,0,1,1.95,6.48,33.52,33.52,0,0,1,.16,7.22c-.1,1.19-.27,2.36-.38,3.54,0,.43,0,.84,0,1.26-.08.13-.14.26-.23.38-1.9,2.79-5,4.52-7.16,7.07a15.41,15.41,0,0,1-3.31,3.24,10.57,10.57,0,0,1-4.08,1.42,11.49,11.49,0,0,1-4.05-.15,11.67,11.67,0,0,1-3.2-1.37,6.58,6.58,0,0,1,.57,1.62,9,9,0,0,1-.33,3.4,7.17,7.17,0,0,0,1.38.59A25.77,25.77,0,0,0,394,136.51Z" fill="#d57940"/><path d="M378.86,280.14a20.94,20.94,0,0,1-2.25-4.79,51.33,51.33,0,0,1-.88-5.25,10.87,10.87,0,0,0-11.7-9.36c-.81.06-1.66,1.68-.45,1.61a10.06,10.06,0,0,1,7.56,3c2.37,2.34,3.09,5.36,3.55,8.56a33.5,33.5,0,0,0,2.22,8.93,42.35,42.35,0,0,0,2.27,4.26,8.75,8.75,0,0,0,3,3.58c.73.41,1.68-.74,1.56-1.41-.31-1.68-1.43-3.13-2.31-4.57S379.73,281.65,378.86,280.14Z" fill="#d57940"/><path d="M554.9,55.07a30.8,30.8,0,0,1,.53,5.35c0,.13.08.14.17.12.09.22.54.08.68-.19a12.52,12.52,0,0,0,1.16-2.81c.23-.95.46-1.93.78-2.86.19-.54.39-1.06.57-1.59a23,23,0,0,0,1.91-8.69,24.2,24.2,0,0,0-.91-5.73c-.25-1-.54-1.91-.88-2.84a5.23,5.23,0,0,1-.44-1.6A3.22,3.22,0,0,0,556,37.5c.1,3.41.5,7.12-.6,9.63-1,2.32-1.78,4.28-1.89,4.56.16.35.36.69.51,1A11.51,11.51,0,0,1,554.9,55.07Z" fill="#d57940"/><path d="M404.82,156.62a44.45,44.45,0,0,0,6-5c.24-.27.08-.73-.32-.54a38.65,38.65,0,0,0-5.8,3.89c-1,.76-2,1.7-3.32,1.66a25.19,25.19,0,0,1-3.23-.39c-4.45-.7-8.63-2.62-13.07-3.25-.57-.08-1.42,1.05-.64,1.2,2.52.49,4.67,1.76,7.07,2.57a33.56,33.56,0,0,0,7.26,1.61,8.53,8.53,0,0,0,3.34-.05A8.79,8.79,0,0,0,404.82,156.62Z" fill="#d57940"/><path d="M393.81,119.64c2.48-.4,5.14.79,7.44-.53.23-.13.68-.71.28-.93-1-.55-2.37-.46-3.49-.61a12.56,12.56,0,0,0-3.87,0c-.61.11-1.17.35-1.77.52a3.61,3.61,0,0,1-1.94-.27,7,7,0,0,0-3.9.45c-.67.23-1,1.5,0,1.21a2.9,2.9,0,0,1,1.84.05c.55.17,1.09.41,1.65.57C391.39,120.48,392.51,119.85,393.81,119.64Z" fill="#d57940"/><path d="M533.28,67.81a44.56,44.56,0,0,1,3.92-2.62,14.9,14.9,0,0,1,2.2-1.07,7.77,7.77,0,0,1,1.62-.44c.21.08.43.15.63.25a8.5,8.5,0,0,1,2.86,2.33,2.34,2.34,0,0,0,.38.39,2.84,2.84,0,0,0,.22.34.73.73,0,0,0,.66.18c2.29-.54,1.18-3.37.53-4.79a7.32,7.32,0,0,0-4-3.85,32.61,32.61,0,0,0-3.17-1.18,18,18,0,0,1-2.68-.92,2.48,2.48,0,0,1-1-3.35s-.07,0-.09.07c-1,1.4-1.81,3.51.3,4.81,0,0-7.15,8.84-7.61,14.65A33.11,33.11,0,0,1,533.28,67.81Z" fill="#d57940"/><path d="M549.23,58.57a8,8,0,0,1,1.28,2.91,10.29,10.29,0,0,0,.78,2.85c.22.37.83-.23.89-.46a12.31,12.31,0,0,0-.35-5.39,21.56,21.56,0,0,0-2.22-4.77c-.84-1.65-2.08-3.08-2.94-4.74a13.77,13.77,0,0,1-1.07-2.46,7.64,7.64,0,0,1-.22-1.38c-.1,0-.2,0-.3.09-3.91,1.81,2.3,7.62,3.31,9.93.58,1.35-.15,1.38-1.33,1,.07.06.12.13.19.19A15.64,15.64,0,0,1,549.23,58.57Z" fill="#d57940"/><path d="M501.4,138.26c-.14,1.8-.74,4.53,0,6.21l0,0c.11.46.86-.1,1-.37.72-1.88.52-4.23.71-6.23q.31-3.3.87-6.59a105.4,105.4,0,0,1,3-12.52,108.78,108.78,0,0,1,4.3-12c.71-1.67,2.08-3.28,2.92-4.87-.86,1.53-2.26,2.94-3,4.16a54.16,54.16,0,0,0-6.82,16.18H504c-.76,3.08-1.41,6.2-1.87,9.33Q501.67,134.87,501.4,138.26Z" fill="#d57940"/><path d="M428.62,144.46c-.34.59.41.67.75.35,1.5-1.44,2.8-3.09,4.25-4.58a37,37,0,0,1,5.05-4.21c1.76-1.25,3.5-2.51,5.31-3.67l1.87-1.22a11.73,11.73,0,0,0-2.2.9c-5.6,3.2-7.58,6.05-10.66,6.74A27.1,27.1,0,0,0,428.62,144.46Z" fill="#d57940"/><path d="M395.56,122.7a.42.42,0,0,0-.2-.17l-.14,0a1.11,1.11,0,0,0-.26-.07,4.47,4.47,0,0,0-1.15-.14,6.21,6.21,0,0,1-1-.15l-.44-.14a1.58,1.58,0,0,0-1.67.68,1.39,1.39,0,0,0-.35.85.62.62,0,0,0,.35.6,6.56,6.56,0,0,0,1.91.39,3.83,3.83,0,0,0,1.12-.09c.13,0,.28-.07.4-.12a.29.29,0,0,0,.13,0c.31-.16.36-.18.13,0a1.36,1.36,0,0,0,.37-.18.43.43,0,0,0,.1-.09,1.51,1.51,0,0,0,.78-.83.57.57,0,0,0,0-.29c-.08-.12-.09-.15,0-.08S395.6,122.78,395.56,122.7Z" fill="#d57940"/><path d="M387.24,113.06s.36.22.14.07c.18.12.34.24.52.35.46.28.9.6,1.34.9a5.35,5.35,0,0,0,3.38.94,5.22,5.22,0,0,0,4-2.79,9.35,9.35,0,0,0,.7-1.7l-.12.28.1-.21.15-.3a3.71,3.71,0,0,0,.37-.9c.21-.91-.32-1.59-1.29-1.43a3.56,3.56,0,0,0-2,1.14c-.36.06-.72.13-1.08.18a6.53,6.53,0,0,0-2.46.89,6.86,6.86,0,0,0-3.11-.49,2.57,2.57,0,0,0-1.85,1.55c-.22.54-.15,1.43.65,1.43h.4c.15,0,.18,0,.09,0S387.11,113,387.24,113.06Z" fill="#d57940"/><path d="M394.8,122.38l.16,0,.05,0Z" fill="#d57940"/><path d="M438.07,443.57a18.5,18.5,0,0,1-.22-3.86c.06-.94.1-2.66.93-3.26a.91.91,0,0,0,.17-.17,3.68,3.68,0,0,0,.58-.08c.67-.16,1.65-1,1.16-1.75s-1.88-1.25-2.84-1.63c-1.12-.45-2.26-.87-3.36-1.36a52.12,52.12,0,0,1-6.44-3.41,40.62,40.62,0,0,1-5.67-4.15,17.44,17.44,0,0,1-2.71-3.11,1.05,1.05,0,0,0,.22-1.1,32.9,32.9,0,0,1-2.82-7.8,22.91,22.91,0,0,1-.7-8,18.28,18.28,0,0,0,.45-4c-.19-1.46-1.16-2.38-2.09-3.44a29.09,29.09,0,0,1-4.43-6.95,79.89,79.89,0,0,1-3.86-10.14c-.79-2.85-1.45-5.74-2-8.65a72.82,72.82,0,0,1-1.6-10.78,18.44,18.44,0,0,1,1.77-9.57,9.49,9.49,0,0,1,1.13-1.64,21.39,21.39,0,0,1,3.64-2.76,17.93,17.93,0,0,1,2.14-.8c3.51-1.07,7.05-2.07,10.59-3.06l.9-.25a10.16,10.16,0,0,1,1.23.08c4.16.51,8,2.65,11.33,5.13a31,31,0,0,0,2.81,2.69,30.26,30.26,0,0,0,5.06,3.33,16.35,16.35,0,0,0,4.19,1.84l.19.07,0,0,.41.13a1.58,1.58,0,0,0,.9-.15c.08-1.5.12-3,.09-4.37a39.46,39.46,0,0,1-3.67-1.86c-.68-.53-1.34-1.07-2-1.6a75.82,75.82,0,0,0-6.26-4.9l-.13-.08a24.18,24.18,0,0,0-3.16-2.44,9.69,9.69,0,0,0-5.23-1.42,19,19,0,0,0-3.09-.52,1,1,0,0,0-.71-.46,26.78,26.78,0,0,0-11.94-.24,2.44,2.44,0,0,0-1.95.54,15.12,15.12,0,0,0-4.76,2.76h0c.1-.93-.86-1.29-1.61-1.19a3.41,3.41,0,0,0-1.83,1c-.5-1-1.87-.58-2.92.34-.13-2.29-.24-4.58-.19-6.86,0-1.74-2.7-.11-2.8,1.11-.2,2.56-.34,5.08-.42,7.59-4.55-3.93-10.32-6.93-16.34-7.41.49-.68.68-1.51-.31-1.72a8.2,8.2,0,0,0-1.32-.13c.27-.74.12-1.47-.76-1.63a17.51,17.51,0,0,1-4.41-1.3,1.08,1.08,0,0,0-.48-1.29.78.78,0,0,0-.21,0l-.54,0a3.08,3.08,0,0,0-1.41.7,34.86,34.86,0,0,0-9.87,13.86.81.81,0,0,0,0,.59,40.35,40.35,0,0,0-2.77,3.69c.38,5.15.94,10.81,1.71,16.32,0-.81-.06-1.62-.07-2.42s.18-1.46.3-2.18c.61-3.53,1.59-7.29,4.24-9.86a22.31,22.31,0,0,1,13.07-5.8,45.85,45.85,0,0,1,5.86,0c1.08.34,2.15.7,3.21,1.12,2.65,1.05,5.28,2.17,8.19,2.24a3.74,3.74,0,0,0,1.88-.77c0,2.42.09,4.83.31,7.28A122.6,122.6,0,0,0,400,372.06c.57,2.26,1.23,4.49,1.93,6.7-.22,2-.73,4.05-1,6.07q-.42,3.29-1,6.55c-.68,4.11-1.53,8.18-2.47,12.24-1.73,7.5-3.28,15-6.49,22.05-.36.78.5.88,1,.45.3-.28.52-.62.79-.92,2.32-.57,3.9,4.2,4.42,5.7a34,34,0,0,1,1,3.72c0,.19.09.39.12.59.28,1.47.49,2.94.67,4.42a75.47,75.47,0,0,1-.72,17.12c-.78,5.86-1.79,11.67-2,17.59a48.09,48.09,0,0,0,.38,8.48,28,28,0,0,0,.93,4.15,8.93,8.93,0,0,0,.4,1.11c-.48-10.19.13-24,3.06-33.56,4.19-13.65-4.9-42.21-4.9-42.21s5.95-26.78,6-36.39c0,0,8.39,22.24,12.94,26,0,0-3.54,9.61,5.81,20.47S433,433.54,433,433.54a46,46,0,0,0,7.43,18.94c-.24-.72-.49-1.43-.71-2.15A49.09,49.09,0,0,1,438.07,443.57Z" fill="#d57940"/><path d="M392.32,403.08c0-.43-.69,0-.69.27A58.44,58.44,0,0,1,390.35,415a45,45,0,0,1-1.49,5.46c-.63,1.78-1.45,3.48-2.13,5.24-.11.27.3.11.38,0a42.85,42.85,0,0,0,4-11A45.54,45.54,0,0,0,392.32,403.08Z" fill="#d57940"/><path d="M434.11,406.13c-.43-.16-1.16.69-.68.87a6.89,6.89,0,0,1,4,3.83,6.59,6.59,0,0,1,.48,3,14.24,14.24,0,0,1-.8,3c-.13.45.45.22.59.06,1.5-1.67,1.54-4.56.77-6.55A7.41,7.41,0,0,0,434.11,406.13Z" fill="#d57940"/><path d="M381.36,425.14a31.35,31.35,0,0,1-1.89-5.14,94.46,94.46,0,0,1-2.21-10.83c-.08-.49-1.05.11-1,.52A65.86,65.86,0,0,0,378.15,421a30.52,30.52,0,0,0,2.05,5.23c.74,1.44,1.78,3.33,3.16,4.24.28.18.82-.34.69-.63a16.39,16.39,0,0,0-1.28-2.06A28.09,28.09,0,0,1,381.36,425.14Z" fill="#d57940"/><path d="M398.26,517.85c-1,2.38-2.43,4.52-3.59,6.82-.73,1.43,1,1.67,1.81.84.28-.27.53-.57.78-.86a113.09,113.09,0,0,1,1.29,19.71c-.16,4.93-.37,10.81-5.57,13a25.55,25.55,0,0,1-7,1.52c-1.19.14-2.39.26-3.59.36-3.56-.26-7.24-.49-10.58-1.8a15,15,0,0,1-5.67-4.18,9.27,9.27,0,0,0,2.76,6.3c6.24,6.41,15.34,1.35,22.41,2.36s10.79-5.73,9.44-18.53-3.71-19.38-1.69-24.77a24.82,24.82,0,0,0,1.38-9.3c-.06.47-.09.94-.17,1.41A31.92,31.92,0,0,1,398.26,517.85Z" fill="#d57940"/><path d="M507.52,527.07c-.28.78-.6,1.53-.93,2.24a16.78,16.78,0,0,1-6.57,7.63,12,12,0,0,1-4.42,1.52c-.47,0-1-.09-1.42-.16-1.32-.21-2.62-.47-3.92-.81-.88-.23-1.76-.41-2.63-.63-.33-.21-.67-.39-1-.63a15.59,15.59,0,0,1-2.22-5.05c-1.12-4.48-1.53-9-3.57-13.23a65.29,65.29,0,0,0-8.18-12.19,31.37,31.37,0,0,1-4.4-7.47c-.4-.92-.74-1.87-1.09-2.82a84.22,84.22,0,0,0,10.58,24.26c3.54,5,1,23,15.16,25.52s14.41-3,16.18-7.33c1.57-3.81-.25-14.38-1.38-17.95A26,26,0,0,1,507.52,527.07Z" fill="#d57940"/><path d="M370.84,330.12c8.58,6.66,13.14,12.84,27.74,12.44,18.7-.5,22.17-8.42,35-2.53s10,13.82,24.3,12.3,13.64-10.78,13.64-10.78-5.89-20.47-21.81-26.54S427.22,287.72,397.4,287s-29.32,6.4-29.32,6.4-17.88-8.84-16.68-16a49.25,49.25,0,0,1,3.26-10.63s-13.2-2-13.87,15.85-5.73,10.61-3.71,21.06c1,5.31,3.59,8.48,7.86,11.41Z" fill="#dfeaf6"/><path d="M344.94,315.05c-2.23,4.45-5.62,13-4,21.28,2.35,12,5.05,25.94,7.58,31.84s15.33,14.43,15.33,14.43c-12-40.27,7-52.48,7-52.48C370.08,322.67,344.94,315.05,344.94,315.05Z" fill="#849038"/><path d="M280.49,295.77q1.35-7.11,2.08-14.32a77.65,77.65,0,0,1,2.14-13.74,30.87,30.87,0,0,1,2-5.26c-2.53,2.82-4.44,5.72-5.07,9.31-1.54,8.7-3.33,17.91-3.08,22s-2.48,9.74-.15,11.17c.22-.69.43-1.39.61-2.09C279.63,300.52,280.05,298.13,280.49,295.77Z" fill="#d57940"/><path d="M296.35,282a4.68,4.68,0,0,0-3.38-2.43,4.88,4.88,0,0,0-4,2.06,9.84,9.84,0,0,0-1.6,4.41c-.26,1.56-.47,3.13-.7,4.69a2.74,2.74,0,0,0-.05.28l.46-1.36c1.79-5.37,5.63-12.54,8.7-5.12s-.41,11.42,4.2,13.24a12.93,12.93,0,0,1-1.93-6.47C297.87,288.18,298,284.81,296.35,282Z" fill="#d57940"/><path d="M331,225.5l.12-.07Z" fill="#d57940"/><path d="M334.84,225.46a8,8,0,0,1,2.17,4.13,20.43,20.43,0,0,1,.05,9.95,25.89,25.89,0,0,1-2.88,7.1l-.4.37a37.19,37.19,0,0,1-4.14,3.48,49.28,49.28,0,0,1-9.89,5.37c-3.45,1.45-7,2.65-10.54,3.86-3,1-6.43,2.07-8.08,5a6.16,6.16,0,0,0-.12,5.43c.21.53.43,1.07.67,1.6a13.9,13.9,0,0,0-.43-3.08s.52-5.51,13.7-7.81,29.94-11.9,32.88-16.25a109.14,109.14,0,0,0,5.76-9.85l-10.84-12.65a3.21,3.21,0,0,0-1,.33c.07-.3.17-.58.23-.89a1.71,1.71,0,0,0,0-.32l-.81-.94a.9.9,0,0,0-.16,0h0l0-.17-1.69-2h0l-.93-1.09a1.87,1.87,0,0,0-.56.1,2.1,2.1,0,0,0-.54.31c-.09-.48-.46-.6-.89-.52.14,2.36-.33,5.65-3.54,7.48l-.33.19A3.77,3.77,0,0,1,334.84,225.46Z" fill="#d57940"/><path d="M348.62,166.41s-23.25,11.12-15.92,28.81c0,0-9.35,2.78-4.3,14.15,0,0-7.58,4.8,12.64,18.45s12.55,41.63,12.55,41.63,7.25-19.73,16.68-30.68S354.18,204.06,348.62,166.41Z" fill="#849038"/><path d="M406,90.9a3,3,0,0,0-1.79-.25c-.71,0-1.4.13-2.1.22a9.63,9.63,0,0,1-3.82,0,5.85,5.85,0,0,0-1.94-.28,4.53,4.53,0,0,0-1.9.55,6.88,6.88,0,0,0-2.51,2.76,1,1,0,0,0-.28.75s0,0,0,0a.66.66,0,0,0,0,.15c.21.33.73.24,1,0a5.48,5.48,0,0,1,3.39-.84c.77,0,1.56.06,2.32,0a4.93,4.93,0,0,0,1.32-.3,18.15,18.15,0,0,0,2-.26,15.85,15.85,0,0,0,3.61-.87C405.82,92.32,406.72,91.38,406,90.9Z" fill="#824c24"/><path d="M404.85,97.56a5.36,5.36,0,0,0-1.13.38,6.68,6.68,0,0,1-1.22.47,5.65,5.65,0,0,1-2.71,0c-1.86-.41-3.76-1.63-5.67-.72-.33.15-.72.48-.71.88s.39.47.69.33a3.37,3.37,0,0,1,2.84.35,8,8,0,0,0,2.86.82c1.8.1,4.2-.29,5.29-1.88C405.25,98,405.33,97.45,404.85,97.56Z" fill="#824c24"/><path d="M387.38,97.25a4.88,4.88,0,0,0-1.39-1.4,3,3,0,0,0-.31-.16.41.41,0,0,0-.14-.32c-.19-.18-.41-.33-.59-.53a3.65,3.65,0,0,0-.74-.61,6.76,6.76,0,0,0-1.45-.72,7.73,7.73,0,0,0-1.71-.4l-.43,0a1.6,1.6,0,0,0-.53.06l-.07,0s0,0-.07,0a3.3,3.3,0,0,0-1.22.56,1.55,1.55,0,0,0-.62.72c-.08.19-.15.53,0,.69l.31.24c-.18-.14.05.06.11.09a.86.86,0,0,0,.32.1c.12,0,.07,0,0,0a2.62,2.62,0,0,0,.4.11h.37a11.62,11.62,0,0,1,1.57.21l.15,0h.06l.37.11c.24.08.49.16.73.26l.77.31A2.46,2.46,0,0,1,384,97a.92.92,0,0,0,.69,0l.08,0,.11.1a4.6,4.6,0,0,1,1.1,1.42,9,9,0,0,1,.68,3.85,35.68,35.68,0,0,1-.3,4.38c-.1.73-.23,1.46-.33,2.19a5.89,5.89,0,0,0-.15,2c0,.27.44,0,.5-.15a13.42,13.42,0,0,0,1.15-4.65c.24-1.64.47-3.3.56-5A6.31,6.31,0,0,0,387.38,97.25Z" fill="#824c24"/><path d="M385.32,99a5.66,5.66,0,0,0-.88.29,6.3,6.3,0,0,1-.84.18,5.81,5.81,0,0,1-1.76-.16c-1.23-.19-2.4-1-3.67-.69a1,1,0,0,0-.74.67.35.35,0,0,0,.42.47,3.53,3.53,0,0,1,1.91.37,5.61,5.61,0,0,0,1.89.4,10,10,0,0,0,2-.28,4.29,4.29,0,0,0,1.79-.74C385.58,99.31,385.68,98.9,385.32,99Z" fill="#824c24"/><path d="M389.36,112.36l-.25-.15a1.19,1.19,0,0,1-.15-.09,2.14,2.14,0,0,0-.27-.06h0l-.05,0-.16,0-.3-.13-.32-.14-.14-.07h0l-.08-.06a1.52,1.52,0,0,1-.22-.22.76.76,0,0,1-.11-.14l0,0c.05.07,0,0,0,0-.13-.25-.44-.2-.65-.07s-.5.45-.39.72a2.59,2.59,0,0,0,.74,1,1.7,1.7,0,0,0,.58.34,2.06,2.06,0,0,0,.88.17,2.42,2.42,0,0,0,.8-.16.6.6,0,0,0,.36-.3A.42.42,0,0,0,389.36,112.36Z" fill="#824c24"/><path d="M396.9,110.34a.65.65,0,0,0-.67.07,4.81,4.81,0,0,0-.62.47l-.13.11c.07-.06,0,0,0,0l-.14.09,0,0c-.07,0-.25.1-.13.06a1.57,1.57,0,0,1-.3,0h-.22a1.19,1.19,0,0,1-.32,0c-.49-.12-.94-.34-1.44-.44a2.48,2.48,0,0,0-1.68.31c-.34.18-.74.7-.6,1.11s.65.28.95.13h.17l.17,0a2.59,2.59,0,0,1,.61.15,4.28,4.28,0,0,0,1.57.36,3.09,3.09,0,0,0,1.59-.59,4,4,0,0,0,1.28-1.26A.47.47,0,0,0,396.9,110.34Z" fill="#824c24"/><path d="M400.85,118.26a2.84,2.84,0,0,0-1.43-.36,4.44,4.44,0,0,0-.81-.33,6.38,6.38,0,0,0-1.75-.16,10.71,10.71,0,0,0-3.53.7,2.32,2.32,0,0,1-1.4-.06,4.15,4.15,0,0,0-1.68-.12c-1,.17-1.85.86-2.87.91a1,1,0,0,0-.5.19l-.15,0c-.51.1-.79.84-.05.7l.31,0a4,4,0,0,0,.7-.07,21.19,21.19,0,0,1,2.53-.08,18.25,18.25,0,0,0,3.54.07c1-.17,1.83-.59,2.8-.76.33,0,.66,0,1,0s.64-.07,1-.12a15.21,15.21,0,0,0,1.91,0C400.59,118.69,401.08,118.43,400.85,118.26Z" fill="#824c24"/><path d="M395.18,122a1.55,1.55,0,0,0-.48,0h-.15l-.32,0c-.16,0-.32,0-.49.06l-.36,0h-.46c-.33,0-.66,0-1-.08a1.08,1.08,0,0,0-1,.61c-.13.29-.14.7.26.73a9.84,9.84,0,0,0,2,0,5,5,0,0,0,1.08-.21,1.83,1.83,0,0,0,1.06-.66A.31.31,0,0,0,395.18,122Z" fill="#824c24"/><path d="M426,131.13a4.27,4.27,0,0,0-3.73-4.23,5.67,5.67,0,0,0-2.83-9.79l1-27.11-17-22.33-22,.51-9.77,27.21s.08,15.67,3.53,14.4,4.13-6.57,3.21-8.27.16-1.08,1.85-3.44-.42-3,1.51-4.29,1.44-3.2,2.78-6.91,5.06-5.64,4.05-9.52,6.16-2,6.16-2,7.15,4.72,6.14,8,3.2,7.92,5.56,9.35,1.77,2.11-.42,5,.92,2.61,2.1,4.89-1.93,2.44-2.69,5.7,4.38,2.72,4.38,2.72c-2.28.85-2.61,6.24-2.61,6.24,0-2.61,5.3-3.79,5.3-3.79s-1.43.63-2.19,3.66a15.65,15.65,0,0,0-.25,8.22c0,.12,1.48,2,1.56,3.24a3.55,3.55,0,0,1-3.33,4c2.44,4.13,6.66-.76,6.66-.76s-5,9.94,2.45,11.21c6.81,1.15,7-7.14,7-8.55A4.25,4.25,0,0,0,426,131.13Z" fill="#a25341"/><path d="M419.13,135.4c-.48,3.06-3.81,1.86-5.59,1-.46,2.79,0,5.93,3.92,6.61,6.81,1.15,7-7.14,7-8.55a4.23,4.23,0,0,0,1-5.51C424.36,132.49,419.71,131.82,419.13,135.4Z" fill="#713b2b"/><path d="M526.56,56.62s5.22,5.44,17.24,5.36c0,0-.26-.89-8.15-4-3.88-3.17-2-7.93-3.26-8.14C529,49.26,526.56,56.62,526.56,56.62Z" fill="#a25341"/><path d="M423.47,78.08a3.76,3.76,0,1,0-3.76,3.75A3.76,3.76,0,0,0,423.47,78.08Z" fill="#9b71ae"/><path d="M422.44,75.5a3.79,3.79,0,0,1,.27,1.4,3.75,3.75,0,0,1-6.48,2.57,3.75,3.75,0,1,0,6.21-4Z" fill="#6b4e77"/><path d="M423.6,84a3.75,3.75,0,1,0-3.75,3.75A3.75,3.75,0,0,0,423.6,84Z" fill="#9b71ae"/><path d="M422.57,81.44a3.61,3.61,0,0,1,.28,1.4,3.75,3.75,0,0,1-6.48,2.57,3.75,3.75,0,1,0,6.2-4Z" fill="#6b4e77"/><path d="M429.91,81.44a4.44,4.44,0,1,0-4.44,4.44A4.44,4.44,0,0,0,429.91,81.44Z" fill="#9b71ae"/><path d="M428.69,78.4a4.3,4.3,0,0,1,.33,1.65,4.43,4.43,0,0,1-7.66,3,4.43,4.43,0,0,0,8.55-1.65A4.36,4.36,0,0,0,428.69,78.4Z" fill="#6b4e77"/><path d="M427.31,88.16a3,3,0,1,0-3.05,3A3,3,0,0,0,427.31,88.16Z" fill="#9b71ae"/><path d="M426.47,86.08a3,3,0,0,1-5,3.21,3,3,0,0,0,5.87-1.13A3,3,0,0,0,426.47,86.08Z" fill="#6b4e77"/><path d="M431.67,86.63a3,3,0,1,0-3,3.05A3,3,0,0,0,431.67,86.63Z" fill="#9b71ae"/><path d="M430.83,84.55A3,3,0,0,1,428,88.72a3,3,0,0,1-2.2-1,3,3,0,0,0,5.86-1.13A3,3,0,0,0,430.83,84.55Z" fill="#6b4e77"/><path d="M426.25,93.58A4.45,4.45,0,1,0,421.8,98,4.44,4.44,0,0,0,426.25,93.58Z" fill="#9b71ae"/><path d="M425,90.54a4.3,4.3,0,0,1,.33,1.65,4.43,4.43,0,0,1-7.66,3,4.44,4.44,0,0,0,8.56-1.65A4.37,4.37,0,0,0,425,90.54Z" fill="#6b4e77"/><path d="M430,91.76a3.12,3.12,0,1,0-3.12,3.12A3.12,3.12,0,0,0,430,91.76Z" fill="#9b71ae"/><path d="M429.17,89.62a3.2,3.2,0,0,1,.23,1.16A3.11,3.11,0,0,1,424,92.92a3.12,3.12,0,1,0,5.15-3.3Z" fill="#6b4e77"/><path d="M430,97.41a3.12,3.12,0,1,0-3.12,3.12A3.12,3.12,0,0,0,430,97.41Z" fill="#9b71ae"/><path d="M429.17,95.27a3.2,3.2,0,0,1,.23,1.16A3.11,3.11,0,0,1,424,98.57a3.12,3.12,0,1,0,5.15-3.3Z" fill="#6b4e77"/><path d="M424.15,98.77a3.12,3.12,0,1,0-3.12,3.12A3.12,3.12,0,0,0,424.15,98.77Z" fill="#9b71ae"/><path d="M423.29,96.63a3,3,0,0,1,.23,1.16,3.11,3.11,0,0,1-5.38,2.14,3.12,3.12,0,1,0,5.15-3.3Z" fill="#6b4e77"/><path d="M429.77,103a4.3,4.3,0,1,0-4.3,4.29A4.3,4.3,0,0,0,429.77,103Z" fill="#9b71ae"/><path d="M428.59,100a4.41,4.41,0,0,1,.31,1.59,4.29,4.29,0,0,1-7.41,2.94,4.29,4.29,0,1,0,7.1-4.53Z" fill="#6b4e77"/><path d="M295.88,285.21a3.47,3.47,0,1,0-3.47,3.47A3.47,3.47,0,0,0,295.88,285.21Z" fill="#9b71ae"/><path d="M294.93,282.83a3.47,3.47,0,0,1-5.74,3.67,3.47,3.47,0,1,0,5.74-3.67Z" fill="#6b4e77"/><path d="M300.7,330.73a2.18,2.18,0,1,0-2.18,2.18A2.18,2.18,0,0,0,300.7,330.73Z" fill="#9b71ae"/><path d="M300.1,329.23a2.21,2.21,0,0,1,.16.81,2.18,2.18,0,0,1-3.76,1.5,2.18,2.18,0,1,0,3.6-2.31Z" fill="#6b4e77"/><path d="M292.66,322.3a2.18,2.18,0,1,0-2.18,2.18A2.18,2.18,0,0,0,292.66,322.3Z" fill="#9b71ae"/><circle cx="293.1" cy="318.11" r="2.18" fill="#9b71ae"/><path d="M302.41,318.89a2.18,2.18,0,1,0-2.18,2.18A2.18,2.18,0,0,0,302.41,318.89Z" fill="#9b71ae"/><path d="M301.81,317.39a2.21,2.21,0,0,1,.16.81,2.19,2.19,0,0,1-3.77,1.5,2.18,2.18,0,1,0,3.61-2.31Z" fill="#6b4e77"/><path d="M290.24,313a2.18,2.18,0,1,0-2.18,2.18A2.18,2.18,0,0,0,290.24,313Z" fill="#9b71ae"/><path d="M289.64,311.51a2.21,2.21,0,0,1,.16.81,2.18,2.18,0,0,1-2.18,2.18,2.14,2.14,0,0,1-1.58-.68,2.18,2.18,0,1,0,3.6-2.31Z" fill="#6b4e77"/><path d="M286.54,318.06a2.18,2.18,0,1,0-2.18,2.18A2.19,2.19,0,0,0,286.54,318.06Z" fill="#9b71ae"/><path d="M282.34,312a2.18,2.18,0,1,0-2.18,2.18A2.18,2.18,0,0,0,282.34,312Z" fill="#9b71ae"/><path d="M281.74,310.49a2.17,2.17,0,0,1-2,3,2.14,2.14,0,0,1-1.58-.68,2.18,2.18,0,1,0,3.6-2.31Z" fill="#6b4e77"/><path d="M281.63,307.23a2.18,2.18,0,1,0-2.18,2.18A2.18,2.18,0,0,0,281.63,307.23Z" fill="#9b71ae"/><path d="M281,305.74a2.17,2.17,0,0,1-3.6,2.3,2.18,2.18,0,1,0,3.6-2.3Z" fill="#6b4e77"/><path d="M285.06,308.65a2.88,2.88,0,1,0-2.88,2.87A2.88,2.88,0,0,0,285.06,308.65Z" fill="#9b71ae"/><path d="M284.51,315.87a2.88,2.88,0,1,0-2.88,2.88A2.88,2.88,0,0,0,284.51,315.87Z" fill="#9b71ae"/><path d="M283.72,313.9a2.91,2.91,0,0,1,.21,1.07,2.87,2.87,0,0,1-5,2,2.88,2.88,0,1,0,4.76-3Z" fill="#6b4e77"/><path d="M292.29,315.87a2.88,2.88,0,1,0-2.87,2.88A2.87,2.87,0,0,0,292.29,315.87Z" fill="#9b71ae"/><path d="M297.84,308.71a2.88,2.88,0,1,0-4.07,0A2.89,2.89,0,0,0,297.84,308.71Z" fill="#9b71ae"/><path d="M298.67,306.76a2.93,2.93,0,0,1-.61.9,2.87,2.87,0,0,1-4.06,0,2.84,2.84,0,0,1-.84-2.12,2.88,2.88,0,1,0,5.51,1.22Z" fill="#6b4e77"/><path d="M293.81,311.64a2.88,2.88,0,1,0-2.87,2.88A2.87,2.87,0,0,0,293.81,311.64Z" fill="#9b71ae"/><path d="M301.42,305.54a2.88,2.88,0,1,0-2.87,2.88A2.87,2.87,0,0,0,301.42,305.54Z" fill="#9b71ae"/><path d="M290.73,305.84a2.88,2.88,0,1,0-4,1A2.88,2.88,0,0,0,290.73,305.84Z" fill="#9b71ae"/><path d="M300.86,316.33A2.88,2.88,0,1,0,298,319.2,2.88,2.88,0,0,0,300.86,316.33Z" fill="#9b71ae"/><path d="M300.07,314.36a2.86,2.86,0,0,1-2.67,3.94,2.9,2.9,0,0,1-2.09-.9,2.88,2.88,0,0,0,5.55-1.07A2.82,2.82,0,0,0,300.07,314.36Z" fill="#6b4e77"/><path d="M298.26,322.3a3.85,3.85,0,1,0-3.84,3.85A3.84,3.84,0,0,0,298.26,322.3Z" fill="#9b71ae"/><path d="M297.3,327.1a2.88,2.88,0,1,0-2.88,2.87A2.88,2.88,0,0,0,297.3,327.1Z" fill="#9b71ae"/><path d="M296.5,325.12a2.76,2.76,0,0,1,.21,1.07,2.87,2.87,0,0,1-5,2,2.87,2.87,0,1,0,4.75-3Z" fill="#6b4e77"/><path d="M301.56,326.58a2.88,2.88,0,1,0-2.88,2.87A2.88,2.88,0,0,0,301.56,326.58Z" fill="#9b71ae"/><path d="M300.76,324.6a2.77,2.77,0,0,1,.22,1.07,2.87,2.87,0,0,1-5,2,2.87,2.87,0,1,0,4.75-3Z" fill="#6b4e77"/><path d="M303.87,312a2.88,2.88,0,1,0-2.88,2.87A2.88,2.88,0,0,0,303.87,312Z" fill="#9b71ae"/><path d="M303.08,310a3,3,0,0,1,.21,1.07,2.87,2.87,0,0,1-5,2,2.88,2.88,0,1,0,4.76-3Z" fill="#6b4e77"/><path d="M286,301a2.88,2.88,0,1,0-2.88,2.87A2.88,2.88,0,0,0,286,301Z" fill="#9b71ae"/><path d="M285.2,299a2.86,2.86,0,0,1-2.67,3.94,2.86,2.86,0,0,1-2.08-.9A2.87,2.87,0,0,0,286,301,2.82,2.82,0,0,0,285.2,299Z" fill="#6b4e77"/><path d="M303,307.57a3.95,3.95,0,1,0-3.94,3.95A3.94,3.94,0,0,0,303,307.57Z" fill="#9b71ae"/><path d="M296,296a3.95,3.95,0,1,0-3.95,3.94A4,4,0,0,0,296,296Z" fill="#9b71ae"/><path d="M301.91,304.87a3.94,3.94,0,0,1-6.52,4.17,3.94,3.94,0,1,0,6.52-4.17Z" fill="#6b4e77"/><path d="M299.75,294.82a3.95,3.95,0,1,0-3.95,3.95A3.94,3.94,0,0,0,299.75,294.82Z" fill="#9b71ae"/><path d="M298.66,292.12a3.94,3.94,0,0,1-6.52,4.17,3.94,3.94,0,1,0,6.52-4.17Z" fill="#6b4e77"/><path d="M289.15,305.42a3.95,3.95,0,1,0-3.94-3.95A4,4,0,0,0,289.15,305.42Z" fill="#9b71ae"/><path d="M291.86,304.34a3.94,3.94,0,0,1-4.17-6.53,3.94,3.94,0,1,0,4.17,6.53Z" fill="#6b4e77"/><path d="M289,313a3.95,3.95,0,1,0-3.94,3.94A3.94,3.94,0,0,0,289,313Z" fill="#9b71ae"/><path d="M287.92,310.3a4,4,0,0,1,.28,1.47,3.93,3.93,0,0,1-6.8,2.7,3.94,3.94,0,1,0,6.52-4.17Z" fill="#6b4e77"/><path d="M291.1,321a3.95,3.95,0,1,0-5.43,1.26A3.94,3.94,0,0,0,291.1,321Z" fill="#9b71ae"/><path d="M291.61,318.11a3.7,3.7,0,0,1-.53,1.39,3.94,3.94,0,0,1-7.21-1.3A3.94,3.94,0,0,0,291.1,321,3.87,3.87,0,0,0,291.61,318.11Z" fill="#6b4e77"/><path d="M293.12,325.12A2.08,2.08,0,1,0,291,327.2,2.08,2.08,0,0,0,293.12,325.12Z" fill="#9b71ae"/><path d="M292.55,323.7a2.2,2.2,0,0,1,.15.77,2.08,2.08,0,0,1-3.59,1.43,2.08,2.08,0,0,0,4-.78A2.06,2.06,0,0,0,292.55,323.7Z" fill="#6b4e77"/><path d="M299.64,319.74a3,3,0,1,0-3,3A3,3,0,0,0,299.64,319.74Z" fill="#9b71ae"/><path d="M301.85,324.44a2.76,2.76,0,1,0-3.85-.6A2.75,2.75,0,0,0,301.85,324.44Z" fill="#9b71ae"/><path d="M302.93,322.72a2.7,2.7,0,0,1-.71.76,2.75,2.75,0,0,1-3.85-.6,2.71,2.71,0,0,1-.47-2.12,2.75,2.75,0,0,0,4,3.68A2.78,2.78,0,0,0,302.93,322.72Z" fill="#6b4e77"/><path d="M303.85,316.33a2.76,2.76,0,1,0-2.75,2.75A2.76,2.76,0,0,0,303.85,316.33Z" fill="#9b71ae"/><path d="M303.09,314.44a2.69,2.69,0,0,1,.2,1,2.75,2.75,0,0,1-2.75,2.75,2.72,2.72,0,0,1-2-.86,2.75,2.75,0,1,0,4.54-2.91Z" fill="#6b4e77"/><circle cx="300.86" cy="303.26" r="2.75" fill="#9b71ae"/><path d="M302.85,301.37a2.7,2.7,0,0,1,.21,1,2.75,2.75,0,0,1-4.75,1.89,2.75,2.75,0,1,0,4.54-2.91Z" fill="#6b4e77"/><circle cx="294.21" cy="315.19" r="2.75" fill="#9b71ae"/><path d="M296.24,313.3a2.69,2.69,0,0,1,.2,1,2.75,2.75,0,0,1-4.75,1.89,2.75,2.75,0,0,0,5.31-1A2.73,2.73,0,0,0,296.24,313.3Z" fill="#6b4e77"/><path d="M408,74.66s.13-4.73-4.23-4.61v.82s-5.56-.63-7.71,2a7.44,7.44,0,0,1,4.84.25s-6.38,1.61-3.87,8.29c0,0,.9,2.25-.51,3.68L402,82.88s8.25,2.35,8.88-4.48c0,0,2.4-.16,2.09,3C413,81.44,415.85,75.92,408,74.66Z" fill="#849038"/><path d="M411.08,75.61c-1,8-10.81,5.19-10.81,5.19L397.21,82a3.3,3.3,0,0,1-.68,3.08L402,82.88s8.25,2.35,8.88-4.48c0,0,2.4-.16,2.09,3C413,81.44,415,77.62,411.08,75.61Z" fill="#606b2e"/><path d="M294.23,302.31s-1.69-2.82-4.2-1.13l.31.48s-3.5,1.7-3.77,4a5.15,5.15,0,0,1,2.93-1.65,4.05,4.05,0,0,0,.81,6.31,2.57,2.57,0,0,1,1.07,2.34l2.4-3.36s5.71-1.68,3.54-5.92c0,0,1.35-1,2.35,1C299.67,304.44,299.29,300.14,294.23,302.31Z" fill="#849038"/><path d="M296.38,301.73c2.38,5-4.41,7.06-4.41,7.06l-1.34,1.86a2.31,2.31,0,0,1,.75,2.06l2.4-3.36s5.71-1.68,3.54-5.92c0,0,1.35-1,2.35,1A3,3,0,0,0,296.38,301.73Z" fill="#606b2e"/><path d="M297.22,300.51a2.88,2.88,0,1,0-2.88,2.87A2.88,2.88,0,0,0,297.22,300.51Z" fill="#9b71ae"/><path d="M296.43,298.54a2.86,2.86,0,0,1-2.67,3.94,2.86,2.86,0,0,1-2.08-.9,2.87,2.87,0,0,0,5.54-1.07A2.82,2.82,0,0,0,296.43,298.54Z" fill="#6b4e77"/><path d="M294.07,289.69a5.14,5.14,0,1,0-5.13,5.13A5.13,5.13,0,0,0,294.07,289.69Z" fill="#9b71ae"/><path d="M292.66,286.17a5,5,0,0,1,.38,1.91,5.13,5.13,0,0,1-8.86,3.52,5.13,5.13,0,1,0,8.48-5.43Z" fill="#6b4e77"/><path d="M299.25,289.69a3.37,3.37,0,1,0-3.37,3.37A3.37,3.37,0,0,0,299.25,289.69Z" fill="#9b71ae"/><path d="M298.33,287.38a3.47,3.47,0,0,1,.24,1.25,3.37,3.37,0,0,1-5.82,2.31,3.37,3.37,0,1,0,5.58-3.56Z" fill="#6b4e77"/><path d="M362,251.15c-.08-9.08-2.65-21-13.8-28.55-15.33-10.35-14.47-15.55-13.25-17.4.4.74.83,1.47,1.29,2.16a19.79,19.79,0,0,0,8.45,7.32c.2.09.65-.28.45-.48a51.26,51.26,0,0,1-3.73-3.93c-1.13-1.39-2.3-2.74-3.3-4.23a33.65,33.65,0,0,1-3.85-8.19,8,8,0,0,1,3.67-6.44c.19.94.41,1.86.66,2.77A50.72,50.72,0,0,0,342.1,203c1.35,2.71,3,5.77,5.4,7.63.48.37,1.3-.33,1.16-.88-.75-3-2.61-5.65-4-8.34a50.09,50.09,0,0,1-3.43-7.88,34,34,0,0,1-1.4-16.09c1.86-4.61,5.5-8.32,8.83-11a.15.15,0,0,0,0-.07s-23.25,11.12-15.92,28.81c0,0-9.35,2.78-4.3,14.15,0,0-7.58,4.8,12.64,18.45s12.55,41.63,12.55,41.63A154,154,0,0,1,362,251.15Z" fill="#646f30"/><path d="M364.26,236.92a40.5,40.5,0,0,0-1.79-4.67,38.31,38.31,0,0,0-2.46-4.6,18.59,18.59,0,0,0-3-4.05c-.21-.18-.51.29-.42.47.73,1.52,1.76,2.94,2.59,4.4s1.58,3,2.28,4.53a53.62,53.62,0,0,1,3.48,9.64c.09.35.58-.09.53-.34A51.51,51.51,0,0,0,364.26,236.92Z" fill="#646f30"/><path d="M363.35,228c-.14-.17-.4.14-.32.3a49.92,49.92,0,0,1,4,9.91c.07.28.43-.08.41-.27A19.2,19.2,0,0,0,363.35,228Z" fill="#646f30"/><path d="M366.28,326.76c-4.25,5.65-7.87,19.25-9.82,27.81-1.07,4.67-2.6,3.78-3.94,1.5-2-7-4.07-17.6-5.93-27a28.84,28.84,0,0,1,.88-13.25l-2.53-.79c-2.23,4.45-5.62,13-4,21.28,2.35,12,5.05,25.94,7.58,31.84s15.33,14.43,15.33,14.43-.56-1.68-1.24-4.44c-.51-2.26-4.31-19.89-.88-32.6,2.61-9.67,7.79-14.13,9.3-15.27Z" fill="#646f30"/><path d="M355.53,320a18.59,18.59,0,0,0-3.37,8.74,29.82,29.82,0,0,0,.63,10.69c.09.34.58-.11.59-.3.24-3.45-.07-6.92.3-10.38a21,21,0,0,1,2.52-8.36Z" fill="#646f30"/><path d="M351.54,317.8a11,11,0,0,0-.71,1.19,18.11,18.11,0,0,0-1.27,3.45A16.88,16.88,0,0,0,349,326a7.81,7.81,0,0,0,.5,3.62c.29.59,1.23-.06,1.3-.53.2-1.29.17-2.62.3-3.93a20.72,20.72,0,0,1,.64-3.57,24,24,0,0,1,1.16-3.1Z" fill="#646f30"/><path d="M371.05,330.29c8.45,6.59,13.05,12.66,27.53,12.27,18.7-.5,22.17-8.42,35-2.53s10,13.82,24.3,12.3c10.92-1.15,13.11-6.81,13.54-9.43a21.64,21.64,0,0,1-7.9,2.2c-11.3,1.19-11.93-3.48-18-8.4a66.21,66.21,0,0,0-9.51-8.95c-6.07-4.71-13.46-7.9-20.45-11-.41-.18-1.15.59-.68.87,6.61,4,13.74,7.17,19.77,12.08.79.65,1.53,1.34,2.29,2a69,69,0,0,0-11.29-5.6,106.84,106.84,0,0,0-14.86-4.49,78.06,78.06,0,0,0-17.05-2.47c-.27,0-1,.67-.52.8,5.06,1.46,10.35,2,15.49,3.11a101,101,0,0,1,16,4.69q3.28,1.29,6.43,2.87c-7.36-.32-12.79,4.29-26.94,4.67-10.09.28-15.39-2.59-20.53-6.59-.94-.93-8.8-8.47-26.23-17.93-13.27-7.2-15.14-15.34-15.13-19.44a5.21,5.21,0,0,1,.82-2,22.85,22.85,0,0,0,.77,2.43,17.5,17.5,0,0,0,1.82,3.55,9.08,9.08,0,0,0,2.75,2.9c.25.14.69-.28.59-.53a28.21,28.21,0,0,0-1.78-3.4c-.6-1.17-1.2-2.35-1.7-3.57a30,30,0,0,1-1.21-3.57,17.64,17.64,0,0,0,1.35-4.61,29.57,29.57,0,0,0,8.44,13.13c.24.22.73-.23.56-.5-3.81-5.71-8-11.95-8.36-18.82,0-.34,0-.64.05-1a24.84,24.84,0,0,1,1.24-7.2c-3.28,1.81-6.56,5.78-6.88,14.44-.68,17.86-5.73,10.61-3.71,21.06,1,5.31,2.77,7.82,7,10.8,6.86,4.83,18.28,8.29,27,15.85Z" fill="#b9cbdb"/><rect width="841.89" height="595.28" fill="none" stroke="#fff" stroke-miterlimit="10"/></svg>