<svg id="Layer_1" data-name="Layer 1" xmlns="http://www.w3.org/2000/svg" viewBox="0 0 841.89 595.28"><path d="M531.36,137.63a11.31,11.31,0,1,0,11.31,11.31A11.31,11.31,0,0,0,531.36,137.63Zm0,18.91a7.6,7.6,0,1,1,7.61-7.6A7.6,7.6,0,0,1,531.36,156.54Z" fill="#fbc56f"/><path d="M432.46,399.28a11.44,11.44,0,0,1,5.78-9c5.61-3.22,14.36-7,12.9-25.92s-2.69,5.19-2.69,5.19,1.09-11.12-2.13-11.07-2.06,15.75-2.06,15.75.22-9.7-2.59-8.59-.7,12.18-.7,12.18-1.64-7.71-3.28-7.14.55,10.55.55,10.55-1.48-5.75-3.7-4.48,1.55,7.87,1.55,7.87-2.29-4.07-3.4-1.41a3.16,3.16,0,0,0,.94,4S428.65,393.21,432.46,399.28Z" fill="#e0eaf7"/><path d="M437.69,370.68c.42-.14.83.24,1.21.88-.88,1.09-.79,7.24-.73,9.35C437.81,379.21,436.23,371.19,437.69,370.68Z" fill="#b9cbdb"/><path d="M433.63,387.21a3.16,3.16,0,0,1-.94-4c.77-1.84,2.1-.46,2.85.56-.51-.47-1-.81-1.43-.7-1.06.28.24,2.73.87,3.63s-2.11,4.17-3,6.39c-.57,1.35-.26,3.71.07,5.38C429.09,392.68,433.63,387.21,433.63,387.21Z" fill="#b9cbdb"/><path d="M441.67,365.64a1,1,0,0,1,1.27.36c-2.14,1-1.64,12.79-1.64,12.79l-.45-1.66C440.44,374.69,439.29,366.59,441.67,365.64Z" fill="#b9cbdb"/><path d="M434.54,376.75a1.18,1.18,0,0,1,.75-.17c-1.2,2.28,1.84,9.09,1.84,9.09a13.52,13.52,0,0,0-1.39-1.69C434.87,382.29,432.74,377.77,434.54,376.75Z" fill="#b9cbdb"/><path d="M448.49,370.29l-.05,1S448.45,370.9,448.49,370.29Z" fill="#b9cbdb"/><path d="M446.32,358.48a1.49,1.49,0,0,1,1.28.81c-2.89,1.23-3,18.14-3.2,16.48-.17-1.15-.32-4.33-.42-6.5,0,.24.07.48.09.73C444,365.34,444.2,358.52,446.32,358.48Z" fill="#b9cbdb"/><path d="M438.19,381.62s0-.39-.12-1c0,.13.07.25.1.34C438.18,381.38,438.19,381.62,438.19,381.62Z" fill="#b9cbdb"/><path d="M450.87,361.25c-1.74.43-2.25,6.59-2.38,9l.2-4.67C449.09,360.2,449.92,352.1,450.87,361.25Z" fill="#b9cbdb"/><path d="M430.62,411.69a9.53,9.53,0,0,0,7.85,4.16c5.37,0,13.23-.82,19.91,13.47s-4.07-2.65-4.07-2.65,5.34,7.59,3,8.87S449.38,425,449.38,425s4.12,6.92,1.63,7.26-5.48-8.52-5.48-8.52,2,6.25.55,6.5-3.92-7.85-3.92-7.85,1.29,4.76-.84,4.75-2.09-6.32-2.09-6.32,0,3.87-1.89,2.4a2.63,2.63,0,0,1-.95-3.27S430.35,417.64,430.62,411.69Z" fill="#e0eaf7"/><path d="M446.08,430.24c.35-.06.5-.51.51-1.13-1.08-.43-3.52-4.91-4.34-6.46C442.68,424,444.81,430.47,446.08,430.24Z" fill="#b9cbdb"/><path d="M436.39,420a2.63,2.63,0,0,0,1,3.27c1.3,1,1.7-.52,1.82-1.57-.17.55-.41,1-.74,1.1-.88.22-.94-2.08-.85-3s-3.23-2.16-4.81-3.39c-1-.74-1.7-2.57-2.14-3.91C430.88,417.84,436.39,420,436.39,420Z" fill="#b9cbdb"/><path d="M451,432.26a.85.85,0,0,0,.77-.78c-1.95.15-6.4-8.58-6.4-8.58l.35,1.39C446.43,426.22,448.9,432.55,451,432.26Z" fill="#b9cbdb"/><path d="M441.32,427.14a1,1,0,0,0,.61-.18c-1.8-1.17-2.38-7.33-2.38-7.33a11.74,11.74,0,0,1-.31,1.79C439.3,423,439.61,427.13,441.32,427.14Z" fill="#b9cbdb"/><path d="M454,426.12l-.44-.7Z" fill="#b9cbdb"/><path d="M457.3,435.54a1.24,1.24,0,0,0,.59-1.1c-2.59.28-9.55-11.91-9-10.61.35.89,1.53,3.25,2.35,4.86l-.23-.56C452.8,431.53,455.75,436.38,457.3,435.54Z" fill="#b9cbdb"/><path d="M442,422.13s.13.3.31.75c0-.11,0-.21-.07-.29Z" fill="#b9cbdb"/><path d="M459.45,431.68c-1.43.4-4.31-3.84-5.41-5.56l2.06,3.29C458.6,433.16,462.5,438.69,459.45,431.68Z" fill="#b9cbdb"/><path d="M446.74,313.51s9,61.46,16.68,74.8c0,0-20.85-4.51-27.13,7,0,0-17.4-5.54-24.06,3.06s-6,65.17-7.53,76.69,32.05-5.87,29.09-19.8-13.32-37.66-2.09-41.48,46.35,23.44,61.07,12.62,8.24-15.86,10.28-28c9.62-57.18-14.19-114.74-14.19-114.74Z" fill="#f19967"/><path d="M412.07,414.26c3.79-20.21,24.22-18.92,24.22-18.92s-17.4-5.54-24.06,3.06-6,65.17-7.53,76.69,32.05-5.87,29.09-19.8c-.45-2.11-1.08-4.46-1.77-6.92C415.49,456.29,408.45,433.5,412.07,414.26Z" fill="#d57940"/><path d="M483.68,396s-10.83-4.53-17.84-20.72c-5.46-12.59-9.36-51.08-10.83-67.61l-8.27,5.86s6.58,55.79,14.24,69.12c0,0-18.41,1.17-24.69,12.71C446,382.15,483.68,396,483.68,396Z" fill="#d57940"/><path d="M447.65,312.49s-26.62,49.69-45,66.84S379,402.4,374.3,416.6,317.51,461,314.55,477.53s-9.46,60.92-7.69,75.12-26.62,4.14-31.94-7.69,21.85-54.42,26.6-75.12,22.5-67.44,46.16-76.9,30.17-70.4,43.77-94.06Z" fill="#f19967"/><path d="M283.59,546.5c-10.47-7.55,4.94-27.89,16.65-64.26s26.19-56.7,37-71.8,19.11-12,29.22-24,24.1-45.61,24.1-45.61L377,339.41c-7.09,23.59-15.11,47.84-29.32,53.53-23.66,9.46-41.41,56.19-46.16,76.9s-31.93,63.29-26.6,75.12,33.72,21.89,31.94,7.69c-.08-.64-.14-1.35-.18-2.1C300.82,551.29,290.67,551.6,283.59,546.5Z" fill="#d57940"/><path d="M557.7,158.5c0-8.75-9.89-11-16.74-8.78s-14.35,5-16.32,6.82c-1.8,1.68-2.28,4-.17,6.88,3.36,4.62,5.08,1.17,5.84,3.83s14.07,7.61,16.36,11.79-9.9.38-16.36,2.29-31.2-10.66-36.53-12.94-17.12-18.26-25.87-18.67-23.2-3.77-29.67-9.48S428,118.17,424.16,112.09s-1.9-8-2.47-14.08-5.51-6.85-8.56-3.42S406.66,95,401,91.16s5.32-12.17-.76-10.27-26.38,2.92-26.38,2.92-3.81,14.71-3,18.26,5.7,2.82-.1,13.44c-3.29,6,4.41,6.85,4.41,6.85s1.77,14.45,7.1,15.22,22.32-8.63,26.88,0c4.11,7.75-28.92,6.89-39.66,13.29,2.89,13.32,8,35.29,12.61,46,4.9,3.93,30.07,23.74,43.54,26.7,0,0,2.79,13.19,9.64,17.5s-1.49,9.77,0,18.27C439.06,281.4,493,284,489.6,276.06S493,235,491.5,220.89s-10.27-25.49-10.27-25.49l-.38-6.09a63.88,63.88,0,0,0,19.4,4.95c10.27.76,23.59,11,38.81,11s19-8.37,23.2-19S557.7,167.25,557.7,158.5Z" fill="#f19967"/><path d="M452.66,191.38a12.47,12.47,0,0,0-3.24.49c-1.06.21-2.12.51-3.17.78-2.29.6-4.55,1.27-6.84,1.89a127,127,0,0,1-13.17,3.21,15,15,0,0,1-6.32-.22c-.23,0-.46,0-.68-.09-3.07-.66-5.56-3.36-8-5.22a46.37,46.37,0,0,0-8.54-5.46c-2.38-1.12-4.89-2.65-7.54-3a.62.62,0,0,0-.14.18,17.74,17.74,0,0,1,4.44,2.17c.29.17.57.35.85.53a28.9,28.9,0,0,1,2.49,1.56c1.13.73,2.26,1.48,3.35,2.29l3,2.22a51.94,51.94,0,0,0,5.24,5,14.15,14.15,0,0,0,10.77,2.83,99.16,99.16,0,0,0,13.6-3.11c2.3-.62,4.6-1.24,6.85-2,1.14-.38,2.27-.78,3.39-1.22a16,16,0,0,0,3.55-1.66C452.84,192.43,453.23,191.42,452.66,191.38Z" fill="#d57940"/><path d="M404,150.09c-2.92-.6-5.7-1.64-8.56-2.45a28.07,28.07,0,0,0-9-1.19c-1.16.06-2.35.18-3.54.31-7.48,1.41-14.15,3.25-16.16,6.54-.09.15-.19.34-.28.5a19.85,19.85,0,0,1,3-2.28A26.89,26.89,0,0,1,380.71,148c4.62-.43,9,.44,13.4,1.54,3.56.87,7.77,1.9,11.45.89Z" fill="#d57940"/><path d="M523.14,192a30.24,30.24,0,0,1,3.13-4.7,22.75,22.75,0,0,1,8.37-6.54,16.58,16.58,0,0,0-4.33.56,5.51,5.51,0,0,1-1,.16c-.25.21-.52.43-.75.66a20.26,20.26,0,0,0-3.76,5.19,19.43,19.43,0,0,0-1.32,3.08c-.09.25-.19.5-.26.75a1.94,1.94,0,0,0-.1.49h0a4.44,4.44,0,0,0-.25.86C523,192.32,523.07,192.14,523.14,192Z" fill="#d57940"/><path d="M559.54,176.1a9,9,0,0,0,.3-1.16,15.23,15.23,0,0,0-.44-5.89c-.46-2.11-1.16-4.15-1.68-6.24-.06-.23-.09-.47-.13-.7a15,15,0,0,0,.5,2.8,33.91,33.91,0,0,1,1.24,7.68,6.73,6.73,0,0,1-.09,2,3.28,3.28,0,0,1-1.54,1.8c-1,.71-2.08,1.4-3.14,2.06a9.44,9.44,0,0,1-3.71,1.45,3.16,3.16,0,0,1-1.72-.2c-.42-.19-1.19-.71-1.23-1.26a20.86,20.86,0,0,0,2.17-1.26c1.77-1.1,3.56-2.24,4.55-4.12.16-.31.13-1-.34-1-1.51.07-2.83,1.41-4.06,2.19s-2.8,2-4.37,2.07a4.88,4.88,0,0,1-3.7-2.08,15.28,15.28,0,0,1-1.81-2.76c.55-.33,1.1-.68,1.62-1a40.64,40.64,0,0,0,6.41-4.81c.13-.13.26-.78-.08-.69a27.47,27.47,0,0,0-5,2c-1.65.82-3.22,2-5,2.45a4.91,4.91,0,0,1-4.59-.86c-.75-.68-2.62-2.63-2-3.8,1.55-1.09,3.13-2.16,4.72-3.2,2.25-1.46,4.35-3,6.47-4.67.26-.2.38-1.12-.11-.87-2.12,1.06-4.17,2.12-6.19,3.36-1.77,1.08-3.53,2.19-5.34,3.21a.91.91,0,0,0-.49.28c-.8.44-1.5.84-2.36.3a5,5,0,0,1-1.61-1.93c-.82-1.54-1.18-3.13.09-4.5a16.39,16.39,0,0,1,4.68-3.06c1-.51,2.07-1,3.13-1.37a5.44,5.44,0,0,1,.62-.45,12.28,12.28,0,0,1,1.31-.65,13.94,13.94,0,0,1,3-.83c2-.4,3.93-.95,5.93-1.18a18.35,18.35,0,0,1,4,0,16.92,16.92,0,0,0-8.49.43c-6.85,2.26-13.62,4.49-15.66,6.25-2.63,2.28-4,3.22-.58,7.79s4.83.83,5.59,3.49c.38,1.34,4,3.27,7.7,5.38,3.37,1.93,7.62,4.51,8.66,6.41a1.32,1.32,0,0,1,.16,1.28,3.55,3.55,0,0,0,4.29,1.76c1.56-.44,3-1.7,4.33-2.61a23,23,0,0,0,3.64-2.79C559.26,176.5,559.39,176.29,559.54,176.1Z" fill="#d57940"/><path d="M548.79,203c-8,2-16,.25-23.42-3-3.81-1.67-7.44-3.72-11.32-5.18a35.18,35.18,0,0,0-6-1.78,23.76,23.76,0,0,1-3.24-.74c-3.48-.68-7-1.2-10.52-1.68a28.51,28.51,0,0,1-9.63-2.91,47.39,47.39,0,0,1-4.37-2.64l-.19-.13a19.23,19.23,0,0,1-.11-2.15c0-.09-.05-.18-.07-.28a35.32,35.32,0,0,1-.42-4,28.25,28.25,0,0,0-6.8-15.91,24.42,24.42,0,0,0-4.19-3.94,13.53,13.53,0,0,0-2.26-1.2,1.16,1.16,0,0,0,.06.22c.73,1.27,2.19,2.19,3.23,3.22s2.2,2.15,3.18,3.32a22.64,22.64,0,0,1,4.25,7.7c1,3.13,1,6.33,1.18,9.57,0,.7.09,1.4.15,2.08a6.27,6.27,0,0,0-1.94-1.05c-1.55-.42-2.44,3.25-.86,3.7a6.16,6.16,0,0,1,1.58,1.08l1.92,1.35,1,.65a10.8,10.8,0,0,0,.82,1.17s.07,0,.1.07l-.08-1.24a63.88,63.88,0,0,0,19.4,4.95c4.82.36,10.32,2.81,16.37,5.31.78.29,1.58.56,2.36.86,1.29.51,2.58,1.06,3.87,1.59a47.77,47.77,0,0,0,16.21,3.27c5.67,0,9.74-1.18,12.85-3.2C550.86,202.45,549.82,202.75,548.79,203Z" fill="#d57940"/><path d="M370.81,390.63s-6.7,6.71-7.39,19.19Z" fill="#d57940"/><path d="M491.4,409.6s-5.34,3.68-7.35,12Z" fill="#d57940"/><path d="M369.42,406.12s5.32-1.5,7.29-5.89Z" fill="#d57940"/><path d="M426.36,411.82c-4.18,11.13,2.21,24.08,2.21,24.08h0c-2.57-10.26-3.59-19.62,3.12-22.09,8-2.93,27.4,11.08,47.8,14.82C459,423.33,430.52,400.7,426.36,411.82Z" fill="#d57940"/><path d="M374,92.12c1.95-1.42,4.35-1.76,6.7-1.94a59.1,59.1,0,0,0,7.74-.85,34.56,34.56,0,0,0,6.35-2,12.27,12.27,0,0,0,4.15,7.23,82,82,0,0,1,8.95,9.31c.84,1.07,2.11.15,2.44-.88.66-2,1.68-3.89,3.66-4.82a4.7,4.7,0,0,1,5.68,1.12c2.91,3.53.91,9,1.14,13.09.29,5,3.26,8.85,5.59,13s4.21,9,7.09,13,6.63,7.36,11.48,8.22c.85.15,1.49-.62,1.81-1.55a30,30,0,0,1-8.53-4.86c-4.47-4-7.67-13-10.48-20.2a.25.25,0,0,0,0-.07,29.64,29.64,0,0,1-3.48-6.76,9,9,0,0,1-.25-1.44c-3.53-5.82-1.74-7.79-2.3-13.76a6.82,6.82,0,0,0-1.63-4.1c-.14-.08-.25-.18-.4-.26a6.3,6.3,0,0,0-4.77-.43,6.37,6.37,0,0,0-1.76,1.37A4,4,0,0,1,410.78,96a14.41,14.41,0,0,0-1.86,2.61A65,65,0,0,0,403.67,93L401,91.16A3.5,3.5,0,0,1,399.38,89c-1.14-1.32-1.92-2.82-1.41-4.44.34-1.09-.2-3.24-1.71-2.49a31.5,31.5,0,0,1-9.4,3c-2.91.46-5.89.3-8.78.9a9.57,9.57,0,0,0-5.51,3.09,90,90,0,0,0-1.8,10.06,1.27,1.27,0,0,0,.3-.59C371.6,96.21,371.94,93.63,374,92.12Z" fill="#d57940"/><path d="M412.23,127.11a32.1,32.1,0,0,1-5.24,3.46,23.66,23.66,0,0,1-7.2,2,62.92,62.92,0,0,0-7.79,1.83,28.81,28.81,0,0,1-5.85,1.33,5.94,5.94,0,0,1-5.26-1.79c-1.12-1.33-1.67-3.27-3.68-3.36a1.11,1.11,0,0,1-.29-.08c1.12,3.42,2.81,6.68,5.27,7,5.33.76,18.8-8.67,23.37-.05,1.8,3.41-9.62,6.83-17.11,8.25.6.71,10.7-.88,11.61-1,.76-.11,1.52-.29,2.28-.46a36.3,36.3,0,0,0,4.34-1.22,10.33,10.33,0,0,0,6.21-5c1.29-2.56,1.3-5.48,1.79-8.25a38.79,38.79,0,0,1,2-7.47A22.34,22.34,0,0,1,412.23,127.11Z" fill="#d57940"/><path d="M377.32,125.85h0a.15.15,0,0,1,.08,0l.12.1.11.11c.15.18.29.38.45.56l.15.13a.74.74,0,0,1,.35.1,6.81,6.81,0,0,0,1.11.42,4.47,4.47,0,0,0,1.23.25c-.19,0,.27,0,.35,0l.63-.09.19,0,.2,0,.62-.2c.37-.12.71-.28,1.07-.43h0l.16-.08c.19-.09.38-.2.56-.3s.52-.32.78-.48l-.44,0a6,6,0,0,1-3.46-1.11c-1-.66-1.8-1.46-2.71-2.18a5.06,5.06,0,0,0-1.22-.78,7.14,7.14,0,0,0-1-.29,2,2,0,0,0-.34,0l0,0c-.63-.51-1.36.25-1.63.75,0,0,0,0,0,.06l.46,0s.17,1.4.57,3.36a1.73,1.73,0,0,0,.59.21,3.15,3.15,0,0,0,.92,0Z" fill="#d57940"/><path d="M389.94,96.5a1.72,1.72,0,0,0-.49.19l-.05,0c-.55-.22-1.07.13-1.46.26a20.14,20.14,0,0,1-2.32.57,15.47,15.47,0,0,0-5.56,2.63c-1.73,1.23-3.7,2.76-4.51,4.8-.23.57-.3.94-.49,1.56a9.28,9.28,0,0,0-.32,1.55,6.54,6.54,0,0,0,.38,3.19,1.23,1.23,0,0,0,.22.35c.06-.24.11-.47.17-.7a11.1,11.1,0,0,1,1.6-4,9.17,9.17,0,0,1,2.86-2.43,22.22,22.22,0,0,1,2-1.14c.09,0,.16-.1.25-.15a19.84,19.84,0,0,1,4.47-1.4l.5-.14a1.56,1.56,0,0,1,.34-.23,3.22,3.22,0,0,1,.34-.56,7.91,7.91,0,0,1,.52-.63l-.09.1.15-.18c.18-.24.35-.47.51-.72l.24-.39.06-.1a15.93,15.93,0,0,0,.65-1.61c.09-.27.19-.54.27-.82A.41.41,0,0,0,389.94,96.5Z" fill="#d57940"/><path d="M390.51,96.2a10.83,10.83,0,0,0-4,.36,22.34,22.34,0,0,0-3.82,1.14,16.37,16.37,0,0,0-1.75.82c-.58.34-1.1.76-1.65,1.14a15.81,15.81,0,0,1-3.86,2,1.63,1.63,0,0,0-1,1.52c0,.41.19,1.38.83,1.18a11.33,11.33,0,0,0,3.79-1.89c1.15-.94,2.22-1.91,3.31-2.9a9,9,0,0,1,3.95-1.83,28.91,28.91,0,0,0,4.11-1C390.63,96.66,390.72,96.24,390.51,96.2Z" fill="#824c24"/><path d="M381.82,106.24a1.14,1.14,0,0,0,.33.89,8.81,8.81,0,0,0,1.89-1l.18-.13a21.53,21.53,0,0,0,2.78-3.55v-.26l1-.25c-.05-.22-.22-.43-.46-.29a2.26,2.26,0,0,1-.26.16.81.81,0,0,1-.22,0,.49.49,0,0,0-.27-.06,2.09,2.09,0,0,0-.4.19l-.14.08h0a3.2,3.2,0,0,1-.42.1c-.21,0-.42,0-.64.06a6.25,6.25,0,0,0-1.2.32,4.55,4.55,0,0,0-.63.3.64.64,0,0,0-.94.19,1.8,1.8,0,0,0-.31,1.63l0,.11.06.28h0c0-.09,0-.12,0,0a.13.13,0,0,1,0,.06.39.39,0,0,1,0,.09A3.07,3.07,0,0,0,381.82,106.24Z" fill="#fff"/><path d="M388,101.13a10.4,10.4,0,0,0-1.91.3c-.6.11-1.2.2-1.81.32-1.22.23-2.44.51-3.65.84a8.19,8.19,0,0,0-1.55.48,2.12,2.12,0,0,0-1,1.29,4,4,0,0,0,.19,2,11.72,11.72,0,0,0,.51,1.4,4.09,4.09,0,0,0,3.13,0,3,3,0,0,0,.35-.36,16.82,16.82,0,0,0,1.5-.83,8.54,8.54,0,0,0,2.81-3.07c.1-.19-.1-.55-.25-.27a6.63,6.63,0,0,1-1.23,1.6,9.43,9.43,0,0,1-1.62,1.2c-.22.14-.46.25-.69.37a4.49,4.49,0,0,0,.21-1,4.93,4.93,0,0,0-.05-1.15,5.48,5.48,0,0,0-.16-.74c.64-.18,1.27-.37,1.91-.52s1-.25,1.56-.34a15.43,15.43,0,0,0,1.65-.3C388.32,102.16,388.54,101.14,388,101.13Z" fill="#824c24"/><path d="M377.39,120.43c-1.27.57-2.44.13-4.15.32-1.5.16-2.57-1.3-3.37-2.57l0-.08c-.28,3.88,5.25,4.26,5.25,4.26a5.15,5.15,0,0,0,1.58.08,2.73,2.73,0,0,0,.84-.45c.24-.16.49-.29.72-.47a2.86,2.86,0,0,0,1.08-2.31A8.34,8.34,0,0,1,377.39,120.43Z" fill="#824c24"/><path d="M375.55,125.16a5.06,5.06,0,0,1,1.94,0,3.27,3.27,0,0,1,1.64.87,2.75,2.75,0,0,0,1.88,1,6.41,6.41,0,0,0,2.49-.29,18.5,18.5,0,0,0,2.5-.94,18.56,18.56,0,0,1-2.28,1.48,7.26,7.26,0,0,1-2.71.93,4.28,4.28,0,0,1-3-.85,2.62,2.62,0,0,0-2,.06Z" fill="#824c24"/><path d="M378.84,130.07a1,1,0,0,0-.29-.67.64.64,0,0,0-.28-.15l-.18-.05a.67.67,0,0,0-.2,0,3.37,3.37,0,0,1-.77-.14.65.65,0,0,0-.58.22h0c.17.62.4,1.37.65,2.1.13,0,.25,0,.38,0h.2a2.55,2.55,0,0,0,.35-.14,1.25,1.25,0,0,0,.66-.82A1.27,1.27,0,0,0,378.84,130.07Z" fill="#824c24"/><path d="M431.61,83.43c-.92-3.68-3.32-6.71-6-9.33a.49.49,0,0,0-.77,0A17.37,17.37,0,0,0,423,72.53a32.87,32.87,0,0,0-7.31-3.77,64.59,64.59,0,0,0-8.57-2.82,37.38,37.38,0,0,0-18.17.3,36,36,0,0,0-22.57,10.35c-2,1.84-3.81,3.8-5.75,5.66A34.67,34.67,0,0,1,354,87.7a1.1,1.1,0,0,0-.43.58,1.94,1.94,0,0,0-.28,1.19,2.36,2.36,0,0,0,2.14,2.06c1.35.11,2.68-.8,3.83-1.37,1.52-.76,3-1.54,4.55-2.31.44-.22.9-.49,1.37-.74a11.88,11.88,0,0,0-2.54,6.44c0,.51.11.75.32.82s.48.22.81-.19a16,16,0,0,1,1.62-1.75.79.79,0,0,0,.2-.17c4.08-3.66,9.55-4.88,14.92-5.79,5.75-1,11.91-1.44,17.3-3.81a9.91,9.91,0,0,0,1.52,8.67c2.47,3.19,6.88,4.43,8.81,8.06.55,1,1.69-.08,1.93-.69,1-2.7,3.29-5,6.38-4.93a4.76,4.76,0,0,1,2.73.91.75.75,0,0,0,.32.29,6.58,6.58,0,0,1,1.86,3.92c0,.36,0,.71,0,1.06.17,6.71,1.13,13.84,4.8,19.64.62,1,1.41.15,1.8-.85a2.25,2.25,0,0,0,.2-1.68,27,27,0,0,1-1.21-4.21c-.09-.52-.19-1-.28-1.54l-.09-.58a27.42,27.42,0,0,1,2.79-16.11,22.88,22.88,0,0,0,2.33-5.52A12.35,12.35,0,0,0,431.61,83.43Z" fill="#a25341"/><path d="M441.1,142.32s21.59,40.75-15.54,81.23c0,0-2,10.66,4.31,15.6s3.42,2.09,3.23,7.52-3,6.56-1.71,8.27-6.08-1-8,4.65-45.06,44.62-57,76.19c0,0,12.83,22.2,42.57,0s86.73,22.69,102.64-6.77c0,0,.19-12.58-6.49-30.13-4.56-12-16.29-37.33-16.12-39.29,2.51-30,13.11-35.46-8.19-70.28s-23.55-41.06-23.55-41.06.15-1.73-5.55-2.49-4-4.09-7.23-4.38S441.1,142.32,441.1,142.32Z" fill="#dfeaf6"/><path d="M443,143c1.42-1.79,5.44,6.24,5.89,7.15a61.81,61.81,0,0,1,4,10.62c1,3.59,1.78,7.25,2.47,10.92.65,3.5.89,7.3,2,10.68.25.79.91-.12.94-.53.28-4.3-.49-8.88-1.12-13.13a83.82,83.82,0,0,0-2.25-10.38,2.09,2.09,0,0,0,0-.25c-.47-1.74-.9-3.48-1.37-5.22-.23-.82-.46-1.64-.68-2.47-.13-.52-.29-1.07-.4-1.61l.14,0a6.72,6.72,0,0,1,1.95.16,15.63,15.63,0,0,1,2,.65c.48.18,1,.31,1.48.45-.63-1.3-.79-1.75-.79-1.75s.15-1.73-5.55-2.49-4-4.09-7.23-4.38c-2.42-.21-3.13.42-3.34.75,0,.14,0,.28,0,.41s.21.42.38.79C441.92,143.68,442.41,143.71,443,143Z" fill="#b9cbdb"/><path d="M497,337.44c-7.79,1.29-21.24.13-28.41-3.32-14.11-6.77-23.59-12.28-39.24-11.29a40.08,40.08,0,0,0-10.68,2,48.77,48.77,0,0,0-9.32,4.7c-5.19,3.16-10.84,6.57-17.17,5.22a8.68,8.68,0,0,1-6.22-4.47c-1.31-2.71-.76-5.88.05-8.64a64.26,64.26,0,0,1,3.68-9q2.11-4.59,4.58-9a140.74,140.74,0,0,1,20-27.28l8.57-7.1c2.37-2,4.68-4.11,7.22-5.87,2-1.37,4.36-1.82,6.31-3.14,2.32-1.57,3-4.16,2.95-6.85-.1-3-.28-6-.44-9a12.91,12.91,0,0,0-.74-4.14c3.88-1.43,7.71-6.5,9.39-9.24a43.76,43.76,0,0,0,4.3-9.75,61.18,61.18,0,0,0,2.63-10.9c0-.33-.28-.26-.35,0-.87,3.09-1.52,6.21-2.6,9.24a46.8,46.8,0,0,1-4.12,8.63,35.51,35.51,0,0,1-5.73,7.29,10.68,10.68,0,0,1-4.83,2.7,5.34,5.34,0,0,0-.61-.54,29.54,29.54,0,0,0-2.9-1.8,9,9,0,0,0,2.61-1.59,16.87,16.87,0,0,0,3.84-4.84,13.14,13.14,0,0,0,1.79-5.71c0-.35-.31-.43-.46-.1-.35.76-.58,1.57-.94,2.34a24.52,24.52,0,0,1-1.21,2.26,17.83,17.83,0,0,1-3.28,4c-1.27,1.13-3,2.13-4.78,1.69a5.06,5.06,0,0,1-.58-.25,18.3,18.3,0,0,1-4.83-9c-.27,2.55-.54,9.09,3.16,13.28.17.16.33.34.5.49.7.64,2.28,1.8,2.28,1.91,4.28,3.33,1.93,1.44,1.75,6.37-.19,5.42-3,6.56-1.71,8.27s-6.08-1-8,4.65-45.06,44.62-57,76.19c0,0,12.83,22.2,42.57,0,29.51-22,86.92,23.48,102.64-6.77a47.71,47.71,0,0,1-6.4,4.71C502.64,335.26,500,336.94,497,337.44Z" fill="#b9cbdb"/><path d="M471.63,261.55s-5.91,19.25,4,37.33Z" fill="#b9cbdb"/><path d="M476.83,259.78s-2.49,13.59,2.3,22.69Z" fill="#b9cbdb"/><path d="M425.5,93c-1.06-.93-2.15-1.82-3.25-2.71a1.17,1.17,0,0,0-1-.77c-1.76-1.4-3.55-2.75-5.36-4.07,0-.07-.07-.15-.11-.21a27.18,27.18,0,0,0-5.73-6.29,5.4,5.4,0,0,0-1.55-2.2v0a.81.81,0,0,0-.93-.07,2.56,2.56,0,0,0-1,2.44h0l-.76-.48c-1.24-.77-2.48-1.54-3.65-2.4s-2.45-1.57-3.66-2.41-1.87,1.94-1.43,2.72a10.68,10.68,0,0,0,2.72,3.5,41.22,41.22,0,0,0,3.82,2.58q3.13,2,6.21,4a32.64,32.64,0,0,1,2,4.13A4,4,0,0,1,412,93a8.24,8.24,0,0,0-3.56,3.91c-.31.2-.59.38-.85.58-1.27-1.22-2.6-2.36-3.93-3.51-2.75-2.38-7.27-6.58-5.76-10.73.31-.83.58-3.63-1.12-3.24C389.94,81.61,383,82.92,376.29,85a32.52,32.52,0,0,0-12.44,6.65c0-.09,0-.18,0-.26a7.24,7.24,0,0,1,1.55-3.17A2.13,2.13,0,0,0,366,86.5c-.06-.44-.34-1-.86-.89a6.29,6.29,0,0,1-1-.07c-.24,0-.48,0-.72,0a5.8,5.8,0,0,0-1.65.36c-1,.35-2.05.77-3.11,1.08a8,8,0,0,1-3.08.22l-.68-.11c-.31.2-.61.42-.93.6a1.1,1.1,0,0,0-.43.58,1.94,1.94,0,0,0-.28,1.19,2.36,2.36,0,0,0,2.14,2.06c1.35.11,2.68-.8,3.83-1.37,1.52-.76,3-1.54,4.55-2.31.44-.22.9-.49,1.37-.74a11.88,11.88,0,0,0-2.54,6.44c0,.51.11.75.32.82s.48.22.81-.19a16,16,0,0,1,1.62-1.75.79.79,0,0,0,.2-.17c4.08-3.66,9.55-4.88,14.92-5.79,5.75-1,11.91-1.44,17.3-3.81a9.91,9.91,0,0,0,1.52,8.67c2.47,3.19,6.88,4.43,8.81,8.06.55,1,1.69-.08,1.93-.69,1-2.7,3.29-5,6.38-4.93a4.76,4.76,0,0,1,2.73.91.75.75,0,0,0,.32.29,6.58,6.58,0,0,1,1.86,3.92c0,.36,0,.71,0,1.06.14,5.52.84,11.31,3.12,16.43.55,1.1,1.14,2.19,1.79,3.24.05.08.11.18.16.28.57.43,1.2-.3,1.53-1.16a2.25,2.25,0,0,0,.2-1.68,27,27,0,0,1-1.21-4.21c-.09-.52-.19-1-.28-1.54l-.09-.58a27.51,27.51,0,0,1,2-14.51,19,19,0,0,0-1.34-1.65C426.73,94,426.11,93.48,425.5,93Z" fill="#713b2b"/><path d="M397.54,74A23.53,23.53,0,0,0,414.7,60.26c5.36-12.18,11.14-30.89,50.21-32s-10,6.65-10,6.65,22.51-4.67,23.1,1.93-31.76,7.65-31.76,7.65,19.79-2.57,18.13,3.42S439.59,52,439.59,52s16.14,1.67,15.32,5.14-21.69,1.19-21.69,1.19,12.08,1.76,10,6.58-16.44-1.45-16.44-1.45,8.82,3.8,3.61,6.64S422,69,422,69,410.8,80.51,397.54,74Z" fill="#e0eaf7"/><path d="M454.91,57.11c.21-.87-.66-1.63-2.06-2.27-2.05,2-14.64,3.19-19,3.53C437.44,58.72,454.18,60.22,454.91,57.11Z" fill="#b9cbdb"/><path d="M422,69s3.18,3.9,8.38,1c3.61-2,.5-4.39-1.76-5.7,1.07.93,1.89,1.94,1.76,2.78-.36,2.21-5.65.08-7.62-1s-8.08,5.23-12.42,7.62c-2.63,1.45-7.54,1.34-11,1C411.77,79.49,422,69,422,69Z" fill="#b9cbdb"/><path d="M464.36,47.88a2.11,2.11,0,0,0-1-2.51c-1.59,4.58-25.8,6.13-25.8,6.13l3.5.57C446.12,52.37,462.94,53,464.36,47.88Z" fill="#b9cbdb"/><path d="M443.19,64.88a2.56,2.56,0,0,0,.19-1.56c-4.42,2.94-19-1.8-19-1.8A29.4,29.4,0,0,1,428.14,64C431.78,65.42,441.49,68.78,443.19,64.88Z" fill="#b9cbdb"/><path d="M453.37,35l-2,.3S452.12,35.15,453.37,35Z" fill="#b9cbdb"/><path d="M478,36.81a3,3,0,0,0-1.92-2.43c-1.9,6.18-36.46,10-33,10.13,2.38.08,8.91-.29,13.39-.57-.5,0-1,0-1.51,0C464.47,43.1,478.38,41.16,478,36.81Z" fill="#b9cbdb"/><path d="M432.43,58.48s.81,0,2,0l-.73-.14Z" fill="#b9cbdb"/><path d="M471.34,28.11c-.5,3.65-13,6-18,6.84l9.5-1.44C473.87,31.52,490.27,28.07,471.34,28.11Z" fill="#b9cbdb"/><path d="M428.73,96.06S408.57,73.41,376.36,69.6c0,0,18.51-17.64,42.35-4.64S428.73,96.06,428.73,96.06Z" fill="#fbc56f"/><path d="M426.51,77.47a7.08,7.08,0,0,0-3-5.69,11,11,0,0,0-5.69-2.11,7.74,7.74,0,0,0-5.95,1.84,7.15,7.15,0,0,0-2.19,6,8.79,8.79,0,0,0,2.73,5.41A8.15,8.15,0,0,0,417.82,85a9.54,9.54,0,0,0,5.67-1.84A7.08,7.08,0,0,0,426.51,77.47Zm.25,0a11.14,11.14,0,0,1-2.13,6.8,8.68,8.68,0,0,1-6.81,3.32,9.59,9.59,0,0,1-7-3.08,9,9,0,0,1-2.44-7,11.06,11.06,0,0,1,3-6.52,10,10,0,0,1,6.51-3.32,8,8,0,0,1,6.78,3.06A11.14,11.14,0,0,1,426.76,77.47Z" fill="#af8c51"/><path d="M423.8,78.12a3.89,3.89,0,0,0-2-3.35,9.1,9.1,0,0,0-3.35-1.15,4.51,4.51,0,0,0-3.63.88,4,4,0,0,0-1.22,3.62,5.5,5.5,0,0,0,1.76,3.09,5,5,0,0,0,3.09,1.13,6.56,6.56,0,0,0,3.33-.89A3.9,3.9,0,0,0,423.8,78.12Zm.25,0a8,8,0,0,1-1.17,4.47A5.44,5.44,0,0,1,418.41,85c-3.67.13-6.84-3.49-6.19-6.83a7.88,7.88,0,0,1,2-4.18,6.56,6.56,0,0,1,4.19-2.36,4.84,4.84,0,0,1,4.45,2.09A8.13,8.13,0,0,1,424.05,78.12Z" fill="#af8c51"/><path d="M419.53,87.82s11.24,2.44,9.27-14.77a17.23,17.23,0,0,1,.61,21.57Z" fill="#af8c51"/><path d="M417.82,77a25.94,25.94,0,0,0,21.75-10.65C448.26,54.51,459,35.81,501.2,44s-12.36,4.72-12.36,4.72,25.3.41,24.35,7.64-36,.57-36,.57,21.87,2,18.64,8-27.58-1.57-27.58-1.57,16.92,5.68,15.21,9.21-23.58-3.95-23.58-3.95,12.55,4.8,9.13,9.47-17.31-5.52-17.31-5.52,8.56,6.21,2.28,8-8.75-3.14-8.75-3.14S430.5,87.1,417.82,77Z" fill="#e0eaf7"/><path d="M483.51,72.6c.43-.88-.31-1.91-1.67-2.94-2.68,1.69-16.48-.1-21.21-.77C464.36,70.12,482,75.76,483.51,72.6Z" fill="#b9cbdb"/><path d="M445.28,77.47s2.47,4.94,8.75,3.14c4.34-1.24,1.59-4.59-.53-6.55.93,1.26,1.57,2.54,1.23,3.41-.92,2.29-6.09-1.27-7.94-2.92s-9.94,3.68-15.18,5.2c-3.17.92-8.41-.39-12.08-1.56C431.8,86.25,445.28,77.47,445.28,77.47Z" fill="#b9cbdb"/><path d="M495.88,65a2.32,2.32,0,0,0-.49-2.94c-2.81,4.54-29.19.37-29.19.37l3.63,1.45C475.21,65.39,493.13,70.08,495.88,65Z" fill="#b9cbdb"/><path d="M469.06,78.12a2.83,2.83,0,0,0,.57-1.63c-5.45,2.09-20-6.51-20-6.51a31.4,31.4,0,0,1,3.45,3.57C456.67,76,466.29,81.9,469.06,78.12Z" fill="#b9cbdb"/><path d="M487.19,48.43l-2.25-.16Z" fill="#b9cbdb"/><path d="M513.19,56.35a3.34,3.34,0,0,0-1.49-3.07c-3.52,6.18-41.56,2-37.89,2.93,2.53.66,9.64,1.84,14.51,2.61-.53-.14-1.07-.27-1.61-.39C497.15,59.85,512.56,61.12,513.19,56.35Z" fill="#b9cbdb"/><path d="M459,68.65s.87.19,2.15.53l-.75-.32Z" fill="#b9cbdb"/><path d="M508.14,45.41c-1.41,3.79-15.4,3.35-20.95,3l10.55.74C510,49.68,528.48,49.92,508.14,45.41Z" fill="#b9cbdb"/><path d="M314.72,473.62A13.47,13.47,0,0,0,326,468.08c4.52-6.14,10.1-15.87,32.07-11.61s-6.43,2.46-6.43,2.46,13.16.21,12.67,4-18.71.3-18.71.3,11.38,1,9.7,4.18-14.35-.82-14.35-.82,8.81,3,7.92,4.8-12.28-2.06-12.28-2.06,6.54,2.5,4.75,4.93-9-2.87-9-2.87,4.45,3.23,1.18,4.17a3.74,3.74,0,0,1-4.55-1.64S321.31,478.9,314.72,473.62Z" fill="#e0eaf7"/><path d="M348.9,471.36c.22-.46-.17-1-.87-1.53-1.4.88-8.58-.05-11-.41C338.93,470.07,348.1,473,348.9,471.36Z" fill="#b9cbdb"/><path d="M329,473.89a3.74,3.74,0,0,0,4.55,1.64c2.26-.65.83-2.4-.27-3.41.48.65.82,1.32.64,1.77-.48,1.19-3.17-.66-4.13-1.52s-5.18,1.91-7.9,2.71c-1.65.47-4.38-.2-6.28-.82C322,478.46,329,473.89,329,473.89Z" fill="#b9cbdb"/><path d="M355.33,467.38a1.22,1.22,0,0,0-.25-1.53c-1.47,2.36-15.19.19-15.19.19l1.88.76C344.58,467.6,353.9,470.05,355.33,467.38Z" fill="#b9cbdb"/><path d="M341.37,474.23a1.4,1.4,0,0,0,.3-.85c-2.84,1.09-10.39-3.39-10.39-3.39a16.45,16.45,0,0,1,1.79,1.86C334.93,473.1,339.93,476.2,341.37,474.23Z" fill="#b9cbdb"/><path d="M350.81,458.78l-1.17-.09Z" fill="#b9cbdb"/><path d="M364.34,462.9a1.75,1.75,0,0,0-.77-1.6c-1.84,3.22-21.63,1-19.72,1.53,1.32.34,5,.95,7.55,1.36l-.84-.21C356,464.72,364,465.38,364.34,462.9Z" fill="#b9cbdb"/><path d="M336.16,469.3s.46.1,1.12.28l-.39-.17Z" fill="#b9cbdb"/><path d="M361.71,457.21c-.73,2-8,1.74-10.9,1.57l5.49.38C362.69,459.43,372.3,459.56,361.71,457.21Z" fill="#b9cbdb"/><path d="M305.54,468.93a14.83,14.83,0,0,1-4.38-13.15c1.32-8.28,4.66-20.17-15.64-34.12s3,6.94,3,6.94-10.33-10.16-12.9-6.87,14.21,14.91,14.21,14.91-9.61-8.13-10.77-4.38,11.72,10.62,11.72,10.62-9.12-4.63-9.87-2.51,11.08,8,11.08,8-7-3.2-7.53.08,9.2,4.85,9.2,4.85-6-1-4.19,2.28a4.1,4.1,0,0,0,4.8,2.31S296.31,467.83,305.54,468.93Z" fill="#e0eaf7"/><path d="M281,440.37c.18-.53.9-.64,1.87-.5.38,1.77,6.66,6.69,8.83,8.35C289.65,447.19,280.27,442.26,281,440.37Z" fill="#b9cbdb"/><path d="M294.31,457.93a4.1,4.1,0,0,1-4.8-2.31c-1.23-2.27,1.24-2.49,2.89-2.41-.89.12-1.67.37-1.88.86-.57,1.3,3,2,4.38,2.07s2.49,5.54,4,8.29c.89,1.66,3.53,3.28,5.48,4.3C296.14,467,294.31,457.93,294.31,457.93Z" fill="#b9cbdb"/><path d="M279.1,432.26a1.33,1.33,0,0,1,1.4-1c-.73,3,11.56,12.07,11.56,12.07l-2-.9C287.22,440.86,278.11,435.43,279.1,432.26Z" fill="#b9cbdb"/><path d="M284.5,448.49a1.62,1.62,0,0,1,.43-.89c1.34,3.07,10.68,5.54,10.68,5.54a18,18,0,0,0-2.84,0C290.35,452.67,284.07,451.13,284.5,448.49Z" fill="#b9cbdb"/><path d="M289.34,429.16l1,.86Z" fill="#b9cbdb"/><path d="M275.66,421.73a1.91,1.91,0,0,1,1.85-.63c-1.1,3.92,15.89,17.76,14,16.65-1.29-.77-4.62-3.2-6.89-4.88.27.17.54.33.81.51C280.68,429.68,274,423.9,275.66,421.73Z" fill="#b9cbdb"/><path d="M292.38,448.77s-.42-.28-1.07-.66l.43.18Z" fill="#b9cbdb"/><path d="M282.15,419.4c-1,2.1,4.82,7.63,7.19,9.76l-4.54-4C279.65,420.34,272.15,412.91,282.15,419.4Z" fill="#b9cbdb"/><path d="M373.33,71.25s-1.57-5.29,2.52-4.44,42.7,7.14,55.54,29.25c0,0,1.14,2.52-1.8,2.14S405.63,76.16,373.33,71.25Z" fill="#af8c51"/><path d="M301.74,468.9s.78,4.79,13.2,7.14l2.83-5.29s-11.2-3.17-13.83-9.94Z" fill="#a25341"/><path d="M307.31,450.7s4.41,7.12,17.54,11.93l8.44-7.73s-18.18-10-21.22-16.21Z" fill="#a25341"/><path d="M436.29,395.34s-8.69,9.27-1.06,18.14c0,0-4.43-.31-6.68,2.51,0,0-5.88-5.83.54-22.13A22.28,22.28,0,0,1,436.29,395.34Z" fill="#a25341"/><path d="M450.35,384.88s-14.63,20.95-3.81,32l-7.27-2.65s-7.69-9,4.2-26.15C443.47,388.07,447.79,384.88,450.35,384.88Z" fill="#a25341"/><path d="M552.68,181.38l22.46,28.71s3.47.79,3.47-2.75l-20.75-29.58Z" fill="#fbc56f"/><path d="M560,103.62s-24.54,8.15-33.24,9.43-6.06,5.94-4.08,12.29a7.21,7.21,0,0,1-.16,5.12l-4.28-5.74a9.54,9.54,0,0,0,.64-3.39,9.76,9.76,0,1,0-9.76,9.76,10,10,0,0,0,1.66-.17l4.1,4.67a7.12,7.12,0,0,1-5.37-.87c-5.79-3.28-9.77-6.85-12.88,1.37s-16.31,30.46-16.31,30.46,4.05,3.84,8.54-.93c0,0,4.15,4.36,7.65-.79,0,0,6.44,2.89,8.87-4,0,0,5.44.45,5.76-4,0,0,6.81-1.25,4.61-7.65,0,0,4.86-3.53,1.68-7.67a11.83,11.83,0,0,0,2.09-.64l10.91,12.53,7.32-2.59-11-14.67a12.45,12.45,0,0,0,.86-1.6c3.37,4,7.86,0,7.86,0,5.77,3.51,8.46-2.87,8.46-2.87,4.45.64,5.17-4.77,5.17-4.77,7.22-.91,5.78-7.82,5.78-7.82,5.77-2.31,2.4-7.3,2.4-7.3C562.85,108.4,560,103.62,560,103.62Z" fill="#fbc56f"/><path d="M516.62,141.08a5.73,5.73,0,0,1-2.35,7.86c.93,4.93-5.19,6.78-5.19,6.78-1.49,4.78-5.67,2.77-5.67,2.77-1.54,5.7-7.55,4-7.55,4-3,4.39-7.94.38-7.94.38-1.11,3-4.95,2.51-6.72,2.11l-.92,1.56s4.05,3.84,8.54-.93c0,0,4.15,4.36,7.65-.79,0,0,6.44,2.89,8.87-4,0,0,5.44.45,5.76-4,0,0,6.81-1.25,4.61-7.65,0,0,4.86-3.53,1.68-7.67a11.83,11.83,0,0,0,2.09-.64l10.91,12.53,2-.71-12.36-12.83Z" fill="#af8c51"/><path d="M556,111.42c2.24,4.54-2.61,7.16-2.61,7.16.15,6.63-5.48,6.86-5.48,6.86-1.61,5-5.19,4-5.19,4-2.42,6.16-7.21,2.54-7.21,2.54-4.08,5.47-8.24.69-8.24.69l-1.54,2.24,1,1.21a12.45,12.45,0,0,0,.86-1.6c3.37,4,7.86,0,7.86,0,5.77,3.51,8.46-2.87,8.46-2.87,4.45.64,5.17-4.77,5.17-4.77,7.22-.91,5.78-7.82,5.78-7.82,5.77-2.31,2.4-7.3,2.4-7.3,5.62-3.37,2.73-8.15,2.73-8.15l-1.26.41C560.23,108.84,556,111.42,556,111.42Z" fill="#af8c51"/><path d="M518.5,118.76s.55,8.53-10,8.91-7.42-11.9-7.42-11.9a9.59,9.59,0,0,0,1.81,13.09,8.29,8.29,0,0,0,7.59,2l4.37,4.7-2.22-5.42a17.24,17.24,0,0,0,3.12-1.88C520.14,125,518.5,118.76,518.5,118.76Z" fill="#af8c51"/><path d="M554.68,180l-2,1.39,22.45,28.7.22,0a4.17,4.17,0,0,0,.07-.54Z" fill="#af8c51"/><path d="M569.4,201a5.12,5.12,0,1,0-1.82.33,4.87,4.87,0,0,0,.66,0l-1.33-1.7a3.44,3.44,0,1,1,1.48,0Z" fill="#fbc56f"/><path d="M574.44,208.17a4.29,4.29,0,1,0-1.15.15,3.24,3.24,0,0,0,.44,0l-1.13-1.46a2.87,2.87,0,1,1,1,.07Z" fill="#fbc56f"/><path d="M563.77,193a7.61,7.61,0,1,0-3.79,1,7.73,7.73,0,0,0,2.26-.34l-1.69-2.18a5.44,5.44,0,0,1-.57,0,5.09,5.09,0,1,1,2.36-.57Z" fill="#fbc56f"/><path d="M522.51,141.91A10.93,10.93,0,0,0,521.2,144l2.87,2.8a6.54,6.54,0,0,1,1.23-2.43Z" fill="#fbc56f"/><path d="M471.55,247.82s9.42-13.41,7.58-29.7Z" fill="#b9cbdb"/><path d="M479.13,247.82s4.39-5.34,4.15-10.33Z" fill="#b9cbdb"/><path d="M433.2,241.78s23.7,9.48,58.43,0a10.36,10.36,0,0,1,0,8.55c-2.13,4.28,1.31,7.51-.74,10.52s-2.08,2.2-2.08,2.2-40,8.83-57.46-7.55a2.89,2.89,0,0,1,.37-3.55C433.28,250,430.69,247.21,433.2,241.78Z" fill="#5681a4"/><path d="M433.22,253.6c.46-2.33,2.19-1.07.81-5.46a5.51,5.51,0,0,1,1.46-5.59c-1.5-.45-2.29-.77-2.29-.77-2.51,5.43.08,8.21-1.48,10.17a2.89,2.89,0,0,0-.37,3.55c9.56,9,25.93,10.38,38.75,9.81C449.47,263.93,432.82,255.63,433.22,253.6Z" fill="#415779"/><polygon points="487.92 162.88 496.38 144.75 488.65 163.39 487.92 162.88" fill="#af8c51"/><polygon points="495.86 162.5 499.28 149.86 496.38 163.39 495.86 162.5" fill="#af8c51"/><polygon points="503.24 160.25 503.88 148.94 504.36 160.25 503.24 160.25" fill="#af8c51"/><polygon points="509.08 158.01 508.59 151.38 509.87 156.63 509.08 158.01" fill="#af8c51"/><polygon points="514.9 150.18 513.14 147.39 515.71 149.17 514.9 150.18" fill="#af8c51"/><polygon points="557.25 110.32 537.25 115.38 557.25 111.38 557.25 110.32" fill="#af8c51"/><polygon points="555.88 118.57 536.05 117.77 553.7 119.21 555.88 118.57" fill="#af8c51"/><polygon points="549.23 125.68 541.33 123.12 547.61 126.13 549.23 125.68" fill="#af8c51"/><polygon points="543.64 130.15 541.33 126.39 542.67 130.54 543.64 130.15" fill="#af8c51"/><polygon points="536.05 133.26 534.46 127.51 535.25 133.26 536.05 133.26" fill="#af8c51"/><path d="M404.65,286.76a12.13,12.13,0,0,0,7.74,1.72c4.63-.48,14-3,13.29-5.11-2.72-8.33-7.38-11.66-7.38-11.66Z" fill="#b9cbdb"/><path d="M419.53,274.65s3.16,2.39,4.48.63a1.57,1.57,0,0,0,.12-.26c-.25-.84-.47-1.69-.75-2.39a41.13,41.13,0,0,0-2.53-5.27,25.56,25.56,0,0,0-2.21-3.16,4.23,4.23,0,0,0,1.25-1.6,2.74,2.74,0,0,0-.67-2.72c-1.26-1.42-3.25-1.79-4.92-2.54a12.79,12.79,0,0,1-2.24-1.22c-.63-.45-1.21-1-1.81-1.43a10.08,10.08,0,0,0-5.84-3.41c-3.06-.38-5.92.83-8.9.6a3.16,3.16,0,0,1-2-.23c-3.2-1.59-12.41-9.9-16.9-20.27s-11-17.25-10.21-22.2,15.77-11.34,17.21-13.89,11.41,2.61,11.41,2.61l-14.35-50.71s-18,3.07-23.09,17.6-7.34,14.51-9.9,17.87-7.5,13.91-6.54,16.78-5.59,7.82-4.16,15.33,2.88,13.73,10.22,21.55,27.2,17.57,29.41,21.56.77,5.35,4.92,7.54,1,5.39,4.63,6.51,15.33,6.39,17.25,9.74,7.18,3,8.14,2.08c0,0,2.71,1.93,4.63,1.36s2.56-3.12,2.56-3.12,3.59,2.87,5.23,1.12S419.53,274.65,419.53,274.65Z" fill="#f19967"/><path d="M423.05,273.89l-.14.14c-.12.12.11-.08,0,0a2.4,2.4,0,0,1-.29.19l-.1.05-.16,0-.19,0h-.44l-.2,0-.13,0h-.06l-.24-.05-.33-.08c-1.23-1.68-2.49-3.34-3.8-5a119.7,119.7,0,0,0-9.23-10.14c-.57-.57-1.58-.26-.88.52,2.94,3.31,5.77,6.78,8.47,10.28,1.17,1.52,2.3,3.06,3.41,4.62a2.76,2.76,0,0,0,.67.93,30.61,30.61,0,0,0,3.18,4.17c-.06.12-.13.23-.19.36s0,0,0,0l-.12.2a4.42,4.42,0,0,1-.53.82l-.09.09-.18.13c-.12.08-.26.15-.39.22l-.12,0-.25.06-.24,0h-.13c-.19,0-.37,0-.56,0h0l-.23-.07-.25-.07a3.08,3.08,0,0,1-.45-.22l0,0-.27-.17-.48-.31-.52-.37a2.56,2.56,0,0,0-.45-.27l.18.09-.06,0a3.59,3.59,0,0,0-.64-.44c-1.18-1.61-2.5-3.12-3.76-4.67-2.82-3.5-5.6-7-8.51-10.48-.58-.68-2.24-.53-1.44.53,2.51,3.32,5.12,6.55,7.72,9.8,1.24,1.55,2.48,3.1,3.68,4.68a14.64,14.64,0,0,1,1.49,2.28c.09.17.15.34.23.51h0a2.1,2.1,0,0,0-.64.62l-.15.12-.36.21-.17.08-.33.08-.36.08h-.4l-.14,0c-.05,0-.35-.09-.12,0s0,0-.08,0l-.15-.08-.21-.14-.14-.11h0c-.11-.1-.21-.21-.31-.31a1,1,0,0,0-.23-.23h0l-.09-.15a.75.75,0,0,1-.07-.12v0a1.64,1.64,0,0,0-1-.85q-1.51-1.75-3.06-3.48-3.92-4.38-7.94-8.63c-.62-.65-1.74-.27-1,.57q3.87,4.26,7.66,8.61c1.22,1.4,2.42,2.82,3.63,4.24l-.18.22a1.82,1.82,0,0,1-.67.55,1,1,0,0,1-.36.14l-.26.05h-.36s0,0,0,0a1.39,1.39,0,0,0-.19-.06l-.11,0-.19-.09c-.26-.23-.54-.47-.83-.76-.72-.72-1.41-1.46-2.11-2.2a1.24,1.24,0,0,0-.42-.43,31.37,31.37,0,0,0-5.24-4.74,26.47,26.47,0,0,0-7.21-3.2c-1-.31-2.05-.61-3.06-.95l-.05,0a7.46,7.46,0,0,1-2.78-2.67c-.31-.71-.11-1.81-.33-2.6a6.75,6.75,0,0,0-.9-1.92c-.88-1.34-2.31-2-3.3-3.2-1.18-1.42-1.68-3.4-2.69-4.94-4.06-6.23-12.34-9.66-18.46-13.44-7-4.3-13.47-9.75-18.05-16.63-5.2-7.79-2.58-15.81-1.27-24.25a1.67,1.67,0,0,0-.06-.73c-.67,3-5.41,7.56-4.17,14.06,1.44,7.5,2.88,13.73,10.22,21.55s27.2,17.57,29.41,21.56.77,5.35,4.92,7.54,1,5.39,4.63,6.51,15.33,6.39,17.25,9.74,7.18,3,8.14,2.08c0,0,2.71,1.93,4.63,1.36s2.56-3.12,2.56-3.12,3.59,2.87,5.23,1.12-4.48-8.46-4.48-8.46,3.16,2.39,4.48.63a1.57,1.57,0,0,0,.12-.26c-.18-.61-.35-1.2-.54-1.76l-.27.32A4,4,0,0,1,423.05,273.89Z" fill="#d57940"/><path d="M392.42,256.42c-.38.3-1,.25-1.45.36a3.8,3.8,0,0,0-2.73,2.63,16.65,16.65,0,0,0-1.41,4.8c-.09,1.17,1.88,2.85,2.87,1.74a13.79,13.79,0,0,0,2.1-3.84,6,6,0,0,1,.74-1.4,2,2,0,0,1,1.34-.56,3.57,3.57,0,0,0,2.77-1.58c.49-.89.59-1.93,1.08-2.81s1.69-1.35,2.47-2c.51-.45,1-.91,1.5-1.39s.88-.74,1.34-1.12c-2.56,0-5,.86-7.53.67a3.51,3.51,0,0,1-1.49-.09A5.56,5.56,0,0,0,393,255,2.16,2.16,0,0,1,392.42,256.42Z" fill="#d57940"/><path d="M387.21,193.42c1.55.6,1.61-1.12.36-1.65a6.46,6.46,0,0,0-3.93-.41A6.94,6.94,0,0,0,380,193.7c-2.88,2.93-6,5.55-8.86,8.5-2.27,2.33-4.76,5.68-8,6.58-3.46.95-6.86-.25-10-1.48-1.17-.45-2.23.49-1.08,1.5a18.06,18.06,0,0,0,9.25,3.87c.24,0,.48.05.72.07,3,1,4.82,3.89,6.38,6.57,2,3.4,3.86,6.83,6,10.13,1.78,2.74,3.68,5.44,5.67,8.05a43.21,43.21,0,0,1-3.3-6.11c-3.5-8.07-8.17-14-9.73-18.58l-.27-.92a6.67,6.67,0,0,1-.21-2.7c.66-4.26,11.84-9.57,15.87-12.6C383.44,195.38,385.62,192.8,387.21,193.42Z" fill="#d57940"/><path d="M416.09,261.28a17.31,17.31,0,0,0,2.63,2.84,4.06,4.06,0,0,0,1.17-1.52,2.74,2.74,0,0,0-.67-2.72c-1.26-1.42-3.25-1.79-4.92-2.54a12.79,12.79,0,0,1-2.24-1.22c-.3-.22-.58-.46-.87-.68.79,1,1.58,2,2.38,2.93S415.24,260.32,416.09,261.28Z" fill="#d57940"/><rect width="841.89" height="595.28" fill="none" stroke="#fff" stroke-miterlimit="10"/></svg>