<svg width="1177" height="682" viewBox="0 0 1177 682" fill="none" xmlns="http://www.w3.org/2000/svg">
<g clip-path="url(#clip0)">
<rect x="-92" width="1361" height="682" fill="#CBE5FF"/>
<path d="M880.505 363.187L887.636 196.275C887.636 196.275 858.09 207.437 839.502 190.087L849.557 377.849L880.505 363.187Z" fill="white"/>
<path d="M849.629 378.991C849.418 378.998 849.211 378.939 849.034 378.824C848.862 378.73 848.716 378.593 848.612 378.426C848.508 378.259 848.449 378.068 848.44 377.872L838.457 190.11C838.444 189.873 838.503 189.637 838.626 189.433C838.749 189.23 838.93 189.068 839.146 188.968C839.36 188.866 839.6 188.833 839.833 188.871C840.067 188.909 840.283 189.018 840.453 189.182C858.281 205.842 887.066 195.204 887.352 195.108C887.535 195.036 887.733 195.011 887.929 195.036C888.124 195.061 888.31 195.135 888.469 195.251C888.628 195.369 888.756 195.524 888.843 195.702C888.93 195.88 888.973 196.076 888.968 196.275L881.837 363.187C881.826 363.404 881.757 363.615 881.635 363.795C881.514 363.976 881.345 364.119 881.148 364.21L850.247 378.872C850.059 378.977 849.842 379.019 849.629 378.991ZM840.834 192.776L850.651 376.039L879.175 362.449L886.306 197.988C880.078 199.94 857.473 205.819 840.834 192.776Z" fill="#D8E0E6"/>
<path d="M889.525 197.921C890.544 190.152 880.613 182.44 867.343 180.695C854.074 178.951 842.491 183.834 841.472 191.603C840.453 199.372 850.384 207.084 863.654 208.829C876.923 210.574 888.506 205.69 889.525 197.921Z" fill="white"/>
<path d="M867.17 208.319C865.582 208.328 863.994 208.241 862.416 208.057C848.154 206.51 837.672 198.537 838.314 189.969C838.463 188.475 838.918 187.028 839.65 185.718C840.382 184.408 841.376 183.262 842.568 182.353C847.536 178.211 855.832 176.355 864.817 177.354C879.079 178.901 889.562 186.875 888.92 195.443C888.77 196.937 888.315 198.383 887.583 199.694C886.851 201.004 885.858 202.149 884.665 203.059C879.593 206.738 873.427 208.592 867.17 208.319V208.319ZM860.325 179.473C854.557 179.206 848.866 180.882 844.161 184.233C843.216 184.937 842.426 185.829 841.841 186.853C841.256 187.876 840.889 189.01 840.762 190.183C840.215 197.323 850.08 204.344 862.749 205.748C870.973 206.653 878.818 204.939 883.215 201.298C884.157 200.585 884.944 199.688 885.528 198.661C886.112 197.634 886.482 196.498 886.614 195.324C887.161 188.184 877.296 181.043 864.627 179.758C863.199 179.581 861.763 179.486 860.325 179.473Z" fill="#D8E0E6"/>
<path d="M868.383 207.772C868.068 207.816 867.748 207.733 867.494 207.541C867.24 207.349 867.072 207.064 867.028 206.748C866.984 206.433 867.067 206.113 867.258 205.858C867.45 205.604 867.735 205.436 868.05 205.392C870.691 204.648 873.178 203.439 875.395 201.822C876.537 201.118 877.513 200.175 878.256 199.058C878.999 197.94 879.49 196.674 879.697 195.348C879.69 193.092 878.842 190.919 877.32 189.255C875.999 187.69 874.374 186.41 872.543 185.494C870.712 184.577 868.715 184.043 866.671 183.924C862.613 183.858 858.613 184.894 855.095 186.923C854.048 187.319 853.109 187.956 852.353 188.783C851.597 189.61 851.047 190.603 850.746 191.683C850.647 192.509 850.724 193.348 850.969 194.143C851.215 194.938 851.625 195.673 852.172 196.3C853.276 197.478 854.645 198.376 856.165 198.918L856.736 199.132L856.973 189.779C856.976 189.581 857.029 189.386 857.129 189.215C857.229 189.044 857.372 188.902 857.544 188.803C859.459 187.631 861.62 186.923 863.856 186.732C866.092 186.542 868.342 186.876 870.427 187.708C871.532 188.114 872.525 188.774 873.327 189.636C874.108 190.678 874.615 191.899 874.802 193.188C874.988 194.477 874.849 195.793 874.397 197.014C873.984 198.126 873.349 199.143 872.532 200.002C871.715 200.861 870.732 201.545 869.643 202.012C867.762 202.814 865.713 203.141 863.676 202.964C860.764 202.841 857.894 202.221 855.191 201.132C853.345 200.468 851.683 199.375 850.341 197.942C849.581 197.05 849.013 196.011 848.674 194.888C848.334 193.766 848.23 192.585 848.369 191.421C848.696 189.948 849.375 188.577 850.348 187.424C851.321 186.272 852.558 185.373 853.954 184.804C857.919 182.554 862.426 181.442 866.98 181.591C869.346 181.728 871.658 182.347 873.776 183.411C875.893 184.476 877.771 185.962 879.293 187.78C880.398 188.896 881.227 190.255 881.716 191.749C882.204 193.242 882.339 194.829 882.108 196.384C881.877 197.939 881.288 199.418 880.387 200.705C879.486 201.991 878.297 203.05 876.916 203.797C874.479 205.58 871.741 206.91 868.834 207.724L868.383 207.772ZM859.017 199.989C860.572 200.395 862.166 200.627 863.771 200.679C865.439 200.83 867.119 200.577 868.668 199.942C869.449 199.593 870.152 199.091 870.736 198.466C871.32 197.84 871.773 197.104 872.067 196.3C872.378 195.474 872.482 194.585 872.37 193.709C872.258 192.834 871.934 191.999 871.425 191.278C870.883 190.7 870.205 190.266 869.452 190.017C867.809 189.363 866.042 189.078 864.276 189.181C862.51 189.284 860.789 189.772 859.231 190.612L859.017 199.989Z" fill="#D8E0E6"/>
<path d="M921.937 358.094L946.776 193.68C946.776 193.68 916.303 200.178 899.688 180.114L889.776 367.947L921.937 358.094Z" fill="white"/>
<path d="M889.776 369.067C889.508 369.064 889.249 368.972 889.039 368.806C888.886 368.69 888.764 368.538 888.685 368.364C888.607 368.189 888.573 367.997 888.587 367.806L898.499 180.044C898.514 179.806 898.598 179.577 898.742 179.387C898.886 179.196 899.083 179.052 899.308 178.973C899.539 178.902 899.786 178.9 900.018 178.967C900.251 179.035 900.458 179.169 900.615 179.354C916.564 198.632 946.229 192.587 946.515 192.516C946.703 192.471 946.899 192.473 947.085 192.523C947.272 192.573 947.444 192.669 947.584 192.801C947.722 192.935 947.827 193.1 947.889 193.282C947.951 193.464 947.968 193.658 947.941 193.849L923.125 358.286C923.09 358.507 922.993 358.713 922.846 358.882C922.699 359.05 922.507 359.173 922.293 359.238L890.109 369.02L889.776 369.067ZM900.734 183.043L891.036 366.306L920.891 357.239L945.421 195.134C938.932 196.086 915.542 198.323 900.734 183.043Z" fill="#D8E0E6"/>
<path d="M946.741 193.811C949.051 186.395 940.449 177.112 927.528 173.078C914.607 169.043 902.26 171.784 899.95 179.201C897.64 186.617 906.242 195.9 919.163 199.934C932.084 203.969 944.431 201.227 946.741 193.811Z" fill="white"/>
<path d="M930.874 202.963C927.355 202.939 923.854 202.451 920.463 201.512C906.605 197.799 896.978 188.278 898.523 179.901C898.814 178.466 899.408 177.11 900.265 175.924C901.122 174.738 902.222 173.749 903.491 173.022C908.839 169.643 917.325 169.048 926.191 171.428C940.049 175.164 949.676 184.661 948.131 193.062C947.828 194.493 947.23 195.843 946.374 197.028C945.519 198.213 944.425 199.205 943.163 199.941C939.425 202.067 935.171 203.113 930.874 202.963V202.963ZM915.804 172.38C911.948 172.236 908.126 173.149 904.751 175.022C903.762 175.578 902.903 176.34 902.23 177.255C901.558 178.17 901.088 179.218 900.852 180.329C899.545 187.469 908.625 195.871 921.081 199.227C929.186 201.416 937.173 200.917 941.903 197.918C942.89 197.364 943.747 196.606 944.419 195.695C945.091 194.784 945.562 193.741 945.801 192.634V192.634C947.109 185.494 938.029 177.068 925.573 173.736C922.39 172.86 919.105 172.404 915.804 172.38Z" fill="#D8E0E6"/>
<path d="M926.405 202.154C926.115 202.151 925.835 202.043 925.617 201.851C925.399 201.659 925.257 201.395 925.217 201.106C925.183 200.792 925.274 200.476 925.469 200.227C925.664 199.978 925.949 199.815 926.263 199.774C928.932 199.461 931.519 198.654 933.893 197.394C935.088 196.878 936.152 196.099 937.004 195.114C937.856 194.129 938.475 192.964 938.813 191.705C939.046 189.422 938.446 187.131 937.126 185.255C934.836 181.708 931.239 179.211 927.118 178.306C923.132 177.563 919.018 177.942 915.233 179.4C912.5 180.352 910.931 181.78 910.479 183.518C910.307 184.333 910.301 185.175 910.46 185.992C910.619 186.81 910.941 187.587 911.407 188.278C912.391 189.616 913.656 190.721 915.115 191.515L915.638 191.8L916.85 182.637C916.875 182.43 916.954 182.233 917.079 182.066C917.204 181.899 917.371 181.767 917.563 181.685C919.634 180.829 921.875 180.465 924.111 180.622C926.346 180.779 928.515 181.452 930.446 182.59C931.504 183.159 932.409 183.975 933.085 184.97C933.747 186.09 934.118 187.36 934.164 188.661C934.21 189.963 933.929 191.255 933.346 192.419C932.826 193.454 932.097 194.369 931.205 195.107C930.313 195.844 929.277 196.388 928.164 196.703C926.182 197.196 924.109 197.196 922.127 196.703C919.237 196.123 916.465 195.061 913.926 193.562C912.139 192.607 910.6 191.245 909.434 189.587C908.771 188.607 908.318 187.502 908.101 186.339C907.884 185.176 907.909 183.981 908.174 182.828C908.664 181.419 909.503 180.158 910.613 179.163C911.724 178.168 913.068 177.472 914.52 177.139C918.728 175.515 923.307 175.103 927.736 175.949C932.477 177.001 936.616 179.872 939.265 183.946C940.903 186.324 941.621 189.217 941.285 192.086C940.902 193.716 940.143 195.235 939.07 196.52C937.997 197.805 936.64 198.821 935.105 199.488C932.476 200.88 929.617 201.783 926.667 202.154H926.405ZM917.824 192.943C919.355 193.595 920.948 194.089 922.578 194.419C924.203 194.813 925.898 194.813 927.523 194.419C928.302 194.188 929.026 193.801 929.651 193.282C930.277 192.762 930.79 192.12 931.159 191.396C931.578 190.612 931.796 189.738 931.796 188.849C931.796 187.961 931.578 187.086 931.159 186.303C930.691 185.618 930.052 185.069 929.305 184.708C927.789 183.811 926.096 183.254 924.343 183.078C922.59 182.901 920.82 183.108 919.156 183.685L917.824 192.943Z" fill="#D8E0E6"/>
<path d="M857.806 395.199L856.974 228.073C856.974 228.073 886.044 240.854 905.298 224.574L888.088 411.574L857.806 395.199Z" fill="white"/>
<path d="M888.088 412.765C887.888 412.768 887.692 412.719 887.517 412.622L857.234 396.247C857.047 396.151 856.89 396.004 856.781 395.823C856.672 395.643 856.615 395.435 856.616 395.224L855.784 228.074C855.785 227.874 855.835 227.679 855.93 227.504C856.026 227.329 856.163 227.181 856.331 227.074C856.506 226.98 856.702 226.931 856.901 226.931C857.1 226.931 857.296 226.98 857.472 227.074C857.733 227.074 885.996 239.379 904.513 223.766C904.697 223.616 904.921 223.524 905.157 223.498C905.393 223.473 905.632 223.516 905.844 223.623C906.049 223.738 906.217 223.908 906.331 224.114C906.444 224.32 906.498 224.554 906.485 224.789L889.252 411.789C889.239 411.987 889.175 412.179 889.067 412.346C888.959 412.512 888.81 412.648 888.634 412.741C888.457 412.795 888.269 412.804 888.088 412.765V412.765ZM858.993 394.51L887.065 409.695L903.847 227.217C886.923 239.426 864.603 232.286 858.185 229.906L858.993 394.51Z" fill="#D8E0E6"/>
<path d="M882.015 240.073C895.366 239.23 905.788 232.187 905.294 224.342C904.799 216.497 893.576 210.821 880.225 211.664C866.875 212.508 856.452 219.551 856.947 227.396C857.441 235.241 868.665 240.917 882.015 240.073Z" fill="white"/>
<path d="M879.341 241.377C871.283 241.377 864.057 238.997 859.683 235.094C858.525 234.122 857.576 232.924 856.894 231.574C856.212 230.224 855.81 228.75 855.713 227.24C855.404 218.624 866.291 211.246 880.505 210.579C889.491 210.08 897.715 212.412 902.516 216.791C903.671 217.766 904.618 218.964 905.3 220.314C905.982 221.663 906.385 223.136 906.486 224.645C906.795 233.118 895.671 240.639 881.694 241.306C880.918 241.353 880.133 241.377 879.341 241.377ZM882.787 212.817H880.624C867.931 213.507 857.829 219.957 858.09 227.097C858.186 228.285 858.517 229.442 859.064 230.5C859.611 231.558 860.362 232.497 861.276 233.261C865.554 237.164 873.327 239.307 881.551 238.854C894.268 238.164 904.371 231.714 904.109 224.574C904.013 223.384 903.68 222.225 903.129 221.166C902.577 220.107 901.82 219.17 900.9 218.41C897.026 214.887 890.204 212.793 882.787 212.793V212.817Z" fill="#D8E0E6"/>
<path d="M875.895 240.687C875.769 240.71 875.64 240.71 875.514 240.687C872.643 239.706 869.965 238.232 867.599 236.332C866.197 235.364 865.025 234.099 864.166 232.626C863.308 231.153 862.784 229.51 862.631 227.811C862.669 224.956 863.811 222.226 865.816 220.195C867.417 218.463 869.358 217.08 871.518 216.134C873.678 215.188 876.009 214.699 878.367 214.697C882.911 214.835 887.336 216.191 891.179 218.624C892.548 219.265 893.746 220.222 894.672 221.419C895.598 222.615 896.226 224.015 896.503 225.503C896.608 226.675 896.464 227.856 896.078 228.968C895.693 230.08 895.076 231.097 894.269 231.953C892.861 233.351 891.13 234.381 889.229 234.951C886.485 235.895 883.598 236.354 880.696 236.308C878.64 236.373 876.6 235.931 874.754 235.023C872.642 233.931 871.044 232.05 870.309 229.787C869.899 228.553 869.809 227.236 870.046 225.959C870.283 224.681 870.839 223.484 871.663 222.48C872.499 221.646 873.528 221.033 874.658 220.695C876.789 219.99 879.054 219.786 881.276 220.1C883.498 220.414 885.618 221.236 887.471 222.504C887.633 222.614 887.767 222.763 887.858 222.938C887.949 223.112 887.996 223.306 887.993 223.503V232.881L888.588 232.69C890.12 232.251 891.518 231.432 892.652 230.31C893.224 229.714 893.662 229.001 893.937 228.222C894.211 227.442 894.316 226.612 894.245 225.788C894.003 224.668 893.5 223.62 892.777 222.731C892.054 221.842 891.132 221.136 890.085 220.671C886.635 218.456 882.653 217.215 878.557 217.077V217.077C876.524 217.081 874.513 217.506 872.652 218.325C870.791 219.144 869.119 220.34 867.741 221.837C866.165 223.425 865.248 225.551 865.174 227.788C865.333 229.135 865.778 230.434 866.479 231.595C867.18 232.757 868.121 233.755 869.239 234.523C871.376 236.24 873.787 237.583 876.37 238.498C876.685 238.548 876.967 238.722 877.155 238.981C877.342 239.24 877.419 239.563 877.368 239.878C877.318 240.194 877.144 240.476 876.886 240.664C876.627 240.851 876.305 240.928 875.99 240.878L875.895 240.687ZM879.199 222.266C877.913 222.26 876.636 222.469 875.419 222.885C874.653 223.084 873.955 223.487 873.399 224.051C872.863 224.743 872.508 225.559 872.367 226.423C872.226 227.288 872.303 228.174 872.59 229.001C872.854 229.827 873.277 230.592 873.835 231.254C874.394 231.915 875.078 232.46 875.847 232.857C877.333 233.554 878.96 233.896 880.601 233.857C882.197 233.892 883.791 233.748 885.355 233.428L885.474 224.075C883.586 222.911 881.416 222.285 879.199 222.266V222.266Z" fill="#D8E0E6"/>
<path d="M909.172 535.24H229.09C228.775 535.24 228.473 535.115 228.25 534.892C228.027 534.669 227.902 534.366 227.902 534.05C227.902 533.735 228.027 533.432 228.25 533.209C228.473 532.986 228.775 532.86 229.09 532.86H909.172C909.487 532.86 909.79 532.986 910.012 533.209C910.235 533.432 910.36 533.735 910.36 534.05C910.36 534.366 910.235 534.669 910.012 534.892C909.79 535.115 909.487 535.24 909.172 535.24Z" fill="#D8E0E6"/>
<path d="M827.665 324.94H943.971V524.079C943.958 530.004 941.604 535.684 937.421 539.876C933.239 544.068 927.569 546.432 921.651 546.451H850.08C844.141 546.451 838.446 544.089 834.247 539.884C830.047 535.68 827.688 529.977 827.688 524.031V324.94H827.665Z" fill="white"/>
<path d="M921.652 547.69H850.08C843.822 547.684 837.822 545.192 833.397 540.761C828.972 536.33 826.483 530.323 826.477 524.056V324.942C826.477 324.626 826.602 324.324 826.825 324.101C827.048 323.877 827.35 323.752 827.665 323.752H943.972C944.287 323.752 944.589 323.877 944.812 324.101C945.035 324.324 945.16 324.626 945.16 324.942V524.056C945.154 530.306 942.678 536.3 938.273 540.728C933.869 545.156 927.893 547.659 921.652 547.69ZM828.949 326.132V524.056C828.955 529.691 831.193 535.094 835.173 539.078C839.152 543.063 844.548 545.304 850.175 545.31H921.652C927.275 545.298 932.664 543.054 936.639 539.07C940.613 535.086 942.848 529.687 942.854 524.056V326.132H828.949Z" fill="#D8E0E6"/>
<path d="M279.744 300.379H249.057V482.024H279.744V300.379Z" fill="white"/>
<path d="M279.863 483.213H248.962C248.647 483.213 248.344 483.088 248.122 482.865C247.899 482.642 247.773 482.339 247.773 482.023V300.378C247.773 300.063 247.899 299.76 248.122 299.537C248.344 299.314 248.647 299.188 248.962 299.188H279.863C280.178 299.188 280.48 299.314 280.703 299.537C280.926 299.76 281.051 300.063 281.051 300.378V482.023C281.051 482.339 280.926 482.642 280.703 482.865C280.48 483.088 280.178 483.213 279.863 483.213ZM250.364 480.833H278.555V301.569H250.246L250.364 480.833Z" fill="#D8E0E6"/>
<path d="M320.51 264.487H279.744V446.132H320.51V264.487Z" fill="white"/>
<path d="M320.509 447.347H279.863C279.548 447.347 279.245 447.221 279.022 446.998C278.8 446.775 278.674 446.472 278.674 446.157V264.488C278.674 264.172 278.8 263.87 279.022 263.646C279.245 263.423 279.548 263.298 279.863 263.298H320.509C320.825 263.298 321.127 263.423 321.35 263.646C321.573 263.87 321.698 264.172 321.698 264.488V446.157C321.698 446.472 321.573 446.775 321.35 446.998C321.127 447.221 320.825 447.347 320.509 447.347ZM280.932 444.967H319.321V265.606H280.932V444.967Z" fill="#D8E0E6"/>
<path d="M390.916 279.053H320.509V460.698H390.916V279.053Z" fill="white"/>
<path d="M390.916 461.887H320.509C320.194 461.887 319.892 461.762 319.669 461.539C319.446 461.316 319.321 461.013 319.321 460.697V279.052C319.321 278.737 319.446 278.434 319.669 278.211C319.892 277.988 320.194 277.862 320.509 277.862H390.916C391.231 277.862 391.533 277.988 391.756 278.211C391.979 278.434 392.104 278.737 392.104 279.052V460.769C392.086 461.072 391.953 461.356 391.732 461.564C391.511 461.772 391.219 461.888 390.916 461.887V461.887ZM321.698 459.507H389.727V280.242H321.698V459.507Z" fill="#D8E0E6"/>
<path d="M421.841 398.507H227.188V549.116H421.841V398.507Z" fill="white"/>
<path d="M421.841 550.307H227.188C226.873 550.307 226.571 550.181 226.348 549.958C226.125 549.735 226 549.432 226 549.116V398.507C226 398.192 226.125 397.889 226.348 397.666C226.571 397.443 226.873 397.317 227.188 397.317H421.841C422.154 397.323 422.453 397.451 422.674 397.673C422.896 397.895 423.023 398.194 423.029 398.507V549.116C423.023 549.43 422.896 549.729 422.674 549.951C422.453 550.173 422.154 550.3 421.841 550.307V550.307ZM228.377 547.926H420.652V399.697H228.377V547.926Z" fill="#D8E0E6"/>
<path d="M302.777 450.393H248.962C248.647 450.393 248.344 450.268 248.122 450.045C247.899 449.821 247.773 449.519 247.773 449.203V418.953C247.773 418.637 247.899 418.334 248.122 418.111C248.344 417.888 248.647 417.763 248.962 417.763H302.682C302.997 417.763 303.299 417.888 303.522 418.111C303.745 418.334 303.87 418.637 303.87 418.953V449.203C303.871 449.503 303.759 449.792 303.557 450.013C303.354 450.233 303.076 450.369 302.777 450.393V450.393ZM250.246 448.013H301.589V420.143H250.246V448.013Z" fill="#D8E0E6"/>
<path d="M262.868 324.869C261.397 324.859 259.962 324.414 258.745 323.588C257.527 322.763 256.581 321.595 256.026 320.232C255.471 318.868 255.331 317.371 255.626 315.928C255.92 314.485 256.635 313.163 257.679 312.126C258.724 311.09 260.052 310.387 261.496 310.107C262.939 309.826 264.433 309.979 265.79 310.548C267.146 311.117 268.303 312.076 269.116 313.303C269.929 314.53 270.36 315.971 270.355 317.443C270.352 318.423 270.156 319.393 269.777 320.297C269.399 321.202 268.846 322.022 268.151 322.712C267.455 323.402 266.63 323.947 265.724 324.318C264.817 324.688 263.847 324.875 262.868 324.869V324.869ZM262.868 312.373C261.868 312.383 260.894 312.688 260.068 313.251C259.241 313.814 258.6 314.609 258.224 315.536C257.848 316.463 257.755 317.481 257.955 318.461C258.156 319.441 258.642 320.34 259.352 321.044C260.062 321.748 260.964 322.226 261.945 322.418C262.925 322.61 263.941 322.507 264.863 322.122C265.786 321.737 266.574 321.087 267.128 320.254C267.682 319.422 267.978 318.444 267.978 317.443C267.975 316.774 267.84 316.112 267.582 315.496C267.323 314.879 266.946 314.319 266.471 313.848C265.997 313.378 265.434 313.005 264.816 312.752C264.198 312.499 263.536 312.37 262.868 312.373V312.373Z" fill="#D8E0E6"/>
<path d="M300.115 293.31C298.642 293.31 297.203 292.873 295.979 292.053C294.755 291.233 293.801 290.069 293.239 288.706C292.676 287.343 292.531 285.844 292.82 284.399C293.109 282.953 293.819 281.626 294.862 280.585C295.905 279.544 297.233 278.836 298.678 278.551C300.123 278.267 301.619 278.418 302.978 278.985C304.337 279.553 305.498 280.511 306.312 281.739C307.127 282.967 307.559 284.41 307.555 285.884C307.555 286.862 307.362 287.829 306.988 288.732C306.614 289.634 306.065 290.454 305.374 291.144C304.683 291.834 303.863 292.38 302.96 292.752C302.058 293.124 301.091 293.313 300.115 293.31V293.31ZM300.115 280.815C299.113 280.815 298.134 281.112 297.302 281.669C296.469 282.226 295.82 283.018 295.437 283.944C295.054 284.871 294.954 285.89 295.149 286.873C295.344 287.857 295.827 288.76 296.535 289.469C297.243 290.178 298.145 290.661 299.127 290.857C300.109 291.052 301.127 290.952 302.052 290.568C302.977 290.184 303.768 289.535 304.324 288.701C304.881 287.867 305.178 286.887 305.178 285.884C305.181 285.218 305.052 284.557 304.799 283.941C304.545 283.324 304.173 282.764 303.702 282.293C303.231 281.821 302.672 281.448 302.056 281.194C301.44 280.941 300.781 280.812 300.115 280.815V280.815Z" fill="#D8E0E6"/>
<path d="M373.73 312.373H320.509C320.194 312.373 319.892 312.248 319.669 312.025C319.446 311.802 319.321 311.499 319.321 311.183C319.321 310.868 319.446 310.565 319.669 310.342C319.892 310.119 320.194 309.993 320.509 309.993H373.73C374.045 309.993 374.348 310.119 374.571 310.342C374.794 310.565 374.919 310.868 374.919 311.183C374.919 311.499 374.794 311.802 374.571 312.025C374.348 312.248 374.045 312.373 373.73 312.373Z" fill="#D8E0E6"/>
<path d="M320.509 339.029H279.863C279.548 339.029 279.245 338.904 279.022 338.681C278.8 338.458 278.674 338.155 278.674 337.839C278.674 337.524 278.8 337.221 279.022 336.998C279.245 336.775 279.548 336.649 279.863 336.649H320.509C320.825 336.649 321.127 336.775 321.35 336.998C321.573 337.221 321.698 337.524 321.698 337.839C321.698 338.155 321.573 338.458 321.35 338.681C321.127 338.904 320.825 339.029 320.509 339.029Z" fill="#D8E0E6"/>
<path d="M781.29 151.745H391.772C374.299 151.745 360.134 165.928 360.134 183.423V466.458C360.134 483.954 374.299 498.137 391.772 498.137H781.29C798.763 498.137 812.927 483.954 812.927 466.458V183.423C812.927 165.928 798.763 151.745 781.29 151.745Z" fill="white"/>
<path d="M781.408 499.326H391.772C383.069 499.314 374.727 495.847 368.574 489.685C362.42 483.524 358.958 475.171 358.945 466.458V183.423C358.958 174.71 362.42 166.357 368.574 160.196C374.727 154.034 383.069 150.567 391.772 150.555H781.408C790.113 150.561 798.458 154.026 804.613 160.189C810.768 166.351 814.228 174.708 814.235 183.423V466.458C814.222 475.171 810.76 483.524 804.606 489.685C798.453 495.847 790.111 499.314 781.408 499.326ZM391.772 152.935C383.698 152.941 375.957 156.155 370.248 161.872C364.539 167.588 361.329 175.339 361.322 183.423V466.458C361.335 474.54 364.547 482.288 370.255 488.002C375.962 493.717 383.7 496.934 391.772 496.946H781.408C789.482 496.94 797.223 493.726 802.932 488.009C808.641 482.293 811.851 474.542 811.858 466.458V183.423C811.851 175.339 808.641 167.588 802.932 161.872C797.223 156.155 789.482 152.941 781.408 152.935H391.772Z" fill="#231F20"/>
<path d="M758.756 111.427H414.306V440.016H758.756V111.427Z" fill="#95CAFF"/>
<path d="M813.688 441.181H359.373C359.058 441.181 358.756 441.055 358.533 440.832C358.31 440.609 358.185 440.306 358.185 439.991C358.191 439.677 358.318 439.378 358.539 439.156C358.761 438.934 359.06 438.807 359.373 438.801H813.688C814.003 438.801 814.305 438.926 814.528 439.149C814.751 439.372 814.876 439.675 814.876 439.991C814.876 440.306 814.751 440.609 814.528 440.832C814.305 441.055 814.003 441.181 813.688 441.181Z" fill="#231F20"/>
<path d="M586.543 477.24C592.542 477.24 597.405 472.37 597.405 466.363C597.405 460.356 592.542 455.486 586.543 455.486C580.543 455.486 575.68 460.356 575.68 466.363C575.68 472.37 580.543 477.24 586.543 477.24Z" fill="white"/>
<path d="M586.495 478.406C584.109 478.411 581.776 477.706 579.791 476.382C577.805 475.058 576.257 473.174 575.342 470.968C574.427 468.762 574.186 466.334 574.65 463.991C575.115 461.648 576.263 459.496 577.95 457.807C579.637 456.118 581.786 454.968 584.126 454.503C586.466 454.038 588.891 454.279 591.094 455.196C593.297 456.112 595.179 457.662 596.501 459.65C597.824 461.638 598.527 463.974 598.523 466.363C598.516 469.555 597.247 472.615 594.993 474.872C592.739 477.129 589.683 478.4 586.495 478.406V478.406ZM586.495 456.676C584.581 456.672 582.708 457.236 581.114 458.297C579.52 459.359 578.276 460.87 577.54 462.64C576.804 464.409 576.609 466.358 576.98 468.238C577.351 470.119 578.27 471.847 579.622 473.204C580.974 474.561 582.698 475.486 584.575 475.862C586.452 476.238 588.399 476.047 590.168 475.315C591.937 474.582 593.449 473.341 594.513 471.747C595.578 470.154 596.146 468.28 596.146 466.363C596.146 463.798 595.13 461.338 593.32 459.522C591.511 457.706 589.057 456.683 586.495 456.676V456.676Z" fill="#D8E0E6"/>
<path d="M668.525 548.807H504.56C499.571 548.807 495.527 552.856 495.527 557.851V559.207C495.527 564.202 499.571 568.252 504.56 568.252H668.525C673.514 568.252 677.558 564.202 677.558 559.207V557.851C677.558 552.856 673.514 548.807 668.525 548.807Z" fill="white"/>
<path d="M668.525 569.418H504.513C501.808 569.418 499.215 568.343 497.302 566.428C495.39 564.513 494.315 561.916 494.315 559.208V557.828C494.315 555.12 495.39 552.523 497.302 550.608C499.215 548.693 501.808 547.617 504.513 547.617H668.525C671.232 547.617 673.828 548.692 675.744 550.606C677.66 552.52 678.74 555.117 678.746 557.828V559.208C678.74 561.918 677.66 564.515 675.744 566.429C673.828 568.343 671.232 569.418 668.525 569.418V569.418ZM504.513 549.997C502.439 549.997 500.45 550.822 498.983 552.291C497.516 553.759 496.692 555.751 496.692 557.828V559.208C496.699 561.283 497.525 563.271 498.99 564.738C500.455 566.205 502.441 567.032 504.513 567.038H668.525C670.602 567.038 672.593 566.214 674.064 564.746C675.534 563.279 676.363 561.287 676.369 559.208V557.828C676.369 556.797 676.166 555.777 675.772 554.826C675.377 553.874 674.799 553.01 674.07 552.282C673.342 551.555 672.477 550.979 671.525 550.586C670.574 550.194 669.554 549.994 668.525 549.997H504.513Z" fill="#231F20"/>
<path d="M648.606 549.118H524.455L532.989 498.113H640.072L648.606 549.118Z" fill="white"/>
<path d="M648.606 550.307H524.455C524.283 550.307 524.112 550.269 523.956 550.195C523.799 550.121 523.662 550.013 523.552 549.879C523.437 549.752 523.354 549.599 523.308 549.434C523.263 549.268 523.257 549.095 523.291 548.927L531.824 497.922C531.87 497.647 532.012 497.397 532.226 497.218C532.44 497.039 532.71 496.943 532.989 496.946H639.954C640.235 496.942 640.509 497.037 640.727 497.216C640.944 497.395 641.091 497.645 641.142 497.922L649.794 548.831C649.818 549 649.808 549.171 649.763 549.335C649.718 549.498 649.639 549.651 649.533 549.783C649.426 549.933 649.287 550.058 649.127 550.148C648.967 550.238 648.789 550.293 648.606 550.307V550.307ZM525.858 547.927H647.085L638.955 499.326H533.987L525.858 547.927Z" fill="#231F20"/>
<path d="M528.734 523.627L641.784 508.252L640.072 498.113H532.989L528.734 523.627Z" fill="#231F20"/>
<path d="M528.734 524.817C528.573 524.818 528.413 524.784 528.265 524.718C528.118 524.653 527.986 524.556 527.878 524.436C527.749 524.301 527.653 524.14 527.595 523.962C527.537 523.785 527.52 523.597 527.545 523.413L531.824 497.922C531.87 497.647 532.012 497.397 532.226 497.218C532.439 497.039 532.71 496.943 532.989 496.946H639.954C640.235 496.942 640.509 497.037 640.727 497.216C640.944 497.395 641.091 497.645 641.142 497.922L642.83 508.037C642.855 508.195 642.849 508.356 642.813 508.511C642.776 508.666 642.709 508.813 642.616 508.942C642.52 509.072 642.399 509.181 642.261 509.263C642.122 509.345 641.967 509.398 641.808 509.418L528.758 524.793L528.734 524.817ZM533.987 499.326L530.16 522.223L640.405 507.228L639.074 499.326H533.987Z" fill="#231F20"/>
<path d="M479.507 292.048H446.443V318.276H479.507V292.048Z" fill="white"/>
<path d="M615.47 298.593H511.144C510.514 298.593 509.909 298.342 509.463 297.896C509.018 297.45 508.767 296.844 508.767 296.213C508.767 295.582 509.018 294.976 509.463 294.53C509.909 294.084 510.514 293.833 511.144 293.833H615.47C616.101 293.833 616.705 294.084 617.151 294.53C617.597 294.976 617.847 295.582 617.847 296.213C617.847 296.844 617.597 297.45 617.151 297.896C616.705 298.342 616.101 298.593 615.47 298.593Z" fill="white"/>
<path d="M593.626 313.564H511.144C510.514 313.564 509.909 313.313 509.463 312.867C509.018 312.42 508.767 311.815 508.767 311.184C508.767 310.553 509.018 309.947 509.463 309.501C509.909 309.054 510.514 308.804 511.144 308.804H593.626C594.256 308.804 594.861 309.054 595.307 309.501C595.752 309.947 596.003 310.553 596.003 311.184C596.003 311.815 595.752 312.42 595.307 312.867C594.861 313.313 594.256 313.564 593.626 313.564Z" fill="white"/>
<path d="M459.849 313.207C459.627 313.23 459.404 313.23 459.183 313.207C458.652 313.102 458.152 312.878 457.72 312.553C457.288 312.227 456.935 311.808 456.687 311.326L453.573 305.305C453.331 304.887 453.176 304.424 453.118 303.945C453.06 303.466 453.099 302.979 453.234 302.516C453.369 302.052 453.596 301.62 453.902 301.247C454.209 300.874 454.587 300.567 455.015 300.344C455.444 300.122 455.912 299.989 456.393 299.953C456.874 299.917 457.358 299.98 457.814 300.136C458.27 300.293 458.69 300.541 459.048 300.865C459.406 301.188 459.694 301.582 459.896 302.02L460.942 304.043L468.073 297.832C468.427 297.519 468.84 297.279 469.286 297.126C469.733 296.973 470.206 296.91 470.677 296.94C471.148 296.97 471.609 297.092 472.033 297.3C472.457 297.508 472.836 297.798 473.148 298.153C473.46 298.508 473.699 298.92 473.852 299.368C474.005 299.815 474.068 300.288 474.038 300.76C474.009 301.232 473.886 301.693 473.678 302.118C473.471 302.542 473.181 302.922 472.827 303.234L462.226 312.397C461.561 312.953 460.714 313.241 459.849 313.207V313.207Z" fill="#4084DD"/>
<path d="M479.507 337.841H446.443V364.069H479.507V337.841Z" fill="white"/>
<path d="M615.47 344.386H511.144C510.514 344.386 509.909 344.135 509.463 343.689C509.018 343.243 508.767 342.637 508.767 342.006C508.767 341.375 509.018 340.769 509.463 340.323C509.909 339.877 510.514 339.626 511.144 339.626H615.47C616.101 339.626 616.705 339.877 617.151 340.323C617.597 340.769 617.847 341.375 617.847 342.006C617.847 342.637 617.597 343.243 617.151 343.689C616.705 344.135 616.101 344.386 615.47 344.386Z" fill="white"/>
<path d="M593.626 359.379H511.144C510.514 359.379 509.909 359.128 509.463 358.682C509.018 358.236 508.767 357.63 508.767 356.999C508.767 356.368 509.018 355.763 509.463 355.316C509.909 354.87 510.514 354.619 511.144 354.619H593.626C594.256 354.619 594.861 354.87 595.307 355.316C595.752 355.763 596.003 356.368 596.003 356.999C596.003 357.63 595.752 358.236 595.307 358.682C594.861 359.128 594.256 359.379 593.626 359.379Z" fill="white"/>
<path d="M459.849 358.905C459.627 358.928 459.404 358.928 459.183 358.905C458.656 358.799 458.159 358.578 457.727 358.257C457.295 357.936 456.94 357.523 456.687 357.048L453.573 351.003C453.331 350.585 453.176 350.123 453.118 349.643C453.06 349.164 453.099 348.677 453.234 348.214C453.369 347.75 453.596 347.318 453.902 346.945C454.209 346.572 454.587 346.265 455.015 346.042C455.444 345.82 455.912 345.687 456.393 345.651C456.874 345.615 457.358 345.678 457.814 345.835C458.27 345.991 458.69 346.239 459.048 346.563C459.406 346.887 459.694 347.28 459.896 347.719L460.942 349.742L468.073 343.53C468.427 343.217 468.84 342.978 469.286 342.825C469.733 342.672 470.206 342.608 470.677 342.638C471.148 342.668 471.609 342.79 472.033 342.998C472.457 343.207 472.836 343.496 473.148 343.851C473.46 344.206 473.699 344.619 473.852 345.066C474.005 345.513 474.068 345.986 474.038 346.458C474.009 346.93 473.886 347.392 473.678 347.816C473.471 348.241 473.181 348.62 472.827 348.932L462.226 358.096C461.56 358.649 460.713 358.937 459.849 358.905Z" fill="#4084DD"/>
<path d="M651.791 290.763C650.311 292.054 648.921 293.446 647.631 294.928C641.011 302.368 637.063 311.808 636.412 321.751H656.069C656.621 317.033 658.482 312.564 661.441 308.851C662.657 307.301 664.053 305.903 665.601 304.686C669.309 301.726 673.773 299.87 678.484 299.331V279.624C668.603 280.288 659.218 284.204 651.791 290.763V290.763Z" fill="white"/>
<path d="M726.524 321.751C725.897 311.824 721.992 302.389 715.423 294.928L701.518 308.851C704.46 312.572 706.311 317.038 706.866 321.751C706.866 322.727 707.032 323.702 707.032 324.702C707.032 325.702 707.032 326.677 706.866 327.653C706.314 332.371 704.453 336.84 701.494 340.553C700.279 342.103 698.882 343.501 697.334 344.718C693.628 347.682 689.163 349.538 684.451 350.073C682.5 350.295 680.53 350.295 678.58 350.073C673.87 349.529 669.406 347.674 665.696 344.718C664.148 343.501 662.752 342.103 661.536 340.553C658.583 336.837 656.722 332.37 656.164 327.653H636.412C637.036 337.585 640.951 347.024 647.536 354.476C648.826 355.958 650.216 357.35 651.696 358.641C659.151 365.216 668.571 369.133 678.484 369.78C679.459 369.78 680.434 369.78 681.408 369.78C682.383 369.78 683.381 369.78 684.356 369.78C694.27 369.137 703.691 365.22 711.144 358.641C712.63 357.356 714.02 355.964 715.304 354.476C721.889 347.024 725.804 337.585 726.428 327.653C726.428 326.677 726.428 325.702 726.428 324.702C726.428 323.702 726.595 322.727 726.524 321.751Z" fill="white"/>
<path d="M711.264 290.763C703.801 284.184 694.373 280.267 684.451 279.624V299.331C689.169 299.871 693.641 301.726 697.358 304.686L711.264 290.763Z" fill="#231F20"/>
<path d="M697.358 305.877C697.088 305.886 696.825 305.792 696.621 305.615C693.073 302.794 688.808 301.022 684.308 300.498C684.022 300.463 683.759 300.326 683.566 300.111C683.374 299.897 683.266 299.62 683.262 299.332V279.625C683.261 279.463 683.295 279.303 683.361 279.156C683.426 279.008 683.522 278.876 683.643 278.768C683.759 278.655 683.897 278.568 684.048 278.511C684.199 278.453 684.361 278.428 684.522 278.435C694.716 279.068 704.406 283.098 712.048 289.883C712.288 290.105 712.433 290.412 712.452 290.74C712.454 290.899 712.424 291.058 712.362 291.205C712.301 291.352 712.21 291.486 712.095 291.596L698.213 305.543C697.982 305.76 697.675 305.88 697.358 305.877V305.877ZM685.639 298.284C689.83 298.919 693.808 300.552 697.239 303.044L709.504 290.763C702.765 285.125 694.478 281.664 685.734 280.839L685.639 298.284Z" fill="#231F20"/>
<path d="M717.23 400.887H446.442C445.812 400.887 445.207 400.636 444.762 400.19C444.316 399.744 444.065 399.138 444.065 398.507C444.065 397.876 444.316 397.27 444.762 396.824C445.207 396.378 445.812 396.127 446.442 396.127H717.23C717.86 396.127 718.465 396.378 718.91 396.824C719.356 397.27 719.607 397.876 719.607 398.507C719.607 399.138 719.356 399.744 718.91 400.19C718.465 400.636 717.86 400.887 717.23 400.887Z" fill="#231F20"/>
<path d="M621.936 258.466H446.442C445.812 258.466 445.207 258.215 444.762 257.769C444.316 257.322 444.065 256.717 444.065 256.086V161.598C444.065 160.967 444.316 160.361 444.762 159.915C445.207 159.469 445.812 159.218 446.442 159.218C447.073 159.218 447.677 159.469 448.123 159.915C448.569 160.361 448.819 160.967 448.819 161.598V253.706H621.936C622.566 253.706 623.171 253.956 623.617 254.403C624.062 254.849 624.313 255.454 624.313 256.086C624.313 256.717 624.062 257.322 623.617 257.769C623.171 258.215 622.566 258.466 621.936 258.466V258.466Z" fill="#231F20"/>
<path d="M456.735 246.732C456.401 246.752 456.068 246.695 455.76 246.565C455.2 246.28 454.776 245.784 454.58 245.187C454.384 244.589 454.432 243.938 454.714 243.376C455.522 241.805 474.538 204.772 499.426 197.037C513.687 192.562 518.703 200.773 523.029 208.009C526.927 214.554 530.303 220.194 540.048 219.504C550.674 218.743 556.854 208.128 562.82 197.846C568.786 187.564 575.275 176.425 586.733 176.854C596.232 177.437 605.757 177.437 615.257 176.854C615.569 176.824 615.884 176.856 616.183 176.948C616.483 177.041 616.762 177.191 617.003 177.391C617.245 177.591 617.445 177.837 617.592 178.114C617.739 178.392 617.83 178.695 617.859 179.008C617.889 179.32 617.857 179.636 617.765 179.936C617.673 180.236 617.523 180.515 617.323 180.757C617.123 180.999 616.878 181.199 616.601 181.346C616.324 181.493 616.02 181.584 615.708 181.614C605.972 182.221 596.207 182.221 586.471 181.614C577.914 181.328 572.542 190.491 566.861 200.25C560.586 211.055 553.455 223.312 540.31 224.264C527.617 225.145 522.768 217.124 518.917 210.46C514.686 203.32 511.62 198.227 500.804 201.582C477.819 208.723 459.112 245.161 458.922 245.542C458.702 245.923 458.382 246.236 457.996 246.446C457.61 246.656 457.173 246.755 456.735 246.732Z" fill="white"/>
<path d="M733.869 258.466H657.567C656.937 258.466 656.332 258.215 655.886 257.769C655.44 257.323 655.19 256.717 655.19 256.086V173.284C655.19 172.653 655.44 172.048 655.886 171.601C656.332 171.155 656.937 170.904 657.567 170.904H733.869C734.499 170.904 735.103 171.155 735.549 171.601C735.995 172.048 736.245 172.653 736.245 173.284V256.086C736.245 256.717 735.995 257.323 735.549 257.769C735.103 258.215 734.499 258.466 733.869 258.466ZM659.944 253.706H731.492V175.664H659.944V253.706Z" fill="white"/>
<path d="M690.417 258.466C689.787 258.466 689.182 258.215 688.736 257.769C688.29 257.323 688.04 256.717 688.04 256.086V173.284C688.04 172.653 688.29 172.048 688.736 171.601C689.182 171.155 689.787 170.904 690.417 170.904C691.047 170.904 691.652 171.155 692.098 171.601C692.544 172.048 692.794 172.653 692.794 173.284V256.086C692.794 256.717 692.544 257.323 692.098 257.769C691.652 258.215 691.047 258.466 690.417 258.466Z" fill="white"/>
<path d="M733.869 196.584H657.567C656.937 196.584 656.332 196.334 655.886 195.887C655.44 195.441 655.19 194.835 655.19 194.204C655.19 193.573 655.44 192.968 655.886 192.521C656.332 192.075 656.937 191.824 657.567 191.824H733.869C734.499 191.824 735.103 192.075 735.549 192.521C735.995 192.968 736.245 193.573 736.245 194.204C736.245 194.835 735.995 195.441 735.549 195.887C735.103 196.334 734.499 196.584 733.869 196.584Z" fill="white"/>
<path d="M930.945 341.457H905.06V360.045H930.945V341.457Z" fill="white"/>
<path d="M930.945 361.237H905.012C904.697 361.237 904.394 361.111 904.171 360.888C903.948 360.665 903.823 360.362 903.823 360.047V341.459C903.823 341.143 903.948 340.84 904.171 340.617C904.394 340.394 904.697 340.269 905.012 340.269H930.897C931.212 340.269 931.515 340.394 931.738 340.617C931.961 340.84 932.086 341.143 932.086 341.459V360.047C932.086 360.354 931.967 360.65 931.755 360.872C931.542 361.094 931.252 361.224 930.945 361.237V361.237ZM906.248 358.857H929.756V342.649H906.248V358.857Z" fill="#D8E0E6"/>
<path d="M324.503 151.745H256.616V219.719H324.503V151.745Z" fill="white"/>
<path d="M324.503 220.909H256.616C256.302 220.903 256.004 220.775 255.782 220.553C255.56 220.332 255.433 220.032 255.427 219.719V151.745C255.427 151.429 255.552 151.126 255.775 150.903C255.998 150.68 256.301 150.555 256.616 150.555H324.503C324.818 150.555 325.12 150.68 325.343 150.903C325.566 151.126 325.691 151.429 325.691 151.745V219.719C325.691 220.034 325.566 220.337 325.343 220.56C325.12 220.783 324.818 220.909 324.503 220.909ZM257.804 218.529H323.314V152.935H257.804V218.529Z" fill="#D8E0E6"/>
<path d="M312.998 168.024H269.095C268.78 168.024 268.477 167.898 268.254 167.675C268.031 167.452 267.906 167.149 267.906 166.834C267.906 166.518 268.031 166.215 268.254 165.992C268.477 165.769 268.78 165.644 269.095 165.644H312.998C313.311 165.65 313.61 165.777 313.831 165.999C314.053 166.221 314.18 166.52 314.186 166.834C314.186 167.149 314.061 167.452 313.838 167.675C313.615 167.898 313.313 168.024 312.998 168.024Z" fill="#D8E0E6"/>
<path d="M312.998 180.329H269.095C268.78 180.329 268.477 180.204 268.254 179.981C268.031 179.758 267.906 179.455 267.906 179.139C267.906 178.824 268.031 178.521 268.254 178.298C268.477 178.075 268.78 177.949 269.095 177.949H312.998C313.313 177.949 313.615 178.075 313.838 178.298C314.061 178.521 314.186 178.824 314.186 179.139C314.18 179.453 314.053 179.752 313.831 179.974C313.61 180.196 313.311 180.323 312.998 180.329V180.329Z" fill="#D8E0E6"/>
<path d="M312.998 192.586H269.095C268.78 192.586 268.477 192.461 268.254 192.238C268.031 192.014 267.906 191.712 267.906 191.396C267.906 191.08 268.031 190.778 268.254 190.555C268.477 190.331 268.78 190.206 269.095 190.206H312.998C313.311 190.212 313.61 190.339 313.831 190.561C314.053 190.783 314.18 191.082 314.186 191.396C314.186 191.712 314.061 192.014 313.838 192.238C313.615 192.461 313.313 192.586 312.998 192.586Z" fill="#D8E0E6"/>
<path d="M300.114 204.867H269.214C269.057 204.873 268.902 204.849 268.755 204.795C268.608 204.741 268.474 204.658 268.359 204.552C268.244 204.446 268.151 204.318 268.086 204.176C268.02 204.034 267.984 203.881 267.978 203.724C267.978 203.409 268.103 203.106 268.326 202.883C268.549 202.66 268.851 202.534 269.166 202.534H300.067C300.382 202.534 300.684 202.66 300.907 202.883C301.13 203.106 301.255 203.409 301.255 203.724C301.244 204.023 301.12 204.307 300.908 204.519C300.697 204.731 300.413 204.855 300.114 204.867V204.867Z" fill="#D8E0E6"/>
</g>
<defs>
<clipPath id="clip0">
<rect width="1177" height="682" fill="white"/>
</clipPath>
</defs>
</svg>
